<?xml version="1.0" standalone="no"?>
<!DOCTYPE svg PUBLIC "-//W3C//DTD SVG 1.1//EN" "http://www.w3.org/Graphics/SVG/1.1/DTD/svg11.dtd" >
<svg xmlns="http://www.w3.org/2000/svg" xmlns:xlink="http://www.w3.org/1999/xlink" version="1.1">
<metadata></metadata>
<defs>
<font id="flashefregular" horiz-adv-x="909" >
<font-face units-per-em="2048" ascent="1638" descent="-410" />
<missing-glyph horiz-adv-x="512" />
<glyph horiz-adv-x="0" />
<glyph horiz-adv-x="682" />
<glyph unicode="&#xd;" horiz-adv-x="1024" />
<glyph unicode=" "  horiz-adv-x="512" />
<glyph unicode="&#x09;" horiz-adv-x="512" />
<glyph unicode="&#xa0;" horiz-adv-x="512" />
<glyph unicode="!" horiz-adv-x="552" d="M-63 143q0 -35 22.5 -49t48.5 -28q20 -10 41 -26.5t41.5 -32t40 -27t37.5 -11.5q12 0 26.5 3t22.5 14q6 8 20.5 37.5t18.5 39.5q20 47 33.5 80t13.5 84q0 35 -22.5 55.5t-49.5 41.5q-12 8 -30.5 21t-38 25.5t-39 20.5t-37.5 8t-30.5 -13t-21.5 -31.5t-16.5 -38 t-11.5 -31.5q-6 -18 -17.5 -36t-23.5 -34t-20 -33.5t-8 -38.5zM88 571q0 -14 10.5 -29.5t24.5 -29.5t29.5 -26.5t25.5 -22.5q14 -14 26.5 -24.5t24 -18.5t24.5 -14.5t34 -12.5q8 -4 19 -7t20 -3q10 0 19 11.5t17.5 26.5t13.5 29.5t9 22.5q47 123 103.5 239.5t97.5 241.5 l20 66t25 63q12 25 22.5 48.5t10.5 52.5q0 31 -8.5 50t-28.5 42q-6 6 -12.5 12t-16.5 10q-23 8 -34 11.5t-32 17.5q-29 18 -49 34.5t-55 16.5q-29 0 -49.5 -19.5t-28.5 -45.5q-14 -47 -28.5 -92t-28.5 -93q-25 -80 -48.5 -160.5t-58.5 -158.5q-16 -35 -29.5 -69.5 t-29.5 -69.5q-10 -25 -18.5 -50.5t-20.5 -48.5z" />
<glyph unicode="$" horiz-adv-x="983" d="M-35 242q0 -25 16.5 -55.5t39 -62.5t47 -59.5t41.5 -44.5q10 -10 10 -24q0 -8 -3 -17.5t-7 -15.5q0 -14 -8.5 -31.5t-16.5 -35t-15.5 -34t-7.5 -28.5q0 -23 24 -29t40 -6q53 0 82 13.5t47 37t32.5 56.5t39.5 74q2 6 12 10t22.5 8t23.5 6t17 4q70 18 153 56t138 86 q70 59 115 153t45 184q0 49 -15.5 104.5t-45.5 94.5q-33 41 -78 79t-86 71q-14 10 -39 31.5t-25 43.5v7q20 23 30.5 33t21 16t24.5 12t43 22q10 4 31.5 17.5t31.5 13.5q6 0 7 -6q0 -10 -7.5 -23.5t-16.5 -26.5t-16 -26.5t-7 -23.5q0 -25 29.5 -43.5t69.5 -30.5t80 -17.5 t62 -5.5q37 0 50.5 7.5t29.5 40.5l21 41q8 16 21 31.5t24 31.5q20 29 33.5 57.5t13.5 63.5q0 66 -36 122t-83 97q-6 6 -6 10q0 8 5 25.5t11 37t11.5 41t5.5 38.5q0 23 -7.5 37t-33.5 14q-12 0 -25.5 -1t-26.5 -1q-4 0 -12 3t-12 3q-18 0 -35.5 -26.5t-34 -58.5t-31 -58.5 t-26.5 -28.5q-27 -4 -51.5 -7t-49.5 -10q-100 -23 -198 -75t-168 -129q-61 -70 -80.5 -149t-19.5 -171q0 -45 8 -81t35 -72q29 -41 72.5 -88.5t82.5 -75.5q16 -12 34.5 -28.5t18.5 -39.5q0 -18 -20.5 -37.5t-48 -34t-56 -23.5t-47.5 -9q-18 0 -21 20.5t-7 45t-15.5 45 t-46.5 20.5q-25 0 -48 -1t-48 -3q-33 -2 -47 -14.5t-31 -39.5l-37 -55q-12 -18 -30.5 -49t-18.5 -53z" />
<glyph unicode="%" horiz-adv-x="1456" d="M205 920q0 -14 2 -27.5t4 -28.5q6 -55 21.5 -91t56.5 -73q29 -25 56.5 -39t64.5 -14q92 0 161.5 47t116.5 119t70.5 158t23.5 166q0 14 -2 37.5t-7 48t-12 46t-18 31.5q-4 4 -23.5 11.5t-27.5 7.5q-10 0 -17 -4t-16 -4q-4 0 -15 14t-27.5 31.5t-36 32t-35.5 14.5 q-18 0 -43 -12.5t-41 -22.5q-35 -23 -67 -48.5t-54 -59.5q-20 -29 -44 -72t-44.5 -91t-33.5 -94.5t-13 -82.5zM272 84q0 -8 13.5 -21.5t17.5 -21.5q16 -23 45 -32t47 -27l19 -19q10 -10 16 -10q16 0 52 44t74 99.5t69.5 106.5t42.5 67q109 166 218 328t218 328 q35 53 70.5 104t72.5 105q27 37 47 71q2 6 10.5 17.5t15.5 26t13 26.5t6 18q0 23 -23.5 40.5t-41.5 21.5q-6 2 -15.5 3t-15.5 5q-2 0 -18.5 11t-18.5 14q-10 8 -12 16t-18 8q-12 0 -26.5 -14.5t-27 -32.5t-22.5 -36.5t-17 -26.5q-23 -39 -48 -75t-50 -73 q-121 -180 -240.5 -358.5t-240.5 -358.5l-146 -219q-12 -18 -30.5 -49t-30.5 -45q-8 -10 -16.5 -18.5t-8.5 -22.5zM434 930q0 10 5 24.5t10 24.5q10 31 19 55.5t20.5 47t26.5 44t40 43.5q16 0 17 -13.5t1 -25.5q0 -37 -11 -60t-27 -58q-4 -8 -11.5 -26.5t-17.5 -37 t-23.5 -32t-27.5 -13.5q-10 0 -15.5 8.5t-5.5 18.5zM809 219q0 -47 14.5 -93t42 -83t67.5 -59.5t91 -22.5q39 0 77 17.5t71.5 43t62.5 58.5t49 63q25 39 42 71t26.5 64.5t13.5 68.5t4 83q0 12 -1 37t-2 52.5t-5 51t-10 31.5q-10 12 -32 23.5t-38 11.5l-31 -12q-2 -2 -8 -2 t-14 12t-18.5 27.5t-22.5 27.5t-29 12q-12 0 -24.5 -4t-24.5 -8q-98 -39 -152.5 -100.5t-95.5 -157.5q-20 -47 -36.5 -103.5t-16.5 -109.5zM1026 227q0 14 8 42t20.5 56.5t25 55.5t20.5 37l28 37q4 4 11.5 12t13.5 8q12 0 12 -12v-31q0 -16 -2 -26.5t-5 -18.5t-7 -18 q-16 -51 -33.5 -85t-52.5 -75q-4 -4 -11 -11.5t-14 -7.5q-6 4 -10 16.5t-4 20.5z" />
<glyph unicode="&#x26;" horiz-adv-x="1286" d="M37 342q0 -84 27.5 -138t89.5 -112q25 -25 47 -46t44.5 -37.5t51.5 -27t65 -10.5q137 0 254 58.5t228 134.5q37 27 54 45t28 63q2 6 3 11.5t1 11.5q0 16 -9.5 33.5t-9.5 33.5q0 8 10.5 11.5t16.5 3.5h31q16 0 32.5 2t35 6t34.5 6h21h28q16 0 28.5 3t18.5 9l2 27 q4 8 12.5 26.5t17.5 38t15.5 37t6.5 23.5q0 51 -37 84q-23 23 -51.5 25t-57.5 2q-31 0 -62.5 -1t-62.5 -1q-29 0 -76 -8.5t-97 -20.5t-95 -26.5t-68 -28.5q-31 -16 -30 -52q0 -12 1 -25.5t1 -25.5l22 -41q0 -31 -24.5 -50t-46.5 -34q-25 -16 -52.5 -34.5t-56.5 -18.5 q-14 0 -27.5 4t-13.5 21q0 8 10.5 34.5t14.5 34.5l39 96q14 39 40.5 78t61.5 72t76 55.5t84 26.5q31 4 44 24.5t13 49.5t-15.5 39t-34 18t-33.5 24.5t-15 59.5q0 14 9 31.5t17 27.5q23 35 49.5 55.5t65.5 41.5q14 0 14 -17q0 -6 -6 -19.5t-14 -27.5t-14.5 -30.5t-6.5 -28.5 q0 -16 16.5 -33.5t38 -31t45 -22t40.5 -8.5q47 0 86 20.5t67.5 54.5t44 77t15.5 86q0 63 -21.5 106.5t-70.5 81.5q-39 29 -87.5 50.5t-97.5 21.5q-47 0 -101 -16.5t-107.5 -41t-101.5 -54t-85 -56.5q-59 -45 -102 -99t-43 -132q0 -20 5 -42t12 -39.5t12 -30.5t5 -19 q0 -10 -11 -13.5t-17 -7.5q-14 -6 -37 -21.5t-47.5 -36t-46 -38.5t-31.5 -31q-31 -31 -54.5 -73.5t-41 -90t-25.5 -96.5t-8 -92z" />
<glyph unicode="(" horiz-adv-x="827" d="M156 406q0 -123 26.5 -239t83.5 -224q6 -10 15.5 -28.5t21.5 -36t25.5 -30t29.5 -12.5q8 0 24.5 5t34 11.5t34 13.5t22.5 11q14 8 28.5 19.5t28.5 21.5q18 14 38 28.5t20 41.5q0 23 -15.5 48t-25.5 44q-10 20 -17.5 42.5t-15.5 45.5q-23 66 -33 117t-10 121 q0 166 62.5 303t160.5 268q53 72 111.5 139.5t126.5 126.5q8 6 20.5 17.5t25.5 22.5t23.5 23.5t12.5 22.5q2 2 2 6q0 14 -12.5 36t-30 43.5t-33.5 40t-25 28.5q-10 14 -40.5 30.5t-47.5 16.5q-10 0 -25.5 -10.5t-31.5 -22.5t-31.5 -24.5t-21.5 -18.5q-80 -68 -155 -141.5 t-138 -159.5q-119 -160 -193.5 -353.5t-74.5 -393.5z" />
<glyph unicode=")" horiz-adv-x="827" d="M-45 37q0 -29 15.5 -50.5t31.5 -41.5q12 -16 27.5 -35t33 -35t38 -27.5t42.5 -11.5q8 0 24.5 9.5t33 21.5t32 24.5t21.5 18.5q117 98 219 216t178 250t120 278.5t44 306.5q0 35 -4 78.5t-10 87.5t-15.5 87t-21.5 76q-12 35 -27.5 67t-31.5 64q-6 10 -15.5 28.5t-22 36 t-26.5 31t-29 13.5q-8 0 -24.5 -5t-33.5 -11.5t-33.5 -13.5t-22.5 -11q-14 -8 -28.5 -19.5t-29.5 -21.5q-20 -14 -38.5 -28.5t-18.5 -43.5q0 -20 15.5 -46.5t25.5 -43.5q10 -18 17.5 -42.5t15.5 -45.5q20 -57 31.5 -117.5t11.5 -119.5q0 -166 -63.5 -303.5t-160.5 -268.5 q-53 -72 -112.5 -139.5t-126.5 -126.5q-16 -14 -30.5 -27.5t-29.5 -27.5q-4 -4 -13 -14.5t-9 -16.5z" />
<glyph unicode="*" horiz-adv-x="800" d="M313 1188q0 -18 23.5 -36.5t51.5 -33t51.5 -27t23.5 -18.5q0 -12 -21.5 -24.5t-46 -25.5t-46 -28.5t-21.5 -33.5q0 -10 7 -24.5t17 -29t20.5 -28t16.5 -21.5q8 -10 17.5 -20.5t23.5 -10.5q18 0 41 15.5t44.5 33t38.5 33t26 15.5q12 0 18 -28t14.5 -59.5t22.5 -59 t45 -27.5q14 0 38.5 10t48.5 26.5t40 35t16 34.5q0 14 -12 33.5t-27.5 39t-28 36t-12.5 24.5q0 10 10.5 11t16.5 1h53q27 0 56 5q23 2 43 8t20 35q0 12 -4 38.5t-11 53t-19.5 46t-28.5 19.5q-33 0 -70 -17.5t-66 -17.5q-12 0 -12 15q0 27 19.5 67.5t19.5 75.5q0 14 -10 22.5 t-24.5 13.5t-30 8t-23.5 5q-12 4 -29.5 7.5t-29.5 3.5h-15q-23 0 -25.5 -23t-7.5 -39q0 -2 -3 -17.5t-6 -34t-7 -32.5t-10 -14q-8 0 -25.5 15.5t-38 33.5t-41 33.5t-36.5 15.5t-28.5 -17.5t-21.5 -31.5q-2 -4 -9 -16.5t-15 -26.5t-14.5 -27.5t-6.5 -19.5z" />
<glyph unicode="+" horiz-adv-x="1028" d="M51 467q0 -16 10.5 -28.5t25.5 -20.5t31.5 -11.5t31.5 -3.5h180h96q0 -41 -1 -79.5t-1 -79.5q0 -25 3 -53.5t12.5 -55t26.5 -49.5t44 -33q18 -8 53 -17t55 -9q16 0 28.5 10t20 25.5t11.5 32t4 30.5v180v94h100q27 0 57.5 2t61.5 9.5t56.5 21.5t39.5 41l31 55 q10 16 20.5 39t10.5 43t-15.5 30.5t-36 14.5t-43 5.5t-34.5 1.5h-244v96q0 27 -2 57.5t-9 61t-21.5 56t-41.5 40.5l-55 31q-16 10 -38.5 20t-43.5 10q-20 0 -30.5 -15t-15.5 -35.5t-5 -43.5v-35v-246q-39 0 -78 1.5t-78 1.5q-25 0 -53.5 -3.5t-55 -12.5t-49 -26.5 t-32.5 -44.5q-8 -18 -17.5 -53t-9.5 -55z" />
<glyph unicode="," horiz-adv-x="471" d="M-55 117q0 -80 75 -99q-8 -29 -23 -52t-15 -54q0 -12 9 -16.5t19 -4.5q27 0 59.5 13.5t64.5 34t59.5 44t46.5 42.5q29 33 41 62.5t12 74.5q0 43 -11.5 59.5t-45.5 38.5q-16 10 -36 25.5t-40.5 30t-42 24.5t-39.5 10q-23 0 -31 -7t-22 -24q-6 -8 -13.5 -16t-13.5 -18.5 t-15.5 -34t-17.5 -49t-14 -49t-6 -35.5z" />
<glyph unicode="-" horiz-adv-x="542" d="M-20 412q0 -23 15 -36.5t36 -13.5q86 0 173 -1t173 -3q37 0 60.5 9.5t41 26t29.5 41t29 52.5q10 16 24 44.5t14 48.5q0 29 -25.5 35t-47.5 6h-197q-16 0 -31.5 -2.5t-31.5 -2.5q-25 0 -49.5 1t-49.5 4q-41 2 -72.5 -25t-47.5 -61q-4 -10 -11.5 -26.5t-14.5 -35t-12 -35 t-5 -26.5z" />
<glyph unicode="." horiz-adv-x="471" d="M-55 131q0 -23 14 -42t34.5 -36.5t42 -32t36.5 -24.5q16 -10 38.5 -23.5t43.5 -13.5q31 0 50 24.5t29 51.5l21 53q4 10 14.5 28.5t20.5 39t18 38t8 27.5q0 31 -30.5 47.5t-53.5 26.5q-18 8 -39.5 23.5t-42 31t-39 26.5t-32.5 11q-31 0 -47.5 -22.5t-26.5 -47.5 q-4 -12 -14 -37.5t-20.5 -55t-17.5 -55.5t-7 -38z" />
<glyph unicode="/" horiz-adv-x="862" d="M-74 -63q0 -10 7.5 -16.5t17.5 -8.5q31 -4 62.5 -7t62.5 -7q12 -2 25.5 -7.5t25.5 -5.5t23.5 11.5t21.5 27t18.5 30.5t12.5 23q53 94 108.5 185.5t112.5 183.5q51 82 100 164t97 166q39 68 75.5 135.5t77.5 132.5l129 203q2 4 24.5 40t49.5 79t47 81t20 48q0 6 -3 15 t-11 13q-35 12 -68.5 27.5t-72.5 15.5q-29 0 -44.5 -7t-31.5 -29q-12 -16 -22.5 -35t-20.5 -35q-51 -82 -100 -162t-97 -164q-92 -162 -187 -321.5t-193 -319.5q-35 -53 -69 -108.5t-65 -110.5q-23 -41 -44 -79t-46 -77q-8 -10 -25.5 -38.5t-17.5 -42.5z" />
<glyph unicode="0" horiz-adv-x="1028" d="M80 365q0 -51 11 -91.5t32.5 -75t51.5 -65.5t67 -61q39 -33 81 -61.5t95 -28.5t108.5 24.5t105.5 62t93 82t74 85.5q51 68 99 149.5t86 169.5t60.5 180t22.5 178q0 49 -7 104.5t-22.5 110t-39 103.5t-56.5 88q-10 14 -34.5 36.5t-45.5 22.5q-8 0 -24.5 -9t-34 -21.5 t-33.5 -24.5t-25 -18q-18 -14 -36.5 -24.5t-34.5 -27.5q-12 0 -23.5 12.5t-24 27t-25.5 25.5t-32 11q-23 0 -58.5 -30.5t-70 -70.5t-64.5 -79t-42 -57q-43 -66 -79 -129.5t-63.5 -128t-49 -133t-38.5 -146.5q-10 -47 -17 -95t-7 -95zM418 365q0 18 10 53t23.5 72.5t27 72.5 t19.5 53q8 23 34.5 86.5t59.5 131t64.5 120t50.5 52.5q12 0 18 -24t6 -34q0 -16 -7 -41.5t-16.5 -55.5t-18.5 -56.5t-15 -40.5q-25 -63 -52.5 -118.5t-62.5 -115.5q-4 -8 -20.5 -36.5t-37 -60.5t-41 -56.5t-32.5 -24.5q-6 0 -8 9t-2 14z" />
<glyph unicode="1" horiz-adv-x="665" d="M23 178q0 -16 7 -45t19 -55.5t29.5 -46t36.5 -19.5h30q14 0 33 -8q23 -10 46.5 -29.5t43.5 -19.5q33 0 45.5 20.5t20.5 47.5q10 31 22.5 61.5t24.5 60.5l80 205q39 98 76.5 196.5t72.5 196.5q18 53 39 104.5t37 104.5q10 35 18.5 72t18.5 72q6 25 14 51t8 53q0 37 -22 60 q-6 8 -22.5 25.5t-35 35.5t-38 32.5t-31.5 14.5q-10 0 -24.5 -9t-30 -20.5t-30.5 -23.5t-28 -19q-59 -29 -114.5 -59.5t-110.5 -65.5q-12 -8 -26.5 -17t-28 -19.5t-22.5 -23.5t-9 -30q0 -10 3 -21t7 -22q4 -12 11.5 -37.5t18.5 -50t24.5 -44t29.5 -19.5h23q18 0 18 -10 q0 -2 -5 -14.5t-12 -28t-14.5 -28.5t-9.5 -20q-29 -72 -61.5 -137t-63.5 -135q-18 -43 -35.5 -87t-33.5 -89q-16 -41 -32.5 -79t-16.5 -81z" />
<glyph unicode="2" horiz-adv-x="950" d="M-70 178q0 -4 7.5 -17.5t15.5 -30.5t16 -32.5t13 -21.5q8 -16 16 -33.5t19.5 -33t25.5 -26t35 -10.5q35 0 72.5 5.5t72.5 11.5q27 4 53.5 11t55.5 11q25 4 52.5 3t51.5 -1q29 0 58.5 1t58.5 1t58.5 -3t58.5 -3q18 0 39.5 4t40.5 9q33 4 38 10t15 35q4 10 10 20t10 21 q6 12 15.5 32.5t9.5 34.5q0 4 -7 16.5t-10 16.5q-6 14 -14 37.5t-19.5 46t-27.5 39t-39 16.5q-18 0 -35.5 -4t-36.5 -8q-14 -2 -29.5 -1t-29.5 -3q-33 -6 -65 -17q-4 -2 -18.5 0t-14.5 7q0 6 8 15t18.5 19.5t20.5 17.5t14 11q96 76 177 159t153 183q43 61 64.5 120.5 t21.5 137.5q0 66 -22.5 132.5t-64.5 119.5t-100.5 87t-129.5 34q-100 0 -177 -23.5t-170 -58.5q-20 -8 -40.5 -16.5t-38 -21.5t-28.5 -30.5t-11 -44.5q0 -10 12 -31.5t28.5 -48t32 -51t21.5 -37.5q8 -18 17 -35.5t34 -17.5q23 0 33 10.5t26 16.5q10 4 18.5 7t18.5 7 q14 6 36 18.5t44.5 22.5t46 18.5t39.5 8.5q2 2 6 2q10 0 24.5 -8.5t16.5 -18.5q2 -2 2 -6q0 -16 -19.5 -50t-29.5 -48q-43 -66 -95 -135.5t-106 -129.5q-35 -37 -72.5 -71.5t-74.5 -69.5q-57 -53 -114.5 -103.5t-123.5 -95.5q-39 -27 -63.5 -57.5t-24.5 -81.5z" />
<glyph unicode="3" horiz-adv-x="890" d="M-104 178q0 -27 16 -50.5t40.5 -44t51.5 -37.5t45 -30q43 -29 82 -38t92 -9q41 0 93.5 6.5t93.5 18.5q74 23 156.5 74t153.5 119.5t117 151.5t46 167q0 27 -2 43t-8.5 30.5t-15.5 29t-23 36.5q-4 6 -12.5 16.5t-17.5 22.5t-15.5 23.5t-6.5 15.5q0 8 14.5 21.5t18.5 17.5 q25 25 53.5 58.5t53 73.5t41 80t16.5 77q0 49 -25.5 96t-48.5 88q-14 27 -25.5 45t-23.5 30.5t-30.5 22.5t-47.5 23q-35 14 -64.5 20t-66.5 6q-70 0 -140.5 -14t-135.5 -31q-47 -10 -77 -27.5t-52 -60.5q-6 -12 -13.5 -27.5t-7.5 -29.5q0 -29 19.5 -69t29.5 -64 q6 -16 11.5 -32.5t11.5 -33.5q6 -20 26 -20q14 0 25.5 6t22.5 12q35 20 75.5 31.5t79.5 24.5q18 6 38 13t40 7q6 0 24.5 -3t18.5 -13q0 -16 -19.5 -28.5t-29.5 -23.5q-12 -10 -33.5 -30.5t-45 -42t-45 -41t-34.5 -25.5q-6 -4 -28.5 -6t-49 -3t-51 -5t-33.5 -10 q-12 -4 -17 -15.5t-5 -21.5q0 -20 4 -42t8 -40q8 -45 19.5 -73t40.5 -62q10 -12 29.5 -32t35.5 -20q2 0 15.5 5.5t30 11.5t30.5 12t18 8q12 0 19.5 -18.5t7.5 -28.5q0 -33 -28.5 -73.5t-70.5 -75.5t-86 -59.5t-75 -24.5q-12 0 -21.5 9t-16.5 22.5t-12 27.5t-10 25 q-12 27 -19 36t-36 11l-61 2q-27 2 -46.5 -1t-35.5 -26q-12 -16 -28.5 -43.5t-32 -58.5t-25.5 -61.5t-10 -51.5z" />
<glyph unicode="4" horiz-adv-x="1146" d="M121 717q0 -25 7 -70t19.5 -92t29 -87t36.5 -52q27 -16 64.5 -17.5t66.5 -5.5q4 0 17.5 -1t26.5 -3t24.5 -5t11.5 -9q0 -2 -10.5 -20.5t-22.5 -40t-23.5 -41t-13.5 -23.5q-14 -23 -31.5 -45.5t-17.5 -50.5q0 -23 7 -34t18.5 -20.5t25 -18.5t23.5 -24l29 -41 q12 -18 48 -30.5t58 -12.5q6 0 22.5 2t35 7.5t34 10.5t19.5 11q6 10 11 22.5t11 22.5q14 25 28.5 49.5t26.5 51.5q23 45 44.5 90t46.5 90q4 10 11 26.5t21 16.5q55 0 115 6q45 4 84 11t55 61q2 4 4 13t4 13q20 31 33 52.5t13 58.5q0 27 -12.5 52.5t-45.5 25.5q-4 0 -16 -1 t-27 -1q-12 0 -22.5 2t-10.5 8q0 4 21.5 29.5t46.5 58.5t46.5 67t21.5 52q0 25 -11.5 42t-27 31.5t-31.5 27.5t-29 30q-8 10 -15 18t-17 17q-2 2 -8.5 7t-6.5 9q0 12 16.5 19.5t35 16.5t35 25.5t16.5 46.5q0 14 -5.5 35t-12.5 42.5t-15 41t-15 31.5q-14 27 -38.5 47.5 t-55.5 20.5q-16 0 -40.5 -9.5t-49 -23t-47 -26.5t-37.5 -21q-27 -16 -69.5 -42t-88 -54.5t-88.5 -57.5t-69 -53l-168 -156q-16 -14 -43 -36.5t-52.5 -49t-46 -52.5t-26.5 -46q-4 -10 -4 -23v-22zM508 705q0 10 21.5 32.5t47 47t50 44t30.5 25.5q18 16 36 35.5t38 34.5l13 7 q12 7 26 14t28.5 13.5t18.5 6.5h6q-18 -43 -48 -81t-58 -75q-14 -18 -28.5 -35.5t-29.5 -36.5q-10 -14 -17 -23t-14 -15.5t-17.5 -9.5t-28.5 -3q-4 0 -15.5 1t-25 3t-23.5 5t-10 10z" />
<glyph unicode="5" horiz-adv-x="942" d="M-72 229q0 -45 35 -91t84 -84t104.5 -62.5t96.5 -24.5q29 0 54.5 4t51.5 11q121 27 224.5 71.5t187.5 141.5q25 29 54.5 70.5t55 87.5t43 92.5t17.5 86.5q0 35 -8 69t-15 69q-8 39 -26.5 75.5t-46 66.5t-63.5 47.5t-79 17.5q-4 0 -14 -1.5t-22 -1.5q-10 0 -19.5 2.5 t-9.5 10.5q0 16 12 39.5t23 34.5q10 16 30 16q31 0 60.5 -8t60.5 -8q47 0 88 18t82 37q45 20 80 48t35 83q0 14 -1 26.5t-3 26.5q-6 16 -7 42t-5.5 49.5t-16.5 41t-41 17.5q-12 0 -24.5 -2t-24.5 -7q-43 -12 -87 -20t-89 -8h-90q-49 0 -88 4q-18 2 -40 5t-40 3 q-29 0 -49.5 -12.5t-36 -31.5t-26.5 -43t-19 -44q-16 -35 -30.5 -69.5t-33.5 -67.5q-33 -57 -62.5 -112.5t-58.5 -115.5q-4 -4 -13 -25.5t-9 -25.5q0 -16 7 -35.5t17.5 -41t21.5 -40t19 -30.5q12 -20 26.5 -45t41.5 -25q18 0 36.5 6t38 12.5t37 11.5t31.5 5h25q14 0 27.5 -2 t22.5 -8t9 -21q0 -29 -28.5 -74t-69.5 -87t-85 -72.5t-75 -30.5q-8 0 -22.5 11.5t-14.5 17.5q0 8 1 15t1 15q0 39 -21.5 76t-66.5 37h-30t-31 -4q-37 -6 -60.5 -15.5t-40 -22.5t-29.5 -34.5t-32 -54.5q-12 -23 -24.5 -54.5t-12.5 -58.5z" />
<glyph unicode="6" horiz-adv-x="1005" d="M68 352q0 -49 8 -86t24.5 -67.5t41 -59t59.5 -63.5q53 -55 97 -83t122 -28q86 0 157.5 35t137.5 84q35 27 66.5 54.5t60.5 62.5q57 72 98 174t41 194q0 33 -13.5 77t-36 87t-50 78t-56.5 53q-23 12 -40 15.5t-42 3.5q-23 0 -42 -2t-42 -2q10 35 23.5 49t40.5 39 q55 53 106.5 98t122.5 72q12 4 27.5 9t30 12t23.5 18.5t9 27.5q0 23 -24.5 57.5t-58 66.5t-69.5 55.5t-61 23.5q-14 0 -35.5 -7t-45 -17.5t-44 -21.5t-32.5 -18q-90 -53 -178 -139t-154 -168q-55 -72 -105.5 -152.5t-87 -168.5t-58 -179.5t-21.5 -183.5zM412 324q0 20 12 60 t18 62q10 35 21.5 68t52.5 43q16 4 37.5 11t38.5 7q26 1 26 -26q0 -18 -23.5 -60.5t-54 -85.5t-62.5 -75.5t-48 -32.5q-10 0 -14 10t-4 19z" />
<glyph unicode="7" horiz-adv-x="776" d="M-61 195q0 -29 17 -46.5t38.5 -31t40 -23.5t20.5 -24q2 -16 4 -29.5t13 -28.5q29 -10 57.5 -29.5t60.5 -19.5q12 0 25.5 9.5t25 22.5t21.5 26.5t17 21.5q104 150 204.5 299.5t204.5 298.5q33 47 65.5 96t67.5 97q12 18 40 56t54.5 80t47 81.5t20.5 64.5q0 14 -3 27.5 t-7 25.5q-10 31 -23.5 69t-35 70.5t-51 54t-68.5 21.5q-35 0 -67 -8t-66 -12l-113 -14q-23 -4 -46.5 -8.5t-45.5 -4.5q-23 0 -42.5 2t-41.5 2h-135q-45 0 -59.5 -34.5t-14.5 -71.5q0 -43 13 -95.5t26 -92.5q10 -29 20 -39.5t41 -10.5q102 0 209 23q23 4 43.5 13t42.5 9 q4 0 8 -2t4 -6q0 -10 -11 -26.5t-25.5 -33t-28.5 -31.5t-21 -21q-25 -27 -46 -55.5t-44 -57.5l-123 -154q-66 -80 -129 -160.5t-127 -162.5q-10 -12 -23 -28.5t-25.5 -35t-20.5 -38t-8 -35.5z" />
<glyph unicode="8" horiz-adv-x="1024" d="M-6 336q0 -72 26.5 -136.5t72.5 -114.5t108.5 -80t136.5 -30q94 0 196.5 37t187.5 103.5t139 155.5t54 194q0 27 -6 74t-16 69q-6 12 -20.5 38t-14.5 38q0 10 7 16.5t14 10.5l55 37q63 43 117.5 101t101.5 118q29 35 48.5 70.5t19.5 82.5q0 57 -26 100.5t-67 79.5 q-14 12 -31.5 25.5t-37.5 13.5q-29 0 -41 -18t-23 -41q-10 -25 -19 -37t-32 -31q-12 25 -22.5 48.5t-20.5 50.5q-16 41 -34.5 57t-63.5 16q-47 0 -92 -7t-90 -13q-70 -10 -135.5 -48t-117 -95.5t-83 -127t-31.5 -139.5q0 -41 12.5 -71.5t27.5 -54t27.5 -40t12.5 -24.5 t-9.5 -11t-13.5 -5q-33 -16 -61 -39q-43 -29 -76 -51.5t-59.5 -47t-48 -56.5t-41.5 -81q-14 -33 -22.5 -67.5t-8.5 -69.5zM311 311q8 16 18.5 33.5t20.5 30.5q12 14 28.5 27.5t31.5 27.5q33 31 58.5 50.5t68.5 33.5q12 -20 23 -30.5t11 -37.5v-6q0 -33 -28.5 -51t-50.5 -35 q-29 -18 -72 -38.5t-78 -20.5q-8 0 -19.5 3t-11.5 13zM606 997q0 25 12.5 39.5t31 22.5t40 10t39.5 2h19q12 0 25 -1t22.5 -6t9.5 -15t-22.5 -29t-50 -37t-52.5 -31.5t-29 -13.5q-6 0 -14 9t-15.5 19.5t-11.5 20.5z" />
<glyph unicode="9" horiz-adv-x="948" d="M4 168q0 -16 6 -34.5t10 -35.5l31 -26l53 -19q16 -6 37 -23.5t43.5 -37t44 -34.5t39.5 -15q20 0 53 18.5t68 43t65.5 49t47.5 36.5q190 150 318 322t192 409q12 47 24.5 97.5t12.5 97.5q0 70 -30 138.5t-80 121.5t-116.5 86t-138.5 33q-57 0 -116.5 -24.5t-115 -63.5 t-102.5 -85t-78 -92q-25 -35 -47 -79.5t-40.5 -94t-30 -98.5t-11.5 -90t17.5 -91t46.5 -94t68.5 -75t84.5 -31q20 0 46 6q10 4 20 -6q0 -16 -45 -51t-102.5 -72t-109.5 -68.5t-71 -37.5q-29 -10 -54.5 -20.5t-35.5 -41.5q-4 -12 -4 -18zM500 823q0 31 15 60.5t37.5 57.5 t48.5 52.5t44 42.5q8 8 21.5 20.5t25.5 12.5q10 0 13.5 -11.5t3.5 -19.5q0 -27 -8.5 -53.5t-14.5 -50.5q-2 -6 -6 -22.5t-10 -34t-12.5 -32t-12.5 -18.5t-14 -6t-17 -6q-18 -6 -37.5 -14t-39.5 -8q-16 0 -26.5 7t-10.5 23z" />
<glyph unicode=":" horiz-adv-x="542" d="M-55 131q0 -23 14 -42t34.5 -36.5t42 -32t36.5 -24.5q16 -10 38.5 -23.5t43.5 -13.5q31 0 50 24.5t29 51.5l21 53q4 10 14.5 28.5t20.5 39t18 38t8 27.5q0 31 -30.5 47.5t-53.5 26.5q-18 8 -39.5 23.5t-42 31t-39 26.5t-32.5 11q-31 0 -47.5 -22.5t-26.5 -47.5 q-4 -12 -14 -37.5t-20.5 -55t-17.5 -55.5t-7 -38zM94 557q0 -29 25.5 -55.5t48.5 -42.5q12 -8 28.5 -20.5t35 -25t37 -20.5t34.5 -8q20 0 36.5 14.5t29 35t20.5 43t14 36.5q0 6 10.5 23.5t21.5 38t20.5 41t9.5 30.5q0 31 -31 47.5t-53 26.5q-18 8 -38.5 23.5t-42 31 t-41 26.5t-32.5 11q-31 0 -48 -21.5t-27 -48.5q-4 -12 -14.5 -38.5t-19.5 -54t-16.5 -54.5t-7.5 -39z" />
<glyph unicode=";" horiz-adv-x="542" d="M-55 117q0 -80 75 -99q-8 -29 -23 -52t-15 -54q0 -12 9 -16.5t19 -4.5q27 0 59.5 13.5t64.5 34t59.5 44t46.5 42.5q29 33 41 62.5t12 74.5q0 43 -11.5 59.5t-45.5 38.5q-16 10 -36 25.5t-40.5 30t-42 24.5t-39.5 10q-23 0 -31 -7t-22 -24q-6 -8 -13.5 -16t-13.5 -18.5 t-15.5 -34t-17.5 -49t-14 -49t-6 -35.5zM78 557q0 -23 14 -42t33.5 -35.5t41 -31t36.5 -24.5q16 -10 39.5 -24.5t44.5 -14.5q31 0 49 26.5t29 51.5l20 53q6 14 16.5 30.5t20.5 34t18.5 35t8.5 33.5q0 31 -31 46.5t-53 25.5q-16 8 -33 17.5t-31 21.5q-18 16 -41.5 34.5 t-48.5 18.5q-31 0 -48.5 -20.5t-27.5 -47.5q-4 -12 -14 -37.5t-19.5 -55t-16.5 -56.5t-7 -39z" />
<glyph unicode="?" horiz-adv-x="825" d="M145 170q0 -39 15.5 -78t41 -69.5t61.5 -50t77 -19.5q25 0 41 10t27.5 25.5t18.5 36t13 41t13.5 46t7.5 48.5q0 35 -19.5 52t-46.5 36q-10 6 -32.5 24.5t-47 38t-47 34.5t-30.5 15q-25 0 -34 -21.5t-18 -39.5q-10 -29 -25.5 -63.5t-15.5 -65.5zM244 553q0 -53 31.5 -91 t74.5 -65q16 -10 40 -21t44 -11q35 0 65.5 16t59.5 33q47 25 86 59.5t39 93.5q0 31 -22.5 53.5t-51.5 28.5l8 8l156 170q57 61 103.5 142.5t46.5 169.5q0 63 -23.5 120.5t-65.5 102.5t-98.5 71.5t-120.5 26.5q-70 0 -133 -12q-25 -4 -64.5 -16.5t-76.5 -31t-63.5 -44 t-26.5 -58.5q0 -25 10 -58.5t28.5 -65t43 -53t53.5 -21.5q14 0 45 8t64.5 19.5t64.5 22.5t47 17q-10 -23 -21.5 -44t-25.5 -44q-29 -47 -82 -115.5t-105 -142t-91 -145.5t-39 -123z" />
<glyph unicode="A" horiz-adv-x="966" d="M-29 231q0 -29 17.5 -47t29.5 -41q14 -29 22.5 -46t20 -28.5t27.5 -20.5t47 -17q2 0 11.5 -3t18.5 -6.5t17 -5.5t11 -2q31 0 51 27t35.5 61.5t25.5 71.5t20.5 57.5t18.5 40t18 41.5q6 16 15.5 22.5t19 7.5t20.5 2t21 7l19 10h28h35t23 -20q0 -6 -4 -18.5t-7 -18.5 q-4 -20 -8 -31q-4 -12 -15 -32.5t-21.5 -43t-18.5 -43t-8 -32.5q0 -45 43 -62q14 -4 26.5 -11t22.5 -17q23 -23 54.5 -51.5t66.5 -28.5l2 -2q39 4 72.5 21.5t44.5 58.5q18 70 38.5 138.5t40.5 137.5q18 59 32 122t28 124q16 78 32.5 153.5t30.5 153.5q6 35 15.5 75t9.5 77 q0 10 -3 19t-7 20q-6 18 -19.5 32.5t-29 25.5t-26.5 20.5t-11 17.5q0 2 6 11t14 20.5t14.5 23.5t6.5 23q0 14 -8.5 22t-18.5 19q-18 14 -28.5 23t-19.5 16.5t-20.5 12.5t-31.5 15q-23 10 -49.5 33t-49.5 23q-10 0 -18 -1.5t-16 -5.5q-10 -4 -26.5 -20t-33 -34.5t-32 -37 t-23.5 -26.5q-8 -10 -40 -46t-68 -78t-67.5 -83t-39.5 -60q-4 -10 -8.5 -19t-10.5 -17q-27 -31 -45 -64t-39 -68q-23 -39 -49 -74.5t-43 -76.5l-12 -31q-8 -23 -29.5 -32t-43 -17t-38 -20.5t-16.5 -36.5q0 -29 7 -57.5t7 -57.5q0 -6 -7 -20.5t-16 -31t-17.5 -32.5t-12.5 -25 q-10 -20 -20.5 -41.5t-10.5 -44.5zM508 655q0 2 21.5 47.5t51 98.5t61.5 97t52 44q8 0 11.5 -8t3.5 -14q0 -10 -4 -31q-2 -2 -8.5 -28.5t-13.5 -59.5t-15.5 -62.5t-14.5 -36.5q-8 -33 -17 -47t-22.5 -19t-34 -3t-51.5 0q-10 0 -15 7t-5 15z" />
<glyph unicode="B" horiz-adv-x="1028" d="M-25 209q0 -14 11 -25q10 -12 34.5 -41.5t54 -61.5t58.5 -56.5t47 -24.5q20 0 32.5 13.5t23 29.5t20.5 29.5t27 13.5q16 0 36.5 -17.5t44 -38t52 -38t63.5 -17.5q41 0 86 25t88 60.5t81 75.5t63 71q18 23 44.5 55.5t50 69.5t41 73.5t17.5 67.5q0 8 -2 23.5t-5 32t-7 30.5 t-6 23q-6 14 -17.5 26.5t-11.5 28.5q0 10 6 19.5t15 15.5l57 47q29 23 56.5 57.5t50 74.5t36 82t13.5 79q0 68 -31 141.5t-84 118.5q-31 27 -71 43t-83 25.5t-86 13.5t-82 4q-31 0 -89 -4t-118.5 -14.5t-113.5 -26t-74 -39.5q-10 -12 -15 -28.5t-7 -36t-2 -38.5v-32 q0 -20 2 -60.5t16 -56.5q10 -12 22.5 -24.5t12.5 -28.5t-13.5 -42t-21.5 -42q-35 -72 -69.5 -141.5t-69.5 -141.5q-16 -35 -34 -68.5t-36 -68.5q-10 -20 -29.5 -53t-38 -69t-32 -71.5t-13.5 -62.5zM395 338q0 14 11.5 34.5t17.5 30.5q12 20 22.5 42t20.5 44q6 14 11 30 t14 28q2 4 7 11t9 11q6 4 15 5t16 1h24q20 0 39 -4.5t19 -29.5q0 -16 -9.5 -35t-17.5 -33q-12 -20 -24.5 -41.5t-28.5 -40.5q-20 -23 -57.5 -45t-67.5 -22q-20 0 -21 14zM631 868q0 14 12 31q10 16 16.5 43t15.5 51.5t22.5 43t37.5 18.5q8 0 24.5 -2t31 -7.5t25.5 -14.5 t11 -21q0 -10 -23.5 -36t-54 -52.5t-59 -48t-39.5 -21.5q-20 0 -20 16z" />
<glyph unicode="C" d="M45 348q0 -45 6 -80t20.5 -64.5t37 -56t57.5 -55.5l102 -86q18 -16 46 -21t51 -5q68 0 144.5 29.5t135.5 62.5q55 31 91 63.5t59 95.5q4 14 11 37t7 37q0 8 -5 27.5t-14.5 40t-20.5 36t-21 15.5q-2 0 -8.5 -2t-8.5 -2l-20 4h-4q-4 0 -8.5 -4t-6.5 -6q-14 -12 -47 -29.5 t-69.5 -35t-70.5 -29t-50 -11.5q-35 0 -46.5 28t-11.5 56q0 55 19.5 130t49.5 150t65.5 143.5t66.5 115.5q14 20 28.5 37.5t31.5 36.5q6 8 16 20t22.5 24.5t24.5 20.5t25 8q10 0 14 -8t4 -18q0 -16 -9 -37t-19.5 -42.5t-19.5 -44t-9 -42.5q0 -10 3 -20.5t11 -16.5l61 -49 q4 -2 9 -2h8q37 0 58.5 8t56.5 22q23 10 47 20.5t39 33.5q12 20 23 52t19.5 65.5t12.5 66t4 57.5q0 61 -23.5 96t-72.5 70q-41 29 -91.5 53.5t-101.5 24.5q-59 0 -127.5 -30.5t-135.5 -77t-124 -99.5t-92 -98q-53 -68 -98 -156t-79 -184t-53.5 -192.5t-19.5 -182.5z" />
<glyph unicode="D" horiz-adv-x="1058" d="M-25 215q0 -23 13.5 -47.5t33 -48t40 -44t36.5 -34.5q16 -16 37 -29.5t43 -13.5q20 0 32.5 12.5t22 26.5t17.5 26.5t20 12.5q16 0 32.5 -14.5t34 -33t36 -32.5t37.5 -14q14 0 31.5 5l31.5 9q129 47 227.5 117.5t174 161t132 200t103.5 236.5q16 47 29.5 99t13.5 101 q0 55 -21.5 118t-56.5 121t-82 106.5t-96 72.5q-47 23 -101.5 31t-105.5 8q-53 0 -106.5 -5t-106.5 -9q-37 -4 -83 -11.5t-75 -35.5q-23 -23 -25.5 -51.5t-2.5 -59.5q0 -23 -2 -45.5t-2 -44.5q0 -31 9 -48.5t20.5 -28.5t20.5 -19.5t9 -18.5q0 -25 -12 -55.5t-23 -52.5 q-33 -86 -72.5 -174t-88.5 -166q-12 -18 -41 -60.5t-59 -91.5t-52.5 -97t-22.5 -79zM430 371q0 10 6 20q8 16 17.5 30.5t19.5 31.5q18 31 53 103.5t68 152t57.5 153.5t24.5 109q0 16 -7 24.5t-15.5 14.5t-15.5 11t-7 15q0 6 9 10.5t21.5 5.5t23.5 2t15 1q43 0 85 -19.5 t42 -70.5q0 -31 -18 -87.5t-49 -124t-70 -137t-81 -127t-83 -94.5t-73 -37q-6 0 -14.5 1t-8.5 12z" />
<glyph unicode="E" horiz-adv-x="890" d="M-2 295q0 -29 12.5 -62.5t29.5 -67.5t36.5 -64.5t36.5 -53.5q25 -35 45 -49t63 -14q25 0 50.5 2t50.5 4q29 2 55 1t55 3q27 4 51.5 8t51.5 8q29 4 48 5t33.5 4.5t27.5 13.5t30 33q12 16 17 24t8 16.5t5.5 18.5t8.5 28.5t14 38t8 39.5q0 23 -13 50.5t-40 27.5 q-8 0 -17.5 -4t-17.5 -4q-12 0 -24.5 1t-24.5 1q-23 -2 -45.5 -4t-44.5 -4q-20 -2 -38.5 -1t-39.5 1h-24t-23 2q-4 0 -8 4t-4 8q0 12 6 28.5t15 35t18.5 36t15.5 29.5q2 4 9 19.5t16.5 32t19.5 31t16 18.5q10 4 37 4h39q33 0 64.5 2t60.5 2q12 0 28.5 -4t31.5 -6 q31 -4 49 10t34 37q12 16 23.5 23t11.5 32q0 23 -3 47.5t-5 46.5q-2 47 -22.5 56.5t-63.5 13.5q-10 0 -19.5 2t-19.5 2h-24t-37 2t-33 5t-14 9t7 23.5t11 23.5q18 25 35.5 51.5t36.5 51.5q6 10 14 18t12 19q4 6 8.5 14t12.5 8q18 2 37.5 3t38.5 1q29 0 59.5 -5t58.5 -9 q10 -6 24.5 -14.5t29.5 -8.5q27 0 43 26.5t16 49.5q0 27 -13.5 61.5t-21.5 63.5q-12 49 -26.5 72.5t-65.5 36t-101 17.5t-104 5q-29 0 -68.5 -2t-81.5 -5t-81 -9t-66 -15q-20 -6 -30.5 -20t-15.5 -32.5t-6 -39t-1 -37.5q0 -29 11.5 -52t11.5 -50q0 -10 -7.5 -17.5 t-13.5 -11.5q-14 -10 -23.5 -23t-19.5 -30l-55 -86l-33 -51q-6 -10 -18.5 -24.5t-24.5 -14.5q-6 0 -16.5 1t-14.5 -3t-9 -10t-9 -11l-12 -18q-6 -10 -7 -29v-41t-3 -46t-15 -44q-8 -14 -17.5 -28.5t-15.5 -28.5q-10 -23 -17 -44.5t-18 -43.5q-16 -41 -39.5 -83t-23.5 -87z " />
<glyph unicode="F" horiz-adv-x="813" d="M-14 162q0 -37 18 -68q12 -20 31.5 -25.5t43 -10.5t50.5 -16t53 -46q14 -18 20.5 -23.5t30.5 -5.5q35 0 46.5 15.5t23.5 44.5q14 35 28.5 68.5t28.5 68.5q35 82 69 163t60 165q2 4 7.5 17t13.5 13q37 0 75 -1h25q25 0 49 1q12 0 25.5 2t26.5 2q8 0 16 -1t16 -1 q12 0 24.5 11.5t25 27t21.5 30.5t15 23q16 27 17 54q0 29 -11.5 59.5t-27.5 53t-31.5 25.5t-42.5 3q-25 0 -49.5 -5t-48.5 -5q-10 0 -18.5 5t-8.5 15t7.5 28.5t11.5 29.5q14 35 20 61.5t6 65.5q0 23 4.5 27.5t26.5 8.5q10 2 23 2q12 0 22 3q35 4 67.5 7t67.5 3q20 0 40 -2 t38 -2q25 0 36 7t16 19.5t4 28.5t-1 35q0 16 1 29.5t1 29.5q0 43 -37.5 72t-70.5 49q-18 12 -37.5 20.5t-42.5 8.5q-12 0 -25.5 -2t-25.5 -2q-29 0 -58.5 -1t-58.5 -4q-18 0 -76.5 -6t-122 -19t-112.5 -32.5t-49 -48.5q0 -12 4 -36.5t10 -50.5t12 -49.5t10 -35.5 q4 -8 7.5 -15.5t3.5 -17.5q0 -16 -10.5 -45t-23.5 -61.5t-27.5 -65.5t-20.5 -55q-4 -16 -12.5 -28.5t-26.5 -16.5l-25 -4q-29 -4 -40 -29t-11 -49q0 -29 8.5 -56.5t16.5 -54.5q2 -6 -17.5 -48t-45 -89t-48 -87t-24.5 -46q-16 -31 -26.5 -65.5t-10.5 -69.5z" />
<glyph unicode="G" horiz-adv-x="1026" d="M61 410q0 -55 8.5 -99.5t27 -82.5t47 -72.5t71.5 -69.5q20 -18 49 -36.5t59.5 -34t62.5 -25.5t60 -10q63 0 123 39.5t107 78.5q25 23 58.5 48.5t53.5 50.5l64 82q8 10 17.5 24t9.5 29q0 16 -2.5 43.5t-8.5 42.5l-4 8l-4 8q8 6 24.5 9t34 5.5t33 3.5t21.5 5 q12 6 24.5 26.5t21.5 46t15 50t6 38.5q0 43 -24.5 78t-71.5 35q-31 0 -61.5 -2t-61.5 -2q-49 -2 -96 -6t-94 -21q-41 -14 -50.5 -30.5t-9.5 -59.5q0 -25 6.5 -49t6.5 -49q0 -8 -21.5 -40t-50.5 -65.5t-55.5 -61.5t-38.5 -28q-14 0 -17.5 12.5t-3.5 22.5t1 17.5t3 17.5 l23 105q8 39 33.5 101t58.5 128.5t66.5 127t60.5 91.5q6 8 25.5 29.5t41 44t42 40t30.5 17.5t13.5 -9t3.5 -18q0 -16 -7.5 -32.5t-13.5 -32.5q0 -4 -1 -6t-1 -6q0 -35 24.5 -49.5t53.5 -22.5q23 -6 48.5 -12t49.5 -6q18 0 39 10t39.5 25.5t33.5 33t26 33.5q26 45 26 102 q0 61 -25.5 112.5t-68.5 89.5t-98.5 59.5t-112.5 21.5q-109 0 -206 -44t-180 -118t-150.5 -171t-114.5 -202.5t-73 -214t-26 -204.5z" />
<glyph unicode="H" horiz-adv-x="1081" d="M10 221q0 -8 5 -22.5t13.5 -30.5t14.5 -30.5t10 -20.5q16 -37 26.5 -52.5t22 -20.5t28.5 -7t50 -10q29 -8 45.5 -26.5t38.5 -18.5q14 0 34.5 7t25.5 23q10 45 24 88t27 88q8 29 14 55.5t14 55.5q12 49 31 97t35 96q8 23 13 28.5t30 7.5q27 2 48.5 12.5t37.5 10.5 q10 0 15 -7t5 -18q0 -20 -15 -55t-21 -57q-16 -53 -31.5 -106.5t-32.5 -106.5q-4 -16 -8 -30.5t-4 -31.5q0 -29 14.5 -47t34.5 -31.5t45 -23.5t43 -21q27 -14 49.5 -32.5t52.5 -18.5q35 0 68 21q14 8 22.5 16t11.5 16.5t4 19.5t3 28q2 33 9 71.5t16.5 78.5t19.5 78t19 71 q25 88 61 170q45 98 88 196t88 197q2 6 13.5 28.5t23.5 48t22.5 50t10.5 32.5q0 18 -11.5 49t-17.5 48q-8 23 -16.5 45t-24.5 41q-10 12 -24.5 28.5t-33 32t-38 26.5t-35.5 11q-37 0 -54.5 -29.5t-29.5 -58.5q-10 -23 -23.5 -46.5t-23.5 -45.5q-29 -55 -53.5 -112.5 t-53.5 -112.5q-18 -35 -30 -70q-6 -20 -9.5 -24.5t-26 -6.5t-42 -5t-41.5 -3q-6 0 -15.5 1t-9.5 11q0 8 10.5 30t25 45.5t26.5 46t18 34.5q8 16 16.5 34.5t16.5 35.5q12 27 26.5 52t14.5 54q0 33 -16.5 44t-38.5 34q-18 18 -36 37.5t-36 35t-39.5 24.5t-50.5 9 q-37 0 -60.5 -16t-38 -41t-25.5 -54.5t-24 -58.5q-16 -35 -31.5 -65.5t-31.5 -65t-28.5 -71.5t-28.5 -72q-2 -4 -9.5 -22.5t-16.5 -41t-17.5 -42t-12.5 -21.5q-18 -18 -46.5 -22.5t-43.5 -26.5q-6 -12 -6 -25q0 -23 9 -57.5t9 -63.5q0 -6 -6 -24.5t-14 -40t-15.5 -39.5 t-9.5 -27q-6 -18 -21 -57t-30.5 -81t-28 -78t-12.5 -48z" />
<glyph unicode="I" horiz-adv-x="548" d="M-35 174q0 -18 9.5 -29.5t22.5 -20.5t27.5 -18.5t22.5 -21.5q12 -20 24.5 -39.5t28.5 -38.5q10 -14 18.5 -16t24.5 -2q25 0 44.5 7t41.5 17q10 4 23 8q20 8 26.5 15.5t12.5 27.5q10 31 16 64t17 63q8 25 17 48.5t17 48.5q12 35 23.5 71.5t24 71.5t26.5 66.5t27 66.5 q16 41 30.5 83t30.5 83q18 43 39 86t41 86l66 143q12 29 25.5 57.5t13.5 59.5q0 27 -14.5 52.5t-37 47t-49 38t-49.5 24.5q-16 6 -38.5 15.5t-41.5 9.5q-14 0 -27.5 -10.5t-23.5 -25t-19.5 -29.5t-13.5 -26q-20 -49 -42.5 -96t-45.5 -96q-23 -47 -42 -97t-38 -102 q-41 -109 -86 -212t-86 -210q-20 -51 -35.5 -101t-31.5 -101q-4 -14 -11.5 -34t-7.5 -34z" />
<glyph unicode="J" horiz-adv-x="813" d="M-121 238q0 -47 20.5 -75t53.5 -57q51 -47 114.5 -88t135.5 -41q59 0 118.5 24t113.5 61.5t99.5 85t77.5 94.5q84 123 139.5 257t102.5 273q18 51 31.5 93t24 84t20.5 85t22 96q4 10 6.5 24t2.5 24q0 18 -12.5 38.5t-31 40t-37 36t-30.5 28.5q-16 14 -29.5 21.5 t-36.5 7.5q-18 0 -48.5 -5.5t-45.5 -15.5q-8 -6 -17 -25.5t-17.5 -42t-15.5 -44t-9 -29.5q-35 -104 -69 -206.5t-75 -205.5l-77 -196q-14 -35 -28.5 -73t-37.5 -71l-61 -90q-8 -10 -25.5 -31.5t-32.5 -21.5q-8 0 -10 7t-2 13q0 29 11.5 61t24.5 64.5t24.5 65.5t11.5 63 q0 6 -1 12.5t-8 10.5l-18 6q-12 4 -23.5 25.5t-31.5 21.5q-4 0 -15.5 -4t-15.5 -6q-8 -4 -20 -4h-19q-16 -2 -30.5 -6.5t-30.5 -10.5q-35 -14 -55.5 -30.5t-34 -38t-23.5 -48t-22 -59.5q-4 -12 -14.5 -36.5t-19.5 -52.5t-16.5 -52.5t-7.5 -36.5v-20z" />
<glyph unicode="K" horiz-adv-x="1013" d="M-23 184q0 -35 21.5 -61.5t42.5 -50.5q4 -6 14.5 -18.5t18.5 -16.5q6 -4 23.5 -6t25.5 -4q20 -2 45 -9.5t41 -17.5q4 -4 14 -10t15 -6q12 0 30.5 27.5t38 71.5t40 96t36.5 100.5t27.5 86t15.5 52.5q2 6 6 20.5t10.5 29.5t13.5 26.5t15 11.5q6 0 10 -10.5t5 -24.5t2 -26.5 t1 -16.5q0 -23 -1 -43t-1 -43q0 -27 2.5 -73t7.5 -95t14 -94t21 -68q27 -43 68 -63q16 -8 34.5 -15.5t37.5 -7.5q12 0 28.5 7.5t34 16.5t34.5 17t33.5 10.5t39.5 2.5t44 4t35.5 15t14.5 38q0 25 -18.5 56.5t-28.5 53.5q-43 86 -54.5 192.5t-19.5 201.5q-2 18 -4 37.5 t-2 37.5q0 23 6 28t27 15q8 4 25.5 15.5t37 25t36.5 25.5t24 18q23 20 40 46t33 51q23 33 44.5 63.5t43.5 61.5q29 39 58.5 87t29.5 97q0 25 -9 51.5t-19 48.5q-12 29 -22.5 47.5t-24 31.5t-31.5 23.5t-47 24.5q-14 0 -27.5 -9t-25 -23.5t-21.5 -29t-16 -24.5 q-6 -8 -28.5 -43t-56.5 -82t-72 -100t-76 -98t-68.5 -75t-48.5 -30q-10 0 -13.5 8.5t-3.5 16.5q0 20 20.5 64t46 96.5t46 102.5t20.5 81q0 23 -10 39t-25.5 26.5t-34 18.5t-36.5 14q-35 14 -73 29.5t-77 15.5q-25 0 -41 -8q-12 -8 -22 -28.5t-18.5 -43t-14.5 -45t-10 -35.5 q-35 -119 -79 -234.5t-93 -227.5q-2 -6 -19.5 -45t-43 -97.5t-53.5 -127t-52.5 -129t-41 -107.5t-16.5 -62z" />
<glyph unicode="L" horiz-adv-x="780" d="M-16 256q0 -10 10 -28.5t14 -28.5q23 -45 41.5 -83t52.5 -73q23 -23 36.5 -35t25.5 -16q12 -6 28.5 -8t49.5 -7q16 -2 32.5 -3t32.5 -1q20 0 54 9.5t57 13.5q25 4 49.5 7t48.5 9q23 4 45.5 12.5t44.5 14.5q43 12 63.5 42t35.5 71q6 20 15 52t9 52q0 10 -8 26.5t-19.5 31 t-24.5 24.5t-24 10q-16 0 -33.5 -5l-31.5 -9q-33 -8 -77 -15.5t-77 -7.5q-14 0 -31.5 4t-17.5 23q0 16 7 33.5t14 34.5q8 20 14 40.5t12 42.5q29 90 68 174.5t80 170.5q31 66 60.5 131t68.5 127q10 16 26.5 42t16.5 44q0 14 -18.5 37.5t-41 47t-46 43t-32.5 27.5 q-16 16 -44.5 25.5t-51.5 9.5t-36 -9t-25 -30q-14 -23 -25.5 -45t-23.5 -45q-49 -90 -88 -170t-80 -172q-43 -98 -92.5 -195.5t-84.5 -199.5l-69 -203q-4 -10 -7 -21.5t-3 -21.5z" />
<glyph unicode="M" horiz-adv-x="1374" d="M-31 223q0 -16 8.5 -46t21.5 -58.5t31.5 -49t39.5 -20.5h36q10 -4 21.5 -8t22.5 -10q16 -10 29.5 -27.5t35.5 -17.5q16 0 30.5 14t25 32.5t17.5 39t11 32.5q23 76 46.5 151t51.5 148q20 49 41 98.5t37 100.5q10 33 19.5 68t25.5 65q2 4 8.5 17.5t12.5 28t13 25.5t11 11 t5 -4t1 -8q0 -27 -6 -53.5t-12 -53.5q-6 -31 -13.5 -60.5t-13.5 -59.5q-4 -27 -8 -53.5t-8 -53.5q-10 -57 -25.5 -115.5t-15.5 -117.5q0 -20 5 -31.5t20 -26.5q18 -20 39.5 -36.5t39.5 -34.5q16 -16 40 -36t51 -20q18 0 30.5 9.5t20.5 22.5t12 29.5t8 30.5q16 66 52 127.5 t67 120.5q14 29 27.5 56.5t29.5 56.5q16 27 31.5 52.5t32.5 51.5q2 4 8 16.5t14.5 25t15.5 21.5t13 9q8 0 8 -8q0 -6 -12 -40t-26.5 -72t-29 -72.5t-16.5 -45.5q-12 -37 -23.5 -76.5t-21.5 -78.5q-6 -25 -9 -51.5t-7 -51.5q-2 -14 -5 -27.5t-3 -27.5q0 -23 24.5 -54.5 t57 -60t66.5 -50t52 -21.5q16 0 29.5 7t28.5 13q35 14 56.5 24.5t25.5 55.5l8 98q2 39 11 88.5t20.5 100.5t23.5 100t23 88q16 66 35.5 130.5t41.5 127.5l64 185q2 8 11 31.5t18.5 50t16.5 49t7 28.5q0 23 -17.5 57.5t-31.5 51.5q-10 12 -31.5 36.5t-46 48t-49.5 42 t-39 18.5q-25 0 -63.5 -32.5t-78.5 -75.5t-73 -83t-45 -52q-23 -27 -43 -51.5t-41 -53.5q-14 -18 -26.5 -37.5t-26.5 -36.5q-4 -4 -11.5 -13t-13.5 -9q-4 0 -5 5t-1 9q0 16 4 32.5t6 33.5q2 20 2 41v41q0 63 -2 98t-14 57.5t-40 44t-79 56.5q-27 16 -49 31.5t-55 15.5 q-43 0 -76 -29q-14 -14 -25.5 -31.5t-21.5 -33.5q-55 -90 -108.5 -178.5t-100.5 -182.5q-35 -66 -66.5 -130t-66.5 -130q-47 -88 -90 -174t-80 -178q-10 -25 -18.5 -51.5t-8.5 -55.5z" />
<glyph unicode="N" horiz-adv-x="1048" d="M-18 242q0 -31 23.5 -63t45.5 -48q10 -8 21.5 -14t19.5 -17q6 -8 13.5 -20t11.5 -23q37 -75 114 -75h2q16 0 27.5 12t19 29.5t12.5 35t7 29.5q16 74 43 145.5t49 143.5q10 35 19.5 72.5t23.5 72.5q8 18 14.5 39t8.5 41q0 6 2 18.5t12 12.5l2 -2q6 -20 11 -63.5t5 -63.5 v-250q0 -27 -1 -52.5t-1 -54.5q0 -31 9.5 -53t35.5 -41q12 -10 38 -24.5t53.5 -27.5t53 -23.5t42.5 -10.5q35 0 46 25.5t19 54.5q8 31 17.5 60.5t19.5 60.5l62 199q20 63 43.5 124.5t48.5 122.5q23 61 46 124t54 122l80 154q10 23 28.5 58.5t18.5 60.5q0 31 -21.5 50 t-41.5 40q-10 10 -33 30.5t-48.5 42t-50 37t-42.5 15.5q-27 0 -45.5 -29t-28.5 -49q-41 -92 -75 -182.5t-66 -186.5q-6 -18 -12.5 -36.5t-10.5 -37.5q-2 -8 -6 -20t-14 -12q-6 0 -7.5 16t-1.5 20q-2 49 -2 99q0 49 -2 98q-2 29 -4 59.5t-4 59.5q-2 31 -5 67.5t-25.5 59 t-55.5 33t-61 26.5q-16 8 -37 19.5t-37 11.5q-45 0 -66.5 -19.5t-31.5 -62.5q-16 -68 -35 -130t-41 -128q-20 -57 -42 -112.5t-44 -110.5q-20 -47 -40 -95.5t-42 -95.5q-12 -25 -36 -76t-47.5 -108t-40.5 -108.5t-17 -75.5z" />
<glyph unicode="O" horiz-adv-x="1050" d="M57 315q0 -80 35 -127t94 -96l93 -76l13 -13t15 -11q18 -12 41 -20.5t45 -8.5q37 0 75 11.5t76 28.5t72.5 37.5t63.5 41.5q96 68 176 167t138.5 212.5t91 237.5t32.5 241q0 80 -13 139.5t-46 130.5q-16 35 -34.5 65t-63.5 30q-35 0 -63 -17.5t-44 -17.5q-14 0 -31.5 21.5 t-36 47t-39 47t-38.5 21.5q-4 0 -7 -2q-12 -4 -24 -6t-25 -4q-59 -31 -111.5 -79t-103.5 -93q-49 -45 -99 -110.5t-93 -140.5t-78 -151t-53 -139q-12 -39 -22.5 -86t-17.5 -96t-12.5 -97.5t-5.5 -87.5zM397 338q0 41 19.5 86t34.5 84q16 45 32.5 89t34.5 87q29 66 66 124 t73 118q8 12 28 37.5t36 25.5q23 0 29 -24.5t6 -40.5q0 -47 -20.5 -109.5t-43.5 -103.5q-14 -27 -30.5 -61t-35 -67.5t-37 -64.5t-36.5 -55l-72 -96q-4 -6 -12 -16.5t-17.5 -22t-19.5 -19.5t-18 -8q-12 0 -14.5 14.5t-2.5 22.5z" />
<glyph unicode="P" horiz-adv-x="1007" d="M-31 186q0 -27 12.5 -45t31 -32.5t40 -25.5t39.5 -22q31 -18 53 -41q18 -18 35 -33.5t45 -15.5q39 0 59.5 29t30.5 61q10 29 17.5 59t17.5 58q18 55 41 109.5t39 111.5q2 6 7 23.5t12.5 36t15.5 34t16 15.5q10 0 24.5 -23.5t32 -51t38 -51.5t42.5 -24q12 0 32 7.5 t39.5 18.5t37.5 22.5t29 17.5q86 57 155 127q37 37 80 90t80 113.5t61.5 122t24.5 116.5q0 66 -31.5 134.5t-78.5 115.5q-37 37 -74 59.5t-76 34t-82 14.5t-94 3q-104 0 -186 -14.5t-179 -59.5q-10 -4 -25.5 -12t-15.5 -23q0 -47 18.5 -93t18.5 -77q0 -16 -6 -28.5 t-14 -24.5q-39 -61 -69 -118.5t-58 -123.5q-47 -109 -92 -215t-90 -217q-6 -14 -14.5 -35.5t-17.5 -44t-15.5 -45t-6.5 -37.5zM592 786q0 16 14.5 45t20.5 43q4 8 13 29t21.5 42.5t23.5 41t22 25.5q8 6 36.5 13t38.5 7q14 0 28.5 -6t14.5 -22q0 -10 -7 -21.5t-11 -19.5 q-27 -39 -45.5 -67t-40 -49.5t-50 -38.5t-71.5 -36q-4 0 -6 5t-2 9z" />
<glyph unicode="Q" horiz-adv-x="1028" d="M66 391q0 -51 8 -91t26.5 -75t45 -66.5t63.5 -66.5q45 -41 102.5 -81t122.5 -40q37 0 72 12.5t60.5 28t43 27.5t21.5 12q6 0 9 -7t5 -11q25 -55 55 -111q14 -25 31 -49.5t49 -24.5q20 0 42 13.5t42.5 32t39 38t34.5 33.5q29 27 46 47.5t17 61.5q0 25 -9 42t-22.5 33.5 t-27.5 33t-22 36.5l-21 49q-4 10 -8 22.5t-4 22.5q0 4 9 22.5t21.5 40t24.5 42t19 33.5q51 115 82.5 238.5t31.5 250.5q0 53 -21.5 85t-46 50.5t-46 28.5t-21.5 20q0 8 13.5 15.5t28.5 14.5t28.5 17.5t13.5 26.5q0 12 -13.5 32.5t-29.5 42t-34.5 40l-26.5 26.5 q-29 29 -63 47.5t-75 18.5t-93 -26.5t-106.5 -63.5t-101.5 -76t-75 -63q-121 -109 -187.5 -234t-109.5 -280q-18 -66 -30.5 -133.5t-12.5 -137.5zM410 334q0 4 3 23.5t7 42t8 44t6 29.5q8 49 34 120t62.5 141.5t78.5 134t83 98.5q4 4 12.5 10t12.5 6q12 0 14 -17.5t2 -25.5 q0 -35 -9 -75t-22.5 -81t-29 -79.5t-27.5 -69.5q-2 -4 -8 -21.5t-8 -19.5q-4 -4 -15.5 -7t-17.5 -5q-49 -12 -65.5 -34t-16.5 -73q0 -14 1 -28.5t1 -28.5q0 -8 -11 -26.5t-26.5 -37t-30 -33t-20.5 -14.5q-10 0 -14 9.5t-4 17.5z" />
<glyph unicode="R" horiz-adv-x="1050" d="M-6 205q0 -27 18.5 -56.5t30.5 -52.5q16 -29 26.5 -42t45.5 -19q25 -4 46 -8t42 -19q12 -8 30.5 -22.5t32.5 -14.5q12 0 20.5 9.5t12.5 19.5q23 41 38 86t27.5 90t25.5 90t30 88q10 27 18 51.5t13 53.5q0 4 2 16t10 12t9 -13t1 -17q0 -29 2 -54.5t4 -54.5q4 -49 8.5 -94 t14.5 -86t29.5 -79t54.5 -77q8 -8 22.5 -21.5t30.5 -26.5t33.5 -22.5t29.5 -9.5t41 11.5t61 26t61.5 28.5t43.5 20q12 6 17.5 25.5t5.5 30.5q0 18 -6 32.5t-15.5 26.5t-19.5 23.5t-17 27.5q-10 23 -20 56.5t-16 56.5q-14 53 -27.5 110.5t-13.5 112.5q0 20 3 27.5t19 17.5 q10 6 20.5 11.5t20.5 9.5q51 25 90 56.5t78 72.5q51 55 97 120.5t46 145.5q0 70 -31.5 147.5t-78.5 126.5q-57 59 -137 85t-160 26q-47 0 -100.5 -3t-107.5 -9t-106.5 -17.5t-95.5 -27.5q-31 -10 -38 -28.5t-7 -49.5q0 -51 19 -101q4 -10 10 -27.5t6 -27.5t-10 -35.5 t-24.5 -56.5t-27 -58.5t-18.5 -39.5l-100 -238q-23 -57 -48.5 -112.5t-47.5 -112.5q-14 -35 -26.5 -70t-25.5 -69q-4 -14 -13 -38t-9 -40zM608 844q0 20 20.5 55t30.5 57l23 60q10 25 20.5 30t36.5 5h58q16 0 33.5 -5t17.5 -28q0 -18 -16.5 -39t-39 -40t-45 -34.5 t-36.5 -23.5q-6 -4 -18.5 -11.5t-27 -15.5t-27.5 -14t-22 -6q-8 0 -8 10z" />
<glyph unicode="S" horiz-adv-x="927" d="M-63 242q0 -16 13 -42t30.5 -52.5t36 -51t28.5 -37.5q33 -39 65.5 -60.5t86.5 -21.5q63 0 132.5 18.5t129.5 41.5q53 20 108.5 48t98.5 65q33 29 62.5 68.5t51 84.5t33.5 92t12 92q0 47 -16 103.5t-45 95.5q-18 23 -41 43.5t-45 38.5q-10 8 -33.5 27.5t-47.5 41t-42 42 t-18 32.5v7q18 20 29.5 31.5t22.5 18.5t26.5 14t39.5 19q8 4 31 17.5t31 13.5q6 0 6 -6q0 -12 -7 -26.5t-16.5 -28t-16.5 -25.5t-7 -20q0 -25 29.5 -43.5t69.5 -29.5t80 -17.5t63 -6.5q37 0 51 7.5t30 40.5q4 10 9.5 20t11.5 21q27 45 59.5 88t32.5 98q0 25 -9 53.5 t-22.5 56t-32 51t-36.5 42.5q-35 35 -76 44t-88 9q-72 0 -146.5 -15.5t-145.5 -44t-134.5 -70.5t-112.5 -95q-61 -68 -80.5 -149t-19.5 -171q0 -45 7 -81t36 -72q31 -43 72 -87.5t82 -76.5q16 -10 35.5 -27.5t19.5 -40.5q0 -18 -20.5 -37.5t-48 -34t-56.5 -23.5t-47 -9 t-22.5 20.5t-7.5 45t-14.5 45t-47.5 20.5q-25 0 -48.5 -1t-48.5 -3q-43 -2 -67.5 -39t-46.5 -70q-12 -18 -30.5 -49t-18.5 -53z" />
<glyph unicode="T" horiz-adv-x="659" d="M23 203q0 -16 12 -44t29.5 -55.5t36 -50t32.5 -28.5q6 -4 27.5 -14.5t48.5 -20.5t50.5 -17.5t31.5 -7.5q14 0 30.5 8.5t20.5 22.5q6 23 11 43t14 41q16 43 32.5 86t30.5 88q16 53 31.5 109.5t32.5 111.5q25 86 58.5 168t68.5 164q4 8 13 27.5t19.5 41t17.5 39t7 23.5 q0 23 -8 45.5t-8 44.5q0 6 8 9t18 4t19 1h14q37 0 65.5 -2t51 4.5t41 24.5t36.5 59q4 8 7.5 17.5t3.5 19.5q0 6 -7.5 19.5t-17.5 28t-19.5 26.5t-13.5 18q-27 35 -49 64t-69 29q-31 0 -61 -2t-60 -5q-18 -2 -58.5 -3t-89.5 -4t-103 -8t-102.5 -12t-85 -17.5t-51 -24.5 t-18.5 -28.5t-4 -33.5q0 -33 8 -63.5t12 -63.5q2 -18 4 -36.5t8.5 -35t19.5 -26.5t36 -10q29 0 61.5 17.5t55.5 17.5q8 0 8 -11q0 -23 -12.5 -49t-22.5 -47q-23 -43 -42.5 -87t-35.5 -89t-32.5 -89t-34.5 -89q-8 -23 -30 -69t-43.5 -99t-37.5 -103.5t-16 -76.5z" />
<glyph unicode="U" horiz-adv-x="1060" d="M92 369q0 -80 20.5 -142.5t77.5 -120.5q49 -49 123 -86.5t146 -37.5q94 0 182 62t166 163.5t141.5 228.5t109.5 256t71.5 248t25.5 201q0 35 -14 69q-14 29 -36 46.5t-48 33.5q-29 18 -65 44t-70 26q-18 0 -29.5 -11.5t-18 -26.5t-10.5 -32.5t-6 -32.5q-6 -31 -14 -61.5 t-19 -60.5l-69 -238q-39 -135 -103.5 -264t-132.5 -252q-4 -8 -12 -21.5t-17.5 -25.5t-19.5 -20.5t-22 -8.5q-16 0 -19.5 20.5t-3.5 30.5q0 41 14.5 103.5t37 135.5t51 151.5t57 151.5t53.5 134.5t41 100.5q2 6 9 22t15.5 34.5t14.5 34t6 19.5q0 10 -12.5 14.5t-16.5 8.5 q-20 10 -39.5 24.5t-31.5 32.5q-12 16 -18.5 27.5t-28.5 11.5q-29 0 -65 -15.5t-62 -27.5q-35 -16 -54.5 -25.5t-36.5 -44.5q-47 -98 -85.5 -198.5t-79.5 -198.5q-47 -115 -75 -237.5t-28 -245.5z" />
<glyph unicode="V" horiz-adv-x="987" d="M82 201q0 -33 16.5 -55.5t36.5 -45.5q16 -18 40 -41.5t51.5 -43t55 -34t54.5 -14.5q25 0 45 11.5t37.5 29t33 38t27.5 36.5q29 37 59.5 72.5t61.5 72.5q59 72 125 157t129.5 176t119.5 183.5t97 178.5q6 12 18.5 37.5t23.5 54t20.5 55.5t9.5 39q0 10 -7.5 24.5t-17.5 29 t-20.5 27.5t-16.5 21q-16 25 -32.5 53.5t-37 52t-46 39t-62.5 15.5q-47 0 -62.5 -33.5t-25.5 -72.5q-10 -41 -27.5 -80t-33.5 -78l-36 -86t-36 -84q-35 -78 -75 -152.5t-81 -150.5q-4 -6 -12 -22.5t-17.5 -35t-18.5 -33t-15 -14.5t-6 9q0 2 4 19t9 37.5t10 39t7 24.5 q12 55 28.5 109.5t33.5 107.5l53 189q10 35 23.5 76t13.5 75q0 39 -22.5 60.5t-51.5 44.5q-18 14 -50 35.5t-56 21.5q-23 0 -56.5 -9t-58.5 -13q-27 -4 -40 -9.5t-20.5 -15.5t-9.5 -25.5t-4 -41.5q-4 -35 -15 -70t-22 -66q-16 -53 -23 -110.5t-17 -110.5l-41 -258l-39 -252 q-8 -47 -19.5 -97t-11.5 -97z" />
<glyph unicode="W" horiz-adv-x="1366" d="M94 186q0 -39 29 -61q12 -10 26.5 -17.5t26.5 -15.5q14 -10 31.5 -25.5l35 -31t35 -26.5t35.5 -11q45 0 67.5 35t43.5 69l86 144l152 254q6 10 20 35.5t25 31.5q10 0 10 -8q0 -16 -3 -31.5t-5 -31.5q-10 -88 -22.5 -175.5t-12.5 -175.5q0 -20 14 -39.5t33.5 -37t41 -31.5 t34.5 -23q20 -14 44.5 -33.5t51.5 -19.5t50.5 26.5t33.5 47.5q37 66 75 129t78 127q29 45 53.5 92t49.5 94q25 45 50.5 89t49.5 89q47 84 88 167t82 171q14 29 37 69t23 71q0 47 -32 76.5t-65 56.5q-8 6 -21 18t-27.5 23.5t-30 20.5t-25.5 9q-16 0 -43 -13t-41 -19 q-29 -14 -34 -27.5t-15 -42.5q-6 -23 -15.5 -43.5t-17.5 -42.5q-33 -80 -57.5 -162t-59.5 -160q-14 -33 -29.5 -64.5t-25.5 -66.5q-2 -4 -7 -18t-11.5 -29.5t-13.5 -27t-13 -11.5q-8 0 -9 17.5t-1 21.5q0 41 7 85t11 85l8 70t13 69q2 16 9 46t14 62t12.5 62.5t5.5 49.5 q0 10 -10.5 22t-25 24.5t-28.5 22.5t-22 17q-25 23 -61 45t-71 22q-29 0 -38 -26.5t-13 -49.5q-8 -45 -25.5 -87t-38 -83t-43 -80.5t-42.5 -80.5q-31 -63 -61.5 -126t-65.5 -126q-2 -4 -8.5 -14.5t-13.5 -20.5t-15 -18.5t-14 -8.5q-8 0 -9.5 11.5t-1.5 15.5q0 14 6.5 34.5 t10.5 35.5q10 29 16 56.5t12 55.5q10 41 21.5 81t26.5 81q20 57 37.5 114.5t17.5 118.5q0 8 -1 18.5t-5 16.5q-2 4 -14.5 12.5t-16.5 10.5q-14 10 -30.5 27.5t-34 34t-36 27.5t-36.5 11q-29 0 -72 -13t-61 -36q-8 -10 -14.5 -30.5t-9.5 -43t-5 -44t-4 -34.5 q-12 -104 -32.5 -203.5t-37 -201.5t-30 -202.5t-29.5 -203.5q-2 -12 -6 -36.5t-9.5 -52t-8.5 -51t-3 -34.5z" />
<glyph unicode="X" d="M-78 244q0 -16 1 -35t5 -34t11 -21q25 -8 51 -16.5t45 -28.5q10 -12 18 -31t18.5 -36t25 -29.5t36.5 -12.5q6 0 14.5 2t12.5 8q8 14 16 28.5t17 29.5q16 25 29.5 49t29.5 49q8 12 33.5 55t55.5 89t55.5 83t31.5 37q10 0 10 -18v-23q0 -27 1 -53.5t-3 -52.5 q-4 -41 -11 -79t-7 -79q0 -45 6 -84q6 -33 30.5 -42t53.5 -19q8 -4 30.5 -11.5t28.5 -7.5q10 0 35 15.5t50.5 36t50 41t34.5 28.5q39 29 45 51.5t6 69.5q0 55 -7 108.5t-15 106.5q-4 37 -5 74.5t-5 74.5q-4 57 -15 105q-2 10 -4 19t-2 20q0 16 11.5 25t21.5 20 q23 16 41 35.5t37 37.5q47 49 97 95.5t101 93.5q20 18 41 43.5t21 54.5q0 25 -10.5 66t-28.5 82t-43 70.5t-53 29.5q-31 0 -52.5 -17.5t-39.5 -39.5q-16 -16 -32 -34t-34 -34l-86 -74q-6 -4 -16.5 -15t-21.5 -21.5t-21.5 -18.5t-14.5 -8t-8 9t-6 19.5t-4 20.5t-2 14 q-4 35 -14.5 67t-16.5 66q-4 27 -15.5 54.5t-45.5 27.5q-20 0 -58.5 -12t-56.5 -22q-12 -6 -24.5 -14.5t-24.5 -14.5q-6 -4 -15.5 -5t-17.5 -3q-10 -2 -24.5 -12.5t-27.5 -25t-22.5 -28.5t-9.5 -24q0 -23 6 -51.5t15.5 -58.5t18.5 -58.5t15 -53.5q2 -6 8.5 -29.5t13.5 -49 t12 -48t5 -26.5q0 -14 -11 -29.5t-26.5 -31t-31 -29t-23.5 -21.5q-27 -29 -51.5 -59.5t-48.5 -61.5q-31 -37 -61.5 -73.5t-61.5 -75.5q-20 -25 -38.5 -49.5t-37.5 -48.5q-10 -14 -18 -23.5t-13.5 -20t-7.5 -21.5t-2 -30v-26z" />
<glyph unicode="Y" horiz-adv-x="837" d="M10 141q0 -16 9.5 -39.5t22.5 -47t30.5 -41t33.5 -21.5q23 -6 44.5 -8t44.5 -11q14 -8 37.5 -15t39.5 -7q35 0 59.5 23.5t43.5 48.5q53 76 107.5 149.5t107.5 149.5q25 33 65.5 100t90 152t98.5 181.5t90 186.5t66.5 167t25.5 124q0 27 -23.5 61.5t-55.5 64.5t-67.5 50.5 t-60.5 20.5q-41 0 -56 -29t-26 -62q-29 -98 -74 -188t-81 -186q-2 -6 -8.5 -21.5t-14.5 -33t-17.5 -31t-15.5 -13.5q-8 0 -13 8.5t-8 19.5t-4 22.5t-1 17.5q0 53 7 105.5t15 103.5q4 23 12.5 61.5t8.5 59.5q0 35 -31 50t-57 27q-23 10 -37.5 17.5t-28.5 12.5t-29.5 8 t-37.5 3q-12 0 -31 -1t-38.5 -4t-36.5 -10t-26 -17q-10 -12 -17 -54.5t-11 -89.5t-6 -90t-2 -61q0 -61 6 -123t12 -121q6 -68 18 -135q6 -29 14.5 -47.5t21 -30.5t29.5 -23.5t42 -25.5q4 -4 10 -9t6 -12q0 -6 -4 -14t-8 -14q-27 -41 -52.5 -78t-58.5 -72 q-35 -39 -72.5 -71.5t-74.5 -69.5q-12 -12 -22.5 -30.5t-10.5 -37.5z" />
<glyph unicode="Z" horiz-adv-x="833" d="M-94 184q0 -18 6 -32q23 -25 42 -60t34 -65q10 -23 25.5 -43.5t41.5 -20.5q12 0 35 5t48.5 13.5t49 14.5t35.5 10q43 10 91 14.5t94 6.5h61t85 1t82 4t50 11q18 10 36.5 39t29.5 47q2 6 8 18.5t12 26.5t11 27.5t5 21.5q0 14 -12 35t-29.5 40t-37 32.5t-33.5 13.5 q-23 0 -42.5 -4t-41.5 -6q-16 -2 -33.5 -1t-34.5 -3q-14 -4 -28.5 -8.5t-28.5 -4.5q-8 0 -15.5 4.5t-7.5 14.5q0 8 21.5 36.5t47.5 62.5t49.5 62.5t29.5 34.5q37 47 75 91.5t72 91.5q29 35 54.5 71.5t52.5 73.5q18 27 38.5 51.5t41.5 49.5q23 29 48 66.5t25 76.5 q0 29 -12 48t-24 42q-8 14 -13.5 28.5t-13.5 28.5q-6 10 -14.5 20.5t-14.5 20.5q-4 4 -5 11.5t-5 11.5q-8 16 -41 18t-49 2q-119 0 -233.5 -15t-231.5 -40l-39 -8q-10 -4 -37.5 -19.5t-34 -25.5t-6.5 -23q0 -23 8.5 -40t18.5 -40q8 -16 11 -34.5t7 -34.5q2 -10 4 -26.5 t8.5 -32t15.5 -27t24 -11.5q25 0 49 13.5t49 17.5q16 2 33.5 3t33.5 5q20 4 37 12.5t37 8.5q14 0 14 -8q0 -10 -22.5 -37t-51 -57.5t-53 -56t-30.5 -32.5q-82 -90 -162 -178t-160 -178q-31 -35 -58.5 -73t-55.5 -76q-10 -12 -22.5 -30l-25 -36t-20.5 -37.5t-8 -34.5z" />
<glyph unicode="a" horiz-adv-x="899" d="M-10 285q0 -47 14 -86t39 -78q12 -18 30.5 -41t41 -42.5t47 -32.5t49.5 -13q10 0 26.5 4t34 11t32.5 14.5t25.5 13.5t17.5 13t18 13q10 10 20 11q8 0 13 -7.5t10 -11.5q16 -25 24 -33t39 -16q29 -8 57.5 -15t57.5 -18q10 -4 18 -7t19 -7q6 -2 11 -3t11 -1q41 0 53.5 30.5 t16.5 63.5q4 39 8 69.5t8 58.5t10.5 57.5t16.5 68.5q10 45 20 88t25 86q4 14 18.5 47t32.5 74t38.5 86t37 82t28 63.5t11.5 30.5q0 14 -12.5 27.5t-29 26t-33.5 22.5t-28 20q-12 10 -23.5 22.5t-23.5 22.5q-14 12 -31.5 17.5t-35.5 5.5q-47 0 -64.5 -25.5t-34.5 -62.5 q-2 -2 -6 -11.5t-8 -9.5q-14 0 -20.5 15.5t-12.5 34t-16 34t-33 15.5q-14 0 -35.5 -7.5t-44 -16.5t-44 -19.5t-34.5 -16.5q-35 -18 -77.5 -52t-84.5 -74t-78 -82t-57 -74q-25 -39 -45 -86t-35.5 -98.5t-23.5 -103.5t-8 -97zM322 352q0 23 17 61t28 60q8 20 16 35.5t16.5 29 t18.5 25.5t26 29q23 23 40.5 41t50.5 18l4 -4q0 -4 -3.5 -11l-5.5 -11l-14 -35t-20.5 -52.5t-18.5 -52t-8 -32.5q0 -6 -1 -18.5t-5 -16.5q-4 -8 -21.5 -22.5t-39 -30t-41 -26.5t-25.5 -11q-10 0 -12 8t-2 16z" />
<glyph unicode="b" horiz-adv-x="919" d="M-59 217q0 -25 11 -48.5t27.5 -45t35 -41t34.5 -33.5q6 -6 19.5 -16t27 -21.5t27.5 -18.5t24 -7q6 0 17.5 4t15.5 8q14 8 21.5 23.5t13.5 32t15.5 30.5t25.5 25q6 0 17.5 -13.5t22.5 -30t20.5 -31t13.5 -20.5q2 -6 15 -13t28.5 -15.5t30 -13.5t22.5 -5q39 0 87 36t95 85 t86 99.5t60 78.5q27 39 56.5 88t54 102.5t41 108t16.5 101.5q0 27 -5.5 52t-11.5 50q-16 66 -41.5 111t-79.5 88q-10 10 -25.5 19t-31.5 9q-4 0 -6 -2q-20 -4 -43 -9t-39 -17q-10 -6 -17.5 -15.5t-21.5 -9.5q-8 0 -10 7t-2 14q0 31 21.5 67.5t29.5 67.5q8 33 18.5 69.5 t10.5 71.5q0 31 -15.5 52.5t-39 36.5t-49 27.5t-46.5 24.5q-16 10 -37.5 25.5t-40.5 15.5q-45 0 -59 -33.5t-23 -68.5q-8 -33 -18 -64.5t-21 -64.5q-18 -55 -37.5 -110.5t-37.5 -110.5q-37 -106 -76 -210t-84 -208q-18 -43 -36.5 -86t-39.5 -84q-12 -25 -26.5 -49.5 t-24.5 -48.5q-4 -8 -10 -27.5t-6 -28.5v-10zM332 324q0 6 5 17t12 22.5t13.5 21.5t8.5 16q6 14 11 29.5t11 32.5q10 29 23.5 56.5t27.5 55.5q10 20 22.5 34t35.5 18q4 2 11 3t11 3q12 10 21.5 16t25.5 6q8 0 15.5 -3t7.5 -13q0 -16 -11.5 -37.5t-19.5 -36.5 q-10 -18 -20.5 -39.5t-22.5 -40t-32.5 -47t-45 -55.5t-52.5 -46.5t-52 -19.5q-6 0 -6 7z" />
<glyph unicode="c" horiz-adv-x="790" d="M-18 309q0 -57 23.5 -117.5t63.5 -109.5t93 -81t114 -32q20 0 49 4t60 11.5t58.5 15.5t45.5 18q23 10 43.5 26.5t36.5 33.5l9 7l16 14t15 15l7 7q12 18 14.5 49t8.5 53q4 10 6 21.5t2 21.5q0 8 -7 17.5t-17.5 19.5t-19.5 18.5t-15 14.5q-8 6 -14.5 10t-16.5 4 q-16 0 -32.5 -11t-37 -25.5t-44 -26t-50.5 -11.5q-39 0 -52 19.5t-13 54.5q0 31 10 66t26.5 68.5t36 64.5t35.5 55q6 10 19.5 25.5t29 31t31.5 26.5t31 11q6 0 8 -6t2 -10q0 -27 -19.5 -51.5t-19.5 -48.5q0 -12 17.5 -26.5t41 -25t47 -17.5t33.5 -7q12 0 22.5 6t20.5 10 q72 37 100.5 81t28.5 124v53q0 25 -5 45.5t-18 39t-40 38.5q-16 12 -41 27.5t-51.5 29t-53 22.5t-47.5 9q-57 0 -119.5 -24.5t-121 -62.5t-108.5 -84t-82.5 -89t-61.5 -93t-50.5 -105.5t-34.5 -113t-13 -110.5z" />
<glyph unicode="d" horiz-adv-x="901" d="M-14 303q0 -37 4 -65.5t14 -53t26.5 -49t41.5 -51.5q12 -12 28.5 -29.5t35 -33t39 -25.5t38.5 -10q25 0 53.5 14t55 31.5t46 32t27.5 14.5q10 0 16.5 -17.5t10.5 -23.5q6 -14 34.5 -28.5t64.5 -27t69 -20.5t49 -8q29 0 41 17.5t16 43.5q10 59 21.5 117.5t27.5 118.5 q12 47 24.5 94t29.5 94q41 121 92 238t100 233q16 37 31.5 73t36.5 71q14 25 34.5 58.5t20.5 62.5q0 31 -20.5 55t-44.5 41q-23 14 -34 32.5t-21.5 34t-28 26.5t-50.5 11t-51 -8t-28.5 -24.5t-18.5 -39t-18 -49.5q-16 -45 -36 -90t-44 -86q-14 -23 -28.5 -46t-22.5 -48 q-2 -4 -5.5 -14.5t-8.5 -21.5t-10 -20t-11 -9q-4 0 -9.5 14t-14.5 31.5t-22.5 32t-33.5 14.5q-12 0 -30.5 -7.5t-38 -17.5t-38 -20.5t-28.5 -16.5q-82 -45 -145.5 -93t-122.5 -120q-76 -92 -120 -201.5t-44 -230.5zM307 334q0 16 11.5 44t19.5 44q16 35 28.5 57.5t27 42 t30.5 40t43 52.5q8 10 27.5 29t33.5 19q7 -1 7 -7q0 -10 -5.5 -27.5t-13.5 -37t-15 -35.5t-9 -23q-16 -45 -27.5 -83.5t-28.5 -81.5q-10 -6 -24.5 -16.5t-28.5 -21t-28.5 -18.5t-24.5 -8q-12 0 -17.5 10.5t-5.5 20.5z" />
<glyph unicode="e" horiz-adv-x="813" d="M-20 307q0 -78 28.5 -140.5t77.5 -106.5t114.5 -67.5t139.5 -23.5q59 0 107.5 11.5t103.5 31.5q33 10 46 18.5t26 41.5q10 23 22 55.5t12 56.5q0 29 -16 57.5t-49 28.5q-16 0 -35 -6q-43 -12 -84 -21.5t-88 -9.5q-43 0 -55.5 33t-12.5 68q0 10 4.5 32.5t20.5 22.5 q4 0 13.5 -9t23.5 -21.5t29.5 -21.5t31.5 -9q33 0 73 7t78 21.5t73.5 33t60.5 42.5q53 51 86 129t33 152q0 57 -24.5 108t-65.5 88t-93.5 58.5t-109.5 21.5q-78 0 -140.5 -34.5t-121.5 -82.5q-41 -33 -81 -68.5t-73 -76.5t-60.5 -92t-49 -106.5t-33.5 -113t-12 -108.5z M403 557q0 4 20.5 32.5t48.5 60.5t53.5 57.5t35.5 25.5q8 0 8 -14v-17q0 -41 -24.5 -87t-67.5 -60l-39 -12q-12 -4 -18 -4q-16 0 -17 18z" />
<glyph unicode="f" horiz-adv-x="630" d="M-37 131q0 -14 6 -24.5t17 -20.5q27 -33 43 -54.5t59 -25.5q23 0 39 -10q23 -16 33 -22.5t39 -6.5q12 0 24.5 1t22.5 7q31 16 35 43t6 58q0 12 5 33.5t11 44t12.5 45t10.5 34.5q27 102 53.5 199.5t69.5 194.5q16 39 35.5 41t58.5 2q16 0 30.5 -2t28.5 -2q16 0 24.5 16 t12.5 31q10 33 21.5 50t31.5 46v41q-4 10 -8 18.5t-8 18.5q-6 16 -14.5 42.5t-32.5 26.5q-6 0 -8 -2q-4 0 -9.5 -1t-9.5 -1q-14 0 -14 13q0 8 11 32.5t25.5 51t30 47t25.5 20.5q4 0 7 -9t6 -20.5t4 -21.5t3 -14q6 -20 21.5 -24.5t34.5 -4.5q86 0 120.5 39t34.5 125 q0 41 -20.5 77.5t-53 63.5t-72.5 42t-79 15q-66 0 -122 -30.5t-103 -71.5q-29 -25 -58.5 -53.5t-48.5 -61.5q-25 -43 -53.5 -103t-44.5 -108q-10 -27 -16.5 -36t-32.5 -17q-31 -10 -41 -17t-10 -42q0 -25 6 -49.5t6 -49.5q0 -10 -4 -19t-8 -19q-53 -102 -86 -213l-66 -222 q-4 -12 -11 -31.5t-13.5 -40t-11.5 -40t-5 -29.5z" />
<glyph unicode="g" horiz-adv-x="911" d="M-102 -233v-21q0 -31 3 -51.5t10 -37.5t19.5 -33.5t30.5 -39.5q4 -6 12.5 -17t18.5 -22.5t20.5 -19.5t18.5 -8q2 0 9 3t9 3q8 0 25 4q63 10 125.5 27.5t117.5 50.5q63 37 119 96t104 130t87 144.5t69 137.5q18 41 48 103.5t57.5 130t47 132t19.5 109.5q0 27 -12 43 t-25.5 27.5t-25.5 18.5t-12 17q0 12 16 15.5t35.5 7.5t36 13t16.5 32q0 27 -16.5 65.5t-41 75.5t-55 62.5t-59.5 25.5q-8 0 -19.5 -3t-19.5 -7q-47 -2 -101.5 -19.5t-106.5 -44t-101 -56.5t-86 -56q-59 -43 -103.5 -85t-78 -89t-58 -103.5t-43.5 -126.5q-10 -41 -22.5 -86 t-12.5 -86q0 -43 26 -79.5t48 -71.5q18 -31 34.5 -63.5t59.5 -32.5q27 0 65 10t62 20q8 4 15 4q8 0 8 -6q0 -8 -12.5 -26.5t-16.5 -26.5q-16 -27 -40.5 -48.5t-47.5 -43.5q-4 -4 -37 -10.5t-73.5 -12.5t-76.5 -12t-44 -6q-29 -2 -34 -6t-9 -33q-2 -10 -2 -18zM303 289 q0 14 15.5 43.5t35 62.5t39 61.5t27.5 39.5q4 6 22.5 23.5t40 35.5t42 33.5t30.5 15.5t10 -8t-10 -24.5t-14 -26.5q-6 -16 -12.5 -33.5t-14.5 -34.5q-10 -23 -23.5 -43t-23.5 -43q-6 -12 -12 -25.5t-13 -25.5q-2 -6 -13 -13.5t-25.5 -13.5t-26.5 -11t-15 -7q-10 -4 -23 -9 t-24 -5q-12 0 -12 8z" />
<glyph unicode="h" horiz-adv-x="901" d="M-41 209q0 -39 23.5 -82t62.5 -57q33 -12 55.5 -20.5t40.5 -41.5q10 -18 16.5 -22t28.5 -4q39 0 49.5 13t16.5 50q10 59 33.5 115.5t46.5 109.5q10 25 16 50.5t14 52.5q14 51 35 100t41 98q4 8 7.5 18.5t7.5 18.5q12 18 31.5 30.5t41.5 12.5q12 0 24.5 -3t12.5 -19 q0 -18 -9 -41t-17 -39q-29 -59 -56.5 -118.5t-48.5 -123.5l-37 -121q-4 -10 -7 -21t-3 -22q0 -14 7 -25.5t16 -21.5q31 -47 59.5 -69.5t79.5 -44.5q10 -4 24.5 -9.5t26.5 -5.5q18 0 44 10.5t42 18.5q10 23 13 46.5t8 45.5q8 37 20 81t23 79q10 29 20 56.5t20 55.5 q16 43 29.5 85t30.5 85q6 20 17.5 48t22.5 58t18 59.5t7 54.5q0 33 -11 73.5t-32.5 77.5t-52.5 62.5t-69 25.5q-20 0 -43 -9t-43.5 -20.5t-36 -20.5t-21.5 -9q-4 0 -5 4t-1 8q0 18 18.5 56t40 79t40 79t18.5 56q0 27 -24.5 59t-58.5 59.5t-70 46t-60 18.5q-37 0 -54.5 -29 t-29.5 -57q-35 -78 -69 -154t-64 -156q-23 -57 -44.5 -114.5t-47.5 -112.5l-111 -227q-18 -37 -31.5 -77t-27.5 -79q-10 -27 -20.5 -51.5t-20.5 -50.5q-6 -16 -14.5 -39t-8.5 -39z" />
<glyph unicode="i" horiz-adv-x="514" d="M-63 186q0 -12 6 -31.5t17 -38t24.5 -31.5t25.5 -15q16 -4 25.5 -5.5t17.5 -4.5t14.5 -10t16.5 -21q14 -18 27.5 -32.5t38.5 -14.5q16 0 30.5 5t28.5 11q23 10 29 17.5t14 29.5q16 47 32.5 91t34.5 91q47 121 96.5 240t110.5 233q8 14 21.5 39t13.5 41q0 12 -12 30.5 t-28.5 39t-33 37l-24.5 24.5q-23 23 -59.5 45.5t-69.5 22.5q-12 0 -20.5 -10.5t-14.5 -20.5q-23 -41 -43 -81t-43 -81q-41 -80 -83 -159.5t-77 -161.5q-16 -35 -29.5 -69t-29.5 -68q-4 -10 -14.5 -28.5t-19.5 -40t-16 -41t-7 -32.5zM365 1130q0 -29 21.5 -52t41.5 -40 q12 -10 29.5 -25.5t38 -29.5t40 -24.5t35.5 -10.5q10 0 21.5 7.5t19.5 13.5q23 16 32 41.5t20 50.5q8 18 21 33.5t26.5 32t22.5 34.5t9 43q0 29 -14 43.5t-37 24.5q-12 6 -25.5 12t-23.5 16q-12 10 -27.5 24.5t-34 29t-37 23.5t-36.5 9q-33 0 -47.5 -22.5t-28.5 -48.5 q-8 -16 -19.5 -40t-22.5 -49.5t-18 -51t-7 -44.5z" />
<glyph unicode="j" horiz-adv-x="567" d="M-383 -236q0 -14 8 -33.5t17 -31.5q12 -18 23 -24.5t24 -6.5q12 0 25.5 2t29.5 -4q14 -6 28.5 -19.5t32 -27.5t40 -25.5t55.5 -11.5q35 0 51 16.5t39 39.5q23 25 44 50t40 54q29 41 53.5 85t48.5 87q53 94 107.5 186.5t101.5 190.5q23 47 44.5 95t43.5 95q12 27 29.5 64 t34 77t27.5 77.5t11 68.5q0 23 -12 47.5t-29.5 49t-36 46t-30.5 39.5l-31 21q-29 -4 -48 -7t-34.5 -10.5t-27 -23t-21.5 -43.5l-35 -101q-31 -88 -77 -173t-89 -167q-47 -92 -96 -179t-102 -177q-35 -57 -68 -110.5t-80 -100.5q-10 -12 -27.5 -28.5t-31.5 -24.5 q-6 -4 -19.5 -11.5t-27.5 -15.5t-24.5 -17t-10.5 -18zM416 1122q0 -10 13 -28.5t31.5 -39t37 -38t26.5 -23.5q23 -20 56 -20q20 0 46.5 9t43.5 24q8 8 19 25.5t21.5 38t19.5 40.5t18 33q10 18 17 33t7 38q0 31 -23.5 61t-56.5 53.5t-70.5 38.5t-64.5 15q-35 0 -49 -22.5 t-27 -50.5q-16 -37 -28 -70q-2 -4 -8.5 -20.5t-12.5 -36t-11 -37t-5 -23.5z" />
<glyph unicode="k" horiz-adv-x="878" d="M-61 188q0 -14 8 -25t20.5 -20.5t24.5 -16.5t20 -15.5t17.5 -18.5t15.5 -18q14 -18 28.5 -46t43.5 -28q6 0 23.5 4t36 10t33.5 12.5t17 8.5q8 6 26.5 54t39 108.5t38 115t21.5 70.5q2 4 6 13.5t11 9.5q6 0 10 -12.5t5 -27t1 -28.5v-16q0 -31 -1 -62t-1 -59q0 -16 7 -42 t16.5 -51.5t19.5 -50t16 -39.5q10 -23 25.5 -45t44.5 -22q10 0 30.5 8t44 18.5t50.5 19.5t49 13q10 2 26.5 4t31 8.5t24.5 15.5t10 25q0 4 -10 23.5t-14 24.5q-8 12 -13.5 24t-9.5 27q-23 68 -42 136.5t-19 139.5q0 20 8 25.5t24 13.5q29 14 60 35q27 18 45 33.5t31.5 33 t26 38t28.5 49.5q16 31 37.5 64.5t23.5 70.5q-8 29 -14 56.5t-18.5 51t-32 41t-51.5 25.5q-8 2 -18.5 5t-16.5 3q-18 0 -38 -17.5t-36 -41t-29.5 -47t-19.5 -35.5q-8 -14 -28.5 -44t-45 -59.5t-51.5 -52t-45 -22.5q-6 0 -8 6t-2 10q0 6 10 30.5t22.5 54.5t23.5 56.5t15 34.5 q10 25 34 77t47.5 108.5t42 105.5t18.5 67q0 14 -14.5 36t-34 43.5t-40 39t-32.5 23.5q-10 4 -28.5 7t-28.5 3q-23 0 -48 -10q-6 -4 -27.5 -11.5t-25.5 -11.5q-12 -10 -23.5 -30.5t-19.5 -44t-15 -46t-11 -34.5q-14 -35 -27.5 -70t-28.5 -70q-18 -47 -35.5 -93t-33.5 -93 q-23 -55 -50.5 -109.5t-54.5 -107.5q-39 -78 -74.5 -158t-70.5 -160q-6 -12 -14.5 -29.5t-16.5 -36t-14 -34.5t-6 -29z" />
<glyph unicode="l" horiz-adv-x="485" d="M-51 184q0 -16 18.5 -49t43 -65.5t48 -58t33.5 -25.5q23 -2 48.5 -6.5t47.5 -4.5q29 0 39.5 24t14.5 46q31 127 75.5 250t92.5 244q57 141 115.5 281.5t129.5 275.5q14 27 33 62.5t19 66.5q0 23 -10.5 29t-28.5 14q-31 12 -49.5 30.5t-34 36t-27.5 30.5t-31 13 q-10 0 -38.5 -9t-38.5 -13q-29 -35 -49.5 -77t-43.5 -83q-55 -104 -101 -210.5t-89 -217.5q-23 -57 -46.5 -114.5t-47.5 -114.5q-20 -47 -39 -93.5t-35 -93.5l-37 -114q-4 -10 -8 -26.5t-4 -27.5z" />
<glyph unicode="m" horiz-adv-x="1288" d="M-57 205q0 -14 2 -24.5t12 -20.5q27 -35 56.5 -67t58.5 -64q4 -6 17 -10.5t28.5 -8.5t31 -6t21.5 -2q29 0 47.5 26.5t26.5 49.5l47 145q23 68 54.5 131.5t53.5 130.5q12 35 25.5 69t42.5 58q10 10 24.5 18.5t28.5 8.5q20 0 21 -21q0 -16 -10.5 -37.5t-16.5 -35.5 q-25 -49 -41 -102.5t-43 -102.5l-43 -82q-20 -37 -20 -76q0 -27 12 -42t22 -38q8 -14 14.5 -28.5t12.5 -28.5q25 -14 50.5 -15t49.5 -14q14 -12 25.5 -22t32.5 -10q10 0 25.5 5t25.5 9q16 8 18 17.5t7 25.5q4 23 13 46.5t19 45.5q12 29 22.5 59.5t20.5 61.5 q25 74 49.5 147.5t47.5 149.5q8 25 16 36t31 23q10 4 26.5 12.5t26.5 8.5q6 0 7 -9.5t1 -13.5q0 -29 -15.5 -76t-37 -99t-43 -102t-33.5 -83q-10 -27 -23.5 -58.5t-13.5 -60.5q0 -23 18.5 -41t34.5 -33q14 -14 33 -32.5t39.5 -35t43 -27.5t46.5 -11q23 0 53.5 21.5 t40.5 39.5q4 10 7.5 29.5t5.5 30.5q4 29 14 58.5t21 57.5q18 49 41.5 114t45 134.5t36 136t14.5 119.5q0 39 -14.5 84t-41 83t-63.5 62.5t-82 24.5q-27 0 -57.5 -11t-57 -23.5t-48 -24t-29.5 -11.5t-11.5 9.5t-5.5 13.5q-12 31 -21.5 42t-37.5 28q-10 6 -24.5 13t-28.5 7 q-25 0 -54.5 -12t-60.5 -28.5t-60.5 -34t-50.5 -25.5q-14 18 -39.5 42.5t-55.5 46t-60.5 36t-55.5 14.5q-16 0 -33.5 -5t-27.5 -22q-8 -10 -10 -28.5t-4 -32.5q-4 -29 -14.5 -55.5t-20.5 -53.5q-14 -37 -26.5 -73.5t-29.5 -71.5q-16 -37 -32.5 -74t-32.5 -73 q-18 -41 -35.5 -83t-36.5 -83q-16 -37 -40.5 -81t-24.5 -85z" />
<glyph unicode="n" horiz-adv-x="907" d="M-53 201q0 -16 9 -30.5t22.5 -28t27.5 -25t27 -19.5q14 -10 34.5 -25.5t42 -29.5t44 -23.5t43.5 -9.5q25 0 39 27q18 41 36.5 82t35 82t28.5 83t26 83q18 53 42 104t40 104q6 23 14.5 33t18.5 16.5t22.5 12.5t28.5 20q4 0 5.5 1t5.5 1q18 0 18 -20q0 -27 -13.5 -70 t-31.5 -89t-36.5 -87t-29.5 -63l-43 -99q-10 -18 -30.5 -54t-20.5 -58q0 -10 22.5 -37t52.5 -54.5t59.5 -48t43.5 -20.5q4 0 18.5 4t20.5 6q29 8 46.5 12.5t30.5 11.5t23.5 21.5t22.5 40.5q57 123 97 253t77 259q10 35 17.5 71t7.5 71q0 51 -21.5 99t-52.5 87 q-8 10 -22.5 26.5t-32 33t-34.5 27.5t-32 11q-18 0 -48 -13t-58.5 -28.5t-51 -28t-30.5 -12.5q-10 0 -19 17q-4 6 -5 11t-5 11q-2 2 -25.5 14.5t-53 27t-56.5 25.5t-33 11q-18 0 -32.5 -11t-23.5 -26.5t-16.5 -35t-11.5 -33.5q-20 -70 -40.5 -138.5t-49.5 -134.5 q-8 -20 -25.5 -57t-39 -82t-43 -93t-40 -92t-30.5 -77t-12 -47z" />
<glyph unicode="o" horiz-adv-x="884" d="M-14 317q0 -59 29.5 -121.5t77.5 -113.5t107.5 -84t121.5 -33q55 0 111 21.5t108.5 55.5t97.5 75t78 82q72 88 116 196t44 223q0 12 -2.5 38t-5.5 53.5t-7 52t-10 35.5q-8 10 -18.5 17t-22.5 13.5t-41 15.5t-43 9h-14t-15 2q-6 2 -12 12.5t-11 23.5t-9 25.5t-7 18.5 q-16 43 -33.5 70.5t-68.5 27.5q-55 0 -97 -22.5t-85 -55.5q-41 -31 -82 -64.5t-78 -70.5q-43 -43 -84 -104.5t-72.5 -129t-52 -137t-20.5 -131.5zM307 293q0 16 14.5 52t34 76t40 74.5t30.5 47.5l70 80q6 6 22.5 25.5t26.5 19.5q12 0 15 -13.5t3 -23.5q0 -35 -14 -70 q-8 -16 -19.5 -33.5t-21.5 -33.5l-51 -86q-6 -10 -24.5 -32t-40 -44.5t-42 -40t-31.5 -17.5q-8 0 -10 6.5t-2 12.5z" />
<glyph unicode="p" horiz-adv-x="897" d="M-238 -182q0 -20 11.5 -49t21.5 -45q20 -39 40 -48.5t38 -9.5t37.5 -1t42.5 -21l22.5 -22.5t28.5 -10.5q25 0 39 17.5t24.5 40t15.5 47t11 40.5q8 23 18.5 45.5t20.5 44.5q25 59 49.5 115.5t50.5 114.5q2 4 8.5 15t10.5 11q8 0 16 -8t16.5 -19.5t15.5 -22.5t11 -17 q6 -10 16.5 -18.5t20.5 -14.5q14 -10 31.5 -18.5t34.5 -8.5q25 0 54.5 16.5t60 39t57 46t43.5 40.5q35 35 66.5 69.5t60.5 75.5q25 37 48 85t41.5 98.5t30 101.5t11.5 98q0 94 -42 178t-114 144q-14 10 -30.5 21t-36.5 11q-35 0 -71 -9t-71 -9q-14 0 -18 4t-15 14 q-18 18 -37.5 33t-37.5 31q-8 6 -15.5 15t-15.5 14q-16 10 -37 10q-25 0 -41 -13.5t-26.5 -34t-16.5 -43t-8 -40.5q-4 -27 -13.5 -33t-33.5 -16q-4 -2 -13.5 -6.5t-19.5 -9.5t-18.5 -10t-8.5 -11q0 -33 11.5 -62.5t11.5 -60.5q0 -4 -7 -24.5t-17.5 -43t-19.5 -44t-11 -29.5 q-41 -111 -89.5 -219.5t-101.5 -213.5q-27 -51 -53.5 -102t-44.5 -104q-10 -27 -18.5 -55.5t-22.5 -53.5q-6 -12 -14.5 -26.5t-8.5 -28.5zM348 334q0 14 16.5 43t22.5 43q4 10 15.5 36.5t23.5 58.5t23.5 61.5t15.5 46.5q8 31 18.5 53t46.5 22q16 0 35 -5t19 -25 q0 -10 -10.5 -37t-23.5 -55.5t-25.5 -53t-16.5 -33.5q-2 -2 -20.5 -27.5t-44 -55t-50 -54t-39.5 -24.5q-6 0 -6 6z" />
<glyph unicode="q" horiz-adv-x="858" d="M-59 258q0 -55 17 -92t56 -78q8 -8 25.5 -24.5t37 -33t39 -28.5t31.5 -12q29 0 63 18.5t56 18.5q6 0 8 -6.5t2 -10.5q0 -14 -10 -38.5t-14 -39.5q-6 -18 -16.5 -51t-19.5 -67.5t-16 -65.5t-7 -45q0 -35 25.5 -54.5t53.5 -33.5q18 -8 40 -19.5t44.5 -22.5t45 -18.5 t40.5 -7.5q41 0 55.5 15.5t20.5 54.5q6 45 13.5 83t14.5 75t17 75.5t23 81.5q18 63 38.5 126t43.5 126q39 106 79.5 214t92.5 208q6 12 16 31.5t21.5 40t18.5 40t7 32.5q2 2 2 8q0 23 -12 29t-25 22q-8 10 -14 19.5t-12 19.5q-16 25 -36 27t-38 2q-16 0 -29.5 5t-17.5 33 q-4 23 -6 40.5t-8.5 28.5t-19.5 17.5t-42 6.5q-23 0 -54.5 -10.5t-53.5 -18.5q-57 -20 -103.5 -35.5t-87.5 -35t-80 -46t-84 -67.5q-53 -49 -97 -111.5t-77 -133.5t-50 -145.5t-17 -146.5zM266 342q0 29 19 57q39 70 72.5 122t95.5 104q10 8 31.5 22.5t33.5 14.5q8 -1 8 -11 v-8t-4 -6q-6 -8 -20.5 -33.5t-29.5 -55.5t-29.5 -58.5t-18.5 -43.5q-2 -4 -8 -24.5t-8 -24.5q-6 -8 -22.5 -21.5t-37 -26.5t-39 -22.5t-30.5 -9.5q-8 0 -10.5 10.5t-2.5 14.5z" />
<glyph unicode="r" horiz-adv-x="659" d="M-63 197q0 -27 7 -50.5t17 -46.5q10 -29 25.5 -50t50.5 -21q4 0 9 1t9 1q27 0 45.5 -11.5t34 -24.5t27.5 -24.5t26 -11.5q27 0 41.5 29.5t22.5 52.5q14 35 26.5 69.5t26.5 69.5q16 43 31.5 85t32.5 85q12 33 25.5 66t23.5 67q8 27 14 47.5t17.5 34t30 20.5t48.5 7 q31 0 64 -15.5t43 -15.5q23 0 36 25.5t19 42.5q6 14 16.5 35.5t20.5 45t17.5 46.5t7.5 37q0 23 -5.5 47t-15.5 43q-4 8 -13 21.5t-19.5 25.5t-22.5 20t-25 8q-10 0 -31.5 -12t-43 -25.5t-41 -25.5t-27.5 -12q-4 0 -8 5t-6 9q-16 25 -43 39t-54 27q-16 8 -41.5 20t-44.5 12 q-12 0 -30.5 -6t-30.5 -10q-10 -4 -15.5 -22.5t-7.5 -28.5q-12 -74 -37.5 -143.5t-54.5 -139.5q-31 -72 -64.5 -158t-72.5 -157l-49 -92q-6 -10 -9 -19.5t-3 -21.5z" />
<glyph unicode="s" horiz-adv-x="804" d="M-70 215q0 -29 12.5 -53.5t31 -46t40 -40t41.5 -36.5q41 -35 74 -53.5t86 -18.5q51 0 102.5 15.5t99.5 42t90 59.5t79 68q29 27 49 51t33.5 50t19.5 56.5t6 71.5q0 82 -29.5 128t-66.5 72.5t-70.5 44t-44.5 44.5q2 12 13.5 21t26 17.5t28.5 13.5t22 9q2 2 7.5 5t9.5 3 q8 0 8 -16v-21q0 -41 14.5 -51t55.5 -10q37 0 77 10q16 4 41 13.5t37 21.5q6 6 13.5 22.5t13.5 35t10 36t4 27.5q2 10 2 18v19q0 31 -11 51t-34 41q-37 31 -91 52.5t-103 21.5q-57 0 -128 -23.5t-124 -46.5q-35 -14 -72 -34.5t-65 -47.5q-25 -23 -43.5 -55.5t-31.5 -69.5 t-20.5 -74.5t-7.5 -70.5q0 -31 3 -52.5t12.5 -39t24.5 -32.5t38 -36q16 -14 33.5 -24.5t36.5 -20.5q10 -4 28.5 -13.5t18.5 -25.5q-23 -35 -44.5 -43t-58.5 -16q-16 -4 -31.5 13t-27.5 39.5t-22.5 44t-16.5 26.5q-8 6 -17.5 8t-19.5 2q-47 0 -74.5 -34t-50.5 -69 q-23 -31 -30 -47t-7 -53z" />
<glyph unicode="t" horiz-adv-x="612" d="M-16 215q0 -47 16 -72.5t49 -58.5q12 -12 33.5 -32.5t47.5 -40t50.5 -35t40.5 -15.5q14 0 46 13.5t65 32t57.5 39t24.5 34.5q-2 4 -15.5 26.5t-31 52t-21.5 38.5q-4 10 -4 18v21q0 59 11.5 103t31.5 99q16 47 33.5 90t40.5 88q2 4 10 18.5t12 18.5t15 4h14h53q27 0 55 2 q20 2 30.5 6.5t21.5 22.5l22 47q14 29 20.5 44t6.5 48q0 16 -6 28.5t-11 27.5q-8 23 -13 44t-36 21h-20t-15 10q0 10 9.5 28t20.5 38t20.5 40.5t9.5 37.5q0 18 -19.5 30.5t-33.5 20.5q-16 8 -40 23.5t-49.5 29t-49 23.5t-42.5 10q-27 0 -45 -13.5t-31.5 -32.5t-23.5 -42 t-18 -43q-8 -18 -15.5 -36.5t-17.5 -35.5q-10 -18 -18.5 -36.5t-14.5 -38.5q-8 -29 -14 -40.5t-35 -21.5q-25 -10 -41 -14t-24.5 -12.5t-11.5 -23.5t-3 -44q0 -27 4 -51.5t4 -51.5q0 -14 -6 -29.5t-12 -27.5q-18 -39 -42 -95t-45.5 -117.5t-35.5 -119t-14 -98.5z" />
<glyph unicode="u" d="M-10 276q0 -33 16.5 -79.5t43 -90t61 -74t71.5 -30.5q31 0 65 17.5t63.5 38t52 38t30.5 17.5q4 0 7 -7.5t6 -11.5q6 -16 14 -26.5t16 -24.5q31 -16 54.5 -25.5t47 -17.5t50 -15.5t61.5 -17.5q23 -6 32 15.5t11 37.5q4 20 8.5 41t8.5 41l34 152q10 47 23.5 93t30.5 93 q14 41 27.5 81t29.5 81q6 12 18.5 42t24.5 62.5t22.5 63.5t10.5 49q0 35 -18.5 40t-45.5 13q-14 4 -35.5 31t-29.5 37l-19 23q-10 12 -37.5 16t-44.5 4q-18 0 -27 -6t-20 -23q-18 -27 -33.5 -59.5t-30 -68t-26.5 -70.5t-22 -66q-23 -61 -46.5 -123.5t-39.5 -128.5 q-6 -25 -11.5 -34t-27.5 -21q-4 -2 -12.5 -7t-18.5 -10.5t-19.5 -9.5t-11.5 -4q-8 0 -12 7.5t-4 13.5q0 10 3 22.5t7 22.5q10 29 17.5 56.5t17.5 55.5l19 48q18 47 41.5 103t42 105.5t18.5 55.5q0 20 -25.5 48t-59.5 54.5t-70 45t-54 18.5q-35 0 -52.5 -21.5t-29.5 -50.5 q-23 -53 -60.5 -139t-73.5 -181.5t-62.5 -186.5t-26.5 -153z" />
<glyph unicode="v" horiz-adv-x="780" d="M47 139q0 -31 14 -53q6 -10 17.5 -18.5t19.5 -16.5l39 -37q6 -6 23.5 -14t36 -15.5t37 -12.5t28.5 -5q35 0 64.5 26.5t52.5 51.5q27 29 52.5 59.5t51.5 59.5q29 35 59.5 68.5t59.5 68.5t53.5 77t46.5 81q37 63 75 126.5t57 135.5q4 14 8 29.5t4 29.5q0 23 -23.5 45.5 t-38.5 38.5q-4 4 -7 17.5t-5 19.5q-8 37 -25.5 46t-52.5 22q-16 6 -34.5 12t-36.5 6q-23 0 -37.5 -12t-23.5 -30.5t-14 -39t-9 -37.5q-23 -84 -60 -164.5t-69 -160.5q-2 -4 -8.5 -20.5t-14.5 -34t-16.5 -32t-12.5 -14.5t-6 9.5t-2 13.5q0 14 5 27.5t10 25.5q0 2 8 50 t17 105.5t17.5 105.5t8.5 52q0 27 -8.5 42.5t-22.5 25.5t-32.5 18.5t-39.5 18.5q-27 14 -43 24.5t-29.5 16.5t-30.5 9t-48 3q-41 0 -56.5 -7t-25.5 -48q-6 -25 -7 -59.5t-1 -73.5q0 -37 1 -74v-24q0 -23 -1 -41q-4 -49 -5 -97.5t-6 -97.5q-4 -59 -5 -115.5t-5 -115.5 q-2 -25 -3 -48.5t-1 -48.5z" />
<glyph unicode="w" horiz-adv-x="1204" d="M20 147q0 -16 6.5 -27t15.5 -18.5t20.5 -14.5t21.5 -15.5t18.5 -18.5t18.5 -20q18 -20 51 -33.5t61 -13.5q6 0 19 4q29 29 55.5 60.5t54.5 62.5q53 59 92.5 129.5t88.5 136.5q2 -23 2 -43v-43q0 -41 -5 -84t-5 -84q0 -49 27.5 -69.5t68.5 -43.5q25 -14 53.5 -29.5 t56.5 -15.5q37 0 57.5 28t37.5 56q23 37 47 74t49 72q66 98 123 200.5t123 202.5q23 33 50 79t27 87q0 43 -21.5 87t-49.5 77q-23 27 -46.5 40t-58.5 13q-14 0 -37.5 -3t-33.5 -13q-10 -8 -18.5 -21.5t-12.5 -25.5q-35 -80 -70 -159t-69 -157l-25 -61q-2 -4 -8 -15.5 t-10 -11.5q-6 0 -7.5 6t-1.5 10q0 16 3.5 34t7.5 34l30 184q4 16 6.5 35t2.5 35q0 25 -9.5 34t-25.5 25l-45 41q-14 12 -52 26.5t-59 14.5q-23 0 -36 -8t-20 -21.5t-13.5 -30.5t-12.5 -34q-10 -23 -19 -44t-20 -44q-10 -27 -21 -54.5t-25.5 -52t-31 -49t-32.5 -47.5 q-4 -6 -10.5 -18t-13.5 -25.5t-13 -24t-10 -10.5q-4 4 -5 11q0 16 5.5 34.5t9.5 34.5q4 23 12 60t15.5 76.5t13.5 75.5t6 59q0 29 -22.5 35t-41.5 18q-14 10 -25 21.5t-22 23.5q-23 25 -38 33t-50 8q-33 0 -55.5 -16.5t-48.5 -30.5q-10 -14 -14.5 -31.5t-6.5 -34.5 q-8 -72 -18 -143.5t-14 -142.5q-4 -45 -5.5 -91.5t-9.5 -91.5q-6 -35 -12 -71.5t-10 -71.5q-4 -23 -4 -47q0 -25 -2 -47q-2 -14 -3.5 -27.5t-1.5 -28.5z" />
<glyph unicode="x" horiz-adv-x="806" d="M-96 227q0 -45 28 -77q8 -8 16.5 -15.5t16.5 -13.5q29 -23 51 -55q14 -23 28.5 -43.5t43.5 -20.5q25 0 45.5 17.5t38.5 42t31.5 50t23.5 42.5q16 29 39 56.5t37 51.5q2 4 9 15.5t12 11.5q4 0 8 -10.5t6 -14.5q4 -14 5 -48t1 -71v-69v-41q0 -37 12.5 -54.5t53.5 -17.5 q6 0 19 1t26.5 4t26 7.5t18.5 8.5l41 36q20 18 45.5 22.5t49 7.5t40 12.5t16.5 33.5q0 20 -4 42t-8 42q-10 63 -21.5 119.5t-27.5 116.5q-4 18 -12.5 47t-8.5 47q0 10 10.5 22.5t23.5 23.5t27.5 20.5t20.5 15.5l90 72q6 6 23.5 18t34 26.5t30 30t13.5 25.5q0 20 -8.5 46 t-18.5 51.5t-23.5 50t-21.5 42.5q-10 18 -26.5 45t-41.5 27q-20 0 -46.5 -16.5t-52.5 -39t-47.5 -45t-33.5 -34.5q-16 -14 -33.5 -29.5t-35.5 -25.5q-4 0 -7.5 9t-7.5 21.5t-7 22.5t-3 14l-20 62q-12 35 -25.5 47t-48.5 22q-14 4 -27.5 6t-28.5 2q-23 0 -56.5 -17t-65 -43 t-54 -53.5t-22.5 -47.5q0 -8 3 -15.5t5 -15.5l21 -76q4 -16 15 -34.5t22.5 -39t19.5 -39t8 -34.5q0 -10 -9 -23.5t-21.5 -27t-26 -24.5t-19.5 -17q-41 -41 -77.5 -84t-75.5 -86q-18 -20 -36 -43t-32 -46q-14 -20 -14 -49z" />
<glyph unicode="y" horiz-adv-x="811" d="M-199 -260q0 -31 26 -56.5t44 -45.5q10 -10 17.5 -21.5t13.5 -22.5q23 -37 40 -52t62 -15q29 0 58.5 17.5t57 42t51.5 51t42 47.5l158 172q35 39 83 105.5t101 149.5t104.5 175t92.5 181t66.5 168t25.5 134q0 45 -17.5 85t-47 70.5t-69.5 49t-85 18.5q-25 0 -31 -12 t-12 -35q-18 -59 -37 -120.5t-41 -120.5q-27 -76 -72 -154q-14 -25 -28.5 -50.5t-22.5 -54.5q-4 -10 -8 -21t-15 -19h-4q-4 4 -4 14q0 16 4 33.5t8 33.5q8 49 17.5 97.5t26.5 95.5q10 29 22 64.5t12 66.5t-26 53q-16 14 -36 25.5t-36 21.5q-12 8 -31.5 20.5t-40 25t-41 20.5 t-36.5 8q-10 0 -36 -10t-36 -19q-12 -10 -18.5 -31.5t-10.5 -35.5q-27 -113 -41 -224.5t-18 -228.5q-2 -29 -2 -59q0 -31 -4 -60q-4 -23 -8.5 -50t-4.5 -50q0 -35 17.5 -58.5t39 -42t39 -31.5t17.5 -24q0 -16 -15.5 -38.5t-37 -46t-43 -43t-33.5 -27.5q-23 -18 -39 -29.5 t-30.5 -19t-32 -14.5t-43.5 -19q-8 -4 -22.5 -12.5t-18.5 -16.5q-6 -10 -8.5 -26.5t-2.5 -28.5z" />
<glyph unicode="z" horiz-adv-x="811" d="M-92 203q0 -14 5 -39t12 -50.5t14.5 -49t13.5 -37.5q20 -53 74 -54q37 0 70.5 10.5t68.5 18.5q55 12 110 12q78 2 153 3t153 1q47 0 64.5 17.5t33.5 58.5q8 16 22.5 50t14.5 51q0 16 -13.5 43.5t-23.5 40.5q-12 16 -24.5 24t-34.5 8q-14 0 -27.5 -2t-28.5 -4 q-29 -4 -54.5 -3t-53.5 -5q-16 -4 -25 -4q-4 0 -4 6t8 14.5t18.5 17.5t20.5 15t14 10q23 16 45.5 41l40.5 45q41 43 89.5 98.5t95.5 96.5q23 20 52.5 43.5t29.5 58.5q0 18 -9.5 43t-21.5 49.5t-25.5 47t-23.5 39.5q-10 18 -18.5 28t-17.5 16.5t-22.5 8.5t-33.5 2h-47 q-86 0 -169 -11.5t-169 -19.5q-25 -2 -53.5 -5t-52 -12.5t-40 -27.5t-16.5 -51q0 -16 2 -40t5 -48.5t7 -47t10 -36.5q8 -20 27 -33.5t41 -13.5q14 0 34.5 8t41 18.5t42 18.5t40.5 8q4 0 12 -4q0 -8 -27.5 -34t-61.5 -54.5t-64.5 -53t-38.5 -30.5q-63 -49 -126 -99.5 t-116 -111.5q-16 -20 -29.5 -42t-13.5 -48z" />
<glyph unicode="&#xa1;" horiz-adv-x="552" d="M25 166q0 -29 7 -50.5t29 -43.5q4 -4 14.5 -12.5t14.5 -10.5q14 -4 22.5 -6t13.5 -4t11 -6t19 -13q27 -18 48 -34.5t56 -16.5q29 0 48.5 19.5t29.5 46.5q31 88 55.5 176t52.5 176q31 92 68 179t74 177q0 2 6 16.5t6 16.5q0 14 -10 29.5t-23.5 31t-29 28t-25.5 22.5 q-29 29 -49.5 42t-59.5 25q-8 4 -20 7.5t-21 3.5q-10 0 -19 -11.5t-17.5 -27t-14.5 -30.5t-8 -22q-49 -121 -103.5 -237.5t-95.5 -241.5q-10 -33 -21 -66.5t-26 -64.5q-10 -23 -21 -47t-11 -51zM385 1120q0 -35 22.5 -55.5t49.5 -40.5q12 -10 29.5 -22.5t38 -23.5t41 -19.5 t36.5 -8.5q27 0 43.5 21.5t22.5 44.5q10 29 18 52.5t25 47.5q12 18 27.5 40.5t15.5 47.5q0 35 -23.5 50.5t-50.5 29.5q-18 10 -38.5 25.5l-41 31t-41 26.5t-39.5 11q-12 0 -25.5 -3t-23.5 -13q-4 -4 -9 -14.5t-11.5 -22.5t-11.5 -24.5t-7 -16.5q-18 -39 -32.5 -74.5 t-14.5 -81.5v-8z" />
<glyph unicode="&#xa2;" horiz-adv-x="858" d="M78 498q0 -59 24.5 -125t69.5 -107l39 -35q10 -10 10 -22q0 -18 -9 -45t-20.5 -54.5t-20.5 -55t-9 -46.5q0 -35 23.5 -41t50.5 -6q43 0 65.5 29.5t38.5 66.5t33.5 70t50.5 39l76 16q33 6 70.5 22.5t70.5 41t56.5 56.5t29.5 69l12 86l-10 24q-16 14 -36.5 38t-41.5 24 q-23 0 -40 -11.5t-34.5 -25.5t-36 -25.5t-42.5 -11.5q-35 0 -56.5 14.5t-21.5 53.5q0 29 23.5 85t57.5 113.5t71.5 99.5t66.5 42q8 0 11 -6.5t3 -12.5q0 -4 -6 -17.5t-13 -29.5t-13.5 -32.5t-6.5 -26.5q0 -12 11 -19q10 -4 27.5 -12t36 -16.5t34.5 -13.5t29 -5 q29 0 63.5 24.5t52.5 43.5q41 43 49.5 90t8.5 104q0 49 -30 91t-71 65q-23 10 -22 26q0 12 8 28t12 28q2 6 6.5 21.5t9.5 32.5t8 32.5t3 23.5q0 16 -8 23.5t-19.5 10.5t-23.5 3t-23 2q-12 4 -20 4q-14 0 -30.5 -20.5t-32 -46t-28 -51t-16.5 -33.5q-8 -16 -15 -19.5t-24 -7.5 q-104 -25 -200.5 -91t-170 -156.5t-117.5 -198t-44 -217.5z" />
<glyph unicode="&#xa3;" horiz-adv-x="1421" d="M57 100q0 -35 10.5 -52t29 -25.5t43 -10.5t53.5 -4q84 -4 166.5 -8t166.5 -4q92 0 182.5 6t182.5 10q51 4 100 7.5t99 11.5q35 6 47 12t28 39q6 14 18.5 39.5t25 53.5t20.5 53.5t8 41.5q0 27 -26.5 44.5t-49.5 17.5q-14 0 -26.5 -4t-24.5 -9q-47 -18 -95 -29t-100 -20 q-45 -8 -87 -11t-87 -5q-23 -2 -45 -5t-45 -3q-14 0 -14 8q0 10 8 22q20 33 37.5 64t32.5 66q4 14 16 40.5t31 26.5q8 0 14 -1t15 -1q12 -2 50 2t81 9t78.5 12.5t41.5 11.5q10 8 23.5 33.5t21.5 38.5q10 14 25.5 38.5t15.5 40.5t-10 28.5t-20 23.5q-12 35 -22.5 46t-49.5 11 t-76 -9t-76 -9h-12t-8 8t9 30.5t20.5 48t23 47t15.5 31.5q23 45 57.5 71t77.5 48q14 8 37.5 20.5t38.5 14.5q-8 -14 -12.5 -27.5t-14.5 -25.5q-8 -10 -25.5 -34t-17.5 -36q0 -14 9 -24.5t21.5 -17.5t27 -12t24.5 -9q37 -14 72.5 -27.5t76.5 -13.5q23 0 29 7t16 27 q23 25 45.5 59t40 72.5t27.5 76.5t10 73q0 57 -20.5 101t-56 74t-83 45.5t-100.5 15.5q-117 0 -226.5 -50.5t-187.5 -134.5q-37 -39 -76.5 -94t-75.5 -115.5t-64.5 -122t-43.5 -112.5q-8 -25 -15 -29t-32 -4q-76 0 -155 6q-8 0 -29 -8t-29 -12q-47 -20 -82.5 -68.5 t-35.5 -101.5q0 -41 15 -64.5t60 -23.5q33 0 63.5 1t63.5 3q14 0 28.5 3t27.5 3q4 0 15 1t11 -7q0 -12 -13 -44t-30.5 -67t-34 -61.5t-20.5 -26.5q-35 0 -74 9.5t-72 9.5q-12 0 -32.5 -17.5t-40 -42t-34.5 -48t-20 -36.5q-6 -18 -6 -37z" />
<glyph unicode="&#xab;" horiz-adv-x="989" d="M23 520q0 -49 23.5 -101t45.5 -95q16 -35 33.5 -71t36.5 -71q16 -29 33.5 -46t52.5 -17q27 0 52.5 8t47.5 18q29 12 50.5 30t21.5 52q0 14 -18.5 51t-42 80t-42 81t-18.5 57q0 20 30.5 58t71.5 77t82 73.5t62 51.5q18 16 35.5 31t17.5 42q0 12 -9 28.5t-21.5 33t-27 30 t-24.5 19.5q-14 8 -31 8q-20 0 -45.5 -12t-50 -30.5t-47.5 -37t-37 -30.5q-20 -18 -61 -52t-85 -73t-81 -79t-49 -69q-4 -10 -5 -22.5t-1 -22.5zM444 520q0 -49 24 -101t46 -95q16 -35 33.5 -71t36.5 -71q16 -29 33.5 -46t52.5 -17q27 0 52.5 8t47.5 18q29 12 50.5 30 t21.5 52q0 14 -18.5 51t-42 80t-42 81t-18.5 57q0 20 30.5 58t71.5 77t82 73.5t62 51.5q18 16 35.5 31t17.5 42q0 12 -9.5 28.5t-21.5 33t-26.5 30t-24.5 19.5q-14 8 -31 8q-20 0 -45.5 -12t-50.5 -30.5t-47.5 -37t-36.5 -30.5q-20 -18 -62 -52t-85 -74t-80 -79t-49 -68 q-4 -10 -5.5 -22.5t-1.5 -22.5z" />
<glyph unicode="&#xad;" horiz-adv-x="542" d="M-20 412q0 -23 15 -36.5t36 -13.5q86 0 173 -1t173 -3q37 0 60.5 9.5t41 26t29.5 41t29 52.5q10 16 24 44.5t14 48.5q0 29 -25.5 35t-47.5 6h-197q-16 0 -31.5 -2.5t-31.5 -2.5q-25 0 -49.5 1t-49.5 4q-41 2 -72.5 -25t-47.5 -61q-4 -10 -11.5 -26.5t-14.5 -35t-12 -35 t-5 -26.5z" />
<glyph unicode="&#xb7;" horiz-adv-x="423" d="M68 627q0 -27 16 -51.5t39.5 -45t49.5 -38t44.5 -29.5t48 -29.5t51.5 -17.5q39 0 60.5 31.5t34.5 62.5l24 63q6 14 18.5 35t25 44.5t22.5 45t10 35.5q0 18 -11.5 31.5t-26.5 25t-32.5 18.5t-31.5 13q-20 10 -40 20.5t-36 24.5q-23 18 -48.5 41t-58.5 23q-41 0 -58 -24.5 t-32 -57.5q-2 -4 -6 -14.5t-9 -22.5t-10.5 -22.5t-7.5 -12.5q-10 -27 -23 -74t-13 -75z" />
<glyph unicode="&#xbb;" horiz-adv-x="989" d="M-31 238q0 -12 9.5 -28.5t21.5 -32t26.5 -30t24.5 -20.5q14 -8 31 -8q20 0 46 12t50.5 30.5t47 37t36.5 30.5q20 18 62.5 51t86.5 73t79.5 79t48.5 70q4 10 5 22.5t1 22.5q0 31 -15.5 77t-38 94t-46 93t-39.5 74q-14 27 -33 45t-51 18q-25 0 -51.5 -8t-49.5 -18 q-31 -14 -51 -29.5t-20 -52.5q0 -16 18 -53t40.5 -78t41 -79t18.5 -59q0 -20 -30.5 -57t-71.5 -77t-81 -74.5t-60 -51.5l-36 -31.5t-20 -41.5zM391 238q0 -12 9.5 -28.5t21.5 -32t26.5 -30t24.5 -20.5q14 -8 31 -8q20 0 45.5 12t50.5 30.5t47.5 37t36.5 30.5q20 18 62 51 t86.5 73t80 79t48.5 70q4 10 5 22.5t1 22.5q0 31 -15.5 77t-38 94t-46 93t-40.5 74q-14 27 -32.5 45t-51.5 18q-25 0 -51 -8t-49 -18q-31 -14 -51.5 -29.5t-20.5 -52.5q0 -16 18.5 -53t41 -78t41 -79t18.5 -59q0 -20 -30.5 -57t-71.5 -77t-81 -74.5t-61 -51.5 q-16 -14 -35.5 -31.5t-19.5 -41.5z" />
<glyph unicode="&#xbf;" horiz-adv-x="825" d="M70 274q0 -63 24.5 -121.5t65.5 -102.5t97 -70.5t122 -26.5q68 0 133 12q25 4 63.5 16.5t76.5 31t64.5 44t26.5 58.5q0 25 -10 59.5t-28.5 65t-43 53t-53.5 22.5q-16 0 -47 -8t-63.5 -19.5t-63.5 -22.5t-47 -17q18 41 52 92t75 107.5t82 113.5t76 111.5t56.5 103.5 t21.5 86q0 53 -32 91t-75 65q-16 10 -39.5 21.5t-42.5 11.5q-31 0 -66.5 -17.5t-60.5 -34.5q-43 -27 -83 -62.5t-40 -90.5q0 -31 21.5 -52.5t50.5 -29.5q-6 -10 -27.5 -34.5t-48 -52.5t-51.5 -53.5t-35 -35.5q-59 -63 -105 -143t-46 -171zM532 1255q0 -35 19.5 -52t46.5 -36 q12 -8 34.5 -27.5t47.5 -39t46.5 -33.5t31.5 -14q25 0 34 22.5t17 40.5q12 31 25.5 62.5t13.5 66.5q0 39 -14.5 77t-41 68.5t-61.5 50t-76 19.5q-27 0 -43 -9t-26.5 -25.5t-17.5 -37t-13 -40.5q-4 -16 -13.5 -46t-9.5 -47z" />
<glyph unicode="&#xc0;" horiz-adv-x="966" d="M-29 231q0 -29 17.5 -47t29.5 -41q14 -29 22.5 -46t20 -28.5t27.5 -20.5t47 -17q2 0 11.5 -3t18.5 -6.5t17 -5.5t11 -2q31 0 51 27t35.5 61.5t25.5 71.5t20.5 57.5t18.5 40t18 41.5q6 16 15.5 22.5t19 7.5t20.5 2t21 7l19 10h28h35t23 -20q0 -6 -4 -18.5t-7 -18.5 q-4 -20 -8 -31q-4 -12 -15 -32.5t-21.5 -43t-18.5 -43t-8 -32.5q0 -45 43 -62q14 -4 26.5 -11t22.5 -17q23 -23 54.5 -51.5t66.5 -28.5l2 -2q39 4 72.5 21.5t44.5 58.5q18 70 38.5 138.5t40.5 137.5q18 59 32 122t28 124q16 78 32.5 153.5t30.5 153.5q6 35 15.5 75t9.5 77 q0 10 -3 19t-7 20q-6 18 -19.5 32.5t-29 25.5t-26.5 20.5t-11 17.5q0 2 6 11t14 20.5t14.5 23.5t6.5 23q0 14 -8.5 22t-18.5 19q-18 14 -28.5 23t-19.5 16.5t-20.5 12.5t-31.5 15q-23 10 -49.5 33t-49.5 23q-10 0 -18 -1.5t-16 -5.5q-10 -4 -26.5 -20t-33 -34.5t-32 -37 t-23.5 -26.5q-8 -10 -40 -46t-68 -78t-67.5 -83t-39.5 -60q-4 -10 -8.5 -19t-10.5 -17q-27 -31 -45 -64t-39 -68q-23 -39 -49 -74.5t-43 -76.5l-12 -31q-8 -23 -29.5 -32t-43 -17t-38 -20.5t-16.5 -36.5q0 -29 7 -57.5t7 -57.5q0 -6 -7 -20.5t-16 -31t-17.5 -32.5t-12.5 -25 q-10 -20 -20.5 -41.5t-10.5 -44.5zM508 655q0 2 21.5 47.5t51 98.5t61.5 97t52 44q8 0 11.5 -8t3.5 -14q0 -10 -4 -31q-2 -2 -8.5 -28.5t-13.5 -59.5t-15.5 -62.5t-14.5 -36.5q-8 -33 -17 -47t-22.5 -19t-34 -3t-51.5 0q-10 0 -15 7t-5 15zM692 1677q0 -16 17.5 -39.5 t42 -48t48 -47t36.5 -39.5l43 -55q12 -16 38.5 -37.5t47.5 -21.5q16 0 34.5 2t34.5 8q16 4 17.5 12.5t1.5 24.5q0 29 -2 50t-5.5 41.5t-7.5 41t-10 49.5q-4 23 -8 46.5t-8 45.5q-6 35 -23.5 51.5t-52.5 16.5q-29 0 -56.5 -8.5t-54.5 -16.5q-12 -4 -33.5 -10t-44 -15.5 t-39 -21.5t-16.5 -29z" />
<glyph unicode="&#xc1;" horiz-adv-x="966" d="M-29 231q0 -29 17.5 -47t29.5 -41q14 -29 22.5 -46t20 -28.5t27.5 -20.5t47 -17q2 0 11.5 -3t18.5 -6.5t17 -5.5t11 -2q31 0 51 27t35.5 61.5t25.5 71.5t20.5 57.5t18.5 40t18 41.5q6 16 15.5 22.5t19 7.5t20.5 2t21 7l19 10h28h35t23 -20q0 -6 -4 -18.5t-7 -18.5 q-4 -20 -8 -31q-4 -12 -15 -32.5t-21.5 -43t-18.5 -43t-8 -32.5q0 -45 43 -62q14 -4 26.5 -11t22.5 -17q23 -23 54.5 -51.5t66.5 -28.5l2 -2q39 4 72.5 21.5t44.5 58.5q18 70 38.5 138.5t40.5 137.5q18 59 32 122t28 124q16 78 32.5 153.5t30.5 153.5q6 35 15.5 75t9.5 77 q0 10 -3 19t-7 20q-6 18 -19.5 32.5t-29 25.5t-26.5 20.5t-11 17.5q0 2 6 11t14 20.5t14.5 23.5t6.5 23q0 14 -8.5 22t-18.5 19q-18 14 -28.5 23t-19.5 16.5t-20.5 12.5t-31.5 15q-23 10 -49.5 33t-49.5 23q-10 0 -18 -1.5t-16 -5.5q-10 -4 -26.5 -20t-33 -34.5t-32 -37 t-23.5 -26.5q-8 -10 -40 -46t-68 -78t-67.5 -83t-39.5 -60q-4 -10 -8.5 -19t-10.5 -17q-27 -31 -45 -64t-39 -68q-23 -39 -49 -74.5t-43 -76.5l-12 -31q-8 -23 -29.5 -32t-43 -17t-38 -20.5t-16.5 -36.5q0 -29 7 -57.5t7 -57.5q0 -6 -7 -20.5t-16 -31t-17.5 -32.5t-12.5 -25 q-10 -20 -20.5 -41.5t-10.5 -44.5zM508 655q0 2 21.5 47.5t51 98.5t61.5 97t52 44q8 0 11.5 -8t3.5 -14q0 -10 -4 -31q-2 -2 -8.5 -28.5t-13.5 -59.5t-15.5 -62.5t-14.5 -36.5q-8 -33 -17 -47t-22.5 -19t-34 -3t-51.5 0q-10 0 -15 7t-5 15zM817 1493q0 -23 25.5 -30t42.5 -7 q31 0 60.5 12.5t58.5 24.5q66 29 130 57.5t130 59.5q16 8 38.5 22t22.5 37q0 12 -18.5 27.5t-43 31t-47 27.5t-30.5 17q-35 20 -74 20q-35 0 -50 -11.5t-38 -35.5q-10 -12 -44 -49t-70 -79t-64.5 -78t-28.5 -46z" />
<glyph unicode="&#xc2;" horiz-adv-x="966" d="M-29 231q0 -29 17.5 -47t29.5 -41q14 -29 22.5 -46t20 -28.5t27.5 -20.5t47 -17q2 0 11.5 -3t18.5 -6.5t17 -5.5t11 -2q31 0 51 27t35.5 61.5t25.5 71.5t20.5 57.5t18.5 40t18 41.5q6 16 15.5 22.5t19 7.5t20.5 2t21 7l19 10h28h35t23 -20q0 -6 -4 -18.5t-7 -18.5 q-4 -20 -8 -31q-4 -12 -15 -32.5t-21.5 -43t-18.5 -43t-8 -32.5q0 -45 43 -62q14 -4 26.5 -11t22.5 -17q23 -23 54.5 -51.5t66.5 -28.5l2 -2q39 4 72.5 21.5t44.5 58.5q18 70 38.5 138.5t40.5 137.5q18 59 32 122t28 124q16 78 32.5 153.5t30.5 153.5q6 35 15.5 75t9.5 77 q0 10 -3 19t-7 20q-6 18 -19.5 32.5t-29 25.5t-26.5 20.5t-11 17.5q0 2 6 11t14 20.5t14.5 23.5t6.5 23q0 14 -8.5 22t-18.5 19q-18 14 -28.5 23t-19.5 16.5t-20.5 12.5t-31.5 15q-23 10 -49.5 33t-49.5 23q-10 0 -18 -1.5t-16 -5.5q-10 -4 -26.5 -20t-33 -34.5t-32 -37 t-23.5 -26.5q-8 -10 -40 -46t-68 -78t-67.5 -83t-39.5 -60q-4 -10 -8.5 -19t-10.5 -17q-27 -31 -45 -64t-39 -68q-23 -39 -49 -74.5t-43 -76.5l-12 -31q-8 -23 -29.5 -32t-43 -17t-38 -20.5t-16.5 -36.5q0 -29 7 -57.5t7 -57.5q0 -6 -7 -20.5t-16 -31t-17.5 -32.5t-12.5 -25 q-10 -20 -20.5 -41.5t-10.5 -44.5zM508 655q0 2 21.5 47.5t51 98.5t61.5 97t52 44q8 0 11.5 -8t3.5 -14q0 -10 -4 -31q-2 -2 -8.5 -28.5t-13.5 -59.5t-15.5 -62.5t-14.5 -36.5q-8 -33 -17 -47t-22.5 -19t-34 -3t-51.5 0q-10 0 -15 7t-5 15zM575 1552q0 -14 9.5 -24t24 -16.5 t29.5 -9.5t26 -3q25 0 56.5 10.5t64 24.5t62.5 29.5t48 25.5q14 -16 28.5 -30.5t24.5 -30.5q8 -12 18.5 -28.5t24 -32t28.5 -25.5t32 -10q16 0 31.5 5t31.5 9l80 16q12 2 19.5 3t12.5 3t9 7.5t12 15.5q10 11 10 25q0 12 -17 38.5t-39.5 56t-44 54.5t-30.5 35 q-20 25 -36.5 47t-35 39.5t-43 29t-57.5 11.5q-29 0 -44 -7.5t-38 -23.5l-77 -57q-6 -4 -42 -28.5t-75 -54.5t-71 -59.5t-32 -44.5z" />
<glyph unicode="&#xc3;" horiz-adv-x="966" d="M-29 231q0 -29 17.5 -47t29.5 -41q14 -29 22.5 -46t20 -28.5t27.5 -20.5t47 -17q2 0 11.5 -3t18.5 -6.5t17 -5.5t11 -2q31 0 51 27t35.5 61.5t25.5 71.5t20.5 57.5t18.5 40t18 41.5q6 16 15.5 22.5t19 7.5t20.5 2t21 7l19 10h28h35t23 -20q0 -6 -4 -18.5t-7 -18.5 q-4 -20 -8 -31q-4 -12 -15 -32.5t-21.5 -43t-18.5 -43t-8 -32.5q0 -45 43 -62q14 -4 26.5 -11t22.5 -17q23 -23 54.5 -51.5t66.5 -28.5l2 -2q39 4 72.5 21.5t44.5 58.5q18 70 38.5 138.5t40.5 137.5q18 59 32 122t28 124q16 78 32.5 153.5t30.5 153.5q6 35 15.5 75t9.5 77 q0 10 -3 19t-7 20q-6 18 -19.5 32.5t-29 25.5t-26.5 20.5t-11 17.5q0 2 6 11t14 20.5t14.5 23.5t6.5 23q0 14 -8.5 22t-18.5 19q-18 14 -28.5 23t-19.5 16.5t-20.5 12.5t-31.5 15q-23 10 -49.5 33t-49.5 23q-10 0 -18 -1.5t-16 -5.5q-10 -4 -26.5 -20t-33 -34.5t-32 -37 t-23.5 -26.5q-8 -10 -40 -46t-68 -78t-67.5 -83t-39.5 -60q-4 -10 -8.5 -19t-10.5 -17q-27 -31 -45 -64t-39 -68q-23 -39 -49 -74.5t-43 -76.5l-12 -31q-8 -23 -29.5 -32t-43 -17t-38 -20.5t-16.5 -36.5q0 -29 7 -57.5t7 -57.5q0 -6 -7 -20.5t-16 -31t-17.5 -32.5t-12.5 -25 q-10 -20 -20.5 -41.5t-10.5 -44.5zM508 655q0 2 21.5 47.5t51 98.5t61.5 97t52 44q8 0 11.5 -8t3.5 -14q0 -10 -4 -31q-2 -2 -8.5 -28.5t-13.5 -59.5t-15.5 -62.5t-14.5 -36.5q-8 -33 -17 -47t-22.5 -19t-34 -3t-51.5 0q-10 0 -15 7t-5 15zM565 1612q0 -25 26.5 -53.5 t43.5 -45.5q8 -10 24 -10q18 0 34 10.5t28 21.5t21.5 21.5t15.5 10.5q10 0 30.5 -17.5t51 -39t72.5 -39t96 -17.5q80 0 145 41q14 8 34.5 21.5t40 30t33 34t13.5 33.5t-20.5 39.5t-31 36t-21.5 22.5t-27 10q-14 0 -31 -8t-30 -17t-24.5 -17.5t-15.5 -8.5t-23.5 16.5t-52 35 t-76.5 35t-94 16.5q-119 0 -211 -86q-14 -14 -32.5 -34t-18.5 -42z" />
<glyph unicode="&#xc4;" horiz-adv-x="966" d="M-29 231q0 -29 17.5 -47t29.5 -41q14 -29 22.5 -46t20 -28.5t27.5 -20.5t47 -17q2 0 11.5 -3t18.5 -6.5t17 -5.5t11 -2q31 0 51 27t35.5 61.5t25.5 71.5t20.5 57.5t18.5 40t18 41.5q6 16 15.5 22.5t19 7.5t20.5 2t21 7l19 10h28h35t23 -20q0 -6 -4 -18.5t-7 -18.5 q-4 -20 -8 -31q-4 -12 -15 -32.5t-21.5 -43t-18.5 -43t-8 -32.5q0 -45 43 -62q14 -4 26.5 -11t22.5 -17q23 -23 54.5 -51.5t66.5 -28.5l2 -2q39 4 72.5 21.5t44.5 58.5q18 70 38.5 138.5t40.5 137.5q18 59 32 122t28 124q16 78 32.5 153.5t30.5 153.5q6 35 15.5 75t9.5 77 q0 10 -3 19t-7 20q-6 18 -19.5 32.5t-29 25.5t-26.5 20.5t-11 17.5q0 2 6 11t14 20.5t14.5 23.5t6.5 23q0 14 -8.5 22t-18.5 19q-18 14 -28.5 23t-19.5 16.5t-20.5 12.5t-31.5 15q-23 10 -49.5 33t-49.5 23q-10 0 -18 -1.5t-16 -5.5q-10 -4 -26.5 -20t-33 -34.5t-32 -37 t-23.5 -26.5q-8 -10 -40 -46t-68 -78t-67.5 -83t-39.5 -60q-4 -10 -8.5 -19t-10.5 -17q-27 -31 -45 -64t-39 -68q-23 -39 -49 -74.5t-43 -76.5l-12 -31q-8 -23 -29.5 -32t-43 -17t-38 -20.5t-16.5 -36.5q0 -29 7 -57.5t7 -57.5q0 -6 -7 -20.5t-16 -31t-17.5 -32.5t-12.5 -25 q-10 -20 -20.5 -41.5t-10.5 -44.5zM508 655q0 2 21.5 47.5t51 98.5t61.5 97t52 44q8 0 11.5 -8t3.5 -14q0 -10 -4 -31q-2 -2 -8.5 -28.5t-13.5 -59.5t-15.5 -62.5t-14.5 -36.5q-8 -33 -17 -47t-22.5 -19t-34 -3t-51.5 0q-10 0 -15 7t-5 15zM604 1606q0 -25 13.5 -52.5 t34 -50t46 -38t52.5 -15.5q16 0 33.5 8t27.5 18.5t16.5 22.5t12.5 25q16 29 42.5 73.5t26.5 79.5q0 31 -15 51.5t-38 38.5q-6 6 -20.5 16.5t-31 19.5t-32.5 16.5t-24 7.5h-9q-29 0 -53 -25.5t-42.5 -61.5t-29 -74t-10.5 -60zM961 1513q0 -29 12 -55t31.5 -46.5t46 -34 t55.5 -13.5q27 0 50.5 12.5t35.5 36.5q4 8 16.5 32.5t24.5 53.5t22.5 54.5t10.5 33.5q0 20 -19.5 45t-45 46.5t-54.5 37t-47 15.5q-14 0 -31.5 -5.5t-28 -15.5t-25 -35.5t-26.5 -56.5t-20 -60.5t-8 -44.5z" />
<glyph unicode="&#xc5;" horiz-adv-x="966" d="M-29 231q0 -29 17.5 -47t29.5 -41q14 -29 22.5 -46t20 -28.5t27.5 -20.5t47 -17q2 0 11.5 -3t18.5 -6.5t17 -5.5t11 -2q31 0 51 27t35.5 61.5t25.5 71.5t20.5 57.5t18.5 40t18 41.5q6 16 15.5 22.5t19 7.5t20.5 2t21 7l19 10h28h35t23 -20q0 -6 -4 -18.5t-7 -18.5 q-4 -20 -8 -31q-4 -12 -15 -32.5t-21.5 -43t-18.5 -43t-8 -32.5q0 -45 43 -62q14 -4 26.5 -11t22.5 -17q23 -23 54.5 -51.5t66.5 -28.5l2 -2q39 4 72.5 21.5t44.5 58.5q18 70 38.5 138.5t40.5 137.5q18 59 32 122t28 124q16 78 32.5 153.5t30.5 153.5q6 35 15.5 75t9.5 77 q0 10 -3 19t-7 20q-6 18 -19.5 32.5t-29 25.5t-26.5 20.5t-11 17.5q0 2 6 11t14 20.5t14.5 23.5t6.5 23q0 14 -8.5 22t-18.5 19q-18 14 -28.5 23t-19.5 16.5t-20.5 12.5t-31.5 15q-23 10 -49.5 33t-49.5 23q-10 0 -18 -1.5t-16 -5.5q-10 -4 -26.5 -20t-33 -34.5t-32 -37 t-23.5 -26.5q-8 -10 -40 -46t-68 -78t-67.5 -83t-39.5 -60q-4 -10 -8.5 -19t-10.5 -17q-27 -31 -45 -64t-39 -68q-23 -39 -49 -74.5t-43 -76.5l-12 -31q-8 -23 -29.5 -32t-43 -17t-38 -20.5t-16.5 -36.5q0 -29 7 -57.5t7 -57.5q0 -6 -7 -20.5t-16 -31t-17.5 -32.5t-12.5 -25 q-10 -20 -20.5 -41.5t-10.5 -44.5zM508 655q0 2 21.5 47.5t51 98.5t61.5 97t52 44q8 0 11.5 -8t3.5 -14q0 -10 -4 -31q-2 -2 -8.5 -28.5t-13.5 -59.5t-15.5 -62.5t-14.5 -36.5q-8 -33 -17 -47t-22.5 -19t-34 -3t-51.5 0q-10 0 -15 7t-5 15zM725 1614q0 -23 13.5 -52.5 t21.5 -50.5q14 -35 37.5 -56t52.5 -31.5t61.5 -13.5t67.5 -3q43 0 85 29.5t66 64.5q4 6 14.5 22.5t21 34t17.5 33t7 23.5q0 27 -1 43t-4 30.5t-9.5 31t-18.5 40.5q-23 47 -44 77t-79 38l-76 10h-10q-59 0 -102 -41t-70 -88q-18 -33 -34.5 -68.5t-16.5 -72.5zM901 1632 q0 27 14.5 52.5t45.5 25.5t46 -22.5t15 -51.5q0 -16 -15.5 -42.5t-35.5 -26.5q-27 0 -48.5 18.5t-21.5 46.5z" />
<glyph unicode="&#xc6;" horiz-adv-x="1482" d="M-25 254q0 -23 14.5 -43.5t24.5 -38.5l37 -68q20 -37 66.5 -56t87.5 -19q14 0 27.5 12t23.5 29.5t18.5 36t14.5 28.5q12 27 24.5 51.5t24.5 51.5q8 18 15 35.5t16 35.5q10 27 20 32t39 13q10 2 25.5 6.5t25.5 4.5h19q14 0 29.5 -1.5t27.5 -4.5t12 -9q0 -23 -17.5 -58.5 t-17.5 -78.5q0 -59 33 -92t74 -72q20 -20 32.5 -35.5t25 -27t29.5 -16.5t46 -5q47 0 96.5 6t96.5 11q43 4 104 9t102 11q12 2 24.5 6t25.5 8q6 12 13 23.5t15 21.5q16 20 18.5 43t12.5 46q16 29 25 57q-2 10 -5.5 25.5t-9.5 28.5t-16 22.5t-25 9.5q-23 0 -41 -6 q-29 -8 -59 -8h-57q-27 0 -52.5 3t-50.5 3q-10 0 -18 -4.5t-19 -4.5q-12 0 -12 17q0 6 1 11t3 11q12 33 23.5 65t27.5 62q8 16 16.5 29.5t14.5 30.5q2 4 7 15t9 15q6 4 34 6.5t59 2.5h61h39t18.5 1t18.5 1q12 0 24.5 -2t24.5 -4q29 -4 50.5 8t36.5 33.5t23.5 48t8.5 51.5 q0 37 -10 82q-10 35 -30 41t-54 10q-12 2 -27.5 5t-28.5 3q-16 0 -33.5 -1t-33.5 -3q-4 0 -18.5 2t-14.5 10q0 6 6 18.5t14.5 27t15.5 26.5t9 16q8 12 17.5 22.5t17.5 23.5q2 6 9 19t15.5 26.5t16.5 25.5t16 15q10 4 21.5 3t21.5 1q16 2 33.5 4t34.5 2q39 0 73.5 -17.5 t71.5 -17.5q27 0 46.5 27.5t19.5 52.5q0 23 -9.5 46t-13.5 46t-15.5 59.5t-27.5 53.5q-23 23 -61.5 34t-82.5 17t-85 7t-66 3q-12 2 -24 2h-25q-41 0 -79 -7t-77 -13q-6 0 -24.5 -5.5t-39 -10.5t-37.5 -9t-19 -4q-12 0 -20.5 7t-18 16.5t-21.5 17.5t-33 8q-41 0 -77.5 -16.5 t-69.5 -41t-62.5 -54l-56.5 -56.5q-117 -123 -215 -259t-190 -277q-23 -33 -45.5 -41.5t-41 -13.5t-30.5 -17t-12 -55v-56q0 -10 2 -19t2 -20q0 -12 -15.5 -35.5t-34 -52t-34 -56.5t-15.5 -46zM539 647q0 4 6 16.5t14 25.5t16.5 26.5t10.5 17.5q16 31 35.5 58.5t42.5 56.5 q6 8 22 30.5t36.5 47t43 43t39.5 18.5q14 0 21.5 -11.5t7.5 -23.5q0 -14 -6.5 -33.5t-14.5 -39t-16.5 -38t-12.5 -30.5q-16 -39 -38.5 -86t-49.5 -80q-10 -14 -21 -21.5t-30 -7.5q-8 0 -12 2h-23q-16 0 -31.5 3.5t-27.5 8.5t-12 17z" />
<glyph unicode="&#xc7;" d="M45 334q0 -49 5 -83t19.5 -60.5t38 -52t58.5 -60.5q29 -29 56.5 -52.5t62.5 -41.5q-4 -12 -6.5 -28.5t-7.5 -30t-15 -24t-27 -10.5q-16 0 -35.5 3.5t-35.5 5.5q-23 2 -40.5 -16.5t-27.5 -45t-15 -54.5t-5 -44q0 -25 19.5 -40t46 -22.5t54 -10.5t43.5 -3q53 0 104.5 20.5 t72.5 73.5q23 53 31 108.5t14 113.5q98 25 190 77q55 31 91 65t59 95q4 14 11 36.5t7 37.5q0 8 -5 27.5t-14.5 40t-20.5 36t-21 15.5q-2 0 -8.5 -2t-8.5 -2l-20 6q-6 -2 -10.5 -5.5t-8.5 -7.5q-14 -12 -47 -29.5t-69.5 -35t-70.5 -28.5t-50 -11q-35 0 -46.5 27.5t-11.5 56.5 q0 55 19.5 130t49.5 149.5t65.5 143t66.5 116.5q14 20 28.5 38.5t31.5 36.5q6 8 16 20.5t22.5 25t25.5 20.5t24 8q10 0 14 -8t4 -19q0 -16 -9 -36.5t-19.5 -42t-19.5 -44t-9 -43.5q0 -27 14 -38l61 -50q4 -2 9 -2h8q31 0 58.5 10.5t56.5 20.5q27 10 48 21.5t38 33.5 q14 20 24 52t18.5 66t12.5 66.5t4 57.5q0 59 -24.5 94t-71.5 70q-41 29 -91.5 53.5t-101.5 24.5q-59 0 -127.5 -31t-135.5 -77t-124 -99t-92 -98q-53 -68 -98 -156t-79 -184.5t-53.5 -192.5t-19.5 -182z" />
<glyph unicode="&#xc8;" horiz-adv-x="890" d="M-2 295q0 -29 12.5 -62.5t29.5 -67.5t36.5 -64.5t36.5 -53.5q25 -35 45 -49t63 -14q25 0 50.5 2t50.5 4q29 2 55 1t55 3q27 4 51.5 8t51.5 8q29 4 48 5t33.5 4.5t27.5 13.5t30 33q12 16 17 24t8 16.5t5.5 18.5t8.5 28.5t14 38t8 39.5q0 23 -13 50.5t-40 27.5 q-8 0 -17.5 -4t-17.5 -4q-12 0 -24.5 1t-24.5 1q-23 -2 -45.5 -4t-44.5 -4q-20 -2 -38.5 -1t-39.5 1h-24t-23 2q-4 0 -8 4t-4 8q0 12 6 28.5t15 35t18.5 36t15.5 29.5q2 4 9 19.5t16.5 32t19.5 31t16 18.5q10 4 37 4h39q33 0 64.5 2t60.5 2q12 0 28.5 -4t31.5 -6 q31 -4 49 10t34 37q12 16 23.5 23t11.5 32q0 23 -3 47.5t-5 46.5q-2 47 -22.5 56.5t-63.5 13.5q-10 0 -19.5 2t-19.5 2h-24t-37 2t-33 5t-14 9t7 23.5t11 23.5q18 25 35.5 51.5t36.5 51.5q6 10 14 18t12 19q4 6 8.5 14t12.5 8q18 2 37.5 3t38.5 1q29 0 59.5 -5t58.5 -9 q10 -6 24.5 -14.5t29.5 -8.5q27 0 43 26.5t16 49.5q0 27 -13.5 61.5t-21.5 63.5q-12 49 -26.5 72.5t-65.5 36t-101 17.5t-104 5q-29 0 -68.5 -2t-81.5 -5t-81 -9t-66 -15q-20 -6 -30.5 -20t-15.5 -32.5t-6 -39t-1 -37.5q0 -29 11.5 -52t11.5 -50q0 -10 -7.5 -17.5 t-13.5 -11.5q-14 -10 -23.5 -23t-19.5 -30l-55 -86l-33 -51q-6 -10 -18.5 -24.5t-24.5 -14.5q-6 0 -16.5 1t-14.5 -3t-9 -10t-9 -11l-12 -18q-6 -10 -7 -29v-41t-3 -46t-15 -44q-8 -14 -17.5 -28.5t-15.5 -28.5q-10 -23 -17 -44.5t-18 -43.5q-16 -41 -39.5 -83t-23.5 -87z M510 1692q0 -16 17.5 -40t42 -48.5t48 -47t35.5 -38.5l45 -58q12 -16 39 -36.5t47 -20.5q16 0 34 2t34 8q16 4 18 11.5t2 23.5q0 47 -8 92t-16 92l-17 90q-12 70 -77 70q-27 0 -55.5 -9t-53.5 -18q-10 -4 -32.5 -10t-45 -15t-40 -21.5t-17.5 -26.5z" />
<glyph unicode="&#xc9;" horiz-adv-x="890" d="M-2 295q0 -29 12.5 -62.5t29.5 -67.5t36.5 -64.5t36.5 -53.5q25 -35 45 -49t63 -14q25 0 50.5 2t50.5 4q29 2 55 1t55 3q27 4 51.5 8t51.5 8q29 4 48 5t33.5 4.5t27.5 13.5t30 33q12 16 17 24t8 16.5t5.5 18.5t8.5 28.5t14 38t8 39.5q0 23 -13 50.5t-40 27.5 q-8 0 -17.5 -4t-17.5 -4q-12 0 -24.5 1t-24.5 1q-23 -2 -45.5 -4t-44.5 -4q-20 -2 -38.5 -1t-39.5 1h-24t-23 2q-4 0 -8 4t-4 8q0 12 6 28.5t15 35t18.5 36t15.5 29.5q2 4 9 19.5t16.5 32t19.5 31t16 18.5q10 4 37 4h39q33 0 64.5 2t60.5 2q12 0 28.5 -4t31.5 -6 q31 -4 49 10t34 37q12 16 23.5 23t11.5 32q0 23 -3 47.5t-5 46.5q-2 47 -22.5 56.5t-63.5 13.5q-10 0 -19.5 2t-19.5 2h-24t-37 2t-33 5t-14 9t7 23.5t11 23.5q18 25 35.5 51.5t36.5 51.5q6 10 14 18t12 19q4 6 8.5 14t12.5 8q18 2 37.5 3t38.5 1q29 0 59.5 -5t58.5 -9 q10 -6 24.5 -14.5t29.5 -8.5q27 0 43 26.5t16 49.5q0 27 -13.5 61.5t-21.5 63.5q-12 49 -26.5 72.5t-65.5 36t-101 17.5t-104 5q-29 0 -68.5 -2t-81.5 -5t-81 -9t-66 -15q-20 -6 -30.5 -20t-15.5 -32.5t-6 -39t-1 -37.5q0 -29 11.5 -52t11.5 -50q0 -10 -7.5 -17.5 t-13.5 -11.5q-14 -10 -23.5 -23t-19.5 -30l-55 -86l-33 -51q-6 -10 -18.5 -24.5t-24.5 -14.5q-6 0 -16.5 1t-14.5 -3t-9 -10t-9 -11l-12 -18q-6 -10 -7 -29v-41t-3 -46t-15 -44q-8 -14 -17.5 -28.5t-15.5 -28.5q-10 -23 -17 -44.5t-18 -43.5q-16 -41 -39.5 -83t-23.5 -87z M719 1452q0 -20 24.5 -28.5t40.5 -8.5q31 0 62 12.5t59 24.5q66 29 130.5 57.5t129.5 59.5q16 8 38 23.5t22 35.5q0 12 -18.5 28.5t-43 31t-47 26.5t-31.5 17q-37 20 -71 20q-35 0 -51.5 -10t-38.5 -37q-51 -57 -100.5 -113.5t-96.5 -115.5q-8 -10 -8 -23z" />
<glyph unicode="&#xca;" horiz-adv-x="890" d="M-2 295q0 -29 12.5 -62.5t29.5 -67.5t36.5 -64.5t36.5 -53.5q25 -35 45 -49t63 -14q25 0 50.5 2t50.5 4q29 2 55 1t55 3q27 4 51.5 8t51.5 8q29 4 48 5t33.5 4.5t27.5 13.5t30 33q12 16 17 24t8 16.5t5.5 18.5t8.5 28.5t14 38t8 39.5q0 23 -13 50.5t-40 27.5 q-8 0 -17.5 -4t-17.5 -4q-12 0 -24.5 1t-24.5 1q-23 -2 -45.5 -4t-44.5 -4q-20 -2 -38.5 -1t-39.5 1h-24t-23 2q-4 0 -8 4t-4 8q0 12 6 28.5t15 35t18.5 36t15.5 29.5q2 4 9 19.5t16.5 32t19.5 31t16 18.5q10 4 37 4h39q33 0 64.5 2t60.5 2q12 0 28.5 -4t31.5 -6 q31 -4 49 10t34 37q12 16 23.5 23t11.5 32q0 23 -3 47.5t-5 46.5q-2 47 -22.5 56.5t-63.5 13.5q-10 0 -19.5 2t-19.5 2h-24t-37 2t-33 5t-14 9t7 23.5t11 23.5q18 25 35.5 51.5t36.5 51.5q6 10 14 18t12 19q4 6 8.5 14t12.5 8q18 2 37.5 3t38.5 1q29 0 59.5 -5t58.5 -9 q10 -6 24.5 -14.5t29.5 -8.5q27 0 43 26.5t16 49.5q0 27 -13.5 61.5t-21.5 63.5q-12 49 -26.5 72.5t-65.5 36t-101 17.5t-104 5q-29 0 -68.5 -2t-81.5 -5t-81 -9t-66 -15q-20 -6 -30.5 -20t-15.5 -32.5t-6 -39t-1 -37.5q0 -29 11.5 -52t11.5 -50q0 -10 -7.5 -17.5 t-13.5 -11.5q-14 -10 -23.5 -23t-19.5 -30l-55 -86l-33 -51q-6 -10 -18.5 -24.5t-24.5 -14.5q-6 0 -16.5 1t-14.5 -3t-9 -10t-9 -11l-12 -18q-6 -10 -7 -29v-41t-3 -46t-15 -44q-8 -14 -17.5 -28.5t-15.5 -28.5q-10 -23 -17 -44.5t-18 -43.5q-16 -41 -39.5 -83t-23.5 -87z M461 1458q0 -27 30.5 -36t49.5 -9q39 0 69.5 17.5t61.5 35.5q10 6 22.5 12.5t22.5 12.5q14 10 27.5 20.5t29.5 18.5q16 -12 30.5 -24.5t29.5 -28.5q18 -23 46.5 -53.5t63.5 -30.5q10 0 21.5 5t19.5 9q4 0 12.5 3t12.5 5l75 27q23 8 40.5 18t17.5 39q0 12 -20.5 38t-47 52.5 t-51.5 50t-33 29.5q-20 18 -37.5 36.5t-36 34t-41 26t-51.5 10.5t-51 -10.5t-41.5 -27t-37 -34.5t-38.5 -37q-10 -10 -41.5 -37.5t-66.5 -60.5t-61.5 -63.5t-26.5 -47.5z" />
<glyph unicode="&#xcb;" horiz-adv-x="890" d="M-2 295q0 -29 12.5 -62.5t29.5 -67.5t36.5 -64.5t36.5 -53.5q25 -35 45 -49t63 -14q25 0 50.5 2t50.5 4q29 2 55 1t55 3q27 4 51.5 8t51.5 8q29 4 48 5t33.5 4.5t27.5 13.5t30 33q12 16 17 24t8 16.5t5.5 18.5t8.5 28.5t14 38t8 39.5q0 23 -13 50.5t-40 27.5 q-8 0 -17.5 -4t-17.5 -4q-12 0 -24.5 1t-24.5 1q-23 -2 -45.5 -4t-44.5 -4q-20 -2 -38.5 -1t-39.5 1h-24t-23 2q-4 0 -8 4t-4 8q0 12 6 28.5t15 35t18.5 36t15.5 29.5q2 4 9 19.5t16.5 32t19.5 31t16 18.5q10 4 37 4h39q33 0 64.5 2t60.5 2q12 0 28.5 -4t31.5 -6 q31 -4 49 10t34 37q12 16 23.5 23t11.5 32q0 23 -3 47.5t-5 46.5q-2 47 -22.5 56.5t-63.5 13.5q-10 0 -19.5 2t-19.5 2h-24t-37 2t-33 5t-14 9t7 23.5t11 23.5q18 25 35.5 51.5t36.5 51.5q6 10 14 18t12 19q4 6 8.5 14t12.5 8q18 2 37.5 3t38.5 1q29 0 59.5 -5t58.5 -9 q10 -6 24.5 -14.5t29.5 -8.5q27 0 43 26.5t16 49.5q0 27 -13.5 61.5t-21.5 63.5q-12 49 -26.5 72.5t-65.5 36t-101 17.5t-104 5q-29 0 -68.5 -2t-81.5 -5t-81 -9t-66 -15q-20 -6 -30.5 -20t-15.5 -32.5t-6 -39t-1 -37.5q0 -29 11.5 -52t11.5 -50q0 -10 -7.5 -17.5 t-13.5 -11.5q-14 -10 -23.5 -23t-19.5 -30l-55 -86l-33 -51q-6 -10 -18.5 -24.5t-24.5 -14.5q-6 0 -16.5 1t-14.5 -3t-9 -10t-9 -11l-12 -18q-6 -10 -7 -29v-41t-3 -46t-15 -44q-8 -14 -17.5 -28.5t-15.5 -28.5q-10 -23 -17 -44.5t-18 -43.5q-16 -41 -39.5 -83t-23.5 -87z M518 1579q0 -25 13.5 -52.5t34 -50t46 -38t52.5 -15.5q12 0 31.5 7.5t29.5 17.5q16 16 25.5 37.5t19.5 40.5q16 27 34.5 59.5t18.5 65.5q0 29 -15 49t-38 39q-18 16 -51 36.5t-57 22.5q-2 2 -7 2q-29 0 -53 -25.5t-42.5 -61.5t-30 -72.5t-11.5 -61.5zM903 1554 q0 -29 12.5 -55t32 -46.5t46 -34t55.5 -13.5q27 0 49 12.5t35 36.5q6 10 18 33.5t24.5 51.5t21.5 52.5t9 36.5q0 20 -19.5 46t-45 47.5t-54 36t-47.5 14.5q-12 0 -30.5 -6.5t-28.5 -14.5q-12 -10 -25.5 -36.5t-25.5 -56.5t-19.5 -58.5t-7.5 -45.5z" />
<glyph unicode="&#xcc;" horiz-adv-x="548" d="M-35 174q0 -18 9.5 -29.5t22.5 -20.5t27.5 -18.5t22.5 -21.5q12 -20 24.5 -39.5t28.5 -38.5q10 -14 18.5 -16t24.5 -2q25 0 44.5 7t41.5 17q10 4 23 8q20 8 26.5 15.5t12.5 27.5q10 31 16 64t17 63q8 25 17 48.5t17 48.5q12 35 23.5 71.5t24 71.5t26.5 66.5t27 66.5 q16 41 30.5 83t30.5 83q18 43 39 86t41 86l66 143q12 29 25.5 57.5t13.5 59.5q0 27 -14.5 52.5t-37 47t-49 38t-49.5 24.5q-16 6 -38.5 15.5t-41.5 9.5q-14 0 -27.5 -10.5t-23.5 -25t-19.5 -29.5t-13.5 -26q-20 -49 -42.5 -96t-45.5 -96q-23 -47 -42 -97t-38 -102 q-41 -109 -86 -212t-86 -210q-20 -51 -35.5 -101t-31.5 -101q-4 -14 -11.5 -34t-7.5 -34zM414 1636q0 -18 17.5 -40.5t42 -47t48 -47t35.5 -39.5l43 -55q12 -16 39 -37.5t49 -21.5q16 0 33.5 2t34 8t18.5 13.5t2 23.5q0 47 -7 91t-17 91l-19 92q-6 35 -23.5 51.5t-52.5 16.5 q-29 0 -55.5 -8.5t-52.5 -16.5q-12 -4 -34.5 -10t-45.5 -15.5t-39 -21.5t-16 -29z" />
<glyph unicode="&#xcd;" horiz-adv-x="548" d="M-35 174q0 -18 9.5 -29.5t22.5 -20.5t27.5 -18.5t22.5 -21.5q12 -20 24.5 -39.5t28.5 -38.5q10 -14 18.5 -16t24.5 -2q25 0 44.5 7t41.5 17q10 4 23 8q20 8 26.5 15.5t12.5 27.5q10 31 16 64t17 63q8 25 17 48.5t17 48.5q12 35 23.5 71.5t24 71.5t26.5 66.5t27 66.5 q16 41 30.5 83t30.5 83q18 43 39 86t41 86l66 143q12 29 25.5 57.5t13.5 59.5q0 27 -14.5 52.5t-37 47t-49 38t-49.5 24.5q-16 6 -38.5 15.5t-41.5 9.5q-14 0 -27.5 -10.5t-23.5 -25t-19.5 -29.5t-13.5 -26q-20 -49 -42.5 -96t-45.5 -96q-23 -47 -42 -97t-38 -102 q-41 -109 -86 -212t-86 -210q-20 -51 -35.5 -101t-31.5 -101q-4 -14 -11.5 -34t-7.5 -34zM553 1466q0 -23 25.5 -29.5t42.5 -6.5q33 0 61.5 10t56.5 24q66 31 130.5 59.5t129.5 59.5q16 8 39 22t23 37q0 12 -18.5 29t-43 31t-47 25.5t-30.5 15.5q-18 10 -35 16t-39 6 q-35 0 -50.5 -12t-37.5 -37q-10 -12 -44 -49t-70 -78t-64.5 -76.5t-28.5 -46.5z" />
<glyph unicode="&#xce;" horiz-adv-x="548" d="M-35 174q0 -18 9.5 -29.5t22.5 -20.5t27.5 -18.5t22.5 -21.5q12 -20 24.5 -39.5t28.5 -38.5q10 -14 18.5 -16t24.5 -2q25 0 44.5 7t41.5 17q10 4 23 8q20 8 26.5 15.5t12.5 27.5q10 31 16 64t17 63q8 25 17 48.5t17 48.5q12 35 23.5 71.5t24 71.5t26.5 66.5t27 66.5 q16 41 30.5 83t30.5 83q18 43 39 86t41 86l66 143q12 29 25.5 57.5t13.5 59.5q0 27 -14.5 52.5t-37 47t-49 38t-49.5 24.5q-16 6 -38.5 15.5t-41.5 9.5q-14 0 -27.5 -10.5t-23.5 -25t-19.5 -29.5t-13.5 -26q-20 -49 -42.5 -96t-45.5 -96q-23 -47 -42 -97t-38 -102 q-41 -109 -86 -212t-86 -210q-20 -51 -35.5 -101t-31.5 -101q-4 -14 -11.5 -34t-7.5 -34zM322 1509q0 -14 10 -24t24.5 -17.5t30.5 -10.5t27 -3q18 0 50 9.5t65.5 21.5t64.5 26.5t49 24.5q14 -16 27.5 -31.5t23.5 -31.5q6 -12 16.5 -30t22.5 -33t27.5 -26.5t34.5 -11.5 q16 0 30.5 4t30.5 8l80 15q27 4 34 5t23 21q11 11 11 25q0 6 -9.5 23.5t-20.5 37t-21.5 35t-12.5 17.5q-14 20 -29.5 38.5t-31.5 36.5q-20 27 -37 50.5t-35.5 42t-43 28.5t-58.5 10q-45 0 -83 -29.5t-73 -51.5q-47 -33 -94 -65t-95 -67q-10 -8 -24 -20t-14 -27z" />
<glyph unicode="&#xcf;" horiz-adv-x="548" d="M-35 174q0 -18 9.5 -29.5t22.5 -20.5t27.5 -18.5t22.5 -21.5q12 -20 24.5 -39.5t28.5 -38.5q10 -14 18.5 -16t24.5 -2q25 0 44.5 7t41.5 17q10 4 23 8q20 8 26.5 15.5t12.5 27.5q10 31 16 64t17 63q8 25 17 48.5t17 48.5q12 35 23.5 71.5t24 71.5t26.5 66.5t27 66.5 q16 41 30.5 83t30.5 83q18 43 39 86t41 86l66 143q12 29 25.5 57.5t13.5 59.5q0 27 -14.5 52.5t-37 47t-49 38t-49.5 24.5q-16 6 -38.5 15.5t-41.5 9.5q-14 0 -27.5 -10.5t-23.5 -25t-19.5 -29.5t-13.5 -26q-20 -49 -42.5 -96t-45.5 -96q-23 -47 -42 -97t-38 -102 q-41 -109 -86 -212t-86 -210q-20 -51 -35.5 -101t-31.5 -101q-4 -14 -11.5 -34t-7.5 -34zM352 1579q0 -25 13.5 -52.5t35 -50t48 -38t51.5 -15.5q10 0 31.5 8.5t29.5 16.5q10 10 16.5 23.5t12.5 25.5q16 37 41.5 74t25.5 80q0 29 -14 49t-37 39q-20 16 -52 36.5t-58 22.5 q-2 2 -7 2q-29 0 -53 -25.5t-42.5 -61.5t-30 -73.5t-11.5 -60.5zM711 1499q0 -27 12 -53.5t32.5 -48t46 -34.5t54.5 -13q57 0 84 51q6 10 18.5 33.5t24.5 50t22.5 51.5t10.5 37q0 20 -19.5 44.5t-47 46.5t-55.5 37t-46 15q-12 0 -29.5 -5t-27.5 -13q-12 -10 -26.5 -37 t-26 -57.5t-19.5 -59t-8 -45.5z" />
<glyph unicode="&#xd1;" horiz-adv-x="1048" d="M-18 242q0 -31 23.5 -63t45.5 -48q10 -8 21.5 -14t19.5 -17q6 -8 13.5 -20t11.5 -23q37 -76 116 -75q16 0 27.5 12t19 29.5t12.5 35t7 29.5q16 74 43 145.5t49 143.5q10 35 19.5 72.5t23.5 72.5q8 18 14.5 39t8.5 41q0 6 2 18.5t12 12.5l2 -2q6 -20 11 -63.5t5 -63.5 v-250q0 -27 -1 -52.5t-1 -54.5q0 -31 9.5 -53t35.5 -41q12 -10 38 -24.5t53.5 -27.5t53 -23.5t42.5 -10.5q35 0 46 25.5t19 54.5q8 31 17.5 60.5t19.5 60.5l62 199q20 63 43.5 124.5t48.5 122.5q23 61 46 124t54 122l80 154q10 23 28.5 58.5t18.5 60.5q0 31 -21.5 50 t-41.5 40q-10 10 -33 30.5t-48.5 42t-50 37t-42.5 15.5q-27 0 -45.5 -29t-28.5 -49q-41 -92 -75 -182.5t-66 -186.5q-6 -18 -12.5 -36.5t-10.5 -37.5q-2 -8 -6 -20t-14 -12q-6 0 -7.5 16t-1.5 20q-2 49 -2 99q0 49 -2 98q-2 29 -4 59.5t-4 59.5q-2 31 -5 67.5t-25.5 59 t-55.5 33t-61 26.5q-16 8 -37 19.5t-37 11.5q-45 0 -66.5 -19.5t-31.5 -62.5q-16 -68 -35 -130t-41 -128q-20 -57 -42 -112.5t-44 -110.5q-20 -47 -40 -95.5t-42 -95.5q-12 -25 -36 -76t-47.5 -108t-40.5 -108.5t-17 -75.5zM539 1585q0 -23 10 -35t24 -28q10 -12 24.5 -29.5 t33.5 -17.5q18 0 33.5 10t28 22.5l22.5 22.5t16 10l17 -12q18 -12 40.5 -28.5t44 -31t29.5 -18.5q27 -12 57.5 -17.5t59.5 -5.5q72 0 116 24t97 65q16 12 35.5 29t19.5 40q0 8 -6 19.5t-15 22.5t-18.5 20.5t-13.5 15.5q-10 14 -20.5 22.5t-28.5 8.5q-14 0 -29.5 -8.5 t-30 -17.5t-24.5 -17.5t-17 -8.5q-4 2 -6 4.5t-6 4.5q-55 43 -107.5 68.5t-123.5 25.5q-127 0 -213 -84q-14 -14 -31.5 -33.5t-17.5 -42.5z" />
<glyph unicode="&#xd2;" horiz-adv-x="1050" d="M57 315q0 -80 35 -127t94 -96l93 -76l13 -13t15 -11q18 -12 41 -20.5t45 -8.5q37 0 75 11.5t76 28.5t72.5 37.5t63.5 41.5q96 68 176 167t138.5 212.5t91 237.5t32.5 241q0 80 -13 139.5t-46 130.5q-16 35 -34.5 65t-63.5 30q-35 0 -63 -17.5t-44 -17.5q-14 0 -31.5 21.5 t-36 47t-39 47t-38.5 21.5q-4 0 -7 -2q-12 -4 -24 -6t-25 -4q-59 -31 -111.5 -79t-103.5 -93q-49 -45 -99 -110.5t-93 -140.5t-78 -151t-53 -139q-12 -39 -22.5 -86t-17.5 -96t-12.5 -97.5t-5.5 -87.5zM397 338q0 41 19.5 86t34.5 84q16 45 32.5 89t34.5 87q29 66 66 124 t73 118q8 12 28 37.5t36 25.5q23 0 29 -24.5t6 -40.5q0 -47 -20.5 -109.5t-43.5 -103.5q-14 -27 -30.5 -61t-35 -67.5t-37 -64.5t-36.5 -55l-72 -96q-4 -6 -12 -16.5t-17.5 -22t-19.5 -19.5t-18 -8q-12 0 -14.5 14.5t-2.5 22.5zM639 1692q0 -14 9 -29.5t23.5 -31t28 -29 t23.5 -21.5q29 -29 53.5 -58.5t48.5 -62.5q12 -16 39 -36.5t47 -20.5q16 0 34 2t34 8q16 4 18 11.5t2 23.5q0 18 1 37.5t-3 36.5q-4 29 -11 55.5t-11 54.5q-4 23 -8 45.5t-9 44.5q-6 35 -23 52.5t-54 17.5q-27 0 -55.5 -9t-53.5 -18q-10 -4 -32.5 -10t-45 -15t-39 -21.5 t-16.5 -26.5z" />
<glyph unicode="&#xd3;" horiz-adv-x="1050" d="M57 315q0 -80 35 -127t94 -96l93 -76l13 -13t15 -11q18 -12 41 -20.5t45 -8.5q37 0 75 11.5t76 28.5t72.5 37.5t63.5 41.5q96 68 176 167t138.5 212.5t91 237.5t32.5 241q0 80 -13 139.5t-46 130.5q-16 35 -34.5 65t-63.5 30q-35 0 -63 -17.5t-44 -17.5q-14 0 -31.5 21.5 t-36 47t-39 47t-38.5 21.5q-4 0 -7 -2q-12 -4 -24 -6t-25 -4q-59 -31 -111.5 -79t-103.5 -93q-49 -45 -99 -110.5t-93 -140.5t-78 -151t-53 -139q-12 -39 -22.5 -86t-17.5 -96t-12.5 -97.5t-5.5 -87.5zM397 338q0 41 19.5 86t34.5 84q16 45 32.5 89t34.5 87q29 66 66 124 t73 118q8 12 28 37.5t36 25.5q23 0 29 -24.5t6 -40.5q0 -47 -20.5 -109.5t-43.5 -103.5q-14 -27 -30.5 -61t-35 -67.5t-37 -64.5t-36.5 -55l-72 -96q-4 -6 -12 -16.5t-17.5 -22t-19.5 -19.5t-18 -8q-12 0 -14.5 14.5t-2.5 22.5zM831 1493q0 -23 26 -30t42 -7q31 0 60.5 12.5 t58.5 24.5q66 29 130 57.5t130 59.5q16 8 38.5 22t22.5 37q0 12 -18 27.5t-43 31t-47.5 27.5t-30.5 17q-35 20 -74 20q-35 0 -50 -11.5t-38 -35.5q-10 -12 -43.5 -49t-69.5 -79t-65 -78t-29 -46z" />
<glyph unicode="&#xd4;" horiz-adv-x="1050" d="M57 315q0 -80 35 -127t94 -96l93 -76l13 -13t15 -11q18 -12 41 -20.5t45 -8.5q37 0 75 11.5t76 28.5t72.5 37.5t63.5 41.5q96 68 176 167t138.5 212.5t91 237.5t32.5 241q0 80 -13 139.5t-46 130.5q-16 35 -34.5 65t-63.5 30q-35 0 -63 -17.5t-44 -17.5q-14 0 -31.5 21.5 t-36 47t-39 47t-38.5 21.5q-4 0 -7 -2q-12 -4 -24 -6t-25 -4q-59 -31 -111.5 -79t-103.5 -93q-49 -45 -99 -110.5t-93 -140.5t-78 -151t-53 -139q-12 -39 -22.5 -86t-17.5 -96t-12.5 -97.5t-5.5 -87.5zM397 338q0 41 19.5 86t34.5 84q16 45 32.5 89t34.5 87q29 66 66 124 t73 118q8 12 28 37.5t36 25.5q23 0 29 -24.5t6 -40.5q0 -47 -20.5 -109.5t-43.5 -103.5q-14 -27 -30.5 -61t-35 -67.5t-37 -64.5t-36.5 -55l-72 -96q-4 -6 -12 -16.5t-17.5 -22t-19.5 -19.5t-18 -8q-12 0 -14.5 14.5t-2.5 22.5zM586 1569q0 -14 10 -24.5t24.5 -17.5 t31 -10.5t26.5 -3.5q20 0 52 8.5t64.5 20.5t62.5 24.5t50 22.5q14 -16 26.5 -30.5t22.5 -32.5q14 -23 25.5 -44.5t34.5 -37.5q8 -6 19.5 -13.5t21.5 -7.5q14 0 30.5 5.5t30.5 7.5l80 12q23 4 32 6t25 21q11 10 11 24q0 12 -16.5 40t-38 58.5t-41 57t-25.5 35.5 q-20 27 -36.5 51t-35 42.5t-43 30t-61.5 11.5q-41 0 -81 -30t-73 -50q-47 -31 -95 -62.5t-95 -64.5q-10 -8 -24.5 -20.5t-14.5 -28.5z" />
<glyph unicode="&#xd5;" horiz-adv-x="1050" d="M57 315q0 -80 35 -127t94 -96l93 -76l13 -13t15 -11q18 -12 41 -20.5t45 -8.5q37 0 75 11.5t76 28.5t72.5 37.5t63.5 41.5q96 68 176 167t138.5 212.5t91 237.5t32.5 241q0 80 -13 139.5t-46 130.5q-16 35 -34.5 65t-63.5 30q-35 0 -63 -17.5t-44 -17.5q-14 0 -31.5 21.5 t-36 47t-39 47t-38.5 21.5q-4 0 -7 -2q-12 -4 -24 -6t-25 -4q-59 -31 -111.5 -79t-103.5 -93q-49 -45 -99 -110.5t-93 -140.5t-78 -151t-53 -139q-12 -39 -22.5 -86t-17.5 -96t-12.5 -97.5t-5.5 -87.5zM397 338q0 41 19.5 86t34.5 84q16 45 32.5 89t34.5 87q29 66 66 124 t73 118q8 12 28 37.5t36 25.5q23 0 29 -24.5t6 -40.5q0 -47 -20.5 -109.5t-43.5 -103.5q-14 -27 -30.5 -61t-35 -67.5t-37 -64.5t-36.5 -55l-72 -96q-4 -6 -12 -16.5t-17.5 -22t-19.5 -19.5t-18 -8q-12 0 -14.5 14.5t-2.5 22.5zM594 1624q0 -12 10 -31.5t25.5 -37t30 -31 t24.5 -13.5q20 0 35.5 9.5t27 21.5t20.5 21.5t17 9.5l18 -13q17 -14 38.5 -30.5t43 -31.5t29.5 -19q29 -14 63 -20.5t64 -6.5q35 0 70 8t66 27q12 8 33.5 20.5t42 27.5t36 33t15.5 34q0 20 -20.5 41.5t-31.5 35.5q-10 10 -20 21.5t-27 11.5q-14 0 -30.5 -7t-31 -16.5 t-25.5 -16.5t-13 -7t-21.5 17.5t-53.5 38t-80 38t-99 17.5q-119 0 -203 -76q-16 -14 -34.5 -33.5t-18.5 -42.5z" />
<glyph unicode="&#xd6;" horiz-adv-x="1050" d="M57 315q0 -80 35 -127t94 -96l93 -76l13 -13t15 -11q18 -12 41 -20.5t45 -8.5q37 0 75 11.5t76 28.5t72.5 37.5t63.5 41.5q96 68 176 167t138.5 212.5t91 237.5t32.5 241q0 80 -13 139.5t-46 130.5q-16 35 -34.5 65t-63.5 30q-35 0 -63 -17.5t-44 -17.5q-14 0 -31.5 21.5 t-36 47t-39 47t-38.5 21.5q-4 0 -7 -2q-12 -4 -24 -6t-25 -4q-59 -31 -111.5 -79t-103.5 -93q-49 -45 -99 -110.5t-93 -140.5t-78 -151t-53 -139q-12 -39 -22.5 -86t-17.5 -96t-12.5 -97.5t-5.5 -87.5zM397 338q0 41 19.5 86t34.5 84q16 45 32.5 89t34.5 87q29 66 66 124 t73 118q8 12 28 37.5t36 25.5q23 0 29 -24.5t6 -40.5q0 -47 -20.5 -109.5t-43.5 -103.5q-14 -27 -30.5 -61t-35 -67.5t-37 -64.5t-36.5 -55l-72 -96q-4 -6 -12 -16.5t-17.5 -22t-19.5 -19.5t-18 -8q-12 0 -14.5 14.5t-2.5 22.5zM631 1632q0 -25 13 -51.5t34.5 -50 t48.5 -38.5t51 -15q10 0 33 10t29 16q16 16 25 38t20 40q14 25 32.5 59.5t18.5 63.5t-14.5 50.5t-36.5 39.5q-18 16 -52 37.5t-59 21.5h-6q-41 0 -64.5 -36.5t-37.5 -67.5q-10 -27 -22.5 -57.5t-12.5 -59.5zM989 1554q0 -29 12.5 -55t32 -46.5t46 -34t55.5 -13.5 q27 0 49 12.5t35 36.5q4 8 16 32.5t25.5 52.5t23.5 53.5t10 35.5q0 20 -19.5 45t-47 46.5t-55 37t-46.5 15.5q-10 0 -30.5 -6.5t-26.5 -14.5q-12 -8 -26.5 -34.5t-25.5 -57.5t-19.5 -60.5t-8.5 -44.5z" />
<glyph unicode="&#xd8;" horiz-adv-x="1054" d="M-94 154q0 -12 3 -28.5t9 -32t17.5 -26t27.5 -10.5q20 0 44 16.5t44.5 37t35.5 37t24 16.5q6 0 12 -7t10 -12q41 -41 85 -80.5t91 -70.5q45 -29 94 -29q57 0 120 26.5t122.5 66.5t110.5 86t88 87q84 92 137 193.5t92 220.5q14 41 30.5 101.5t16.5 103.5v154q0 16 15 26 q43 27 85 52.5t83 54.5q8 4 14 11t6 17q0 23 -18.5 47.5t-40.5 24.5q-16 0 -42 -14.5t-51.5 -30.5t-48 -30.5t-28.5 -14.5q-4 0 -15.5 24.5t-27 55t-35 55.5t-39.5 25q-35 0 -71 -17.5t-54 -17.5h-4q-23 35 -50.5 63.5t-56.5 57.5q-12 12 -34 12q-45 0 -100.5 -38t-109 -90 t-98.5 -106.5t-69 -87.5q-72 -96 -120 -184t-83 -203q-10 -31 -21.5 -73.5t-20.5 -88t-16.5 -89.5t-7.5 -74v-45q0 -14 -22 -35q-29 -25 -53.5 -51.5t-55.5 -49.5l-18 -15t-6 -21zM383 385q0 6 2 13.5t4 13.5q0 6 1 11t3 11q31 16 56.5 43t52.5 49q29 25 55.5 47.5 t54.5 47.5q31 27 56.5 51.5t60.5 44.5q-10 -33 -28.5 -62.5t-34.5 -58.5q-14 -25 -26.5 -49.5t-27.5 -48.5q-10 -18 -31.5 -51t-49 -66t-55 -57.5t-48.5 -24.5q-25 0 -30 14.5t-9 34.5q-2 8 -4 18.5t-2 18.5zM492 694q16 35 35.5 68t37.5 65q8 14 27.5 48t43 69t51.5 60.5 t52 25.5q20 0 25.5 -16.5t9.5 -32.5q2 -8 4 -17.5t2 -17.5v-28q-16 -16 -34.5 -31t-38.5 -29q-55 -41 -106.5 -84t-108.5 -80z" />
<glyph unicode="&#xd9;" horiz-adv-x="1060" d="M92 369q0 -80 20.5 -142.5t77.5 -120.5q49 -49 123 -86.5t146 -37.5q94 0 182 62t166 163.5t141.5 228.5t109.5 256t71.5 248t25.5 201q0 35 -14 69q-14 29 -36 46.5t-48 33.5q-29 18 -65 44t-70 26q-18 0 -29.5 -11.5t-18 -26.5t-10.5 -32.5t-6 -32.5q-6 -31 -14 -61.5 t-19 -60.5l-69 -238q-39 -135 -103.5 -264t-132.5 -252q-4 -8 -12 -21.5t-17.5 -25.5t-19.5 -20.5t-22 -8.5q-16 0 -19.5 20.5t-3.5 30.5q0 41 14.5 103.5t37 135.5t51 151.5t57 151.5t53.5 134.5t41 100.5q2 6 9 22t15.5 34.5t14.5 34t6 19.5q0 10 -12.5 14.5t-16.5 8.5 q-20 10 -39.5 24.5t-31.5 32.5q-12 16 -18.5 27.5t-28.5 11.5q-29 0 -65 -15.5t-62 -27.5q-35 -16 -54.5 -25.5t-36.5 -44.5q-47 -98 -85.5 -198.5t-79.5 -198.5q-47 -115 -75 -237.5t-28 -245.5zM541 1677q0 -16 20.5 -38.5t47 -46t52 -45t37.5 -34.5l47 -51q6 -6 16.5 -15 t23 -16.5t24.5 -13.5t20 -6t23.5 2t31 6t27 11.5t11.5 19.5q0 49 -14.5 98t-26.5 97l-25 90q-10 33 -24.5 47t-49.5 14q-29 0 -58.5 -12t-55.5 -23q-10 -4 -32 -12t-43.5 -19.5t-36.5 -24.5t-15 -28z" />
<glyph unicode="&#xda;" horiz-adv-x="1060" d="M92 369q0 -80 20.5 -142.5t77.5 -120.5q49 -49 123 -86.5t146 -37.5q94 0 182 62t166 163.5t141.5 228.5t109.5 256t71.5 248t25.5 201q0 35 -14 69q-14 29 -36 46.5t-48 33.5q-29 18 -65 44t-70 26q-18 0 -29.5 -11.5t-18 -26.5t-10.5 -32.5t-6 -32.5q-6 -31 -14 -61.5 t-19 -60.5l-69 -238q-39 -135 -103.5 -264t-132.5 -252q-4 -8 -12 -21.5t-17.5 -25.5t-19.5 -20.5t-22 -8.5q-16 0 -19.5 20.5t-3.5 30.5q0 41 14.5 103.5t37 135.5t51 151.5t57 151.5t53.5 134.5t41 100.5q2 6 9 22t15.5 34.5t14.5 34t6 19.5q0 10 -12.5 14.5t-16.5 8.5 q-20 10 -39.5 24.5t-31.5 32.5q-12 16 -18.5 27.5t-28.5 11.5q-29 0 -65 -15.5t-62 -27.5q-35 -16 -54.5 -25.5t-36.5 -44.5q-47 -98 -85.5 -198.5t-79.5 -198.5q-47 -115 -75 -237.5t-28 -245.5zM715 1466q0 -20 24.5 -28t40.5 -8q33 0 62.5 10t58.5 24q66 31 130.5 59.5 t129.5 59.5q16 8 38 23.5t22 35.5q0 14 -18.5 30t-42 30t-47 25.5t-32.5 15.5q-18 10 -33.5 16t-37.5 6q-35 0 -51.5 -11t-38.5 -38q-51 -57 -99.5 -113.5t-97.5 -113.5q-8 -8 -8 -23z" />
<glyph unicode="&#xdb;" horiz-adv-x="1060" d="M92 369q0 -80 20.5 -142.5t77.5 -120.5q49 -49 123 -86.5t146 -37.5q94 0 182 62t166 163.5t141.5 228.5t109.5 256t71.5 248t25.5 201q0 35 -14 69q-14 29 -36 46.5t-48 33.5q-29 18 -65 44t-70 26q-18 0 -29.5 -11.5t-18 -26.5t-10.5 -32.5t-6 -32.5q-6 -31 -14 -61.5 t-19 -60.5l-69 -238q-39 -135 -103.5 -264t-132.5 -252q-4 -8 -12 -21.5t-17.5 -25.5t-19.5 -20.5t-22 -8.5q-16 0 -19.5 20.5t-3.5 30.5q0 41 14.5 103.5t37 135.5t51 151.5t57 151.5t53.5 134.5t41 100.5q2 6 9 22t15.5 34.5t14.5 34t6 19.5q0 10 -12.5 14.5t-16.5 8.5 q-20 10 -39.5 24.5t-31.5 32.5q-12 16 -18.5 27.5t-28.5 11.5q-29 0 -65 -15.5t-62 -27.5q-35 -16 -54.5 -25.5t-36.5 -44.5q-47 -98 -85.5 -198.5t-79.5 -198.5q-47 -115 -75 -237.5t-28 -245.5zM549 1526q0 -27 30.5 -38t51.5 -11q23 0 56.5 13t67 31.5t63.5 37t46 28.5 q16 -14 30.5 -27.5t27.5 -29.5q8 -12 20 -26.5t25.5 -29t29 -23.5t33.5 -9q14 0 32.5 8t33.5 12l75 25q23 6 41.5 16t18.5 39q0 12 -19.5 39t-45 54.5t-49 51t-32.5 31.5q-39 39 -74.5 75t-92.5 36q-55 0 -90 -34t-76 -69l-80 -67q-23 -20 -46.5 -41t-45.5 -43 q-10 -8 -20.5 -22.5t-10.5 -26.5z" />
<glyph unicode="&#xdc;" horiz-adv-x="1060" d="M92 369q0 -80 20.5 -142.5t77.5 -120.5q49 -49 123 -86.5t146 -37.5q94 0 182 62t166 163.5t141.5 228.5t109.5 256t71.5 248t25.5 201q0 35 -14 69q-14 29 -36 46.5t-48 33.5q-29 18 -65 44t-70 26q-18 0 -29.5 -11.5t-18 -26.5t-10.5 -32.5t-6 -32.5q-6 -31 -14 -61.5 t-19 -60.5l-69 -238q-39 -135 -103.5 -264t-132.5 -252q-4 -8 -12 -21.5t-17.5 -25.5t-19.5 -20.5t-22 -8.5q-16 0 -19.5 20.5t-3.5 30.5q0 41 14.5 103.5t37 135.5t51 151.5t57 151.5t53.5 134.5t41 100.5q2 6 9 22t15.5 34.5t14.5 34t6 19.5q0 10 -12.5 14.5t-16.5 8.5 q-20 10 -39.5 24.5t-31.5 32.5q-12 16 -18.5 27.5t-28.5 11.5q-29 0 -65 -15.5t-62 -27.5q-35 -16 -54.5 -25.5t-36.5 -44.5q-47 -98 -85.5 -198.5t-79.5 -198.5q-47 -115 -75 -237.5t-28 -245.5zM567 1591q0 -25 13.5 -51.5t35 -50t48 -38.5t51.5 -15q10 0 32.5 10t28.5 16 q16 16 25.5 38t19.5 40q14 23 33.5 58.5t19.5 64.5q0 31 -15 51.5t-38 38.5q-8 6 -22.5 16.5t-29.5 19.5t-29.5 16t-26.5 7h-8q-41 0 -65 -36.5t-38 -67.5q-10 -27 -22.5 -57.5t-12.5 -59.5zM940 1567q0 -29 12.5 -54.5t33 -47t46 -34t53.5 -12.5q27 0 49.5 12.5t34.5 36.5 q6 10 18.5 34t25 51.5t21.5 52t9 36.5q0 20 -19.5 45t-47 46.5t-55 37t-44.5 15.5q-12 0 -30.5 -6t-28.5 -15q-12 -10 -25.5 -35.5t-25 -56.5t-19.5 -60.5t-8 -45.5z" />
<glyph unicode="&#xdf;" horiz-adv-x="1011" d="M-41 131q0 -12 4 -17t12 -16q20 -23 35 -35t29 -21t31.5 -17.5t42.5 -20.5q12 -6 23 -14t28 -8q20 10 39.5 19t38.5 19q20 10 22 19.5t6 32.5q12 66 38 134t48 132q31 86 62 170t63 170q23 59 41.5 112.5t40 102.5t51 95t72.5 91q23 25 53.5 48.5t67.5 23.5q23 0 34 -7 t11 -32q0 -37 -17.5 -70.5t-45 -60.5t-62.5 -42t-72 -17q-35 -55 -57.5 -100.5t-32.5 -110.5q-2 -6 -3 -11.5t-1 -11.5q0 -8 8 -12q45 -18 72 -65.5t27 -94.5q0 -25 -10.5 -55.5t-26 -62t-36 -58.5t-38.5 -41q-2 -2 -9 -7t-11 -5q-16 0 -23.5 8t-12.5 18.5t-9.5 18.5 t-16.5 8q-23 0 -43 -21.5t-31 -39.5l-59 -121q-4 -8 -13.5 -18.5t-9.5 -18.5q0 -6 1.5 -9t3.5 -10q8 -23 13 -39t13 -29.5t21.5 -24.5t36.5 -23q12 -6 42.5 -20.5t45.5 -14.5q10 0 18 2t18 4q57 12 121 35q78 31 141.5 99.5t108.5 154.5t69.5 178t24.5 170q0 47 -17 97 t-52 81l-7 7t-8 7q4 4 15.5 6.5t19.5 6.5q23 12 46.5 23.5t45.5 27.5q10 8 18.5 17.5t16.5 19.5q49 63 75 130.5t26 147.5q0 31 -6.5 64t-18.5 62.5t-31.5 55t-48.5 39.5q-37 20 -79 25.5t-83 5.5q-135 0 -261 -47t-220 -147q-29 -31 -56.5 -73t-52 -87t-46 -90t-40.5 -84 q-39 -88 -74.5 -174t-70.5 -176q-20 -55 -39.5 -111.5t-40.5 -112.5q-16 -45 -32.5 -91t-16.5 -93z" />
<glyph unicode="&#xe0;" horiz-adv-x="899" d="M-10 285q0 -47 14 -86t39 -78q12 -18 30.5 -41t41 -42.5t47 -32.5t49.5 -13q10 0 26.5 4t34 11t32.5 14.5t25.5 13.5t17.5 13t18 13q10 10 20 11q8 0 13 -7.5t10 -11.5q16 -25 24 -33t39 -16q29 -8 57.5 -15t57.5 -18q10 -4 18 -7t19 -7q6 -2 11 -3t11 -1q41 0 53.5 30.5 t16.5 63.5q4 39 8 69.5t8 58.5t10.5 57.5t16.5 68.5q10 45 20 88t25 86q4 14 18.5 47t32.5 74t38.5 86t37 82t28 63.5t11.5 30.5q0 14 -12.5 27.5t-29 26t-33.5 22.5t-28 20q-12 10 -23.5 22.5t-23.5 22.5q-14 12 -31.5 17.5t-35.5 5.5q-47 0 -64.5 -25.5t-34.5 -62.5 q-2 -2 -6 -11.5t-8 -9.5q-14 0 -20.5 15.5t-12.5 34t-16 34t-33 15.5q-14 0 -35.5 -7.5t-44 -16.5t-44 -19.5t-34.5 -16.5q-35 -18 -77.5 -52t-84.5 -74t-78 -82t-57 -74q-25 -39 -45 -86t-35.5 -98.5t-23.5 -103.5t-8 -97zM322 352q0 23 17 61t28 60q8 20 16 35.5t16.5 29 t18.5 25.5t26 29q23 23 40.5 41t50.5 18l4 -4q0 -4 -3.5 -11l-5.5 -11l-14 -35t-20.5 -52.5t-18.5 -52t-8 -32.5q0 -6 -1 -18.5t-5 -16.5q-4 -8 -21.5 -22.5t-39 -30t-41 -26.5t-25.5 -11q-10 0 -12 8t-2 16zM393 1382q0 -16 19.5 -38.5t46 -47t51.5 -46t37 -36.5l45 -53 q12 -14 24.5 -22.5t28.5 -18.5q8 -4 14.5 -8t16.5 -4q8 0 23.5 1t30.5 5t26.5 12.5t11.5 20.5q0 53 -11.5 97t-23.5 95q-6 23 -11 45.5t-9 45.5q-8 33 -24.5 49t-51.5 16q-31 0 -57.5 -11t-55.5 -22q-10 -4 -31.5 -11t-44 -18.5t-39 -23.5t-16.5 -27z" />
<glyph unicode="&#xe1;" horiz-adv-x="899" d="M-10 285q0 -47 14 -86t39 -78q12 -18 30.5 -41t41 -42.5t47 -32.5t49.5 -13q10 0 26.5 4t34 11t32.5 14.5t25.5 13.5t17.5 13t18 13q10 10 20 11q8 0 13 -7.5t10 -11.5q16 -25 24 -33t39 -16q29 -8 57.5 -15t57.5 -18q10 -4 18 -7t19 -7q6 -2 11 -3t11 -1q41 0 53.5 30.5 t16.5 63.5q4 39 8 69.5t8 58.5t10.5 57.5t16.5 68.5q10 45 20 88t25 86q4 14 18.5 47t32.5 74t38.5 86t37 82t28 63.5t11.5 30.5q0 14 -12.5 27.5t-29 26t-33.5 22.5t-28 20q-12 10 -23.5 22.5t-23.5 22.5q-14 12 -31.5 17.5t-35.5 5.5q-47 0 -64.5 -25.5t-34.5 -62.5 q-2 -2 -6 -11.5t-8 -9.5q-14 0 -20.5 15.5t-12.5 34t-16 34t-33 15.5q-14 0 -35.5 -7.5t-44 -16.5t-44 -19.5t-34.5 -16.5q-35 -18 -77.5 -52t-84.5 -74t-78 -82t-57 -74q-25 -39 -45 -86t-35.5 -98.5t-23.5 -103.5t-8 -97zM322 352q0 23 17 61t28 60q8 20 16 35.5t16.5 29 t18.5 25.5t26 29q23 23 40.5 41t50.5 18l4 -4q0 -4 -3.5 -11l-5.5 -11l-14 -35t-20.5 -52.5t-18.5 -52t-8 -32.5q0 -6 -1 -18.5t-5 -16.5q-4 -8 -21.5 -22.5t-39 -30t-41 -26.5t-25.5 -11q-10 0 -12 8t-2 16zM647 1165q0 -23 25.5 -30t42.5 -7q31 0 60.5 12.5t58.5 24.5 q66 29 130 57.5t130 59.5q16 8 38.5 22t22.5 37q0 12 -18.5 27.5t-43 31t-47 28t-30.5 16.5q-35 20 -74 20q-35 0 -50 -11t-38 -36q-10 -12 -44 -49t-69.5 -79t-64.5 -77.5t-29 -46.5z" />
<glyph unicode="&#xe2;" horiz-adv-x="899" d="M-10 285q0 -47 14 -86t39 -78q12 -18 30.5 -41t41 -42.5t47 -32.5t49.5 -13q10 0 26.5 4t34 11t32.5 14.5t25.5 13.5t17.5 13t18 13q10 10 20 11q8 0 13 -7.5t10 -11.5q16 -25 24 -33t39 -16q29 -8 57.5 -15t57.5 -18q10 -4 18 -7t19 -7q6 -2 11 -3t11 -1q41 0 53.5 30.5 t16.5 63.5q4 39 8 69.5t8 58.5t10.5 57.5t16.5 68.5q10 45 20 88t25 86q4 14 18.5 47t32.5 74t38.5 86t37 82t28 63.5t11.5 30.5q0 14 -12.5 27.5t-29 26t-33.5 22.5t-28 20q-12 10 -23.5 22.5t-23.5 22.5q-14 12 -31.5 17.5t-35.5 5.5q-47 0 -64.5 -25.5t-34.5 -62.5 q-2 -2 -6 -11.5t-8 -9.5q-14 0 -20.5 15.5t-12.5 34t-16 34t-33 15.5q-14 0 -35.5 -7.5t-44 -16.5t-44 -19.5t-34.5 -16.5q-35 -18 -77.5 -52t-84.5 -74t-78 -82t-57 -74q-25 -39 -45 -86t-35.5 -98.5t-23.5 -103.5t-8 -97zM322 352q0 23 17 61t28 60q8 20 16 35.5t16.5 29 t18.5 25.5t26 29q23 23 40.5 41t50.5 18l4 -4q0 -4 -3.5 -11l-5.5 -11l-14 -35t-20.5 -52.5t-18.5 -52t-8 -32.5q0 -6 -1 -18.5t-5 -16.5q-4 -8 -21.5 -22.5t-39 -30t-41 -26.5t-25.5 -11q-10 0 -12 8t-2 16zM422 1200q0 -14 9 -23.5t22.5 -15.5t29 -9t25.5 -3q18 0 51 10 t68 25.5t65.5 33t46.5 29.5q16 -14 29.5 -28.5t26.5 -30.5q8 -12 18 -27.5t24.5 -31t30 -25.5t31.5 -10q8 0 20.5 4t20.5 6q4 4 12 4t13 2l77 20q20 4 41 15.5t21 38.5q0 14 -18.5 40.5t-42 55.5t-46 52.5t-30.5 33.5q-20 23 -37 44.5t-36.5 38.5t-42 27.5t-54.5 10.5 q-47 0 -87 -33t-75 -61q-20 -16 -41 -31.5t-41 -32.5l-98 -80q-10 -8 -21.5 -21.5t-11.5 -27.5z" />
<glyph unicode="&#xe3;" horiz-adv-x="899" d="M-10 285q0 -47 14 -86t39 -78q12 -18 30.5 -41t41 -42.5t47 -32.5t49.5 -13q10 0 26.5 4t34 11t32.5 14.5t25.5 13.5t17.5 13t18 13q10 10 20 11q8 0 13 -7.5t10 -11.5q16 -25 24 -33t39 -16q29 -8 57.5 -15t57.5 -18q10 -4 18 -7t19 -7q6 -2 11 -3t11 -1q41 0 53.5 30.5 t16.5 63.5q4 39 8 69.5t8 58.5t10.5 57.5t16.5 68.5q10 45 20 88t25 86q4 14 18.5 47t32.5 74t38.5 86t37 82t28 63.5t11.5 30.5q0 14 -12.5 27.5t-29 26t-33.5 22.5t-28 20q-12 10 -23.5 22.5t-23.5 22.5q-14 12 -31.5 17.5t-35.5 5.5q-47 0 -64.5 -25.5t-34.5 -62.5 q-2 -2 -6 -11.5t-8 -9.5q-14 0 -20.5 15.5t-12.5 34t-16 34t-33 15.5q-14 0 -35.5 -7.5t-44 -16.5t-44 -19.5t-34.5 -16.5q-35 -18 -77.5 -52t-84.5 -74t-78 -82t-57 -74q-25 -39 -45 -86t-35.5 -98.5t-23.5 -103.5t-8 -97zM322 352q0 23 17 61t28 60q8 20 16 35.5t16.5 29 t18.5 25.5t26 29q23 23 40.5 41t50.5 18l4 -4q0 -4 -3.5 -11l-5.5 -11l-14 -35t-20.5 -52.5t-18.5 -52t-8 -32.5q0 -6 -1 -18.5t-5 -16.5q-4 -8 -21.5 -22.5t-39 -30t-41 -26.5t-25.5 -11q-10 0 -12 8t-2 16zM397 1257q0 -23 12.5 -36t28.5 -27q12 -10 26.5 -25.5 t33.5 -15.5q18 0 32.5 11.5t25.5 24.5t20.5 24.5t17.5 11.5q4 0 8 -2l8 -4q29 -18 52.5 -34t47 -27t51 -17t62.5 -6q76 0 127 28.5t105 77.5l31.5 31.5t17.5 40.5q0 18 -23.5 40.5t-36.5 35.5q-10 10 -20 18t-27 8q-16 0 -31.5 -9t-29.5 -20.5t-24.5 -20.5t-14.5 -9 q-2 0 -6 3t-6 3q-33 20 -68 38.5t-72 29.5q-31 8 -71 8q-141 0 -234 -105q-12 -14 -27.5 -34.5t-15.5 -41.5z" />
<glyph unicode="&#xe4;" horiz-adv-x="899" d="M-10 285q0 -47 14 -86t39 -78q12 -18 30.5 -41t41 -42.5t47 -32.5t49.5 -13q10 0 26.5 4t34 11t32.5 14.5t25.5 13.5t17.5 13t18 13q10 10 20 11q8 0 13 -7.5t10 -11.5q16 -25 24 -33t39 -16q29 -8 57.5 -15t57.5 -18q10 -4 18 -7t19 -7q6 -2 11 -3t11 -1q41 0 53.5 30.5 t16.5 63.5q4 39 8 69.5t8 58.5t10.5 57.5t16.5 68.5q10 45 20 88t25 86q4 14 18.5 47t32.5 74t38.5 86t37 82t28 63.5t11.5 30.5q0 14 -12.5 27.5t-29 26t-33.5 22.5t-28 20q-12 10 -23.5 22.5t-23.5 22.5q-14 12 -31.5 17.5t-35.5 5.5q-47 0 -64.5 -25.5t-34.5 -62.5 q-2 -2 -6 -11.5t-8 -9.5q-14 0 -20.5 15.5t-12.5 34t-16 34t-33 15.5q-14 0 -35.5 -7.5t-44 -16.5t-44 -19.5t-34.5 -16.5q-35 -18 -77.5 -52t-84.5 -74t-78 -82t-57 -74q-25 -39 -45 -86t-35.5 -98.5t-23.5 -103.5t-8 -97zM322 352q0 23 17 61t28 60q8 20 16 35.5t16.5 29 t18.5 25.5t26 29q23 23 40.5 41t50.5 18l4 -4q0 -4 -3.5 -11l-5.5 -11l-14 -35t-20.5 -52.5t-18.5 -52t-8 -32.5q0 -6 -1 -18.5t-5 -16.5q-4 -8 -21.5 -22.5t-39 -30t-41 -26.5t-25.5 -11q-10 0 -12 8t-2 16zM432 1264q0 -25 13.5 -51.5t35 -50t48 -39t51.5 -15.5 q10 0 32.5 10t28.5 17q16 16 25.5 37.5t19.5 39.5q14 23 33.5 58.5t19.5 64.5q0 31 -15 51.5t-38 38.5q-8 6 -22.5 16.5t-30 19.5t-29.5 16.5t-26 7.5h-9q-41 0 -64.5 -37t-37.5 -68q-10 -27 -22.5 -57.5t-12.5 -58.5zM791 1227q0 -29 12 -55.5t31.5 -47t46 -34t55.5 -13.5 q27 0 49.5 12.5t34.5 36.5l16.5 33t25.5 52.5t23.5 53t10.5 35.5q0 20 -19.5 46t-46 47.5t-55.5 36t-47 14.5q-10 0 -30.5 -6t-27.5 -15q-8 -6 -19 -27.5t-23.5 -47t-21.5 -50t-11 -35t-3 -18.5t-1 -18z" />
<glyph unicode="&#xe5;" horiz-adv-x="899" d="M-10 285q0 -47 14 -86t39 -78q12 -18 30.5 -41t41 -42.5t47 -32.5t49.5 -13q10 0 26.5 4t34 11t32.5 14.5t25.5 13.5t17.5 13t18 13q10 10 20 11q8 0 13 -7.5t10 -11.5q16 -25 24 -33t39 -16q29 -8 57.5 -15t57.5 -18q10 -4 18 -7t19 -7q6 -2 11 -3t11 -1q41 0 53.5 30.5 t16.5 63.5q4 39 8 69.5t8 58.5t10.5 57.5t16.5 68.5q10 45 20 88t25 86q4 14 18.5 47t32.5 74t38.5 86t37 82t28 63.5t11.5 30.5q0 14 -12.5 27.5t-29 26t-33.5 22.5t-28 20q-12 10 -23.5 22.5t-23.5 22.5q-14 12 -31.5 17.5t-35.5 5.5q-47 0 -64.5 -25.5t-34.5 -62.5 q-2 -2 -6 -11.5t-8 -9.5q-14 0 -20.5 15.5t-12.5 34t-16 34t-33 15.5q-14 0 -35.5 -7.5t-44 -16.5t-44 -19.5t-34.5 -16.5q-35 -18 -77.5 -52t-84.5 -74t-78 -82t-57 -74q-25 -39 -45 -86t-35.5 -98.5t-23.5 -103.5t-8 -97zM322 352q0 23 17 61t28 60q8 20 16 35.5t16.5 29 t18.5 25.5t26 29q23 23 40.5 41t50.5 18l4 -4q0 -4 -3.5 -11l-5.5 -11l-14 -35t-20.5 -52.5t-18.5 -52t-8 -32.5q0 -6 -1 -18.5t-5 -16.5q-4 -8 -21.5 -22.5t-39 -30t-41 -26.5t-25.5 -11q-10 0 -12 8t-2 16zM504 1327q0 -18 13 -52t20 -50q12 -37 35.5 -57.5t53 -31 t63.5 -13.5t69 -3q43 0 85 31t66 63q16 20 36 53t22 60q2 6 2 14v15q0 37 -9.5 60.5t-25.5 56.5q-23 45 -38 67.5t-34.5 32.5t-48.5 14t-78 10h-10q-59 0 -102 -40.5t-70 -88.5q-16 -33 -32.5 -68.5t-16.5 -72.5zM678 1346q0 29 14.5 53t46.5 24q31 0 46.5 -22t15.5 -51 q0 -8 -5 -19.5t-12.5 -23t-16.5 -19.5t-17 -8q-27 0 -49.5 18.5t-22.5 47.5z" />
<glyph unicode="&#xe6;" horiz-adv-x="1273" d="M-23 242q0 -45 26 -92.5t54 -79.5q41 -47 87 -70t108 -23q74 0 138.5 34t117.5 81q47 -49 111.5 -83t136.5 -34q86 0 164.5 41t144.5 93q10 8 26.5 20t31 27.5t24.5 31t10 31.5q0 27 -14.5 49.5t-37 38t-49 23.5t-50.5 8q-29 0 -49.5 -9.5t-38 -23.5t-36 -28.5 t-38.5 -26.5q-29 -16 -58 -25q-6 -2 -24.5 -8t-24.5 -6q-37 0 -37 35q0 23 7.5 43t17.5 41q10 18 16.5 21t24.5 7q117 18 231.5 52t212.5 100q59 39 92 98t33 131q0 41 -13 96.5t-35.5 88t-70 52t-88.5 19.5q-57 0 -118.5 -18.5t-110.5 -46.5q-23 -14 -45.5 -28.5 t-42.5 -31.5q-8 -8 -14 -10q-6 0 -16.5 10.5t-23 23.5t-22.5 25.5t-14 18.5q-12 14 -35.5 27.5t-50.5 22.5t-54.5 14.5t-45.5 5.5q-102 0 -198.5 -46.5t-178.5 -99.5l-16.5 -11t-14.5 -15q-4 -4 -4 -13v-12q0 -16 3 -42t10 -48.5t21.5 -38.5t39.5 -16q12 0 35.5 14t54 30.5 t68.5 31t81 14.5q39 0 66.5 -23.5t27.5 -64.5q0 -6 -3 -22.5t-8 -32t-12 -28t-13 -12.5t-11.5 2.5t-9.5 4.5q-10 4 -31.5 9t-46 10t-46 9t-32.5 4h-14q-78 0 -137.5 -50t-99.5 -111q-12 -18 -27.5 -45t-29 -55.5t-23 -56.5t-9.5 -52zM270 215q0 53 27 107.5t74 83.5 q10 6 31.5 19t33.5 13q13 0 13 -14l-5 -12q-6 -11 -12 -23t-12 -24.5t-8 -16.5q-6 -14 -21.5 -43t-34 -57.5t-38 -50t-33.5 -21.5q-10 0 -12.5 16.5t-2.5 22.5zM844 594q0 16 7 29.5t13 29.5q4 10 7 22.5t8 22.5q6 18 24.5 36t42 31t49 21.5t43.5 8.5q8 0 19.5 -2.5 t11.5 -12.5q0 -8 -5 -15t-9 -13q-18 -27 -30.5 -45.5t-26 -34t-32 -28.5t-46.5 -28q-10 -4 -35 -17t-35 -13q-6 0 -6 8z" />
<glyph unicode="&#xe7;" horiz-adv-x="790" d="M-31 -260q0 -25 19.5 -40t46 -22.5t54.5 -10.5t44 -3q51 0 103.5 20.5t72.5 73.5q16 41 24.5 99.5t18.5 103.5l4 21q39 8 66 14t49.5 15t45 24.5t52.5 42.5q6 6 24.5 21.5t22.5 21.5q12 20 14.5 50t8.5 52q4 10 6 21.5t2 21.5q0 8 -7 17.5t-17.5 19.5t-19.5 18.5 t-15 14.5q-8 6 -14.5 10t-16.5 4q-16 0 -32.5 -11t-37 -25.5t-44 -26t-50.5 -11.5q-39 0 -52 19.5t-13 54.5q0 31 10 66t26.5 68.5t36 64.5t35.5 55q6 10 19.5 25.5t29 31t31.5 26.5t31 11q6 0 8 -6t2 -10q0 -27 -19.5 -51.5t-19.5 -48.5q0 -12 17.5 -26.5t41 -25t47 -17.5 t33.5 -7q12 0 22.5 6t20.5 10q72 37 100.5 81t28.5 124v53q0 25 -5 45.5t-18 39t-40 38.5q-16 12 -41 27.5t-51.5 29t-53 22.5t-47.5 9q-57 0 -119.5 -24.5t-121 -62.5t-108.5 -84t-82.5 -89t-61.5 -93t-50.5 -105.5t-34.5 -113t-13 -110.5q0 -100 57 -187t147 -132 q-4 -12 -7 -29.5t-8 -33t-14.5 -26t-27.5 -10.5q-16 0 -35.5 3.5t-36.5 5.5q-23 2 -40 -16.5t-27 -45t-15.5 -54.5t-5.5 -44z" />
<glyph unicode="&#xe8;" horiz-adv-x="813" d="M-20 307q0 -78 28.5 -140.5t77.5 -106.5t114.5 -67.5t139.5 -23.5q59 0 107.5 11.5t103.5 31.5q33 10 46 18.5t26 41.5q10 23 22 55.5t12 56.5q0 29 -16 57.5t-49 28.5q-16 0 -35 -6q-43 -12 -84 -21.5t-88 -9.5q-43 0 -55.5 33t-12.5 68q0 10 4.5 32.5t20.5 22.5 q4 0 13.5 -9t23.5 -21.5t29.5 -21.5t31.5 -9q33 0 73 7t78 21.5t73.5 33t60.5 42.5q53 51 86 129t33 152q0 57 -24.5 108t-65.5 88t-93.5 58.5t-109.5 21.5q-78 0 -140.5 -34.5t-121.5 -82.5q-41 -33 -81 -68.5t-73 -76.5t-60.5 -92t-49 -106.5t-33.5 -113t-12 -108.5z M379 1329q0 -18 19.5 -40.5t44 -46t50 -45t37.5 -36.5l45 -55q10 -12 39 -32.5t45 -20.5q8 0 24.5 1t31 5t26 12.5t11.5 22.5q0 53 -11.5 96t-23.5 94q-6 23 -11.5 45.5t-9.5 44.5q-8 35 -24.5 50.5t-50.5 15.5q-29 0 -57.5 -10.5t-55.5 -20.5q-10 -4 -31.5 -11t-43 -17.5 t-38 -24t-16.5 -27.5zM403 557q0 4 20.5 32.5t48.5 60.5t53.5 57.5t35.5 25.5q8 0 8 -14v-17q0 -41 -24.5 -87t-67.5 -60l-39 -12q-12 -4 -18 -4q-16 0 -17 18z" />
<glyph unicode="&#xe9;" horiz-adv-x="813" d="M-20 307q0 -78 28.5 -140.5t77.5 -106.5t114.5 -67.5t139.5 -23.5q59 0 107.5 11.5t103.5 31.5q33 10 46 18.5t26 41.5q10 23 22 55.5t12 56.5q0 29 -16 57.5t-49 28.5q-16 0 -35 -6q-43 -12 -84 -21.5t-88 -9.5q-43 0 -55.5 33t-12.5 68q0 10 4.5 32.5t20.5 22.5 q4 0 13.5 -9t23.5 -21.5t29.5 -21.5t31.5 -9q33 0 73 7t78 21.5t73.5 33t60.5 42.5q53 51 86 129t33 152q0 57 -24.5 108t-65.5 88t-93.5 58.5t-109.5 21.5q-78 0 -140.5 -34.5t-121.5 -82.5q-41 -33 -81 -68.5t-73 -76.5t-60.5 -92t-49 -106.5t-33.5 -113t-12 -108.5z M403 557q0 4 20.5 32.5t48.5 60.5t53.5 57.5t35.5 25.5q8 0 8 -14v-17q0 -41 -24.5 -87t-67.5 -60l-39 -12q-12 -4 -18 -4q-16 0 -17 18zM549 1124q0 -23 25.5 -30t41.5 -7q31 0 61 12.5t58 24.5q66 29 130.5 57.5t129.5 59.5q16 8 39 22t23 37q0 12 -18.5 27.5t-43 31 t-47 28t-30.5 16.5q-35 20 -74 20q-35 0 -50.5 -11t-37.5 -36q-10 -12 -44 -49t-70 -79t-64.5 -77.5t-28.5 -46.5z" />
<glyph unicode="&#xea;" horiz-adv-x="813" d="M-20 307q0 -78 28.5 -140.5t77.5 -106.5t114.5 -67.5t139.5 -23.5q59 0 107.5 11.5t103.5 31.5q33 10 46 18.5t26 41.5q10 23 22 55.5t12 56.5q0 29 -16 57.5t-49 28.5q-16 0 -35 -6q-43 -12 -84 -21.5t-88 -9.5q-43 0 -55.5 33t-12.5 68q0 10 4.5 32.5t20.5 22.5 q4 0 13.5 -9t23.5 -21.5t29.5 -21.5t31.5 -9q33 0 73 7t78 21.5t73.5 33t60.5 42.5q53 51 86 129t33 152q0 57 -24.5 108t-65.5 88t-93.5 58.5t-109.5 21.5q-78 0 -140.5 -34.5t-121.5 -82.5q-41 -33 -81 -68.5t-73 -76.5t-60.5 -92t-49 -106.5t-33.5 -113t-12 -108.5z M299 1135q0 -12 9 -21.5t22.5 -15.5t28 -9.5t24.5 -3.5q20 0 53 11.5t67 29t65.5 36t47.5 30.5q14 -14 30 -27.5t28 -29.5q8 -12 19.5 -27.5t24.5 -29t28.5 -24t33.5 -10.5q8 0 20.5 4.5t18.5 8.5q20 0 52 12t51 18q20 6 30.5 9.5t22.5 21.5q8 13 8 23q0 12 -19.5 38.5 t-44 55.5t-48 52.5l-31.5 31.5q-23 23 -39.5 43t-34.5 35.5t-41 25t-55 9.5q-55 0 -89 -32t-75 -67q-90 -76 -174 -149q-10 -8 -21.5 -22.5t-11.5 -26.5zM403 557q0 4 20.5 32.5t48.5 60.5t53.5 57.5t35.5 25.5q8 0 8 -14v-17q0 -41 -24.5 -87t-67.5 -60l-39 -12 q-12 -4 -18 -4q-16 0 -17 18z" />
<glyph unicode="&#xeb;" horiz-adv-x="813" d="M-20 307q0 -78 28.5 -140.5t77.5 -106.5t114.5 -67.5t139.5 -23.5q59 0 107.5 11.5t103.5 31.5q33 10 46 18.5t26 41.5q10 23 22 55.5t12 56.5q0 29 -16 57.5t-49 28.5q-16 0 -35 -6q-43 -12 -84 -21.5t-88 -9.5q-43 0 -55.5 33t-12.5 68q0 10 4.5 32.5t20.5 22.5 q4 0 13.5 -9t23.5 -21.5t29.5 -21.5t31.5 -9q33 0 73 7t78 21.5t73.5 33t60.5 42.5q53 51 86 129t33 152q0 57 -24.5 108t-65.5 88t-93.5 58.5t-109.5 21.5q-78 0 -140.5 -34.5t-121.5 -82.5q-41 -33 -81 -68.5t-73 -76.5t-60.5 -92t-49 -106.5t-33.5 -113t-12 -108.5z M334 1237q0 -25 13 -52.5t34.5 -50t48.5 -38t51 -15.5q16 0 33.5 8.5t28 18.5t16.5 23.5t12 23.5q8 16 19.5 35.5l23 39t19.5 40.5t8 39q0 31 -15.5 51t-37.5 39q-6 6 -20.5 16t-31 19.5t-33 16.5t-24.5 7h-8q-29 0 -53.5 -25.5t-43 -61.5t-29.5 -73.5t-11 -60.5zM403 557 q0 4 20.5 32.5t48.5 60.5t53.5 57.5t35.5 25.5q8 0 8 -14v-17q0 -41 -24.5 -87t-67.5 -60l-39 -12q-12 -4 -18 -4q-16 0 -17 18zM692 1186q0 -29 12.5 -55.5t32 -47t46 -34t55.5 -13.5q27 0 50 12.5t36 36.5q4 8 16 33t24.5 53.5t22.5 54.5t10 34q0 20 -19.5 45.5t-46 47 t-55 36t-47.5 14.5q-12 0 -29.5 -6t-27.5 -15q-12 -10 -25.5 -35.5t-25.5 -56t-20.5 -59.5t-8.5 -45z" />
<glyph unicode="&#xec;" horiz-adv-x="514" d="M-63 186q0 -12 6 -31.5t17 -38t24.5 -31.5t25.5 -15q16 -4 25.5 -5.5t17.5 -4.5t14.5 -10t16.5 -21q14 -18 27.5 -32.5t38.5 -14.5q16 0 30.5 5t28.5 11q23 10 29 17.5t14 29.5q16 47 32.5 91t34.5 91q47 121 96.5 240t110.5 233q8 14 21.5 39t13.5 41q0 12 -12 30.5 t-28.5 39t-33 37l-24.5 24.5q-23 23 -59.5 45.5t-69.5 22.5q-12 0 -20.5 -10.5t-14.5 -20.5q-23 -41 -43 -81t-43 -81q-41 -80 -83 -159.5t-77 -161.5q-16 -35 -29.5 -69t-29.5 -68q-4 -10 -14.5 -28.5t-19.5 -40t-16 -41t-7 -32.5zM260 1296q0 -18 17.5 -41.5t41 -48 t48 -47t36.5 -39.5l43 -55q12 -16 39 -37.5t50 -21.5q6 0 33.5 4t33.5 6q14 4 16.5 14.5t2.5 22.5q0 49 -6.5 91t-16.5 91l-18 92q-6 35 -22.5 52.5t-53.5 17.5q-29 0 -56.5 -9.5t-54.5 -17.5q-10 -4 -32.5 -10t-45 -15.5t-39 -21.5t-16.5 -27z" />
<glyph unicode="&#xed;" horiz-adv-x="514" d="M-63 186q0 -12 6 -31.5t17 -38t24.5 -31.5t25.5 -15q16 -4 25.5 -5.5t17.5 -4.5t14.5 -10t16.5 -21q14 -18 27.5 -32.5t38.5 -14.5q16 0 30.5 5t28.5 11q23 10 29 17.5t14 29.5q16 47 32.5 91t34.5 91q47 121 96.5 240t110.5 233q8 14 21.5 39t13.5 41q0 12 -12 30.5 t-28.5 39t-33 37l-24.5 24.5q-23 23 -59.5 45.5t-69.5 22.5q-12 0 -20.5 -10.5t-14.5 -20.5q-23 -41 -43 -81t-43 -81q-41 -80 -83 -159.5t-77 -161.5q-16 -35 -29.5 -69t-29.5 -68q-4 -10 -14.5 -28.5t-19.5 -40t-16 -41t-7 -32.5zM426 1112q0 -23 25.5 -31t42.5 -8 q29 0 60.5 12.5t57.5 24.5q66 29 130.5 57.5t129.5 59.5q16 8 39 23.5t23 35.5q0 12 -18.5 27.5t-43 31t-47 27.5t-30.5 17q-18 10 -35 16t-39 6q-35 0 -50.5 -12.5t-37.5 -36.5q-10 -12 -44 -49t-70 -78t-64.5 -78t-28.5 -45z" />
<glyph unicode="&#xee;" horiz-adv-x="514" d="M-63 186q0 -12 6 -31.5t17 -38t24.5 -31.5t25.5 -15q16 -4 25.5 -5.5t17.5 -4.5t14.5 -10t16.5 -21q14 -18 27.5 -32.5t38.5 -14.5q16 0 30.5 5t28.5 11q23 10 29 17.5t14 29.5q16 47 32.5 91t34.5 91q47 121 96.5 240t110.5 233q8 14 21.5 39t13.5 41q0 12 -12 30.5 t-28.5 39t-33 37l-24.5 24.5q-23 23 -59.5 45.5t-69.5 22.5q-12 0 -20.5 -10.5t-14.5 -20.5q-23 -41 -43 -81t-43 -81q-41 -80 -83 -159.5t-77 -161.5q-16 -35 -29.5 -69t-29.5 -68q-4 -10 -14.5 -28.5t-19.5 -40t-16 -41t-7 -32.5zM195 1159q0 -14 10 -24.5t24.5 -17.5 t30.5 -10t27 -3q12 0 36.5 6t50 13t48 15.5t29.5 14.5q16 4 32.5 11t32.5 16q31 -33 49 -64q6 -12 16.5 -29.5t22.5 -33t27.5 -26.5t34.5 -11q14 0 30.5 3t30.5 7l80 14q23 4 31 5.5t24 19.5q10 15 10 25q0 14 -16 41.5t-36.5 57.5t-40 55.5t-27.5 35.5q-20 27 -37 51.5 t-35 43t-42 29.5t-60 11q-41 0 -81 -29.5t-73 -50.5q-23 -14 -44.5 -27.5t-43.5 -27.5q-27 -16 -52.5 -34.5t-52.5 -37.5q-10 -8 -23 -20t-13 -29z" />
<glyph unicode="&#xef;" horiz-adv-x="514" d="M-63 186q0 -12 6 -31.5t17 -38t24.5 -31.5t25.5 -15q16 -4 25.5 -5.5t17.5 -4.5t14.5 -10t16.5 -21q14 -18 27.5 -32.5t38.5 -14.5q16 0 30.5 5t28.5 11q23 10 29 17.5t14 29.5q16 47 32.5 91t34.5 91q47 121 96.5 240t110.5 233q8 14 21.5 39t13.5 41q0 12 -12 30.5 t-28.5 39t-33 37l-24.5 24.5q-23 23 -59.5 45.5t-69.5 22.5q-12 0 -20.5 -10.5t-14.5 -20.5q-23 -41 -43 -81t-43 -81q-41 -80 -83 -159.5t-77 -161.5q-16 -35 -29.5 -69t-29.5 -68q-4 -10 -14.5 -28.5t-19.5 -40t-16 -41t-7 -32.5zM254 1237q0 -25 13.5 -52.5t34 -50 t46 -38t51.5 -15.5q16 0 34 8.5t28 18.5q16 16 25.5 36.5t19.5 39.5q16 27 34.5 59.5t18.5 65.5q0 31 -15.5 51t-37.5 39q-6 6 -20.5 16t-31 19.5t-32.5 16.5t-25 7h-6q-29 0 -53.5 -25.5t-43 -61.5t-29.5 -72.5t-11 -61.5zM584 1116q0 -29 12 -54.5t32.5 -47t46 -33.5 t54.5 -12q57 0 84 49q4 8 16.5 32.5t25.5 52t23.5 53.5t10.5 36q0 20 -19.5 45t-47 46.5t-55.5 36.5t-46 15q-12 0 -29.5 -6t-27.5 -14q-12 -10 -25.5 -37t-26 -57.5t-20.5 -59t-8 -45.5z" />
<glyph unicode="&#xf1;" horiz-adv-x="907" d="M-53 201q0 -16 9 -30.5t22.5 -28t27.5 -25t27 -19.5q14 -10 34.5 -25.5t42 -29.5t44 -23.5t43.5 -9.5q25 0 39 27q18 41 36.5 82t35 82t28.5 83t26 83q18 53 42 104t40 104q6 23 14.5 33t18.5 16.5t22.5 12.5t28.5 20q4 0 5.5 1t5.5 1q18 0 18 -20q0 -27 -13.5 -70 t-31.5 -89t-36.5 -87t-29.5 -63l-43 -99q-10 -18 -30.5 -54t-20.5 -58q0 -10 22.5 -37t52.5 -54.5t59.5 -48t43.5 -20.5q4 0 18.5 4t20.5 6q29 8 46.5 12.5t30.5 11.5t23.5 21.5t22.5 40.5q57 123 97 253t77 259q10 35 17.5 71t7.5 71q0 51 -21.5 99t-52.5 87 q-8 10 -22.5 26.5t-32 33t-34.5 27.5t-32 11q-18 0 -48 -13t-58.5 -28.5t-51 -28t-30.5 -12.5q-10 0 -19 17q-4 6 -5 11t-5 11q-2 2 -25.5 14.5t-53 27t-56.5 25.5t-33 11q-18 0 -32.5 -11t-23.5 -26.5t-16.5 -35t-11.5 -33.5q-20 -70 -40.5 -138.5t-49.5 -134.5 q-8 -20 -25.5 -57t-39 -82t-43 -93t-40 -92t-30.5 -77t-12 -47zM301 1255q0 -23 11.5 -35t27.5 -28q10 -10 25.5 -27.5t31.5 -17.5q18 0 33.5 11t28 23.5t21.5 24t16 11.5q6 0 18 -9q29 -20 53.5 -36.5t49 -29t52 -18.5t64.5 -6q72 0 122 25.5t103 73.5q16 14 34 31t18 40 q0 8 -7.5 19.5t-16.5 21.5t-18.5 19.5l-15.5 15.5q-10 10 -20 19.5t-27 9.5q-16 0 -31.5 -8.5t-29 -19.5t-23.5 -19.5t-16 -8.5q-4 0 -24.5 14.5t-52.5 31t-72 30.5t-85 14q-133 0 -223 -96q-12 -12 -29.5 -33.5t-17.5 -42.5z" />
<glyph unicode="&#xf2;" horiz-adv-x="884" d="M-14 317q0 -59 29.5 -121.5t77.5 -113.5t107.5 -84t121.5 -33q55 0 111 21.5t108.5 55.5t97.5 75t78 82q72 88 116 196t44 223q0 12 -2.5 38t-5.5 53.5t-7 52t-10 35.5q-8 10 -18.5 17t-22.5 13.5t-41 15.5t-43 9h-14t-15 2q-6 2 -12 12.5t-11 23.5t-9 25.5t-7 18.5 q-16 43 -33.5 70.5t-68.5 27.5q-55 0 -97 -22.5t-85 -55.5q-41 -31 -82 -64.5t-78 -70.5q-43 -43 -84 -104.5t-72.5 -129t-52 -137t-20.5 -131.5zM307 293q0 16 14.5 52t34 76t40 74.5t30.5 47.5l70 80q6 6 22.5 25.5t26.5 19.5q12 0 15 -13.5t3 -23.5q0 -35 -14 -70 q-8 -16 -19.5 -33.5t-21.5 -33.5l-51 -86q-6 -10 -24.5 -32t-40 -44.5t-42 -40t-31.5 -17.5q-8 0 -10 6.5t-2 12.5zM487 1337q0 -14 9.5 -30.5t24 -31.5t27.5 -28.5t23 -21.5q29 -31 58 -64l45 -55q12 -14 38.5 -36.5t47.5 -22.5q10 0 31 4q27 4 42 7t15 36q0 29 -2 50 t-5 41.5t-7.5 41t-10.5 49.5q-4 23 -8 46.5t-8 45.5q-6 35 -23.5 52.5t-54.5 17.5q-27 0 -55.5 -9.5l-52.5 -17.5q-10 -4 -33 -10t-45.5 -15.5t-39 -21.5t-16.5 -27z" />
<glyph unicode="&#xf3;" horiz-adv-x="884" d="M-14 317q0 -59 29.5 -121.5t77.5 -113.5t107.5 -84t121.5 -33q55 0 111 21.5t108.5 55.5t97.5 75t78 82q72 88 116 196t44 223q0 12 -2.5 38t-5.5 53.5t-7 52t-10 35.5q-8 10 -18.5 17t-22.5 13.5t-41 15.5t-43 9h-14t-15 2q-6 2 -12 12.5t-11 23.5t-9 25.5t-7 18.5 q-16 43 -33.5 70.5t-68.5 27.5q-55 0 -97 -22.5t-85 -55.5q-41 -31 -82 -64.5t-78 -70.5q-43 -43 -84 -104.5t-72.5 -129t-52 -137t-20.5 -131.5zM307 293q0 16 14.5 52t34 76t40 74.5t30.5 47.5l70 80q6 6 22.5 25.5t26.5 19.5q12 0 15 -13.5t3 -23.5q0 -35 -14 -70 q-8 -16 -19.5 -33.5t-21.5 -33.5l-51 -86q-6 -10 -24.5 -32t-40 -44.5t-42 -40t-31.5 -17.5q-8 0 -10 6.5t-2 12.5zM627 1139q0 -20 24.5 -28.5t40.5 -8.5q33 0 61.5 10t57.5 25q66 31 131.5 59.5t130.5 58.5q16 8 38 24t22 36q0 14 -28 35.5t-62.5 41t-70.5 33t-50 13.5 q-35 0 -51.5 -11.5t-39.5 -37.5q-51 -57 -99 -113.5t-97 -114.5q-8 -8 -8 -22z" />
<glyph unicode="&#xf4;" horiz-adv-x="884" d="M-14 317q0 -59 29.5 -121.5t77.5 -113.5t107.5 -84t121.5 -33q55 0 111 21.5t108.5 55.5t97.5 75t78 82q72 88 116 196t44 223q0 12 -2.5 38t-5.5 53.5t-7 52t-10 35.5q-8 10 -18.5 17t-22.5 13.5t-41 15.5t-43 9h-14t-15 2q-6 2 -12 12.5t-11 23.5t-9 25.5t-7 18.5 q-16 43 -33.5 70.5t-68.5 27.5q-55 0 -97 -22.5t-85 -55.5q-41 -31 -82 -64.5t-78 -70.5q-43 -43 -84 -104.5t-72.5 -129t-52 -137t-20.5 -131.5zM307 293q0 16 14.5 52t34 76t40 74.5t30.5 47.5l70 80q6 6 22.5 25.5t26.5 19.5q12 0 15 -13.5t3 -23.5q0 -35 -14 -70 q-8 -16 -19.5 -33.5t-21.5 -33.5l-51 -86q-6 -10 -24.5 -32t-40 -44.5t-42 -40t-31.5 -17.5q-8 0 -10 6.5t-2 12.5zM379 1210q0 -14 10 -25t25.5 -18.5t31 -10.5t27.5 -3q25 0 54.5 7t60 18.5t60.5 22.5t52 22q12 -16 24.5 -31.5t23.5 -34.5q6 -12 15 -29.5t21.5 -35 t26.5 -29.5t33 -12q16 0 30.5 4t30.5 6q29 4 58.5 9t58.5 5q10 4 21.5 18.5t11.5 24.5q0 14 -15.5 42t-35 58.5t-39 57.5t-25.5 37q-18 27 -34.5 52.5t-36 46t-44 31.5t-61.5 11q-16 0 -37.5 -9t-42 -21.5t-39 -25t-31.5 -18.5q-23 -14 -45 -26.5t-45 -26.5 q-27 -16 -53.5 -33.5t-52.5 -33.5q-12 -8 -25.5 -20.5t-13.5 -29.5z" />
<glyph unicode="&#xf5;" horiz-adv-x="884" d="M-14 317q0 -59 29.5 -121.5t77.5 -113.5t107.5 -84t121.5 -33q55 0 111 21.5t108.5 55.5t97.5 75t78 82q72 88 116 196t44 223q0 12 -2.5 38t-5.5 53.5t-7 52t-10 35.5q-8 10 -18.5 17t-22.5 13.5t-41 15.5t-43 9h-14t-15 2q-6 2 -12 12.5t-11 23.5t-9 25.5t-7 18.5 q-16 43 -33.5 70.5t-68.5 27.5q-55 0 -97 -22.5t-85 -55.5q-41 -31 -82 -64.5t-78 -70.5q-43 -43 -84 -104.5t-72.5 -129t-52 -137t-20.5 -131.5zM307 293q0 16 14.5 52t34 76t40 74.5t30.5 47.5l70 80q6 6 22.5 25.5t26.5 19.5q12 0 15 -13.5t3 -23.5q0 -35 -14 -70 q-8 -16 -19.5 -33.5t-21.5 -33.5l-51 -86q-6 -10 -24.5 -32t-40 -44.5t-42 -40t-31.5 -17.5q-8 0 -10 6.5t-2 12.5zM401 1253q0 -12 11.5 -30.5t26 -36t29.5 -30.5t24 -13q18 0 33.5 9t27.5 21.5t21.5 21.5t17.5 9t27.5 -18.5t51 -42t74.5 -42t103 -18.5q35 0 70.5 8.5 t66.5 26.5q12 8 33.5 21.5t42 29t35 32t14.5 32.5q0 18 -19.5 40.5t-29.5 37t-20.5 23.5t-28.5 9q-14 0 -30.5 -7t-31 -16t-26 -16.5t-13.5 -7.5q-4 0 -7 3.5t-5 5.5q-51 47 -110.5 74.5t-129.5 27.5q-117 0 -204 -76q-16 -14 -35 -34.5t-19 -43.5z" />
<glyph unicode="&#xf6;" horiz-adv-x="884" d="M-14 317q0 -59 29.5 -121.5t77.5 -113.5t107.5 -84t121.5 -33q55 0 111 21.5t108.5 55.5t97.5 75t78 82q72 88 116 196t44 223q0 12 -2.5 38t-5.5 53.5t-7 52t-10 35.5q-8 10 -18.5 17t-22.5 13.5t-41 15.5t-43 9h-14t-15 2q-6 2 -12 12.5t-11 23.5t-9 25.5t-7 18.5 q-16 43 -33.5 70.5t-68.5 27.5q-55 0 -97 -22.5t-85 -55.5q-41 -31 -82 -64.5t-78 -70.5q-43 -43 -84 -104.5t-72.5 -129t-52 -137t-20.5 -131.5zM307 293q0 16 14.5 52t34 76t40 74.5t30.5 47.5l70 80q6 6 22.5 25.5t26.5 19.5q12 0 15 -13.5t3 -23.5q0 -35 -14 -70 q-8 -16 -19.5 -33.5t-21.5 -33.5l-51 -86q-6 -10 -24.5 -32t-40 -44.5t-42 -40t-31.5 -17.5q-8 0 -10 6.5t-2 12.5zM426 1264q0 -25 13.5 -51.5t34 -50t47 -39t50.5 -15.5q12 0 33 9t29 18q10 10 23.5 36.5t21.5 40.5q16 25 34.5 58.5t18.5 64.5t-15.5 51.5t-37.5 38.5 q-8 6 -22.5 16.5t-30 19.5t-29.5 16.5t-27 7.5h-8q-29 0 -53.5 -25.5t-43 -61.5t-28.5 -73t-10 -61zM756 1130q0 -27 12 -53t32.5 -47.5t46 -35t54.5 -13.5q57 0 84 51q6 10 18.5 34t24.5 50.5t22.5 51t10.5 36.5q0 20 -19.5 45t-47 46.5t-55.5 37t-46 15.5 q-12 0 -29.5 -5.5t-27.5 -13.5q-12 -10 -26.5 -36.5t-26 -57.5t-19.5 -59.5t-8 -45.5z" />
<glyph unicode="&#xf8;" horiz-adv-x="884" d="M-178 186q0 -10 4 -30q4 -31 17.5 -41.5t45.5 -10.5q10 0 33 13.5t33 19.5q16 10 35.5 16.5t36.5 16.5q6 -23 12 -36t15 -23.5t21.5 -19.5t30.5 -23q47 -37 110 -72t124 -35q66 0 130.5 36t115.5 75q63 49 109 95t79 97t55.5 113.5t40.5 142.5q10 45 11 82q0 12 -2 19 q41 20 72.5 40.5t70.5 43.5q10 6 15 11t5 17q0 23 -11 31t-27 18q-6 4 -15.5 12.5t-19.5 8.5q-8 0 -21.5 -5t-28 -12.5t-27.5 -14.5t-22 -11l-19 28.5t-15.5 17.5t-20.5 13t-33 12q-23 6 -40 10.5t-40 8.5q-2 0 -9 11t-15 25.5t-14.5 28t-6.5 15.5q-4 10 -7 22.5t-7 22.5 q-10 29 -33.5 44t-52.5 15q-35 0 -78 -19.5t-85 -48t-80 -60.5t-62 -54q-29 -29 -60.5 -63.5t-59.5 -73.5t-50.5 -80t-32.5 -80q-4 -10 -13 -42t-19.5 -68.5t-18.5 -70.5t-8 -50q0 -10 1 -17.5t3 -17.5q-29 -10 -50.5 -25.5t-47.5 -25.5l-56 -25q-18 -6 -18 -27zM287 279 q0 12 4 28q23 8 44 21.5t44 25.5q29 16 58.5 33t58.5 35q-4 -12 -24.5 -41t-48.5 -59.5t-57.5 -54t-50.5 -23.5q-29 0 -28 35zM369 483q14 27 25.5 45.5t23.5 34t26.5 32.5t34.5 40q16 16 30.5 27.5t37.5 11.5q20 0 29.5 -5t11.5 -15.5t1 -24t1 -29.5q-16 -10 -34.5 -17.5 t-37.5 -17.5q-39 -18 -75.5 -38.5t-73.5 -43.5z" />
<glyph unicode="&#xf9;" d="M-10 276q0 -33 16.5 -79.5t43 -90t61 -74t71.5 -30.5q31 0 65 17.5t63.5 38t52 38t30.5 17.5q4 0 7 -7.5t6 -11.5q6 -16 14 -26.5t16 -24.5q31 -16 54.5 -25.5t47 -17.5t50 -15.5t61.5 -17.5q23 -6 32 15.5t11 37.5q4 20 8.5 41t8.5 41l34 152q10 47 23.5 93t30.5 93 q14 41 27.5 81t29.5 81q6 12 18.5 42t24.5 62.5t22.5 63.5t10.5 49q0 35 -18.5 40t-45.5 13q-14 4 -35.5 31t-29.5 37l-19 23q-10 12 -37.5 16t-44.5 4q-18 0 -27 -6t-20 -23q-18 -27 -33.5 -59.5t-30 -68t-26.5 -70.5t-22 -66q-23 -61 -46.5 -123.5t-39.5 -128.5 q-6 -25 -11.5 -34t-27.5 -21q-4 -2 -12.5 -7t-18.5 -10.5t-19.5 -9.5t-11.5 -4q-8 0 -12 7.5t-4 13.5q0 10 3 22.5t7 22.5q10 29 17.5 56.5t17.5 55.5l19 48q18 47 41.5 103t42 105.5t18.5 55.5q0 20 -25.5 48t-59.5 54.5t-70 45t-54 18.5q-35 0 -52.5 -21.5t-29.5 -50.5 q-23 -53 -60.5 -139t-73.5 -181.5t-62.5 -186.5t-26.5 -153zM336 1364q0 -14 9 -29.5t23.5 -31t28 -28.5t23.5 -22q53 -55 102 -120q12 -16 39 -37t47 -21q16 0 33.5 2t34.5 8q16 4 18 11.5t2 23.5q0 18 1 38t-3 36q-4 29 -11 55.5t-11 55.5q-4 23 -8.5 45t-8.5 45 q-6 35 -23.5 52t-53.5 17q-27 0 -55.5 -9t-53.5 -17q-10 -4 -32.5 -10.5t-45 -15.5t-39 -21.5t-16.5 -26.5z" />
<glyph unicode="&#xfa;" d="M-10 276q0 -33 16.5 -79.5t43 -90t61 -74t71.5 -30.5q31 0 65 17.5t63.5 38t52 38t30.5 17.5q4 0 7 -7.5t6 -11.5q6 -16 14 -26.5t16 -24.5q31 -16 54.5 -25.5t47 -17.5t50 -15.5t61.5 -17.5q23 -6 32 15.5t11 37.5q4 20 8.5 41t8.5 41l34 152q10 47 23.5 93t30.5 93 q14 41 27.5 81t29.5 81q6 12 18.5 42t24.5 62.5t22.5 63.5t10.5 49q0 35 -18.5 40t-45.5 13q-14 4 -35.5 31t-29.5 37l-19 23q-10 12 -37.5 16t-44.5 4q-18 0 -27 -6t-20 -23q-18 -27 -33.5 -59.5t-30 -68t-26.5 -70.5t-22 -66q-23 -61 -46.5 -123.5t-39.5 -128.5 q-6 -25 -11.5 -34t-27.5 -21q-4 -2 -12.5 -7t-18.5 -10.5t-19.5 -9.5t-11.5 -4q-8 0 -12 7.5t-4 13.5q0 10 3 22.5t7 22.5q10 29 17.5 56.5t17.5 55.5l19 48q18 47 41.5 103t42 105.5t18.5 55.5q0 20 -25.5 48t-59.5 54.5t-70 45t-54 18.5q-35 0 -52.5 -21.5t-29.5 -50.5 q-23 -53 -60.5 -139t-73.5 -181.5t-62.5 -186.5t-26.5 -153zM543 1139q0 -23 25.5 -30t41.5 -7q33 0 61.5 10t57.5 25q66 31 130.5 59.5t129.5 58.5q16 8 39 22.5t23 37.5q0 14 -27 35.5t-62.5 41t-71.5 33t-52 13.5q-35 0 -50.5 -12.5t-37.5 -36.5q-51 -55 -100.5 -112.5 t-98.5 -115.5q-8 -8 -8 -22z" />
<glyph unicode="&#xfb;" d="M-10 276q0 -33 16.5 -79.5t43 -90t61 -74t71.5 -30.5q31 0 65 17.5t63.5 38t52 38t30.5 17.5q4 0 7 -7.5t6 -11.5q6 -16 14 -26.5t16 -24.5q31 -16 54.5 -25.5t47 -17.5t50 -15.5t61.5 -17.5q23 -6 32 15.5t11 37.5q4 20 8.5 41t8.5 41l34 152q10 47 23.5 93t30.5 93 q14 41 27.5 81t29.5 81q6 12 18.5 42t24.5 62.5t22.5 63.5t10.5 49q0 35 -18.5 40t-45.5 13q-14 4 -35.5 31t-29.5 37l-19 23q-10 12 -37.5 16t-44.5 4q-18 0 -27 -6t-20 -23q-18 -27 -33.5 -59.5t-30 -68t-26.5 -70.5t-22 -66q-23 -61 -46.5 -123.5t-39.5 -128.5 q-6 -25 -11.5 -34t-27.5 -21q-4 -2 -12.5 -7t-18.5 -10.5t-19.5 -9.5t-11.5 -4q-8 0 -12 7.5t-4 13.5q0 10 3 22.5t7 22.5q10 29 17.5 56.5t17.5 55.5l19 48q18 47 41.5 103t42 105.5t18.5 55.5q0 20 -25.5 48t-59.5 54.5t-70 45t-54 18.5q-35 0 -52.5 -21.5t-29.5 -50.5 q-23 -53 -60.5 -139t-73.5 -181.5t-62.5 -186.5t-26.5 -153zM342 1184q0 -14 9 -24.5t23.5 -16.5t30 -9.5t25.5 -3.5q23 0 53.5 10.5t63.5 24t62.5 28.5t52.5 28q14 -16 28.5 -30.5t24.5 -31.5q8 -12 18 -28.5t23.5 -32t29 -25.5t31.5 -10t31.5 5t32.5 9q29 6 57.5 10.5 t54.5 14.5q8 4 19.5 19.5t11.5 25.5q0 12 -17.5 39.5t-41 56.5t-45 54.5t-27.5 33.5q-20 25 -37.5 47.5t-36 41t-42 28.5t-58.5 10q-45 0 -84 -31.5t-74 -56.5l-86 -61q-25 -18 -49.5 -38t-48.5 -38q-10 -8 -22.5 -20.5t-12.5 -28.5z" />
<glyph unicode="&#xfc;" d="M-10 276q0 -33 16.5 -79.5t43 -90t61 -74t71.5 -30.5q31 0 65 17.5t63.5 38t52 38t30.5 17.5q4 0 7 -7.5t6 -11.5q6 -16 14 -26.5t16 -24.5q31 -16 54.5 -25.5t47 -17.5t50 -15.5t61.5 -17.5q23 -6 32 15.5t11 37.5q4 20 8.5 41t8.5 41l34 152q10 47 23.5 93t30.5 93 q14 41 27.5 81t29.5 81q6 12 18.5 42t24.5 62.5t22.5 63.5t10.5 49q0 35 -18.5 40t-45.5 13q-14 4 -35.5 31t-29.5 37l-19 23q-10 12 -37.5 16t-44.5 4q-18 0 -27 -6t-20 -23q-18 -27 -33.5 -59.5t-30 -68t-26.5 -70.5t-22 -66q-23 -61 -46.5 -123.5t-39.5 -128.5 q-6 -25 -11.5 -34t-27.5 -21q-4 -2 -12.5 -7t-18.5 -10.5t-19.5 -9.5t-11.5 -4q-8 0 -12 7.5t-4 13.5q0 10 3 22.5t7 22.5q10 29 17.5 56.5t17.5 55.5l19 48q18 47 41.5 103t42 105.5t18.5 55.5q0 20 -25.5 48t-59.5 54.5t-70 45t-54 18.5q-35 0 -52.5 -21.5t-29.5 -50.5 q-23 -53 -60.5 -139t-73.5 -181.5t-62.5 -186.5t-26.5 -153zM356 1210q0 -25 13.5 -52.5t34 -50t46 -37.5t52.5 -15q12 0 31.5 7t29.5 17.5t16.5 23.5l12.5 25q16 35 43 75t27 79q0 29 -15.5 49.5t-38.5 38.5q-18 16 -51 36.5t-57 23.5q-2 2 -8 2q-29 0 -53.5 -26t-43 -61.5 t-29 -73.5t-10.5 -61zM713 1212q0 -27 13 -53t33.5 -47.5t47.5 -35t53 -13.5q57 0 84 51q6 10 18.5 33.5t24.5 50.5t21.5 51.5t9.5 36.5q0 20 -19.5 45t-45 46.5t-54.5 37t-47 15.5q-14 0 -31.5 -4.5t-27.5 -14.5q-10 -8 -24.5 -34.5t-27 -57.5t-20.5 -61.5t-8 -45.5z" />
<glyph unicode="&#xff;" horiz-adv-x="811" d="M-199 -260q0 -31 26 -56.5t44 -45.5q10 -10 17.5 -21.5t13.5 -22.5q23 -37 40 -52t62 -15q29 0 58.5 17.5t57 42t51.5 51t42 47.5l158 172q35 39 83 105.5t101 149.5t104.5 175t92.5 181t66.5 168t25.5 134q0 45 -17.5 85t-47 70.5t-69.5 49t-85 18.5q-25 0 -31 -12 t-12 -35q-18 -59 -37 -120.5t-41 -120.5q-27 -76 -72 -154q-14 -25 -28.5 -50.5t-22.5 -54.5q-4 -10 -8 -21t-15 -19h-4q-4 4 -4 14q0 16 4 33.5t8 33.5q8 49 17.5 97.5t26.5 95.5q10 29 22 64.5t12 66.5t-26 53q-16 14 -36 25.5t-36 21.5q-12 8 -31.5 20.5t-40 25t-41 20.5 t-36.5 8q-10 0 -36 -10t-36 -19q-12 -10 -18.5 -31.5t-10.5 -35.5q-27 -113 -41 -224.5t-18 -228.5q-2 -29 -2 -59q0 -31 -4 -60q-4 -23 -8.5 -50t-4.5 -50q0 -35 17.5 -58.5t39 -42t39 -31.5t17.5 -24q0 -16 -15.5 -38.5t-37 -46t-43 -43t-33.5 -27.5q-23 -18 -39 -29.5 t-30.5 -19t-32 -14.5t-43.5 -19q-8 -4 -22.5 -12.5t-18.5 -16.5q-6 -10 -8.5 -26.5t-2.5 -28.5zM252 1210q0 -25 13.5 -52.5t35 -51t47 -37.5t51.5 -14q12 0 32 7t28 17q10 10 17 23.5t13 25.5q16 35 42 75t26 79q0 29 -15.5 49.5t-37.5 38.5q-18 16 -51 36.5t-58 23.5 q-2 2 -6 2q-29 0 -53.5 -26t-43 -61.5t-29.5 -72.5t-11 -62zM625 1212q0 -27 12 -53t32.5 -47.5t46 -35t54.5 -13.5q57 0 84 51q6 10 18.5 33.5t24.5 50.5t21.5 51.5t9.5 36.5q0 20 -19.5 46t-45 47.5t-54.5 36t-47 14.5q-14 0 -31.5 -4.5t-28.5 -14.5q-12 -10 -25 -35.5 t-25.5 -56.5t-19.5 -60.5t-7 -46.5z" />
<glyph unicode="&#x152;" horiz-adv-x="1417" d="M61 358q0 -49 7.5 -81.5t22.5 -60.5t41 -53.5t61 -58.5q18 -18 42.5 -39.5t52 -41t55.5 -33t56 -13.5q53 0 119 28t111 54q31 -43 53.5 -59t77.5 -16q76 0 149.5 9t147.5 19q25 2 45 3t37.5 4.5t32 13.5t28.5 33q18 31 29 71l6 25q6 16 18.5 32.5t12.5 34.5t-18.5 49 t-43.5 31q-10 0 -16 -3t-14 -5q-12 -2 -27 -2h-25q-43 -2 -87 -4t-87 -2q-14 0 -33.5 2t-19.5 22q0 6 11.5 30t15.5 32q16 39 34.5 73.5t40.5 69.5q10 12 17.5 17.5t23.5 5.5q59 0 121 -3t121 -3q18 0 28.5 2t17.5 8t14.5 14t17.5 21q4 6 15 17t11 20l5 73q2 23 -3.5 46.5 t-19.5 41.5q-39 23 -78 23t-82 4q-10 0 -33.5 1t-23.5 13q0 10 17.5 40t40 64t45 63.5t34.5 41.5q12 4 25 4h24t33 -1t43.5 -3t42 -5t29.5 -7q14 -4 24.5 -12.5t26.5 -8.5q29 0 43 25.5t14 50.5q0 41 -12 63.5t-25 61.5q-4 14 -7 28.5t-7 28.5q-6 25 -28.5 35.5t-45.5 14.5 q-49 10 -101 17t-103 7q-35 0 -68 -3t-68 -7q-27 -4 -52 -6t-52 -2h-25q-10 0 -22 -2q-10 0 -29.5 -5.5t-40 -11.5t-37 -10t-18.5 -4q-6 0 -21.5 21.5t-36 47t-43 47t-47.5 21.5q-29 0 -65.5 -20.5t-73.5 -49t-68.5 -58t-50.5 -48.5q-82 -84 -151.5 -187.5t-120.5 -219 t-81 -237.5t-30 -239zM397 352q0 41 19.5 88t34.5 82q41 111 92 218.5t119 203.5q4 6 11 15.5t16 19.5t18.5 17.5t17.5 7.5q20 0 28.5 -26t8.5 -42t-6 -44t-15.5 -58.5t-19.5 -58t-19 -42.5q-25 -41 -47 -84t-45 -86q-25 -47 -58.5 -91t-64.5 -89q-10 -14 -31.5 -40 t-39.5 -26q-10 0 -14.5 13.5t-4.5 21.5z" />
<glyph unicode="&#x153;" horiz-adv-x="1298" d="M-18 311q0 -59 31.5 -120.5t82.5 -110.5t112.5 -81t121.5 -32q70 0 125 34t112 69q20 -8 43 -31t39 -37q12 -10 35 -17.5t49.5 -10.5t51 -4t40.5 -1q27 0 52.5 2t50.5 11q8 2 32.5 8t52 15t52.5 18.5t31 17.5q8 10 14 34.5t12 39.5q8 16 17.5 33.5t9.5 35.5q0 12 -6 26.5 t-17.5 29t-23.5 23.5t-25 9q-12 0 -33.5 -7t-46 -14t-48 -14.5t-40.5 -7.5q-55 0 -80.5 20.5t-25.5 80.5q0 10 5 34.5t19 24.5q2 0 12.5 -10t22.5 -22.5t26.5 -22.5t26.5 -10q35 0 72 8t72 18q41 10 82 29.5t71 50.5q27 27 48.5 62.5t37 76.5t23.5 83t8 79q0 76 -41 128 t-106 83q-29 14 -70 29.5t-74 15.5q-31 0 -62.5 -8t-60 -16.5t-48 -13.5t-37 -13t-35 -18.5t-41.5 -28.5q-2 -2 -13.5 -6t-13.5 -4q-10 -4 -18.5 -11.5t-16.5 -11.5q-6 20 -11 41t-9 43q-10 41 -49 67.5t-80 26.5q-51 0 -90 -24.5t-80 -53.5q-41 -33 -83 -65.5t-79 -69.5 q-41 -41 -81 -104.5t-73.5 -134t-54 -142t-20.5 -129.5zM305 299q0 35 16.5 68.5t33 62.5t32.5 59.5t37 55.5l70 86q6 8 21 23.5t26 15.5q10 0 15 -9.5t5 -19.5q0 -37 -23.5 -90t-59.5 -105.5t-76 -97.5t-70 -63q-12 -8 -21 -9q-4 0 -5 10.5t-1 12.5zM889 553q0 8 8 20.5 t18.5 24.5t19.5 22.5t13 14.5t16.5 19.5t27 31.5t28.5 28.5t24 12.5q8 0 9.5 -7t1.5 -13q0 -20 -8.5 -43t-16.5 -41q-14 -33 -25.5 -44.5t-43.5 -21.5q-10 -4 -29 -12t-27 -8q-16 0 -16 16z" />
<glyph unicode="&#x178;" horiz-adv-x="837" d="M10 141q0 -16 9.5 -39.5t22.5 -47t30.5 -41t33.5 -21.5q23 -6 44.5 -8t44.5 -11q14 -8 37.5 -15t39.5 -7q35 0 59.5 23.5t43.5 48.5q53 76 107.5 149.5t107.5 149.5q25 33 65.5 100t90 152t98.5 181.5t90 186.5t66.5 167t25.5 124q0 27 -23.5 61.5t-55.5 64.5t-67.5 50.5 t-60.5 20.5q-41 0 -56 -29t-26 -62q-29 -98 -74 -188t-81 -186q-2 -6 -8.5 -21.5t-14.5 -33t-17.5 -31t-15.5 -13.5q-8 0 -13 8.5t-8 19.5t-4 22.5t-1 17.5q0 53 7 105.5t15 103.5q4 23 12.5 61.5t8.5 59.5q0 35 -31 50t-57 27q-23 10 -37.5 17.5t-28.5 12.5t-29.5 8 t-37.5 3q-12 0 -31 -1t-38.5 -4t-36.5 -10t-26 -17q-10 -12 -17 -54.5t-11 -89.5t-6 -90t-2 -61q0 -61 6 -123t12 -121q6 -68 18 -135q6 -29 14.5 -47.5t21 -30.5t29.5 -23.5t42 -25.5q4 -4 10 -9t6 -12q0 -6 -4 -14t-8 -14q-27 -41 -52.5 -78t-58.5 -72 q-35 -39 -72.5 -71.5t-74.5 -69.5q-12 -12 -22.5 -30.5t-10.5 -37.5zM354 1632q0 -25 13.5 -52.5t35 -50t48 -37.5t51.5 -15q10 0 30.5 9t28.5 17q16 16 26.5 37l20.5 41q14 25 32.5 59.5t18.5 63.5q0 31 -15 51.5t-38 38.5q-18 16 -51 37.5t-57 21.5h-6q-29 0 -54.5 -25.5 t-44 -61t-29 -72.5t-10.5 -62zM727 1649q0 -29 12.5 -54.5t33 -47t46 -34t53.5 -12.5q27 0 49.5 12.5t34.5 36.5q6 10 18.5 34t25 51.5t21.5 52t9 36.5q0 20 -19.5 45t-47 46.5t-55 37t-44.5 15.5q-12 0 -30.5 -6.5t-28.5 -14.5q-12 -10 -25.5 -35.5t-26 -56.5t-19.5 -60.5 t-7 -45.5z" />
<glyph unicode="&#x2000;" horiz-adv-x="942" />
<glyph unicode="&#x2001;" horiz-adv-x="1884" />
<glyph unicode="&#x2002;" horiz-adv-x="942" />
<glyph unicode="&#x2003;" horiz-adv-x="1884" />
<glyph unicode="&#x2004;" horiz-adv-x="628" />
<glyph unicode="&#x2005;" horiz-adv-x="471" />
<glyph unicode="&#x2006;" horiz-adv-x="314" />
<glyph unicode="&#x2007;" horiz-adv-x="314" />
<glyph unicode="&#x2008;" horiz-adv-x="235" />
<glyph unicode="&#x2009;" horiz-adv-x="376" />
<glyph unicode="&#x200a;" horiz-adv-x="104" />
<glyph unicode="&#x2010;" horiz-adv-x="542" d="M-20 412q0 -23 15 -36.5t36 -13.5q86 0 173 -1t173 -3q37 0 60.5 9.5t41 26t29.5 41t29 52.5q10 16 24 44.5t14 48.5q0 29 -25.5 35t-47.5 6h-197q-16 0 -31.5 -2.5t-31.5 -2.5q-25 0 -49.5 1t-49.5 4q-41 2 -72.5 -25t-47.5 -61q-4 -10 -11.5 -26.5t-14.5 -35t-12 -35 t-5 -26.5z" />
<glyph unicode="&#x2011;" horiz-adv-x="542" d="M-20 412q0 -23 15 -36.5t36 -13.5q86 0 173 -1t173 -3q37 0 60.5 9.5t41 26t29.5 41t29 52.5q10 16 24 44.5t14 48.5q0 29 -25.5 35t-47.5 6h-197q-16 0 -31.5 -2.5t-31.5 -2.5q-25 0 -49.5 1t-49.5 4q-41 2 -72.5 -25t-47.5 -61q-4 -10 -11.5 -26.5t-14.5 -35t-12 -35 t-5 -26.5z" />
<glyph unicode="&#x2012;" horiz-adv-x="542" d="M-20 412q0 -23 15 -36.5t36 -13.5q86 0 173 -1t173 -3q37 0 60.5 9.5t41 26t29.5 41t29 52.5q10 16 24 44.5t14 48.5q0 29 -25.5 35t-47.5 6h-197q-16 0 -31.5 -2.5t-31.5 -2.5q-25 0 -49.5 1t-49.5 4q-41 2 -72.5 -25t-47.5 -61q-4 -10 -11.5 -26.5t-14.5 -35t-12 -35 t-5 -26.5z" />
<glyph unicode="&#x2013;" horiz-adv-x="971" d="M-20 412q0 -23 26 -36.5t62 -13.5q148 0 297.5 -1t297.5 -3q64 0 104.5 9.5t70.5 26t50.5 41t50.5 52.5q17 16 41 44.5t24 48.5q0 29 -44 35t-82 6h-339q-27 0 -54 -2.5t-54 -2.5q-43 0 -85 1t-85 4q-71 2 -125 -25t-82 -61q-7 -10 -20 -26.5t-25 -35t-20.5 -35 t-8.5 -26.5z" />
<glyph unicode="&#x2014;" horiz-adv-x="1198" d="M-8 426q0 -16 10 -28.5t25.5 -20.5t32 -11.5t30.5 -3.5h180q170 0 338 -2t340 -2q27 0 57.5 2t61.5 9.5t56.5 22t39.5 40.5l31 55q10 16 20.5 39t10.5 43t-15.5 30.5t-36 14.5t-43 5.5t-34.5 1.5h-484q-39 0 -77.5 -2.5t-77.5 -2.5q-61 0 -124 2.5t-124 2.5 q-25 0 -53.5 -3.5t-55 -12.5t-49 -26.5t-33.5 -43.5q-8 -18 -17 -53.5t-9 -55.5z" />
<glyph unicode="&#x2019;" horiz-adv-x="471" d="M313 1161q0 -80 76 -98q-8 -29 -23.5 -52.5t-15.5 -54.5q0 -12 9.5 -16t19.5 -4q27 0 59.5 13.5t64.5 34t59.5 44t45.5 41.5q29 33 41.5 62.5t12.5 74.5q0 43 -11.5 59.5t-46.5 39.5q-16 10 -35.5 25.5t-40 29.5t-42 24.5t-40.5 10.5q-23 0 -30.5 -7.5t-22.5 -23.5 q-6 -8 -13 -16.5t-13.5 -18.5t-15.5 -33.5t-17 -49t-14.5 -49t-6.5 -36.5z" />
<glyph unicode="&#x201c;" horiz-adv-x="854" d="M287 1124q0 -43 12 -59t47 -39q16 -10 35.5 -25.5t40 -30t42 -24.5t40.5 -10q23 0 31 7t22 24q12 14 26.5 40.5t27 56.5t19.5 58.5t7 46.5q0 78 -76 99q8 29 23.5 52t15.5 54q0 12 -9 16.5t-20 4.5q-25 0 -57.5 -14.5t-65 -34t-61.5 -43t-45 -41.5q-29 -33 -42 -63 t-13 -75zM670 1124q0 -43 11 -59t46 -39q16 -10 36.5 -25.5t41 -30t42 -24.5t40.5 -10q23 0 31 7t20 24q6 8 13 16t14 18q8 12 17 35t17.5 47.5t14.5 48t6 37.5q0 37 -21.5 62.5t-56.5 36.5q10 25 25.5 51.5t15.5 54.5q0 10 -9 15.5t-20 5.5q-18 0 -45.5 -11.5t-44.5 -19.5 q-35 -16 -69.5 -40t-62 -53.5t-45 -66.5t-17.5 -80z" />
<glyph unicode="&#x201d;" horiz-adv-x="854" d="M313 1161q0 -80 76 -98q-8 -29 -23.5 -52.5t-15.5 -54.5q0 -12 9.5 -16t19.5 -4q27 0 59.5 13.5t64.5 34t59.5 44t45.5 41.5q29 33 41.5 62.5t12.5 74.5q0 43 -11.5 59.5t-46.5 39.5q-16 10 -35.5 25.5t-40 29.5t-42 24.5t-40.5 10.5q-23 0 -30.5 -7.5t-22.5 -23.5 q-6 -8 -13 -16.5t-13.5 -18.5t-15.5 -33.5t-17 -49t-14.5 -49t-6.5 -36.5zM696 1161q0 -80 76 -98q-8 -29 -24.5 -53.5t-16.5 -53.5q0 -10 9.5 -15t19.5 -5q27 0 59.5 13.5t65.5 34t61.5 44t44.5 41.5q29 33 41 63.5t12 73.5t-11 59.5t-46 39.5q-16 10 -36.5 25.5t-41 29.5 t-42 24.5t-40.5 10.5q-23 0 -31 -7.5t-20 -23.5q-6 -8 -13 -16.5t-13 -18.5q-8 -12 -17.5 -34.5t-17.5 -47t-13.5 -48t-5.5 -38.5z" />
<glyph unicode="&#x201e;" horiz-adv-x="854" d="M-82 96q0 -80 76 -98q-8 -29 -24.5 -53.5t-16.5 -53.5q0 -10 9 -15t20 -5q27 0 59.5 13.5t65 34t61.5 44t45 41.5q29 33 41 63.5t12 73.5t-11 59.5t-46 39.5q-16 10 -36.5 25.5t-41 29.5t-42 24.5t-40.5 10.5q-23 0 -31 -7.5t-20 -23.5q-6 -8 -13.5 -16.5t-13.5 -18.5 q-8 -12 -17 -34.5t-17.5 -47t-13.5 -48t-5 -38.5zM299 96q0 -78 76 -98q-8 -29 -23.5 -53.5t-15.5 -53.5q0 -12 9 -16t20 -4q27 0 58.5 13.5t64 33t60 43t46.5 43.5q29 33 42 62.5t13 74.5q0 43 -12 59.5t-47 39.5q-16 10 -35.5 25.5t-40 29.5t-42 24.5t-40.5 10.5 q-23 0 -31 -7.5t-22 -23.5q-12 -16 -26.5 -42t-27 -55.5t-19.5 -58t-7 -47.5z" />
<glyph unicode="&#x2022;" horiz-adv-x="1366" d="M401 696q0 -59 21.5 -110t60.5 -91t90.5 -62.5t110.5 -22.5q57 0 108.5 23.5t90.5 62.5t60.5 91t21.5 109t-21.5 109.5t-60.5 91.5t-90.5 62.5t-108.5 23.5q-59 0 -110.5 -22.5t-90.5 -62.5t-60.5 -92t-21.5 -110z" />
<glyph unicode="&#x202f;" horiz-adv-x="376" />
<glyph unicode="&#x205f;" horiz-adv-x="471" />
<glyph unicode="&#x25fc;" horiz-adv-x="1044" d="M0 0v1044h1044v-1044h-1044z" />
</font>
</defs>
</svg>
