<?xml version="1.0" standalone="no"?>
<!DOCTYPE svg PUBLIC "-//W3C//DTD SVG 1.1//EN" "http://www.w3.org/Graphics/SVG/1.1/DTD/svg11.dtd" >
<svg xmlns="http://www.w3.org/2000/svg" xmlns:xlink="http://www.w3.org/1999/xlink" version="1.1">
<metadata></metadata>
<defs>
<font id="flashefregular" horiz-adv-x="854" >
<font-face units-per-em="2048" ascent="1638" descent="-410" />
<missing-glyph horiz-adv-x="512" />
<glyph horiz-adv-x="0" />
<glyph horiz-adv-x="682" />
<glyph unicode="&#xd;" horiz-adv-x="1024" />
<glyph unicode=" "  horiz-adv-x="512" />
<glyph unicode="&#x09;" horiz-adv-x="512" />
<glyph unicode="&#xa0;" horiz-adv-x="512" />
<glyph unicode="!" horiz-adv-x="509" d="M-74 96q0 -14 7.5 -29.5t18.5 -28.5t25.5 -22.5t28.5 -9.5q10 0 16.5 2t16.5 4q10 -4 27.5 -12t27.5 -8q31 0 41 21.5t15 47.5q2 20 12 43t19 44.5t17.5 40t8.5 28.5q0 16 -21.5 36.5t-51.5 38t-59.5 29t-43.5 11.5q-29 0 -39 -23.5t-19 -46.5q-14 -37 -30.5 -81 t-16.5 -85zM106 508q0 -8 2.5 -18.5t8.5 -16.5q6 -8 19.5 -23.5t27.5 -31t29.5 -26.5t25.5 -11q27 0 39 21.5t23 43.5l38 95q16 41 33 84t35 84q43 96 93 189t100 185q6 8 17 30t22.5 45.5t19.5 45t8 31.5q0 18 -17.5 45t-41 51.5t-50 43t-44.5 18.5q-23 0 -37.5 -18.5 t-24.5 -37.5q-14 -29 -25.5 -59.5t-23.5 -58.5q-20 -49 -39.5 -97.5t-42.5 -97.5q-10 -23 -28.5 -63.5t-40 -91t-44 -104.5t-41 -104.5t-30 -91.5t-11.5 -61z" />
<glyph unicode="$" horiz-adv-x="792" d="M-41 289q0 -39 28.5 -70t63.5 -55.5t63.5 -44t28.5 -35.5q0 -10 -14 -42t-31.5 -67.5t-32 -70.5t-14.5 -51q0 -8 8.5 -19.5t19.5 -21t23.5 -15.5t20.5 -6q16 0 24.5 20.5t12.5 30.5q14 41 27.5 81t31.5 81q6 14 12.5 26.5t12.5 26.5q4 10 7 16.5t17 6.5h27q82 0 164 29.5 t146.5 82t104.5 126t40 161.5q0 70 -29 120t-64.5 85t-64.5 58.5t-29 39.5q0 12 9.5 34t13.5 34q23 49 43 98t43 96q8 16 13 24.5t26 8.5q25 0 33 -14t15 -31.5t19.5 -32t46.5 -14.5q47 0 79 36t32 83q0 53 -36 101t-81 73q-4 4 -18.5 10t-14.5 15q4 8 5.5 16t5.5 16 q4 10 12 24.5t8 26.5q0 14 -10 21q-2 2 -10.5 7t-17.5 11.5t-18 10.5t-11 4q-10 0 -21.5 -20.5t-21 -46t-17.5 -47t-14 -23.5q-4 -2 -13.5 -4.5t-13.5 -2.5q-47 -6 -98 -20t-98 -36.5t-89 -53.5t-73 -70q-41 -51 -66.5 -123.5t-25.5 -138.5q0 -55 25.5 -98t57 -74 t57.5 -50.5t26 -27.5q0 -2 -16.5 -40t-37 -85t-39 -88t-20.5 -49q-4 -6 -12.5 -25.5t-18.5 -19.5q-6 0 -14 4q-39 14 -44 37.5t-9 58.5q-4 25 -21.5 43.5t-44.5 18.5q-23 0 -46.5 -18.5t-41.5 -45t-29.5 -56.5t-11.5 -50zM348 305q0 4 4 12q4 12 10.5 25.5t10.5 24.5 q0 2 10 27.5t24.5 56t28 58.5t19.5 32q8 0 22.5 -11.5t28.5 -29t23.5 -36t9.5 -32.5q0 -27 -16.5 -47t-41 -35.5t-51.5 -27t-45 -19.5q-12 -6 -25 -6q-12 0 -12 8zM414 924q0 35 24.5 56t53.5 38q10 6 30.5 16t34.5 10q10 0 10 -6q0 -8 -12 -39.5t-28.5 -66.5t-32 -62.5 t-21.5 -27.5q-23 0 -41 30.5t-18 51.5z" />
<glyph unicode="%" horiz-adv-x="1271" d="M154 92q0 -6 5 -18.5t13 -24.5t17.5 -21.5t17.5 -9.5t23.5 14.5t30.5 31t27.5 32t14.5 19.5l934 1097q2 2 11 13.5t18.5 24t17.5 23.5t8 17q0 14 -17.5 41t-33.5 27q-6 0 -17.5 -10.5t-23.5 -22.5t-21.5 -24.5t-11.5 -14.5l-938 -1093q-18 -23 -35.5 -43.5t-35.5 -40.5 q-4 -12 -4 -17zM168 905q0 -41 13.5 -92t38 -96t62 -76t87.5 -31q51 0 102 27t94 67.5t78 90t53 92.5q45 102 45 217q0 78 -25.5 115.5t-101.5 60.5q-4 12 -15 32.5t-24.5 42t-30 37t-30.5 15.5q-20 0 -54 -22.5t-50 -34.5q-47 -37 -90.5 -88.5t-77 -109.5t-54 -121.5 t-20.5 -125.5zM344 872q0 51 15.5 102.5t42 97.5t63.5 86t80 67q16 -33 22 -55.5t6 -59.5q0 -66 -20.5 -132.5t-60.5 -119.5q-8 -10 -21.5 -25.5t-29 -28.5t-31 -23.5t-29.5 -10.5q-12 0 -19.5 13.5t-11.5 30.5t-5 33.5t-1 24.5zM668 258q0 -41 13 -92t37.5 -95t62.5 -75 t87 -31q53 0 103.5 26.5t94.5 67.5t78 90.5t52 92.5q45 98 45 213q0 80 -24.5 117.5t-102.5 60.5q-4 12 -14 33.5t-24.5 42t-30 36t-31.5 15.5q-20 0 -54 -22.5t-51 -35.5q-47 -37 -91 -88t-77.5 -109.5t-53 -122t-19.5 -124.5zM844 225q0 51 15 103.5t42 98.5t63.5 86 t79.5 67q16 -35 21.5 -57.5t5.5 -59.5q0 -66 -20.5 -131.5t-61.5 -118.5q-6 -10 -19.5 -25.5t-28.5 -30t-31.5 -24.5t-28.5 -10t-19.5 13.5t-11.5 30.5t-5 33.5t-1 24.5z" />
<glyph unicode="&#x26;" horiz-adv-x="1185" d="M20 301q0 -125 86 -215q35 -35 84.5 -63.5t100.5 -28.5q27 0 65.5 8t78.5 20.5t77 26.5t61 27q49 23 95.5 53.5t87.5 67.5q29 27 57.5 61.5t28.5 75.5q0 16 -7.5 30.5t-7.5 28.5q0 4 11 10q14 6 37.5 12.5t48 11.5t48 8t40 5t32.5 2t33 4q6 2 15.5 4.5t13.5 6.5q2 2 6 16 t4 16q4 8 11.5 19.5t11.5 19.5q12 18 12 43q0 39 -29.5 49.5t-60.5 10.5q-35 0 -67.5 -3t-67.5 -7q-76 -6 -153 -15.5t-150 -27.5q-45 -10 -68 -31t-23 -70q0 -35 11.5 -58.5t34.5 -45.5q4 -4 7 -7.5t5 -7.5q0 -14 -36 -39.5t-82 -51t-91 -45t-64 -19.5q-29 0 -39 16.5 t-10 40.5q0 61 27 129t69 129.5t94 111.5t105 79q39 20 88 32q23 6 35 14.5t12 35.5q0 18 -13 28t-28.5 24.5t-29 36t-13.5 60.5q0 33 13.5 59.5t34 49t45 41t49.5 36.5q10 6 31.5 22.5t31.5 16.5q14 0 15 -16q0 -10 -6.5 -24.5t-14.5 -32t-14 -35t-6 -29.5q0 -27 25.5 -36 t45.5 -9q45 0 80 17.5t59.5 47t37 68.5t12.5 80q0 76 -49.5 123t-122.5 47q-49 0 -105.5 -16.5t-112 -42t-105.5 -58t-87 -63.5q-47 -41 -78 -100.5t-31 -120.5q0 -59 21 -109q2 -4 4 -10t2 -10q0 -6 -7 -10.5t-11 -8.5q-63 -41 -115.5 -73.5t-101.5 -90.5 q-59 -68 -96.5 -165t-37.5 -187z" />
<glyph unicode="(" horiz-adv-x="669" d="M59 360q0 -90 19.5 -173t48.5 -167q4 -12 11 -31.5t18.5 -38t24 -31.5t28.5 -13q12 0 42 12t58.5 30.5t51 38t22.5 33.5t-6 31q-16 43 -29.5 83t-23 79t-14.5 80t-5 88q0 139 48 253t128 224q68 92 149 179t171 159q18 14 36.5 26.5t36.5 26.5q12 10 26.5 22.5t14.5 28.5 q0 14 -11 34t-26.5 39.5t-31 38t-23.5 28.5q-14 16 -35 16q-18 0 -57 -25.5t-82 -59.5t-81 -67.5t-56 -50.5q-92 -88 -175 -188t-144.5 -213t-97.5 -236.5t-36 -255.5z" />
<glyph unicode=")" horiz-adv-x="669" d="M-104 63q0 -12 11 -32.5t26.5 -41t31 -39t23.5 -28.5q12 -16 32 -16q18 0 57.5 25.5t82.5 60.5t82 68.5t57 50.5q94 88 176 188t143.5 213t96.5 236t35 256q0 90 -19.5 173t-48.5 166q-4 12 -11 31t-17.5 37.5t-24 31.5t-29.5 13q-14 0 -43 -12t-58.5 -29.5t-51 -38 t-21.5 -35.5q0 -4 3 -15t5 -15q16 -45 29.5 -83t23 -77t14.5 -79t5 -89q0 -141 -48 -254t-128 -225q-66 -92 -148 -180t-172 -158q-18 -14 -36.5 -26.5t-36.5 -26.5q-10 -8 -25.5 -20.5t-15.5 -29.5z" />
<glyph unicode="*" horiz-adv-x="675" d="M215 1069q0 -23 24.5 -30t41.5 -9q41 -4 84 -4t81 -10q-10 -47 -12 -97.5t-2 -97.5q0 -16 7 -35.5t28 -19.5q20 0 31.5 18.5t17.5 34.5q10 25 19.5 50.5t19.5 50.5q6 14 12 26t11 27q18 -8 45.5 -21.5t58.5 -26t59.5 -21.5t46.5 -9q16 0 26.5 7.5t10.5 23.5 q0 14 -15 31.5t-35.5 35t-40 31.5t-27.5 20q-12 10 -24.5 22.5t-25.5 23.5q14 14 40 36.5t49.5 48t41 52t17.5 51.5q0 14 -10.5 21.5t-22.5 7.5t-36.5 -14.5t-54.5 -33t-57.5 -37t-41.5 -26.5q-6 14 -24.5 48t-41 66.5t-45 58.5t-37.5 26q-16 0 -24.5 -11.5t-8.5 -27.5 q0 -35 13.5 -72t21.5 -70q4 -14 5 -28.5t5 -30.5q-14 -2 -52 -7t-78 -16.5t-70.5 -26.5t-30.5 -36z" />
<glyph unicode="+" horiz-adv-x="829" d="M18 473q0 -14 13 -14h22h305v-238q0 -25 16.5 -32t37.5 -17l73 -33q6 -4 25.5 -12t28.5 -8q14 0 14 12v23v305h229q33 0 37 10t19 39l41 92q4 6 9 19.5t5 19.5t-11.5 9t-25.5 4t-27 1h-14h-262v230q0 33 -10.5 37t-38.5 18l-92 41q-6 4 -19.5 9t-19.5 5t-9.5 -11 t-4.5 -25.5t-1 -26.5v-15v-262h-237q-25 0 -32 -16t-17 -37l-33 -74q-4 -6 -12.5 -25.5t-8.5 -27.5z" />
<glyph unicode="," horiz-adv-x="356" d="M-68 129q0 -29 10.5 -44t24 -24.5t23.5 -17.5t10 -20q0 -10 -7 -25.5t-16.5 -30t-16.5 -26t-7 -13.5q0 -16 20 -16q41 0 83 29.5t76 73.5t55.5 93.5t21.5 88.5q0 35 -20.5 50t-47.5 29q-23 12 -51.5 25.5t-54.5 13.5q-29 0 -42 -19.5t-24 -41.5q-12 -29 -24.5 -62.5 t-12.5 -62.5z" />
<glyph unicode="-" horiz-adv-x="454" d="M-4 473q0 -14 12 -14h23h368q31 0 36 10t18 39q2 6 11 23.5t18.5 38t17.5 40t8 29.5q0 6 -11.5 9t-25.5 4t-27 1h-14h-332q-25 0 -32 -16t-17 -37l-33 -74q-4 -6 -12 -25.5t-8 -27.5z" />
<glyph unicode="." horiz-adv-x="360" d="M-68 125q0 -31 21.5 -51.5t46.5 -34.5q6 -4 21.5 -12.5t32 -16.5t32.5 -14t25 -6q16 0 23 12t11 25l15 57q8 33 29.5 71.5t21.5 63.5t-20.5 42.5t-41 27.5t-54.5 27.5t-56 17.5q-25 0 -38 -19.5t-24 -40.5q-12 -29 -28.5 -72.5t-16.5 -76.5z" />
<glyph unicode="/" horiz-adv-x="548" d="M-193 -268q0 -16 7.5 -28.5t11.5 -29.5q2 -12 2 -28q0 -18 3 -33.5t11 -27t27 -11.5q37 0 56.5 22.5t29.5 53.5q10 27 18.5 52.5t18.5 49.5q16 41 33.5 84t33.5 84q27 66 52.5 129.5t52.5 126.5q35 86 71.5 169t73.5 167t75 165t75 163q33 70 64.5 140.5t66.5 137.5 q29 53 55.5 105.5t42.5 109.5q4 16 8 34t4 34q0 12 -5 33.5t-13 41t-21.5 35t-27.5 15.5q-23 0 -37 -29t-21 -45q-16 -41 -33.5 -79t-35.5 -77q-31 -66 -62.5 -130t-60.5 -130l-205 -450q-74 -162 -148.5 -322t-140.5 -325q-4 -12 -17 -42t-27.5 -64t-26 -63.5t-11.5 -37.5z " />
<glyph unicode="0" horiz-adv-x="829" d="M41 334q0 -57 15.5 -118.5t48 -112t82 -83t114.5 -32.5q59 0 117.5 30.5t110 75.5t93.5 98.5t72 98.5q45 68 85 148.5t69 166.5t46 173t17 169q0 90 -23.5 177t-72.5 163q-10 16 -25.5 33.5t-37.5 17.5q-18 0 -38 -13t-36 -29.5t-30.5 -30t-22.5 -13.5q-27 0 -50.5 16.5 t-50.5 16.5q-20 0 -36.5 -13t-28.5 -28q-84 -90 -159 -196.5t-133 -223t-92 -241.5t-34 -250zM283 276q0 82 18 172.5t49 180.5t72 174t86 151q18 27 35.5 53.5t36.5 53.5q6 10 24.5 33.5t32.5 23.5t23.5 -16.5t14.5 -39t7 -44t2 -29.5q0 -70 -16.5 -145.5t-44 -151.5 t-61.5 -146.5t-70 -127.5q-10 -16 -31 -49t-47.5 -68t-53 -60.5t-47.5 -25.5q-23 0 -26.5 22.5t-3.5 38.5z" />
<glyph unicode="1" horiz-adv-x="589" d="M14 137q0 -20 7.5 -40.5t17.5 -37.5q14 -27 25.5 -30.5t39.5 -10.5q14 -4 27.5 -8t28.5 -8q18 -6 37 -6q14 0 26.5 14.5t21.5 33.5t15 38.5t10 30.5q16 41 31.5 84t34.5 84l133 301q35 82 68.5 163.5t66.5 165.5q18 47 35.5 93.5t38.5 93.5q12 27 29.5 65.5t17.5 67.5 q0 23 -9 41t-22 37q-10 16 -23.5 35.5t-35.5 19.5q-16 0 -52 -16.5t-76 -39t-76 -44t-50 -33.5l-102 -74q-16 -10 -36 -26.5t-20 -38.5q0 -6 7.5 -21.5t16.5 -32t17 -32t12 -21.5q6 -10 14.5 -18.5t20.5 -8.5q23 0 47.5 15.5t36.5 15.5l2 -4q0 -4 -23.5 -56t-58 -128 t-75.5 -164t-78 -165t-62.5 -130t-27.5 -59q-14 -29 -36 -71t-22 -75z" />
<glyph unicode="2" horiz-adv-x="784" d="M-90 137q0 -20 14.5 -49l22.5 -45q10 -25 20 -40t39 -15q12 0 24.5 1t24.5 3q66 8 128.5 15t127.5 11q43 2 85 3.5t85 1.5h58q31 0 59 -5q12 -2 24.5 -3t24.5 -1q35 0 48.5 11.5t25.5 44.5q4 8 8 20t4 21q0 6 -4 15t-8 13q-12 20 -18.5 38t-15.5 32t-23.5 22.5t-42.5 8.5 q-27 0 -52.5 -3.5t-52.5 -7.5q-45 -4 -90 -9t-90 -9q-4 0 -8 -2t-9 -2q-14 0 -14 10q0 6 5 9t9 7q43 33 80 73t76 79q51 51 117.5 128t124 164t97.5 176t40 167q0 145 -88 236.5t-236 91.5q-74 0 -148.5 -20.5t-139.5 -53.5q-20 -10 -36 -21.5t-16 -35.5q0 -16 11.5 -45 t28 -55.5t37 -46t38.5 -19.5t48 12t65 27.5t72.5 29t72.5 13.5q31 0 43 -18.5t12 -47.5q0 -33 -15 -77t-37.5 -88t-47 -85t-43.5 -67q-72 -106 -161 -202.5t-181 -189.5q-35 -33 -68.5 -64.5t-70.5 -60.5q-10 -8 -23.5 -18t-28 -23.5t-23.5 -26.5t-9 -28z" />
<glyph unicode="3" horiz-adv-x="796" d="M-96 152q0 -23 19.5 -49.5t35.5 -43.5q39 -35 90 -50t103 -15q141 0 271 64.5t224 168.5q49 53 88 123t39 146q0 51 -19.5 91t-43 68.5t-43 46t-19.5 23.5q0 8 7.5 14t11.5 11q33 31 69.5 68.5t68.5 81.5t52.5 91t20.5 94q0 68 -24 118t-63.5 84t-95 50.5t-118.5 16.5 q-29 0 -77 -4t-95.5 -17.5t-82 -38t-34.5 -67.5q0 -12 8 -38t21.5 -51.5t28.5 -46t30 -20.5q23 0 47 14q39 18 64.5 26.5t66.5 18.5q16 4 29.5 7.5t29.5 3.5q20 0 41 -10.5t21 -32.5q0 -10 -9.5 -25.5t-15.5 -25.5q-23 -31 -52.5 -64t-62 -63.5t-67.5 -56t-72 -40.5 q-27 -10 -57.5 -12t-58.5 -6q-25 -4 -38.5 -12.5t-13.5 -36.5q0 -16 7.5 -46t19.5 -59.5t29.5 -51t38.5 -21.5q33 0 61.5 14t60.5 14q35 0 56.5 -27.5t21.5 -60.5q0 -41 -18.5 -81t-48 -75.5t-64.5 -66.5t-65 -51q-29 -18 -74 -41t-80 -23t-54.5 15.5t-33.5 33t-28.5 32.5 t-37.5 15q-18 0 -38.5 -13t-38 -31.5t-28.5 -40t-11 -39.5z" />
<glyph unicode="4" horiz-adv-x="948" d="M68 565q0 -35 17 -75.5t34 -69.5q14 -25 34.5 -44.5t51.5 -19.5q57 0 116.5 9.5t116.5 15.5q4 0 9.5 1t11.5 1l4 -4q0 -4 -5 -20.5t-12.5 -35t-14.5 -35t-9 -22.5q-6 -18 -18.5 -48t-24.5 -62.5t-21.5 -64.5t-9.5 -52q0 -18 11.5 -32.5t26.5 -26t32.5 -20.5t30.5 -17 q16 -4 33.5 -6.5t33.5 -2.5q27 0 39 10.5t18.5 27t7.5 37t7 40.5q8 31 22 70q23 72 46.5 145.5t52.5 145.5q4 12 13 15t19 5q23 4 53.5 9t61.5 13.5t57.5 20.5t40.5 31q10 14 23.5 35t13.5 39q0 25 -13 48t-42 23q-31 0 -59.5 -10t-55.5 -10q-6 0 -13 2t-7 10q0 2 5 15.5 t11 28.5t11.5 29.5t7.5 18.5q18 47 37.5 93t41.5 94l8.5 17t4.5 19q0 12 -18.5 32t-41 38t-46 31.5t-31.5 13.5q-20 0 -30.5 -13.5t-21.5 -29.5q-33 -61 -60.5 -124.5t-51.5 -129.5q-16 -41 -32.5 -79t-33.5 -77q-8 -16 -13 -19t-24 -7q-41 -6 -83 -11.5t-83 -5.5 q-8 0 -15 3.5t-7 13.5q0 6 5 18.5t12 24.5t13.5 23.5t10.5 17.5q59 102 125.5 200.5t144.5 186.5l74 82q16 16 26.5 37.5t10.5 44.5q0 18 -10.5 44.5t-26.5 51.5t-36.5 43t-39.5 18q-16 0 -31.5 -19t-23.5 -30q-35 -51 -74 -99t-76 -95q-78 -100 -150.5 -202.5 t-144.5 -207.5q-10 -16 -23 -36.5t-25.5 -43t-20.5 -45t-8 -41.5z" />
<glyph unicode="5" horiz-adv-x="800" d="M-82 174q0 -39 26.5 -69.5t55.5 -51.5q43 -31 93 -46t104 -15q66 0 131 23.5t125.5 60.5t112.5 84t93 94q51 59 83 134t32 153q0 49 -14.5 103t-43 100.5t-70.5 76t-99 29.5q-6 0 -16.5 -1t-20.5 0t-17.5 4t-7.5 11t9.5 35t21.5 56.5t24.5 56t16.5 37.5q4 6 9 18t16 12 q25 0 48 -4t48 -4q57 0 109.5 8t105.5 29q20 8 32.5 14t20.5 14.5t14.5 20.5t14.5 33q10 30 10 55q0 12 -4 27.5t-11 30t-18.5 24.5t-25.5 10q-10 0 -31 -8q-66 -29 -134.5 -37t-139.5 -8q-35 0 -67 5t-67 5q-29 0 -47 -16t-30 -39q-14 -23 -24.5 -48.5t-23.5 -49.5 q-10 -18 -33.5 -67.5t-50 -106t-46 -108.5t-19.5 -75q0 -16 10 -41.5t24.5 -50t30 -42t25.5 -17.5q4 0 14.5 3t14.5 5q29 10 59.5 16.5t61.5 6.5q35 0 65.5 -17.5t30.5 -58.5q0 -55 -35 -123t-89 -127t-117.5 -99t-121.5 -40q-35 0 -49 7t-22 42q-8 31 -23.5 48t-50.5 17 q-25 0 -46.5 -13t-38.5 -33.5t-27.5 -45t-10.5 -47.5z" />
<glyph unicode="6" horiz-adv-x="786" d="M-8 317q0 -66 19.5 -125t57 -103t92 -69.5t124.5 -25.5q90 0 177 55t154.5 138t109.5 180.5t42 181.5q0 49 -13.5 94t-40 78t-66.5 52.5t-93 19.5q-35 0 -74 -5.5t-73 -17.5q-8 -4 -15 -4q-4 4 -4 8q0 6 7 19.5t16.5 28t18.5 27.5t13 19q61 94 149.5 178t186.5 140 q8 4 23.5 12t30 17.5t24.5 21t10 23.5q0 14 -16 35.5t-38.5 42t-46.5 34.5t-40 14q-14 0 -32.5 -7t-37 -17t-35 -21.5t-28.5 -19.5q-43 -31 -89 -70t-90 -83t-85 -89t-72 -86q-49 -66 -97 -148.5t-86 -171.5t-60.5 -180.5t-22.5 -175.5zM238 254q0 92 22.5 184t50.5 178 q2 4 6.5 16.5t12.5 12.5q10 0 16 -13.5t13.5 -29.5t16.5 -29.5t25 -13.5q25 0 47.5 12.5t49.5 12.5q16 0 29.5 -6.5t13.5 -24.5q0 -35 -30 -95.5t-71 -119.5t-87 -103.5t-79 -44.5q-23 0 -29.5 24t-6.5 40z" />
<glyph unicode="7" horiz-adv-x="739" d="M-27 129q0 -12 6.5 -20.5t14.5 -18.5t27.5 -31.5t41 -43t44 -38t38.5 -16.5q29 0 44.5 21.5t25.5 46.5q29 70 68 135t79 131q82 133 163 267t167 263q47 72 95.5 143.5t97.5 143.5q14 20 29.5 44.5t15.5 49.5t-15.5 53.5t-27.5 51.5q-10 18 -25.5 42.5t-42.5 24.5 q-10 0 -19 -2t-20 -6q-53 -18 -109.5 -29.5t-109.5 -19.5q-78 -12 -157.5 -16.5t-159.5 -4.5q-29 0 -43.5 -9t-14.5 -40q0 -23 4.5 -54.5t15.5 -60t29.5 -50t49.5 -21.5q25 0 49 6l213 43q16 4 36.5 10t39.5 6q4 0 11 -2t7 -8t-29.5 -50t-74.5 -108.5t-98.5 -140.5 t-101.5 -143.5t-84 -117.5t-44 -62q-29 -41 -56.5 -82t-56.5 -82q-10 -12 -29.5 -41t-41 -60.5t-37 -60.5t-15.5 -43z" />
<glyph unicode="8" horiz-adv-x="860" d="M-27 289q0 -61 20.5 -114.5t57.5 -93.5t88 -62.5t113 -22.5q88 0 182 36t172 97t128 144t50 178q0 66 -18 122t-53 111q-4 4 -8 16q0 4 23.5 19.5t56 37t71.5 48t72 55.5t55.5 57.5t22.5 53.5q0 16 -6.5 34.5t-12.5 35t-12 29.5t-6 20q0 10 15 27.5t32.5 35.5t33 39 t15.5 37q0 20 -19.5 33.5t-33.5 21.5q-66 35 -141.5 54.5t-151.5 19.5q-80 0 -157 -30t-137 -82t-96 -123.5t-36 -155.5q0 -41 12 -77t27.5 -63.5t28 -45t12.5 -19.5q0 -10 -30 -29.5t-74 -49.5t-96 -70t-96 -90t-74 -108.5t-30 -125.5zM184 248q0 33 29 73.5t67.5 80.5 t78.5 74t65 52q4 2 15.5 11.5t23.5 18.5t23.5 16.5t15.5 7.5q8 0 21.5 -18.5t25.5 -42t21.5 -46.5t9.5 -31q0 -37 -40 -78.5t-95.5 -78.5t-113 -60.5t-89.5 -23.5q-23 0 -40.5 10t-17.5 35zM508 1018q0 33 24.5 56.5t58.5 38.5t71.5 22.5t62.5 7.5q35 0 82 -6.5t78 -22.5 q-35 -59 -89.5 -107.5t-113.5 -82.5q-2 -2 -15.5 -10.5t-28.5 -17.5l-27.5 -16.5t-14.5 -7.5q-6 0 -20.5 19.5t-30 44.5t-26.5 48.5t-11 33.5z" />
<glyph unicode="9" horiz-adv-x="821" d="M-16 68q0 -29 15 -42.5t38 -25.5q12 -6 24.5 -12t22.5 -16.5t28.5 -27t32.5 -16.5q23 0 49.5 21.5t43.5 34.5l159 125q49 39 90 74.5t77 73.5t69 80t67 93q90 133 154 286.5t64 315.5q0 74 -20.5 131.5t-72.5 110.5q-35 37 -85 67.5t-103 30.5q-49 0 -101.5 -22.5 t-101.5 -58.5t-91 -76.5t-69 -77.5q-51 -68 -84.5 -151t-33.5 -169q0 -45 14 -97t42 -97t67.5 -75t93.5 -30q25 0 58.5 6t55.5 21q6 6 11 6q6 0 6 -6q0 -8 -16.5 -28.5t-22.5 -29.5q-35 -47 -85 -98t-106.5 -99t-116 -89t-112.5 -66q-25 -10 -43 -23.5t-18 -43.5zM377 786 q0 29 11 64t28.5 69.5t37 65.5t38.5 53q12 14 32.5 37t45 43.5t49 34.5t45.5 14q29 0 35 -25t6 -48t-7.5 -70t-19.5 -98.5t-25.5 -93t-25.5 -54.5q-6 -6 -34 -16t-59.5 -19.5t-62.5 -15.5t-43 -6q-27 0 -39 21.5t-12 43.5z" />
<glyph unicode=":" horiz-adv-x="532" d="M-43 125q0 -31 21.5 -51.5t46.5 -34.5q6 -4 21 -12.5t31.5 -16.5t33 -14t24.5 -6q16 0 23.5 12t11.5 25l14 57q8 33 30 71.5t22 63.5t-20.5 42.5t-41 27.5t-54.5 27.5t-57 17.5q-25 0 -38 -19.5t-23 -40.5q-12 -29 -28.5 -72.5t-16.5 -76.5zM180 664q0 -33 20.5 -52.5 t47.5 -33.5q8 -4 22.5 -12.5t31.5 -16.5t32.5 -14.5t23.5 -6.5q16 0 23.5 12.5t11.5 24.5q8 29 13.5 48.5t11.5 36t13 34.5t20 47q4 8 6 13.5t2 15.5q0 25 -21.5 41t-40 26.5t-53.5 27.5t-57 17q-27 0 -40.5 -18t-23.5 -41q-12 -29 -27.5 -73t-15.5 -76z" />
<glyph unicode=";" horiz-adv-x="530" d="M-43 129q0 -29 10 -43t22.5 -23.5t23 -17.5t10.5 -22q0 -12 -7.5 -26.5t-15.5 -28t-15.5 -25t-7.5 -15.5q0 -16 21 -16q41 0 83 29.5t75.5 73.5t55 93.5t21.5 88.5q0 35 -20 50t-47 29q-23 12 -51.5 25.5t-55.5 13.5q-29 0 -42 -19.5t-23 -41.5q-10 -27 -23.5 -61.5 t-13.5 -63.5zM178 664q0 -33 19.5 -52.5t46.5 -33.5q8 -4 22.5 -12.5t31.5 -16.5t32.5 -14.5t25.5 -6.5q16 0 23.5 12.5t11.5 24.5q6 27 11.5 47.5t11.5 38t14 37t21 43.5q4 8 6 14.5t2 14.5q0 25 -22.5 41t-41 26.5t-52.5 27.5t-56 17q-27 0 -40.5 -18t-23.5 -41 q-14 -31 -28.5 -73t-14.5 -76z" />
<glyph unicode="?" horiz-adv-x="743" d="M82 131q0 -25 9 -41t24.5 -28.5t34 -21.5t36.5 -17q4 -2 14.5 -7.5t21.5 -11.5t21.5 -10t16.5 -4q12 0 19.5 10t12.5 23.5t7 28t4 22.5q4 14 12.5 35.5t17.5 43t16 40t7 30.5q0 18 -15 33.5t-35.5 28t-41 20.5t-33.5 14q-10 4 -22 9.5t-25 5.5q-20 0 -38.5 -24.5 t-33 -58.5t-22.5 -67.5t-8 -52.5zM203 553q0 -23 15 -47.5t38 -46t48.5 -34.5t43.5 -13t52 15t67 37.5t57.5 47.5t24.5 43q0 16 -13.5 28.5t-31 20.5t-30.5 15.5t-13 15.5q0 4 3 6t7 6q37 37 81 79t87 88t80 95t61 99q23 45 23 104q0 55 -19.5 106.5t-55.5 89.5t-84 60.5 t-105 22.5q-59 0 -124 -12.5t-120 -32.5q-23 -8 -41 -20.5t-18 -39.5q0 -16 6 -42.5t18 -52.5t28.5 -44.5t37.5 -18.5q18 0 46.5 9.5t60.5 20.5t62.5 20.5t51.5 9.5q33 0 33 -35q0 -25 -28 -68t-70 -98t-91 -115.5t-91 -120t-69.5 -110.5t-27.5 -88z" />
<glyph unicode="A" d="M-123 160q0 -18 20.5 -41t48 -42.5t56.5 -32.5t45 -13q18 0 33.5 13t27 32.5t18.5 40t13 35.5q14 35 30.5 69.5t33.5 69.5l45 90q10 20 18 29.5t31 13.5q18 4 45 8t56.5 8t56 7.5t45.5 3.5q4 0 11 -1t7 -8q0 -20 -8 -56t-20.5 -76t-23.5 -76.5t-17 -57.5 q-4 -18 -16.5 -49t-12.5 -47q0 -23 19.5 -35t37.5 -18q10 -4 21.5 -7.5t21.5 -9.5q25 -14 41.5 -31.5t48.5 -17.5q23 0 31 11.5t16 29.5q20 53 32.5 107.5t23.5 107.5l63 311q29 135 46.5 269.5t33.5 269.5q4 35 8 70.5t4 70.5q0 66 -22.5 106t-85.5 62q-10 4 -30.5 10.5 t-31.5 6.5q-18 0 -26 -13.5t-10.5 -31t-1 -37t1.5 -31.5v-12q0 -8 -1.5 -17.5t-3.5 -16.5t-6 -7q-2 0 -11 4t-19.5 8t-21.5 8t-17 4q-27 0 -42.5 -15t-31.5 -36l-109 -137q-61 -78 -114.5 -162t-106.5 -170q-10 -18 -21.5 -35.5t-21.5 -38.5q-8 -16 -14 -24t-25 -12 q-25 -6 -51.5 -9.5t-49 -11.5t-36.5 -25.5t-14 -50.5q0 -39 16 -75.5t16 -59.5q0 -8 -15 -40t-34.5 -68.5t-35 -71.5t-15.5 -49zM395 645q0 6 12.5 28.5t31 54.5t41 67.5t43 68.5t35.5 56.5t22 31.5q10 12 19 24.5t17 27.5q2 4 6.5 8t8.5 4q8 0 8 -8q0 -4 -1 -7.5t-1 -7.5 q-6 -12 -11 -37.5t-10 -40.5q-8 -41 -16 -84t-16 -83q0 -6 -2 -23.5t-5.5 -36t-9.5 -33t-18 -14.5q-14 0 -27.5 2t-27.5 2h-25q-16 0 -30.5 -3t-30.5 -3q-4 0 -8.5 1t-4.5 5z" />
<glyph unicode="B" horiz-adv-x="903" d="M-20 156q0 -33 20 -55.5t43 -43.5q6 -4 17.5 -14t23.5 -19.5t24.5 -16.5t18.5 -7q10 0 21.5 15.5t23.5 35t22.5 34.5t16.5 15t21.5 -16t35 -34.5t41 -35t39.5 -16.5q14 0 38 8t49.5 19.5t49 23.5t35.5 21q45 27 100.5 79t102.5 114.5t80 129t33 121.5q0 29 -10.5 55.5 t-22.5 49t-22.5 39t-10.5 26.5q0 14 39 47t85 81t85 108.5t39 132.5q0 57 -18.5 114.5t-53.5 102.5q-47 61 -108.5 78.5t-132.5 17.5q-207 0 -400 -72q-12 -4 -29.5 -13t-25.5 -19q-6 -10 -7 -22.5t-1 -22.5q0 -16 6 -42t17 -50.5t26.5 -44t34.5 -21.5q6 -2 20 -2q6 -4 6 -8 q0 -14 -4 -21q-6 -27 -17.5 -53.5t-21.5 -50.5q-20 -49 -37.5 -99.5t-40.5 -99.5q-27 -63 -55.5 -124.5t-56.5 -125.5q-23 -47 -42.5 -94t-43.5 -92q-12 -25 -32.5 -65t-20.5 -68zM283 274q0 8 3 15.5t7 15.5q31 61 58.5 121.5t54.5 124.5q16 39 34.5 46t59.5 7 q37 0 74.5 -14.5t37.5 -59.5q0 -41 -31.5 -90t-76.5 -93t-94.5 -73.5t-83.5 -29.5q-14 0 -28.5 7t-14.5 23zM502 799q0 10 2 17t6 15q23 66 45.5 128.5t30.5 132.5q2 20 6 25t22 11q49 16 97 17q14 0 33.5 -3t37 -10.5t28.5 -20t11 -32.5q0 -33 -39 -82t-91 -95t-104 -78.5 t-79 -32.5q-6 0 -6 8z" />
<glyph unicode="C" horiz-adv-x="776" d="M27 326q0 -66 18 -125.5t55 -104.5t91.5 -71.5t123.5 -26.5q78 0 146 20q35 10 76 30t75.5 47.5t57 62.5t22.5 78q0 8 -1 20t-5 24.5t-11 21.5t-20 9q-12 0 -44.5 -17.5t-75.5 -36.5t-90.5 -36.5t-90.5 -17.5q-45 0 -57 24.5t-12 65.5q0 43 2 80t8 71.5t15 69.5t22 78 q37 121 88 224.5t129 201.5q8 8 26.5 31.5t40 46t41 41t31.5 18.5q25 0 25 -25q0 -16 -10.5 -42.5t-22.5 -54t-22.5 -52.5t-10.5 -37q0 -33 33 -44t57 -11q57 0 94 24.5t59.5 63.5t32 87t9.5 95q0 94 -43 139t-137 45q-100 0 -193.5 -50t-174.5 -133t-146.5 -189.5 t-112.5 -219t-72.5 -224t-25.5 -201.5z" />
<glyph unicode="D" horiz-adv-x="923" d="M-47 162q0 -16 17.5 -43t40 -51.5t47 -43t40.5 -18.5q23 0 37.5 18.5t30.5 18.5q10 0 21.5 -7t23.5 -15.5t28.5 -15.5t34.5 -7q37 0 84.5 20.5t93.5 49t88 60.5t68 56q74 66 144.5 151t127 180t91.5 199t35 206q0 78 -21.5 162.5t-66.5 148.5q-59 82 -146.5 108.5 t-183.5 26.5q-35 0 -79 -4t-90 -12.5t-88 -21.5t-73 -30q-18 -10 -24.5 -22t-6.5 -35q0 -25 3 -53.5t12 -50.5q6 -16 13 -25.5t27.5 -11.5t38 -3t17.5 -30q0 -33 -19.5 -94.5t-49 -136t-66.5 -156.5t-74 -156.5t-68.5 -136t-50.5 -96.5q-6 -10 -15 -26.5t-18.5 -35 t-16.5 -37t-7 -30.5zM295 299q0 2 6 16.5t14.5 32t16.5 32.5t10 19q53 113 104.5 222.5t85.5 230.5q16 55 23.5 109.5t11.5 111.5q2 27 8.5 36t34.5 9q33 0 65 -3t57.5 -15.5t40.5 -36t15 -64.5q0 -43 -10 -90q-16 -94 -47 -164.5t-84 -150.5q-20 -31 -59 -82t-85 -101.5 t-95.5 -87t-90.5 -36.5q-6 0 -14 2t-8 10z" />
<glyph unicode="E" horiz-adv-x="737" d="M-35 158q0 -76 51.5 -116t122.5 -40q86 0 177.5 15.5t175.5 37.5q59 16 101 52t42 102q0 23 -20.5 44t-43.5 21q-10 0 -20 -2t-21 -6q-27 -8 -63.5 -17t-76.5 -17.5t-77 -13.5t-63 -5q-10 0 -19.5 3t-9.5 15q0 25 15.5 72t36 99.5t41 99.5t30.5 69q2 4 6 11.5t10 7.5 t15 -4q10 -2 28 -2h31q41 0 78 4t78 10q47 6 78.5 19.5t31.5 68.5q0 57 -24.5 86t-83.5 29q-29 0 -59.5 -2t-59.5 -2q-8 0 -13 1t-5 11q0 8 9 32.5t21.5 51.5t23.5 50.5t15 33.5l43 86q12 25 23.5 38t25 19t32 8t44.5 2q37 2 74 3.5t72 1.5q16 0 29.5 -3.5t27.5 -3.5 q27 0 27 25q0 16 -11.5 45t-17.5 43q-18 39 -32.5 60.5t-34 29.5t-46 9t-69.5 1q-88 0 -180.5 -12t-178.5 -35q-45 -12 -60.5 -35.5t-15.5 -68.5q0 -43 7.5 -66.5t29.5 -60.5q0 -2 4.5 -8t4.5 -8q0 -10 -5.5 -17.5t-9.5 -15.5q-47 -68 -85 -141.5t-72 -147.5 q-25 -53 -49.5 -106.5t-45.5 -108.5q-12 -31 -27.5 -78t-28.5 -97t-23.5 -97.5t-10.5 -79.5z" />
<glyph unicode="F" horiz-adv-x="714" d="M-41 123q0 -16 5 -35.5t20 -30.5q4 -4 16 -5t16 -1q27 -4 47.5 -18.5t40.5 -30.5q10 -8 27 -8q27 0 41 21.5t25 43.5q45 100 84 193q23 53 42 104.5t42 104.5q10 23 19 47t19 47q10 25 16.5 29t35.5 4q35 0 66.5 2t66.5 2q18 0 35.5 -2t35.5 -2q14 0 32 11t33 27.5 t25.5 34t10.5 31.5q0 6 -2 14.5t-4 12.5q-10 39 -21.5 55.5t-54.5 16.5q-41 0 -83 -4.5t-85 -4.5q-4 -2 -10 -2q-12 0 -13 13q0 10 7.5 25.5t11.5 25.5q16 41 27.5 83t21.5 83q12 51 18 104q2 12 6.5 14t16.5 5q53 6 104.5 11t104.5 7q29 0 49 -1t33.5 4t19.5 20.5t6 50.5 q0 41 -15 68.5t-42 44t-59.5 22.5t-69.5 6q-39 0 -92 -4t-108.5 -12.5t-108.5 -19.5t-90 -23q-45 -16 -52.5 -42t-7.5 -69q0 -39 3 -69.5t38 -53.5q4 -4 12.5 -10t8.5 -10l-31 -95q-2 -4 -12.5 -33.5t-24.5 -64.5t-26.5 -64.5t-18.5 -31.5q-4 -2 -13 -3t-14 -1 q-29 -4 -52 -20.5t-23 -49.5q0 -25 5 -52.5t11 -51.5q2 -6 4 -14.5t2 -14.5t-12 -34.5t-26.5 -62.5t-29 -63.5t-16.5 -36.5l-76 -170q-6 -16 -12 -33.5t-6 -33.5z" />
<glyph unicode="G" horiz-adv-x="892" d="M27 324q0 -76 22.5 -139.5t81.5 -112.5q39 -31 90 -52.5t101 -21.5q55 0 113.5 29.5t113.5 72.5t103 93.5t79 91.5q25 31 34 53t11 63v68q0 27 22.5 28t45.5 5q29 2 43 17.5t20 35.5t7 45t1 47q0 35 -11 50.5t-48 15.5q-39 0 -79 -4t-79 -9l-116 -12q-55 -6 -83 -24.5 t-28 -77.5q0 -39 11.5 -73t52.5 -50q12 -4 18 -8q0 -8 -11.5 -23.5t-15.5 -19.5q-14 -18 -39.5 -52t-55.5 -66t-60.5 -56.5t-55.5 -24.5q-14 0 -21 11.5t-10 26.5t-3 30v26q0 100 35.5 221t96 237t138.5 213t164 152q2 2 13 9.5t23.5 15.5t23.5 14.5t13 6.5q14 0 15 -17 q0 -14 -8.5 -39.5t-18.5 -52.5t-18 -52.5t-8 -39.5q0 -16 14 -27.5t33.5 -17.5t39 -9t31.5 -3q39 0 68 23.5t48.5 57t28.5 72.5t9 70q0 53 -5 92t-46 76q-29 29 -70 44t-82 15q-66 0 -132 -27.5t-129.5 -70.5t-119 -93.5t-96.5 -95.5q-70 -78 -128 -166t-99 -185 t-64.5 -199.5t-23.5 -206.5z" />
<glyph unicode="H" horiz-adv-x="917" d="M-27 154q0 -16 4.5 -36t13.5 -37.5t23.5 -29.5t32.5 -14q10 -2 19.5 -3t19.5 -7.5t25.5 -16.5t27.5 -10q10 0 19.5 7t15.5 16q23 29 36 75.5t23 79.5q23 78 47.5 153t49.5 150q2 6 7 21.5t11 33t13.5 33t11.5 19.5q6 6 31.5 12t55 10t57.5 7.5t38 3.5h16q12 0 19 2h14 t8 -11q0 -10 -2 -16q-8 -23 -17 -42t-18 -40q-23 -59 -44 -120.5t-39 -123.5q-10 -33 -18.5 -66.5t-8.5 -68.5q0 -43 19.5 -64.5t52.5 -47.5q16 -14 50 -37t56 -23q29 0 37 23.5t10 46.5q8 66 23.5 130t34.5 128q16 53 33.5 104t35.5 103q27 72 52.5 143.5t54.5 142.5 q29 70 61.5 136.5t65.5 134.5q10 23 26.5 57.5t16.5 61.5q0 20 -14.5 33.5t-24.5 29.5q-6 31 -8.5 44t-32.5 30q-10 4 -25.5 12t-25.5 8q-23 0 -37.5 -27.5t-22.5 -43.5l-76 -146q-35 -66 -62.5 -136.5t-59.5 -137.5q-8 -16 -14.5 -17.5t-22.5 -3.5q-47 -4 -94.5 -8 t-94.5 -12q-6 -2 -13 0t-7 10q0 4 4 12q0 8 16.5 48t37 87.5t38.5 89t25 54.5l38 78q10 20 11 36q0 14 -14.5 41t-34 52.5t-41 45t-33.5 19.5q-23 0 -37 -21.5t-25 -39.5q-51 -106 -99 -212t-95 -216q-10 -23 -18.5 -44.5t-18.5 -44t-18.5 -26.5t-30.5 -8q-8 -2 -27.5 -6 t-39 -10.5t-35 -14.5t-15.5 -20q0 -10 8 -31t7 -42.5t-1 -43.5q0 -16 3.5 -31.5t19.5 -25.5q2 -2 10 -7.5t8 -9.5l-8 -22q-8 -21 -19.5 -53.5t-25.5 -70.5t-26.5 -73t-22.5 -60.5t-12 -31.5q-4 -12 -9.5 -25.5t-5.5 -27.5z" />
<glyph unicode="I" horiz-adv-x="444" d="M-35 115q0 -20 15.5 -29.5t27.5 -22.5q14 -14 23.5 -26t19.5 -21.5t23.5 -15.5t36.5 -6q8 0 12 2q16 2 34.5 4t32.5 12q8 6 14.5 20.5t10.5 30t6 31t4 25.5q6 29 15.5 58.5t19.5 58.5q14 45 26.5 89t28.5 89q20 59 40 116.5t42 116.5q41 106 83 212t91 208q16 35 37 76 t21 82q0 31 -14.5 49t-39.5 35q-20 14 -47.5 28.5t-52.5 14.5q-27 0 -37 -15.5t-18 -38.5q-27 -74 -59.5 -145.5t-61.5 -142.5q-78 -193 -152.5 -380.5t-142.5 -381.5q-4 -12 -10 -29.5t-12.5 -36t-11.5 -37t-5 -30.5z" />
<glyph unicode="J" horiz-adv-x="794" d="M-61 217q0 -43 24.5 -83t62 -71.5t83 -50t86.5 -18.5q82 0 151.5 36t125.5 92t100 124.5t79 134.5q63 119 113.5 241.5t93.5 249.5q16 47 31.5 93.5t25.5 93.5l29 123q4 10 6 21.5t2 21.5q0 14 -10 28q-23 25 -43 49.5t-41 51.5q-6 8 -17.5 10t-21.5 2q-29 0 -47 -18 q-10 -10 -21.5 -33t-20.5 -49.5t-17 -51t-13 -36.5q-51 -154 -104 -304.5t-117 -298.5q-66 -158 -178 -286q-6 -8 -19.5 -22.5t-28.5 -29t-30.5 -25.5t-25.5 -11t-13.5 8t-3.5 16q0 23 6.5 55.5t15.5 67.5t19 68t19 55q8 20 8 35q0 14 -13.5 22.5t-31 12.5t-35.5 5t-27 1 q-68 0 -100.5 -32t-52.5 -91q-16 -47 -32.5 -102.5t-16.5 -104.5z" />
<glyph unicode="K" horiz-adv-x="978" d="M-47 115q0 -8 3 -16.5t7 -14.5q10 -18 21.5 -26.5t26 -11.5t29.5 -4t31.5 -5t31 -11.5t30.5 -7.5q33 0 46.5 18.5t23.5 45.5q37 84 70.5 165t66.5 167q18 47 37.5 91t40.5 91q2 4 7 20.5t9 16.5t5 -12.5t1 -14.5q0 -20 5.5 -51t9.5 -53q6 -43 19 -109.5t32.5 -137.5 t41 -134.5t42.5 -100.5q18 -33 49 -55t70 -22q35 0 53 14t47 27q6 2 18.5 5t24.5 6t21.5 8t9.5 13q0 6 -5.5 13.5t-9.5 11.5q-29 37 -50 82t-40 88q-33 78 -54.5 158t-37.5 163q-6 29 -14 60t-21 59q-4 6 -4 15q0 4 10 10q14 6 27.5 11t26.5 13q76 43 146.5 116t125.5 138 q16 20 45 54t56.5 72t47 76t19.5 67q0 20 -10.5 43.5t-20.5 40.5q-8 16 -18 33.5t-31 17.5q-29 0 -52.5 -30t-39.5 -50q-23 -29 -45.5 -53.5t-44.5 -50.5q-63 -72 -126 -142.5t-138 -130.5q-6 -4 -19.5 -15.5t-30 -22.5t-32 -20t-21.5 -9q-10 0 -10 8q0 12 11.5 33.5 t15.5 33.5l94 250q8 18 21.5 50t13.5 51q0 23 -15.5 33t-34.5 20q-8 4 -22 12t-30.5 15.5t-32 13.5t-23.5 6q-18 0 -32.5 -14.5t-25 -34t-17.5 -40t-13 -34.5q-53 -147 -112.5 -290.5t-121.5 -284.5q-25 -55 -49 -109.5t-49 -108.5q-29 -66 -56.5 -131t-58.5 -131 q-8 -16 -15 -32.5t-7 -34.5z" />
<glyph unicode="L" horiz-adv-x="673" d="M-20 197q0 -37 15 -65t38 -56q27 -35 53.5 -55.5t71.5 -20.5q31 0 84 7t110.5 19.5t107.5 28t75 31.5q31 20 54 62t23 79q0 23 -15 44.5t-40 21.5t-52.5 -9.5t-51.5 -15.5q-45 -12 -90.5 -23.5t-90.5 -21.5q-12 -4 -20 -4q-12 0 -12 14q0 8 3 21.5t8 28t9 29t6 22.5 q16 59 40 117.5t46 115.5q41 98 85 192.5t91 192.5q27 55 51.5 109.5t51.5 109.5q8 17 8 37q0 18 -17.5 43t-42 46.5t-50 36t-44.5 14.5q-25 0 -44 -32t-29 -52q-16 -35 -33 -69t-33 -69q-18 -41 -53 -112.5t-76 -160.5t-83 -186.5t-76.5 -187.5t-56 -164.5t-21.5 -117.5z " />
<glyph unicode="M" horiz-adv-x="1243" d="M-88 137q0 -25 17.5 -53.5t33.5 -46.5q16 -23 33.5 -36t46.5 -13q41 0 56.5 13t27.5 52q27 88 59.5 174t67.5 172q43 102 85 205t91 201q2 2 7 14t11.5 25.5t12.5 24t10 10.5t5 -4.5t1 -8.5q0 -16 -1 -33.5t-3 -33.5q-10 -123 -21.5 -244t-23.5 -244q-4 -27 -9 -64.5 t-5 -64.5q0 -31 23.5 -50t45.5 -34q14 -8 43 -24.5t45 -16.5q23 0 34 22.5t18 39.5q27 80 64.5 163t81.5 165.5t92 161.5t97 149q4 6 17.5 25.5t31 42t33 40t21.5 17.5q2 -2 2 -6q0 -6 -13.5 -49.5t-29.5 -94.5t-31.5 -95t-17.5 -54q-39 -117 -64.5 -228.5t-48.5 -232.5 q-6 -29 -6 -55q0 -29 14.5 -40.5t36.5 -21.5q31 -14 55.5 -31.5t53.5 -35.5q10 -8 30 -9q23 0 26 17.5t3 34.5q0 57 13.5 134t23.5 134q14 78 33.5 152.5t40.5 150.5q33 119 67.5 235.5t75.5 233.5q6 14 13.5 33.5t15.5 40t13 41t5 34.5t-10 36t-25.5 43.5t-32 40 t-28.5 28.5q-16 12 -37 12q-25 0 -43 -14t-35 -31q-72 -70 -137.5 -144.5t-124.5 -154.5q-55 -72 -105.5 -145.5t-91.5 -155.5q-8 -16 -14 -32.5t-18 -28.5q-4 8 -4 16q0 35 5 73t9 72q10 90 19.5 177.5t9.5 179.5v51q0 31 -6.5 59.5t-19.5 52t-38 35.5q-10 4 -30.5 10.5 t-42 12.5t-41 10t-29.5 4q-47 0 -47 -45q0 -33 7 -65.5t7 -65.5q0 -4 -16.5 -26.5t-37 -50t-39 -52t-24.5 -33.5q-57 -86 -104 -174t-92 -180q-10 -18 -32 -61t-48.5 -98.5t-55 -117t-53 -116.5t-40 -97t-15.5 -59z" />
<glyph unicode="N" horiz-adv-x="925" d="M-20 168q0 -43 21.5 -70.5t53.5 -52.5q16 -12 40 -27.5t44 -15.5q23 0 31 20.5t14 36.5q10 31 19.5 63t19.5 62l80 271q18 63 38.5 125.5t43.5 124.5q6 16 14.5 46.5t16.5 43.5q10 -23 11 -48.5t5 -48.5q16 -123 35.5 -245.5t19.5 -245.5q0 -51 -2 -79t4.5 -46.5 t27 -36.5t67.5 -49q10 -6 33.5 -21.5t35.5 -15.5t22.5 17.5t16.5 39t10.5 42t6.5 28.5q23 96 53.5 200.5t66 210t74.5 207t80 191.5q2 4 12.5 26.5t24.5 54.5t29.5 67.5t29 68.5t22.5 56.5t9 29.5q0 23 -17.5 38t-31.5 30q-10 8 -18.5 24.5t-17.5 31.5t-21.5 26.5 t-28.5 11.5q-23 0 -37 -19.5t-25 -37.5q-55 -121 -105 -251t-91 -257q-14 -43 -26.5 -85t-22.5 -87q-10 43 -11 87t-8 87q-14 102 -29.5 203.5t-31.5 203.5q-6 41 -15.5 70t-25 47t-42 29.5t-69.5 17.5q-31 6 -65 6q-35 0 -45.5 -12t-10.5 -45q0 -41 10.5 -79t10.5 -79 q0 -6 -13.5 -43t-30 -82t-31.5 -86t-21 -53q-31 -78 -63 -154.5t-60 -154.5q-25 -63 -47.5 -126t-44.5 -126q-12 -35 -28.5 -75t-16.5 -79v-12z" />
<glyph unicode="O" horiz-adv-x="870" d="M27 344q0 -55 18 -118.5t53 -118t85 -89t116 -34.5q74 0 146.5 42t136 104.5t116 133t84.5 127.5q68 119 114 259.5t46 279.5q0 70 -14.5 150.5t-38.5 146.5q-4 12 -17.5 37.5t-31.5 25.5q-8 0 -18.5 -6t-23 -12t-23.5 -12.5t-19 -6.5q-10 0 -26.5 19.5t-35 44t-39 44 t-41.5 19.5q-25 0 -50 -18.5t-42 -34.5q-78 -70 -158.5 -161t-134.5 -181q-39 -63 -74.5 -143t-64.5 -166t-46 -172t-17 -160zM260 303q0 76 18.5 156t47 158.5t66.5 153.5t79 136q8 12 30.5 45t49.5 69t53.5 63.5t40.5 27.5q18 0 30.5 -16.5t19.5 -38t11.5 -45t4.5 -35.5 q0 -80 -27 -176t-70 -191.5t-95 -181.5t-101 -147q-8 -10 -21.5 -24.5t-29 -27t-32 -21.5t-30.5 -9q-16 0 -25.5 12t-13.5 28.5t-5 35t-1 28.5z" />
<glyph unicode="P" horiz-adv-x="870" d="M-47 104q0 -25 10 -38t27.5 -19t37 -8t38.5 -4q23 -4 48 -17.5t42 -13.5q18 0 28.5 16.5t14.5 32.5q4 12 18 55.5t33.5 100.5t42 120.5t42 118t34 89t18.5 36.5q8 -12 19.5 -32.5t24.5 -40t27.5 -34.5t33.5 -15q18 0 56 22.5t78 53t75.5 60t50.5 42.5q33 31 70.5 67.5 t73.5 78.5t66.5 85t47.5 84q10 25 14 51.5t4 55.5q0 76 -29.5 132t-80 94t-115 56.5t-131.5 18.5q-25 0 -84.5 -6.5t-123 -19.5t-111.5 -35.5t-48 -53.5q0 -18 7 -38.5t14.5 -41t14.5 -41t7 -35.5q0 -14 -6 -27.5t-12 -25.5q-98 -186 -174 -379.5t-152 -388.5 q-6 -14 -14 -34.5t-16.5 -43t-14.5 -43t-6 -35.5zM446 735q0 6 7.5 25.5t11.5 25.5l27 72q18 51 44.5 99.5t43.5 101.5q4 8 8 19.5t10 15.5q2 4 19.5 8t37 7t39 5t25.5 2q27 0 59.5 -12t32.5 -45q0 -31 -29.5 -75t-70.5 -87t-83 -79t-69 -52q-14 -10 -48 -28.5t-50 -18.5 q-14 0 -15 16z" />
<glyph unicode="Q" horiz-adv-x="882" d="M27 340q0 -70 19.5 -132.5t57 -110.5t95 -76.5t131.5 -28.5q53 0 95 19.5t85 45.5q6 -2 16.5 -29.5t25.5 -61.5t34.5 -61.5t42.5 -27.5q16 0 41.5 14.5t49 36t41 44t17.5 38.5t-16.5 50t-35.5 71t-35.5 67.5t-16.5 41.5q0 12 12 24q117 154 178.5 319.5t61.5 358.5 q0 49 -5.5 97t-50.5 79q-4 2 -14 8.5t-21.5 14.5t-20.5 15t-9 11q0 8 13 14.5t29.5 14.5t30 17.5t13.5 21.5q0 14 -14.5 36.5t-35 45t-45 39t-42.5 16.5q-20 0 -44 -9t-48.5 -22.5t-47 -28t-36.5 -24.5q-61 -41 -111.5 -80t-94.5 -82t-84 -93t-79 -113q-37 -61 -71 -132 t-58.5 -147t-38.5 -152.5t-14 -148.5zM272 287v28q0 92 28 196.5t75 205t110.5 187.5t137.5 147q8 6 30.5 23.5t32.5 17.5q6 0 10 -14.5t6.5 -32t3.5 -34t1 -20.5q0 -92 -19.5 -177t-54.5 -171q-2 -6 -8.5 -19.5t-13.5 -28.5t-14 -27.5t-13 -16.5q-8 -4 -15.5 -5t-15.5 -3 q-10 -2 -30.5 -4t-44 -6.5t-43 -11.5t-25.5 -15q-10 -14 -11.5 -29.5t-1.5 -32.5q0 -27 3 -54.5t12 -53.5q2 -6 4 -12.5t2 -12.5q0 -10 -12.5 -27.5t-29 -34t-33.5 -27.5t-28 -11q-16 0 -25 12.5t-13.5 28.5t-4.5 35z" />
<glyph unicode="R" horiz-adv-x="890" d="M-49 129q0 -6 9 -21.5t21.5 -33t23.5 -30.5t15 -13l50 -6q18 -4 35.5 -18.5t37.5 -14.5q18 0 26.5 24.5t12.5 38.5q16 68 44 135.5t53 133.5q18 49 36.5 98t38.5 96q4 8 10.5 28.5t16.5 20.5q4 0 7 -10t6 -23.5t5 -26.5t2 -18q25 -131 62 -263t100 -251q20 -37 36.5 -57 t55.5 -37q2 -2 16.5 -7t16.5 -5q14 0 26.5 10t21.5 21.5t18.5 21.5t17.5 10q10 0 19.5 -2t19.5 -2t22.5 17.5t12.5 27.5t-7.5 20.5t-13.5 16.5q-37 45 -64.5 102.5t-50 118t-41 122t-32.5 116.5q-2 6 -6 20.5t-9.5 30t-8.5 29.5t-3 20q0 16 8.5 22.5t20.5 12.5 q53 27 118.5 73t124 102.5t98.5 120.5t40 130t-31 130.5t-80 107.5q-59 53 -125.5 68.5t-144.5 15.5q-76 0 -151.5 -11.5t-147.5 -37.5q-29 -10 -43 -24.5t-14 -45.5q0 -37 10 -79t33 -73q4 -4 7 -9t3 -9q-33 -84 -71 -163t-72 -161q-6 -12 -26 -60t-47.5 -112.5t-57 -137.5 t-54 -136.5t-41 -108.5t-16.5 -55zM463 795q0 6 14.5 42.5t31.5 76.5t33 74l15 34q0 2 5 14.5t11.5 25.5t11.5 25.5t7 14.5q6 6 23.5 10t37 7t38 4t28.5 1q31 0 63.5 -12t32.5 -51q0 -33 -33.5 -69t-78 -69.5t-89.5 -60t-67 -41.5q-10 -6 -35 -21.5t-37 -15.5t-12 11z" />
<glyph unicode="S" horiz-adv-x="770" d="M-49 162q0 -37 29 -72q35 -47 88 -70.5t110 -23.5q92 0 185.5 36t168 98.5t120.5 147t46 183.5q0 109 -42 176.5t-93 113.5t-93 80.5t-42 75.5q0 29 20.5 60.5t50 60.5t61.5 52.5t54 35.5q8 4 23.5 13.5t32 17.5t33 14t24.5 6q12 0 12 -10q0 -12 -14 -31.5t-31.5 -42 t-32 -48t-14.5 -46.5q0 -23 12.5 -33t31 -15t39 -6t34.5 -3q10 -2 22.5 -4t22.5 -4q8 -2 16.5 5t12.5 11q25 31 50 60.5t50 60.5q29 33 50.5 69.5t21.5 79.5t-17.5 73t-46 48.5t-64.5 26.5t-73 8q-88 0 -166 -24.5t-154 -65.5q-41 -23 -82.5 -49.5t-76.5 -61.5 q-59 -57 -88 -137t-29 -162q0 -102 42 -164.5t92 -106.5t92 -78t42 -79q0 -41 -29.5 -80t-72.5 -69.5t-90 -49t-82 -18.5q-31 0 -43 17.5t-21.5 39t-18.5 39t-34 17.5q-20 0 -43.5 -19.5t-45 -47t-36 -56.5t-14.5 -49z" />
<glyph unicode="T" horiz-adv-x="745" d="M129 141q0 -33 22.5 -54t47.5 -38q6 -4 19 -12t27.5 -18.5t28 -17.5t19.5 -7q12 0 21.5 9t17.5 22.5t13 28t9 22.5l99 284q35 104 72.5 206t78.5 204q29 72 60.5 141.5t64.5 141.5q6 14 12.5 27.5t10.5 29.5q6 20 13 22.5t28 6.5l50 8t52 4q18 0 40.5 -2t42 2t33 17 t13.5 42t-20.5 70t-42.5 57q-14 10 -28.5 11.5t-31.5 1.5q-41 0 -82 -3.5t-82 -5.5q-84 -4 -164.5 -11t-164.5 -17q-12 -2 -35 -4t-45.5 -5.5t-43 -10.5t-28.5 -17q-10 -10 -12 -24.5t-2 -28.5q0 -10 4 -28.5t9 -37t12 -35t14 -22.5q8 -10 16 -11.5t20 -1.5q41 0 79 12.5 t79 12.5q4 0 14.5 -1t10.5 -7t-13.5 -40t-30 -74t-31.5 -75.5t-17 -44.5q-41 -102 -81 -202.5t-83 -202.5q-10 -23 -29.5 -67t-38 -93t-33 -94t-14.5 -70z" />
<glyph unicode="U" horiz-adv-x="913" d="M41 317q0 -55 16.5 -113.5t48 -104.5t79.5 -75.5t112 -29.5q35 0 72 11t71.5 29.5t65.5 42t55 46.5q49 45 93 101.5t84 117.5t75 124.5t64 123.5q27 55 61.5 133t63 163t49 167t20.5 143q0 102 -96 152q-20 10 -39 10q-23 0 -31 -18.5t-14 -34.5q-10 -29 -19.5 -60 t-19.5 -59l-72 -199q-51 -141 -120.5 -269t-149.5 -253q-12 -18 -39 -58t-57.5 -81t-61 -72t-51.5 -31q-16 0 -19 17.5t-3 27.5q0 94 29.5 211t73.5 237t93 232.5t86 198.5q6 12 14.5 29.5t17.5 36t15 37t6 30.5q0 20 -14 33.5t-34.5 23t-43 13.5t-37.5 4q-35 0 -53 -10.5 t-39 -38.5q-18 -27 -38.5 -65t-41 -78t-40 -77.5t-33.5 -68.5q-37 -74 -72 -161t-63.5 -179t-46 -183.5t-17.5 -175.5z" />
<glyph unicode="V" horiz-adv-x="833" d="M82 129q0 -29 15.5 -50.5t37.5 -39.5q6 -6 18.5 -15.5t27 -18.5t27.5 -16t21 -7q10 0 25.5 11t31 26.5t29 29.5t19.5 23q205 238 383 499q45 66 87 130.5t79 134.5l106 194q6 12 17.5 31.5t21.5 41t17.5 42.5t7.5 37q0 35 -17.5 61.5t-40.5 50.5q-14 16 -39.5 39 t-48.5 23t-34 -16.5t-19 -32.5l-43 -107q-92 -231 -225 -444q-16 -27 -41 -67t-51.5 -81t-53 -78.5t-47.5 -58.5q-2 -2 -9 -10t-16.5 -18.5t-16.5 -18.5t-9 -8l-4 4q0 8 3 24.5t6 34t7 33.5t6 27q27 117 53.5 232.5t55.5 232.5q4 18 11 43.5t14.5 53t12.5 54.5t5 45 q0 12 -6 31.5t-14.5 40t-19.5 38t-19 25.5q-12 10 -36 13.5t-40 3.5q-35 0 -54.5 -7.5t-30.5 -22.5t-16.5 -37.5t-9.5 -53.5q-12 -76 -27.5 -151.5t-29.5 -151.5q-29 -156 -54.5 -310.5t-48.5 -310.5q-2 -16 -6 -40.5t-8 -50.5t-7 -49.5t-3 -37.5z" />
<glyph unicode="W" horiz-adv-x="1306" d="M109 141q0 -25 9 -42t23.5 -30.5t33 -23.5t36.5 -22q12 -8 24.5 -17.5t28.5 -9.5q18 0 33.5 10t30 25.5t24.5 32t21 30.5l114 166q39 55 73 113.5t69 118.5q25 41 49 81.5t47 81.5q2 4 5 8.5t7 4.5q2 -4 2 -15q0 -72 -8 -142.5t-16 -141.5q-6 -55 -8 -111.5t-2 -112.5 q0 -51 5 -85.5t50 -65.5q18 -12 50 -28.5t54 -16.5q35 0 51.5 30.5t30.5 57.5q72 139 145.5 275.5t145.5 275.5q37 72 71.5 144.5t69.5 144.5q8 16 35 66t54.5 107.5t49 110t21.5 70.5q0 27 -18.5 46t-34.5 36q-10 10 -19.5 19t-19.5 17.5t-21.5 10.5t-23.5 2 q-25 0 -42.5 -13.5t-29.5 -32t-21.5 -41t-15.5 -40.5q-35 -90 -75.5 -177t-81.5 -175q-41 -92 -85 -181.5t-87 -181.5q-4 -8 -15.5 -29.5t-15.5 -25.5q-4 0 -4 4q-4 8 -4 12q0 16 3 30.5t5 31.5q4 29 7 59.5t7 59.5q12 113 30.5 224t35.5 222q2 8 6 32.5t9 50.5t9 47.5 t4 25.5q0 14 -15 34.5t-36.5 37t-44 28.5t-37.5 12q-39 0 -62.5 -35.5t-35.5 -66.5q-14 -35 -27.5 -69t-29.5 -68q-47 -96 -97.5 -189.5t-103.5 -185.5q-23 -41 -46.5 -80t-45.5 -80q-14 -25 -27.5 -51.5t-30.5 -48.5q-6 -10 -13 -19.5t-11 -19.5q-2 -4 -5 -10.5t-10 -8.5 q-4 4 -4 9q0 23 7.5 46t11.5 46l123 608q6 33 16 64.5t10 64.5q0 25 -16 37t-49 27.5t-49 25.5q-25 12 -47 12q-59 0 -80 -53q-12 -31 -22.5 -78t-18.5 -98t-14.5 -98t-10.5 -80q-10 -72 -21.5 -140.5t-21.5 -140.5q-10 -66 -19.5 -131t-17.5 -131q-6 -53 -11 -104t-11 -105 q-2 -20 -5 -40.5t-3 -43.5z" />
<glyph unicode="X" horiz-adv-x="864" d="M-88 164q0 -27 13.5 -41t29.5 -31q8 -10 21.5 -25.5t26.5 -31t26.5 -26.5t25.5 -11q14 0 27.5 11t25 26.5t19.5 32t14 26.5q53 98 126 184.5t145 170.5q4 4 14 16t16 12t7.5 -11t1.5 -15q0 -63 6 -127l14 -179q0 -14 2 -39.5t6 -54t11.5 -53.5t17.5 -35q12 -10 35 -10 q20 0 43.5 11t46 27.5t41 35t31 35t14.5 28.5t2 33q0 47 -7 92t-14 92q-10 78 -21 154t-20 153q-2 16 -5 35t-3 35t1 20.5t14 14.5l71 69q47 47 94.5 93.5t98.5 87.5q35 29 61.5 51t45 47t28.5 57.5t10 79.5q0 10 -1 31.5t-6 42t-15.5 36t-26.5 15.5t-50 -25.5t-77 -63.5 t-90 -82t-87 -82t-67.5 -63.5t-31.5 -25.5q-8 0 -12.5 22.5t-6.5 28.5q-10 49 -17 99.5t-16 101.5q-2 14 -5 35.5t-11 41t-20.5 33t-32.5 13.5q-10 0 -24.5 -4t-31 -10.5t-32 -12.5t-23.5 -10q-25 -10 -46 -30.5t-21 -49.5q0 -12 2 -24.5t6 -24.5q25 -98 41 -196.5 t30 -198.5q2 -16 -2 -24.5t-14 -18.5q-109 -113 -210 -225.5t-197 -235.5q-14 -18 -28.5 -37.5t-25.5 -40.5q-14 -29 -14 -55z" />
<glyph unicode="Y" horiz-adv-x="780" d="M-27 129q0 -18 17.5 -46t41 -53.5t48 -44t41.5 -18.5q23 0 40 16.5t32 32.5q41 47 80.5 95.5t80.5 95.5q88 104 170 210.5t164 215.5q78 104 152.5 210.5t140.5 219.5q23 37 47.5 87t24.5 95q0 25 -10.5 51.5t-28 48t-41 35t-49.5 13.5q-20 0 -33.5 -25t-22.5 -41 q-41 -84 -90 -164t-98 -157q-25 -41 -51.5 -81t-55.5 -79q-4 -4 -15 -19.5t-25.5 -33t-26.5 -31.5t-17 -14q-6 0 -9 16t-3 20q-4 29 -6 58.5t-2 58.5q0 76 8 154t25 151q2 10 4 18.5t2 18.5q0 20 -21.5 45t-51 46.5t-59.5 35.5t-48 14q-27 0 -34 -10t-13 -33 q-10 -43 -17.5 -101t-11.5 -119.5t-6 -120t-2 -103.5q0 -57 1 -119.5t15 -120.5q4 -23 18.5 -46t36.5 -29q4 -2 17.5 -4.5t13.5 -10.5t-19.5 -32.5t-49 -58.5t-64.5 -72.5t-67.5 -73.5t-58.5 -61.5t-36 -35.5q-8 -8 -21.5 -20t-25.5 -26.5t-21.5 -30t-9.5 -27.5z" />
<glyph unicode="Z" horiz-adv-x="827" d="M-63 193q0 -27 21.5 -64t33.5 -59.5t29.5 -51t46.5 -28.5q23 0 45 7t43 13q59 16 122.5 23.5t122.5 15.5q57 6 112.5 7t113.5 1q47 0 78 33q6 6 17 19.5t22.5 29t19.5 28.5t8 21q0 6 -6 18.5t-14.5 27t-16.5 26.5t-12 16q-8 10 -23 11q-27 0 -53 -6q-31 -6 -61.5 -11.5 t-61.5 -9.5q-49 -8 -113.5 -18.5t-113.5 -10.5q-8 0 -16 5q2 6 17 26.5t35.5 45t39 47t24.5 28.5q215 260 424 528q29 37 57.5 75t59.5 75q6 8 19.5 23.5t25.5 32t21.5 33t9.5 28.5t-2 27.5t-6 25.5q-16 16 -28.5 37.5t-25.5 40.5q-8 12 -26.5 19t-40 11t-43 5.5t-33.5 1.5 q-37 0 -103.5 -5.5t-139 -14.5t-136 -20.5t-94.5 -25.5q-27 -12 -31 -31.5t-4 -46.5q0 -10 2 -32.5t8 -45t16.5 -39t26.5 -16.5q12 0 32 4t41.5 10.5t41.5 11.5t35 7q16 2 41.5 7t52.5 10t51.5 8t38.5 3q4 0 13.5 -1t9.5 -9q0 -4 -5.5 -11t-12.5 -15.5t-13 -14.5l-8 -8 q-78 -86 -152 -174t-151 -174l-236 -258q-43 -47 -84 -96.5t-80 -100.5q-12 -16 -22 -35.5t-10 -39.5z" />
<glyph unicode="a" horiz-adv-x="772" d="M-27 260q0 -31 9.5 -74t30 -81.5t49 -65.5t69.5 -27q53 0 113.5 33t101.5 66q6 4 13.5 10t17.5 6q6 0 6 -10q0 -8 -2 -15.5t-2 -15.5v-20q0 -25 18.5 -43.5t44 -28.5t53 -15.5t46.5 -5.5q39 0 50 16.5t11 53.5q0 68 11.5 135.5t27.5 132.5q29 121 69 230.5t95 220.5 q6 12 15 28.5t18.5 35t16.5 35t7 28.5q0 45 -32.5 74.5t-67.5 46.5q-16 8 -29 8q-18 0 -32.5 -18.5t-26.5 -40t-21.5 -40t-17.5 -20.5q-10 8 -19.5 22.5t-19.5 28t-23.5 22.5t-27.5 9q-18 0 -54 -18.5t-75 -42t-74 -47t-49 -33.5q-109 -82 -176.5 -171t-110.5 -218 q-16 -47 -24.5 -94.5t-8.5 -96.5zM193 262q0 35 11 70t23 65q39 94 89.5 167t132.5 134q8 6 23 17.5t33.5 22t35 17.5t28.5 7q4 0 4 -6q0 -8 -12 -31t-16 -33q-35 -68 -60.5 -139.5t-50.5 -142.5q-10 -29 -19 -42.5t-32 -33.5q-12 -12 -35.5 -28.5t-48.5 -32t-47.5 -26.5 t-36.5 -11q-23 0 -22 26z" />
<glyph unicode="b" horiz-adv-x="788" d="M-88 135q0 -29 17.5 -48t37.5 -36q6 -6 17.5 -14t25 -17.5t25.5 -15.5t20 -6q23 0 31 16.5t16 32.5q6 14 14.5 29.5t12.5 32.5l6 4q4 0 22.5 -20.5t41 -44t45 -44t39.5 -20.5q20 0 56 25.5t74 59t70.5 67.5t46.5 48q41 45 85 102.5t81 122t61.5 131.5t24.5 130 q0 66 -23.5 129t-70.5 110q-14 14 -31.5 24.5t-40.5 10.5q-33 0 -69.5 -22.5t-63.5 -38.5q-8 -4 -17 -11.5t-20 -11.5q0 2 -1 3t-1 3q0 4 1 7.5t1 7.5q2 6 7.5 20t10.5 30.5t9 33t8 24.5q8 23 20.5 58.5t25 74.5t21.5 76t9 64q0 29 -13.5 46t-35.5 31q-14 8 -43 26.5 t-45 18.5q-23 0 -33 -20.5t-14 -36.5q-10 -33 -18.5 -64.5t-18.5 -62.5l-72 -201q-23 -59 -42 -120.5t-42 -120.5q-47 -119 -101 -234.5t-110 -232.5q-6 -14 -16 -34.5t-19.5 -42t-15.5 -42t-6 -37.5zM193 244q0 6 8 24.5t18 39t19.5 39t13.5 24.5q16 29 28.5 61.5 t24.5 63.5q14 35 29.5 70.5t27.5 70.5q6 16 9.5 20.5t19.5 14.5q35 18 71 37.5t77 19.5q16 0 33.5 -9.5t17.5 -29.5q0 -25 -14.5 -59.5t-24.5 -57.5q-20 -41 -57 -98t-83 -111.5t-99.5 -92.5t-104.5 -38q-14 0 -14 11z" />
<glyph unicode="c" horiz-adv-x="653" d="M-35 233q0 -43 17.5 -88t48 -80.5t71.5 -58t88 -22.5q29 0 65 9t73 22.5t69.5 29.5t57.5 33q20 12 33.5 25.5t19.5 37.5q4 18 8 37t10 37q2 4 -3 14.5t-13 19.5t-16.5 16t-14.5 7q-8 0 -24 -8q-39 -23 -63.5 -36t-69.5 -23q-31 -6 -60 -6q-43 0 -57.5 24.5t-14.5 63.5 q0 63 24 129.5t60.5 128t85 115t97.5 92.5q12 12 24 12q10 0 13.5 -7t3.5 -16q0 -20 -3 -39.5t-3 -39.5q0 -33 20 -45.5t49 -12.5q18 0 39 10.5t39 25.5t32.5 32.5t20.5 34.5q4 10 6 28.5t2 28.5q0 39 -16 73.5t-44 59.5t-63.5 39t-74.5 14q-66 0 -133.5 -40t-128 -97 t-109.5 -123.5t-76 -118.5q-18 -35 -34.5 -76.5t-28.5 -87t-19.5 -90.5t-7.5 -84z" />
<glyph unicode="d" horiz-adv-x="790" d="M-41 246q0 -39 14.5 -82t40 -80t61.5 -61.5t79 -24.5q20 0 47.5 10t53.5 25.5t49.5 33t39.5 31.5q6 6 15.5 14.5t17.5 12.5q8 0 8 -14q0 -18 -4 -38t-4 -40q0 -18 16.5 -33.5t40 -27t46 -19.5t34.5 -14q6 -4 16.5 -7.5t18.5 -3.5q27 0 31 24.5t6 43.5q4 59 14 119.5 t25 120.5q29 127 71.5 248.5t89.5 240.5q41 100 81 199.5t83 197.5q4 8 12.5 24.5t17.5 35t15 35t6 22.5q0 14 -13 40t-31.5 51.5t-39 44t-34.5 18.5q-18 0 -31.5 -23.5t-20.5 -38.5q-12 -16 -22 -40.5t-21 -43.5q-37 -76 -69.5 -151.5t-63.5 -153.5q-2 -4 -7 -15.5 t-11 -24.5t-12.5 -24.5t-8.5 -11.5q-12 14 -20 29.5t-18 32.5q-8 12 -13.5 20t-21.5 8q-12 0 -33 -7t-42.5 -16t-39.5 -18.5t-31 -15.5q-86 -41 -164.5 -111.5t-140 -158.5t-97.5 -187.5t-36 -195.5zM174 258q0 16 5 38.5t11.5 47.5t14.5 47.5t14 38.5q45 104 125 186 t184 132q10 4 19.5 8t19.5 4q6 0 6 -8q0 -14 -13 -44t-19 -44q-18 -47 -39 -96.5t-37 -98.5q-6 -16 -9 -27.5t-8.5 -19.5t-13.5 -17.5t-20 -21.5q-16 -16 -30.5 -28.5t-31.5 -26.5q-10 -8 -30.5 -24.5t-45 -32t-47 -28t-34.5 -12.5q-20 0 -21 27z" />
<glyph unicode="e" horiz-adv-x="686" d="M-35 264q0 -53 15.5 -103t45 -89t73.5 -63.5t102 -24.5q41 0 79.5 11t77.5 25q31 12 76 32t68 46q16 16 28.5 45t12.5 52t-13.5 40t-35.5 17q-23 0 -46.5 -10.5t-44.5 -18.5q-29 -12 -70.5 -19t-74.5 -7q-41 0 -58.5 21.5t-17.5 62.5q0 8 2 31.5t6.5 49t10.5 46t16 22.5 q14 -10 24.5 -24.5t20.5 -29t23.5 -23.5t33.5 -9q35 0 79 15.5t87 39t82 51t64 52.5q47 47 74.5 110t27.5 129q0 43 -14 81t-41 68t-63.5 46t-82.5 16q-47 0 -93 -15t-90 -40t-83 -56.5t-69 -62.5q-47 -47 -89 -108.5t-74 -129t-50.5 -138t-18.5 -138.5zM254 524q0 6 9 22.5 t13 22.5q12 23 40 60t62 72.5t67.5 62.5t62.5 27q31 0 31 -31q0 -27 -10.5 -55.5t-28 -55t-38 -49t-40.5 -37.5q-25 -16 -70 -32.5t-76 -16.5q-4 0 -13 2t-9 8z" />
<glyph unicode="f" horiz-adv-x="522" d="M-47 90q0 -10 2 -20.5t10 -16.5q10 -8 20.5 -15t20.5 -15q23 -16 39 -29.5t45 -13.5q35 0 48.5 20t23.5 49q6 20 23.5 75.5t41 127.5t49 149.5t50 145t44 115t31.5 55.5q8 6 32 10t51.5 6t53 3t35.5 1q8 0 16.5 -1t16.5 -1q29 0 43.5 24.5t14.5 49.5q0 12 -7 22 q-14 16 -33.5 45t-35.5 39h-51q-10 0 -21.5 -2t-21.5 -2t-11 11q0 8 11.5 31.5t15.5 33.5q16 37 37.5 72t42.5 69q6 10 17 28t26 18q12 0 15 -12.5t8.5 -27t17.5 -26.5t41 -12q31 0 48 11t28.5 30.5t16.5 43t9 48.5q6 30 6 63q0 23 -13 41.5t-33.5 32.5t-43 21.5t-43.5 7.5 q-37 0 -76 -18.5t-75.5 -46t-68.5 -59.5t-52 -57q-51 -59 -87 -126.5t-71 -139.5q-8 -16 -15 -33.5t-26 -21.5q-16 -4 -36.5 -10t-39 -15.5t-31 -24t-12.5 -36.5q0 -29 17.5 -72t29.5 -69q0 -2 -10 -28l-22.5 -58.5t-23.5 -61.5t-13 -37q-10 -27 -30.5 -83t-42 -117.5 t-37 -115.5t-15.5 -75z" />
<glyph unicode="g" horiz-adv-x="710" d="M-287 -258q0 -43 21.5 -98.5t50.5 -85.5q14 -16 35.5 -26.5t46 -17t48.5 -9.5t44 -3q115 0 229 31q53 14 115 42t114 68t86 93t34 119t-25 100.5t-78 69.5q-55 35 -125 61q-12 4 -30.5 11t-36 17.5t-29.5 24t-12 29.5q0 8 6 19.5t14 22.5t17.5 19.5t15.5 8.5q8 0 16 -5 q16 0 29.5 -2t30.5 -2q20 0 43.5 9.5t46 22.5t44 28.5t36.5 27.5q86 74 131 164t45 207q0 10 -2 17v12q0 4 9 7t11 3l82 25q14 4 21.5 9t7.5 21t-2 32.5t2 33.5q2 16 5 30.5t3 30.5t-6 28.5t-25 12.5q-12 0 -39.5 -8t-58.5 -18.5t-61.5 -18.5t-49.5 -8q-6 0 -21 18.5 t-33.5 41t-39 41t-39.5 18.5q-8 0 -23.5 -8.5t-30.5 -19.5t-29.5 -21.5t-20.5 -16.5q-53 -41 -100.5 -89t-81.5 -105q-31 -51 -54.5 -119t-23.5 -127q0 -41 8 -79t31 -73q4 -4 7 -11t3 -11q0 -10 -29.5 -27.5t-66.5 -44t-67 -62.5t-30 -85q0 -39 17.5 -65.5t17.5 -37.5 q0 -6 -40 -30.5t-87 -61.5t-87 -84t-40 -96zM-98 -299q0 12 36.5 49t82 77t83 70.5t39.5 30.5q8 0 25 -8q14 -6 34.5 -14t42 -19.5t41 -24t29.5 -26.5q9 -4 9 -12q0 -10 -13.5 -20.5t-30 -19.5t-34 -17.5t-23.5 -10.5q-29 -12 -63.5 -25.5t-71.5 -25.5t-72.5 -19.5 t-66.5 -7.5q-10 0 -28.5 3.5t-18.5 19.5zM264 461q0 35 11.5 71.5t29 72.5t37.5 69t41 59q6 6 17.5 21.5t24.5 31t26.5 26.5t23.5 11q18 0 23.5 -27.5t5.5 -39.5q0 -2 -1 -3t-1 -3q-2 -14 -2 -29q0 -12 -4 -27q-10 -55 -36 -106t-59 -99q-8 -10 -19 -24t-24.5 -26.5 t-28 -21.5t-28.5 -9q-23 0 -30 18t-7 35z" />
<glyph unicode="h" horiz-adv-x="770" d="M-88 106q0 -25 25 -38q10 -4 20 -10.5t20 -10.5q20 -10 42 -31.5t40 -21.5q23 0 34 17.5t18 35.5q39 125 83 245t95 240q10 25 18 41.5t17.5 29.5t22.5 25.5t36 28.5q18 14 37.5 26.5t40.5 25.5q10 6 25.5 13t27.5 7q27 0 27 -29q0 -35 -18.5 -100t-44 -136t-52.5 -136.5 t-45 -98.5l-53 -102q-4 -10 -8.5 -20.5t-4.5 -20.5q0 -16 18.5 -43t43 -51.5t50.5 -42t38 -17.5q25 0 39 26t22 44q51 121 97.5 240.5t85.5 244.5q20 63 37.5 138t17.5 141q0 27 -10.5 58.5t-28.5 58t-44 44t-56 17.5q-23 0 -54.5 -13t-62.5 -29.5t-53.5 -30t-24.5 -13.5 q-8 0 -8 6q0 4 11 24.5t16 26.5q12 25 24 48.5t25 48.5q6 12 23.5 45t37 70.5t33.5 73.5t14 56q0 16 -17.5 40t-41 46.5t-47 39t-33.5 16.5q-16 0 -31.5 -28t-21.5 -40q-41 -90 -85 -182t-81 -184q-35 -86 -70 -171t-69 -171q-4 -10 -20.5 -49t-39 -92.5t-46 -114 t-44 -114.5t-34 -94t-13.5 -53z" />
<glyph unicode="i" horiz-adv-x="346" d="M-88 102q0 -23 9 -35t23.5 -18t32 -10t31.5 -10q16 -8 32.5 -26.5t33.5 -18.5q18 0 23 16t9 31q4 27 11.5 51t17.5 49l47 137q41 119 87 231.5t106 223.5q12 25 25.5 53.5t13.5 57.5q0 14 -5.5 26t-11.5 25q-16 29 -26.5 40t-40.5 21q-2 0 -17.5 5t-17.5 5 q-8 0 -17.5 -11t-18.5 -24.5t-17.5 -26.5t-10.5 -20q-16 -29 -45.5 -90t-65.5 -139t-73 -163t-66.5 -160.5t-49 -135t-19.5 -84.5zM324 1196q0 -18 12 -40.5t30.5 -41t40 -31t39.5 -12.5q23 0 34.5 18.5t19.5 35t14 31.5t16.5 31.5t25.5 42.5t15 42q0 27 -19.5 42t-37.5 29 q-14 10 -38.5 31t-43.5 21q-14 0 -25.5 -10.5t-20.5 -26t-16.5 -31.5t-11.5 -27q-10 -20 -22 -50.5t-12 -53.5z" />
<glyph unicode="j" horiz-adv-x="346" d="M-383 -365q0 -29 23.5 -42t46.5 -23q8 -4 24.5 -10t34.5 -12.5t34.5 -10.5t22.5 -4q16 0 34 13.5t33 32t27.5 36.5t20.5 31q80 123 140.5 253t113.5 267q10 27 29.5 78t43 114.5t47 133t44 132t33 113.5t12.5 76q0 16 -17.5 41t-42 46.5t-48 36.5t-35.5 15 q-18 0 -27.5 -17t-13.5 -32q-8 -29 -15.5 -54.5t-15.5 -53.5q-35 -129 -79 -252t-91 -248q-25 -63 -56.5 -145t-71.5 -164t-85 -154t-96 -117q-14 -12 -42 -35.5t-28 -44.5zM289 1188q0 -45 30.5 -84t77.5 -39q33 0 45.5 12.5t22.5 40.5q6 16 13 33.5t17.5 34t27 39.5 t16.5 41t-15.5 40.5t-37 42t-45 33t-42.5 13.5q-23 0 -43 -26t-35.5 -59.5t-23.5 -68.5t-8 -53z" />
<glyph unicode="k" horiz-adv-x="759" d="M-88 131q0 -25 19.5 -42t33.5 -34q16 -16 28.5 -35.5t37.5 -19.5q57 0 75.5 37t34.5 84l107 287q2 4 7 20t9 21q2 4 6 17t11 13q4 0 8 -16.5t4 -20.5l16 -98q14 -78 32.5 -155.5t55.5 -149.5q4 -8 14.5 -24.5t21.5 -33t24.5 -28.5t23.5 -12q8 0 18.5 5t16.5 9 q20 12 35.5 19.5t29 13.5t29 10t39.5 10q20 4 21 23q0 8 -3 14t-8 12q-31 51 -54 89t-40.5 76t-33 80t-29.5 101q-4 10 -11.5 36t-7.5 36q0 6 9.5 10t13.5 7q23 10 44 23t42 28q51 35 97 78t85 92q16 20 28.5 36.5t19.5 32t10.5 33.5t3.5 47q0 14 -2.5 35t-8.5 41t-18 34.5 t-31 14.5q-10 0 -21.5 -9t-23.5 -22.5t-22.5 -25.5t-16.5 -19q-59 -72 -138 -145.5t-159 -120.5q-8 -4 -20.5 -11t-22.5 -7q-8 0 -8 8q0 2 8 23.5t18.5 48t19.5 50t13 29.5l144 363q8 23 21.5 59.5t13.5 59.5q0 41 -38 72.5t-77 31.5q-29 0 -47.5 -15.5t-30.5 -38t-20.5 -49 t-14.5 -46.5q-39 -127 -89 -248t-101 -244q-29 -70 -57.5 -139.5t-59.5 -139t-62.5 -137t-60.5 -137.5q-4 -10 -8 -22.5t-4 -24.5z" />
<glyph unicode="l" horiz-adv-x="362" d="M-61 125q0 -23 13 -52.5t38 -37.5q10 -4 22.5 -6t22.5 -6q14 -6 30.5 -20.5t32.5 -14.5q23 0 32 20.5t13 38.5q23 86 46.5 170t50.5 170q59 199 140 385t171 373q2 6 11 21.5t17.5 33t15.5 31.5t7 20q0 12 -14.5 32t-20.5 30q-16 23 -31.5 36t-43.5 13q-27 0 -47.5 -15.5 t-37 -38t-28.5 -48t-21 -46.5q-20 -43 -59 -132t-86 -200.5t-95 -233.5t-88 -228.5t-65.5 -186t-25.5 -108.5z" />
<glyph unicode="m" horiz-adv-x="1140" d="M-88 125q0 -29 17.5 -48.5t39.5 -35.5q6 -4 17.5 -13.5t25 -18.5t25.5 -16t20 -7q16 0 28.5 14t22 33.5t15.5 40t10 32.5l113 324q20 61 38.5 108.5t71.5 88.5q8 6 23.5 17t32 21.5t33 17.5t28.5 7q16 0 22.5 -13t6.5 -26q0 -29 -15.5 -78t-23.5 -77q-20 -70 -47 -134.5 t-58 -130.5q-10 -18 -28.5 -56t-18.5 -60q0 -23 12.5 -44.5t32 -40t43 -29.5t43.5 -11q25 0 43 12q10 8 27.5 43t37 86t39 110.5t38 115t33 101.5t20.5 68q4 16 9 27.5t11.5 20t15.5 16.5t23 18q25 18 61 41t68 23q35 0 35 -37q0 -39 -18.5 -101.5t-44 -130t-53 -129 t-46.5 -98.5q-12 -23 -27.5 -53.5t-15.5 -56.5q0 -43 30 -56.5t58 -29.5q12 -8 31 -23.5t33 -15.5q10 0 19.5 10t17.5 23.5t14 27.5t10 23l56 129q18 45 42.5 114.5t46 145t37 147.5t15.5 119q0 33 -10.5 72t-30.5 71.5t-51 54t-70 21.5q-31 0 -67.5 -17.5t-69.5 -38 t-56.5 -39t-27.5 -18.5q-2 4 -3 7.5t-3 7.5q-16 51 -47 96t-92 45q-51 0 -96.5 -32.5t-82.5 -63.5q-8 -8 -16 -10q0 2 -2 2v2q0 18 7 35.5t7 35.5q0 16 -16 34t-37.5 32t-46.5 23.5t-39 9.5q-25 0 -34 -20.5t-15 -39.5q-8 -27 -16.5 -51.5t-18.5 -50.5l-57 -172 q-35 -104 -76 -204.5t-82 -201.5q-4 -12 -12 -31.5t-16.5 -41t-13.5 -41t-5 -31.5z" />
<glyph unicode="n" horiz-adv-x="739" d="M-88 135q0 -29 17.5 -49t39.5 -37q16 -12 44 -32.5t50 -20.5q29 0 41.5 24.5t18.5 47.5q18 68 43 137q20 55 40.5 110.5t41.5 110.5q14 37 26.5 74t26.5 73q16 41 44 75t69 54q16 10 45.5 24.5t50.5 14.5q10 0 16 -9t6 -19q0 -29 -15 -68t-25 -63q-8 -18 -23.5 -56.5 t-35 -86.5t-40 -102t-37 -103.5t-28 -90.5t-11.5 -63q0 -49 39 -83t86 -34q16 0 37 6t31 16.5t15 38t10 42.5q8 45 23 96t34.5 103t40 102.5t39.5 93.5q27 63 50 124.5t23 131.5q0 31 -10 69.5t-28.5 73.5t-47 59.5t-65.5 24.5q-29 0 -60.5 -13t-59.5 -29.5t-48 -30 t-27 -13.5q-6 0 -7 6t-1 10q0 12 2 25.5t2 26.5q0 20 -3 25t-23 16q-14 6 -45 21.5t-48 15.5q-20 0 -31.5 -17.5t-17.5 -34.5l-39 -116q-35 -104 -74.5 -205t-84.5 -199q-6 -14 -25.5 -54t-40 -86t-36 -90t-15.5 -67z" />
<glyph unicode="o" horiz-adv-x="749" d="M-35 283q0 -49 15.5 -104.5t46 -101.5t74.5 -76t102 -30q63 0 127.5 30t123 80t108.5 115.5t87 136t58.5 141.5t21.5 132q0 14 -2 33.5t-7 40t-12.5 38t-17.5 27.5q-16 14 -46 31t-50 27q-6 4 -12.5 6t-10.5 8t-4 21q0 18 -9 40.5t-17 39.5q-8 18 -21.5 43.5t-38.5 25.5 q-16 0 -33.5 -7t-35 -18.5t-32.5 -22.5t-28 -19q-35 -27 -70.5 -54.5t-68.5 -58.5q-51 -47 -96 -108.5t-79 -130t-53.5 -142.5t-19.5 -143zM178 225q0 53 16.5 112.5t43 118t60.5 110.5t71 91l21.5 21.5t33.5 31t34.5 28t24.5 12.5t14.5 -12.5t10.5 -29t5 -32t1 -21.5 q0 -98 -45 -200.5t-107 -175.5q-10 -12 -28.5 -32t-39 -38.5t-42 -31.5t-37.5 -13q-23 0 -30 22.5t-7 38.5z" />
<glyph unicode="p" horiz-adv-x="782" d="M-231 -233q0 -10 3 -22.5t13 -18.5l43 -23q14 -8 24.5 -21.5t20.5 -25.5t22.5 -21.5t30.5 -9.5t30.5 16.5t22 39t15.5 46t12 37.5l119 287q4 6 6 13.5t6 13.5q2 4 7.5 16t11.5 12q8 -10 19 -30.5t24.5 -40t27 -34.5t29.5 -15q29 0 80 33.5t105.5 79.5t101.5 92.5t67 70.5 q74 86 113 183t39 210q0 129 -63.5 213t-200.5 84q-16 0 -29.5 -5t-24.5 -5q-8 0 -8 10q0 14 8 35q0 4 1 8t1 9q0 20 -23.5 32.5t-39.5 20.5q-23 10 -44.5 22.5t-45.5 12.5q-18 0 -26.5 -11.5t-14.5 -27.5q-25 -70 -37 -146q-4 -14 -5 -18t-15 -8q-18 -6 -39 -12.5 t-38.5 -15.5t-27.5 -23.5t-10 -38.5q0 -27 13 -69t26 -65q4 -8 10 -12t10 -12l-3 -11q-3 -10 -7 -22t-8 -22.5t-4 -12.5q-33 -94 -75 -185t-83 -183q-29 -63 -58.5 -125t-62.5 -123q-20 -39 -44.5 -88t-24.5 -94zM213 248q0 6 5 21.5t13.5 32.5t14.5 33.5t10 24.5 q35 82 61.5 164t53.5 168q4 14 13 17.5t24 5.5l50 8t52 4q37 0 52.5 -17.5t15.5 -52.5q0 -41 -19.5 -87t-49.5 -91t-64.5 -84t-65.5 -63q-29 -23 -71 -50.5t-77 -39.5q-4 -2 -10 -2q-8 0 -8 8z" />
<glyph unicode="q" horiz-adv-x="737" d="M-47 219q0 -37 11 -77t32.5 -73.5t53.5 -55t75 -21.5q23 0 50.5 11t52 25.5t43 26t22.5 11.5q8 0 8 -9q0 -4 -2 -6q-10 -25 -26.5 -68.5t-34 -94t-29.5 -97.5t-12 -76q0 -35 21.5 -54t47.5 -38q23 -16 54.5 -34.5t60.5 -18.5q25 0 29 21.5t6 39.5q10 129 44 253t77 247 q47 137 109.5 277.5t135.5 265.5q8 12 16.5 27.5t8.5 31.5q0 18 -12.5 34.5t-28.5 29t-34.5 22.5t-33.5 19q-20 12 -23 21t-3 32t-7.5 49.5t-37.5 26.5q-31 0 -70 -15.5t-68 -25.5q-125 -43 -216 -115t-169 -178q-63 -90 -107 -196.5t-44 -217.5zM168 223q0 10 3 24.5 t7 24.5q41 139 122 251t210 184q12 6 29.5 15t31.5 9q11 0 11 -8q0 -4 -7.5 -20.5t-16.5 -35t-18.5 -35t-11.5 -22.5q-33 -61 -62.5 -125.5t-51.5 -130.5q-10 -29 -18.5 -42t-30.5 -33q-14 -12 -36 -26.5t-45.5 -28t-47 -21.5t-41.5 -8q-27 0 -27 28z" />
<glyph unicode="r" horiz-adv-x="536" d="M-96 86q0 -23 19.5 -36t35.5 -23q10 -6 19.5 -11.5t19.5 -13.5q12 -10 28.5 -25.5t32.5 -15.5q12 0 23.5 10.5t20 24.5t14.5 29.5t10 25.5l53 137q14 37 36 99.5t45.5 127t47 119t39.5 76.5q12 16 35 30.5t49.5 24t53 15.5t46.5 8q12 2 25.5 1t26.5 3q20 4 31.5 14.5 t11.5 32.5q0 10 -1 21.5t-1 21.5q0 23 7 42t7 42q0 16 -5 34t-26 18q-23 0 -49.5 -11.5t-52 -25t-46 -24.5t-26.5 -11q-10 0 -11 19.5t-1 25.5q-2 23 -16.5 32t-30.5 17q-18 10 -38 19.5t-40 9.5q-23 0 -35 -13.5t-19 -32t-11.5 -39t-8.5 -36.5q-20 -82 -53 -159l-66 -154 q-37 -86 -73.5 -173.5t-79.5 -173.5q-4 -6 -11.5 -20t-15.5 -29.5t-14 -31t-6 -21.5z" />
<glyph unicode="s" horiz-adv-x="653" d="M-88 152q0 -33 18.5 -54.5t40.5 -42.5q33 -29 66 -49t78 -20q41 0 88 16t92 41t85 54.5t69 58.5q45 45 70.5 104t25.5 125q0 80 -33 122t-72 64.5t-71.5 36t-32.5 35.5q0 12 21.5 33.5t51 43t57.5 37t40 15.5t17 -9t10.5 -22.5t13.5 -28t24 -22.5q20 -12 43 -12 q31 0 51.5 12t33 30.5t19.5 43t11 49.5q2 10 5 24.5t3 24.5q0 27 -18.5 44.5t-45 28.5t-55 15t-49.5 4q-72 0 -149.5 -23.5t-142 -67.5t-107.5 -108.5t-43 -144.5q0 -68 33 -105.5t71.5 -60t71.5 -39t33 -40.5q0 -27 -22.5 -55.5t-53.5 -53.5t-64.5 -40t-58.5 -15 q-18 0 -32.5 13t-29 30.5t-28.5 31t-31 13.5q-14 0 -31.5 -17.5t-34 -41t-27.5 -46t-11 -32.5z" />
<glyph unicode="t" horiz-adv-x="501" d="M-6 133q0 -35 14.5 -59.5t42.5 -44.5q20 -14 56 -33t61 -19q23 0 36 10.5t27 26.5q0 8 -4 25q-4 20 -7 37.5t-3 38.5q0 23 2 43t6 41q27 115 74 243.5t92 239.5q10 29 19.5 38t38.5 19q35 10 63 11h39q27 0 52.5 4t44 16t18.5 39q0 18 -19.5 50t-32 46.5t-22.5 18.5 t-29 4q-29 0 -55 -6q-2 -2 -8 -2q-8 0 -8 10q0 8 10 30.5t22.5 48t22.5 50t10 39.5q0 16 -12.5 31.5t-29.5 27.5t-35.5 21.5t-30.5 15.5q-4 4 -12.5 7t-12.5 3q-20 0 -34.5 -26.5t-20.5 -42.5q-23 -49 -44.5 -98.5t-41.5 -100.5q-10 -23 -27.5 -26t-40.5 -5 q-53 -2 -60.5 -23.5t-7.5 -70.5q0 -31 6.5 -54.5t24.5 -47.5q4 -4 6 -8.5t4 -8.5q-2 -4 -2 -6t-2 -6q-18 -47 -51 -121t-63.5 -151.5t-53 -151.5t-22.5 -123z" />
<glyph unicode="u" horiz-adv-x="755" d="M-47 223q0 -37 13.5 -77t37 -73.5t56 -55t73.5 -21.5q43 0 85 19.5t77 41.5q12 8 25.5 15.5t23.5 17.5l10 4q10 -2 11.5 -15t2.5 -30.5t10 -36t34 -30.5q20 -10 58 -23.5t60 -13.5q23 0 30 12t7 35q0 45 6.5 91t12.5 91q10 74 31.5 141.5t52.5 135.5q2 6 15 33.5 t31.5 66.5t38 83t36 84t27.5 70.5t11 40.5q0 14 -13 34t-32.5 38.5t-40 30.5t-32.5 12q-23 0 -35 -19.5t-21 -35.5q-59 -115 -113.5 -229.5t-107.5 -233.5q-10 -23 -20.5 -47.5t-16.5 -48.5q-4 -16 -9 -28.5t-19 -22.5q-10 -6 -28.5 -18.5t-38 -24t-39 -20.5t-30.5 -9 q-20 0 -30 14.5t-10 32.5q0 41 25.5 112.5t59 149.5t69.5 148.5t59 107.5q10 16 21 33.5t19 34.5q2 4 6.5 16t4.5 16q0 18 -13 29q-23 16 -56.5 42t-61.5 26q-18 0 -35 -9.5t-29 -21.5q-14 -16 -33.5 -49t-38 -72t-36 -74.5t-25.5 -54.5q-16 -35 -46 -97.5t-58.5 -132 t-50 -134t-21.5 -101.5z" />
<glyph unicode="v" horiz-adv-x="686" d="M61 70q0 -25 15 -37q20 -16 57 -31.5t64 -15.5q23 0 41 20.5t30 36.5q18 23 40 44.5t44 43.5q115 117 211 253t172 282q4 8 14.5 27.5t20.5 41t17.5 41t7.5 29.5q0 8 -3.5 16t-7.5 15q-14 31 -21 49t-16.5 29.5t-27 20.5t-49.5 21l-2 2q-10 0 -19.5 -10t-17.5 -23.5 t-15.5 -26.5t-9.5 -21q-35 -84 -76 -162t-88 -156q-23 -37 -45 -75t-47 -72q-16 -23 -34.5 -47.5t-32.5 -49.5l-9 -4q-8 -2 -8 11q0 43 11.5 91t19.5 91q10 53 17.5 108.5t15.5 108.5q4 27 10 54.5t6 53.5q0 23 -11 39.5t-27.5 28.5t-36 21.5t-38.5 15.5q-10 4 -34.5 10 t-34.5 6q-35 0 -40 -27.5t-9 -56.5q-27 -332 -43 -671q-2 -31 -6.5 -63t-4.5 -62z" />
<glyph unicode="w" horiz-adv-x="1114" d="M47 121q0 -35 4 -53.5t33 -38.5q6 -4 18.5 -12.5t25.5 -16.5t26.5 -14t21.5 -6q12 0 27.5 13t32 31.5t30 36t19.5 25.5q35 41 68.5 83t68.5 85q2 2 18.5 25.5t36 52t36.5 52.5t22 26q4 -2 5 -8.5t1 -10.5q0 -72 -7.5 -144.5t-7.5 -144.5q0 -55 35 -100t94 -45 q23 0 46.5 20.5t45 49t39 57.5t27.5 45l82 129q27 41 57.5 81t59.5 81q14 20 48 68.5t66.5 103.5t58 105t25.5 75q0 23 -13 52.5t-23 49.5q-25 47 -72 48q-35 0 -50.5 -15.5t-29.5 -44.5q-53 -106 -111.5 -207.5t-117.5 -203.5q-2 -4 -12.5 -20.5t-21.5 -35t-22.5 -34 t-13.5 -15.5q-4 0 -5 10.5t-1 12.5q0 33 7 65.5t11 65.5l39 239q4 18 9 38t5 38q0 29 -21.5 49.5t-43.5 36.5q-10 6 -24.5 16.5t-31 19.5t-31.5 16.5t-28 7.5q-23 0 -28 -21.5t-5 -38.5q0 -35 -4 -60.5t-12 -49t-20.5 -47t-28.5 -52.5q-45 -78 -94 -150.5t-105 -140.5 q-4 -4 -16 -20t-19 -16q-4 0 -4 6q0 12 4 28q10 66 21.5 129.5t26.5 128.5q10 47 24 104.5t14 106.5q0 25 -10 35t-33 17q-29 10 -51 18t-47 25q-8 4 -17 10t-20 6q-12 0 -21 -11.5t-14.5 -25.5t-8.5 -30.5t-5 -24.5q-16 -80 -23.5 -162t-15.5 -162q-6 -59 -13 -120.5 t-15 -120.5q-6 -49 -13.5 -100.5t-7.5 -100.5z" />
<glyph unicode="x" horiz-adv-x="718" d="M-113 109q0 -20 21.5 -49t32.5 -44q10 -16 25.5 -31.5t37.5 -15.5q27 0 40 19.5t24 40.5q23 43 52.5 83t59.5 76q6 8 26.5 33t43 50.5t42 45t27.5 19.5t12.5 -20.5t4.5 -24.5q10 -74 16 -147.5t17 -147.5q2 -18 11 -42t32 -24q33 0 56.5 20.5t41.5 43.5q6 6 16.5 15 t21.5 18.5t19 18.5t8 15q2 4 3 11q0 27 -9.5 79t-23 109t-27.5 109.5t-22 79.5q-4 10 -6.5 20t-2.5 20q0 4 8.5 12.5t18.5 16.5t19.5 15.5t13.5 11.5l174 143q16 12 40.5 32.5t24.5 43.5q0 16 -5 30.5t-9 30.5q-2 6 -6 24.5t-10 39t-14.5 36t-18.5 15.5q-8 0 -44 -28.5 t-80 -67.5t-85 -76t-57 -53q-12 -12 -25 -13q-8 0 -12 15q-12 43 -27 78q-10 25 -18 55.5t-20.5 57t-34 45t-56.5 18.5q-14 0 -32.5 -12.5t-35 -29t-27.5 -36t-11 -31.5q0 -14 8 -35q25 -61 48.5 -121.5t45.5 -123.5q0 -2 2 -10.5t2 -12.5q0 -14 -16 -27q-16 -16 -50 -47.5 t-74 -71.5t-82 -85t-77 -86t-56.5 -77t-21.5 -56z" />
<glyph unicode="y" horiz-adv-x="677" d="M-225 -281q0 -16 10 -43.5t26.5 -53t36 -44t37.5 -18.5q10 0 26.5 9t32 22.5t30 26.5t22.5 20q104 94 193.5 195t170.5 214q49 68 108.5 158t117 188.5t105.5 194.5t73 174q10 30 10 57q0 14 -9 39t-23.5 47.5t-32 39t-33.5 16.5q-23 0 -29 -14.5t-12 -31.5 q-10 -29 -25.5 -56.5t-29.5 -53.5l-115 -227q-41 -80 -87 -157t-93 -153q-4 -4 -17.5 -25.5t-19.5 -21.5q-8 0 -9 17.5t-1 19.5q0 4 1 5t1 5q2 49 5 92t8 84t12 84t16 93q12 76 30 153q4 10 6 21.5t2 21.5q0 35 -23.5 64.5t-51.5 46.5q-12 6 -39 17t-39 11 q-18 0 -31.5 -27.5t-23 -63.5t-13.5 -69.5t-6 -45.5q-20 -123 -36.5 -262.5t-16.5 -262.5q0 -55 17.5 -78.5t64.5 -46.5q4 -2 10 -6t6 -8q0 -6 -12 -23.5t-27.5 -37t-30 -36t-20.5 -22.5q-51 -53 -103.5 -100t-115.5 -86q-16 -10 -34.5 -24.5t-18.5 -37.5z" />
<glyph unicode="z" horiz-adv-x="751" d="M-90 100q0 -12 10 -39.5t25.5 -54t32 -47t28.5 -20.5q8 0 16.5 5t14.5 9q39 29 71.5 38t79.5 17q23 4 52.5 9.5t61.5 10.5t61.5 9t50.5 4q33 0 65.5 -2t65.5 -4q41 -2 56 8t28 49q2 8 5 17.5t3 17.5t-4 16.5t-8 14.5q-16 29 -44 50t-63 21q-10 0 -20.5 -1t-20.5 -3 q-41 -4 -80 -10t-80 -12l-20 -4t-21 -2q-12 0 -12 8q0 4 10.5 17.5t23.5 28.5t25.5 29.5t16.5 18.5q23 29 47.5 54.5t46.5 54.5q29 33 55.5 66.5t55.5 66.5q31 35 62.5 70.5t64.5 70.5q23 23 47 48.5t24 60.5q0 23 -12 44t-22 42q-14 25 -22.5 40t-19 23t-26.5 10t-45 2 q-72 0 -141.5 -9t-141.5 -19l-92 -13q-35 -4 -55.5 -17t-20.5 -52q0 -23 5.5 -44.5t9.5 -41.5q8 -39 51 -39q20 0 49 5t59.5 12t59.5 14.5t51 13.5q12 4 29.5 8t29.5 4q10 0 13 -10q-2 -4 -18.5 -23.5t-37 -41t-39 -40l-24.5 -24.5q-68 -70 -136.5 -136.5t-135.5 -136.5 l-93 -98q-14 -14 -32.5 -33.5t-36 -41t-28.5 -45t-11 -44.5z" />
<glyph unicode="&#xa1;" horiz-adv-x="509" d="M10 150q0 -16 17.5 -43t42 -52.5t51 -44t45.5 -18.5q23 0 37 18.5t24 36.5q35 78 66 156t65 155q8 20 26.5 61.5t40 92.5t44.5 106.5t41 105.5t30.5 90t12.5 60t-12 37q-6 6 -19.5 21.5t-28 31t-28.5 28t-25 12.5q-27 0 -39 -24l-22 -44q-10 -23 -19.5 -46.5t-19.5 -45.5 q-16 -41 -32.5 -84t-35.5 -84q-43 -96 -93 -188.5t-99 -186.5q-4 -8 -15.5 -29.5t-23.5 -45t-21.5 -46t-9.5 -30.5zM453 1167q0 -18 21.5 -38.5t50 -37t58 -27.5t46.5 -11q29 0 39 22.5t18 44.5q12 35 29.5 80t17.5 86q0 29 -24.5 60.5t-55.5 31.5q-8 0 -16 -2l-16 -4 q-12 4 -26.5 12.5t-29.5 8.5q-25 0 -36 -13.5t-16 -33t-8 -41t-9 -35.5q-2 -4 -9.5 -18.5t-14.5 -32t-13 -31.5t-6 -21z" />
<glyph unicode="&#xa2;" horiz-adv-x="677" d="M68 498q0 -31 6 -65t20.5 -66.5t33.5 -59t48 -43.5q4 -2 11.5 -6t7.5 -10t-8.5 -23.5t-17.5 -36t-17.5 -36t-8.5 -23.5q0 -14 25 -36.5t39 -22.5q8 0 15 13t14.5 31.5t14.5 35t13 22.5q10 23 16.5 32t30.5 11q27 2 59.5 10t66.5 21.5t64.5 29t53.5 29.5q39 25 55.5 63 t16.5 83q0 16 -14.5 36.5t-30.5 20.5q-8 0 -31 -13.5t-50.5 -28.5t-55 -27.5t-44.5 -12.5q-16 0 -16 10t10.5 37t14.5 35l174 399q4 6 14 31t10 31q2 4 7.5 14t9.5 10t5 -7t1 -11q0 -23 -6.5 -44.5t-6.5 -43.5q0 -12 10.5 -19.5t24 -12.5t27.5 -7t22 -2q27 0 43.5 16.5 t30.5 36.5q16 23 33.5 46t17.5 52q0 45 -28.5 89t-65.5 67q-6 4 -17 11t-11 16q0 16 12 34.5t12 34.5q0 12 -20.5 33t-32.5 21q-14 0 -22.5 -17.5t-15.5 -39t-17.5 -40t-28.5 -20.5q-63 -8 -127 -42t-120 -82t-103 -105.5t-78 -110.5q-41 -72 -68.5 -168t-27.5 -180z M274 512q0 14 2.5 28.5t6.5 28.5q27 111 76 212.5t130 181.5q4 4 12.5 10t14.5 8l2 -2q0 -4 -16.5 -42t-40 -93.5t-53 -120t-55 -119.5t-44 -94t-22.5 -43q-10 0 -11.5 19.5t-1.5 25.5z" />
<glyph unicode="&#xa3;" horiz-adv-x="1153" d="M-14 70q0 -41 23.5 -53.5t60.5 -14.5l98 -4t98 -2q23 0 83.5 1t138 4t163.5 7t162 11.5t132 17.5t73 22q8 6 20.5 29t23.5 49.5t18 51t7 36.5q0 23 -16 39.5t-39 16.5q-10 0 -22.5 -3.5t-22.5 -7.5q-111 -39 -219.5 -62.5t-224.5 -23.5q-10 0 -26.5 1t-16.5 16 q0 6 5 20.5t12 31.5t14.5 31.5t9.5 20.5q4 10 13 36t20.5 53.5t21.5 50t16 26.5q8 4 17 4h18q23 0 57.5 2t71.5 7t70 11.5t53 14.5q27 10 43 33.5t27 48.5q4 10 9 21.5t5 21.5q0 25 -25.5 53.5t-54.5 28.5q-8 0 -14 -1t-15 -3q-39 -8 -78.5 -16.5t-80.5 -8.5q-8 0 -19.5 1 t-11.5 11q0 8 4 24.5t10.5 35t12.5 35t10 24.5q14 37 29.5 74t35.5 72q14 27 39 54.5t54.5 50t62.5 37.5t66 15q29 0 28 -35q0 -29 -13 -59.5t-30.5 -59t-31 -50t-13.5 -29.5q0 -12 25.5 -24.5t59.5 -23t65.5 -17.5t44.5 -7q14 0 26.5 9.5t22.5 22.5t17.5 27.5t13.5 24.5 q27 49 50 102.5t23 112.5q0 51 -19.5 91t-52 69t-75.5 44t-92 15q-152 0 -270.5 -73.5t-204.5 -194.5q-59 -86 -97.5 -180t-76.5 -193q-8 -18 -14.5 -21t-24.5 -5q-23 -2 -45.5 -3t-44.5 -1h-52t-50 -3.5t-44.5 -13.5t-38.5 -35q-35 -51 -35 -112q0 -55 58 -56q47 0 91 7.5 t91 7.5q4 0 21.5 -2t17.5 -11q0 -6 -11.5 -35.5t-25.5 -62.5t-26.5 -60.5t-14.5 -33.5q-4 -10 -14 -32.5t-25 -22.5q-35 0 -70.5 7t-70.5 7q-23 0 -34 -10t-21 -29q-14 -23 -26.5 -50.5t-12.5 -53.5z" />
<glyph unicode="&#xab;" horiz-adv-x="813" d="M41 510q0 -25 15.5 -68t35 -89t40 -89t32.5 -65q10 -18 24.5 -40t38.5 -22q12 0 34 5t44.5 14.5t38.5 21.5t16 25q0 18 -11 40.5t-21 39.5q-45 80 -80 170q-2 6 -7 19t-10.5 27.5t-9.5 27t-4 18.5q0 16 20.5 42.5t52.5 58.5t67.5 64.5t67.5 60.5t52.5 47.5t20.5 25.5 q0 12 -19.5 30.5t-32.5 18.5q-10 0 -39.5 -21.5t-64.5 -49t-65.5 -54.5t-43.5 -37q-16 -12 -47.5 -40.5t-63.5 -60.5t-56.5 -65t-24.5 -55zM344 510q0 -25 15.5 -68t35 -89t40 -89t32.5 -65q10 -18 24.5 -40t38.5 -22q12 0 34 5t44.5 14.5t39 21.5t16.5 25q0 8 -15.5 42 t-35 74.5t-38 78.5t-24.5 55q-4 14 -17.5 45.5t-13.5 46.5q0 16 20.5 42.5t52.5 58.5t67.5 65.5t67.5 61.5t52.5 47.5t20.5 23.5q0 14 -20.5 31.5t-32.5 17.5q-10 0 -40 -21.5t-64 -49t-64.5 -54.5t-42.5 -37q-16 -14 -48 -41.5t-64 -59.5t-56.5 -65t-24.5 -55z" />
<glyph unicode="&#xad;" horiz-adv-x="454" d="M-4 473q0 -14 12 -14h23h368q31 0 36 10t18 39q2 6 11 23.5t18.5 38t17.5 40t8 29.5q0 6 -11.5 9t-25.5 4t-27 1h-14h-332q-25 0 -32 -16t-17 -37l-33 -74q-4 -6 -12 -25.5t-8 -27.5z" />
<glyph unicode="&#xb7;" horiz-adv-x="339" d="M74 649q0 -41 25.5 -67.5t60.5 -44.5q10 -6 29.5 -16.5t42 -21t43 -18.5t30.5 -8q18 0 29.5 15.5t15.5 31.5q10 39 17.5 63.5t14.5 46t17.5 45t26.5 60.5q10 21 10 37q0 35 -27.5 55.5t-54.5 34.5q-12 6 -30.5 16.5t-39 19.5t-40 15.5t-33.5 6.5q-33 0 -51.5 -25 t-28.5 -51q-16 -39 -36.5 -95.5t-20.5 -99.5z" />
<glyph unicode="&#xbb;" horiz-adv-x="813" d="M-27 184q0 -12 19.5 -29.5t32.5 -17.5q10 0 39.5 21.5t63.5 49.5t64.5 54.5t43.5 36.5q14 12 46.5 41t64.5 60.5t56.5 64t24.5 55.5t-15.5 66t-36 91t-41 90t-30.5 64q-10 20 -23.5 41t-39.5 21q-12 0 -34 -5t-44.5 -14.5t-38.5 -21.5t-16 -25q0 -10 15 -43.5t34.5 -73.5 t38 -78t24.5 -54q2 -6 7 -19.5t10.5 -28t9.5 -26.5t4 -19q0 -18 -20.5 -44.5t-51 -58.5t-67.5 -63.5t-68 -59.5t-51.5 -48.5t-20.5 -26.5zM276 184q0 -12 19.5 -29.5t32.5 -17.5q10 0 39.5 21.5t63.5 49.5t64.5 54.5t43.5 36.5q14 12 46.5 41t64.5 60.5t56.5 64t24.5 55.5 t-15.5 66t-36 90t-41 90t-30.5 65q-10 20 -23.5 41t-39.5 21q-12 0 -34 -5t-44.5 -14.5t-38.5 -21.5t-16 -25q0 -18 12 -40.5t20 -38.5q23 -41 43.5 -84t36.5 -86q2 -6 7.5 -19.5t10.5 -28t9 -26.5t4 -19q0 -18 -20.5 -44.5t-51 -58.5t-67.5 -63.5t-68 -59.5t-51.5 -48.5 t-20.5 -26.5z" />
<glyph unicode="&#xbf;" horiz-adv-x="743" d="M88 270q0 -57 19.5 -107t54.5 -88t83 -60.5t107 -22.5t124 12t120 33q23 8 41 20.5t18 38.5q0 18 -6 45t-17 51.5t-27.5 42t-39.5 17.5q-25 0 -53.5 -9.5t-58 -20.5t-58 -20t-51.5 -9q-16 0 -23.5 10t-7.5 24q0 27 28 72t70 99.5t90 114.5t90 117.5t69.5 109.5t27.5 89 q0 20 -15.5 46t-38 46.5t-48 35t-43.5 14.5t-52 -15.5t-67 -38t-57.5 -47t-24.5 -43.5q0 -16 13.5 -28.5t30.5 -20.5t30.5 -15t13.5 -15q0 -2 -20.5 -24t-47 -48.5l-51 -51l-30.5 -30.5q-43 -45 -93.5 -105.5t-76.5 -115.5q-23 -51 -23 -103zM535 1159q0 -18 15 -33.5 t34.5 -28t41 -20.5t33.5 -14q10 -4 23.5 -9t24.5 -5q20 0 38.5 24.5t33 58t22.5 67.5t8 52q0 25 -9 41.5t-24.5 28.5t-34 20.5t-36.5 18.5q-16 8 -36 19.5t-38 11.5q-12 0 -19.5 -9.5t-12.5 -22.5t-7 -27.5t-4 -22.5q-4 -16 -12.5 -38t-17.5 -43.5t-16 -40t-7 -28.5z" />
<glyph unicode="&#xc0;" d="M-123 160q0 -18 20.5 -41t48 -42.5t56.5 -32.5t45 -13q18 0 33.5 13t27 32.5t18.5 40t13 35.5q14 35 30.5 69.5t33.5 69.5l45 90q10 20 18 29.5t31 13.5q18 4 45 8t56.5 8t56 7.5t45.5 3.5q4 0 11 -1t7 -8q0 -20 -8 -56t-20.5 -76t-23.5 -76.5t-17 -57.5 q-4 -18 -16.5 -49t-12.5 -47q0 -23 19.5 -35t37.5 -18q10 -4 21.5 -7.5t21.5 -9.5q25 -14 41.5 -31.5t48.5 -17.5q23 0 31 11.5t16 29.5q20 53 32.5 107.5t23.5 107.5l63 311q29 135 46.5 269.5t33.5 269.5q4 35 8 70.5t4 70.5q0 66 -22.5 106t-85.5 62q-10 4 -30.5 10.5 t-31.5 6.5q-18 0 -26 -13.5t-10.5 -31t-1 -37t1.5 -31.5v-12q0 -8 -1.5 -17.5t-3.5 -16.5t-6 -7q-2 0 -11 4t-19.5 8t-21.5 8t-17 4q-27 0 -42.5 -15t-31.5 -36l-109 -137q-61 -78 -114.5 -162t-106.5 -170q-10 -18 -21.5 -35.5t-21.5 -38.5q-8 -16 -14 -24t-25 -12 q-25 -6 -51.5 -9.5t-49 -11.5t-36.5 -25.5t-14 -50.5q0 -39 16 -75.5t16 -59.5q0 -8 -15 -40t-34.5 -68.5t-35 -71.5t-15.5 -49zM395 645q0 6 12.5 28.5t31 54.5t41 67.5t43 68.5t35.5 56.5t22 31.5q10 12 19 24.5t17 27.5q2 4 6.5 8t8.5 4q8 0 8 -8q0 -4 -1 -7.5t-1 -7.5 q-6 -12 -11 -37.5t-10 -40.5q-8 -41 -16 -84t-16 -83q0 -6 -2 -23.5t-5.5 -36t-9.5 -33t-18 -14.5q-14 0 -27.5 2t-27.5 2h-25q-16 0 -30.5 -3t-30.5 -3q-4 0 -8.5 1t-4.5 5zM596 1665q0 -23 17.5 -36t33.5 -23q41 -25 75 -54.5t71 -58.5q14 -10 26 -10q31 -1 31 30 q0 18 -12.5 61.5t-31 87.5t-41 79t-42.5 35q-10 0 -31.5 -12.5t-43 -31t-37 -37t-15.5 -30.5z" />
<glyph unicode="&#xc1;" d="M-123 160q0 -18 20.5 -41t48 -42.5t56.5 -32.5t45 -13q18 0 33.5 13t27 32.5t18.5 40t13 35.5q14 35 30.5 69.5t33.5 69.5l45 90q10 20 18 29.5t31 13.5q18 4 45 8t56.5 8t56 7.5t45.5 3.5q4 0 11 -1t7 -8q0 -20 -8 -56t-20.5 -76t-23.5 -76.5t-17 -57.5 q-4 -18 -16.5 -49t-12.5 -47q0 -23 19.5 -35t37.5 -18q10 -4 21.5 -7.5t21.5 -9.5q25 -14 41.5 -31.5t48.5 -17.5q23 0 31 11.5t16 29.5q20 53 32.5 107.5t23.5 107.5l63 311q29 135 46.5 269.5t33.5 269.5q4 35 8 70.5t4 70.5q0 66 -22.5 106t-85.5 62q-10 4 -30.5 10.5 t-31.5 6.5q-18 0 -26 -13.5t-10.5 -31t-1 -37t1.5 -31.5v-12q0 -8 -1.5 -17.5t-3.5 -16.5t-6 -7q-2 0 -11 4t-19.5 8t-21.5 8t-17 4q-27 0 -42.5 -15t-31.5 -36l-109 -137q-61 -78 -114.5 -162t-106.5 -170q-10 -18 -21.5 -35.5t-21.5 -38.5q-8 -16 -14 -24t-25 -12 q-25 -6 -51.5 -9.5t-49 -11.5t-36.5 -25.5t-14 -50.5q0 -39 16 -75.5t16 -59.5q0 -8 -15 -40t-34.5 -68.5t-35 -71.5t-15.5 -49zM395 645q0 6 12.5 28.5t31 54.5t41 67.5t43 68.5t35.5 56.5t22 31.5q10 12 19 24.5t17 27.5q2 4 6.5 8t8.5 4q8 0 8 -8q0 -4 -1 -7.5t-1 -7.5 q-6 -12 -11 -37.5t-10 -40.5q-8 -41 -16 -84t-16 -83q0 -6 -2 -23.5t-5.5 -36t-9.5 -33t-18 -14.5q-14 0 -27.5 2t-27.5 2h-25q-16 0 -30.5 -3t-30.5 -3q-4 0 -8.5 1t-4.5 5zM735 1513q0 -31 29 -30q14 0 29 10q10 8 19 17.5t19 17.5q53 47 105 78q14 8 33.5 21.5t19.5 33.5 q0 25 -20.5 42t-36.5 30q-12 10 -32.5 26.5t-37.5 16.5q-23 0 -45 -34t-40.5 -79t-30 -88t-11.5 -62z" />
<glyph unicode="&#xc2;" d="M-123 160q0 -18 20.5 -41t48 -42.5t56.5 -32.5t45 -13q18 0 33.5 13t27 32.5t18.5 40t13 35.5q14 35 30.5 69.5t33.5 69.5l45 90q10 20 18 29.5t31 13.5q18 4 45 8t56.5 8t56 7.5t45.5 3.5q4 0 11 -1t7 -8q0 -20 -8 -56t-20.5 -76t-23.5 -76.5t-17 -57.5 q-4 -18 -16.5 -49t-12.5 -47q0 -23 19.5 -35t37.5 -18q10 -4 21.5 -7.5t21.5 -9.5q25 -14 41.5 -31.5t48.5 -17.5q23 0 31 11.5t16 29.5q20 53 32.5 107.5t23.5 107.5l63 311q29 135 46.5 269.5t33.5 269.5q4 35 8 70.5t4 70.5q0 66 -22.5 106t-85.5 62q-10 4 -30.5 10.5 t-31.5 6.5q-18 0 -26 -13.5t-10.5 -31t-1 -37t1.5 -31.5v-12q0 -8 -1.5 -17.5t-3.5 -16.5t-6 -7q-2 0 -11 4t-19.5 8t-21.5 8t-17 4q-27 0 -42.5 -15t-31.5 -36l-109 -137q-61 -78 -114.5 -162t-106.5 -170q-10 -18 -21.5 -35.5t-21.5 -38.5q-8 -16 -14 -24t-25 -12 q-25 -6 -51.5 -9.5t-49 -11.5t-36.5 -25.5t-14 -50.5q0 -39 16 -75.5t16 -59.5q0 -8 -15 -40t-34.5 -68.5t-35 -71.5t-15.5 -49zM395 645q0 6 12.5 28.5t31 54.5t41 67.5t43 68.5t35.5 56.5t22 31.5q10 12 19 24.5t17 27.5q2 4 6.5 8t8.5 4q8 0 8 -8q0 -4 -1 -7.5t-1 -7.5 q-6 -12 -11 -37.5t-10 -40.5q-8 -41 -16 -84t-16 -83q0 -6 -2 -23.5t-5.5 -36t-9.5 -33t-18 -14.5q-14 0 -27.5 2t-27.5 2h-25q-16 0 -30.5 -3t-30.5 -3q-4 0 -8.5 1t-4.5 5zM569 1534q0 -14 17.5 -33.5t31.5 -19.5q10 0 32 20.5t46.5 45t49 45t42.5 20.5q14 0 31 -19.5 t33 -43t32.5 -43t30.5 -19.5q10 0 29 14.5t36 32.5t29.5 36.5t12.5 28.5q0 14 -21.5 44t-50 61t-58.5 53.5t-44 22.5q-18 0 -63.5 -32t-93.5 -74t-85 -83t-37 -57z" />
<glyph unicode="&#xc3;" d="M-123 160q0 -18 20.5 -41t48 -42.5t56.5 -32.5t45 -13q18 0 33.5 13t27 32.5t18.5 40t13 35.5q14 35 30.5 69.5t33.5 69.5l45 90q10 20 18 29.5t31 13.5q18 4 45 8t56.5 8t56 7.5t45.5 3.5q4 0 11 -1t7 -8q0 -20 -8 -56t-20.5 -76t-23.5 -76.5t-17 -57.5 q-4 -18 -16.5 -49t-12.5 -47q0 -23 19.5 -35t37.5 -18q10 -4 21.5 -7.5t21.5 -9.5q25 -14 41.5 -31.5t48.5 -17.5q23 0 31 11.5t16 29.5q20 53 32.5 107.5t23.5 107.5l63 311q29 135 46.5 269.5t33.5 269.5q4 35 8 70.5t4 70.5q0 66 -22.5 106t-85.5 62q-10 4 -30.5 10.5 t-31.5 6.5q-18 0 -26 -13.5t-10.5 -31t-1 -37t1.5 -31.5v-12q0 -8 -1.5 -17.5t-3.5 -16.5t-6 -7q-2 0 -11 4t-19.5 8t-21.5 8t-17 4q-27 0 -42.5 -15t-31.5 -36l-109 -137q-61 -78 -114.5 -162t-106.5 -170q-10 -18 -21.5 -35.5t-21.5 -38.5q-8 -16 -14 -24t-25 -12 q-25 -6 -51.5 -9.5t-49 -11.5t-36.5 -25.5t-14 -50.5q0 -39 16 -75.5t16 -59.5q0 -8 -15 -40t-34.5 -68.5t-35 -71.5t-15.5 -49zM395 645q0 6 12.5 28.5t31 54.5t41 67.5t43 68.5t35.5 56.5t22 31.5q10 12 19 24.5t17 27.5q2 4 6.5 8t8.5 4q8 0 8 -8q0 -4 -1 -7.5t-1 -7.5 q-6 -12 -11 -37.5t-10 -40.5q-8 -41 -16 -84t-16 -83q0 -6 -2 -23.5t-5.5 -36t-9.5 -33t-18 -14.5q-14 0 -27.5 2t-27.5 2h-25q-16 0 -30.5 -3t-30.5 -3q-4 0 -8.5 1t-4.5 5zM547 1561q0 -10 11 -15.5t20 -7.5q16 16 31.5 36.5t47.5 20.5q20 0 42 -12t46.5 -26.5t52 -26.5 t62.5 -12q66 0 114 37.5t77 95.5q4 6 12 26.5t8 24.5q0 6 -13.5 13t-17.5 7q-6 0 -11 -9t-14 -19.5t-21.5 -19.5t-32.5 -9q-23 0 -43.5 12.5t-45 25.5t-54.5 25.5t-68 12.5q-63 0 -107.5 -36t-73.5 -89q-4 -8 -13 -26.5t-9 -28.5z" />
<glyph unicode="&#xc4;" d="M-123 160q0 -18 20.5 -41t48 -42.5t56.5 -32.5t45 -13q18 0 33.5 13t27 32.5t18.5 40t13 35.5q14 35 30.5 69.5t33.5 69.5l45 90q10 20 18 29.5t31 13.5q18 4 45 8t56.5 8t56 7.5t45.5 3.5q4 0 11 -1t7 -8q0 -20 -8 -56t-20.5 -76t-23.5 -76.5t-17 -57.5 q-4 -18 -16.5 -49t-12.5 -47q0 -23 19.5 -35t37.5 -18q10 -4 21.5 -7.5t21.5 -9.5q25 -14 41.5 -31.5t48.5 -17.5q23 0 31 11.5t16 29.5q20 53 32.5 107.5t23.5 107.5l63 311q29 135 46.5 269.5t33.5 269.5q4 35 8 70.5t4 70.5q0 66 -22.5 106t-85.5 62q-10 4 -30.5 10.5 t-31.5 6.5q-18 0 -26 -13.5t-10.5 -31t-1 -37t1.5 -31.5v-12q0 -8 -1.5 -17.5t-3.5 -16.5t-6 -7q-2 0 -11 4t-19.5 8t-21.5 8t-17 4q-27 0 -42.5 -15t-31.5 -36l-109 -137q-61 -78 -114.5 -162t-106.5 -170q-10 -18 -21.5 -35.5t-21.5 -38.5q-8 -16 -14 -24t-25 -12 q-25 -6 -51.5 -9.5t-49 -11.5t-36.5 -25.5t-14 -50.5q0 -39 16 -75.5t16 -59.5q0 -8 -15 -40t-34.5 -68.5t-35 -71.5t-15.5 -49zM395 645q0 6 12.5 28.5t31 54.5t41 67.5t43 68.5t35.5 56.5t22 31.5q10 12 19 24.5t17 27.5q2 4 6.5 8t8.5 4q8 0 8 -8q0 -4 -1 -7.5t-1 -7.5 q-6 -12 -11 -37.5t-10 -40.5q-8 -41 -16 -84t-16 -83q0 -6 -2 -23.5t-5.5 -36t-9.5 -33t-18 -14.5q-14 0 -27.5 2t-27.5 2h-25q-16 0 -30.5 -3t-30.5 -3q-4 0 -8.5 1t-4.5 5zM555 1597q0 -18 9 -38.5t24.5 -38t35 -28.5t38.5 -11q25 0 35 15t20 36q6 12 16 30.5t21.5 37 t19.5 36t8 29.5q0 23 -16 39t-33 27q-10 8 -35.5 27.5t-40.5 19.5q-18 0 -35.5 -22.5t-33 -52.5t-24.5 -59.5t-9 -46.5zM840 1597q0 -18 9 -38.5t24.5 -38t34 -28.5t36.5 -11q25 0 36 15t21 36q6 12 16.5 30.5t22 38t19.5 37t8 27.5q0 14 -16.5 33.5t-38 37t-43 30 t-29.5 12.5q-16 0 -34.5 -22.5t-33 -52.5t-23.5 -59.5t-9 -46.5z" />
<glyph unicode="&#xc5;" d="M-123 160q0 -18 20.5 -41t48 -42.5t56.5 -32.5t45 -13q18 0 33.5 13t27 32.5t18.5 40t13 35.5q14 35 30.5 69.5t33.5 69.5l45 90q10 20 18 29.5t31 13.5q18 4 45 8t56.5 8t56 7.5t45.5 3.5q4 0 11 -1t7 -8q0 -20 -8 -56t-20.5 -76t-23.5 -76.5t-17 -57.5 q-4 -18 -16.5 -49t-12.5 -47q0 -23 19.5 -35t37.5 -18q10 -4 21.5 -7.5t21.5 -9.5q25 -14 41.5 -31.5t48.5 -17.5q23 0 31 11.5t16 29.5q20 53 32.5 107.5t23.5 107.5l63 311q29 135 46.5 269.5t33.5 269.5q4 35 8 70.5t4 70.5q0 66 -22.5 106t-85.5 62q-10 4 -30.5 10.5 t-31.5 6.5q-18 0 -26 -13.5t-10.5 -31t-1 -37t1.5 -31.5v-12q0 -8 -1.5 -17.5t-3.5 -16.5t-6 -7q-2 0 -11 4t-19.5 8t-21.5 8t-17 4q-27 0 -42.5 -15t-31.5 -36l-109 -137q-61 -78 -114.5 -162t-106.5 -170q-10 -18 -21.5 -35.5t-21.5 -38.5q-8 -16 -14 -24t-25 -12 q-25 -6 -51.5 -9.5t-49 -11.5t-36.5 -25.5t-14 -50.5q0 -39 16 -75.5t16 -59.5q0 -8 -15 -40t-34.5 -68.5t-35 -71.5t-15.5 -49zM395 645q0 6 12.5 28.5t31 54.5t41 67.5t43 68.5t35.5 56.5t22 31.5q10 12 19 24.5t17 27.5q2 4 6.5 8t8.5 4q8 0 8 -8q0 -4 -1 -7.5t-1 -7.5 q-6 -12 -11 -37.5t-10 -40.5q-8 -41 -16 -84t-16 -83q0 -6 -2 -23.5t-5.5 -36t-9.5 -33t-18 -14.5q-14 0 -27.5 2t-27.5 2h-25q-16 0 -30.5 -3t-30.5 -3q-4 0 -8.5 1t-4.5 5zM680 1575q0 -47 26.5 -80t75.5 -33q39 0 75 19.5t63.5 49.5t45 67.5t17.5 74.5q0 29 -6 38t-29 26 q-18 14 -34.5 37.5t-39.5 23.5q-35 0 -69.5 -22.5t-62 -56t-45 -72.5t-17.5 -72zM774 1567q0 14 9.5 36.5t23.5 44t31.5 37t33.5 15.5q10 0 14.5 -9.5t4.5 -17.5q0 -14 -9.5 -35.5t-24.5 -42t-32.5 -35t-31.5 -14.5q-18 0 -19 21z" />
<glyph unicode="&#xc6;" horiz-adv-x="1273" d="M-88 119q0 -18 20.5 -40t48 -41.5t56.5 -32.5t45 -13q20 0 35.5 13t25.5 30q10 18 18.5 38.5t16.5 41.5q10 25 21.5 49t23.5 49q16 37 32.5 74t39.5 71q10 14 14 16.5t21 6.5q47 8 95 16.5t95 8.5q4 2 12 2q6 0 12.5 -2.5t6.5 -10.5q0 -10 -6 -28.5t-10 -28.5 q-10 -41 -22.5 -85t-12.5 -87q0 -76 46 -122t122 -46q39 0 97 7t120.5 19.5t120 28t92.5 31.5q72 37 71 121q0 25 -18 47t-45 22q-10 0 -19.5 -2t-19.5 -6q-66 -18 -138.5 -35.5t-142.5 -17.5q-10 0 -19 3t-9 15q0 8 2 15.5t4 15.5q12 49 27.5 93t35.5 91q12 27 21.5 52.5 t19.5 52.5q4 10 11.5 23.5t21.5 13.5q12 0 25.5 -2t27.5 -2q47 0 92.5 3t92.5 11t71.5 24.5t24.5 67.5q0 43 -14.5 65.5t-38 32t-55 10.5t-64.5 1h-29q-16 0 -24 -2q-4 -2 -13 -2q-12 0 -12 10q0 8 10.5 32.5l22.5 52.5t24.5 52.5t16.5 32.5q14 31 28.5 60.5t32.5 58.5 q10 14 15.5 18t21.5 8q47 10 98.5 11.5t100.5 1.5q20 0 38.5 -2.5t39.5 -2.5q10 0 17 5.5t7 15.5q0 18 -11 49t-20 47q-25 57 -54.5 75.5t-90.5 18.5q-31 0 -81 -2t-102 -6t-100.5 -11t-76.5 -17q-20 -8 -31 -9q-16 0 -44 13.5t-61 13.5q-31 0 -61.5 -15.5t-60 -38t-55 -48 t-44.5 -45.5q-51 -53 -103 -115t-102.5 -129.5t-93.5 -137t-76 -135.5q-6 -14 -19 -41.5t-30 -33.5q-8 -4 -26 -4q-16 -2 -50 -9.5t-51 -15.5q-18 -8 -27.5 -24.5t-9.5 -34.5q0 -41 16.5 -82t16.5 -64q0 -8 -15 -37.5t-33.5 -65.5t-34 -72t-15.5 -54zM434 610q0 4 5 14.5 t11.5 22.5t12.5 23.5t8 15.5q18 35 46 77t59.5 84t63.5 80t60 66q8 8 30 26.5t45.5 37t46 32t34.5 13.5q12 -1 12 -15q0 -12 -12 -36.5t-27.5 -51t-29 -50t-17.5 -29.5q-35 -57 -75.5 -135t-61.5 -142q-4 -16 -10 -29.5t-27 -13.5q-4 0 -6 1t-6 1q-18 4 -37 4h-37h-26 q-12 0 -25 -2q-12 -4 -20 -4q-4 0 -10.5 2t-6.5 8z" />
<glyph unicode="&#xc7;" horiz-adv-x="776" d="M27 326q0 -123 56 -208t181 -114q-6 -12 -17 -34.5t-23.5 -47t-20.5 -48.5t-8 -38q0 -18 12 -19t26 -1h23q14 0 23 10q4 4 10 12t14 8q10 0 19.5 -11t9.5 -21q0 -20 -14.5 -37t-34 -29t-42 -18t-38.5 -6q-18 0 -32.5 7t-26 15t-22.5 15.5t-24 7.5q-6 0 -18 -6.5 t-22.5 -14.5t-18.5 -17.5t-8 -15.5q0 -18 19.5 -34.5t45 -28.5t52 -20.5t42.5 -8.5q43 0 88.5 16.5t82 46t60 70.5t23.5 88q0 41 -18 56.5t-53 31.5q-2 2 -14.5 7.5t-12.5 9.5q2 2 8 12t14.5 24.5t10.5 18.5q45 8 99 23.5t101.5 43t80 67.5t32.5 98q0 8 -1 21t-5 25.5 t-11 20.5t-20 8q-10 0 -42.5 -17.5t-75.5 -36.5t-91.5 -36.5t-91.5 -17.5q-45 0 -57 24.5t-12 65.5q0 43 2 80t8 71.5t15 70.5t22 77q39 123 88 224.5t129 201.5q6 8 24.5 31.5t40 46t42 41t32.5 18.5q25 0 25 -25q0 -16 -10.5 -42.5t-22.5 -54t-22.5 -52.5t-10.5 -37 q0 -33 33 -44t57 -11q57 0 94 24.5t59.5 63.5t32 87t9.5 95q0 94 -43 139t-137 45q-100 0 -193.5 -50t-174.5 -132t-146.5 -188.5t-112.5 -220t-72.5 -224t-25.5 -202.5z" />
<glyph unicode="&#xc8;" horiz-adv-x="737" d="M-35 158q0 -76 51.5 -116t122.5 -40q86 0 177.5 15.5t175.5 37.5q59 16 101 52t42 102q0 23 -20.5 44t-43.5 21q-10 0 -20 -2t-21 -6q-27 -8 -63.5 -17t-76.5 -17.5t-77 -13.5t-63 -5q-10 0 -19.5 3t-9.5 15q0 25 15.5 72t36 99.5t41 99.5t30.5 69q2 4 6 11.5t10 7.5 t15 -4q10 -2 28 -2h31q41 0 78 4t78 10q47 6 78.5 19.5t31.5 68.5q0 57 -24.5 86t-83.5 29q-29 0 -59.5 -2t-59.5 -2q-8 0 -13 1t-5 11q0 8 9 32.5t21.5 51.5t23.5 50.5t15 33.5l43 86q12 25 23.5 38t25 19t32 8t44.5 2q37 2 74 3.5t72 1.5q16 0 29.5 -3.5t27.5 -3.5 q27 0 27 25q0 16 -11.5 45t-17.5 43q-18 39 -32.5 60.5t-34 29.5t-46 9t-69.5 1q-88 0 -180.5 -12t-178.5 -35q-45 -12 -60.5 -35.5t-15.5 -68.5q0 -43 7.5 -66.5t29.5 -60.5q0 -2 4.5 -8t4.5 -8q0 -10 -5.5 -17.5t-9.5 -15.5q-47 -68 -85 -141.5t-72 -147.5 q-25 -53 -49.5 -106.5t-45.5 -108.5q-12 -31 -27.5 -78t-28.5 -97t-23.5 -97.5t-10.5 -79.5zM469 1665q0 -23 17.5 -36t33.5 -23q41 -25 75 -54.5t71 -58.5q14 -10 26 -10q31 -1 31 30q0 18 -12.5 61.5t-30.5 87.5t-41 79t-43 35q-10 0 -31.5 -12.5t-43 -31t-37 -37 t-15.5 -30.5z" />
<glyph unicode="&#xc9;" horiz-adv-x="737" d="M-35 158q0 -76 51.5 -116t122.5 -40q86 0 177.5 15.5t175.5 37.5q59 16 101 52t42 102q0 23 -20.5 44t-43.5 21q-10 0 -20 -2t-21 -6q-27 -8 -63.5 -17t-76.5 -17.5t-77 -13.5t-63 -5q-10 0 -19.5 3t-9.5 15q0 25 15.5 72t36 99.5t41 99.5t30.5 69q2 4 6 11.5t10 7.5 t15 -4q10 -2 28 -2h31q41 0 78 4t78 10q47 6 78.5 19.5t31.5 68.5q0 57 -24.5 86t-83.5 29q-29 0 -59.5 -2t-59.5 -2q-8 0 -13 1t-5 11q0 8 9 32.5t21.5 51.5t23.5 50.5t15 33.5l43 86q12 25 23.5 38t25 19t32 8t44.5 2q37 2 74 3.5t72 1.5q16 0 29.5 -3.5t27.5 -3.5 q27 0 27 25q0 16 -11.5 45t-17.5 43q-18 39 -32.5 60.5t-34 29.5t-46 9t-69.5 1q-88 0 -180.5 -12t-178.5 -35q-45 -12 -60.5 -35.5t-15.5 -68.5q0 -43 7.5 -66.5t29.5 -60.5q0 -2 4.5 -8t4.5 -8q0 -10 -5.5 -17.5t-9.5 -15.5q-47 -68 -85 -141.5t-72 -147.5 q-25 -53 -49.5 -106.5t-45.5 -108.5q-12 -31 -27.5 -78t-28.5 -97t-23.5 -97.5t-10.5 -79.5zM594 1513q0 -31 29 -30q14 0 28 10q10 8 20.5 17.5t20.5 17.5q25 20 50.5 40.5t54.5 37.5q16 10 33.5 22.5t17.5 32.5q0 25 -19.5 41t-35.5 31q-12 10 -34 26.5t-38 16.5 q-23 0 -45.5 -34t-41 -79t-29.5 -88t-11 -62z" />
<glyph unicode="&#xca;" horiz-adv-x="737" d="M-35 158q0 -76 51.5 -116t122.5 -40q86 0 177.5 15.5t175.5 37.5q59 16 101 52t42 102q0 23 -20.5 44t-43.5 21q-10 0 -20 -2t-21 -6q-27 -8 -63.5 -17t-76.5 -17.5t-77 -13.5t-63 -5q-10 0 -19.5 3t-9.5 15q0 25 15.5 72t36 99.5t41 99.5t30.5 69q2 4 6 11.5t10 7.5 t15 -4q10 -2 28 -2h31q41 0 78 4t78 10q47 6 78.5 19.5t31.5 68.5q0 57 -24.5 86t-83.5 29q-29 0 -59.5 -2t-59.5 -2q-8 0 -13 1t-5 11q0 8 9 32.5t21.5 51.5t23.5 50.5t15 33.5l43 86q12 25 23.5 38t25 19t32 8t44.5 2q37 2 74 3.5t72 1.5q16 0 29.5 -3.5t27.5 -3.5 q27 0 27 25q0 16 -11.5 45t-17.5 43q-18 39 -32.5 60.5t-34 29.5t-46 9t-69.5 1q-88 0 -180.5 -12t-178.5 -35q-45 -12 -60.5 -35.5t-15.5 -68.5q0 -43 7.5 -66.5t29.5 -60.5q0 -2 4.5 -8t4.5 -8q0 -10 -5.5 -17.5t-9.5 -15.5q-47 -68 -85 -141.5t-72 -147.5 q-25 -53 -49.5 -106.5t-45.5 -108.5q-12 -31 -27.5 -78t-28.5 -97t-23.5 -97.5t-10.5 -79.5zM457 1534q0 -16 16 -34.5t33 -18.5q10 0 30.5 20.5l45 45t50 45t44.5 20.5q12 0 28.5 -19.5t33 -43t33.5 -43t30 -19.5q12 0 30.5 14.5t36 32.5t29.5 36.5t12 28.5q0 14 -21.5 44 t-50 61t-58 53.5t-44.5 22.5q-18 0 -64 -32t-93.5 -73t-84 -82t-36.5 -59z" />
<glyph unicode="&#xcb;" horiz-adv-x="737" d="M-35 158q0 -76 51.5 -116t122.5 -40q86 0 177.5 15.5t175.5 37.5q59 16 101 52t42 102q0 23 -20.5 44t-43.5 21q-10 0 -20 -2t-21 -6q-27 -8 -63.5 -17t-76.5 -17.5t-77 -13.5t-63 -5q-10 0 -19.5 3t-9.5 15q0 25 15.5 72t36 99.5t41 99.5t30.5 69q2 4 6 11.5t10 7.5 t15 -4q10 -2 28 -2h31q41 0 78 4t78 10q47 6 78.5 19.5t31.5 68.5q0 57 -24.5 86t-83.5 29q-29 0 -59.5 -2t-59.5 -2q-8 0 -13 1t-5 11q0 8 9 32.5t21.5 51.5t23.5 50.5t15 33.5l43 86q12 25 23.5 38t25 19t32 8t44.5 2q37 2 74 3.5t72 1.5q16 0 29.5 -3.5t27.5 -3.5 q27 0 27 25q0 16 -11.5 45t-17.5 43q-18 39 -32.5 60.5t-34 29.5t-46 9t-69.5 1q-88 0 -180.5 -12t-178.5 -35q-45 -12 -60.5 -35.5t-15.5 -68.5q0 -43 7.5 -66.5t29.5 -60.5q0 -2 4.5 -8t4.5 -8q0 -10 -5.5 -17.5t-9.5 -15.5q-47 -68 -85 -141.5t-72 -147.5 q-25 -53 -49.5 -106.5t-45.5 -108.5q-12 -31 -27.5 -78t-28.5 -97t-23.5 -97.5t-10.5 -79.5zM442 1597q0 -18 9.5 -38.5t25 -38t33.5 -28.5t37 -11q25 0 36 15t21 36q6 12 16.5 30.5t21.5 38t19.5 37t8.5 27.5q0 14 -16.5 33.5t-38 37t-43 30t-29.5 12.5q-16 0 -35 -22.5 t-33 -52.5t-23.5 -59.5t-9.5 -46.5zM725 1597q0 -18 9 -38.5t24.5 -38t35 -28.5t37.5 -11q27 0 36.5 15t19.5 36q4 10 15 28.5t22.5 39t20.5 39t9 26.5q0 23 -17 39t-34 27q-10 8 -34.5 27.5t-41.5 19.5q-16 0 -33.5 -22.5t-33 -52.5t-25.5 -60.5t-10 -45.5z" />
<glyph unicode="&#xcc;" horiz-adv-x="444" d="M-35 115q0 -20 15.5 -29.5t27.5 -22.5q14 -14 23.5 -26t19.5 -21.5t23.5 -15.5t36.5 -6q8 0 12 2q16 2 34.5 4t32.5 12q8 6 14.5 20.5t10.5 30t6 31t4 25.5q6 29 15.5 58.5t19.5 58.5q14 45 26.5 89t28.5 89q20 59 40 116.5t42 116.5q41 106 83 212t91 208q16 35 37 76 t21 82q0 31 -14.5 49t-39.5 35q-20 14 -47.5 28.5t-52.5 14.5q-27 0 -37 -15.5t-18 -38.5q-27 -74 -59.5 -145.5t-61.5 -142.5q-78 -193 -152.5 -380.5t-142.5 -381.5q-4 -12 -10 -29.5t-12.5 -36t-11.5 -37t-5 -30.5zM383 1665q0 -23 18.5 -36t34.5 -23q41 -25 76 -54.5 t70 -58.5q14 -10 26 -10q29 -1 29 30q0 18 -11.5 61.5t-29.5 88.5t-41 79t-43 34q-10 0 -31.5 -13.5t-43 -31t-38 -36t-16.5 -30.5z" />
<glyph unicode="&#xcd;" horiz-adv-x="444" d="M-35 115q0 -20 15.5 -29.5t27.5 -22.5q14 -14 23.5 -26t19.5 -21.5t23.5 -15.5t36.5 -6q8 0 12 2q16 2 34.5 4t32.5 12q8 6 14.5 20.5t10.5 30t6 31t4 25.5q6 29 15.5 58.5t19.5 58.5q14 45 26.5 89t28.5 89q20 59 40 116.5t42 116.5q41 106 83 212t91 208q16 35 37 76 t21 82q0 31 -14.5 49t-39.5 35q-20 14 -47.5 28.5t-52.5 14.5q-27 0 -37 -15.5t-18 -38.5q-27 -74 -59.5 -145.5t-61.5 -142.5q-78 -193 -152.5 -380.5t-142.5 -381.5q-4 -12 -10 -29.5t-12.5 -36t-11.5 -37t-5 -30.5zM551 1513q0 -12 6 -21t21 -9q14 0 28 10q20 14 41 35 q53 47 105 78q14 8 33.5 21.5t19.5 33.5q0 23 -20.5 41t-36.5 31q-12 10 -33 26.5t-37 16.5q-23 0 -45.5 -34t-41 -79t-29.5 -88t-11 -62z" />
<glyph unicode="&#xce;" horiz-adv-x="444" d="M-35 115q0 -20 15.5 -29.5t27.5 -22.5q14 -14 23.5 -26t19.5 -21.5t23.5 -15.5t36.5 -6q8 0 12 2q16 2 34.5 4t32.5 12q8 6 14.5 20.5t10.5 30t6 31t4 25.5q6 29 15.5 58.5t19.5 58.5q14 45 26.5 89t28.5 89q20 59 40 116.5t42 116.5q41 106 83 212t91 208q16 35 37 76 t21 82q0 31 -14.5 49t-39.5 35q-20 14 -47.5 28.5t-52.5 14.5q-27 0 -37 -15.5t-18 -38.5q-27 -74 -59.5 -145.5t-61.5 -142.5q-78 -193 -152.5 -380.5t-142.5 -381.5q-4 -12 -10 -29.5t-12.5 -36t-11.5 -37t-5 -30.5zM399 1534q0 -16 16.5 -34.5t33.5 -18.5q10 0 30.5 20.5 l45 45t49 45t42.5 20.5q14 0 31 -19.5t33 -43t32.5 -43t30.5 -19.5q10 0 29 14.5t36 33.5t30.5 37.5t13.5 26.5q0 14 -22.5 44t-51 61t-57.5 53.5t-43 22.5q-18 0 -64.5 -32t-93.5 -73t-84 -82t-37 -59z" />
<glyph unicode="&#xcf;" horiz-adv-x="444" d="M-35 115q0 -20 15.5 -29.5t27.5 -22.5q14 -14 23.5 -26t19.5 -21.5t23.5 -15.5t36.5 -6q8 0 12 2q16 2 34.5 4t32.5 12q8 6 14.5 20.5t10.5 30t6 31t4 25.5q6 29 15.5 58.5t19.5 58.5q14 45 26.5 89t28.5 89q20 59 40 116.5t42 116.5q41 106 83 212t91 208q16 35 37 76 t21 82q0 31 -14.5 49t-39.5 35q-20 14 -47.5 28.5t-52.5 14.5q-27 0 -37 -15.5t-18 -38.5q-27 -74 -59.5 -145.5t-61.5 -142.5q-78 -193 -152.5 -380.5t-142.5 -381.5q-4 -12 -10 -29.5t-12.5 -36t-11.5 -37t-5 -30.5zM385 1597q0 -18 9 -38.5t23.5 -38t34 -28.5t37.5 -11 q25 0 36.5 15t21.5 36q6 10 16 28.5t21.5 39t19.5 38t8 27.5q0 14 -16 33.5t-37.5 37t-43 30t-30.5 12.5q-16 0 -34.5 -22.5t-33 -52.5t-23.5 -59.5t-9 -46.5zM668 1597q0 -18 9 -38.5t24.5 -38t35 -28.5t37.5 -11q25 0 35 15t20 36q6 12 16.5 30.5t22 37t19.5 36t8 29.5 q0 23 -16.5 39t-32.5 27q-10 8 -36 27.5t-40 19.5q-18 0 -35.5 -22.5t-33 -52.5t-24.5 -59.5t-9 -46.5z" />
<glyph unicode="&#xd1;" horiz-adv-x="925" d="M-20 168q0 -43 21.5 -70.5t53.5 -52.5q16 -12 40 -27.5t44 -15.5q23 0 31 20.5t14 36.5q10 31 19.5 63t19.5 62l80 271q18 63 38.5 125.5t43.5 124.5q6 16 14.5 46.5t16.5 43.5q10 -23 11 -48.5t5 -48.5q16 -123 35.5 -245.5t19.5 -245.5q0 -51 -2 -79t4.5 -46.5 t27 -36.5t67.5 -49q10 -6 33.5 -21.5t35.5 -15.5t22.5 17.5t16.5 39t10.5 42t6.5 28.5q23 96 53.5 200.5t66 210t74.5 207t80 191.5q2 4 12.5 26.5t24.5 54.5t29.5 67.5t29 68.5t22.5 56.5t9 29.5q0 23 -17.5 38t-31.5 30q-10 8 -18.5 24.5t-17.5 31.5t-21.5 26.5 t-28.5 11.5q-23 0 -37 -19.5t-25 -37.5q-55 -121 -105 -251t-91 -257q-14 -43 -26.5 -85t-22.5 -87q-10 43 -11.5 87t-7.5 87q-14 102 -29.5 203.5t-31.5 203.5q-6 41 -15.5 70t-25 47t-42 29.5t-69.5 17.5q-31 6 -65 6q-35 0 -45.5 -12t-10.5 -45q0 -41 10.5 -79t10.5 -79 q0 -6 -13.5 -43t-30 -82t-31.5 -86t-21 -53q-31 -78 -63 -154.5t-60 -154.5q-25 -63 -47.5 -126t-44.5 -126q-12 -35 -28.5 -75t-16.5 -79v-12zM575 1561q0 -10 10.5 -14.5t20.5 -8.5q6 4 12.5 13.5t15.5 19.5t22.5 17t31.5 7q20 0 42 -12t46.5 -26.5t52 -26.5t60.5 -12 q66 0 114 37.5t76 95.5q4 6 12.5 26.5t8.5 24.5q0 6 -8.5 10t-12.5 6q-4 4 -10 4t-10 -10q-14 -18 -29.5 -32.5t-40.5 -14.5q-23 0 -43 12.5t-44.5 25.5t-53.5 25.5t-68 12.5q-63 0 -108 -35t-74 -90q-4 -8 -13.5 -26.5t-9.5 -28.5z" />
<glyph unicode="&#xd2;" horiz-adv-x="870" d="M27 344q0 -55 18 -118.5t53 -118t85 -89t116 -34.5q74 0 146.5 42t136 104.5t116 133t84.5 127.5q68 119 114 259.5t46 279.5q0 70 -14.5 150.5t-38.5 146.5q-4 12 -17.5 37.5t-31.5 25.5q-8 0 -18.5 -6t-23 -12t-23.5 -12.5t-19 -6.5q-10 0 -26.5 19.5t-35 44t-39 44 t-41.5 19.5q-25 0 -50 -18.5t-42 -34.5q-78 -70 -158.5 -161t-134.5 -181q-39 -63 -74.5 -143t-64.5 -166t-46 -172t-17 -160zM260 303q0 76 18.5 156t47 158.5t66.5 153.5t79 136q8 12 30.5 45t49.5 69t53.5 63.5t40.5 27.5q18 0 30.5 -16.5t19.5 -38t11.5 -45t4.5 -35.5 q0 -80 -27 -176t-70 -191.5t-95 -181.5t-101 -147q-8 -10 -21.5 -24.5t-29 -27t-32 -21.5t-30.5 -9q-16 0 -25.5 12t-13.5 28.5t-5 35t-1 28.5zM569 1665q0 -23 18.5 -36t35.5 -23q41 -25 75.5 -54.5t69.5 -58.5q14 -10 27 -10q28 -1 28 30q0 18 -11 61.5t-29.5 88.5t-41 79 t-43.5 34q-10 0 -31.5 -13.5t-43 -31t-38 -36t-16.5 -30.5z" />
<glyph unicode="&#xd3;" horiz-adv-x="870" d="M27 344q0 -55 18 -118.5t53 -118t85 -89t116 -34.5q74 0 146.5 42t136 104.5t116 133t84.5 127.5q68 119 114 259.5t46 279.5q0 70 -14.5 150.5t-38.5 146.5q-4 12 -17.5 37.5t-31.5 25.5q-8 0 -18.5 -6t-23 -12t-23.5 -12.5t-19 -6.5q-10 0 -26.5 19.5t-35 44t-39 44 t-41.5 19.5q-25 0 -50 -18.5t-42 -34.5q-78 -70 -158.5 -161t-134.5 -181q-39 -63 -74.5 -143t-64.5 -166t-46 -172t-17 -160zM260 303q0 76 18.5 156t47 158.5t66.5 153.5t79 136q8 12 30.5 45t49.5 69t53.5 63.5t40.5 27.5q18 0 30.5 -16.5t19.5 -38t11.5 -45t4.5 -35.5 q0 -80 -27 -176t-70 -191.5t-95 -181.5t-101 -147q-8 -10 -21.5 -24.5t-29 -27t-32 -21.5t-30.5 -9q-16 0 -25.5 12t-13.5 28.5t-5 35t-1 28.5zM709 1513q0 -31 28 -30q14 0 29 10q20 14 41 35q23 23 49.5 42t54.5 36q16 10 34 22.5t18 32.5q0 25 -19.5 41t-36.5 31 q-14 10 -34.5 26.5t-36.5 16.5q-20 0 -43 -35t-41.5 -79t-30.5 -87t-12 -62z" />
<glyph unicode="&#xd4;" horiz-adv-x="870" d="M27 344q0 -55 18 -118.5t53 -118t85 -89t116 -34.5q74 0 146.5 42t136 104.5t116 133t84.5 127.5q68 119 114 259.5t46 279.5q0 70 -14.5 150.5t-38.5 146.5q-4 12 -17.5 37.5t-31.5 25.5q-8 0 -18.5 -6t-23 -12t-23.5 -12.5t-19 -6.5q-10 0 -26.5 19.5t-35 44t-39 44 t-41.5 19.5q-25 0 -50 -18.5t-42 -34.5q-78 -70 -158.5 -161t-134.5 -181q-39 -63 -74.5 -143t-64.5 -166t-46 -172t-17 -160zM260 303q0 76 18.5 156t47 158.5t66.5 153.5t79 136q8 12 30.5 45t49.5 69t53.5 63.5t40.5 27.5q18 0 30.5 -16.5t19.5 -38t11.5 -45t4.5 -35.5 q0 -80 -27 -176t-70 -191.5t-95 -181.5t-101 -147q-8 -10 -21.5 -24.5t-29 -27t-32 -21.5t-30.5 -9q-16 0 -25.5 12t-13.5 28.5t-5 35t-1 28.5zM545 1534q0 -16 16.5 -34.5t32.5 -18.5q10 0 30.5 20.5l45 45t49 45t43.5 20.5q14 0 30.5 -19.5t33 -43t32.5 -43t31 -19.5 q10 0 28.5 14.5t36 33.5t30.5 37.5t13 26.5q0 14 -22.5 44t-51 61t-57 53.5t-43.5 22.5q-18 0 -64 -32t-93.5 -73t-84 -82t-36.5 -59z" />
<glyph unicode="&#xd5;" horiz-adv-x="870" d="M27 344q0 -55 18 -118.5t53 -118t85 -89t116 -34.5q74 0 146.5 42t136 104.5t116 133t84.5 127.5q68 119 114 259.5t46 279.5q0 70 -14.5 150.5t-38.5 146.5q-4 12 -17.5 37.5t-31.5 25.5q-8 0 -18.5 -6t-23 -12t-23.5 -12.5t-19 -6.5q-10 0 -26.5 19.5t-35 44t-39 44 t-41.5 19.5q-25 0 -50 -18.5t-42 -34.5q-78 -70 -158.5 -161t-134.5 -181q-39 -63 -74.5 -143t-64.5 -166t-46 -172t-17 -160zM260 303q0 76 18.5 156t47 158.5t66.5 153.5t79 136q8 12 30.5 45t49.5 69t53.5 63.5t40.5 27.5q18 0 30.5 -16.5t19.5 -38t11.5 -45t4.5 -35.5 q0 -80 -27 -176t-70 -191.5t-95 -181.5t-101 -147q-8 -10 -21.5 -24.5t-29 -27t-32 -21.5t-30.5 -9q-16 0 -25.5 12t-13.5 28.5t-5 35t-1 28.5zM549 1561q0 -12 10 -15.5t21 -7.5q16 16 31.5 36.5t47.5 20.5q20 0 42 -12t46.5 -26.5t53 -26.5t61.5 -12q70 0 114 37.5 t75 95.5q4 8 13 25.5t9 25.5q0 6 -8 10l-12 6q-8 4 -13 4q-4 0 -9 -9t-14 -19.5t-22.5 -19.5t-31.5 -9q-23 0 -43.5 12.5t-45 25.5t-54 25.5t-68.5 12.5q-63 0 -108.5 -35t-72.5 -90q-4 -8 -13 -26.5t-9 -28.5z" />
<glyph unicode="&#xd6;" horiz-adv-x="870" d="M27 344q0 -55 18 -118.5t53 -118t85 -89t116 -34.5q74 0 146.5 42t136 104.5t116 133t84.5 127.5q68 119 114 259.5t46 279.5q0 70 -14.5 150.5t-38.5 146.5q-4 12 -17.5 37.5t-31.5 25.5q-8 0 -18.5 -6t-23 -12t-23.5 -12.5t-19 -6.5q-10 0 -26.5 19.5t-35 44t-39 44 t-41.5 19.5q-25 0 -50 -18.5t-42 -34.5q-78 -70 -158.5 -161t-134.5 -181q-39 -63 -74.5 -143t-64.5 -166t-46 -172t-17 -160zM260 303q0 76 18.5 156t47 158.5t66.5 153.5t79 136q8 12 30.5 45t49.5 69t53.5 63.5t40.5 27.5q18 0 30.5 -16.5t19.5 -38t11.5 -45t4.5 -35.5 q0 -80 -27 -176t-70 -191.5t-95 -181.5t-101 -147q-8 -10 -21.5 -24.5t-29 -27t-32 -21.5t-30.5 -9q-16 0 -25.5 12t-13.5 28.5t-5 35t-1 28.5zM557 1597q0 -18 9 -38.5t24.5 -38t35 -28.5t38.5 -11q25 0 35 16t20 35q6 12 16 29.5t21.5 37t19.5 38t8 28.5q0 14 -16 33.5 t-37.5 37t-42 30t-29.5 12.5q-18 0 -35.5 -22.5t-33 -52.5t-24.5 -59.5t-9 -46.5zM840 1597q0 -18 9 -38.5t24.5 -38t35 -28.5t37.5 -11q25 0 36 15t22 36q6 14 12 27.5t14 25.5t23.5 38t15.5 42q0 14 -16.5 33.5t-38 37t-43 30t-29.5 12.5q-16 0 -33.5 -22.5t-33 -52.5 t-25.5 -60.5t-10 -45.5z" />
<glyph unicode="&#xd8;" horiz-adv-x="849" d="M-104 74q0 -8 5 -20.5t12 -25t16.5 -20.5t19.5 -8q6 0 24.5 18.5t40 42t39 43t21.5 23.5q33 -53 90 -98t123 -45q74 0 146.5 42t136 104.5t115.5 133t85 127.5q68 119 114 259.5t46 277.5q0 39 -4 76.5t-11 76.5q2 4 24 26.5t45.5 49.5t43 51.5t19.5 32.5q0 16 -17.5 41 t-34.5 25q-6 0 -22.5 -15.5t-34.5 -36t-33.5 -38t-17.5 -19.5q-2 8 -7.5 24.5t-12.5 31t-17 25.5t-23 11q-8 0 -18 -6t-22.5 -12t-23.5 -12.5t-20 -6.5q-10 0 -26.5 19.5t-34.5 44t-38.5 44t-41.5 19.5q-23 0 -49.5 -19.5t-42.5 -33.5q-78 -72 -159 -162t-134 -180 q-39 -63 -75 -143t-63.5 -166t-45 -172t-17.5 -160q0 -29 2 -55.5t9 -55.5q-4 -4 -24.5 -26.5t-44.5 -49t-43 -51t-19 -32.5zM248 303v23l424 481q-16 -61 -45 -133t-64 -142.5t-76 -136t-81 -114.5q-8 -10 -21.5 -24.5t-29 -27t-32 -21.5t-30.5 -9q-16 0 -25.5 12 t-13.5 28.5t-5 35t-1 28.5zM281 518q25 98 75 200.5t103 188.5q8 12 30.5 46t50 69t53 62.5t42.5 27.5q16 0 27.5 -15.5t19.5 -36t11 -41t5 -32.5z" />
<glyph unicode="&#xd9;" horiz-adv-x="913" d="M41 324q0 -55 16.5 -113.5t48 -105t79.5 -76t112 -29.5q35 0 72 11.5t71.5 29.5t65.5 41.5t55 46.5q49 45 93 101.5t84 118t75 125t64 122.5q27 55 61.5 133t63 163t49 167t20.5 143q0 102 -96 152q-20 10 -39 10q-23 0 -31 -18.5t-14 -34.5q-10 -29 -19.5 -59.5 t-19.5 -59.5l-72 -199q-51 -141 -120.5 -269t-149.5 -253q-12 -18 -39 -58t-57.5 -81t-61 -72t-51.5 -31q-16 0 -19 17.5t-3 27.5q0 94 29.5 211t73.5 237t93 232.5t86 198.5q6 12 14.5 29.5t17.5 36t15 37t6 30.5q0 20 -14 33.5t-34.5 23t-43 13.5t-37.5 4q-35 0 -53 -10.5 t-39 -38.5q-18 -27 -38.5 -65t-41 -78t-40 -77.5t-33.5 -68.5q-37 -74 -72 -161t-63.5 -179t-46 -183t-17.5 -175zM592 1665q0 -23 17.5 -36t33.5 -23q29 -16 55.5 -36t49.5 -42q18 -20 40 -35q14 -10 27 -10q31 -1 31 30q0 18 -12.5 61.5t-31 88.5t-41 79t-42.5 34 q-10 0 -31.5 -12.5t-43 -31t-37 -37t-15.5 -30.5z" />
<glyph unicode="&#xda;" horiz-adv-x="913" d="M41 324q0 -55 16.5 -113.5t48 -105t79.5 -76t112 -29.5q35 0 72 11.5t71.5 29.5t65.5 41.5t55 46.5q49 45 93 101.5t84 118t75 125t64 122.5q27 55 61.5 133t63 163t49 167t20.5 143q0 102 -96 152q-20 10 -39 10q-23 0 -31 -18.5t-14 -34.5q-10 -29 -19.5 -59.5 t-19.5 -59.5l-72 -199q-51 -141 -120.5 -269t-149.5 -253q-12 -18 -39 -58t-57.5 -81t-61 -72t-51.5 -31q-16 0 -19 17.5t-3 27.5q0 94 29.5 211t73.5 237t93 232.5t86 198.5q6 12 14.5 29.5t17.5 36t15 37t6 30.5q0 20 -14 33.5t-34.5 23t-43 13.5t-37.5 4q-35 0 -53 -10.5 t-39 -38.5q-18 -27 -38.5 -65t-41 -78t-40 -77.5t-33.5 -68.5q-37 -74 -72 -161t-63.5 -179t-46 -183t-17.5 -175zM758 1513q0 -31 28 -30q14 0 29 10q10 8 19.5 17.5t19.5 17.5q23 20 50.5 40.5t53.5 37.5q16 10 35 21t19 34q0 25 -19.5 41t-36.5 31q-12 10 -33.5 26.5 t-37.5 16.5q-23 0 -45.5 -34t-41 -79t-29.5 -88t-11 -62z" />
<glyph unicode="&#xdb;" horiz-adv-x="913" d="M41 324q0 -55 16.5 -113.5t48 -105t79.5 -76t112 -29.5q35 0 72 11.5t71.5 29.5t65.5 41.5t55 46.5q49 45 93 101.5t84 118t75 125t64 122.5q27 55 61.5 133t63 163t49 167t20.5 143q0 102 -96 152q-20 10 -39 10q-23 0 -31 -18.5t-14 -34.5q-10 -29 -19.5 -59.5 t-19.5 -59.5l-72 -199q-51 -141 -120.5 -269t-149.5 -253q-12 -18 -39 -58t-57.5 -81t-61 -72t-51.5 -31q-16 0 -19 17.5t-3 27.5q0 94 29.5 211t73.5 237t93 232.5t86 198.5q6 12 14.5 29.5t17.5 36t15 37t6 30.5q0 20 -14 33.5t-34.5 23t-43 13.5t-37.5 4q-35 0 -53 -10.5 t-39 -38.5q-18 -27 -38.5 -65t-41 -78t-40 -77.5t-33.5 -68.5q-37 -74 -72 -161t-63.5 -179t-46 -183t-17.5 -175zM592 1534q0 -16 17.5 -34.5t33.5 -18.5q10 0 31.5 20.5t46 45t49.5 45t41 20.5q14 0 30.5 -19.5t33 -43t33 -43t30.5 -19.5q10 0 28.5 14.5t36 32.5 t29.5 36.5t12 28.5q0 14 -21.5 44t-50 61t-58 53.5t-44.5 22.5q-18 0 -63 -32t-93 -74t-85 -83t-37 -57z" />
<glyph unicode="&#xdc;" horiz-adv-x="913" d="M41 324q0 -55 16.5 -113.5t48 -105t79.5 -76t112 -29.5q35 0 72 11.5t71.5 29.5t65.5 41.5t55 46.5q49 45 93 101.5t84 118t75 125t64 122.5q27 55 61.5 133t63 163t49 167t20.5 143q0 102 -96 152q-20 10 -39 10q-23 0 -31 -18.5t-14 -34.5q-10 -29 -19.5 -59.5 t-19.5 -59.5l-72 -199q-51 -141 -120.5 -269t-149.5 -253q-12 -18 -39 -58t-57.5 -81t-61 -72t-51.5 -31q-16 0 -19 17.5t-3 27.5q0 94 29.5 211t73.5 237t93 232.5t86 198.5q6 12 14.5 29.5t17.5 36t15 37t6 30.5q0 20 -14 33.5t-34.5 23t-43 13.5t-37.5 4q-35 0 -53 -10.5 t-39 -38.5q-18 -27 -38.5 -65t-41 -78t-40 -77.5t-33.5 -68.5q-37 -74 -72 -161t-63.5 -179t-46 -183t-17.5 -175zM565 1597q0 -18 9.5 -38.5t23.5 -38t33.5 -28.5t38.5 -11q25 0 36 15t21 36q6 10 16.5 28.5t21.5 39t19.5 38t8.5 27.5q0 14 -16.5 33.5t-38 37t-43 30 t-29.5 12.5q-16 0 -35 -22.5t-33 -52.5t-23.5 -59.5t-9.5 -46.5zM848 1597q0 -18 9 -38.5t24.5 -38t35 -28.5t37.5 -11q25 0 35 15t21 36q6 12 16 30.5t21.5 37t19.5 36t8 29.5q0 23 -16.5 39t-32.5 27q-10 8 -35.5 27.5t-40.5 19.5q-18 0 -35.5 -22.5t-33 -52.5 t-24.5 -59.5t-9 -46.5z" />
<glyph unicode="&#xdf;" horiz-adv-x="821" d="M-88 94q0 -25 16.5 -39t35 -26.5t43 -28.5t48.5 -16q33 0 48.5 24.5t25.5 51t16.5 52t14.5 52.5q14 51 40.5 131t60.5 172t72 190.5t77 186.5t75.5 160.5t67.5 111.5q16 20 43 44t53 24q16 0 20.5 -15.5t4.5 -27.5q0 -47 -24.5 -97.5t-63.5 -78.5l-62 -43 q-23 -16 -29 -28.5t-10 -41.5q-2 -16 -3 -34.5t-1 -37.5q0 -23 3 -41t32 -18q39 0 63.5 -9.5t24.5 -56.5q0 -61 -24.5 -125.5t-65.5 -121t-94 -101.5t-111 -65q-35 -12 -60.5 -25.5t-25.5 -56.5q0 -35 17.5 -63.5t40.5 -53.5q12 -14 37.5 -35.5t46.5 -21.5q25 0 60.5 25.5 t72.5 59t67.5 67.5t44.5 52q88 111 149.5 248t61.5 281q0 57 -16.5 92t-59.5 72q82 53 120 118.5t38 163.5q0 47 -12 89t-37 73t-62.5 49.5t-89.5 18.5q-66 0 -125 -26t-110 -67.5t-93 -94t-73 -105.5q-78 -135 -132 -279.5t-110 -287.5q-8 -23 -32.5 -88.5t-50 -138 t-45 -135t-19.5 -79.5z" />
<glyph unicode="&#xe0;" horiz-adv-x="772" d="M-27 260q0 -31 9.5 -74t30 -81.5t49 -65.5t69.5 -27q53 0 113.5 33t101.5 66q6 4 13.5 10t17.5 6q6 0 6 -10q0 -8 -2 -15.5t-2 -15.5v-20q0 -25 18.5 -43.5t44 -28.5t53 -15.5t46.5 -5.5q39 0 50 16.5t11 53.5q0 68 11.5 135.5t27.5 132.5q29 121 69 230.5t95 220.5 q6 12 15 28.5t18.5 35t16.5 35t7 28.5q0 45 -32.5 74.5t-67.5 46.5q-16 8 -29 8q-18 0 -32.5 -18.5t-26.5 -40t-21.5 -40t-17.5 -20.5q-10 8 -19.5 22.5t-19.5 28t-23.5 22.5t-27.5 9q-18 0 -54 -18.5t-75 -42t-74 -47t-49 -33.5q-109 -82 -176.5 -171t-110.5 -218 q-16 -47 -24.5 -94.5t-8.5 -96.5zM193 262q0 35 11 70t23 65q39 94 89.5 167t132.5 134q8 6 23 17.5t33.5 22t35 17.5t28.5 7q4 0 4 -6q0 -8 -12 -31t-16 -33q-35 -68 -60.5 -139.5t-50.5 -142.5q-10 -29 -19 -42.5t-32 -33.5q-12 -12 -35.5 -28.5t-48.5 -32t-47.5 -26.5 t-36.5 -11q-23 0 -22 26zM444 1311q0 -23 18.5 -36t35.5 -24q29 -18 54.5 -36.5t49.5 -40.5q10 -8 20.5 -17.5t20.5 -17.5q14 -10 27 -11q30 0 30 31q0 18 -12 61.5t-30.5 88.5t-41 78.5t-43.5 33.5q-10 0 -31.5 -13t-43 -30.5t-38 -36t-16.5 -30.5z" />
<glyph unicode="&#xe1;" horiz-adv-x="772" d="M-27 260q0 -31 9.5 -74t30 -81.5t49 -65.5t69.5 -27q53 0 113.5 33t101.5 66q6 4 13.5 10t17.5 6q6 0 6 -10q0 -8 -2 -15.5t-2 -15.5v-20q0 -25 18.5 -43.5t44 -28.5t53 -15.5t46.5 -5.5q39 0 50 16.5t11 53.5q0 68 11.5 135.5t27.5 132.5q29 121 69 230.5t95 220.5 q6 12 15 28.5t18.5 35t16.5 35t7 28.5q0 45 -32.5 74.5t-67.5 46.5q-16 8 -29 8q-18 0 -32.5 -18.5t-26.5 -40t-21.5 -40t-17.5 -20.5q-10 8 -19.5 22.5t-19.5 28t-23.5 22.5t-27.5 9q-18 0 -54 -18.5t-75 -42t-74 -47t-49 -33.5q-109 -82 -176.5 -171t-110.5 -218 q-16 -47 -24.5 -94.5t-8.5 -96.5zM193 262q0 35 11 70t23 65q39 94 89.5 167t132.5 134q8 6 23 17.5t33.5 22t35 17.5t28.5 7q4 0 4 -6q0 -8 -12 -31t-16 -33q-35 -68 -60.5 -139.5t-50.5 -142.5q-10 -29 -19 -42.5t-32 -33.5q-12 -12 -35.5 -28.5t-48.5 -32t-47.5 -26.5 t-36.5 -11q-23 0 -22 26zM571 1133q0 -31 29 -31q14 0 29 10q10 8 19 17.5t20 17.5q25 23 51 41t53 35q14 10 33.5 23.5t19.5 33.5q0 25 -20.5 42t-36.5 30q-10 10 -31.5 26.5t-38.5 16.5q-23 0 -45 -34t-40.5 -79t-30 -88t-11.5 -61z" />
<glyph unicode="&#xe2;" horiz-adv-x="772" d="M-27 260q0 -31 9.5 -74t30 -81.5t49 -65.5t69.5 -27q53 0 113.5 33t101.5 66q6 4 13.5 10t17.5 6q6 0 6 -10q0 -8 -2 -15.5t-2 -15.5v-20q0 -25 18.5 -43.5t44 -28.5t53 -15.5t46.5 -5.5q39 0 50 16.5t11 53.5q0 68 11.5 135.5t27.5 132.5q29 121 69 230.5t95 220.5 q6 12 15 28.5t18.5 35t16.5 35t7 28.5q0 45 -32.5 74.5t-67.5 46.5q-16 8 -29 8q-18 0 -32.5 -18.5t-26.5 -40t-21.5 -40t-17.5 -20.5q-10 8 -19.5 22.5t-19.5 28t-23.5 22.5t-27.5 9q-18 0 -54 -18.5t-75 -42t-74 -47t-49 -33.5q-109 -82 -176.5 -171t-110.5 -218 q-16 -47 -24.5 -94.5t-8.5 -96.5zM193 262q0 35 11 70t23 65q39 94 89.5 167t132.5 134q8 6 23 17.5t33.5 22t35 17.5t28.5 7q4 0 4 -6q0 -8 -12 -31t-16 -33q-35 -68 -60.5 -139.5t-50.5 -142.5q-10 -29 -19 -42.5t-32 -33.5q-12 -12 -35.5 -28.5t-48.5 -32t-47.5 -26.5 t-36.5 -11q-23 0 -22 26zM408 1153q0 -16 17 -35.5t32 -19.5q8 0 29.5 20.5t46 46t50 46t42.5 20.5q14 0 30.5 -19.5t34 -44t33.5 -44t29 -19.5q10 0 28.5 14.5t36 33.5t30.5 38t13 29q0 14 -22.5 43.5t-51 60.5t-57.5 53.5t-43 22.5q-18 0 -64.5 -32t-94.5 -74t-83.5 -82 t-35.5 -58z" />
<glyph unicode="&#xe3;" horiz-adv-x="772" d="M-27 260q0 -31 9.5 -74t30 -81.5t49 -65.5t69.5 -27q53 0 113.5 33t101.5 66q6 4 13.5 10t17.5 6q6 0 6 -10q0 -8 -2 -15.5t-2 -15.5v-20q0 -25 18.5 -43.5t44 -28.5t53 -15.5t46.5 -5.5q39 0 50 16.5t11 53.5q0 68 11.5 135.5t27.5 132.5q29 121 69 230.5t95 220.5 q6 12 15 28.5t18.5 35t16.5 35t7 28.5q0 45 -32.5 74.5t-67.5 46.5q-16 8 -29 8q-18 0 -32.5 -18.5t-26.5 -40t-21.5 -40t-17.5 -20.5q-10 8 -19.5 22.5t-19.5 28t-23.5 22.5t-27.5 9q-18 0 -54 -18.5t-75 -42t-74 -47t-49 -33.5q-109 -82 -176.5 -171t-110.5 -218 q-16 -47 -24.5 -94.5t-8.5 -96.5zM193 262q0 35 11 70t23 65q39 94 89.5 167t132.5 134q8 6 23 17.5t33.5 22t35 17.5t28.5 7q4 0 4 -6q0 -8 -12 -31t-16 -33q-35 -68 -60.5 -139.5t-50.5 -142.5q-10 -29 -19 -42.5t-32 -33.5q-12 -12 -35.5 -28.5t-48.5 -32t-47.5 -26.5 t-36.5 -11q-23 0 -22 26zM410 1180q0 -10 11 -14.5t19 -8.5q8 6 14.5 15.5t14.5 18.5t20.5 15t32.5 6q23 0 45.5 -12t46 -25.5t50 -25.5t61.5 -12q72 0 114 37.5t74 95.5q4 6 12.5 25.5t8.5 25.5q0 8 -12.5 13t-18.5 7q-10 -6 -16 -16t-13.5 -19.5t-18.5 -15.5t-30 -6 q-20 0 -41.5 12.5t-46 25.5t-55.5 25.5t-68 12.5q-63 0 -109 -35t-73 -90q-4 -8 -13 -27.5t-9 -27.5z" />
<glyph unicode="&#xe4;" horiz-adv-x="772" d="M-27 260q0 -31 9.5 -74t30 -81.5t49 -65.5t69.5 -27q53 0 113.5 33t101.5 66q6 4 13.5 10t17.5 6q6 0 6 -10q0 -8 -2 -15.5t-2 -15.5v-20q0 -25 18.5 -43.5t44 -28.5t53 -15.5t46.5 -5.5q39 0 50 16.5t11 53.5q0 68 11.5 135.5t27.5 132.5q29 121 69 230.5t95 220.5 q6 12 15 28.5t18.5 35t16.5 35t7 28.5q0 45 -32.5 74.5t-67.5 46.5q-16 8 -29 8q-18 0 -32.5 -18.5t-26.5 -40t-21.5 -40t-17.5 -20.5q-10 8 -19.5 22.5t-19.5 28t-23.5 22.5t-27.5 9q-18 0 -54 -18.5t-75 -42t-74 -47t-49 -33.5q-109 -82 -176.5 -171t-110.5 -218 q-16 -47 -24.5 -94.5t-8.5 -96.5zM193 262q0 35 11 70t23 65q39 94 89.5 167t132.5 134q8 6 23 17.5t33.5 22t35 17.5t28.5 7q4 0 4 -6q0 -8 -12 -31t-16 -33q-35 -68 -60.5 -139.5t-50.5 -142.5q-10 -29 -19 -42.5t-32 -33.5q-12 -12 -35.5 -28.5t-48.5 -32t-47.5 -26.5 t-36.5 -11q-23 0 -22 26zM395 1217q0 -18 9.5 -39t24.5 -38.5t34.5 -28.5t38.5 -11q23 0 34 15t21 34q6 12 16.5 30.5t21.5 38t19.5 38t8.5 28.5q0 23 -17.5 39t-34.5 27q-10 8 -34.5 27.5t-38.5 19.5q-18 0 -36 -22.5t-33 -52.5t-24.5 -59.5t-9.5 -45.5zM678 1217 q0 -18 9 -39t24.5 -38.5t35 -28.5t37.5 -11q25 0 36 14t22 35q6 14 12 28.5t14.5 27t23.5 38t15 41.5q0 14 -16.5 33.5t-38 37t-43 30t-29.5 12.5q-16 0 -33.5 -22.5t-33 -52.5t-25.5 -60.5t-10 -44.5z" />
<glyph unicode="&#xe5;" horiz-adv-x="772" d="M-27 260q0 -31 9.5 -74t30 -81.5t49 -65.5t69.5 -27q53 0 113.5 33t101.5 66q6 4 13.5 10t17.5 6q6 0 6 -10q0 -8 -2 -15.5t-2 -15.5v-20q0 -25 18.5 -43.5t44 -28.5t53 -15.5t46.5 -5.5q39 0 50 16.5t11 53.5q0 68 11.5 135.5t27.5 132.5q29 121 69 230.5t95 220.5 q6 12 15 28.5t18.5 35t16.5 35t7 28.5q0 45 -32.5 74.5t-67.5 46.5q-16 8 -29 8q-18 0 -32.5 -18.5t-26.5 -40t-21.5 -40t-17.5 -20.5q-10 8 -19.5 22.5t-19.5 28t-23.5 22.5t-27.5 9q-18 0 -54 -18.5t-75 -42t-74 -47t-49 -33.5q-109 -82 -176.5 -171t-110.5 -218 q-16 -47 -24.5 -94.5t-8.5 -96.5zM193 262q0 35 11 70t23 65q39 94 89.5 167t132.5 134q8 6 23 17.5t33.5 22t35 17.5t28.5 7q4 0 4 -6q0 -8 -12 -31t-16 -33q-35 -68 -60.5 -139.5t-50.5 -142.5q-10 -29 -19 -42.5t-32 -33.5q-12 -12 -35.5 -28.5t-48.5 -32t-47.5 -26.5 t-36.5 -11q-23 0 -22 26zM528 1221q0 -47 28 -80t77 -33q39 0 74.5 18.5t63.5 49t44 68.5t16 75q0 31 -6 38t-28 25q-18 16 -32.5 39t-41.5 23q-33 0 -62.5 -20.5t-52.5 -43.5q-33 -33 -56.5 -72.5t-23.5 -86.5zM625 1212q0 14 9 37t23.5 44.5t31 37t32.5 15.5q18 -1 18 -21 q0 -16 -8 -38.5t-22.5 -43t-30.5 -36t-35 -15.5q-18 0 -18 20z" />
<glyph unicode="&#xe6;" horiz-adv-x="1155" d="M-35 256q0 -43 11.5 -90t35 -88t60.5 -67.5t88 -26.5q53 0 102 24.5t88 53t65.5 54t35.5 25.5q4 -4 6 -7t6 -7q8 -10 14 -22.5t15 -22.5q31 -41 72.5 -68.5t94.5 -27.5q31 0 67 7t73 19.5t70.5 26.5t60.5 29q37 20 60.5 56t23.5 79q0 23 -12.5 38t-34.5 15q-16 0 -40 -9 t-40 -16q-35 -12 -74 -22t-78 -10q-82 0 -82 86q0 12 2 33.5t6.5 43t10.5 41t16 29.5q8 0 16.5 -14.5t20.5 -29.5t28.5 -28.5t41.5 -13.5t57.5 10.5t65 25.5t62.5 33.5t48 33.5q72 53 124 130t52 169q0 90 -56 148t-147 58q-55 0 -113.5 -22.5t-103.5 -52.5q-6 -4 -12 -8.5 t-14 -4.5q-6 0 -13.5 4t-11.5 9q-61 39 -137 59q-49 12 -98 12q-80 0 -158 -25.5t-139 -76.5q-16 -14 -39 -40t-23 -48q0 -20 13.5 -35.5t33 -27t42 -16.5t38.5 -5q31 0 60.5 12t58.5 27.5t57.5 28t59.5 12.5q8 0 23.5 -3t30.5 -8.5t27.5 -13.5t12.5 -18t-14.5 -32 t-22.5 -34q-8 -14 -20 -14q-10 0 -17 2q-18 4 -37.5 5t-38.5 1q-86 0 -172 -23.5t-154.5 -70.5t-111.5 -120t-43 -171zM193 248q0 31 17 61.5t43 57t55.5 48t53.5 34.5q16 8 46 20t49 12q14 0 14 -12q0 -16 -8 -36.5t-20.5 -42t-26 -40t-23.5 -31.5q-14 -16 -34.5 -32.5 t-44 -31.5t-49 -24.5t-46.5 -9.5q-27 0 -26 27zM733 535q0 23 30 65.5t69.5 84.5t81.5 74t67 32q14 0 20.5 -10.5t6.5 -22.5q0 -43 -23.5 -85t-60.5 -76t-82 -55.5t-86 -21.5q-8 0 -15.5 2t-7.5 13z" />
<glyph unicode="&#xe7;" horiz-adv-x="653" d="M-78 -291q0 -16 17.5 -30.5t42 -25.5t49 -18.5t37.5 -7.5q39 0 78.5 15.5t72.5 42t53.5 62.5t20.5 79q0 31 -13.5 46t-28.5 22.5t-29.5 11.5t-14.5 14q10 18 21.5 36.5t23.5 35.5q25 6 65.5 20.5t80.5 34t72 43t38 51.5q4 18 8 37t10 37q2 4 -3 14.5t-13 19.5t-16.5 16 t-14.5 7q-8 0 -24 -8q-20 -10 -34.5 -19t-29 -16.5t-31 -13.5t-38.5 -10q-31 -6 -60 -6q-43 0 -57.5 24.5t-14.5 63.5q0 66 24 131t60.5 126.5t85 114t97.5 93.5q12 12 24 12q10 0 13.5 -7t3.5 -16q0 -20 -3 -39.5t-3 -39.5q0 -33 20 -45.5t49 -12.5q18 0 37.5 10.5t38 25.5 t33 32.5t22.5 34.5q4 10 6 28.5t2 28.5q0 39 -16 73.5t-44 59.5t-63.5 39t-74.5 14q-66 0 -133.5 -40t-128 -97t-109.5 -123.5t-76 -118.5q-18 -35 -34.5 -76.5t-28.5 -87t-19.5 -90.5t-7.5 -84q0 -92 48 -150t132 -91q-6 -12 -19 -36t-25.5 -50.5t-21.5 -50t-9 -37.5 q0 -16 11 -17.5t21 -1.5q16 0 28.5 2t21.5 19q6 4 7 5t9 1q10 0 17.5 -8t7.5 -19q0 -18 -12.5 -32.5t-30 -25.5t-38 -17.5t-34.5 -6.5q-18 0 -31.5 6.5t-25 14.5t-19.5 14t-18 6q-14 0 -38 -18.5t-24 -30.5z" />
<glyph unicode="&#xe8;" horiz-adv-x="686" d="M-35 264q0 -53 15.5 -103t45 -89t73.5 -63.5t102 -24.5q41 0 79.5 11t77.5 25q31 12 76 32t68 46q16 16 28.5 45t12.5 52t-13.5 40t-35.5 17q-23 0 -46.5 -10.5t-44.5 -18.5q-29 -12 -70.5 -19t-74.5 -7q-41 0 -58.5 21.5t-17.5 62.5q0 8 2 31.5t6.5 49t10.5 46t16 22.5 q14 -10 24.5 -24.5t20.5 -29t23.5 -23.5t33.5 -9q35 0 79 15.5t87 39t82 51t64 52.5q47 47 74.5 110t27.5 129q0 43 -14 81t-41 68t-63.5 46t-82.5 16q-47 0 -93 -15t-90 -40t-83 -56.5t-69 -62.5q-47 -47 -89 -108.5t-74 -129t-50.5 -138t-18.5 -138.5zM254 524q0 6 9 22.5 t13 22.5q12 23 40 60t62 72.5t67.5 62.5t62.5 27q31 0 31 -31q0 -27 -10.5 -55.5t-28 -55t-38 -49t-40.5 -37.5q-25 -16 -70 -32.5t-76 -16.5q-4 0 -13 2t-9 8zM408 1284q0 -23 18 -37t35 -24q27 -16 54.5 -36t49.5 -40q10 -10 20.5 -18.5t20.5 -16.5q14 -10 27 -10 q31 0 31 31q0 18 -12.5 61t-31 88t-41 79t-42.5 34q-10 0 -32 -13.5t-43.5 -31t-37.5 -36t-16 -30.5z" />
<glyph unicode="&#xe9;" horiz-adv-x="686" d="M-35 264q0 -53 15.5 -103t45 -89t73.5 -63.5t102 -24.5q41 0 79.5 11t77.5 25q31 12 76 32t68 46q16 16 28.5 45t12.5 52t-13.5 40t-35.5 17q-23 0 -46.5 -10.5t-44.5 -18.5q-29 -12 -70.5 -19t-74.5 -7q-41 0 -58.5 21.5t-17.5 62.5q0 8 2 31.5t6.5 49t10.5 46t16 22.5 q14 -10 24.5 -24.5t20.5 -29t23.5 -23.5t33.5 -9q35 0 79 15.5t87 39t82 51t64 52.5q47 47 74.5 110t27.5 129q0 43 -14 81t-41 68t-63.5 46t-82.5 16q-47 0 -93 -15t-90 -40t-83 -56.5t-69 -62.5q-47 -47 -89 -108.5t-74 -129t-50.5 -138t-18.5 -138.5zM254 524q0 6 9 22.5 t13 22.5q12 23 40 60t62 72.5t67.5 62.5t62.5 27q31 0 31 -31q0 -27 -10.5 -55.5t-28 -55t-38 -49t-40.5 -37.5q-25 -16 -70 -32.5t-76 -16.5q-4 0 -13 2t-9 8zM535 1133q0 -31 28 -31q14 0 29 10q10 8 19.5 17.5t19.5 17.5q25 23 51.5 41t52.5 35q14 10 33.5 23.5 t19.5 33.5q0 25 -20 42t-37 30q-10 10 -31.5 26.5t-37.5 16.5q-23 0 -45.5 -34t-41 -79t-29.5 -88t-11 -61z" />
<glyph unicode="&#xea;" horiz-adv-x="686" d="M-35 264q0 -53 15.5 -103t45 -89t73.5 -63.5t102 -24.5q41 0 79.5 11t77.5 25q31 12 76 32t68 46q16 16 28.5 45t12.5 52t-13.5 40t-35.5 17q-23 0 -46.5 -10.5t-44.5 -18.5q-29 -12 -70.5 -19t-74.5 -7q-41 0 -58.5 21.5t-17.5 62.5q0 8 2 31.5t6.5 49t10.5 46t16 22.5 q14 -10 24.5 -24.5t20.5 -29t23.5 -23.5t33.5 -9q35 0 79 15.5t87 39t82 51t64 52.5q47 47 74.5 110t27.5 129q0 43 -14 81t-41 68t-63.5 46t-82.5 16q-47 0 -93 -15t-90 -40t-83 -56.5t-69 -62.5q-47 -47 -89 -108.5t-74 -129t-50.5 -138t-18.5 -138.5zM254 524q0 6 9 22.5 t13 22.5q12 23 40 60t62 72.5t67.5 62.5t62.5 27q31 0 31 -31q0 -27 -10.5 -55.5t-28 -55t-38 -49t-40.5 -37.5q-25 -16 -70 -32.5t-76 -16.5q-4 0 -13 2t-9 8zM371 1153q0 -16 17.5 -35.5t31.5 -19.5q8 0 29.5 20.5t46 46t50 46t42.5 20.5q14 0 30.5 -19.5t34 -44t33.5 -44 t29 -19.5q10 0 28.5 14.5t36 33.5t30.5 38t13 29q0 14 -22.5 43.5t-51 60.5t-57 53.5t-43.5 22.5q-18 0 -64 -32t-94.5 -74t-84 -82t-35.5 -58z" />
<glyph unicode="&#xeb;" horiz-adv-x="686" d="M-35 264q0 -53 15.5 -103t45 -89t73.5 -63.5t102 -24.5q41 0 79.5 11t77.5 25q31 12 76 32t68 46q16 16 28.5 45t12.5 52t-13.5 40t-35.5 17q-23 0 -46.5 -10.5t-44.5 -18.5q-29 -12 -70.5 -19t-74.5 -7q-41 0 -58.5 21.5t-17.5 62.5q0 8 2 31.5t6.5 49t10.5 46t16 22.5 q14 -10 24.5 -24.5t20.5 -29t23.5 -23.5t33.5 -9q35 0 79 15.5t87 39t82 51t64 52.5q47 47 74.5 110t27.5 129q0 43 -14 81t-41 68t-63.5 46t-82.5 16q-47 0 -93 -15t-90 -40t-83 -56.5t-69 -62.5q-47 -47 -89 -108.5t-74 -129t-50.5 -138t-18.5 -138.5zM254 524q0 6 9 22.5 t13 22.5q12 23 40 60t62 72.5t67.5 62.5t62.5 27q31 0 31 -31q0 -27 -10.5 -55.5t-28 -55t-38 -49t-40.5 -37.5q-25 -16 -70 -32.5t-76 -16.5q-4 0 -13 2t-9 8zM381 1217q0 -18 9 -39t24.5 -38.5t35 -28.5t37.5 -11q25 0 36.5 14t21.5 35q6 14 12 28.5t14.5 27t23.5 38 t15 41.5q0 14 -16 33.5t-37.5 37t-43 30t-30.5 12.5q-16 0 -33.5 -22.5t-33 -52.5t-25.5 -60.5t-10 -44.5zM666 1217q0 -18 9 -39t24.5 -38.5t35 -28.5t37.5 -11q23 0 34 14t21 35q6 12 16.5 30.5t22 38t19.5 38t8 28.5q0 23 -16.5 39t-32.5 27q-10 6 -36 26.5t-40 20.5 q-18 0 -35.5 -22.5t-33 -52.5t-24.5 -59.5t-9 -45.5z" />
<glyph unicode="&#xec;" horiz-adv-x="346" d="M-88 102q0 -23 9 -35t23.5 -18t32 -10t31.5 -10q16 -8 32.5 -26.5t33.5 -18.5q18 0 23 16t9 31q4 27 11.5 51t17.5 49l47 137q41 119 87 231.5t106 223.5q12 25 25.5 53.5t13.5 57.5q0 14 -5.5 26t-11.5 25q-16 29 -26.5 40t-40.5 21q-2 0 -17.5 5t-17.5 5 q-8 0 -17.5 -11t-18.5 -24.5t-17.5 -26.5t-10.5 -20q-16 -29 -45.5 -90t-65.5 -139t-73 -163t-66.5 -160.5t-49 -135t-19.5 -84.5zM240 1284q0 -23 16 -37t35 -24q27 -16 54.5 -36t49.5 -40q10 -10 20.5 -18.5t20.5 -16.5q14 -10 27 -10q31 0 31 31q0 18 -12.5 61t-31 88 t-41 79t-42.5 34q-10 0 -32 -12.5t-43.5 -31t-36.5 -37t-15 -30.5z" />
<glyph unicode="&#xed;" horiz-adv-x="346" d="M-88 102q0 -23 9 -35t23.5 -18t32 -10t31.5 -10q16 -8 32.5 -26.5t33.5 -18.5q18 0 23 16t9 31q4 27 11.5 51t17.5 49l47 137q41 119 87 231.5t106 223.5q12 25 25.5 53.5t13.5 57.5q0 14 -5.5 26t-11.5 25q-16 29 -26.5 40t-40.5 21q-2 0 -17.5 5t-17.5 5 q-8 0 -17.5 -11t-18.5 -24.5t-17.5 -26.5t-10.5 -20q-16 -29 -45.5 -90t-65.5 -139t-73 -163t-66.5 -160.5t-49 -135t-19.5 -84.5zM379 1133q0 -12 6 -21.5t21 -9.5q10 0 15 3t13 7q10 8 20.5 16.5t20.5 18.5q25 23 51.5 41t53.5 35q14 10 33.5 23.5t19.5 33.5 q0 23 -20.5 41t-37.5 31q-10 10 -31.5 26.5t-37.5 16.5q-23 0 -45.5 -34t-41 -78t-29.5 -88t-11 -62z" />
<glyph unicode="&#xee;" horiz-adv-x="346" d="M-88 102q0 -23 9 -35t23.5 -18t32 -10t31.5 -10q16 -8 32.5 -26.5t33.5 -18.5q18 0 23 16t9 31q4 27 11.5 51t17.5 49l47 137q41 119 87 231.5t106 223.5q12 25 25.5 53.5t13.5 57.5q0 14 -5.5 26t-11.5 25q-16 29 -26.5 40t-40.5 21q-2 0 -17.5 5t-17.5 5 q-8 0 -17.5 -11t-18.5 -24.5t-17.5 -26.5t-10.5 -20q-16 -29 -45.5 -90t-65.5 -139t-73 -163t-66.5 -160.5t-49 -135t-19.5 -84.5zM223 1153q0 -14 15.5 -34.5t29.5 -20.5q6 0 25.5 20.5t42 46t46.5 46t38 20.5q12 0 26.5 -19.5t31 -44t30.5 -44t27 -19.5q10 0 26.5 14.5 t31.5 33.5t26.5 38t11.5 27q0 14 -19.5 44.5t-45 61.5t-52.5 53.5t-41 22.5q-16 0 -57 -33t-84 -75t-76 -82t-33 -56z" />
<glyph unicode="&#xef;" horiz-adv-x="346" d="M-88 102q0 -23 9 -35t23.5 -18t32 -10t31.5 -10q16 -8 32.5 -26.5t33.5 -18.5q18 0 23 16t9 31q4 27 11.5 51t17.5 49l47 137q41 119 87 231.5t106 223.5q12 25 25.5 53.5t13.5 57.5q0 14 -5.5 26t-11.5 25q-16 29 -26.5 40t-40.5 21q-2 0 -17.5 5t-17.5 5 q-8 0 -17.5 -11t-18.5 -24.5t-17.5 -26.5t-10.5 -20q-16 -29 -45.5 -90t-65.5 -139t-73 -163t-66.5 -160.5t-49 -135t-19.5 -84.5zM238 1221q0 -16 8 -35t22.5 -35t31.5 -26.5t34 -10.5q23 0 32 13.5t17 31.5q6 12 15.5 29.5t19.5 34t17 32t7 25.5q0 12 -14 29.5t-33.5 34 t-38 27.5t-26.5 11q-16 0 -31.5 -19.5t-30 -46t-22.5 -54t-8 -41.5zM494 1221q0 -16 8 -35t22.5 -34t30.5 -26.5t33 -11.5q23 0 32 13.5t19 31.5q4 10 14.5 26.5t20.5 35t17 35t7 24.5q0 12 -14 29.5t-33.5 34t-38 27.5t-26.5 11q-16 0 -31.5 -19.5t-30 -46t-22.5 -54 t-8 -41.5z" />
<glyph unicode="&#xf1;" horiz-adv-x="739" d="M-88 135q0 -29 17.5 -49t39.5 -37q16 -12 44 -32.5t50 -20.5q29 0 41.5 24.5t18.5 47.5q18 68 43 137q20 55 40.5 110.5t41.5 110.5q14 37 26.5 74t26.5 73q16 41 44 75t69 54q16 10 45.5 24.5t50.5 14.5q10 0 16 -9t6 -19q0 -29 -15 -68t-25 -63q-8 -18 -23.5 -56.5 t-35 -86.5t-40 -102t-37 -103.5t-28 -90.5t-11.5 -63q0 -49 39 -83t86 -34q16 0 37 6t31 16.5t15 38t10 42.5q8 45 23 96t34.5 103t40 102.5t39.5 93.5q27 63 50 124.5t23 131.5q0 31 -10 69.5t-28.5 73.5t-47 59.5t-65.5 24.5q-29 0 -60.5 -13t-59.5 -29.5t-48 -30 t-27 -13.5q-6 0 -7 6t-1 10q0 12 2 25.5t2 26.5q0 20 -3 25t-23 16q-14 6 -45 21.5t-48 15.5q-20 0 -31.5 -17.5t-17.5 -34.5l-39 -116q-35 -104 -74.5 -205t-84.5 -199q-6 -14 -25.5 -54t-40 -86t-36 -90t-15.5 -67zM358 1180q0 -10 11.5 -14.5t19.5 -8.5q8 6 14.5 15.5 t14.5 18.5t20.5 15t32.5 6q23 0 45.5 -12t46 -25.5t50 -25.5t61.5 -12q72 0 113.5 37.5t74.5 95.5q4 6 12.5 25.5t8.5 25.5q0 8 -12.5 13t-18.5 7q-10 -6 -16.5 -16t-13.5 -19.5t-18 -15.5t-30 -6q-20 0 -41.5 12.5t-46 25.5t-55.5 25.5t-68 12.5q-63 0 -109 -35t-73 -90 q-4 -8 -13.5 -27.5t-9.5 -27.5z" />
<glyph unicode="&#xf2;" horiz-adv-x="749" d="M-35 283q0 -49 15.5 -104.5t46 -101.5t74.5 -76t102 -30q63 0 127.5 30t123 80t108.5 115.5t87 136t58.5 141.5t21.5 132q0 14 -2 33.5t-7 40t-12.5 38t-17.5 27.5q-16 14 -46 31t-50 27q-6 4 -12.5 6t-10.5 8t-4 21q0 18 -9 40.5t-17 39.5q-8 18 -21.5 43.5t-38.5 25.5 q-16 0 -33.5 -7t-35 -18.5t-32.5 -22.5t-28 -19q-35 -27 -70.5 -54.5t-68.5 -58.5q-51 -47 -96 -108.5t-79 -130t-53.5 -142.5t-19.5 -143zM178 225q0 53 16.5 112.5t43 118t60.5 110.5t71 91l21.5 21.5t33.5 31t34.5 28t24.5 12.5t14.5 -12.5t10.5 -29t5 -32t1 -21.5 q0 -98 -45 -200.5t-107 -175.5q-10 -12 -28.5 -32t-39 -38.5t-42 -31.5t-37.5 -13q-23 0 -30 22.5t-7 38.5zM440 1284q0 -23 17.5 -37t34.5 -24q25 -16 54 -36t52 -40q10 -10 19.5 -18.5t19.5 -16.5q14 -10 29 -10q28 0 28 31q0 18 -12 61t-30.5 88t-41 79t-43.5 34 q-10 0 -31.5 -13.5t-43 -31t-37 -36t-15.5 -30.5z" />
<glyph unicode="&#xf3;" horiz-adv-x="749" d="M-35 283q0 -49 15.5 -104.5t46 -101.5t74.5 -76t102 -30q63 0 127.5 30t123 80t108.5 115.5t87 136t58.5 141.5t21.5 132q0 14 -2 33.5t-7 40t-12.5 38t-17.5 27.5q-16 14 -46 31t-50 27q-6 4 -12.5 6t-10.5 8t-4 21q0 18 -9 40.5t-17 39.5q-8 18 -21.5 43.5t-38.5 25.5 q-16 0 -33.5 -7t-35 -18.5t-32.5 -22.5t-28 -19q-35 -27 -70.5 -54.5t-68.5 -58.5q-51 -47 -96 -108.5t-79 -130t-53.5 -142.5t-19.5 -143zM178 225q0 53 16.5 112.5t43 118t60.5 110.5t71 91l21.5 21.5t33.5 31t34.5 28t24.5 12.5t14.5 -12.5t10.5 -29t5 -32t1 -21.5 q0 -98 -45 -200.5t-107 -175.5q-10 -12 -28.5 -32t-39 -38.5t-42 -31.5t-37.5 -13q-23 0 -30 22.5t-7 38.5zM539 1133q0 -31 28 -31q14 0 29 10q10 8 19.5 16.5t19.5 18.5q23 20 52.5 39.5t53.5 36.5q14 10 33 23.5t19 33.5q0 25 -19.5 41t-36.5 31q-12 10 -33.5 26.5 t-37.5 16.5q-23 0 -45.5 -34t-41 -79t-29.5 -88t-11 -61z" />
<glyph unicode="&#xf4;" horiz-adv-x="749" d="M-35 283q0 -49 15.5 -104.5t46 -101.5t74.5 -76t102 -30q63 0 127.5 30t123 80t108.5 115.5t87 136t58.5 141.5t21.5 132q0 14 -2 33.5t-7 40t-12.5 38t-17.5 27.5q-16 14 -46 31t-50 27q-6 4 -12.5 6t-10.5 8t-4 21q0 18 -9 40.5t-17 39.5q-8 18 -21.5 43.5t-38.5 25.5 q-16 0 -33.5 -7t-35 -18.5t-32.5 -22.5t-28 -19q-35 -27 -70.5 -54.5t-68.5 -58.5q-51 -47 -96 -108.5t-79 -130t-53.5 -142.5t-19.5 -143zM178 225q0 53 16.5 112.5t43 118t60.5 110.5t71 91l21.5 21.5t33.5 31t34.5 28t24.5 12.5t14.5 -12.5t10.5 -29t5 -32t1 -21.5 q0 -98 -45 -200.5t-107 -175.5q-10 -12 -28.5 -32t-39 -38.5t-42 -31.5t-37.5 -13q-23 0 -30 22.5t-7 38.5zM360 1153q0 -14 18.5 -34.5t31.5 -20.5q8 0 29.5 20.5t47 46t51 46t42.5 20.5q12 0 29.5 -19.5t33.5 -44t33.5 -44t30.5 -19.5q10 0 28.5 14.5t35.5 32.5t29.5 38 t12.5 30q0 14 -21.5 43.5t-50 60.5t-58.5 53.5t-44 22.5q-18 0 -63.5 -32t-93.5 -74t-85 -83t-37 -57z" />
<glyph unicode="&#xf5;" horiz-adv-x="749" d="M-35 283q0 -49 15.5 -104.5t46 -101.5t74.5 -76t102 -30q63 0 127.5 30t123 80t108.5 115.5t87 136t58.5 141.5t21.5 132q0 14 -2 33.5t-7 40t-12.5 38t-17.5 27.5q-16 14 -46 31t-50 27q-6 4 -12.5 6t-10.5 8t-4 21q0 18 -9 40.5t-17 39.5q-8 18 -21.5 43.5t-38.5 25.5 q-16 0 -33.5 -7t-35 -18.5t-32.5 -22.5t-28 -19q-35 -27 -70.5 -54.5t-68.5 -58.5q-51 -47 -96 -108.5t-79 -130t-53.5 -142.5t-19.5 -143zM178 225q0 53 16.5 112.5t43 118t60.5 110.5t71 91l21.5 21.5t33.5 31t34.5 28t24.5 12.5t14.5 -12.5t10.5 -29t5 -32t1 -21.5 q0 -98 -45 -200.5t-107 -175.5q-10 -12 -28.5 -32t-39 -38.5t-42 -31.5t-37.5 -13q-23 0 -30 22.5t-7 38.5zM365 1180q0 -12 10 -15.5t20 -7.5q16 16 30.5 35.5t49.5 19.5q23 0 45.5 -12t46 -25.5t50 -25.5t61.5 -12q72 0 114 37.5t74 95.5q4 8 13.5 24.5t9.5 26.5 q0 8 -12.5 12t-18.5 8q-6 0 -11 -9t-13.5 -20.5t-21.5 -19.5t-34 -8q-20 0 -41.5 12.5t-46 25.5t-55.5 25.5t-68 12.5q-63 0 -108 -35t-72 -90q-4 -8 -13 -26.5t-9 -28.5z" />
<glyph unicode="&#xf6;" horiz-adv-x="749" d="M-35 283q0 -49 15.5 -104.5t46 -101.5t74.5 -76t102 -30q63 0 127.5 30t123 80t108.5 115.5t87 136t58.5 141.5t21.5 132q0 14 -2 33.5t-7 40t-12.5 38t-17.5 27.5q-16 14 -46 31t-50 27q-6 4 -12.5 6t-10.5 8t-4 21q0 18 -9 40.5t-17 39.5q-8 18 -21.5 43.5t-38.5 25.5 q-16 0 -33.5 -7t-35 -18.5t-32.5 -22.5t-28 -19q-35 -27 -70.5 -54.5t-68.5 -58.5q-51 -47 -96 -108.5t-79 -130t-53.5 -142.5t-19.5 -143zM178 225q0 53 16.5 112.5t43 118t60.5 110.5t71 91l21.5 21.5t33.5 31t34.5 28t24.5 12.5t14.5 -12.5t10.5 -29t5 -32t1 -21.5 q0 -98 -45 -200.5t-107 -175.5q-10 -12 -28.5 -32t-39 -38.5t-42 -31.5t-37.5 -13q-23 0 -30 22.5t-7 38.5zM373 1217q0 -18 9 -39t24.5 -38.5t35 -28.5t37.5 -11q23 0 34 14t22 35q6 12 16 30.5t21.5 38t19.5 38t8 28.5q0 23 -16.5 39t-32.5 27q-10 6 -36 26.5t-40 20.5 q-18 0 -35.5 -22.5t-33 -52.5t-24.5 -59.5t-9 -45.5zM657 1217q0 -18 9.5 -39t25 -38.5t33.5 -28.5t37 -11q25 0 36 14t21 35q4 10 15.5 29.5t22.5 40t19.5 39t8.5 26.5q0 14 -16.5 33.5t-38 37t-43 30t-29.5 12.5q-16 0 -33.5 -22.5t-33 -52.5t-25 -59.5t-9.5 -45.5z" />
<glyph unicode="&#xf8;" horiz-adv-x="780" d="M-96 74q0 -14 6 -31.5t14 -30.5q12 -8 19 -8q8 0 25.5 11.5t33.5 26.5t30.5 29.5l20.5 20.5q29 -49 78 -85t109 -36q94 0 188 64.5t169 160t121 205t46 201.5q0 31 -5 60.5t-18 58.5q6 6 21.5 18.5t31 27.5t28 30.5t12.5 23.5q0 12 -11.5 35t-25.5 23q-10 0 -18.5 -6.5 t-15.5 -14.5t-15 -14l-74 -66q-10 6 -37 20.5t-31 18.5q-2 2 -2 10v11q-2 18 -10 40.5t-16 39.5q-8 18 -21.5 43.5t-38.5 25.5q-14 0 -31.5 -7t-36 -18.5t-34 -22.5t-27.5 -19q-35 -27 -70.5 -54.5t-68.5 -58.5q-51 -49 -96 -110.5t-79 -129t-53.5 -140.5t-19.5 -144 q0 -47 12 -97q-6 -4 -23.5 -18t-37 -31.5t-34.5 -35t-15 -27.5zM215 225v15l317 290q-16 -66 -52 -132t-81 -119q-10 -10 -27.5 -30t-39 -38t-43 -32.5t-37.5 -14.5q-23 0 -30 22.5t-7 38.5zM250 399q27 70 64.5 137.5t91.5 120.5q6 6 21 21.5t33.5 31t35 28t24.5 12.5 t14.5 -9.5t9.5 -21.5t4 -24.5t1 -18.5v-8z" />
<glyph unicode="&#xf9;" horiz-adv-x="755" d="M-47 223q0 -37 13.5 -77t37 -73.5t56 -55t73.5 -21.5q43 0 85 19.5t77 41.5q12 8 25.5 15.5t23.5 17.5l10 4q10 -2 11.5 -15t2.5 -30.5t10 -36t34 -30.5q20 -10 58 -23.5t60 -13.5q23 0 30 12t7 35q0 45 6.5 91t12.5 91q10 74 31.5 141.5t52.5 135.5q2 6 15 33.5 t31.5 66.5t38 83t36 84t27.5 70.5t11 40.5q0 14 -13 34t-32.5 38.5t-40 30.5t-32.5 12q-23 0 -35 -19.5t-21 -35.5q-59 -115 -113.5 -229.5t-107.5 -233.5q-10 -23 -20.5 -47.5t-16.5 -48.5q-4 -16 -9 -28.5t-19 -22.5q-10 -6 -28.5 -18.5t-38 -24t-39 -20.5t-30.5 -9 q-20 0 -30 14.5t-10 32.5q0 41 25.5 112.5t59 149.5t69.5 148.5t59 107.5q10 16 21 33.5t19 34.5q2 4 6.5 16t4.5 16q0 18 -13 29q-23 16 -56.5 42t-61.5 26q-18 0 -35 -9.5t-29 -21.5q-14 -16 -33.5 -49t-38 -72t-36 -74.5t-25.5 -54.5q-16 -35 -46 -97.5t-58.5 -132 t-50 -134t-21.5 -101.5zM416 1284q0 -23 18.5 -37t34.5 -24q27 -16 54.5 -35t49.5 -41q10 -10 19.5 -18.5t19.5 -16.5q14 -10 29 -10q29 0 29 31q0 18 -12.5 61t-31 88t-41 79t-42.5 34q-10 0 -30.5 -13.5t-42 -32t-38 -37t-16.5 -28.5z" />
<glyph unicode="&#xfa;" horiz-adv-x="755" d="M-47 223q0 -37 13.5 -77t37 -73.5t56 -55t73.5 -21.5q43 0 85 19.5t77 41.5q12 8 25.5 15.5t23.5 17.5l10 4q10 -2 11.5 -15t2.5 -30.5t10 -36t34 -30.5q20 -10 58 -23.5t60 -13.5q23 0 30 12t7 35q0 45 6.5 91t12.5 91q10 74 31.5 141.5t52.5 135.5q2 6 15 33.5 t31.5 66.5t38 83t36 84t27.5 70.5t11 40.5q0 14 -13 34t-32.5 38.5t-40 30.5t-32.5 12q-23 0 -35 -19.5t-21 -35.5q-59 -115 -113.5 -229.5t-107.5 -233.5q-10 -23 -20.5 -47.5t-16.5 -48.5q-4 -16 -9 -28.5t-19 -22.5q-10 -6 -28.5 -18.5t-38 -24t-39 -20.5t-30.5 -9 q-20 0 -30 14.5t-10 32.5q0 41 25.5 112.5t59 149.5t69.5 148.5t59 107.5q10 16 21 33.5t19 34.5q2 4 6.5 16t4.5 16q0 18 -13 29q-23 16 -56.5 42t-61.5 26q-18 0 -35 -9.5t-29 -21.5q-14 -16 -33.5 -49t-38 -72t-36 -74.5t-25.5 -54.5q-16 -35 -46 -97.5t-58.5 -132 t-50 -134t-21.5 -101.5zM569 1133q0 -31 29 -31q14 0 29 10q10 8 19 17.5t20 17.5q25 23 51 41t53 35q14 10 33.5 23.5t19.5 33.5q0 25 -20.5 42t-36.5 30q-10 10 -31.5 26.5t-38.5 16.5q-23 0 -45 -34t-40.5 -79t-30 -88t-11.5 -61z" />
<glyph unicode="&#xfb;" horiz-adv-x="755" d="M-47 223q0 -37 13.5 -77t37 -73.5t56 -55t73.5 -21.5q43 0 85 19.5t77 41.5q12 8 25.5 15.5t23.5 17.5l10 4q10 -2 11.5 -15t2.5 -30.5t10 -36t34 -30.5q20 -10 58 -23.5t60 -13.5q23 0 30 12t7 35q0 45 6.5 91t12.5 91q10 74 31.5 141.5t52.5 135.5q2 6 15 33.5 t31.5 66.5t38 83t36 84t27.5 70.5t11 40.5q0 14 -13 34t-32.5 38.5t-40 30.5t-32.5 12q-23 0 -35 -19.5t-21 -35.5q-59 -115 -113.5 -229.5t-107.5 -233.5q-10 -23 -20.5 -47.5t-16.5 -48.5q-4 -16 -9 -28.5t-19 -22.5q-10 -6 -28.5 -18.5t-38 -24t-39 -20.5t-30.5 -9 q-20 0 -30 14.5t-10 32.5q0 41 25.5 112.5t59 149.5t69.5 148.5t59 107.5q10 16 21 33.5t19 34.5q2 4 6.5 16t4.5 16q0 18 -13 29q-23 16 -56.5 42t-61.5 26q-18 0 -35 -9.5t-29 -21.5q-14 -16 -33.5 -49t-38 -72t-36 -74.5t-25.5 -54.5q-16 -35 -46 -97.5t-58.5 -132 t-50 -134t-21.5 -101.5zM406 1153q0 -16 17 -35.5t32 -19.5q8 0 29.5 20.5t46 46t50 46t42.5 20.5q14 0 30.5 -19.5t34 -44t33.5 -44t29 -19.5q10 0 28.5 14.5t35.5 33.5t30.5 38t13.5 29q0 14 -22.5 43.5t-51 60.5t-57.5 53.5t-43 22.5q-18 0 -64.5 -32t-94.5 -74 t-83.5 -82t-35.5 -58z" />
<glyph unicode="&#xfc;" horiz-adv-x="755" d="M-47 223q0 -37 13.5 -77t37 -73.5t56 -55t73.5 -21.5q43 0 85 19.5t77 41.5q12 8 25.5 15.5t23.5 17.5l10 4q10 -2 11.5 -15t2.5 -30.5t10 -36t34 -30.5q20 -10 58 -23.5t60 -13.5q23 0 30 12t7 35q0 45 6.5 91t12.5 91q10 74 31.5 141.5t52.5 135.5q2 6 15 33.5 t31.5 66.5t38 83t36 84t27.5 70.5t11 40.5q0 14 -13 34t-32.5 38.5t-40 30.5t-32.5 12q-23 0 -35 -19.5t-21 -35.5q-59 -115 -113.5 -229.5t-107.5 -233.5q-10 -23 -20.5 -47.5t-16.5 -48.5q-4 -16 -9 -28.5t-19 -22.5q-10 -6 -28.5 -18.5t-38 -24t-39 -20.5t-30.5 -9 q-20 0 -30 14.5t-10 32.5q0 41 25.5 112.5t59 149.5t69.5 148.5t59 107.5q10 16 21 33.5t19 34.5q2 4 6.5 16t4.5 16q0 18 -13 29q-23 16 -56.5 42t-61.5 26q-18 0 -35 -9.5t-29 -21.5q-14 -16 -33.5 -49t-38 -72t-36 -74.5t-25.5 -54.5q-16 -35 -46 -97.5t-58.5 -132 t-50 -134t-21.5 -101.5zM389 1217q0 -18 9.5 -39t24.5 -38.5t34.5 -28.5t38.5 -11q23 0 34 14t21 35q6 12 16.5 30.5t21.5 38t19 38t8 28.5q0 23 -16 39t-33 27q-10 6 -35.5 26.5t-39.5 20.5q-18 0 -36 -22.5t-33 -52.5t-24.5 -59.5t-9.5 -45.5zM674 1217q0 -18 9 -39 t24.5 -38.5t35 -28.5t37.5 -11q23 0 34 15t22 34q6 12 16 30.5t21.5 38t19.5 38t8 28.5q0 23 -17.5 39t-33.5 27q-12 10 -35.5 28.5t-40.5 18.5q-16 0 -33.5 -22.5t-33 -52.5t-24.5 -59.5t-9 -45.5z" />
<glyph unicode="&#xff;" horiz-adv-x="677" d="M-225 -281q0 -16 10 -43.5t26.5 -53t36 -44t37.5 -18.5q10 0 26.5 9t32 22.5t30 26.5t22.5 20q104 94 193.5 195t170.5 214q49 68 108.5 158t117 188.5t105.5 194.5t73 174q10 30 10 57q0 14 -9 39t-23.5 47.5t-32 39t-33.5 16.5q-23 0 -29 -14.5t-12 -31.5 q-10 -29 -25.5 -56.5t-29.5 -53.5l-115 -227q-41 -80 -87 -157t-93 -153q-4 -4 -17.5 -25.5t-19.5 -21.5q-8 0 -9 17.5t-1 19.5q0 4 1 5t1 5q2 49 5 92t8 84t12 84t16 93q12 76 30 153q4 10 6 21.5t2 21.5q0 35 -23.5 64.5t-51.5 46.5q-12 6 -39 17t-39 11 q-18 0 -31.5 -27.5t-23 -63.5t-13.5 -69.5t-6 -45.5q-20 -123 -36.5 -262.5t-16.5 -262.5q0 -55 17.5 -78.5t64.5 -46.5q4 -2 10 -6t6 -8q0 -6 -12 -23.5t-27.5 -37t-30 -36t-20.5 -22.5q-51 -53 -103.5 -100t-115.5 -86q-16 -10 -34.5 -24.5t-18.5 -37.5zM268 1217 q0 -18 9.5 -39t24.5 -38.5t34.5 -28.5t38.5 -11q25 0 36 14t21 35q6 14 12.5 28.5t14.5 27t23.5 38t15.5 41.5q0 14 -16.5 33.5t-38 37t-43 30t-29.5 12.5q-16 0 -34 -22.5t-33 -52.5t-25.5 -60.5t-10.5 -44.5zM553 1217q0 -18 9 -39t24.5 -38.5t35 -28.5t37.5 -11 q23 0 34.5 14t21.5 35q6 12 16 30.5t21.5 38t19.5 38t8 28.5q0 23 -16 39t-33 27q-10 6 -35.5 26.5t-40.5 20.5q-18 0 -35.5 -22.5t-33 -52.5t-24.5 -59.5t-9 -45.5z" />
<glyph unicode="&#x152;" horiz-adv-x="1265" d="M27 344q0 -55 18 -118.5t53 -118t85 -89t116 -34.5q59 0 119.5 31.5t107.5 64.5q29 -41 63 -53.5t81 -12.5q86 0 177 16.5t173 39.5q59 16 102 51t43 102q0 23 -20.5 44.5t-42.5 21.5q-10 0 -21.5 -2t-21.5 -6q-31 -8 -67 -18.5t-72.5 -18.5t-73.5 -13.5t-68 -5.5 q-27 0 -26 21q0 16 5 31.5t9 31.5q16 68 45 132.5t57 129.5q2 4 3 7.5t3.5 7.5t6.5 10t8 6q18 0 37.5 -3t38.5 -3q39 0 77.5 5t77.5 9q49 6 80 19.5t31 70.5t-25.5 86t-85.5 29q-29 0 -59.5 -2t-59.5 -2h-12q-4 0 -4 10q0 8 9.5 33t21.5 52.5t23.5 51t15.5 33.5l41 86 q12 25 23 38t24.5 18.5t32 6.5t45.5 3q35 2 69.5 4t69.5 2q16 0 31.5 -3t31.5 -3q10 0 19.5 5t9.5 17q0 16 -11 45t-18 45q-8 16 -25.5 47t-33.5 41q-6 4 -23.5 6.5t-38 4.5t-38.5 2h-25q-29 0 -87 -5t-120.5 -13.5t-117 -20.5t-74.5 -27q-8 0 -18.5 -6t-23 -12t-23.5 -12.5 t-19 -6.5q-10 0 -26.5 19.5t-35 44t-39 44t-41.5 19.5q-23 0 -49 -18.5t-43 -34.5q-80 -72 -158.5 -161t-134.5 -181q-39 -63 -74.5 -143t-64.5 -166t-46 -172t-17 -160zM260 303q0 76 18.5 157t47 158.5t66.5 151.5t79 137q8 12 30.5 46t49.5 69t52.5 62.5t41.5 27.5 q18 0 30.5 -16.5t19.5 -38t11.5 -45t4.5 -35.5q0 -80 -27 -176t-70 -191.5t-95 -181.5t-101 -147q-8 -10 -21.5 -24.5t-29 -27t-32 -21.5t-30.5 -9q-16 0 -25.5 12t-13.5 28.5t-5 35t-1 28.5z" />
<glyph unicode="&#x153;" horiz-adv-x="1183" d="M-6 283q0 -49 15.5 -104.5t45 -101.5t73.5 -76t101 -30q35 0 74 11.5t77 31t70.5 44t57.5 48.5q33 -51 83 -80.5t109 -29.5q39 0 80 12t76 27q35 12 77 31.5t66 46.5q16 16 29.5 44.5t13.5 51.5t-13 40t-36 17q-16 0 -45.5 -11t-46.5 -17q-29 -10 -71 -19.5t-72 -9.5 q-78 0 -78 84q0 14 2 35.5t6 44t10.5 42t16.5 29.5q6 0 16 -14t22.5 -30.5t29 -30t34.5 -13.5q35 0 79 15.5t88 40t83 52.5t63 52q47 47 74 109.5t27 128.5q0 88 -55.5 149.5t-145.5 61.5q-45 0 -94 -16.5t-96 -43t-89 -60.5t-71 -67q-2 -2 -2 -4l-2 -2q-4 2 -15.5 8 t-25.5 14.5t-25.5 14.5t-11.5 8q-2 2 -3 10.5t-1 10.5q-2 14 -9 38.5t-18.5 49t-26 43t-30.5 18.5q-33 0 -70 -24.5t-61 -42.5q-35 -27 -70 -54.5t-67 -58.5q-51 -47 -96.5 -108.5t-79 -130t-53 -142.5t-19.5 -143zM205 225q0 53 16.5 113.5t44 118t61 109.5t70.5 91 l21.5 21.5t33 31t34 28t24.5 12.5q10 0 16 -12.5t9.5 -29t4.5 -32t1 -21.5q0 -111 -39 -200.5t-111 -175.5q-10 -12 -27.5 -32t-39 -38.5t-43 -31.5t-37.5 -13q-23 0 -31 22.5t-8 38.5zM754 539q0 4 9 22.5t13 22.5q31 59 77 110t101 88q10 6 25.5 14.5t28.5 8.5 q30 0 30 -31q0 -27 -11 -55.5t-27.5 -55t-38 -49t-41.5 -36.5q-27 -16 -70 -33t-76 -17q-4 0 -12 2t-8 9z" />
<glyph unicode="&#x178;" horiz-adv-x="780" d="M-27 129q0 -18 17.5 -46t41 -53.5t48 -44t41.5 -18.5q23 0 40 16.5t32 32.5q41 47 80.5 95.5t80.5 95.5q88 104 170 210.5t164 215.5q78 104 152.5 210.5t140.5 219.5q23 37 47.5 87t24.5 95q0 25 -10.5 51.5t-28 48t-41 35t-49.5 13.5q-20 0 -33.5 -25t-22.5 -41 q-41 -84 -90 -164t-98 -157q-25 -41 -51.5 -81t-55.5 -79q-4 -4 -15 -19.5t-25.5 -33t-26.5 -31.5t-17 -14q-6 0 -9 16t-3 20q-4 29 -6 58.5t-2 58.5q0 76 8 154t25 151q2 10 4 18.5t2 18.5q0 20 -21.5 45t-51 46.5t-59.5 35.5t-48 14q-27 0 -34 -10t-13 -33 q-10 -43 -17.5 -101t-11.5 -119.5t-6 -120t-2 -103.5q0 -57 1 -119.5t15 -120.5q4 -23 18.5 -46t36.5 -29q4 -2 17.5 -4.5t13.5 -10.5t-19.5 -32.5t-49 -58.5t-64.5 -72.5t-67.5 -73.5t-58.5 -61.5t-36 -35.5q-8 -8 -21.5 -20t-25.5 -26.5t-21.5 -30t-9.5 -27.5zM489 1597 q0 -18 9.5 -38.5t25 -38t35 -28.5t37.5 -11q25 0 36 15t21 36q4 10 15.5 29.5t22.5 40t19.5 39t8.5 24.5q0 14 -16.5 33.5t-38 37t-43 30t-29.5 12.5q-16 0 -33.5 -22.5t-33 -52.5t-26 -60.5t-10.5 -45.5zM774 1597q0 -18 9.5 -38.5t24.5 -38t34.5 -28.5t38.5 -11 q25 0 35 15t20 36q6 12 16.5 30.5t21.5 37t19 36t8 29.5q0 23 -16 39t-33 27q-10 8 -35.5 27.5t-39.5 19.5q-18 0 -36 -22.5t-33 -52.5t-24.5 -59.5t-9.5 -46.5z" />
<glyph unicode="&#x2000;" horiz-adv-x="899" />
<glyph unicode="&#x2001;" horiz-adv-x="1798" />
<glyph unicode="&#x2002;" horiz-adv-x="899" />
<glyph unicode="&#x2003;" horiz-adv-x="1798" />
<glyph unicode="&#x2004;" horiz-adv-x="599" />
<glyph unicode="&#x2005;" horiz-adv-x="449" />
<glyph unicode="&#x2006;" horiz-adv-x="299" />
<glyph unicode="&#x2007;" horiz-adv-x="299" />
<glyph unicode="&#x2008;" horiz-adv-x="224" />
<glyph unicode="&#x2009;" horiz-adv-x="359" />
<glyph unicode="&#x200a;" horiz-adv-x="99" />
<glyph unicode="&#x2010;" horiz-adv-x="454" d="M-4 473q0 -14 12 -14h23h368q31 0 36 10t18 39q2 6 11 23.5t18.5 38t17.5 40t8 29.5q0 6 -11.5 9t-25.5 4t-27 1h-14h-332q-25 0 -32 -16t-17 -37l-33 -74q-4 -6 -12 -25.5t-8 -27.5z" />
<glyph unicode="&#x2011;" horiz-adv-x="454" d="M-4 473q0 -14 12 -14h23h368q31 0 36 10t18 39q2 6 11 23.5t18.5 38t17.5 40t8 29.5q0 6 -11.5 9t-25.5 4t-27 1h-14h-332q-25 0 -32 -16t-17 -37l-33 -74q-4 -6 -12 -25.5t-8 -27.5z" />
<glyph unicode="&#x2012;" horiz-adv-x="454" d="M-4 473q0 -14 12 -14h23h368q31 0 36 10t18 39q2 6 11 23.5t18.5 38t17.5 40t8 29.5q0 6 -11.5 9t-25.5 4t-27 1h-14h-332q-25 0 -32 -16t-17 -37l-33 -74q-4 -6 -12 -25.5t-8 -27.5z" />
<glyph unicode="&#x2013;" horiz-adv-x="966" d="M-4 473q0 -14 24 -14h46h736q62 0 72 10t36 39q4 6 22 23.5t37 38t35 40t16 29.5q0 6 -23 9t-51 4t-54 1h-28h-664q-50 0 -64 -16t-34 -37l-66 -74q-8 -6 -24 -25.5t-16 -27.5z" />
<glyph unicode="&#x2014;" horiz-adv-x="1042" d="M-4 473q0 -14 12 -14h23h954q31 0 36 10t19 39l41 92q4 6 9.5 19.5t5.5 19.5t-11.5 9t-26 4t-26.5 1h-14h-920q-25 0 -32 -16t-17 -37l-33 -74q-4 -6 -12 -25.5t-8 -27.5z" />
<glyph unicode="&#x2019;" horiz-adv-x="344" d="M301 1194q0 -27 10.5 -42t22.5 -26.5t22.5 -19.5t10.5 -21q0 -10 -7.5 -24t-15.5 -27.5t-15 -26t-7 -16.5q0 -16 18 -16q43 0 85 29.5t76 73.5t54 93.5t20 90.5q0 33 -20 48t-47 29l-51 25.5t-54 15.5q-29 0 -42 -20.5t-23 -42.5q-12 -27 -24.5 -60.5t-12.5 -62.5z" />
<glyph unicode="&#x201c;" horiz-adv-x="700" d="M260 1094q0 -33 20.5 -48.5t47.5 -29.5l51 -25.5t53 -15.5q29 0 42 20.5t24 42.5q12 27 24.5 60.5t12.5 62.5q0 27 -10.5 42.5t-23 26.5t-22.5 19t-10 21q0 10 7 24.5t15.5 28.5t15.5 25.5t7 15.5q0 16 -20 16q-41 0 -83 -29.5t-76 -73.5t-54.5 -94t-20.5 -89zM616 1094 q0 -33 21.5 -48.5t46.5 -29.5l51 -25.5t53 -15.5q29 0 43.5 20.5t24.5 42.5q12 27 24.5 60.5t12.5 62.5t-10.5 45.5t-23.5 25.5t-23.5 17t-10.5 21q0 10 7.5 25.5t16.5 29.5t16 25.5t7 13.5q0 16 -20 16q-25 0 -51.5 -12t-50 -31.5t-44 -42t-32.5 -41.5q-23 -33 -40.5 -76.5 t-17.5 -82.5z" />
<glyph unicode="&#x201d;" horiz-adv-x="702" d="M301 1194q0 -27 10.5 -42t22.5 -26.5t22.5 -19.5t10.5 -21q0 -10 -7.5 -24t-15.5 -27.5t-15 -26t-7 -16.5q0 -16 18 -16q43 0 85 29.5t76 73.5t54 93.5t20 90.5q0 33 -20 48t-47 29l-51 25.5t-54 15.5q-29 0 -42 -20.5t-23 -42.5q-12 -27 -24.5 -60.5t-12.5 -62.5z M659 1194q0 -29 10.5 -45t24 -25.5t23.5 -17.5t10 -21q0 -10 -7 -25.5t-16.5 -29.5t-16.5 -25.5t-7 -13.5q0 -16 20 -16q25 0 51.5 12t50 31.5t44 42t33.5 41.5q23 33 40 77t17 83q0 33 -21.5 48t-46.5 29q-23 12 -52.5 26.5t-53.5 14.5q-29 0 -42 -20.5t-24 -42.5 q-12 -27 -24.5 -60.5t-12.5 -62.5z" />
<glyph unicode="&#x201e;" horiz-adv-x="714" d="M-68 129q0 -27 10.5 -42t22.5 -26.5t22.5 -19.5t10.5 -21q0 -10 -7 -24t-15.5 -28.5t-15.5 -26t-7 -15.5q0 -16 18 -16q25 0 51.5 12t50 31.5t44 42t33.5 41.5q23 33 40 77t17 83q0 33 -21.5 48t-46.5 29l-51 25.5t-53 15.5q-23 0 -41.5 -21.5t-32.5 -52t-21.5 -62.5 t-7.5 -50zM289 129q0 -29 10 -44t22.5 -24.5t22.5 -17.5t10 -23q0 -12 -7 -26t-15 -27.5t-15.5 -25t-7.5 -15.5q0 -16 21 -16q25 0 51.5 12t50 31.5t44 42t32.5 41.5q23 33 40 77t17 83q0 33 -21.5 48t-45.5 29q-23 12 -52.5 26.5t-54.5 14.5q-29 0 -42 -20.5t-23 -42.5 q-10 -27 -23.5 -60.5t-13.5 -62.5z" />
<glyph unicode="&#x2022;" horiz-adv-x="1366" d="M401 696q0 -59 21.5 -110t60.5 -91t90.5 -62.5t110.5 -22.5q57 0 108.5 23.5t90.5 62.5t60.5 91t21.5 109t-21.5 109.5t-60.5 91.5t-90.5 62.5t-108.5 23.5q-59 0 -110.5 -22.5t-90.5 -62.5t-60.5 -92t-21.5 -110z" />
<glyph unicode="&#x202f;" horiz-adv-x="359" />
<glyph unicode="&#x205f;" horiz-adv-x="449" />
<glyph unicode="&#x25fc;" horiz-adv-x="972" d="M0 0v973h973v-973h-973z" />
</font>
</defs>
</svg>
