<?xml version="1.0" encoding="utf-8"?>
<!-- Generator: Adobe Illustrator 18.1.1, SVG Export Plug-In . SVG Version: 6.00 Build 0)  -->
<svg version="1.1" id="Layer_1" xmlns="http://www.w3.org/2000/svg" xmlns:xlink="http://www.w3.org/1999/xlink" x="0px" y="0px"
	 viewBox="0 0 195 293" enable-background="new 0 0 195 293" xml:space="preserve">
<g>
	<rect fill="#3F5275" width="195" height="293"/>
	<g>
		<path d="M90.4,46c-1,0,1.7-5.5,1.6-8.1c-0.1-2.5-0.3-17.3,14.6-16.7c14.9,0.6,14.2,10.2,14.2,10.2s0.1,15.8,0.9,16.3
			c0.8,0.5-0.4,0.1-0.4,0.1l-11.7,0.5C109.7,48.3,91.9,46,90.4,46z"/>
		<path fill="#FFCC99" d="M108.3,61.1l0.1-11.9c1.5,0.7,2.7,1.3,3.3,1.7c2,1.4,2.8-0.4,2.8-1.2c0-0.8,5-6.5,5-6.5l-0.2-12.3
			c-0.6-2.4-17.3-2.4-17.3-2.4s-2.2,11.9-2.2,14.7c0,1.4,2.4,2.9,5.1,4.3l-0.9,13.8l-3.2,0.8l0.9,6.4l12.9,1.5l1.9-3.8l-3.1-5
			L108.3,61.1z"/>
		<polygon fill="#FFCC99" points="66.8,93 87.2,74.7 84.9,72.8 64.1,93 63.3,93.9 97.2,109 98.8,108 		"/>
		<polygon fill="#FFCC99" points="122.8,81.1 129,94.3 117.7,105.2 118.9,106.4 130.7,95.2 125.1,77.8 		"/>
		<polygon fill="#F85F81" points="94.7,62.8 87.3,64.6 81.5,72.1 84.2,72.8 88.5,76.6 92.1,72.5 95.3,71.1 		"/>
		<path fill="#F85F81" d="M113.4,61.2c0,0,5.7-1.4,7,0.5c1.2,1.8,3.8,8.9,3.8,8.9l-1.5,1.5L113.4,61.2z"/>
		<path fill="#F74650" d="M117.5,103.6l1.4-17.5l8.3-8.6l-4.5-5.4l-9.2-10.9c0,0,3,5.9-2.1,7c-5.1,1.1-10.4-6-10.4-6l-6.2,0.8
			l-0.3,9.5l8.3,32.3c-9.5,0.2-9.5,15.2-9.5,15.2L92.6,183h32.1c0,0-3-62.3-3.4-69.4C120.8,107.2,118,104.1,117.5,103.6z"/>
		<polygon fill="#FFCC99" points="92.7,183.1 93.2,269 95.6,269 98,183.1 		"/>
		<polygon fill="#F85F81" points="93.2,269 95.6,269 95.9,270.5 86.7,272.4 		"/>
		<polygon fill="#FFCC99" points="124.7,183.1 124.2,269 121.7,269 119.3,183.1 		"/>
		<polygon fill="#F85F81" points="124.2,269 121.7,269 121.4,270.5 130.7,272.4 		"/>
		<path d="M119.9,29.2c-1.7-0.9-11.1-5.9-15.8-0.6c-7.3-2.1-3.7,6.1-3.7,6.1c3-0.2,3.8-4.6,4-5.8c1.9,0.7,9.1,3.5,11.4,3.3
			c2.7-0.2,3.9,3.5,3.9,3.5S121.6,30.1,119.9,29.2z"/>
	</g>
</g>
</svg>
