<?xml version="1.0" encoding="utf-8"?>
<!-- Generator: Adobe Illustrator 18.1.1, SVG Export Plug-In . SVG Version: 6.00 Build 0)  -->
<svg version="1.1" id="Layer_1" xmlns="http://www.w3.org/2000/svg" xmlns:xlink="http://www.w3.org/1999/xlink" x="0px" y="0px"
	 viewBox="0 0 195 293" enable-background="new 0 0 195 293" xml:space="preserve">
<g>
	<rect fill="#6D0D70" width="195" height="293"/>
	<g>
		<path fill="#FFCC99" d="M148.9,158c0,0,2.5,1.4,3.6,1.4s6.3,1.8,6.4,4c0.2,2.2,1.3,6.2,0.5,6.4c-0.8,0.2-2.3,0.2-2.3,0.2l-3.1,3.4
			c0,0-6.9,0.4-7-0.7c-0.2-1.1-0.4-1.9,0.6-1.9c1,0,2,0.1,2,0.1l-2.6-4.2c0,0-4-3-4.1-5.2L148.9,158z"/>
		<g>
			<path fill="#FFCC99" d="M54.3,102.5c0,0-4.2-4.6-4.2-7.4s-9.2-9.4-9.2-9.4s-2.7-1.4-2.8-0.5c-0.1,0.9,4,4.4,4,4.4s-5.3-3-6.1-3
				c-0.8-0.1-1.5,0.7-0.4,1.5c0.6,0.4,3,3,2.6,3.7c-0.4,0.7-0.4,0.7-0.4,0.7s-1.5,0.6-1.5,1.5L35.9,96c0,0-1.5-0.6-1.5,0.9
				s0.8,4.6,0.8,4.6s0.7,1.2,1.1,0.9c0.4-0.2,0.8-2.1,0.7-3.6c0,0,0.7,2,1.5,1.9c0.8-0.1,1.3-2.2,1.3-2.2s1.6,1.3,2.1,1.2
				c0,0,0.2,5.6,1.5,6.2c1.3,0.6,7.4,3.3,7.4,3.3L54.3,102.5z"/>
			<polygon points="36.3,91.4 43.7,81.7 42.3,80.3 34.8,90.2 			"/>
			<path fill="#FFCC99" d="M42,89.8c0,0-4.1-3.5-4-4.4c0.1-0.9,2.8,0.5,2.8,0.5s1.4,1,3.2,2.4L42,89.8z"/>
		</g>
		<rect x="98.4" y="61" fill="#FFCC99" width="13.2" height="11.4"/>
		<polygon points="126.7,125.5 140.2,164.6 152.1,158.2 138.7,129.2 134.1,82 138,73.3 135.5,74.6 120.3,74 114.9,70 103.5,70 
			92.9,70 87.5,74 72.3,74.6 69.8,73.3 68.6,125 54.2,95.2 44.6,110 71.4,143.3 74.7,132.6 78.1,92 85.9,127.1 74.8,161.7 
			104.4,135 132.6,161.7 121.7,127.1 125,112.3 		"/>
		<polygon fill="#FFFFFF" points="111.1,61.5 104.7,76.1 104.8,77 104.2,77 104.2,76.1 97.9,61.6 90.7,67.1 94.7,72.2 103,123.5 
			103,123.1 103,125 106,125 106,123.1 106,123.6 114.2,72.2 118.2,67 		"/>
		<path fill="#FFCC33" d="M117.9,83.5l-3.4-14.4l-8.9,6.7c-0.3-0.5-0.8-0.9-1.5-0.9s-1.2,0.4-1.5,0.9l-8.9-6.7l-3.4,14.4l12.4-6.2
			c0.3,0.5,0.8,0.8,1.4,0.8s1.1-0.3,1.4-0.8L117.9,83.5z"/>
		<circle fill="#FFCC33" cx="104.2" cy="76.4" r="2.8"/>
		<polygon fill="#FFCC33" points="104.5,132 81.4,153.4 89.5,270 93.5,270 101.2,177 104.5,177 107.6,177 115.4,270 119.4,270 
			127.6,153.4 		"/>
		<path d="M93,270h-3.5L70,276.5c0,0,10,11.2,20.5-1.3l-0.6,3.2l3.1,0.2V270z"/>
		<path d="M115,270h5l19.5,6.5c0,0-10,11.2-20.5-1.3l-0.2,3.2l-3.8,0.2V270z"/>
		<path fill="#FFCC99" d="M93,50.5"/>
		<g>
			<path fill="#FFCC99" d="M105.3,63.4c-0.3,0-0.6,0-0.8-0.1c-0.3,0-0.6,0.1-0.8,0.1H105.3z"/>
			<path fill="#FFCC99" d="M124.5,40.2c0.2-2.6-1.9-2.4-3.2-2.1l0.4-5.1c0-8.2-6.8-15-15-15h-4.3c-8.2,0-15,6.8-15,15l0.4,5.4
				c-0.8-0.3-4.2-1.5-4,1.8c0.2,3.8,0.8,10.5,5.1,10.9c0.1,0,0.3,0,0.4,0c2.3,6.3,8.9,11.8,15.3,12.2c6.4-0.4,13-6,15.3-12.3
				C123.7,50.3,124.3,43.9,124.5,40.2z"/>
		</g>
		<path d="M95.7,36.4c-2.5,0-4.5,1.9-4.8,4.3c-0.9,0.7-3.4,3.3-2.6,10.6l1-0.1c-0.6-5.4,0.7-8,1.6-9.1c0.4,2.3,2.4,4,4.8,4
			c2.7,0,4.8-2.2,4.8-4.8C100.5,38.5,98.4,36.4,95.7,36.4z"/>
		<circle fill="#FFFFFF" cx="95.7" cy="41.2" r="3.6"/>
		<path d="M111.1,52.3c-1.8-2-3.4-2-3.4-2c-1.9,0-3,1.5-3.2,1.8c-0.2-0.3-1.3-1.8-3.2-1.8c0,0-1.6,0-3.4,2s-2.7,0.7-3.7-0.5
			c0,0,0.2,5,5.4,5c0,0,4.9,0,4.9-2.6c0,2.6,4.9,2.6,4.9,2.6c5.1,0,5.4-5,5.4-5C113.8,53,112.8,54.2,111.1,52.3z"/>
	</g>
	<path d="M103.9,13.8c-15,0-18.6,10.5-18.6,10.5l1.8,14.3l0,0.5l3.6-10.8c0,5.6,13.1,6.8,13.1,6.8s13.3-1.1,13.3-6.8L121,39l0-0.5
		l1.7-14.3C122.7,24.2,118.9,13.8,103.9,13.8z"/>
</g>
</svg>
