<?xml version="1.0" encoding="utf-8"?>
<!-- Generator: Adobe Illustrator 18.1.1, SVG Export Plug-In . SVG Version: 6.00 Build 0)  -->
<svg version="1.1" id="Layer_1" xmlns="http://www.w3.org/2000/svg" xmlns:xlink="http://www.w3.org/1999/xlink" x="0px" y="0px"
	 viewBox="0 0 195 293" enable-background="new 0 0 195 293" xml:space="preserve">
<g>
	<rect fill="#82DABC" width="195" height="293"/>
	<path fill="#BF381F" d="M97.5,173.4c-12,0-14,4-14,4c-8.3-10.7-29.3-6.7-29.3-6.7c-6.7-17.3-25.3-14.7-25.3-14.7
		c-0.7-12-13.3-15.7-13.3-15.7s79-42,163,0c0,0-12.7,3.7-13.3,15.7c0,0-18.7-2.7-25.3,14.7c0,0-21-4-29.3,6.7c0,0-2-4-14-4"/>
	<path fill="#EA4F27" d="M109,189v3.1c0,3.4-1.6,6.1-5,6.1c-3.4,0-6-2.7-6-6.1V94h-2v98.1c0,4.5,3,8.1,7.5,8.1s7.5-3.6,7.5-8.1V189
		H109z"/>
	<rect x="96" y="94" fill="#57445A" width="2" height="98"/>
	<rect x="96" y="187" fill="#FFFFFF" width="2" height="5"/>
	<path fill="#EA4F27" d="M15.8,140.1c0,0,21.5-7.5,30.7,1.7c0,0,20.7-19.7,50.3-2.7c0,0,27-17.7,52,2c0,0,18-8.3,29.7-0.7
		c0,0-25-43-80.3-43S15.8,140.1,15.8,140.1z"/>
</g>
</svg>
