<?xml version="1.0" encoding="utf-8"?>
<!-- Generator: Adobe Illustrator 18.1.1, SVG Export Plug-In . SVG Version: 6.00 Build 0)  -->
<svg version="1.1" id="Layer_1" xmlns="http://www.w3.org/2000/svg" xmlns:xlink="http://www.w3.org/1999/xlink" x="0px" y="0px"
	 viewBox="0 0 195 293" enable-background="new 0 0 195 293" xml:space="preserve">
<g>
	<rect fill="#5A4031" width="195" height="293"/>
	<g>
		<path fill="#D96929" d="M71.8,51.2c0,0-25.2-6.6-25.8,18.1c-0.5,20.8-3.1,26-6.9,26.5c-3.8,0.5-17.8,5.3-15.5-10.9l2-2l-2.3-12.2
			L17,82.9l2.5,2.3c0,0-4.6,12.7,2.5,15.9c7.1,3.3,15.7,1.8,15.7,1.8s-1.8,11.9-19.2,9.4L17,109l-7.8,3.6l6.8,6l2-2.8
			c0,0,9.1,6.8,21.3-3.3c0,0-5.6,18.7-14.2,19.7l-3.5-2.4L12,139h14.2l-0.5-2.8c0,0,13.7-5.7,17.7-13.1c0,0-8.6,28.5-13.2,28.5
			l-4.8-1.6l-1,6.6l9.1,1.3l-2.3-4.1c0,0,12.9-6.6,14.9-17c0,0-3,15.7,4.8,21c0,0-10.4,11.9-12.9,11.9c0,0,17.5,1.5,23.2-7.8
			l28-55.7c0,0,6.6,0,8.6-3.5c2-3.5,0-15.2,0-15.2s4.8,8.7,13.2,6.7c0.4-0.1,0.8-0.2,1.2-0.3c9.1-3.1,7.5-13.7,7.5-13.7l3.2-0.3
			l-7-11.6L111,79.6l3.2,0.5c0,0,4,8.3-6.1,8.9s-9.6-16.7-9.6-16.7S102.4,32.9,71.8,51.2z"/>
		<path fill="#F3AB5F" d="M105.4,108L99,120.2c0,0-7.6-15.6-11.9-22.4c-4.3-6.8-14.7-2.6-14.7-2.6L71,95.5v-7.4
			c1.5,0.5,3.2,0.8,4.9,0.8c8.6,0,15.6-7.5,15.6-16.7s-7-16.7-15.6-16.7c-7.6,0-14,5.9-15.3,13.7c-0.2,0-0.3-0.1-0.5-0.1
			c-1.7,0-3,1.4-3,3s1.4,3,3,3c0.2,0,0.3,0,0.5-0.1c0.4,2.2,1.1,4.2,2.2,6L62,81v16.7l0.6,0l-0.5,0.1c0,0-3.5,3.3-9.1,6.6
			s-2,14.7-2,14.7l32.6-6l5.6,5.3c10.1,11.9,12.9,9.2,15.2,9.2s3.8-19.7,3.8-19.7H105.4z"/>
		<path fill="#7BBFAA" d="M135,211c-24.3-5.1-30.6,4.6-30.6,4.6l3.8,6.2c0.5,0.1,0.9,0.1,1.4,0.1l-6.2-0.2c5.3,18.2,25.1,23,25.1,23
			c-0.5-12.7-15.2-22.7-15.2-22.7l-0.2,0C129.2,221.9,135,211,135,211z"/>
		<path fill="#D96929" d="M57,69.3c0,0,21.2,0,31.5-10.2c0.2-0.2,0.4-0.4,0.6-0.6C99.3,47.5,60.6,47.5,57,69.3z"/>
		<path fill="#F3AB5F" d="M105.4,107.2c0,0-1.8-3.6,0-5.3c1.8-1.7,5.6-4.7,7-4c1.3,0.6,6.1,2.2,3,6.5
			C112.3,108.7,107.7,108.4,105.4,107.2z"/>
		<path fill="#09A99F" d="M75.9,114.4c0,0-1.1-5.9,8.2-8.2c2.7-0.6,5.1,1.8,5.1,6.8s-5.3,10.4-5.3,12.9c0,2.5,1.8,4.6,1.8,4.6
			s22-4,25.1,11.1c3,15.2-17.4,47.6-17.4,47.6s-6.4,13.9,11.1,26.3l3.8,6.2l-4.8-0.1c0,0-33.2,3.8-41.3-36.2c0,0-4-16.7,5.2-41.8
			l-6.8-26.1c0,0,1.4-3.7,6.7-5.9C70.2,110.5,74.7,111.1,75.9,114.4z"/>
		<path fill="#F3AB5F" d="M68.2,123.2c0,0-0.3-5.2,4.3-5.2c4.6,0,6.8,0,6.8,0s3.8,8-3.4,8h-4.2c0,0,1.8,15.9-4.8,16.5
			S52,126.8,50.9,118.9l9.4-1.8l4.1,12.5L68.2,123.2z"/>
		<path fill="#F4B13E" d="M127.2,92.9c0,0-8.7-20.3,1.7-25.4s29-9.4,29-9.4v-5.6l11.5,1.3l-3.6,8.4l-5.3-1.9c0,0-27.7,6.2-24.7,25
			L165,74.1V71h13l-6.6,7.6l-4.3-1.8l-27.8,14.6c0,0,8.9,14.1,34.9-5.1l-0.8-4.1l11.4-1.2L181,91.8l-5.8-2.4c0,0-26.3,31.4-46.8,6.9
			L17.8,146.2l-1.3-2.3L127.2,92.9z"/>
	</g>
</g>
</svg>
