<?xml version="1.0" encoding="utf-8"?>
<!-- Generator: Adobe Illustrator 18.1.1, SVG Export Plug-In . SVG Version: 6.00 Build 0)  -->
<svg version="1.1" id="Layer_1" xmlns="http://www.w3.org/2000/svg" xmlns:xlink="http://www.w3.org/1999/xlink" x="0px" y="0px"
	 viewBox="0 0 195 293" enable-background="new 0 0 195 293" xml:space="preserve">
<rect fill="#FFC73F" width="195" height="293"/>
<g>
	<path fill="#CC6600" d="M120,92.8H75c-4.8,0-8.7-3.9-8.7-8.7v0c0-4.8,3.9-8.7,8.7-8.7h45c4.8,0,8.7,3.9,8.7,8.7v0
		C128.7,88.8,124.8,92.8,120,92.8z"/>
	<path fill="#333333" d="M115,107.8V92H97.5H79v15.8c0,0-28,14.5-29,22v89c0,0,0.5,13.2,15.5,13.2s32,0,32,0s17,0,32,0
		s14.5-13.2,14.5-13.2v-89C143,122.2,115,107.8,115,107.8z"/>
	<path fill="#333333" d="M97,60.8c-16.2,0-15,4-15,4V80h9.3L90,67.6c0-2,7.5-1.8,7.5-1.8s7.5-0.1,7.5,1.9L103.7,80h8.3V64.8
		C112,64.8,113,60.8,97,60.8z"/>
	<path fill="#FFFFFF" d="M132,207.1H63c-2.8,0-5-2.2-5-5v-53c0-2.8,2.2-5,5-5h69c2.8,0,5,2.2,5,5v53
		C137,204.8,134.7,207.1,132,207.1z"/>
	<g>
		<path fill="#FFFFFF" d="M60,138h-3v-7.8l0.4-0.4c0.4-0.6,10.6-14.4,25.6-14.4v3c-12,0-21.2,10.7-23,12.9V138z"/>
	</g>
	<polygon fill="#333333" points="120.2,156.3 113.1,149.2 97,165.3 80.9,149.2 73.8,156.3 89.9,172.4 73.8,188.5 80.9,195.6 
		97,179.5 113.1,195.6 120.2,188.5 104.1,172.4 	"/>
</g>
</svg>
