<?xml version="1.0" encoding="utf-8"?>
<!-- Generator: Adobe Illustrator 18.1.1, SVG Export Plug-In . SVG Version: 6.00 Build 0)  -->
<svg version="1.1" id="Layer_1" xmlns="http://www.w3.org/2000/svg" xmlns:xlink="http://www.w3.org/1999/xlink" x="0px" y="0px"
	 viewBox="0 0 195 293" enable-background="new 0 0 195 293" xml:space="preserve">
<rect fill="#384C55" width="195" height="293"/>
<path fill="#FF8A66" d="M151.6,67H96.9H42.4c-12.7,30-17.3,52.3-17.3,79.7c0,27.4,17.3,74,17.3,74c23.3,6.7,54.5,5.9,54.5,5.9
	s31.2,0.6,54.6-6.1c0,0,17.4-46.3,17.4-73.7C168.9,119.3,164.3,97,151.6,67z"/>
<path fill="#384C55" d="M149.4,70.9l-0.4-0.9H45l-0.4,0.9c-11.9,29.1-16.3,49.6-16.3,75.4c0,25.6,15.6,68,16.3,69.8l0.3,0.7l0.7,0.2
	c17.8,5.1,40.1,5.6,48.8,5.6c1.6,0,2.5,0,2.5,0c0.1,0,0.8,0,2.1,0c0,0,0,0,0,0c6.9,0,30.8-0.4,49.3-5.7l0.7-0.2l0.3-0.7
	c0.7-1.8,16.3-44.1,16.3-69.8C165.7,120.4,161.3,100,149.4,70.9z M126.4,183c0.5-5.5,1-11.7,1.4-18.9c1.7-25.2,0.3-47.2-1.7-63.6
	c5.8,0.3,11.9,0.8,17.8,1.4c2.3,12.4,4.2,27.7,4.1,44.2c-0.1,13.2-1.4,25.3-3,35.6C138.8,182.2,132.5,182.7,126.4,183z M141.9,197.1
	c-2.4,10.3-4.8,17.3-5.6,19.6c-5,0.9-10,1.5-14.8,2c0.8-2.4,2-7.7,3.4-20C131.2,198.2,137.1,197.6,141.9,197.1z M46.9,181.4
	c-1.6-10.3-2.9-22.2-3-35.4c-0.1-16.4,1.7-31.6,4-44c6-0.6,12.3-1.1,18.4-1.5c-2,16.3-3.4,38.4-1.7,63.5c0.5,7.2,1,13.4,1.4,18.9
	C59.7,182.6,53.1,182,46.9,181.4z M67.6,198.5c1.4,12.2,2.6,17.6,3.3,20c-5-0.5-10.3-1.2-15.4-2.2c-0.9-2.6-3.2-9.5-5.5-19.5
	C54.7,197.4,60.8,198,67.6,198.5z M122.7,84.7c-8.2-0.6-17.2-1-25.8-1c-0.3,0-0.6,0-0.9,0V73h24.3C120.9,75.2,121.8,79.2,122.7,84.7
	z M121.4,73h15.3c0.8,2.4,2.2,7,3.8,13.3c-4.8-0.5-10.5-1-16.7-1.5C122.8,79.3,121.9,75.3,121.4,73z M95,83.7
	c-8.5,0.1-17.3,0.5-25.3,1.1c1-5.6,1.9-9.6,2.4-11.8H95V83.7z M68.6,84.9c-6.5,0.5-12.5,1.1-17.3,1.6c1.6-6.4,3.1-11.1,3.9-13.5
	h15.8C70.5,75.3,69.6,79.4,68.6,84.9z M65.6,164c-1.7-25.2-0.3-47.2,1.7-63.5c12.3-0.7,23.3-1,27.7-1.1v84.7
	c-4.4-0.1-15.5-0.4-28-1.1C66.6,177.5,66.1,171.2,65.6,164z M96,99.4c0.6,0,0.9,0,0.9,0s12.9,0.2,28.2,1c2,16.3,3.5,38.4,1.7,63.6
	c-0.5,7.3-1,13.6-1.5,19.1c-15.4,0.9-28.4,1.1-28.4,1.1s-0.3,0-0.9,0V99.4z M148.9,146c0.1-16.4-1.7-31.7-4-44.1
	c4.4,0.5,8.7,1,12.5,1.6c3.7,14.3,5.3,27.6,5.3,42.8c0,9.7-2.4,22.1-5.3,33.6c-3.5,0.6-7.4,1.1-11.5,1.5
	C147.6,171.2,148.8,159.2,148.9,146z M152.6,87.7c-2.1-0.3-6-0.8-11.1-1.3c-1.6-6.2-3-10.8-3.8-13.4h9.4
	C149.1,78.1,151,83,152.6,87.7z M47,73h7.2c-0.8,2.6-2.3,7.3-3.9,13.6c-3.9,0.4-7,0.8-8.9,1C43.1,83,44.9,78.1,47,73z M36.6,103.5
	c3.2-0.5,6.7-1,10.3-1.4c-2.3,12.4-4.1,27.5-4,43.9c0.1,13,1.3,25,3,35.2c-3.3-0.4-6.4-0.8-9.3-1.2c-2.9-11.6-5.3-24-5.3-33.7
	C31.3,131.2,32.8,117.9,36.6,103.5z M41,195.8c1.6,0.2,4.3,0.5,7.9,0.9c2.2,9.6,4.4,16.3,5.4,19.4c-2.5-0.5-4.9-1.1-7.2-1.7
	C46.3,212.2,43.8,205.1,41,195.8z M72,218.7c-0.6-1.8-1.9-6.8-3.4-20.1c8.3,0.6,17.5,1.1,26.4,1.2v19.9c-0.2,0-0.4,0-0.6,0
	C90.7,219.8,82,219.6,72,218.7z M99.1,219.7c-1.3,0-2.1,0-2.2,0c0,0-0.3,0-0.9,0v-19.9c0.3,0,0.6,0,0.9,0c9,0,18.4-0.5,26.9-1.1
	c-1.5,13.5-2.8,18.3-3.4,20C110.8,219.6,102.6,219.7,99.1,219.7z M146.8,214.4c-3,0.8-6.2,1.5-9.4,2.1c1-2.8,3.2-9.7,5.5-19.5
	c4.7-0.5,8.2-0.9,10.1-1.2C150.2,205,147.6,212.2,146.8,214.4z"/>
<path fill="#384C55" d="M133.2,166.1H58.9c-2.8,0-5-2.2-5-5v-33.5c0-2.8,2.2-5,5-5h74.2c2.8,0,5,2.2,5,5v33.5
	C138.2,163.9,135.9,166.1,133.2,166.1z"/>
<g>
	<path fill="#FF8A66" d="M79.4,151.6l-3.9-5.9l-3.9,5.9h-4.3l6-8.8l-5.8-8.5H72l3.6,5.6l3.7-5.6h4.3l-5.8,8.4l6,8.8H79.4z"/>
	<path fill="#FF8A66" d="M99.9,151.6l-3.9-5.9l-3.9,5.9h-4.3l6-8.8l-5.8-8.5h4.4l3.6,5.6l3.7-5.6h4.3l-5.8,8.4l6,8.8H99.9z"/>
	<path fill="#FF8A66" d="M120.4,151.6l-3.9-5.9l-3.9,5.9h-4.3l6-8.8l-5.8-8.5h4.4l3.6,5.6l3.7-5.6h4.3l-5.8,8.4l6,8.8H120.4z"/>
</g>
</svg>
