<?xml version="1.0" encoding="utf-8"?>
<!-- Generator: Adobe Illustrator 18.1.1, SVG Export Plug-In . SVG Version: 6.00 Build 0)  -->
<svg version="1.1" id="Layer_1" xmlns="http://www.w3.org/2000/svg" xmlns:xlink="http://www.w3.org/1999/xlink" x="0px" y="0px"
	 viewBox="0 0 195 293" enable-background="new 0 0 195 293" xml:space="preserve">
<g>
	<rect fill="#96C8C9" width="195" height="293"/>
	<g>
		<ellipse fill="#7B7110" cx="50.7" cy="117.6" rx="10.6" ry="8.3"/>
		<path fill="#7B7110" d="M135.1,97.1c0.4-0.9,0.7-1.9,0.7-2.9c0-4.6-4.7-8.3-10.6-8.3c-2.8,0-5.4,0.9-7.3,2.3
			c0.2-0.6,0.3-1.3,0.3-1.9c0-4.9-4.9-8.9-11-8.9c-6.1,0-11,4-11,8.9c0,4.9,4.9,8.9,11,8.9c3,0,5.7-1,7.7-2.5
			c-0.1,0.5-0.2,1-0.2,1.5c0,4.3,4.2,7.8,9.6,8.2c-0.4,0.9-0.7,1.9-0.7,2.9c0,4.6,4.7,8.3,10.6,8.3s10.6-3.7,10.6-8.3
			C144.7,101.1,140.5,97.5,135.1,97.1z"/>
		<path fill="#7B7110" d="M88.5,77.1c-3.1,0-5.7,2.1-6.8,5c-1.2-0.3-2.4-0.5-3.8-0.5c-5.8,0-10.6,3.7-10.6,8.3c0,0.2,0,0.5,0,0.7
			c-0.4,0-0.8-0.1-1.2-0.1c-5.8,0-10.6,3.7-10.6,8.3c0,4.6,4.7,8.3,10.6,8.3s10.6-3.7,10.6-8.3c0-0.2,0-0.5,0-0.7
			c0.4,0,0.8,0.1,1.2,0.1c4.1,0,7.7-1.9,9.4-4.6c0.4,0.1,0.7,0.1,1.1,0.1c4.1,0,7.4-3.7,7.4-8.3C95.9,80.8,92.6,77.1,88.5,77.1z"/>
	</g>
	<g>
		<path fill="#968B20" d="M63.8,90.7c-6.8,0-12.5,4.4-13,10.1c-3.1,2-5.1,5.2-5.1,8.7c0,6.1,5.8,11,13.1,11c6.8,0,12.5-4.4,13-10.1
			c3.1-2,5.1-5.2,5.1-8.7C76.9,95.6,71,90.7,63.8,90.7z"/>
		<ellipse fill="#968B20" cx="39" cy="127.4" rx="11.8" ry="7.9"/>
		<ellipse fill="#968B20" cx="124" cy="93" rx="11.8" ry="7.9"/>
	</g>
	<path fill="#703F1F" d="M60.9,183.7l1.3-0.7c0,0,10,18.8,24.1,15.6c0,0,2.1-5.6,1.9-7.6c-0.3-1.9-1.8-4.8-2.6-5.1
		s-10.7-2.5-13.3-8.3l-0.7-1.8l2.2-0.5l0.5,1.7c0,0,5.8,5.7,15.7,7.4c0,0,0.1-2.5,0.3-3.4s2.4-6.7,2.3-8.5l9.2,2.7
		c0,0-1.8,4.6-1.1,8.8c0,0,2.1-1.9,6-2c3.9-0.1,5.5-1.3,5.5-1.3l4.2,1.8c0,0-5.6,1.9-6.9,1.9s-5.8,1.7-7.2,4.2
		c-1.4,2.6-3.1,3.8-2.6,10.8c0,0,2.8,0.6,6.8-0.7c0,0,9.5-2.7,13.5-10.1c0,0,2.4-3,4-3.3s8.4-3.1,9.2-6.9l0.8,0.1c0,0-1.2,6-9.2,7.9
		c0,0-2.7,1.9-3.8,3.6c-1.1,1.7-9,13.6-21.1,13.4c0,0,0.9,5.9,0.6,7.3s-0.8,5.6-0.8,5.6s2.5,5.8,2.2,7.5c-0.3,1.7,0.1,5.1,0.1,5.1
		h-23c0,0,1-6.1,1.8-6.8c0.8-0.7,1.5-5.7,1.5-6.6s1.3-10.3,2.4-12C84.9,203.6,67,198.7,60.9,183.7z"/>
	<g>
		<path fill="#5A6215" d="M51.9,172.4c-1.1,0-2.1,0.2-3,0.5c0.7-1.6,1.1-3.3,1.1-5.2c0-7-5.6-12.7-12.5-12.7
			c-6.9,0-12.5,5.7-12.5,12.7s5.6,12.7,12.5,12.7c1.7,0,3.4-0.4,4.9-1c-0.3,1-0.5,2.1-0.5,3.3c0,5.7,4.5,10.3,10.1,10.3
			c5.6,0,10.1-4.6,10.1-10.3C62,177,57.5,172.4,51.9,172.4z"/>
		<path fill="#5A6215" d="M170.4,160.1c0-5.2-4.4-9.4-9.9-9.4c-5.5,0-9.9,4.2-9.9,9.4c0,0.1,0,0.3,0,0.4c-0.1,0-0.2,0-0.3,0
			c-5.2,0-9.6,3.5-11,8.4c-2.8-2.6-6.8-4.2-11.3-4.2c-7.1,0-13.1,4.2-14.9,9.9c-3.3-2.6-8-4.3-13.2-4.3c-8.6,0-15.7,4.5-17.5,10.5
			c-2-2.5-5.4-4.2-9.2-4.2c-6.2,0-11.2,4.3-11.2,9.7c0,5.4,5,9.7,11.2,9.7c4.9,0,9-2.7,10.5-6.4c2.9,4.5,9.1,7.7,16.2,7.7
			c8.1,0,14.9-4,17.2-9.5c2.8,2.4,6.6,3.9,10.9,3.9c7.4,0,13.7-4.6,15.1-10.7c2,1.6,4.4,2.5,7.1,2.5c6.3,0,11.4-5.1,11.4-11.4
			c0-0.9-0.1-1.7-0.3-2.5C166.5,168.9,170.4,164.9,170.4,160.1z"/>
	</g>
	<path fill="#968B20" d="M167,133.1c2.1-2.1,3.4-5.1,3.4-8.4c0-6.3-4.7-11.4-10.5-11.4c-3.3,0-6.2,1.7-8.2,4.3
		c0.3-0.7,0.4-1.5,0.4-2.4c0-4.4-4.1-8-9.1-8c-0.7,0-1.4,0.1-2,0.2c-0.7-5.5-3.6-9.6-7.1-9.6c-0.9,0-1.7,0.3-2.5,0.8
		c-0.9-3.6-4.5-6.3-8.9-6.3c-0.7,0-1.4,0.1-2,0.2c-0.9-5.8-5.9-10.2-11.8-10.2c-3.3,0-6.2,1.3-8.4,3.5c-3.3-2.2-7.3-3.5-11.6-3.5
		c-10.2,0-18.8,7.3-20.9,17.1c-4.8,1.3-8.4,5.6-8.8,10.8c-1.4,0.7-2.7,1.7-3.7,2.9c-0.7-0.1-1.4-0.2-2.2-0.2c-2.3,0-4.5,0.7-6.3,1.8
		c-0.7-0.1-1.3-0.2-2-0.2c-6.6,0-12,5.5-12,12.2c0,3.1,1.1,5.9,2.9,8c-0.7-0.1-1.4-0.2-2.1-0.2c-6.9,0-12.5,5.7-12.5,12.7
		c0,5,2.8,9.3,6.9,11.4c-0.6,1.3-1,2.8-1,4.5c0,5.1,3.4,9.1,7.6,9.1c1.5,0,2.9-0.5,4-1.4c0,0.2,0,0.3,0,0.5c0,5.3,3.5,9.6,7.9,9.6
		c2.3,0,4.4-1.2,5.9-3.2c1.2,4.1,5.5,7.1,10.5,7.1c4.5,0,8.4-2.4,10.1-5.9c1.8,1.2,4.1,2,6.6,2c5.6,0,10.3-3.8,10.8-8.6
		c1.8,3.1,5.5,5.2,9.7,5.2c2,0,3.9-0.5,5.5-1.3c1.1,4.3,5.4,7.4,10.6,7.4c2.6,0,4.9-0.8,6.8-2.1c1,0.3,2.1,0.4,3.2,0.4
		c5.3,0,9.7-3.3,10.7-7.7c2,2,4.9,3.3,8.2,3.3c6,0,10.8-4.2,10.9-9.5c4.2-1.3,7.2-4.8,7.2-9c0-1.2-0.3-2.4-0.8-3.5
		c0.6,0.1,1.2,0.2,1.8,0.2c5.8,0,10.5-5.1,10.5-11.4C174.8,138.8,171.5,134.3,167,133.1z"/>
	<path fill="#AB9C35" d="M159.7,143.6c0-5.2-4.5-9.4-10.3-10c2.6-1.9,4.2-4.6,4.2-7.7c0-5.6-5.3-10.1-11.9-10.1
		c-3.7,0-7.1,1.5-9.3,3.8c0.4-1,0.6-2,0.6-3.1c0-5.6-5.3-10.1-11.9-10.1c-1.3,0-2.5,0.2-3.7,0.5l-1.1-0.8c2.7-1.9,4.4-4.7,4.4-7.9
		c0-5.6-5.3-10.1-11.9-10.1c-4.2,0-7.8,1.8-9.9,4.6c-1.9-1.1-4.2-1.8-6.7-1.8c-5.6,0-10.3,3.3-11.5,7.8c0,0-0.1,0-0.1,0
		c-6.6,0-11.9,4.5-11.9,10.1c0,0.2,0,0.3,0,0.5c-5.9,0.5-10.6,4.8-10.6,10c-2.1-1.5-4.7-2.3-7.6-2.3c-6.6,0-11.9,4.5-11.9,10.1
		c0,3.2,1.8,6.1,4.5,8c-5.2,1.1-9,5.1-9,9.8c0,3.3,1.8,6.2,4.7,8.1c-0.9,1.4-1.4,3-1.4,4.7c0,5.6,5.3,10.1,11.9,10.1
		c0.4,0,0.9,0,1.3-0.1c1.8,3.6,6,6.2,10.9,6.2c4,0,7.6-1.7,9.7-4.4c2.1,1.7,4.9,2.7,8,2.7c4.8,0,9-2.5,10.8-6c2.2,2,5.2,3.2,8.6,3.2
		c3.2,0,6-1.1,8.2-2.8c0,0.1,0,0.3,0,0.4c0,5.6,5.3,10.1,11.9,10.1c3.7,0,7-1.4,9.2-3.7c1,0.2,2,0.4,3.1,0.4
		c5.9,0,10.8-3.7,11.7-8.4c0.5,0.1,1.1,0.1,1.6,0.1c6.6,0,11.9-4.5,11.9-10.1c0-1.4-0.3-2.7-0.9-3.9
		C158,149.5,159.7,146.7,159.7,143.6z"/>
</g>
</svg>
