<?xml version="1.0" encoding="utf-8"?>
<!-- Generator: Adobe Illustrator 18.1.1, SVG Export Plug-In . SVG Version: 6.00 Build 0)  -->
<svg version="1.1" id="Layer_1" xmlns="http://www.w3.org/2000/svg" xmlns:xlink="http://www.w3.org/1999/xlink" x="0px" y="0px"
	 viewBox="0 0 195 293" enable-background="new 0 0 195 293" xml:space="preserve">
<g>
	<rect fill="#92C7AB" width="195" height="293"/>
	<g>
		<circle fill="#F99557" cx="86.5" cy="144.2" r="74.1"/>
		<g>
			<path fill="#F16248" d="M86.5,220.4c-42,0-76.2-34.2-76.2-76.2c0-42,34.2-76.2,76.2-76.2s76.2,34.2,76.2,76.2
				C162.6,186.2,128.5,220.4,86.5,220.4z M86.5,72.2c-39.7,0-72,32.3-72,72c0,39.7,32.3,72,72,72s72-32.3,72-72
				C158.5,104.5,126.2,72.2,86.5,72.2z"/>
		</g>
		
			<ellipse transform="matrix(0.9804 0.1972 -0.1972 0.9804 18.8542 -18.2104)" fill="#F16248" cx="100.9" cy="85.6" rx="12.7" ry="7.5"/>
		<path fill="#F16248" d="M183.7,162.9c0-4.7-0.5-9.4-1.6-14l-0.5-2.1l-36.3,9.9l0.4,1.9c0,0,0,0,0,0l-0.4,0.1l0.4,1.9
			c0.3,1.2,0.4,2.5,0.5,3.8c-0.6,11.9-10.4,21.4-22.5,21.4c-9.7,0-18.3-6.2-21.4-15.4l-0.6-1.9l-38,10.4l0.6,1.9l-0.6,0.2l0.6,2.1
			c3.8,12.2,11.5,23.1,21.8,30.8c10.6,7.9,23.2,12.1,36.5,12.1c33.6,0,61-27.4,61-61c0-0.3,0-0.7,0-1
			C183.7,163.6,183.7,163.2,183.7,162.9z M122.7,219.7c-12.4,0-24.1-3.9-34-11.3c-8.4-6.3-15-15-18.9-24.7l29.3-8
			c4.1,9.9,13.8,16.4,24.6,16.4c14.7,0,26.7-12,26.7-26.7c0-0.4,0-0.7,0-1.1c0-0.3,0-0.7,0-1c0-0.6,0-1.1-0.1-1.7l28.1-7.7
			c0.6,3.2,1,6.5,1,9.8C179,194.8,153.7,219.7,122.7,219.7z"/>
		<path fill="#FFCC66" d="M180.1,149.3l-32.3,8.8c0.4,1.7,0.6,3.4,0.6,5.2c0,13.6-11,24.6-24.6,24.6c-10.9,0-20.1-7.1-23.3-16.9
			l-34,9.3c7.5,24,29.8,41.4,56.3,41.4c32.5,0,58.9-26.4,58.9-58.9C181.6,158.2,181.1,153.7,180.1,149.3z"/>
	</g>
</g>
</svg>
