<?xml version="1.0" encoding="utf-8"?>
<!-- Generator: Adobe Illustrator 18.1.1, SVG Export Plug-In . SVG Version: 6.00 Build 0)  -->
<svg version="1.1" id="Layer_1" xmlns="http://www.w3.org/2000/svg" xmlns:xlink="http://www.w3.org/1999/xlink" x="0px" y="0px"
	 viewBox="0 0 195 293" enable-background="new 0 0 195 293" xml:space="preserve">
<g>
	<rect fill="#FFCC99" width="195" height="293"/>
	<g>
		<path fill="#C92C4F" d="M157.8,212.8H37.2c-2.8,0-5-2.2-5-5v-38c0-2.8,4.2-7,7-7h116.7c2.8,0,7,4.2,7,7v38
			C162.8,210.6,160.6,212.8,157.8,212.8z"/>
	</g>
	<path fill="#0F3A52" d="M155.3,158h-7.2c-4-24-19.3-37.2-32-43.8c2.7-2,4.5-5.1,4.5-8.7c0-3.6-1.8-6.8-4.5-8.8c0-0.1,0-0.3,0-0.4
		c0-5.6-4.4-10.2-9.9-10.6c-1.9-3-5.2-5-9-5c-0.1,0-0.1,0-0.2,0c-0.1,0-0.1,0-0.2,0c-3.8,0-7.2,2-9,5c-5.5,0.4-9.9,5-9.9,10.6
		c0,0.1,0,0.3,0,0.4c-2.7,2-4.5,5.2-4.5,8.8c0,3.7,1.8,6.8,4.6,8.7C65.2,120.9,49.9,134,45.9,158h-7.2c-5.5,0-11.7,6.8-11.7,12.3v38
		c0,5.5,4.2,9.7,9.7,9.7h120.7c5.5,0,9.7-4.2,9.7-9.7v-38C167,164.8,160.8,158,155.3,158z M47,208v-40h12v40H47z M62,208v-40h11v40
		H62z M76,208v-40h12v40H76z M91,208v-40h12v40H91z M106,208v-40h12v40H106z M121,208v-40h11v40H121z M135,208v-40h12v40H135z
		 M37,170.6c0-0.7,1.2-1.6,2-2.6h5v40h-7V170.6z M157.3,208H150v-40h5c0.7,1,2,1.6,2.3,2.3L157.3,208z"/>
	<path fill="#C92C4F" d="M110,99.7c0.7-0.9,1.1-2.1,1.1-3.3c0-3.1-2.5-5.7-5.7-5.7c-0.9,0-1.8,0.2-2.6,0.6c0-3.1-2.5-5.6-5.7-5.6
		c-0.1,0-0.1,0-0.2,0c-0.1,0-0.1,0-0.2,0c-3.1,0-5.7,2.5-5.7,5.6c-0.8-0.4-1.6-0.6-2.6-0.6c-3.1,0-5.7,2.5-5.7,5.7
		c0,1.3,0.4,2.4,1.1,3.3c-3.1,0.2-5.6,2.7-5.6,5.9c0,3.3,2.6,5.9,5.9,5.9c1.6,0,3.1-0.7,4.2-1.8c-0.1,0.4-0.1,0.9-0.1,1.4
		c0,4.6,3.8,8.4,8.4,8.4c0.1,0,0.1,0,0.2,0c0.1,0,0.1,0,0.2,0c4.6,0,8.4-3.8,8.4-8.4c0-0.5,0-0.9-0.1-1.4c1.1,1.1,2.6,1.8,4.2,1.8
		c3.3,0,5.9-2.6,5.9-5.9C115.6,102.4,113.1,99.8,110,99.7z"/>
</g>
</svg>
