<?xml version="1.0" encoding="utf-8"?>
<!-- Generator: Adobe Illustrator 16.0.0, SVG Export Plug-In . SVG Version: 6.00 Build 0)  -->
<!DOCTYPE svg PUBLIC "-//W3C//DTD SVG 1.1//EN" "http://www.w3.org/Graphics/SVG/1.1/DTD/svg11.dtd">
<svg version="1.1" id="Layer_1" xmlns="http://www.w3.org/2000/svg" xmlns:xlink="http://www.w3.org/1999/xlink" x="0px" y="0px"
	 viewBox="0 0 195 293" enable-background="new 0 0 195 293" xml:space="preserve">
<g>
	<polyline fill="#663399" points="195,293 0,293 0,0 195,0 	"/>
	<g id="vcKlen_1_">
		<g>
			<path fill="#141713" d="M104.7,57.6c0.7-0.1,1.399-0.3,2.1-0.4c-0.3,0.8-0.6,1.5-0.899,2.3c-2.2,2.3-4.4,4.6-6.601,6.8
				c-0.899,0-1.8,0-2.7,0.1c0-5.7,0-11.3,0-17c0.6,0,1.2,0,1.7,0c0,4.5,0,9,0,14.3C101,61.1,102.8,59.4,104.7,57.6z"/>
			<g>
				<path fill="#589217" d="M115.9,43.2c-0.101,0.1-0.101,0.3-0.2,0.4c0.5,0.4,0.899,0.8,1.399,1.2c2.2-1.4,4.4-2.7,6.601-4.2
					c0.1-1,0.3-2.1,0.399-3.1c-5.399-2.4-9.1-0.8-14.5,6.1c2.101,0,4.101,0,6.101,0C115.7,43.5,115.8,43.3,115.9,43.2z"/>
				<path fill="#589217" d="M126.3,39.2c-0.8,0.5-1.7,1-2.5,1.5c-1.29,2.282-2.678,4.662-3.97,6.947
					c-2.977,1.984-5.953,3.969-8.93,5.953c-0.035,0.021-0.071,0.049-0.106,0.071c2.165-2.954,4.236-5.814,6.306-8.771
					c-0.5-0.4-0.484-2.602-0.984-3.002c-2.101,0-4.018,0.231-6.516,1.802c-1.699,4.7-3.3,9.3-5,14c0.7-0.1,1.4-0.3,2.101-0.4
					c0.034-0.035,0.065-0.065,0.1-0.1c0.858-0.858,1.635-1.635,2.5-2.5c0.001,0,0.001,0,0.002-0.001
					c-0.859,0.858-1.636,1.635-2.502,2.501c-0.3,0.8-0.6,1.5-0.899,2.3c6.199-0.2,11.899-1.8,16.1-6.7
					C128,47.2,128.8,44.5,126.3,39.2z"/>
			</g>
			<path fill="#141713" d="M126.2,39.1c-0.8,0.5-1.7,1-2.5,1.5c0.1-1,0.3-2.1,0.399-3.1C124.9,38.1,125.5,38.6,126.2,39.1z"/>
			<path fill="#141713" d="M123.7,40.7c-1.3,2.3-2.7,4.7-4,7c-3,2-6,4-9,6c2.1-3,4.2-5.9,6.399-8.9
				C119.3,43.4,121.5,42.1,123.7,40.7z"/>
			<path fill="#141713" d="M110.8,53.7C111.3,53.4,110.3,54,110.8,53.7C110.3,54,111.3,53.3,110.8,53.7z"/>
		</g>
	</g>
</g>
<path fill="#CDD80D" d="M171.858,195.447c0,36.916-32.354,66.842-72.266,66.842c-39.911,0-72.265-29.926-72.265-66.842
	c0-27.154,16.639-35.785,32.362-65.204c2.619-4.899-0.869-9.643-0.991-14.189c-0.43-16.025,0.739-22.103,4.649-27.89
	c18.25-27.01,42.896-27.74,64.79-11.346c10.181,7.624,13.014,25.904,10.481,39.236c-1.64,8.632-0.585,15.252,2.82,19.332
	C161.532,159.455,171.858,170.066,171.858,195.447z"/>
</svg>
