<?xml version="1.0" encoding="utf-8"?>
<!-- Generator: Adobe Illustrator 18.1.1, SVG Export Plug-In . SVG Version: 6.00 Build 0)  -->
<svg version="1.1" id="Layer_1" xmlns="http://www.w3.org/2000/svg" xmlns:xlink="http://www.w3.org/1999/xlink" x="0px" y="0px"
	 viewBox="0 0 195 293" enable-background="new 0 0 195 293" xml:space="preserve">
<g>
	<rect fill="#663399" width="195" height="293"/>
	<g id="vcKlen_1_">
		<g>
			<path fill="#CCD70E" d="M51.7,145.5c1.9-2.7,3.8-5.3,5.7-8c0.5,0.1,0.9,0.1,1.4,0.2c0,1,0,2,0,3c-0.5,0.4-1,0.8-1.5,1.2
				c0.1,0.1,0.2,0.2,0.3,0.3c0.4-0.5,0.8-1,1.2-1.5c1.3-0.3,2.7-0.7,4-1c0,1.3,0,2.7,0,4c-0.4,0.2-0.9,0.3-1.3,0.5
				c0.4,0.2,0.9,0.3,1.3,0.5c0,0.3,0,0.7,0,1c-0.7,0.2-1.5,0.4-2.2,0.6c0.4,0.5,0.7,0.9,1.1,1.4c1.4,0,2.7,0,4.1,0
				c0.2,0.3,0.5,0.6,0.7,1c0.1-0.1,0.2-0.2,0.2-0.3c1.4-2.9,2.7-5.8,4-8.6c1.3,1,2.7,2,4,3c0.3,0.3,0.7,0.7,1,1l-0.4,0.2l0.2,0.2
				l0.2-0.4c1,0,2,0,3,0c0.5,0.1,1,0.2,1.5,0.3c-0.5-0.4-1-0.9-1.5-1.3c0-0.7,0-1.3,0-2c0-1.3,0-2.7,0-4c0-0.3,0-0.7,0-1
				c0-0.3,0-0.7,0-1c0.7,0,1.3,0,2,0c0.7-0.3,1.3-0.7,2-1c1-2,2-4,3-6c0.6-1.1,1.3-2,2-3c0.3-0.7,0.7-1.3,1-2c0.3-1,0.7-2,1-3
				c1.7-0.7,3.3-1.3,5-2c1.9,1.2,3.8,2.4,5.7,3.7c-0.4,0.1-0.8,0.3-1.3,0.4c0.2,2,0.4,3.9,0.6,5.9c-0.7,1.7-1.3,3.3-2,5
				c-0.3,0.7-0.7,1.3-1,2c-4.1,1.3,1.2,2.7,0,4c-1,1.7-2,3.3-3,5c-1.3,0.7-2.7,1.3-4,2c-0.7,0.7-1.3,1.3-2,2c-0.3,0-0.7,0-1,0
				c-1-0.7-2-1.3-3-2c0,0.3,0,0.7,0,1c0.3,0.3,0.6,0.7,1,1c-0.2,4.8,2.7,5.5,6.8,4.5c-0.3,1.4-0.5,2.4-0.7,3.5
				c-0.2,0.8-0.1,2-0.5,2.3c-2.5,1.4-5.2,2.5-8.2,3.8c1.6,1.5,2.6,2.4,3.5,3.3c1-1.4,1.8-2.4,2.5-3.5c0.3,0.1,0.6,0.2,0.9,0.3
				c0,1.5,0,2.9,0,4.9c1.7-0.3,2.8-0.6,4.2-0.8c-0.9-1.1-1.5-1.8-2.4-3c2.5-0.2,4.3-0.3,6.9-0.4c-1.9-2.6-3.4-4.7-4.9-6.8
				c3.6-0.8,7.1-1.6,11.2-2.5c-0.7-0.8-1.5-1.7-2.2-2.5c0-0.7,0-1.3,0-2c0.3-0.5,0.6-1,0.9-1.6c3,3.2,3.3-1.1,5.5-1.4
				c-1.3-1.9-2.2-3.3-3.2-4.7c-1.2,0.6-2.2,1.1-3.2,1.6l0,0c-0.3-0.3-0.7-0.7-1-1c0.3-0.7,0.7-1.3,1-2c1.2-0.6,2.5-1.2,3.9-1.8
				c-3.2-1.2-6.1-2.2-8.9-3.2c0.3-0.7,0.7-1.3,1-2c1-0.3,2-0.7,3-1c0.3,0,0.7,0,1,0c1.5-0.2,3.2,0,4.6-0.6c2.3-0.9,4.4-2.3,7.4-3.9
				c2-5.9,4.4-13,6.7-19.6c-2.3-2.4-4.7-5.1-7.1-7.6c-0.3,0.2-1.4,0.9-2.5,1.7c-0.1-0.1-0.3-0.1-0.4-0.2c0.1,0.1,0.3,0.2,0.4,0.2
				c0,0.3,0,0.7,0,1c-1-0.7-2-1.3-3-2c0.9-1.8,2-5.3,2.7-5.2c3.9,0.4,4.1-3.4,6.3-4.8l0,0c1-0.3,2-0.7,3-1c0-0.5-0.1-1.1-0.1-1.6
				c-2.4-0.4-4.8-0.9-7.6-1.4c-0.3-0.6-0.8-1.8-1.3-2.9c0.3-2,0.5-4,0.8-6.2c-4.3,1.3-5.6,3.1-1.8,6.2c-0.2,1.8-0.5,3.5-0.9,6.6
				c-1.3-0.1-3.7-0.4-6.1-0.6l0,0c-1.2-3.2-2.4-6.5-3.4-9.3c-2.5,0.3-4.5,0.4-6.4,0.8c-1.4,0.3-2.8,1-4.1,1.6
				c0.2,0.4,0.3,0.9,0.5,1.3c0.8-0.1,1.6-0.2,2.4-0.3c0,0.3,0,0.7,0,1c-2.7,3.6-6.4,2.8-10,2c0-0.7,0-1.3,0-2
				c3.8,0.1,5.7-1.9,6.3-5.7c-1.7-0.2-3.3-0.5-4.1-0.6c-1.2-2.9-2.2-5.3-3.2-7.7c5.3-1.5,10.5-2.9,15.8-4.3c0.9,0,1.8,0,2.7-0.1
				c24.5,3.7,36,18.4,34.9,44.8c-0.4,10.5-1,21.2,6,30.1c3.2,4.1,7.3,7.5,10.9,11.3c7.5,8,12.6,17.4,15.3,28.2
				c8.4,34.2-14.7,69-49.6,74.9c-1.9-5.5-5.8-4.1-9.8-2.4c1.4,1.2,3,1.5,4.7,1.9c0.7,0.2,1.5,0.5,2.2,0.7c-3.4,0.2-6.9,0.3-10.3,0.5
				c-1.9-5.9-4.8-7.1-10.3-4.2c-1.5-3.7-3-7.5-4.5-11.1c0,0-0.8,0.5-2.5,1.5c1.3-3.5,2.2-5.9,3.4-9.2c-3.2,1.4-5.6,2.4-8.2,3.5
				c-0.5-2-0.9-3.4-1.5-5.7c-0.9,1.9-1.4,2.9-2.1,4.6c-2.7-2-5.2-3.9-7.7-5.8c2.6-5.2,5.1-10.3,7.8-15.8c1.6,1.9,2.7,3.3,3.9,4.6
				c-0.8,1-1.9,1.9-2.5,3.1c-0.5,1-0.3,2.2-0.4,3.3c1.4-0.4,3.1-0.5,4.1-1.4c1.8-1.5,2.8-4.1,4.7-5.2c3-1.8,3.5-3.7,2.2-6.6
				c-0.4-1-0.8-2.1-1.1-3.1c0.7-0.7,1.3-1.3,2-2c0.7-2.3,1.3-4.7,2-7c0-0.3,0-0.7,0-1c0.9-1,1.9-2,2.8-3c0.8,1.6,0.5,3,0.3,4.4
				c-0.2,1-0.5,2-0.6,3.1c-0.2,1.7-0.2,3.5-0.3,5.3c0.2,2.8,4.1,4.9,1.1,9.1c-0.2,0.3,1.7,2,2.6,3.1c1.7,1.7,3.3,3.3,5,5
				c0,0.3,0,0.7,0,1c-1.1,0.3-2.3,0.5-3.4,0.8c0.1,0.4,0.2,0.9,0.4,1.3c1-0.4,2-0.7,3.1-1.1c1.8,0.6,3.6,1.2,5.4,1.8
				c1.2,0.4,2.4,0.8,3.6,1.2c0.7-0.7,1.3-1.3,2-2c0-0.3,0-0.7,0-1c0.2-2.4,0.4-4.7,0.7-7.9c-3.7,0.8-6.2,1.4-9.2,2.1
				c-1.4-0.8-3.4-2-5.5-3.2c-0.3-1.3-0.7-2.7-1-4l0,0c-0.2-1.5-0.3-2.9-0.7-4.3c-0.8-3.2-1-6.1,2.7-7.7c0,0,0.5,0,0.5,0s0.5,0,0.5,0
				c1,2,2,4,3,6c0,0.7,0,1.3,0,2c-0.7,0.1-1.5,0.1-2.2,0.2c0,0.2,0.1,0.5,0.1,0.7c0.7-0.3,1.4-0.6,2.1-0.9c1.7,0.4,3.4,0.9,5.6,1.5
				c0,0.1,0,1.1,0,3.8c2.2-2.8,3.4-4.4,4.9-6.3c7.5,6,9.8,2.1,9.9-5.5c1.5,0.5,2.8,0.9,4,1.3c0.2-0.6,0.4-1.2,0.6-1.8
				c-1.6-0.4-3.3-1.3-4.7-1c-3.6,0.7-5.6-0.5-7-3.8c-0.5-1-2.1-1.5-3.2-2.3c1.3-0.8,2.6-1.7,4.2-2.7c-1.5-2.3-2.9-4.3-4.2-6.3l0,0
				c2.9-1.3,5.9-2.6,8.7-4c0.1,0-0.5-1.3-0.7-2c0-0.7,0-1.3,0-2c0.1-0.5,0.2-1,0.3-1.5c-0.4,0.5-0.9,1-1.3,1.5c-0.3,0-0.7,0-1,0
				c-0.7-0.3-1.3-0.7-2-1l0,0c-0.5-4.4-0.9-8.8-1.4-12.9c-4.1-4-8-8-12-12c-0.5,0.5-1,1-1.6,1.6c1.4,1.4,2.8,2.7,4.8,4.7
				c-3.2,1.4-6.1,2.7-9,4c-0.2-0.5-0.5-0.9-0.7-1.4c-0.3,1.5-0.7,3-1.2,5.2c2.1-0.7,3.3-1.2,5.1-1.7c0.3,1.8,0.6,3.4,1.1,6
				c-4-0.5-7-1-10.1-1.4c-1.1-0.2-2.3-0.3-3.7-0.5c0.5,1.3,0.8,2.1,1,2.6c-1.7,0.3-3.2,0.6-4.7,0.9c0.6,1.5,1.5,3,1.8,4.5
				c0.2,1.1-0.3,2.3-0.5,3.5l0,0c-0.7-0.7-1.3-1.3-2-2c-1.3,0-2.7,0-4,0c0,0.3,0,0.7,0,1c0.3,0.7,0.7,1.3,1,2
				c-1.8,5.9-3.6,11.8-5.3,17.8c-0.2,0.6,0.8,1.5,1.3,2.3c-0.3,1.3-0.7,2.7-1,4c-2.8,0.3-6.4-3.1-8,2c0,0.7,0,1.3,0,2l0,0
				c-0.7,0-1.3,0-2,0c-1.7-1.7-3.3-3.3-5-5c-1-1.7-2-3.3-3-5c1.3-0.4,2.6-0.9,3.8-1.3c-0.1-0.3-0.2-0.5-0.3-0.8c-1.4,0-2.8,0-4.4,0
				c0.4,0.9,0.6,1.5,0.9,2.1c-1.2,0.4-2.4,0.8-3.6,1.2c-0.3-1.2-0.6-2.3-0.9-3c-2.4-0.2-4.3-0.3-7.3-0.5c7.9,5.8-0.4,7.2-1.8,11.4
				c-0.7-2.3-1.1-3.7-1.5-5.1c1.2-0.5,2.3-1,3.5-1.5c-0.5-0.5-1-1-1.6-1.6c-0.6,1-1.3,2-1.9,3c-1.1,0.4-2.1,0.7-3.4,1.1
				c0.9,0.8,1.5,1.3,3,2.7c-4.2,0.5-7.4,0.8-10.7,1.2c2.5-3.3,3.7-7.5,8.2-9.3c1.4-0.5,2-3.5,2.7-5.4c2-5.1,5.3-9.9,2.9-15.8
				c-0.1-0.3,0.7-1.1,1-1.6c0.9,0.3,2.1,1,2.8,0.7c1.8-0.8,4-1.7,4.9-3.2c0.6-0.9-0.5-3.5-1.5-4.6c-3.5-3.8-4.3,1-6.3,2.3
				c-1.3-2.1-3.2-4.1-3.7-6.5c-0.9-4-2.5-6.6-7-6.7c2.2-2.7,4.3-5.4,6.5-8.1c2.3,0.5,4.6,1,8,1.8C52.9,151,52.3,148.3,51.7,145.5z
				 M67.8,169.7c-0.1-0.1-0.3-0.2-0.4-0.2C67.5,169.5,67.6,169.6,67.8,169.7c0.1,0.1,0.3,0.2,0.4,0.2
				C68.1,169.8,67.9,169.8,67.8,169.7z M75.8,229.7c-0.1-0.1-0.3-0.2-0.4-0.2C75.5,229.5,75.6,229.6,75.8,229.7
				c0.1,0.1,0.3,0.2,0.4,0.2C76.1,229.8,75.9,229.8,75.8,229.7z M135.8,141.7c0.1-0.4,0.2-0.9,0.4-1.3
				C136,140.8,135.9,141.2,135.8,141.7c-0.1,0.1-0.2,0.3-0.2,0.4C135.6,142,135.7,141.8,135.8,141.7z M114.8,148.7
				c1.8-0.2,3.5-0.3,5.3-0.5c0-0.3,0.1-0.6,0.1-0.9c-1.8-0.6-3.7-1.1-5.8-1.8C114.6,147.1,114.7,147.9,114.8,148.7
				c-0.3,0.7-0.6,1.3-0.8,2c0.2,0.1,0.5,0.1,0.7,0.2C114.7,150.1,114.7,149.4,114.8,148.7z M68.8,163.7l-0.2-0.4l-0.2,0.2
				c0,0,0.4,0.2-0.7-1c1.4,3.1,2.2,4.7,3,6.4c0.5,0,1-0.1,1.4-0.1c0.3-1.4,1.4-3.1,0.9-4C72.3,163.8,70.4,163.6,68.8,163.7z
				 M60.8,180.7c0.6-0.4,1.6-0.8,1.8-1.4c0.7-2,1.2-4.2,1.8-6.5c-0.9-0.1-2.6-0.3-4.2-0.4C60.4,175.4,60.6,178.1,60.8,180.7
				c-0.1,0.1-0.2,0.3-0.2,0.4C60.6,181,60.7,180.8,60.8,180.7z M62.8,155.7c-0.4-0.1-0.9-0.2-1.3-0.4
				C61.9,155.4,62.3,155.6,62.8,155.7c1.3,1.3,2.7,2.6,4,3.9c0.6-0.4,1.3-0.9,1.9-1.3c-0.9-2.4-1.8-4.8-3-8
				C64.3,152.9,63.5,154.3,62.8,155.7z M70.8,150.7c-0.1-0.1-0.3-0.2-0.4-0.2C70.5,150.5,70.6,150.6,70.8,150.7c0,1.9,0,3.7,0,5.9
				c6.1-2.2,7.5-4,6.3-6.9C74.9,150,72.8,150.3,70.8,150.7z M129.8,143.7c-1.6,1-3.1,2-4.7,3c3.3,0.6,6.2,1.2,9.2,1.8
				c-2-10.9-2.5-12.9-7-10.4C128.2,140,129,141.9,129.8,143.7L129.8,143.7z M98.8,244.7C98.8,244.7,98.8,244.7,98.8,244.7
				c-0.2,1.1-0.4,2.2-0.6,3.5c2.1-0.6,4.5-0.7,5.5-1.9c0.8-1-0.4-3.4-0.3-5.2c0-1.3,0.7-2.6,1.1-3.9c-0.5-0.1-0.9-0.3-1.4-0.4
				c-1.9,1.7-3.9,3.3-5.5,5.3C96.7,242.8,95.1,245.3,98.8,244.7z M120.8,120.7c1.2,1.4,2.4,2.8,3.5,4c-1.9,1.6-3.6,3.1-5.4,4.5
				c0.3,0.4,0.7,0.8,1,1.2c1-0.8,2-1.6,3.3-2.6c0.1,1.5,0.2,2.5,0.3,5c3.6-3.3,6.3-5.8,9.8-9c-3.5-0.2-5.8-0.5-2.4-2.9
				c-3.2-0.7-6.2-1.5-9.6-2.2C121.2,119.2,121,119.9,120.8,120.7c-0.1,0.1-0.2,0.3-0.2,0.4C120.6,121,120.7,120.8,120.8,120.7z
				 M117.7,95.4c1.2,1.8,2.3,3.5,4.1,6.1c0.6-4.2,7.4-1,5.5-5.6C125.7,92.1,121.5,93.3,117.7,95.4z M132.4,165.7
				c1.3-1.1,3-2.3,2.9-2.5c-1.4-2.4-2.6-5.3-4.7-6.8c-1.5-1.1-4.4-0.2-6.7-0.2c0,0.6,0,1.1,0,1.7c2.2,0.3,4.4,0.6,7.1,1
				C131.3,160.6,131.7,162.6,132.4,165.7z M106.2,135.9c2.7,1.8,4.7,3.2,6.8,4.6c5-3,0.7-5.5,0.3-8.5
				C110.9,133.3,109.1,134.3,106.2,135.9z M145.4,216.8c0.4,0.2,0.8,0.3,1.2,0.5c0.8-1.9,1.6-3.8,2.5-6.2c-1.5-1.3-3.3-2.8-6-5
				C144,210.4,144.7,213.6,145.4,216.8z M149.2,228.5c-4.8,3.6-4.7,7.1-0.9,8.8C148.6,234.3,148.9,231.4,149.2,228.5z M80,176.2
				c-2.8,1.2-5.1,2.2-8.7,3.8c2.5,0.4,3.8,0.3,4.3,0.8c0.8,0.8,1.1,2.1,2.1,4.3C78.6,181.6,79.2,179.3,80,176.2z M74.5,195.4
				c0.6,0,1.3-0.1,1.9-0.1c0-2.3,0-4.6,0-6.9c-0.8,0-1.6,0.1-2.3,0.1C74.1,190.8,74.3,193.1,74.5,195.4z M125.5,111.1
				c-0.3,0.2-0.7,0.3-1,0.5c0.9,2,1.7,4,2.7,5.9c0,0.1,1.1-0.4,1.7-0.6c-0.8-1.7-1.5-3.4-2.3-5C126.4,111.5,125.9,111.3,125.5,111.1
				z M130.3,153.9c0.1-0.5,0.2-0.9,0.3-1.4c-1.2,0-2.4,0-3.6,0c0,0.5,0,0.9,0,1.4C128.1,153.9,129.2,153.9,130.3,153.9z M93.5,78.4
				c0.1-0.5,0.2-0.9,0.3-1.4c-1.3,0-2.6,0-3.8,0.1c0,0,0,1.1,0,1.3C91.3,78.4,92.4,78.4,93.5,78.4z M122.6,160.8c0,0.4,0,0.8,0,1.2
				c0.9,0,1.8,0,2.7,0c0-0.3,0-0.6,0-0.9C124.4,161,123.5,160.9,122.6,160.8z M89.1,136.7c-0.3,0.4-0.8,0.7-0.8,1
				c0,0.3,0.7,0.9,0.8,0.8c0.5-0.2,0.8-0.6,1.2-1C89.9,137.2,89.6,137,89.1,136.7z M57.4,181.4c-0.3-0.1-0.6-0.4-0.8-0.3
				c-0.2,0.1-0.4,0.6-0.3,0.8c0.1,0.2,0.6,0.4,0.8,0.3C57.2,182.1,57.3,181.7,57.4,181.4z M89.4,132.4c-0.3-0.1-0.6-0.4-0.8-0.3
				c-0.2,0.1-0.3,0.5-0.4,0.8c0.3,0.1,0.6,0.4,0.8,0.3C89.2,133.1,89.3,132.7,89.4,132.4z M95.3,126.4c-0.3-0.1-0.6-0.2-0.8-0.4
				c-0.1,0.3-0.4,0.6-0.3,0.8c0.1,0.2,0.5,0.3,0.8,0.4C95.1,127,95.2,126.7,95.3,126.4z M115.3,80.1c0.1-0.3,0.2-0.6,0.3-0.8
				c-0.6-0.2-1.3-0.4-1.9-0.5c-0.1,0.2-0.1,0.5-0.2,0.7C114.1,79.7,114.7,79.9,115.3,80.1z M120.3,142c0.3,0.1,0.6,0.3,0.9,0.4
				c0.1-0.6,0.2-1.2,0.3-1.8c-0.2,0-0.3-0.1-0.5-0.1C120.8,141,120.5,141.5,120.3,142z M84.2,138c0.3,0.1,0.6,0.4,0.8,0.3
				c0.2-0.1,0.3-0.5,0.4-0.8c-0.3-0.1-0.6-0.4-0.8-0.3C84.3,137.2,84.3,137.7,84.2,138z M124.3,152.4c-0.3-0.1-0.6-0.2-0.8-0.4
				c-0.1,0.3-0.4,0.6-0.3,0.8c0.1,0.2,0.5,0.3,0.8,0.4C124.1,153,124.2,152.7,124.3,152.4z M97.3,77.3c-0.5-0.3-0.8-0.6-1-0.5
				c-0.2,0.1-0.3,0.5-0.5,0.7C96.2,77.5,96.6,77.4,97.3,77.3z M105.5,152.3c0.1,0,0.3,0.1,0.4,0.1c0,0,0.1-0.2,0.1-0.4
				c-0.1,0-0.3-0.1-0.4-0.1C105.6,151.9,105.5,152.2,105.5,152.3z M109.4,76c0.1-0.1,0.1-0.3,0.1-0.4c0,0-0.2-0.1-0.4-0.1
				c0,0.1-0.1,0.3-0.1,0.4C109,75.9,109.3,75.9,109.4,76z M126.7,101.4c0.1-0.1,0.3-0.1,0.4-0.2c-0.1-0.1-0.2-0.3-0.4-0.3
				c-0.1,0-0.3,0.1-0.4,0.2C126.5,101.2,126.6,101.3,126.7,101.4z M120.2,155.3c-0.3-0.1-0.5-0.2-0.7-0.2c0,0.1,0.1,0.3,0.1,0.4
				C119.7,155.4,119.9,155.3,120.2,155.3z M117.5,161.7c-0.1-0.1-0.1-0.3-0.2-0.4c-0.1,0.1-0.3,0.2-0.3,0.4c0,0.1,0.1,0.3,0.2,0.4
				C117.3,161.9,117.4,161.8,117.5,161.7z M130.1,101.1c-0.1-0.1-0.3-0.1-0.4-0.2c0,0.1-0.1,0.2-0.1,0.4c0.1,0,0.3,0.1,0.4,0.1
				C130,101.4,130,101.2,130.1,101.1z M51.3,165.3c0,0.2,0,0.5-0.1,0.7c0.1-0.1,0.3-0.2,0.3-0.3C51.5,165.6,51.4,165.4,51.3,165.3z"
				/>
			<path fill="#C7D30A" d="M70.8,210.7c0-0.7,0-1.3,0-2c2,0.3,4,0.7,6,1l0,0c-0.4,0.2-0.9,0.3-1.3,0.5c0.4,0.2,0.9,0.3,1.3,0.5
				c0.7-0.3,1.3-0.7,2-1l0,0c0.7,0.3,1.3,0.7,2,1c0.7,1.3,1.3,2.7,2,4c-0.3,1.3-0.7,2.7-1,4c-1.1-1.3-2.2-2.7-3.9-4.6
				c-2.7,5.6-5.2,10.6-7.8,15.8c2.5,1.9,5,3.8,7.7,5.8c0.8-1.7,1.2-2.6,2.1-4.6c0.6,2.3,1,3.6,1.5,5.7c2.6-1.1,5-2.1,8.2-3.5
				c-1.2,3.3-2.1,5.7-3.4,9.2c1.7-1,2.4-1.5,2.5-1.5c1.5,3.7,3,7.4,4.5,11.1c-0.2,0-0.4,0.1-0.4,0.3c-5.5,1.4-5.2-3.4-6.3-5.7
				c-2.7-0.9-5-1.6-7.2-2.3c-1.5,1.8-4.7,4-5.4,3.3c-3-2.6-5.3-6-7.6-9.3c-0.3-0.5,0.4-1.7,0.9-3.3c3.2,5.9,4.3,6.2,10.2,2.8
				c-4.4-1.8-8.6-3.5-11.3-4.6c-3.3,1-5.9,2.6-6.9,1.9c-1.7-1.1-2.2-3.8-3.4-5.8c-0.5-0.8-1.4-1.2-2.1-1.9c-0.1-1.3-0.2-2.5-0.3-3.5
				c2.9,0.7,5.2,1.2,7.5,1.7c0.3-0.3,0.6-0.7,0.9-1c-1.5-1.2-2.7-2.8-4.4-3.6c-3.8-1.8-7.1,0-11.6,2c6.4,2.5,2.6,5.5,1.9,8.3
				c-3-0.3-6-0.7-9-1c-2.4-4.3-4.7-8.6-7.1-12.9c3.4-1.5,5-0.2,4.9,3.1c3.1-1.8,6.1-3.5,9.1-5.2c1.3-0.2,2.6-0.4,3.5-0.5
				c-0.2-2.5-0.4-4.2-0.7-7.1c2.8,1.6,4.4,2.4,5.4,2.9c-0.5,2.3-0.8,4-1.2,5.7c-0.1,0.1-0.2,0.3-0.2,0.4c0.1-0.1,0.2-0.3,0.2-0.4
				c1.1-0.8,2.1-1.5,3.6-2.6c1,1.7,1.9,3.2,2.8,4.9c1.6-3.3,3.1-6.3,4.6-9.4c1.7,0.3,3.3,0.7,5,1C69.4,210.7,70.1,210.7,70.8,210.7
				c0.1,0.1,0.3,0.2,0.4,0.2C71,210.8,70.9,210.8,70.8,210.7z"/>
			<path fill="#EEEC96" d="M49.6,177.6c-0.4,0.6-1.2,1.3-1,1.6c2.4,5.9-0.9,10.7-2.9,15.8c-0.7,1.9-1.3,4.8-2.7,5.4
				c-4.6,1.7-5.7,6-8.2,9.3c-1,0.7-2,1.3-3,2c-0.3,0.4-0.7,0.7-1,1.1c-1.1-3.8-2.9-7.4-3.3-11.3c-1.8-14.5,1.9-27.9,9.6-40.3
				c0.4-0.6,1.3-1,1.9-1.5c4.4,0.1,6.1,2.7,7,6.7c0.5,2.3,2.4,4.3,3.7,6.5C49.6,174.4,49.6,176,49.6,177.6z"/>
			<path fill="#CDD80E" d="M107.8,100.7c1,0.7,2,1.3,3,2c1.4,1.9,2.8,3.9,4.1,5.8c-0.2,0.1-0.5,0.3-0.7,0.4
				c-1.1-0.8-2.3-1.5-3.4-2.3l0,0c-2-0.7-4-1.3-6-2c-1,0-2,0-3,0c-3.3-1.3-2.8,1.2-3,3c-0.7,0.3-1.4,0.6-2,1c-0.7,0.3-1.3,0.7-2,1
				c-0.7,1-1.3,2-2,3c-1.7-1.2-3.4-2.4-5.5-3.8c0.1,1.6,0.1,2.9,0.2,4.4c-1.6,0-2.9,0-4.4,0c1.4,1.7,2.6,3,3.8,4.4
				c-0.3,0.6-0.7,1.2-1,1.7c-2.2-0.8-4.4-1.7-6.7-2.5c0.1,0.3,0.1,0.6,0.2,0.8c-2.7,0.2-5.3,0.4-8,0.7c1.2,4.8,2.3,9.6,3.5,14.4
				c-1.7-0.3-3.3-0.7-5-1c0.6-0.7,1.1-1.4,1.7-2.1c-0.4-0.4-0.8-0.8-1.2-1.2c-1.2,1.1-2.3,2.2-3.5,3.3c-0.3,1-0.7,2-1,3
				c-2.1,0.3-5.2-1.1-5,3l0,0c-0.7,0-1.3,0-2,0c-0.5-0.1-0.9-0.1-1.4-0.2c4.1-7.9,3.2-16.5,3.7-24.9c1.2-0.7,2.5-1.3,3.7-2
				c0.8,1.3,1.5,2.5,2.7,4.6c1.1-2,2-3.7,2.7-4.9c2.8,0.5,5.6,1.4,8.4,1.3c1.9-0.1,3.8-1.7,6.1-2.8c-1.4-1-3.4-2.5-4.8-3.5
				c0.7-2.5,1.3-4.5,1.9-6.6c0.3-1,0.7-2,1-3c1.3-0.3,2.7-0.7,4-1c0,1.3-0.1,2.7,0.1,4c0.2,1.2,0.6,2.8,1.4,3.4
				c1.2,0.8,2.9,0.9,4.4,1.3c0-0.9,0-1.8,0-2.7c0-0.3,0-0.7,0-1c1.3,0,2.7,0,4,0c3.2-1.7,6.4-3.3,9-4.7
				C106.3,96.6,107,98.7,107.8,100.7z M96.6,102.3c-0.4,0.2-0.8,0.4-1.2,0.6c-0.2,0.7-0.6,1.4-0.6,2c0,0.3,0.8,0.6,1.2,0.9
				c0.4-0.6,1-1.1,1.2-1.7C97.3,103.6,96.9,102.9,96.6,102.3z M68.4,125c-0.1,0.4-0.1,0.8-0.2,1.3c0.8,0.1,1.7,0.1,2.5,0.2
				c0-0.2,0.1-0.4,0.1-0.7C70.1,125.5,69.2,125.2,68.4,125z M69.4,121.4c-0.3-0.1-0.6-0.4-0.8-0.3c-0.2,0.1-0.3,0.5-0.4,0.8
				c0.3,0.1,0.6,0.4,0.8,0.3C69.2,122.1,69.3,121.7,69.4,121.4z"/>
			<path fill="#CCD70E" d="M53.8,227.7c0.7,0.6,1.6,1.1,2.1,1.9c1.2,1.9,1.7,4.6,3.4,5.8c1,0.7,3.6-0.9,6.9-1.9
				c2.7,1.1,6.9,2.8,11.3,4.6c-5.9,3.4-7,3.2-10.2-2.8c-0.5,1.6-1.2,2.8-0.9,3.3c2.4,3.3,4.7,6.7,7.6,9.3c0.7,0.6,3.9-1.6,5.4-3.3
				c2.2,0.7,4.4,1.4,7.2,2.3c1.1,2.3,0.8,7.1,6.3,5.7c-0.4,1.3-0.8,2.6-1.3,3.9c-22.1,0.7-39.7-7.9-52.8-25.8c3,0.3,6,0.7,9,1
				C50.8,231.8,52.9,230.7,53.8,227.7z"/>
			<path fill="#CDD80D" d="M64.8,110.7c-1.2,0.7-2.5,1.3-3.7,2c-1.2-13.6,0.5-26.3,11.5-36.1c1,1.1,2,2.3,3.1,3.5c1-0.5,2-0.9,3-1.4
				l0,0c1,2,2,4,3,6c0,0.7,0,1.3,0,2c-1.7,0.3-3.3,0.7-5,1c-1.7,0.7-3.3,1.3-5,2c-1.5,0.4-3.1,0.8-4.5,1.1c-0.2,2.3-0.5,4.7-0.7,7.5
				c1.5-1.3,3-2.2,3.8-3.4c0.8-1.2,0.9-2.8,1.4-4.2c1.7-1,3.3-2,5-3c2.3,1,4.7,2,7,3c-1.2,0.8-2.5,1.6-3.6,2.6
				c-1,0.8-2.1,1.8-2.6,2.9c-1,2.1-1.7,4.4-2.6,6.5c-0.4-0.5-0.9-1.1-1.3-1.6c-2.1,0-4.3,0-6.7,0c0.6,2.4,1,4.4,1.2,5.2
				C66.7,108.3,65.7,109.5,64.8,110.7z M78.1,82.1c-0.1,0-0.3-0.1-0.4-0.1c0,0-0.1,0.2-0.1,0.4c0.1,0,0.3,0.1,0.4,0.1
				C78,82.4,78,82.2,78.1,82.1z"/>
			<path fill="#D1DB18" d="M81.8,84.7c-1-2-2-4-3-6c0.1-0.1,0.2-0.3,0.2-0.4c-0.1,0.1-0.2,0.3-0.2,0.4c-1,0.5-2.1,1-3,1.4
				c-1.1-1.2-2.1-2.4-3.1-3.5c2.7-2,5.5-3.9,8.2-5.9c1,2.4,2,4.7,3.2,7.7c0.8,0.1,2.4,0.3,4.1,0.6C87.5,82.7,85.6,84.8,81.8,84.7z"
				/>
			<path fill="#CDD80E" d="M30.7,212.7c0.3-0.4,0.7-0.7,1-1.1c1.5,0.1,3.2,0.8,4.3,0.3c4.9-2.7,7.5,0.1,9.8,3.8
				c-3,1.7-6,3.5-9.1,5.2c0.1-3.3-1.5-4.6-4.9-3.1C31.4,216.1,31,214.4,30.7,212.7z"/>
			<path fill="#639922" d="M122,52.8c-4.2,4.9-9.9,6.5-16.1,6.7c0.3-0.8,0.6-1.5,0.9-2.3c0.9-0.9,1.7-1.7,2.6-2.6
				c0.5-0.3,1-0.7,1.5-1c0,0,0,0,0,0c3-2,6-4,9-6C121.2,49.1,118.5,52.3,122,52.8z"/>
			<path fill="#589217" d="M109.3,54.7c-0.9,0.9-1.7,1.7-2.6,2.6c-0.7,0.1-1.4,0.3-2.1,0.4c1.7-4.7,3.3-9.3,5-14c2,0,4,0,6.1,0
				c0,0,0,0,0,0c0.5,0.4,0.9,0.8,1.4,1.2c-2.1,3-4.2,5.9-6.4,8.9c0,0,0,0,0,0C110.3,54,109.8,54.3,109.3,54.7z"/>
			<path fill="#141713" d="M104.7,57.6c0.7-0.1,1.4-0.3,2.1-0.4c-0.3,0.8-0.6,1.5-0.9,2.3c-2.2,2.3-4.4,4.6-6.6,6.8
				c-0.9,0-1.8,0-2.7,0.1c0-5.7,0-11.3,0-17c0.6,0,1.2,0,1.7,0c0,4.5,0,9,0,14.3C101,61.1,102.8,59.4,104.7,57.6z"/>
			<path fill="#639922" d="M117.1,44.8c-0.5-0.4-0.9-0.8-1.4-1.2c0.1-0.1,0.1-0.3,0.2-0.4c-0.1,0.1-0.2,0.3-0.2,0.4c-2,0-4,0-6.1,0
				c5.4-6.9,9.1-8.5,14.5-6.1c-0.1,1-0.3,2.1-0.4,3.1l0,0C121.5,42.1,119.3,43.4,117.1,44.8z"/>
			<path fill="#589217" d="M122,52.8c-3.5-0.5-0.8-3.7-2.2-5.1c1.3-2.3,2.7-4.7,4-7c0,0,0,0,0,0c0.8-0.5,1.7-1,2.5-1.5
				C128.8,44.5,128,47.2,122,52.8z"/>
			<path fill="#110F0E" d="M91.5,256.5c0.4-1.3,0.8-2.6,1.3-3.9c0-0.2,0.2-0.3,0.4-0.3c5.6-3,8.4-1.8,10.3,4.2
				C99.5,256.4,95.5,256.4,91.5,256.5z"/>
			<path fill="#C3CF09" d="M51.7,145.5c0.6,2.7,1.1,5.5,1.6,7.8c-3.5-0.8-5.8-1.3-8-1.8C47.4,149.5,49.6,147.5,51.7,145.5z"/>
			<path fill="#BDCA09" d="M113.8,255.9c-0.7-0.2-1.4-0.5-2.2-0.7c-1.6-0.4-3.2-0.8-4.7-1.9c4-1.7,7.9-3.1,9.8,2.4
				C115.8,255.7,114.8,255.8,113.8,255.9z"/>
			<path fill="#141713" d="M126.2,39.1c-0.8,0.5-1.7,1-2.5,1.5c0.1-1,0.3-2.1,0.4-3.1C124.9,38.1,125.5,38.6,126.2,39.1z"/>
			<path fill="#CDD80D" d="M121.8,179.7c0.3,0,0.7,0,1,0c0.3,0,0.7,0,1,0c0,0.7,0,1.3,0,2c-2.6,2-7.3,1.4-8,6c0,0,0,0,0,0
				c-0.7,0.3-1.3,0.7-2,1c-1,0.7-2,1.3-3,2c-1,0.7-2,1.3-3,2c-5.3,1.1-7.7-2.3-9.8-6c1.8-2.7,3.3-5.1,4.9-7.4
				c-0.3-0.4-0.6-0.8-1-1.2c-1.3,0.7-2.6,1.3-3.8,2.1c-1.2,0.8-2.2,1.7-3.3,2.5c-3-3.7-0.4-6.8,1-10c0.6,0.8,1.3,1.5,1.8,2.3
				c0.4,0.5,0.6,1.6,1,1.6c0.9,0,2.5-0.2,2.6-0.6c0.9-4.7,3.6-2,5.8-1.5c1.5,0.4,2.9,0.7,4.9,1.1c-1-2.8-1.6-4.4-2.2-6.1
				c0.4-0.4,0.9-0.8,1.3-1.2c2.3,1.8,4.5,3.6,6.8,5.4c-0.3,0.3-0.7,0.7-1,1c-2.3,3.8,1.2,3.3,3,4c0,0,0,0,0,0
				C120.4,179,121.1,179.3,121.8,179.7z"/>
			<path fill="#C9D50B" d="M94.8,182.7c1.1-0.9,2.2-1.8,3.3-2.5c1.2-0.8,2.5-1.4,3.8-2.1c0.3,0.4,0.6,0.8,1,1.2
				c-1.6,2.4-3.1,4.8-4.9,7.4c2.1,3.7,4.5,7,9.8,6c0,1,0,2,0,3c-0.7,0-1.3,0-2,0c-1.8-0.4-3.6-0.8-5.4-1.2c-0.6,3.2-2.7,5.9,1.4,7.2
				c0,0.3,0,0.7,0,1c-3.6,1.6-3.5,4.5-2.7,7.7c0.4,1.4,0.4,2.9,0.7,4.3c-0.1-0.1-0.3-0.2-0.4-0.2c0.1,0.1,0.3,0.2,0.4,0.2
				c0.3,1.3,0.7,2.7,1,4c-0.7,0.7-1.3,1.3-2,2c-0.9-1.1-2.8-2.8-2.6-3.1c3-4.2-0.9-6.4-1.1-9.1c0.1-1.8,0.2-3.5,0.3-5.3
				c0.1-1,0.4-2.1,0.6-3.1c0.3-1.4,0.5-2.8-0.3-4.4c-0.9,1-1.9,2-2.8,3c0-2.9,1.7-6.9-4-6c-2-2.6-5.3-4.7-3.3-8.8
				c0-0.1-1.1-0.8-1.7-1.2c-0.3-0.7-0.7-1.3-1-2c0-0.3,0-0.7,0-1c1.3,0,2.7,0,4,0c0.7,0.7,1.3,1.3,2,2c0,0,0,0,0,0c1,1.3,2,2.7,3,4
				c1.1,0.8,2.3,1.5,3.4,2.3c-0.1-0.8-0.3-1.5-0.4-2.3C94.8,184.7,94.8,183.7,94.8,182.7z"/>
			<path fill="#D1DB18" d="M92.8,99.7c0,0.3,0,0.7,0,1c-1.1-1.5-2.2-3-3-4.1c1.4-1.8,2.5-3.2,3.4-4.4c2.3,0.2,4.2,0.3,6.4,0.5
				c-1.6-3.5-2.9-6.4-4.5-9.9c-0.7,0.2-2,0.6-3.4,1c-0.8,0.1-1.6,0.2-2.4,0.3c-0.2-0.4-0.3-0.9-0.5-1.3c1.4-0.5,2.7-1.3,4.1-1.6
				c1.9-0.4,3.9-0.5,6.4-0.8c1,2.8,2.2,6,3.4,9.3c-0.4,0.2-0.7,0.5-1.1,0.7c0.4-0.2,0.7-0.5,1.1-0.7c2.4,0.2,4.8,0.5,6.1,0.6
				c0.4-3,0.6-4.8,0.9-6.6c0.3,0,0.6,0,1,0c0.5,1.2,1.1,2.4,1.3,2.9c2.8,0.5,5.2,1,7.6,1.4c0,0.5,0.1,1.1,0.1,1.6c-1,0.3-2,0.7-3,1
				c-0.1-0.1-0.3-0.2-0.4-0.2c0.1,0.1,0.3,0.2,0.4,0.2c-2.1,1.5-2.3,5.2-6.3,4.8c-0.7-0.1-1.8,3.4-2.7,5.2c-0.7-2-1.4-4.1-2-5.7
				c-2.6,1.4-5.8,3-9,4.7c-0.9-0.9-1.9-1.8-2.8-2.7C93.6,97.9,93.2,98.8,92.8,99.7z"/>
			<path fill="#D1DB18" d="M74.8,132.7c-1.1-4.8-2.3-9.5-3.5-14.4c2.6-0.2,5.3-0.4,8-0.7c-0.1-0.3-0.1-0.6-0.2-0.8
				c2.2,0.8,4.4,1.7,6.7,2.5c0.3-0.6,0.7-1.2,1-1.7c-1.2-1.3-2.3-2.7-3.8-4.4c1.5,0,2.8,0,4.4,0c-0.1-1.5-0.1-2.8-0.2-4.4
				c2.1,1.5,3.8,2.6,5.5,3.8c0.3,0.1,0.6,0.1,0.9,0.2c0.1,0,0.1,0.2,0.2,0.4c-1.5,0.7-3.1,1.4-4.7,2.1c0.2,1.4,0.4,2.8,0.6,4.2
				c-0.3,1-0.7,2-1,3c-0.3,0.7-0.7,1.3-1,2c-0.7,1-1.4,2-2,3c-1.1,2-2,4-3,6c-0.7,0.3-1.3,0.7-2,1c-0.7,0-1.3,0-2,0
				c-1-0.7-2-1.3-3-2C75.4,132.7,75.1,132.7,74.8,132.7z"/>
			<path fill="#D1DB18" d="M105.8,195.7c0.7,0,1.3,0,2,0c0.4,5.1,5.4,3.9,8,6c0.5-0.4,1-0.8,1.6-1.2c-0.5-0.3-1-0.5-1.6-0.8
				c0-1,0-2,0-3c1.1,0.7,2.8,1.2,3.2,2.3c1.4,3.3,3.5,4.5,7,3.8c1.4-0.3,3.1,0.6,4.7,1c-0.2,0.6-0.4,1.2-0.6,1.8
				c-1.3-0.4-2.5-0.8-4-1.3c-0.1,7.6-2.4,11.5-9.9,5.5c-1.4,1.8-2.7,3.5-4.9,6.3c0-2.7,0-3.7,0-3.8c-2.2-0.6-3.9-1-5.6-1.5l0,0
				c0-0.7,0-1.3,0-2c1-0.3,2-0.7,3-1c0.1,0.1,0.3,0.2,0.4,0.2c-0.1-0.1-0.3-0.2-0.4-0.2c-0.9-2.3-1.7-4.6-2.6-7.1
				c-1.5,0.9-2.4,1.5-3.4,2.1l-0.5,0c0,0-0.5,0-0.5,0c0-0.3,0-0.7,0-1c0.7-1,1.3-2,2-3c0.1,0.1,0.3,0.2,0.4,0.2
				c-0.1-0.1-0.3-0.2-0.4-0.2c0.3-0.7,0.7-1.3,1-2c0-0.3,0-0.7,0-1C105.1,195.7,105.4,195.7,105.8,195.7z"/>
			<path fill="#D2DC19" d="M110.8,106.7c1.1,0.8,2.3,1.5,3.4,2.3c0.2-0.1,0.5-0.3,0.7-0.4c-1.4-1.9-2.8-3.9-4.1-5.8c0-0.3,0-0.7,0-1
				l0,0c1.1-0.7,2.2-1.5,2.5-1.7c2.3,2.5,4.8,5.2,7.1,7.6c-2.2,6.5-4.7,13.7-6.7,19.6c-2.9,1.6-5,3-7.4,3.9c-1.4,0.6-3,0.4-4.6,0.6
				c1-1.5,2-3.1,3-4.6c1-1.5,2-3,2.9-4.4c0.1,0.1,0.3,0.2,0.4,0.2c-0.1-0.1-0.3-0.2-0.4-0.2c-2.1-1.4-4.2-2.9-6.5-4.4
				c3.4-1,7.4-1,9.2-2.9C111.9,113.7,110.8,109.6,110.8,106.7z"/>
			<path fill="#D2DC1A" d="M119.8,178.7c-1.8-0.7-5.3-0.2-3-4c0.3-0.3,0.7-0.7,1-1c-2.3-1.8-4.5-3.6-6.8-5.4
				c-0.4,0.4-0.9,0.8-1.3,1.2c0.6,1.7,1.2,3.3,2.2,6.1c-2-0.5-3.4-0.8-4.9-1.1c-2.2-0.6-4.9-3.2-5.8,1.5c-0.1,0.4-1.7,0.7-2.6,0.6
				c-0.4,0-0.6-1.1-1-1.6c-0.6-0.8-1.2-1.5-1.8-2.3c-0.3-0.7-0.7-1.3-1-2c3,0.4,6.1,0.8,10.1,1.4c-0.5-2.5-0.8-4.2-1.1-6
				c-1.7,0.6-3,1-5.1,1.7c0.5-2.2,0.8-3.7,1.2-5.2c0.2,0.5,0.5,0.9,0.7,1.4c2.9-1.3,5.8-2.6,9-4c-2-1.9-3.4-3.3-4.8-4.7
				c0.5-0.5,1-1,1.6-1.6c4,4,8,7.9,12,12C118.8,169.9,119.3,174.3,119.8,178.7z M108.5,166.1c-0.1,0.3-0.4,0.6-0.3,0.8
				c0.1,0.2,0.5,0.3,0.8,0.4c0.1-0.3,0.4-0.6,0.3-0.8C109.2,166.2,108.8,166.2,108.5,166.1z"/>
			<path fill="#D2DC1B" d="M45.8,215.7c-2.3-3.6-4.8-6.5-9.8-3.8c-1.1,0.6-2.9-0.1-4.3-0.3c1-0.7,2-1.3,3-2
				c3.2-0.4,6.4-0.7,10.7-1.2c-1.5-1.4-2.1-1.9-3-2.7c1.3-0.4,2.3-0.8,3.4-1.1l0,0c0.4,1.4,0.8,2.8,1.5,5.1
				c1.3-4.2,9.7-5.6,1.8-11.4c3,0.2,4.9,0.3,7.3,0.5c0.2,0.8,0.5,1.9,0.9,3c1.2-0.4,2.4-0.8,3.6-1.2l0,0c1,1.7,2,3.3,3,5
				c-1.9,0.5-3.8,1.1-5.7,1.6c0,0.5,0.1,0.9,0.1,1.4c1.9,0.3,3.7,0.7,5.6,1c-1.5,3-3,6.1-4.6,9.4c-1-1.7-1.9-3.3-2.8-4.9
				c-1.5,1-2.5,1.8-3.6,2.6l0,0c0.3-1.7,0.7-3.4,1.2-5.7c-1-0.5-2.5-1.4-5.4-2.9c0.3,2.9,0.4,4.6,0.7,7.1
				C48.4,215.3,47.1,215.5,45.8,215.7z"/>
			<path fill="#C7D30A" d="M110.8,106.7c0,3,1.1,7-0.3,8.6c-1.8,2-5.8,2-9.2,2.9c2.3,1.6,4.4,3,6.5,4.4c0,0,0,0,0,0
				c-1,1.5-2,3-2.9,4.4c-1,1.5-2,3.1-3,4.6c-0.3,0-0.7,0-1,0c0-0.3,0-0.7,0-1c0-0.3,0-0.7,0-1c-0.3-0.7-0.7-1.3-1-2
				c-0.2-2-0.4-3.9-0.6-5.9c0.4-0.1,0.8-0.3,1.3-0.4c-1.9-1.2-3.8-2.4-5.7-3.7c1.3-1.2,2.7-2.3,4-3.5c-1.1-1.3-2.2-2.5-3.3-3.8
				c-0.2-0.2-0.4-0.5-0.7-0.7c0.7-0.3,1.3-0.7,2-1c0.7-0.3,1.4-0.7,2-1c1-1,2-2,3-3c1,0,2,0,3,0c-0.9,1.4-1.7,2.9-2.9,4.9
				C105.3,108.4,108,107.6,110.8,106.7L110.8,106.7z"/>
			<path fill="#C9D50B" d="M80.8,210.7c-0.7-0.3-1.3-0.7-2-1c0-1,0-2,0-3c0.3-1.3,0.7-2.7,1-4c1-0.3,2-0.7,3-1c1.3,0.7,2.7,1.3,4,2
				c0,0,0,0,0,0c-0.8,2.2-1,4.3,2,5c0.4,1,0.7,2.1,1.1,3.1c1.3,2.9,0.8,4.9-2.2,6.6c-1.9,1.1-3,3.7-4.7,5.2c-1,0.9-2.7,1-4.1,1.4
				c0.1-1.1,0-2.4,0.4-3.3c0.6-1.2,1.6-2.1,2.5-3.1c0.3-1.3,0.7-2.7,1-4C83.8,211.3,83.4,210.5,80.8,210.7z"/>
			<path fill="#C3CF09" d="M82.7,201.7c-1,0.3-2,0.7-3,1c-0.4-0.8-1.4-1.7-1.3-2.3c1.6-5.9,3.5-11.8,5.3-17.8
				c0.6,0.4,1.8,1.1,1.7,1.2c-2,4.1,1.3,6.2,3.3,8.8c-1.1,1.1-2.3,2.1-2.9,2.7c1.3,1.5,2.6,2.9,3.9,4.3c-0.7,0.7-1.3,1.3-2,2
				c0-0.7,0-1.3,0-2c0.1-0.1,0.2-0.3,0.2-0.4c-0.1,0.1-0.2,0.3-0.2,0.4C86.1,200.3,84.4,201,82.7,201.7z"/>
			<path fill="#CDD80D" d="M91.8,83.7c1.4-0.4,2.7-0.8,3.4-1c1.6,3.5,2.9,6.4,4.5,9.9c-2.3-0.2-4.2-0.3-6.4-0.5
				c-0.9,1.2-2.1,2.7-3.4,4.4c0.8,1.1,1.9,2.6,3,4.1c0,0.9,0,1.8,0,2.7c-1.5-0.4-3.2-0.5-4.4-1.3c-0.9-0.6-1.2-2.2-1.4-3.4
				c-0.2-1.3-0.1-2.6-0.1-4c-0.7-1.3-1.3-2.7-2-4c1.4-0.3,2.8-0.7,4.2-0.9c1.4-0.2,2.9-0.3,4.4-0.4c-0.5-1.6-1-3.1-1.5-4.7
				C91.8,84.3,91.8,84,91.8,83.7z"/>
			<path fill="#D2DC1B" d="M101.8,150.7c0.8,0.9,1.5,1.7,2.2,2.5c-4.1,0.9-7.7,1.7-11.2,2.5c-0.7,0-1.3,0-2,0
				c0.2-1.1,0.5-2.1,0.7-3.5c-4.1,1-6.9,0.3-6.8-4.5c0.7,0,1.3,0,2,0c0.3,0,0.7,0,1,0c0.7-0.7,1.3-1.3,2-2c1.3-0.7,2.7-1.3,4-2
				c0,1,0,2,0,3c-0.1,0.1-0.2,0.3-0.2,0.4c0.1-0.1,0.2-0.3,0.2-0.4C96.4,148,99.1,149.3,101.8,150.7z"/>
			<path fill="#D2DC1A" d="M74.8,132.7c0.3,0,0.7,0,1,0c1,1,2,2,3,3c0,0.3,0,0.7,0,1c-0.3,1-0.7,2-1,3c0,0.3,0,0.7,0,1
				c0,0,0.5,0,0.5,0l0.5,0c0,0.7,0,1.3,0,2c0,0.3,0,0.7,0,1c-1,0-2,0-3,0c-0.3-0.3-0.7-0.7-1-1c-0.8-2-1.6-3.9-2.4-5.9
				c-0.4,0.1-0.7,0.2-1.1,0.2c-0.2,0.9-0.4,1.8-0.6,2.6c-1.3,2.9-2.7,5.8-4,8.6c-0.1,0.1-0.2,0.2-0.2,0.3c-0.2-0.3-0.5-0.6-0.7-1
				c-1-0.7-2-1.3-3-2c0-0.3,0-0.7,0-1c0-0.3,0-0.7,0-1c0-1.3,0-2.7,0-4c1.6,0.8,2.5,4.7,5,1c-0.3-0.7-0.7-1.3-1-2
				c-0.3-1.3-0.7-2.7-1-4c0.3-1,0.7-2,1-3c1,0,2,0,3,0C71.4,132,73.1,132.3,74.8,132.7z"/>
			<path fill="#D2DC1A" d="M115.8,196.7c0,1,0,2,0,3c0,0.7,0,1.3,0,2c-2.6-2.1-7.6-0.9-8-6c0-1,0-2,0-3c1-0.7,2-1.3,3-2
				c2.8,2.1,2.9,0.1,3-2c0.7-0.3,1.3-0.7,2-1c1.3,2,2.6,4,4.2,6.3C118.4,195,117.1,195.8,115.8,196.7z M110.5,195.1
				c-0.1,0.3-0.2,0.6-0.4,0.8c0.3,0.1,0.6,0.4,0.8,0.3c0.2-0.1,0.3-0.5,0.4-0.8C111.1,195.3,110.8,195.2,110.5,195.1z"/>
			<path fill="#D2DC1B" d="M120.8,120.7c0.2-0.8,0.5-1.5,0.6-1.9c3.4,0.8,6.4,1.5,9.6,2.2c-3.4,2.4-1.1,2.7,2.4,2.9
				c-3.6,3.3-6.2,5.7-9.8,9c-0.2-2.5-0.2-3.5-0.3-5c-1.2,1-2.3,1.8-3.3,2.6c-0.3-0.4-0.7-0.8-1-1.2c1.8-1.5,3.5-3,5.4-4.5
				C123.2,123.4,122,122.1,120.8,120.7L120.8,120.7z M125.5,127.3c0.1,0,0.3,0.1,0.4,0.1c0,0,0.1-0.2,0.1-0.4
				c-0.1,0-0.3-0.1-0.4-0.1C125.6,126.9,125.5,127.2,125.5,127.3z"/>
			<path fill="#C3CF09" d="M94.8,170.7c0.3,0.7,0.7,1.3,1,2c-1.4,3.2-4,6.3-1,10c0,1,0,2,0,3c-1,0-2,0-3,0c-1-1.3-2-2.7-3-4
				c0.2-1.2,0.7-2.4,0.5-3.5c-0.3-1.6-1.2-3-1.8-4.5c1.5-0.3,3-0.6,4.7-0.9c-0.2-0.6-0.5-1.4-1-2.6
				C92.5,170.4,93.6,170.5,94.8,170.7z"/>
			<path fill="#D1DB18" d="M90.8,155.7c0.7,0,1.3,0,2,0c1.5,2.1,3,4.2,4.9,6.8c-2.6,0.2-4.4,0.3-6.9,0.4c1,1.2,1.5,1.9,2.4,3
				c-1.4,0.3-2.5,0.5-4.2,0.8c0-2,0-3.4,0-4.9c-0.3-0.1-0.6-0.2-0.9-0.3c-0.8,1.1-1.5,2.1-2.5,3.5c-1-0.9-2-1.8-3.5-3.3
				c3-1.4,5.6-2.5,8.2-3.8C90.7,157.7,90.6,156.5,90.8,155.7z"/>
			<path fill="#D1DB18" d="M98.8,220.7c0.7-0.7,1.3-1.3,2-2c2,1.2,4.1,2.4,5.5,3.2c3-0.7,5.5-1.3,9.2-2.1c-0.3,3.2-0.5,5.5-0.7,7.9
				c-2.2-0.9-4.3-2.1-6.5-2.7c-1.4-0.3-3,0.4-4.5,0.7C102.1,224,100.4,222.3,98.8,220.7z"/>
			<path fill="#CDD80D" d="M93.8,146.7c0-1,0-2,0-3c1-1.7,2-3.3,3-5c1.7,0.3,3.3,0.7,5,1c-0.3,0.7-0.7,1.3-1,2
				c-0.4,0.3-0.9,0.5-1.3,0.8c0.8,0.1,1.6,0.1,2.3,0.2c0,0,0,0,0,0c-0.4,1-1,2-1,3.1c0,1,0.6,2,1,3c0,0.7,0,1.3,0,2
				C99.1,149.3,96.4,148,93.8,146.7L93.8,146.7z"/>
			<path fill="#D1DB18" d="M91.8,84.7c0.5,1.6,1,3.1,1.5,4.7c-1.5,0.1-2.9,0.2-4.4,0.4c-1.4,0.2-2.8,0.6-4.2,0.9c-0.3,0-0.7,0-1,0
				c-2.3-1-4.7-2-7-3c0,0,0,0,0,0c1.7-0.3,3.3-0.7,5-1C85.4,87.5,89,88.3,91.8,84.7z"/>
			<path fill="#D2DC19" d="M49.6,177.6c0-1.6,0-3.2-0.1-4.8c1.9-1.3,2.7-6.1,6.3-2.3c1,1.1,2.1,3.7,1.5,4.6c-1,1.5-3.1,2.4-4.9,3.2
				C51.7,178.6,50.5,177.9,49.6,177.6z"/>
			<path fill="#CDD80D" d="M94.8,109.7c0.2,0.2,0.4,0.5,0.7,0.7c1.1,1.3,2.2,2.5,3.3,3.8c-1.3,1.2-2.7,2.3-4,3.5
				c-1.7,0.7-3.3,1.3-5,2c-0.2-1.4-0.4-2.9-0.6-4.2c1.6-0.7,3.1-1.4,4.7-2.1c-0.1-0.1-0.1-0.3-0.2-0.4c-0.3-0.1-0.6-0.2-0.9-0.2
				C93.4,111.7,94.1,110.7,94.8,109.7z"/>
			<path fill="#B6C509" d="M98.8,244.7c-3.6,0.7-2-1.9-1.3-2.7c1.6-2,3.7-3.5,5.5-5.3c0.5,0.1,0.9,0.3,1.4,0.4
				c-0.4,1.3-1,2.6-1.1,3.9c-0.1,1.8,1.1,4.2,0.3,5.2c-1,1.2-3.5,1.3-5.5,1.9C98.4,246.9,98.6,245.8,98.8,244.7
				c0.9-0.4,1.8-0.9,2.6-1.4c-0.4-0.4-0.8-0.8-1.2-1.2C99.7,242.9,99.2,243.8,98.8,244.7z"/>
			<path fill="#D2DC1B" d="M129.8,143.7c-0.8-1.8-1.6-3.7-2.5-5.6c4.5-2.5,5-0.6,7,10.4c-3.1-0.6-6-1.1-9.2-1.8
				C126.6,145.7,128.2,144.7,129.8,143.7c0.4,0.5,0.8,1,1.2,1.5c0.1-0.1,0.2-0.2,0.3-0.3C130.8,144.5,130.3,144.1,129.8,143.7z"/>
			<path fill="#D2DC19" d="M117.7,95.4c3.8-2.1,8-3.3,9.5,0.4c1.9,4.6-4.9,1.4-5.5,5.6C120,98.9,118.9,97.2,117.7,95.4z M123.5,95.7
				c-0.2-0.1-0.5-0.2-0.7-0.3c-0.1,0-0.3,0.3-0.3,0.3c0.1,0.2,0.3,0.4,0.4,0.6C123.1,96.1,123.3,95.9,123.5,95.7z"/>
			<path fill="#D2DC19" d="M132.4,165.7c-0.6-3.1-1-5.2-1.3-6.8c-2.7-0.4-4.9-0.7-7.1-1c0-0.6,0-1.1,0-1.7c2.3,0,5.1-0.9,6.7,0.2
				c2.1,1.5,3.3,4.4,4.7,6.8C135.4,163.4,133.7,164.6,132.4,165.7z"/>
			<path fill="#D2DC1B" d="M106.2,135.9c2.9-1.6,4.8-2.7,7.1-3.9c0.5,3,4.7,5.5-0.3,8.5C110.9,139.1,108.8,137.7,106.2,135.9z"/>
			<path fill="#D2DC19" d="M67.8,140.7c-2.5,3.8-3.4-0.2-5-1c-1.3,0.3-2.7,0.7-4,1l0,0c0-1,0-2,0-3c0.7,0,1.3,0,2,0
				c0.1,0.1,0.3,0.1,0.4,0.2c-0.1-0.1-0.3-0.2-0.4-0.2c-0.2-4.1,2.9-2.7,5-3c0.3,1.3,0.7,2.7,1,4c0,0.3,0,0.7,0,1c0,0.3,0,0.7,0,1
				C67.1,140.7,67.4,140.7,67.8,140.7z"/>
			<path fill="#C3CF09" d="M103.8,225.7c1.5-0.3,3.1-1,4.5-0.7c2.3,0.5,4.4,1.8,6.5,2.7c0,0.3,0,0.7,0,1c-0.7,0.7-1.3,1.3-2,2
				c-1.2-0.4-2.4-0.8-3.6-1.2c-1.8-0.6-3.6-1.2-5.4-1.8c0-0.3,0-0.7,0-1C103.8,226.4,103.8,226,103.8,225.7z"/>
			<path fill="#D2DC1B" d="M101.8,148.7c-0.4-1-1-2-1-3c0-1,0.6-2,1-3.1c1-0.5,2-1,3.2-1.6c0.9,1.4,1.9,2.8,3.2,4.7
				c-2.2,0.3-2.5,4.6-5.5,1.4C102.4,147.7,102.1,148.2,101.8,148.7z"/>
			<path fill="#D2DC19" d="M70.8,150.7c2.1-0.3,4.1-0.7,6.3-1c1.2,2.8-0.2,4.7-6.3,6.9C70.8,154.4,70.8,152.5,70.8,150.7L70.8,150.7
				z"/>
			<path fill="#B6C509" d="M89.8,199.7c-1.3-1.4-2.5-2.8-3.9-4.3c0.6-0.6,1.7-1.6,2.9-2.7c5.7-0.9,4,3.1,4,6c0,0.3,0,0.7,0,1
				C91.7,199.7,90.8,199.7,89.8,199.7z"/>
			<path fill="#D2DC1A" d="M145.4,216.8c-0.7-3.2-1.4-6.4-2.3-10.8c2.7,2.3,4.5,3.8,6,5c-1,2.3-1.7,4.3-2.5,6.2
				C146.2,217.2,145.8,217,145.4,216.8z"/>
			<path fill="#C9D50B" d="M108.8,207.7c-1,0.3-2,0.7-3,1c-1-2-2-4-3-6c0.9-0.6,1.9-1.2,3.4-2.1
				C107.1,203.1,107.9,205.4,108.8,207.7L108.8,207.7z"/>
			<path fill="#BDCA09" d="M63.8,209.7c-1.9-0.3-3.7-0.7-5.6-1c0-0.5-0.1-0.9-0.1-1.4c1.9-0.5,3.8-1.1,5.7-1.6c1.7,1.7,3.3,3.3,5,5
				C67.1,210.3,65.4,210,63.8,209.7z"/>
			<path fill="#D2DC1B" d="M62.8,155.7c0.8-1.4,1.5-2.8,3-5.4c1.2,3.3,2.1,5.7,3,8c-0.6,0.4-1.3,0.9-1.9,1.3
				C65.5,158.3,64.1,157,62.8,155.7L62.8,155.7z"/>
			<path fill="#D2DC19" d="M149.2,228.5c-0.3,2.9-0.6,5.7-0.9,8.8C144.5,235.6,144.4,232.1,149.2,228.5z"/>
			<path fill="#D2DC1A" d="M101.8,139.7c-1.7-0.3-3.3-0.7-5-1c1.2-1.3-4.1-2.7,0-4c0,0,0,0,0,0c2.8,1,5.6,2,8.9,3.2
				C104.2,138.5,103,139.1,101.8,139.7z"/>
			<path fill="#D2DC1A" d="M80,176.2c-0.8,3.1-1.4,5.4-2.4,8.9c-1-2.2-1.3-3.5-2.1-4.3c-0.5-0.5-1.7-0.4-4.3-0.8
				C74.9,178.5,77.2,177.4,80,176.2z"/>
			<path fill="#C9D50B" d="M89.8,199.7c1,0,2,0,3,0c-0.7,2.3-1.3,4.7-2,7c0.3-3.2-1.9-3.1-4-3c0,0,0,0,0,0c0.3-0.7,0.7-1.3,1-2
				C88.4,201,89.1,200.3,89.8,199.7z"/>
			<path fill="#D2DC1B" d="M115.8,187.7c0.7-4.6,5.4-4,8-6c0.3,0.7,0.8,1.9,0.7,2C121.6,185.1,118.7,186.4,115.8,187.7z"/>
			<path fill="#D2DC19" d="M60.8,180.7c-0.2-2.6-0.4-5.2-0.6-8.2c1.6,0.2,3.3,0.3,4.2,0.4c-0.6,2.3-1.1,4.4-1.8,6.5
				C62.3,179.9,61.4,180.2,60.8,180.7C60.8,180.7,60.8,180.7,60.8,180.7z"/>
			<path fill="#C3CF09" d="M74.5,195.4c-0.2-2.3-0.3-4.6-0.5-6.9c0.8,0,1.6-0.1,2.3-0.1c0,2.3,0,4.6,0,6.9
				C75.7,195.4,75.1,195.4,74.5,195.4z"/>
			<path fill="#D2DC1A" d="M67.7,162.4c2.7,1.1,4.7,1.3,5.3,2.4c0.5,0.8-0.5,2.6-0.9,4c-0.5,0-1,0.1-1.4,0.1
				C69.9,167.2,69.1,165.5,67.7,162.4z"/>
			<path fill="#C3CF09" d="M86.8,203.7c2.1-0.1,4.3-0.2,4,3c-0.7,0.7-1.3,1.3-2,2C85.7,208,86,205.9,86.8,203.7z"/>
			<path fill="#D2DC1B" d="M125.5,111.1c0.4,0.2,0.9,0.4,1,0.7c0.8,1.7,1.6,3.4,2.3,5c-0.6,0.2-1.7,0.7-1.7,0.6
				c-1-1.9-1.8-3.9-2.7-5.9C124.9,111.4,125.2,111.2,125.5,111.1z"/>
			<path fill="#BDCA09" d="M78.8,206.7c0,1,0,2,0,3c0,0,0,0,0,0c-0.7,0-1.3,0-2,0c-2-0.3-4-0.7-6-1C72.3,203.6,76,207,78.8,206.7z"
				/>
			<path fill="#D2DC1B" d="M110.7,83.7c-0.3,0-0.6,0-1,0c-3.8-3.1-2.5-4.9,1.8-6.2C111.3,79.6,111,81.7,110.7,83.7z"/>
			<path fill="#D2DC19" d="M70.8,139.7c0.2-0.9,0.4-1.8,0.6-2.6c0.4-0.1,0.7-0.2,1.1-0.2c0.8,2,1.6,3.9,2.4,5.9
				C73.4,141.7,72.1,140.7,70.8,139.7z"/>
			<path fill="#D2DC1A" d="M114.8,148.7c-0.1-0.8-0.2-1.6-0.4-3.2c2.2,0.7,4,1.2,5.8,1.8c0,0.3-0.1,0.6-0.1,0.9
				C118.3,148.4,116.5,148.5,114.8,148.7L114.8,148.7z"/>
			<path fill="#D2DC1A" d="M100.7,130.7c0,0.3,0,0.7,0,1c-1,0.3-2,0.7-3,1l0,0c0.7-1.7,1.3-3.3,2-5c0.3,0.7,0.7,1.3,1,2
				c-0.1,0.1-0.4,0.2-0.4,0.3C100.5,130.2,100.6,130.5,100.7,130.7z"/>
			<path fill="#D2DC19" d="M130.3,153.9c-1.1,0-2.2,0-3.3,0c0-0.5,0-0.9,0-1.4c1.2,0,2.4,0,3.6,0C130.5,153,130.4,153.4,130.3,153.9
				z"/>
			<path fill="#D1DB18" d="M93.5,78.4c-1.1,0-2.2,0-3.6,0c0-0.2,0-1.3,0-1.3c1.3-0.1,2.6-0.1,3.8-0.1C93.7,77.5,93.6,78,93.5,78.4z"
				/>
			<path fill="#D2DC1B" d="M60.8,200.7c-0.2-0.6-0.5-1.2-0.9-2.1c1.6,0,3,0,4.4,0c0.1,0.3,0.2,0.5,0.3,0.8
				C63.3,199.8,62,200.2,60.8,200.7C60.8,200.7,60.8,200.7,60.8,200.7z"/>
			<path fill="#D2DC1B" d="M45.8,204.7c0.6-1,1.3-2,1.9-3c0.5,0.5,1,1,1.6,1.6C48.1,203.7,46.9,204.2,45.8,204.7
				C45.8,204.7,45.8,204.7,45.8,204.7z"/>
			<path fill="#CDD80D" d="M78.8,135.7c-1-1-2-2-3-3c1,0.7,2,1.3,3,2C78.8,135,78.8,135.4,78.8,135.7z"/>
			<path fill="#D2DC19" d="M62.8,145.7c1,0.7,2,1.3,3,2c-1.4,0-2.7,0-4.1,0c-0.4-0.5-0.7-0.9-1.1-1.4
				C61.3,146.1,62,145.9,62.8,145.7z"/>
			<path fill="#CDD80D" d="M78.8,140.7l-0.5,0c0,0-0.5,0-0.5,0c0-0.3,0-0.7,0-1c0.3-1,0.7-2,1-3C78.8,138,78.8,139.4,78.8,140.7z"/>
			<path fill="#D1DB18" d="M103.8,226.7c0,0.3,0,0.7,0,1c-1,0.4-2,0.7-3.1,1.1c-0.1-0.4-0.2-0.9-0.4-1.3
				C101.5,227.2,102.6,226.9,103.8,226.7z"/>
			<path fill="#D2DC19" d="M122.6,160.8c0.9,0.1,1.8,0.2,2.6,0.3c0,0.3,0,0.6,0,0.9c-0.9,0-1.8,0-2.7,0
				C122.6,161.6,122.6,161.2,122.6,160.8z"/>
			<path fill="#CDD80D" d="M86.8,147.7c-0.7,0-1.3,0-2,0c-0.3-0.3-0.6-0.7-1-1c0-0.3,0-0.7,0-1C84.8,146.3,85.8,147,86.8,147.7z"/>
			<path fill="#CDD80D" d="M89.1,136.7c0.5,0.3,0.8,0.6,1.2,0.8c-0.4,0.3-0.7,0.8-1.2,1c-0.1,0.1-0.8-0.5-0.8-0.8
				C88.3,137.4,88.8,137,89.1,136.7z"/>
			<path fill="#D2DC19" d="M57.4,181.4c-0.1,0.3-0.2,0.7-0.4,0.8c-0.2,0.1-0.7-0.1-0.8-0.3c-0.1-0.2,0.1-0.7,0.3-0.8
				C56.8,181,57.1,181.3,57.4,181.4z"/>
			<path fill="#CDD80D" d="M87.8,124.7c0.3-0.7,0.7-1.3,1-2C88.4,123.3,88.1,124,87.8,124.7z"/>
			<path fill="#CDD80D" d="M89.4,132.4c-0.1,0.3-0.2,0.7-0.4,0.8c-0.2,0.1-0.5-0.2-0.8-0.3c0.1-0.3,0.2-0.7,0.4-0.8
				C88.8,132,89.1,132.3,89.4,132.4z"/>
			<path fill="#CDD80D" d="M95.3,126.4c-0.1,0.3-0.2,0.6-0.4,0.8c-0.3-0.1-0.7-0.2-0.8-0.4c-0.1-0.2,0.2-0.5,0.3-0.8
				C94.8,126.2,95.1,126.3,95.3,126.4z"/>
			<path fill="#CDD80D" d="M89.8,145.7c-0.7,0.7-1.3,1.3-2,2C88.4,147,89.1,146.3,89.8,145.7z"/>
			<path fill="#D2DC1A" d="M123.8,179.7c-0.3,0-0.7,0-1,0c0.4-0.5,0.9-1,1.3-1.5C124,178.7,123.9,179.2,123.8,179.7z"/>
			<path fill="#D2DC1A" d="M121.8,179.7c-0.7-0.3-1.3-0.7-2-1C120.4,179,121.1,179.3,121.8,179.7z"/>
			<path fill="#C3CF09" d="M88.8,181.7c-0.7-0.7-1.3-1.3-2-2C87.4,180.3,88.1,181,88.8,181.7z"/>
			<path fill="#D2DC1B" d="M115.3,80.1c-0.6-0.2-1.2-0.4-1.8-0.7c0.1-0.2,0.1-0.5,0.2-0.7c0.6,0.2,1.3,0.4,1.9,0.5
				C115.5,79.5,115.4,79.8,115.3,80.1z"/>
			<path fill="#CDD80D" d="M78.8,143.7c0-0.3,0-0.7,0-1c0.5,0.4,1,0.9,1.5,1.3C79.8,143.9,79.3,143.8,78.8,143.7z"/>
			<path fill="#D2DC1B" d="M101.8,142.7c-0.8-0.1-1.6-0.1-2.3-0.2c0.4-0.3,0.9-0.5,1.3-0.8C101.1,142,101.4,142.3,101.8,142.7z"/>
			<path fill="#D2DC19" d="M58.8,140.7c-0.4,0.5-0.8,1-1.2,1.5c-0.1-0.1-0.2-0.2-0.3-0.3C57.8,141.5,58.3,141.1,58.8,140.7
				C58.8,140.7,58.8,140.7,58.8,140.7z"/>
			<path fill="#D2DC1B" d="M120.3,142c0.2-0.5,0.5-1,0.7-1.5c0.2,0,0.3,0.1,0.5,0.1c-0.1,0.6-0.2,1.2-0.3,1.8
				C120.9,142.3,120.6,142.2,120.3,142z"/>
			<path fill="#D1DB18" d="M112.8,230.7c0.7-0.7,1.3-1.3,2-2C114.1,229.3,113.4,230,112.8,230.7z"/>
			<path fill="#CDD80D" d="M84.2,138c0.1-0.3,0.2-0.7,0.4-0.8c0.2-0.1,0.5,0.2,0.8,0.3c-0.1,0.3-0.2,0.7-0.4,0.8
				C84.8,138.3,84.4,138.1,84.2,138z"/>
			<path fill="#D2DC1A" d="M124.4,152.4c-0.1,0.3-0.2,0.6-0.4,0.8c-0.3-0.1-0.7-0.2-0.8-0.4c-0.1-0.2,0.2-0.5,0.3-0.8
				C123.8,152.2,124.1,152.3,124.4,152.4z"/>
			<path fill="#CDD80D" d="M80.8,134.7c0.7-0.3,1.3-0.7,2-1C82.1,134,81.4,134.3,80.8,134.7z"/>
			<path fill="#D1DB18" d="M97.3,77.3c-0.6,0.1-1.1,0.1-1.5,0.2c0.2-0.2,0.3-0.6,0.5-0.7C96.5,76.7,96.8,77.1,97.3,77.3z"/>
			<path fill="#D2DC1A" d="M114.8,148.7c-0.1,0.7-0.1,1.5-0.2,2.2c-0.2-0.1-0.5-0.1-0.7-0.2C114.2,150,114.5,149.4,114.8,148.7
				C114.8,148.7,114.8,148.7,114.8,148.7z"/>
			<path fill="#D2DC19" d="M62.8,143.7c0,0.3,0,0.7,0,1c-0.4-0.2-0.9-0.3-1.3-0.5C61.9,144,62.3,143.8,62.8,143.7z"/>
			<path fill="#D1DB18" d="M105.8,210.7c-0.7,0.3-1.4,0.6-2.1,0.9c0-0.2-0.1-0.5-0.1-0.7C104.3,210.8,105,210.7,105.8,210.7
				C105.8,210.7,105.8,210.7,105.8,210.7z"/>
			<path fill="#D2DC1B" d="M105.5,152.3c0-0.1,0.1-0.4,0.1-0.4c0.1,0,0.3,0.1,0.4,0.1c0,0.1-0.1,0.4-0.1,0.4
				C105.8,152.4,105.6,152.3,105.5,152.3z"/>
			<path fill="#D2DC1B" d="M109.4,76c-0.1,0-0.4-0.1-0.4-0.1c0-0.1,0.1-0.3,0.1-0.4c0.1,0,0.4,0.1,0.4,0.1
				C109.5,75.7,109.4,75.8,109.4,76z"/>
			<path fill="#D2DC19" d="M126.7,101.4c-0.1-0.1-0.2-0.2-0.3-0.3c0.1-0.1,0.3-0.2,0.4-0.2c0.1,0,0.2,0.2,0.4,0.3
				C127,101.3,126.9,101.4,126.7,101.4z"/>
			<path fill="#D2DC1B" d="M62.8,155.7c-0.4-0.1-0.9-0.2-1.3-0.4C61.9,155.4,62.3,155.6,62.8,155.7L62.8,155.7z"/>
			<path fill="#D2DC1A" d="M120.2,155.3c-0.3,0.1-0.4,0.1-0.6,0.2c0-0.1-0.1-0.3-0.1-0.4C119.7,155.1,119.9,155.2,120.2,155.3z"/>
			<path fill="#D2DC1A" d="M117.5,161.7c-0.1,0.1-0.2,0.2-0.3,0.3c-0.1-0.1-0.2-0.3-0.2-0.4c0-0.1,0.2-0.2,0.3-0.4
				C117.4,161.4,117.5,161.6,117.5,161.7z"/>
			<path fill="#D2DC1B" d="M135.8,141.7c0.1-0.4,0.2-0.9,0.4-1.3C136,140.8,135.9,141.2,135.8,141.7L135.8,141.7z"/>
			<path fill="#D2DC19" d="M130.1,101.1c0,0.1-0.1,0.4-0.1,0.4c-0.1,0-0.3-0.1-0.4-0.1c0-0.1,0.1-0.2,0.1-0.4
				C129.8,101,129.9,101,130.1,101.1z"/>
			<path fill="#D2DC1A" d="M97.8,132.7c-0.3,0.7-0.7,1.3-1,2c0,0,0,0,0,0C97.1,134,97.4,133.3,97.8,132.7
				C97.8,132.7,97.8,132.7,97.8,132.7z"/>
			<path fill="#D2DC19" d="M51.3,165.3c0.1,0.1,0.2,0.3,0.2,0.4c0,0.1-0.2,0.2-0.3,0.3C51.3,165.8,51.3,165.6,51.3,165.3z"/>
			<path fill="#C7D30A" d="M75.8,229.7c0.1,0.1,0.3,0.2,0.4,0.2C76,229.8,75.9,229.8,75.8,229.7L75.8,229.7z"/>
			<path fill="#C7D30A" d="M75.8,229.7c-0.1-0.1-0.3-0.2-0.4-0.2C75.5,229.5,75.6,229.6,75.8,229.7
				C75.8,229.7,75.8,229.7,75.8,229.7z"/>
			<path fill="#D2DC19" d="M110.8,101.7c-0.1-0.1-0.3-0.2-0.4-0.2C110.5,101.5,110.6,101.6,110.8,101.7
				C110.8,101.7,110.8,101.7,110.8,101.7z"/>
			<path fill="#D2DC19" d="M70.8,150.7c-0.1-0.1-0.3-0.2-0.4-0.2C70.5,150.5,70.6,150.6,70.8,150.7
				C70.8,150.7,70.8,150.7,70.8,150.7z"/>
			<path fill="#D2DC1B" d="M83.8,145.7c0,0.3,0,0.7,0,1C83.8,146.3,83.8,146,83.8,145.7z"/>
			<polygon fill="#D2DC1A" points="75.8,143.7 75.5,144.1 75.3,143.9 			"/>
			<path fill="#D2DC1B" d="M135.8,141.7c-0.1,0.1-0.2,0.3-0.2,0.4C135.6,142,135.7,141.8,135.8,141.7
				C135.8,141.7,135.8,141.7,135.8,141.7z"/>
			<path fill="#D2DC1B" d="M120.8,120.7c-0.1,0.1-0.2,0.3-0.2,0.4C120.6,121,120.7,120.8,120.8,120.7
				C120.8,120.7,120.8,120.7,120.8,120.7z"/>
			<path fill="#D2DC19" d="M60.8,180.7c-0.1,0.1-0.2,0.3-0.2,0.4C60.6,181,60.7,180.8,60.8,180.7C60.8,180.7,60.8,180.7,60.8,180.7z
				"/>
			<path fill="#C3CF09" d="M82.8,179.7c0,0.3,0,0.7,0,1C82.8,180.4,82.8,180,82.8,179.7z"/>
			<path fill="#D2DC1A" d="M67.8,169.7c0.1,0.1,0.3,0.2,0.4,0.2C68.1,169.8,67.9,169.8,67.8,169.7L67.8,169.7z"/>
			<path fill="#D2DC1A" d="M67.8,169.7c-0.1-0.1-0.3-0.2-0.4-0.2C67.5,169.5,67.6,169.6,67.8,169.7
				C67.8,169.7,67.8,169.7,67.8,169.7z"/>
			<polygon fill="#D2DC1A" points="68.8,163.7 68.4,163.5 68.5,163.3 			"/>
			<path fill="#D1DB18" d="M53.8,227.7c-0.9,3-3,4.1-6,4c0.7-2.8,4.5-5.8-1.9-8.3c4.5-2,7.7-3.8,11.6-2c1.7,0.8,3,2.4,4.4,3.6
				c-0.3,0.3-0.6,0.7-0.9,1c-2.3-0.5-4.6-1.1-7.5-1.7C53.5,225.2,53.6,226.4,53.8,227.7z"/>
			<path fill="#BDCA09" d="M80.8,210.7c2.7-0.2,3.1,0.6,2,4C82.1,213.3,81.4,212,80.8,210.7z"/>
			<path fill="#C9D50B" d="M76.8,209.7c0.7,0,1.3,0,2,0c-0.7,0.3-1.3,0.7-2,1C76.8,210.4,76.8,210,76.8,209.7
				C76.8,209.7,76.8,209.7,76.8,209.7z"/>
			<path fill="#BDCA09" d="M76.8,209.7c0,0.3,0,0.7,0,1c-0.4-0.2-0.9-0.3-1.3-0.5C75.9,210,76.3,209.8,76.8,209.7z"/>
			<path fill="#BDCA09" d="M70.8,210.7c0.1,0.1,0.3,0.2,0.4,0.2C71,210.8,70.9,210.8,70.8,210.7C70.8,210.7,70.8,210.7,70.8,210.7z"
				/>
			<path fill="#D2DC1B" d="M52.8,216.7c-0.1,0.1-0.2,0.3-0.2,0.4C52.6,217,52.7,216.8,52.8,216.7C52.8,216.7,52.8,216.7,52.8,216.7z
				"/>
			<path fill="#D2DC1B" d="M83.8,90.7c0.3,0,0.7,0,1,0c0.7,1.3,1.3,2.7,2,4c-1.3,0.3-2.7,0.7-4,1c-1.2,0.2-2.4,0.4-5,0.9
				c2,1.1,3,1.6,4,2.1c-0.6,2.1-1.2,4.1-1.9,6.6c1.4,1,3.4,2.5,4.8,3.5c-2.3,1.1-4.1,2.7-6.1,2.8c-2.8,0.1-5.7-0.8-8.4-1.3
				c-0.7,1.2-1.6,2.9-2.7,4.9c-1.2-2-2-3.3-2.7-4.6c0.9-1.2,1.9-2.4,3.5-4.4c-0.2-0.8-0.7-2.8-1.2-5.2c2.4,0,4.5,0,6.7,0
				c0.4,0.5,0.9,1.1,1.3,1.6c0.8-2.2,1.5-4.5,2.6-6.5c0.6-1.1,1.6-2,2.6-2.9C81.3,92.3,82.6,91.5,83.8,90.7z"/>
			<path fill="#D2DC19" d="M110.8,106.7c-2.7,0.9-5.5,1.8-8.9,2.9c1.2-2,2.1-3.4,2.9-4.9C106.8,105.4,108.8,106,110.8,106.7z"/>
			<path fill="#D2DC19" d="M69.8,131.7c-1,0-2,0-3,0c1.2-1.1,2.3-2.2,3.5-3.3c0.4,0.4,0.8,0.8,1.2,1.2
				C70.9,130.3,70.3,131,69.8,131.7z"/>
			<path fill="#CDD80D" d="M81.8,98.7c-1-0.5-1.9-1-4-2.1c2.6-0.5,3.8-0.7,5-0.9C82.4,96.7,82.1,97.7,81.8,98.7z"/>
			<path fill="#CDD80D" d="M92.8,99.7c0.4-0.9,0.8-1.8,1.2-2.7c0.9,0.9,1.9,1.8,2.8,2.7C95.4,99.7,94.1,99.7,92.8,99.7z"/>
			<path fill="#CDD80D" d="M96.6,102.3c0.2,0.6,0.7,1.3,0.6,1.8c-0.1,0.6-0.8,1.2-1.2,1.7c-0.4-0.3-1.2-0.6-1.2-0.9
				c0-0.7,0.4-1.3,0.6-2C95.9,102.7,96.3,102.5,96.6,102.3z"/>
			<path fill="#CDD80D" d="M101.8,104.7c-1,1-2,2-3,3C98.9,105.9,98.4,103.3,101.8,104.7z"/>
			<path fill="#D2DC19" d="M68.4,125c0.8,0.3,1.6,0.5,2.4,0.8c0,0.2-0.1,0.4-0.1,0.7c-0.8-0.1-1.7-0.1-2.5-0.2
				C68.3,125.8,68.4,125.4,68.4,125z"/>
			<path fill="#D2DC19" d="M69.4,121.4c-0.1,0.3-0.2,0.7-0.4,0.8c-0.2,0.1-0.5-0.2-0.8-0.3c0.1-0.3,0.2-0.7,0.4-0.8
				C68.8,121,69.1,121.3,69.4,121.4z"/>
			<path fill="#D2DC1B" d="M71.8,90.7c-0.4,1.4-0.6,3-1.4,4.2c-0.9,1.3-2.3,2.1-3.8,3.4c0.3-2.8,0.5-5.2,0.7-7.5
				c1.4-0.3,2.9-0.7,4.5-1.1C71.8,90,71.8,90.3,71.8,90.7z"/>
			<path fill="#D1DB18" d="M71.8,90.7c0-0.3,0-0.7,0-1c1.7-0.7,3.3-1.3,5-2c0,0,0,0,0,0C75.1,88.7,73.4,89.7,71.8,90.7z"/>
			<path fill="#D1DB18" d="M78.1,82.1c0,0.1-0.1,0.4-0.1,0.4c-0.1,0-0.3-0.1-0.4-0.1c0-0.1,0.1-0.4,0.1-0.4
				C77.8,81.9,77.9,82,78.1,82.1z"/>
			<path fill="#CDD80D" d="M78.8,78.7c0.1-0.1,0.2-0.3,0.2-0.4C78.9,78.4,78.8,78.5,78.8,78.7C78.8,78.7,78.8,78.7,78.8,78.7z"/>
			<path fill="#141713" d="M123.7,40.7c-1.3,2.3-2.7,4.7-4,7c-3,2-6,4-9,6c2.1-3,4.2-5.9,6.4-8.9C119.3,43.4,121.5,42.1,123.7,40.7z
				"/>
			<path fill="#141713" d="M109.3,54.7c0.5-0.3,1-0.7,1.5-1C110.3,54,109.8,54.3,109.3,54.7z"/>
			<path fill="#589217" d="M115.8,43.7c0.1-0.1,0.2-0.3,0.2-0.4C115.9,43.4,115.9,43.5,115.8,43.7C115.8,43.7,115.8,43.7,115.8,43.7
				z"/>
			<path fill="#D1DB18" d="M113.8,188.7c-0.1,2.1-0.2,4.1-3,2C111.8,190,112.8,189.3,113.8,188.7z"/>
			<path fill="#CCD70E" d="M117.8,173.7c-0.3,0.3-0.7,0.7-1,1C117.1,174.3,117.4,174,117.8,173.7z"/>
			<path fill="#CCD70E" d="M104.8,196.7c-0.3,0.7-0.7,1.3-1,2l0,0c-0.7,1-1.3,2-2,3c-4.1-1.3-2-4-1.4-7.2c1.9,0.4,3.7,0.8,5.4,1.2
				c-0.3,0-0.7,0-1,0C104.8,196,104.8,196.4,104.8,196.7z"/>
			<path fill="#CDD80D" d="M91.8,185.7c1,0,2,0,3,0c0.1,0.8,0.3,1.5,0.4,2.3C94,187.2,92.9,186.4,91.8,185.7z"/>
			<path fill="#CCD70E" d="M99.8,214.7c-0.1-0.1-0.3-0.2-0.4-0.2C99.5,214.5,99.6,214.6,99.8,214.7L99.8,214.7z"/>
			<path fill="#CDD80D" d="M102.8,89.7c-0.4,0.2-0.7,0.5-1.1,0.7C102.1,90.2,102.4,89.9,102.8,89.7
				C102.8,89.7,102.8,89.7,102.8,89.7z"/>
			<path fill="#CCD70E" d="M116.8,90.7c-0.1-0.1-0.3-0.2-0.4-0.2C116.5,90.5,116.6,90.6,116.8,90.7
				C116.8,90.7,116.8,90.7,116.8,90.7z"/>
			<path fill="#CCD70E" d="M115.8,201.7c0-0.7,0-1.3,0-2c0.5,0.3,1,0.5,1.6,0.8C116.8,200.9,116.3,201.3,115.8,201.7z"/>
			<path fill="#C9D50B" d="M108.8,207.7c0.1,0.1,0.3,0.2,0.4,0.2C109,207.8,108.9,207.8,108.8,207.7
				C108.8,207.7,108.8,207.7,108.8,207.7z"/>
			<path fill="#CCD70E" d="M103.8,198.7c0.1,0.1,0.3,0.2,0.4,0.2C104,198.8,103.9,198.8,103.8,198.7
				C103.8,198.7,103.8,198.7,103.8,198.7z"/>
			<path fill="#D2DC1A" d="M104.8,196.7c0-0.3,0-0.7,0-1C104.8,196,104.8,196.4,104.8,196.7z"/>
			<path fill="#C7D30A" d="M107.8,122.7c0.1,0.1,0.3,0.2,0.4,0.2C108,122.8,107.9,122.8,107.8,122.7
				C107.8,122.7,107.8,122.7,107.8,122.7z"/>
			<path fill="#CDD80D" d="M108.5,166.1c0.3,0.1,0.7,0.2,0.8,0.4c0.1,0.2-0.2,0.5-0.3,0.8c-0.3-0.1-0.7-0.2-0.8-0.4
				C108.1,166.7,108.4,166.3,108.5,166.1z"/>
			<path fill="#CCD70E" d="M100.7,130.7c-0.1-0.2-0.3-0.5-0.3-0.7c0-0.1,0.2-0.2,0.4-0.3C100.8,130,100.7,130.4,100.7,130.7z"/>
			<path fill="#B6C509" d="M87.8,201.7c-0.3,0.7-0.7,1.3-1,2c-1.3-0.7-2.7-1.3-4-2c1.7-0.7,3.3-1.3,5-2l0,0
				C87.8,200.3,87.8,201,87.8,201.7z"/>
			<path fill="#B6C509" d="M87.8,199.7c0.1-0.1,0.2-0.3,0.2-0.4C87.9,199.4,87.8,199.5,87.8,199.7C87.8,199.7,87.8,199.7,87.8,199.7
				z"/>
			<path fill="#CDD80D" d="M93.8,146.7c-0.1,0.1-0.2,0.3-0.2,0.4C93.6,147,93.7,146.8,93.8,146.7C93.8,146.7,93.8,146.7,93.8,146.7z
				"/>
			<path fill="#CCD70E" d="M66.8,139.7c0-0.3,0-0.7,0-1c0.3,0.7,0.7,1.3,1,2c-0.3,0-0.7,0-1,0C66.8,140.3,66.8,140,66.8,139.7z"/>
			<path fill="#CCD70E" d="M77.8,139.7c0,0.3,0,0.7,0,1C77.8,140.3,77.8,140,77.8,139.7z"/>
			<path fill="#D1DB18" d="M110.5,195.1c0.3,0.1,0.6,0.2,0.8,0.4c-0.1,0.3-0.2,0.7-0.4,0.8c-0.2,0.1-0.5-0.2-0.8-0.3
				C110.3,195.7,110.4,195.4,110.5,195.1z"/>
			<path fill="#CCD70E" d="M125.5,127.3c0-0.1,0.1-0.3,0.1-0.4c0.1,0,0.3,0.1,0.4,0.1c0,0.1-0.1,0.4-0.1,0.4
				C125.8,127.4,125.6,127.3,125.5,127.3z"/>
			<path fill="#CCD70E" d="M98.8,244.7c0.5-0.9,0.9-1.7,1.4-2.6c0.4,0.4,0.8,0.8,1.2,1.2C100.5,243.8,99.7,244.2,98.8,244.7
				C98.8,244.7,98.8,244.7,98.8,244.7z"/>
			<path fill="#CCD70E" d="M129.8,143.7c0.5,0.4,1,0.8,1.5,1.2c-0.1,0.1-0.2,0.2-0.3,0.3C130.6,144.7,130.2,144.2,129.8,143.7
				C129.8,143.7,129.8,143.7,129.8,143.7z"/>
			<path fill="#CCD70E" d="M123.5,95.7c-0.2,0.2-0.4,0.5-0.6,0.7c-0.2-0.2-0.3-0.4-0.4-0.6c0-0.1,0.2-0.4,0.3-0.3
				C123,95.5,123.3,95.6,123.5,95.7z"/>
			<path fill="#D2DC1A" d="M66.8,139.7c0,0.3,0,0.7,0,1C66.8,140.3,66.8,140,66.8,139.7z"/>
			<path fill="#CDD80E" d="M60.8,137.7c0.1,0.1,0.3,0.2,0.4,0.2C61,137.8,60.9,137.8,60.8,137.7C60.8,137.7,60.8,137.7,60.8,137.7z"
				/>
		</g>
	</g>
</g>
</svg>
