<?xml version="1.0" encoding="utf-8"?>
<!-- Generator: Adobe Illustrator 18.1.1, SVG Export Plug-In . SVG Version: 6.00 Build 0)  -->
<svg version="1.1" id="Layer_1" xmlns="http://www.w3.org/2000/svg" xmlns:xlink="http://www.w3.org/1999/xlink" x="0px" y="0px"
	 viewBox="0 0 195 293" enable-background="new 0 0 195 293" xml:space="preserve">
<g>
	<rect fill="#F6E28D" width="195" height="293"/>
	<g>
		<path fill="#4F2B28" d="M26.9,195.8c0,8.6,0,17.2-0.1,25.8c0,1.6,0,63.3-0.1,64.9c-1.1,0-2.3,0-3.4,0c0-51.5,0-162.9,0-214.4
			c0-0.9,0-1.7,0-2.6c2.4,0.2,3.4,1.3,3.4,3.9c0,11.8,0,23.5,0,35.3c0,28.4,0,56.7,0,85.1C26.8,194.5,26.9,195.2,26.9,195.8z"/>
		<path fill="#68524D" d="M23.4,69.6c0,0.9,0,1.7,0,2.6c0,51.5,0,162.9,0,214.4c-1.1,0-2.3,0-3.4,0c0-10.8,0-81.6-0.1-92.4
			c0-0.7,0.1-1.5,0.1-2.2c0-39.3,0-78.7,0-118C20,71,20.9,69.8,23.4,69.6z"/>
		<path fill="#FCCE0A" d="M23.7,65c-4.6,0.1-8.1-3.3-8.2-7.9c-0.1-4.3,4.1-8.4,8.2-7.8c2.3,2.4,3.3,5.4,3.1,8.7
			C26.7,60.7,25.4,62.9,23.7,65z"/>
		<path fill="#F8B317" d="M23.7,65c1.7-2.1,3-4.3,3.1-7c0.2-3.3-0.8-6.2-3.1-8.7c4.4,0.1,7.6,3.3,7.6,7.7
			C31.3,61.5,28.2,64.8,23.7,65z"/>
		<path fill="#F27250" d="M87.2,164c0.1,0,0.2-0.1,0.4-0.1C87.5,163.9,87.3,163.9,87.2,164z"/>
		<rect x="33.3" y="71.9" fill="#436756" width="48.7" height="80.9"/>
		<rect x="82.1" y="71.9" fill="#FFFFFF" width="48.7" height="80.9"/>
		<rect x="130.8" y="71.9" fill="#F27250" width="48.7" height="80.9"/>
	</g>
</g>
</svg>
