<?xml version="1.0" encoding="utf-8"?>
<!-- Generator: Adobe Illustrator 16.0.0, SVG Export Plug-In . SVG Version: 6.00 Build 0)  -->
<!DOCTYPE svg PUBLIC "-//W3C//DTD SVG 1.1//EN" "http://www.w3.org/Graphics/SVG/1.1/DTD/svg11.dtd">
<svg version="1.1" id="Layer_1" xmlns="http://www.w3.org/2000/svg" xmlns:xlink="http://www.w3.org/1999/xlink" x="0px" y="0px"
	 viewBox="0 0 195 293" enable-background="new 0 0 195 293" xml:space="preserve">
<rect fill="#EB4747" width="195" height="293"/>
<path fill-rule="evenodd" clip-rule="evenodd" fill="#EAE9D7" d="M96.75,125.04c0,0-42.382,17.066-42.382,63.974
	c0,36.808,19.07,59.219,42.374,59.219c21.26,0,42.295-16.014,42.343-57.369C139.133,148.444,109.582,132.853,96.75,125.04z"/>
<g id="JToXOi_1_">
	<g>
		<path fill-rule="evenodd" clip-rule="evenodd" fill="#323131" d="M105.014,142.422c0.135,6.455,0.269,12.911,0.403,19.366
			c-0.033,1.777-0.066,3.555-0.101,5.333c-5.306-3.435-10.589-3.484-15.848,0.107c0.014-1.833,0.029-3.667,0.043-5.5
			c0.083-6.425,0.164-12.851,0.245-19.276c0.115-3.326,0.283-6.651,0.336-9.978c0.35-21.788,0.674-43.577,1.015-65.365
			c0.011-0.72,0.108-1.438,0.165-2.157c4.066-0.01,8.133-0.02,12.2-0.03c0.205,9.912,0.417,19.824,0.614,29.736
			C104.401,110.579,104.705,126.5,105.014,142.422z"/>
		<path fill-rule="evenodd" clip-rule="evenodd" fill="#EAE4D3" d="M88.055,52.958c0.001-2.221,0.002-4.442,0.003-6.663
			c0.008-0.249,0.016-0.497,0.023-0.746c-0.01-2.218-0.021-4.436-0.034-6.655c0.002-0.391,0.004-0.782,0.007-1.172
			c0.224-2.108,0.447-4.216,0.628-5.92c5.746-3.427,11.51-3.556,17.29-0.034c0.203,1.669,0.459,3.778,0.715,5.887
			c-0.008,0.307-0.016,0.613-0.023,0.919c0.001,2.291,0.002,4.582,0.003,6.873c0.009,0.306,0.019,0.612,0.026,0.917
			c0,2.174-0.001,4.348-0.002,6.523c-0.008,0.304-0.016,0.609-0.023,0.912c-0.23,1.87-0.461,3.74-0.638,5.171
			c-0.957,1.347-1.722,2.423-2.486,3.5c-4.112,0-8.226,0-12.338,0c-0.212-0.526-0.281-1.354-0.659-1.533
			c-3.011-1.427-1.866-4.04-1.924-6.312C88.433,54.069,88.244,53.514,88.055,52.958z M94.516,44.55
			c-0.002-1.765-0.003-3.53-0.005-5.294c0.037-0.212,0.104-0.424,0.107-0.637c0.009-0.994,0.217-2.283-1.257-2.167
			c-0.398,0.03-0.71,1.397-1.019,2.168c-0.069,0.176,0.038,0.423,0.064,0.638c-0.003,1.767-0.005,3.534-0.007,5.301
			c0.001,0.746,0.001,1.492,0.002,2.239c0,1.758,0.001,3.518,0.002,5.276c0.108,1.096-0.804,2.931,1.079,2.908
			c1.806-0.021,1.028-1.799,1.032-2.926c0.001-1.752,0.001-3.504,0.002-5.256C94.516,46.049,94.516,45.3,94.516,44.55z
			 M102.288,46.797c0.001-0.747,0.001-1.494,0.002-2.241c-0.002-1.769-0.003-3.538-0.005-5.307c0.029-0.285,0.162-0.611,0.067-0.845
			c-0.283-0.708-0.658-1.379-0.996-2.065c-0.418,0.685-0.871,1.353-1.231,2.066c-0.107,0.212,0.043,0.558,0.076,0.841
			c-0.001,1.769-0.002,3.538-0.002,5.307c0,0.749,0.001,1.497,0.002,2.245c0,1.754,0,3.508,0,5.262
			c0.06,1.108-0.791,2.916,1.054,2.912c1.842-0.004,0.961-1.816,1.04-2.916C102.293,50.303,102.29,48.551,102.288,46.797z"/>
		<path fill-rule="evenodd" clip-rule="evenodd" fill="#EAE9D7" d="M91.205,62.47c4.113,0,8.226,0,12.338,0
			c-0.044,0.722-0.088,1.443-0.132,2.165c-4.014-0.002-8.028-0.004-12.043-0.006C91.313,63.91,91.259,63.19,91.205,62.47z"/>
		<path fill-rule="evenodd" clip-rule="evenodd" fill="#BBB5A3" d="M88.055,52.958c0.189,0.556,0.378,1.112,0.567,1.668
			c-0.432,0.071-0.865,0.204-1.296,0.201c-0.878-0.006-1.754-0.085-2.632-0.135c0.127-1.092-0.131-2.54,0.472-3.191
			c0.874-0.944,1.985-0.192,2.632,0.861C87.909,52.543,87.97,52.758,88.055,52.958z"/>
		<path fill-rule="evenodd" clip-rule="evenodd" fill="#BBB5A3" d="M88.054,37.722c-0.002,0.39-0.005,0.781-0.007,1.172
			c-0.848,0.413-1.674,0.908-2.567,1.167c-0.184,0.053-0.933-0.821-0.885-1.199c0.123-0.962,0.282-2.385,0.91-2.721
			C86.743,35.479,87.582,36.548,88.054,37.722z"/>
		<path fill-rule="evenodd" clip-rule="evenodd" fill="#BBB5A3" d="M106.667,53.8c0.008-0.303,0.016-0.608,0.023-0.912
			c0.175-0.211,0.356-0.417,0.521-0.636c0.772-1.033,1.968-1.782,2.81-0.671c0.545,0.718,0.493,2.506-0.051,3.285
			c-0.73,1.047-1.896,0.46-2.611-0.599C107.214,54.053,106.902,53.953,106.667,53.8z"/>
		<path fill-rule="evenodd" clip-rule="evenodd" fill="#BBB5A3" d="M106.663,38.574c0.008-0.307,0.016-0.613,0.023-0.919
			c0.268-0.224,0.514-0.485,0.81-0.665c0.612-0.371,1.233-0.901,1.888-0.96c0.332-0.03,1.047,0.813,1.055,1.272
			c0.017,0.857-0.074,2.072-0.622,2.515C108.31,41.033,107.724,39.035,106.663,38.574z"/>
		<path fill-rule="evenodd" clip-rule="evenodd" fill="#BBB5A3" d="M106.692,46.365c-0.008-0.306-0.018-0.612-0.026-0.917
			c0.181-0.109,0.448-0.173,0.528-0.332c0.585-1.16,1.4-2.45,2.666-1.253c0.617,0.583,0.73,2.483,0.241,3.266
			c-0.791,1.263-1.988,0.436-2.871-0.423C107.081,46.56,106.873,46.477,106.692,46.365z"/>
		<path fill-rule="evenodd" clip-rule="evenodd" fill="#BBB5A3" d="M88.081,45.549c-0.007,0.249-0.016,0.497-0.023,0.746
			c-0.891,0.443-1.783,0.885-2.675,1.328c-0.286-0.811-0.731-1.609-0.796-2.437c-0.038-0.487,0.457-1.369,0.844-1.452
			c0.571-0.122,1.331,0.201,1.875,0.546C87.683,44.517,87.832,45.113,88.081,45.549z"/>
		<path fill-rule="evenodd" clip-rule="evenodd" fill="#EAE4D3" d="M91.368,64.63c4.015,0.001,8.029,0.004,12.043,0.006
			c0.017,0.096,0.037,0.192,0.062,0.286c-4.067,0.011-8.134,0.02-12.2,0.03C91.3,64.843,91.332,64.735,91.368,64.63z"/>
		<path fill-rule="evenodd" clip-rule="evenodd" fill="#EB4747" d="M105.316,167.121c0.034-1.778,0.067-3.556,0.101-5.333
			c3.83,1.861,6.373,4.954,8.28,8.655c0.147,0.139,0.295,0.278,0.442,0.418l-0.025-0.03c0.021,0.422-0.051,0.875,0.077,1.263
			c3.271,9.952-3.188,21.6-15.419,22.87c-7.063,0.171-12.718-2.471-16.425-8.588c-5.287-8.724-2.121-19.412,7.166-24.647
			c-0.015,1.833-0.03,3.667-0.044,5.5c-0.654,0.676-1.374,1.298-1.95,2.034c-3.292,4.206-3.95,8.835-1.661,13.644
			c2.291,4.813,6.328,7.34,11.646,7.306c5.411-0.034,9.399-2.687,11.681-7.61C111.646,177.295,110.245,171.957,105.316,167.121z"/>
		<path fill-rule="evenodd" clip-rule="evenodd" fill="#353535" d="M79.791,216.539c11.797,0,23.471,0,35.245,0
			c0,2.244,0,4.385,0,6.706c-11.736,0-23.442,0-35.245,0C79.791,221.036,79.791,218.893,79.791,216.539z"/>
		<path fill-rule="evenodd" clip-rule="evenodd" fill="#333232" d="M114.14,170.861c-0.147-0.14-0.295-0.279-0.442-0.418
			C113.845,170.582,113.992,170.722,114.14,170.861z"/>
		<path fill-rule="evenodd" clip-rule="evenodd" fill="#E6E2D2" d="M105.316,167.121c4.929,4.836,6.329,10.174,3.868,15.48
			c-2.282,4.924-6.271,7.576-11.681,7.61c-5.318,0.034-9.355-2.492-11.646-7.306c-2.289-4.809-1.631-9.438,1.661-13.644
			c0.576-0.736,1.296-1.358,1.95-2.034C94.727,163.637,100.011,163.687,105.316,167.121z M97.448,166.845
			c-5.897-0.007-10.673,4.75-10.642,10.599c0.032,5.867,4.807,10.55,10.723,10.513c5.836-0.036,10.457-4.656,10.487-10.486
			C108.048,171.545,103.38,166.852,97.448,166.845z"/>
		<path fill-rule="evenodd" clip-rule="evenodd" fill="#EA4445" d="M100.199,44.553c0-1.769,0.001-3.538,0.002-5.307
			c0.694,0.001,1.39,0.002,2.084,0.003c0.002,1.769,0.003,3.538,0.005,5.307C101.593,44.556,100.896,44.554,100.199,44.553z"/>
		<path fill-rule="evenodd" clip-rule="evenodd" fill="#EC4444" d="M100.201,52.061c0-1.754,0-3.508,0-5.262
			c0.695-0.001,1.392-0.001,2.087-0.001c0.002,1.754,0.005,3.506,0.007,5.26C101.597,52.058,100.899,52.059,100.201,52.061z"/>
		<path fill-rule="evenodd" clip-rule="evenodd" fill="#EC4444" d="M92.402,52.073c0-1.759-0.001-3.518-0.002-5.277
			c0.705,0.001,1.41,0.002,2.115,0.003c-0.001,1.752-0.001,3.504-0.002,5.256C93.81,52.061,93.106,52.067,92.402,52.073z"/>
		<path fill-rule="evenodd" clip-rule="evenodd" fill="#EA4445" d="M94.51,39.255c0.002,1.765,0.003,3.529,0.005,5.294
			c-0.706,0.003-1.412,0.005-2.118,0.008c0.002-1.767,0.004-3.534,0.007-5.301C93.106,39.257,93.808,39.256,94.51,39.255z"/>
		<path fill-rule="evenodd" clip-rule="evenodd" fill="#393232" d="M102.285,39.25c-0.694-0.001-1.39-0.001-2.084-0.003
			c-0.033-0.284-0.184-0.629-0.076-0.841c0.36-0.714,0.813-1.382,1.231-2.066c0.338,0.686,0.713,1.357,0.996,2.065
			C102.447,38.639,102.314,38.965,102.285,39.25z"/>
		<path fill-rule="evenodd" clip-rule="evenodd" fill="#343131" d="M100.201,52.061c0.698-0.001,1.396-0.002,2.094-0.004
			c-0.079,1.1,0.802,2.911-1.04,2.916C99.41,54.977,100.261,53.169,100.201,52.061z"/>
		<path fill-rule="evenodd" clip-rule="evenodd" fill="#393232" d="M94.51,39.255c-0.702,0.001-1.404,0.002-2.105,0.002
			c-0.026-0.214-0.133-0.462-0.064-0.638c0.309-0.771,0.621-2.138,1.019-2.168c1.474-0.116,1.266,1.173,1.257,2.167
			C94.615,38.831,94.547,39.043,94.51,39.255z"/>
		<path fill-rule="evenodd" clip-rule="evenodd" fill="#393232" d="M92.402,52.073c0.704-0.006,1.408-0.012,2.111-0.018
			c-0.003,1.126,0.774,2.905-1.032,2.926C91.598,55.004,92.51,53.169,92.402,52.073z"/>
		<path fill-rule="evenodd" clip-rule="evenodd" fill="#323131" d="M92.398,44.558c0.706-0.003,1.412-0.005,2.118-0.008
			c0,0.75,0,1.5,0,2.25c-0.705,0-1.41-0.002-2.115-0.003C92.399,46.05,92.399,45.304,92.398,44.558z"/>
		<path fill-rule="evenodd" clip-rule="evenodd" fill="#323131" d="M102.288,46.797c-0.695,0-1.392,0-2.087,0.001
			c-0.001-0.748-0.002-1.497-0.002-2.245c0.696,0.001,1.394,0.002,2.091,0.003C102.289,45.303,102.289,46.05,102.288,46.797z"/>
		<path fill-rule="evenodd" clip-rule="evenodd" fill="#333232" d="M97.448,166.845c5.932,0.007,10.6,4.7,10.568,10.625
			c-0.03,5.83-4.65,10.45-10.487,10.486c-5.916,0.037-10.691-4.646-10.723-10.513C86.775,171.595,91.551,166.838,97.448,166.845z"/>
	</g>
</g>
</svg>
