<?xml version="1.0" encoding="utf-8"?>
<!-- Generator: Adobe Illustrator 16.0.0, SVG Export Plug-In . SVG Version: 6.00 Build 0)  -->
<!DOCTYPE svg PUBLIC "-//W3C//DTD SVG 1.1//EN" "http://www.w3.org/Graphics/SVG/1.1/DTD/svg11.dtd">
<svg version="1.1" id="Layer_1" xmlns="http://www.w3.org/2000/svg" xmlns:xlink="http://www.w3.org/1999/xlink" x="0px" y="0px"
	  viewBox="0 0 195 293" enable-background="new 0 0 195 293" xml:space="preserve">
<rect fill="#D1E8C5" width="195" height="293"/>
<g id="qeJiDY_1_">
	<g>
		<path fill-rule="evenodd" clip-rule="evenodd" fill="#D46554" d="M91.064,246.063c-7.441-0.638-14.812-1.67-21.727-4.676
			c-8.789-3.821-15.139-9.839-16.798-19.723c-0.965-5.748,0.299-11.198,2.702-16.43c1.176-2.561,2.383-5.109,3.484-7.702
			c1.287-3.033,1.93-6.078-0.74-9.029c1.407,0.084,2.565,0.293,3.696,0.196c4.677-0.399,7.21-3.474,8.996-7.418
			c1.7-3.755,2.041-7.803,2.462-11.815c0.256-2.444,0.365-4.915,0.369-7.374c0.005-4.024-2.215-7.136-6.842-6.854
			c-1.152,0.068-2.312,0.01-3.553,0.01c0.438-1.233,0.896-2.307,1.204-3.424c0.829-3.015-0.156-5.836-1.276-8.528
			c-3.321-7.988-2.645-15.719,1.439-23.165c3.018-5.502,7.908-9.036,13.719-10.978c4.188-1.399,8.647-1.988,12.985-2.938
			c0.481,13.061,0.947,26.123,1.456,39.181c0.134,3.432,0.403,6.857,0.611,10.285c0.002,5.506,0.005,11.014,0.008,16.519
			c-3.201,0.237-3.201,0.237-3.204,2.372c-0.005,3.196-0.005,3.196,3.186,3.376c0.026,4.812,0.051,9.626,0.077,14.438
			c-0.113,0.51-0.305,1.015-0.326,1.527c-0.342,8.573-0.671,17.146-0.986,25.721C91.683,228.443,91.377,237.254,91.064,246.063z
			 M85.008,164.096c0.555-2.116-0.917-3.974-2.9-4.169c-2.567-0.251-4.686,1.565-4.358,4.28c0.718,5.937,1.788,11.83,2.607,17.756
			c0.1,0.719-0.262,1.954-0.764,2.188c-0.643,0.299-1.689-0.059-2.476-0.36c-0.514-0.197-0.875-0.794-1.304-1.213
			c-0.142,0.065-0.285,0.131-0.427,0.197c0.021,0.408-0.042,0.846,0.079,1.223c0.554,1.716,2.231,2.774,3.963,2.557
			c2.125-0.266,3.682-1.756,3.583-3.871c-0.134-2.868-0.447-5.739-0.891-8.577c-0.507-3.245-1.324-6.441-1.816-9.688
			c-0.112-0.738,0.382-2.097,0.902-2.274c0.72-0.244,1.765,0.275,2.598,0.635C84.227,162.961,84.492,163.509,85.008,164.096z"/>
		<path fill-rule="evenodd" clip-rule="evenodd" fill="#D46554" d="M104.272,106.191c3.042,0.595,6.127,1.02,9.113,1.818
			c7.356,1.967,13.538,5.76,17.332,12.576c3.424,6.146,4.216,12.739,2.271,19.558c-0.626,2.196-1.48,4.326-2.165,6.508
			c-0.811,2.581-0.608,5.095,0.7,7.495c0.161,0.296,0.268,0.622,0.472,1.105c-1.559,0-2.95-0.017-4.34,0.003
			c-3.271,0.044-5.795,1.821-5.995,5.032c-0.493,7.9-0.039,15.751,3.673,22.991c1.518,2.961,3.99,4.939,7.38,5.4
			c1.239,0.169,2.536-0.082,3.797-0.14c0.036,0.19,0.115,0.347,0.07,0.405c-2.695,3.436-1.125,6.739,0.265,10.073
			c1.737,4.167,3.854,8.233,5.049,12.554c3.014,10.872-1.781,21.676-11.707,27.486c-6.293,3.683-13.139,5.533-20.331,6.291
			c-1.979,0.209-3.952,0.468-5.928,0.703c-0.232-5.509-0.488-11.015-0.692-16.525c-0.405-10.961-0.772-21.926-1.184-32.888
			c-0.054-1.397-0.28-2.789-0.427-4.184c0.056-4.846,0.11-9.691,0.165-14.536c3.152-0.091,3.152-0.091,3.151-3.186
			c-0.001-2.355-0.001-2.355-3.177-2.5c0.01-5.52,0.018-11.04,0.027-16.56c0.208-0.549,0.564-1.089,0.602-1.648
			c0.151-2.399,0.206-4.805,0.3-7.209C103.22,133.275,103.747,119.732,104.272,106.191z M109.753,164.188
			c0.687-0.801,1.078-1.542,1.692-1.886c0.573-0.32,1.524-0.489,2.05-0.219c0.518,0.265,0.788,1.139,1.011,1.797
			c0.114,0.344-0.109,0.799-0.179,1.204c-0.867,5.149-1.792,10.289-2.556,15.453c-0.182,1.228-0.059,2.616,0.343,3.787
			c0.622,1.811,2.816,2.641,4.699,2.077c1.694-0.507,2.65-1.975,2.349-3.964c-0.563,0.505-0.948,1.053-1.472,1.269
			c-0.784,0.323-1.863,0.795-2.448,0.491c-0.552-0.287-0.947-1.533-0.853-2.286c0.277-2.206,0.93-4.363,1.261-6.565
			c0.538-3.6,1.033-7.209,1.364-10.83c0.261-2.854-1.632-4.761-4.269-4.594C110.68,160.052,109.1,161.976,109.753,164.188z"/>
		<path fill-rule="evenodd" clip-rule="evenodd" fill="#414141" d="M104.272,106.191c-0.525,13.542-1.053,27.084-1.579,40.625
			c-0.094,2.404-0.148,4.81-0.3,7.209c-0.037,0.56-0.394,1.1-0.602,1.648c-2.847,0.004-5.694,0.006-8.541,0.009
			c-0.208-3.428-0.477-6.854-0.611-10.285c-0.508-13.059-0.974-26.12-1.456-39.181c0.349-6.449,0.703-12.899,1.046-19.349
			c0.452-8.503,0.897-17.008,1.338-25.512c0.03-0.577,0.004-1.155,0.004-2.019c-2.443,0.556-5.003-0.802-7.434,1.154
			c-0.398-0.083-1.112-0.229-2.12-0.436c0.458,0.928,0.761,1.54,1.06,2.147c-1.804,1.5-4.792,0.714-6.105-1.536
			c-0.522-0.895-1.149-1.729-1.617-2.424c0.417-0.582,1.015-1.287,1.47-2.075c0.963-1.67,2.316-2.604,4.285-2.575
			c1.809,0.026,2.021,0.348,1.225,1.924c-0.13,0.257-0.24,0.525-0.367,0.805c3.179,0.221,6.306,0.438,9.586,0.666
			c0-3.794,0-7.346,0-11.146c-2.248,0.593-4.788-1.031-6.967,1.229c-0.383-0.078-1.01-0.206-1.637-0.333
			c-0.193-0.042-0.385-0.084-0.578-0.125c0.058,0.161,0.115,0.323,0.172,0.484c0.309,0.563,0.617,1.125,0.92,1.677
			c-1.977,1.561-5.09,0.587-6.305-1.857c-0.376-0.754-0.955-1.407-1.427-2.087c0.523-0.774,1.181-1.842,1.936-2.837
			c0.941-1.241,2.201-1.876,3.808-1.825c1.843,0.059,2.033,0.32,1.221,1.918c-0.13,0.257-0.242,0.523-0.366,0.793
			c3.06,0.233,6.067,0.461,9.603,0.731c-0.279-2.922-0.529-5.538-0.791-8.269c-0.879,0-1.808,0-2.701,0
			c-0.438-1.074-1-2.012-1.193-3.021c-0.344-1.782,0.981-1.8,2.34-1.643c0.184-1.816,0.933-2.899,2.978-2.24
			c0.32-1.567,0.609-2.984,0.905-4.429c1.443,0,2.836,0,4.323,0c0.184,0.899,0.392,1.744,0.523,2.601
			c0.146,0.947,0.159,1.782,1.568,1.841c0.475,0.021,0.901,1.234,1.5,2.127c0.933,0.045,2.477-0.094,2.065,1.913
			c-0.11,0.537-0.521,1.023-0.84,1.502c-0.256,0.383-0.582,0.719-1.042,1.275c-0.258,0.017-0.83,0.054-1.257,0.082
			c-0.253,1.737-0.486,3.333-0.758,5.201c2.312-0.479,4.624,0.7,6.521-0.773c-0.019-0.173-0.037-0.347-0.056-0.521
			c0.838,0.191,1.676,0.383,2.733,0.625c-0.465-0.893-0.828-1.589-1.184-2.273c2.023-1.46,5.001-0.537,6.249,1.794
			c0.434,0.811,1.079,1.51,1.517,2.11c-0.51,0.752-1.14,1.677-1.764,2.606c-0.995,1.487-2.363,2.213-4.174,2.129
			c-1.688-0.078-1.88-0.383-1.095-1.889c0.135-0.258,0.275-0.513,0.422-0.786c-2.962-0.241-5.877-0.478-8.919-0.725
			c0,3.827,0,7.38,0,11.176c2.162-0.405,4.451,0.775,6.768-1.069c0.345,0.072,1.128,0.236,2.115,0.444
			c-0.455-0.905-0.809-1.607-1.158-2.299c2.234-1.315,5.001-0.443,6.242,1.791c0.466,0.839,1.1,1.586,1.567,2.25
			c-0.528,0.772-1.19,1.746-1.857,2.717c-1.259,1.83-3.468,2.449-5.727,1.484c0.284-0.727,0.57-1.458,0.856-2.19
			c0.08-0.065,0.16-0.13,0.243-0.195c-0.146,0.004-0.29,0.007-0.434,0.011c-0.742,0.165-1.484,0.33-2.069,0.46
			c-1.971-1.87-4.237-0.412-6.488-1.143C102.681,73.152,103.479,89.671,104.272,106.191z M83.862,60.134
			c0.037,0.035,0.072,0.096,0.109,0.097c0.038,0.002,0.078-0.057,0.117-0.09c-0.036-0.034-0.072-0.096-0.11-0.097
			C83.94,60.042,83.901,60.101,83.862,60.134z"/>
		<path fill-rule="evenodd" clip-rule="evenodd" fill="#414141" d="M101.625,192.455c0.146,1.395,0.373,2.786,0.427,4.184
			c0.411,10.962,0.778,21.927,1.184,32.888c0.204,5.511,0.46,11.017,0.692,16.525c-1.082,0.588-3.22,1.576-4.283,2.197
			c-0.888,0.518-1.419,20.786-2.129,20.742c-0.727-0.045-1.656-20.584-2.315-20.938c-1.11-0.595-2.309-0.893-3.686-1.292
			c-0.201-0.058-0.302-0.457-0.449-0.698c0.312-8.81,0.618-17.62,0.941-26.429c0.315-8.574,0.645-17.147,0.986-25.721
			c0.021-0.513,0.213-1.018,0.326-1.527C96.086,192.409,98.855,192.432,101.625,192.455z"/>
		<path fill-rule="evenodd" clip-rule="evenodd" fill="#9B4332" d="M93.251,155.683c2.847-0.003,5.694-0.005,8.541-0.009
			c-0.01,5.52-0.018,11.04-0.027,16.56c-2.836-0.01-5.671-0.021-8.505-0.032C93.256,166.696,93.253,161.188,93.251,155.683z"/>
		<path fill-rule="evenodd" clip-rule="evenodd" fill="#9B4332" d="M101.625,192.455c-2.77-0.023-5.539-0.046-8.307-0.068
			c-0.026-4.812-0.051-9.625-0.077-14.438c2.85-0.011,5.701-0.02,8.549-0.03C101.735,182.764,101.681,187.609,101.625,192.455z"/>
		<path fill-rule="evenodd" clip-rule="evenodd" fill="#454545" d="M85.008,164.096c-0.516-0.587-0.781-1.135-1.204-1.317
			c-0.833-0.359-1.878-0.879-2.598-0.635c-0.52,0.178-1.015,1.536-0.902,2.274c0.493,3.246,1.309,6.442,1.816,9.688
			c0.444,2.838,0.756,5.709,0.891,8.577c0.099,2.115-1.457,3.605-3.583,3.871c-1.732,0.218-3.41-0.841-3.963-2.557
			c-0.121-0.377-0.058-0.814-0.079-1.223c0.142-0.066,0.285-0.132,0.427-0.197c0.429,0.419,0.79,1.016,1.304,1.213
			c0.787,0.302,1.833,0.659,2.476,0.36c0.502-0.233,0.863-1.469,0.764-2.188c-0.819-5.926-1.889-11.819-2.607-17.756
			c-0.328-2.715,1.791-4.531,4.358-4.28C84.09,160.122,85.563,161.979,85.008,164.096z"/>
		<path fill-rule="evenodd" clip-rule="evenodd" fill="#414141" d="M101.79,177.919c-2.849,0.011-5.699,0.02-8.549,0.03
			c-3.19-0.18-3.19-0.18-3.186-3.376c0.003-2.135,0.003-2.135,3.204-2.372c2.834,0.011,5.669,0.022,8.505,0.032
			c3.176,0.145,3.176,0.145,3.177,2.5C104.942,177.828,104.942,177.828,101.79,177.919z"/>
		<path fill-rule="evenodd" clip-rule="evenodd" fill="#454545" d="M109.753,164.188c-0.653-2.213,0.927-4.137,2.993-4.266
			c2.637-0.167,4.529,1.739,4.269,4.594c-0.331,3.621-0.826,7.23-1.364,10.83c-0.331,2.202-0.983,4.359-1.261,6.565
			c-0.095,0.753,0.301,1.999,0.853,2.286c0.585,0.304,1.664-0.168,2.448-0.491c0.523-0.216,0.908-0.764,1.472-1.269
			c0.302,1.989-0.654,3.457-2.349,3.964c-1.883,0.563-4.077-0.267-4.699-2.077c-0.401-1.171-0.524-2.56-0.343-3.787
			c0.764-5.164,1.688-10.304,2.556-15.453c0.069-0.405,0.293-0.86,0.179-1.204c-0.223-0.658-0.493-1.532-1.011-1.797
			c-0.525-0.271-1.477-0.102-2.05,0.219C110.831,162.646,110.439,163.388,109.753,164.188z"/>
		<path fill-rule="evenodd" clip-rule="evenodd" fill="#FFFFFF" d="M84.547,47.096c-0.057-0.161-0.114-0.323-0.172-0.484
			c0.193,0.042,0.385,0.083,0.578,0.125C84.818,46.856,84.682,46.976,84.547,47.096z"/>
		<path fill-rule="evenodd" clip-rule="evenodd" fill="#FFFFFF" d="M83.862,60.134c0.04-0.033,0.079-0.091,0.116-0.09
			c0.038,0.001,0.074,0.063,0.11,0.097c-0.039,0.033-0.079,0.092-0.117,0.09C83.934,60.229,83.899,60.168,83.862,60.134z"/>
		<path fill-rule="evenodd" clip-rule="evenodd" fill="#FFFFFF" d="M110.426,56.968c0.144-0.004,0.288-0.007,0.434-0.011
			c-0.083,0.065-0.163,0.13-0.243,0.195C110.551,57.093,110.487,57.031,110.426,56.968z"/>
	</g>
</g>
</svg>
