<?xml version="1.0" encoding="utf-8"?>
<!-- Generator: Adobe Illustrator 16.0.0, SVG Export Plug-In . SVG Version: 6.00 Build 0)  -->
<!DOCTYPE svg PUBLIC "-//W3C//DTD SVG 1.1//EN" "http://www.w3.org/Graphics/SVG/1.1/DTD/svg11.dtd">
<svg version="1.1" id="Layer_1" xmlns="http://www.w3.org/2000/svg" xmlns:xlink="http://www.w3.org/1999/xlink" x="0px" y="0px"
	  viewBox="0 0 195 293" enable-background="new 0 0 195 293" xml:space="preserve">
<rect fill="#C7EAFB" width="195" height="293"/>
<g id="_x32_OL1og_1_">
	<g>
		<path fill-rule="evenodd" clip-rule="evenodd" fill="#1488CA" d="M40.971,108.035c0.832-6.48,5.021-10.648,11.784-11.458
			c4.165-0.5,8.28,0.022,12.23,1.475c4.021,1.479,6.691,4.38,8.16,8.338c0.98,2.642,1.814,5.345,2.581,8.059
			c1.304,4.612,4.107,7.893,8.28,10.217c26.473,14.749,52.918,29.549,79.373,44.334c0.381,0.213,0.749,0.449,1.13,1.067
			c-0.684,0-1.366-0.019-2.048,0.003c-3.17,0.098-6.34,0.207-9.512,0.312c-0.538-0.123-1.076-0.355-1.615-0.356
			c-8.14-0.007-16.278,0.017-24.417,0.032c-10.569,0.036-21.147,0.215-31.604-1.765c-1.677-0.429-3.354-0.858-5.033-1.287
			c-2.481-1.027-5.047-1.894-7.429-3.116c-5.742-2.948-10.055-7.239-11.788-13.664c-0.453-1.679-0.629-3.432-0.933-5.15
			c0.039-5.885,1.437-11.479,3.783-16.83c-4.021-3.767-8.578-6.326-13.857-6.848c-4.927-0.487-8.624-2.281-10.79-6.824
			c-0.072-0.176-0.145-0.352-0.217-0.528c-0.038-0.191-0.076-0.383-0.114-0.574c-0.357-0.552-0.651-1.161-1.086-1.644
			c-0.693-0.769-1.479-1.454-2.226-2.175c-0.567-0.489-1.063-1.214-1.718-1.411C42.988,107.967,41.955,108.085,40.971,108.035z
			 M51.539,112.317c1.831-0.043,3.143-1.429,3.11-3.284c-0.032-1.848-1.408-3.177-3.248-3.138c-1.803,0.038-3.179,1.474-3.144,3.279
			C48.292,110.974,49.74,112.359,51.539,112.317z"/>
		<path fill-rule="evenodd" clip-rule="evenodd" fill="#FFFFFF" d="M104.141,179.396c-1.955,0.262-3.902,0.648-5.865,0.755
			c-2.62,0.143-5.252,0.067-7.879,0.085c-1.184-0.101-2.368-0.202-3.552-0.303c-9.466-0.808-18.335-3.469-26.321-8.705
			c-8.875-5.818-15.073-13.714-17.938-24.013c-0.816-2.937-1.198-5.995-1.78-8.998c7.129,0.18,12.324,3.868,16.749,9.085
			c2.506,2.955,5.108,5.844,7.844,8.586c2.955,2.964,6.156,5.663,10.188,7.127l0.04-0.005c0.162,0.127,0.324,0.254,0.486,0.382
			c0.498,0.28,0.995,0.562,1.493,0.842c0.384,0.486,0.729,1.012,1.16,1.451c4.656,4.75,10.355,7.865,16.435,10.342
			C98.147,177.229,101.157,178.277,104.141,179.396z"/>
		<path fill-rule="evenodd" clip-rule="evenodd" fill="#F59421" d="M75.585,163.017c-4.032-1.466-7.233-4.165-10.188-7.129
			c-2.735-2.742-5.337-5.631-7.844-8.586c-4.425-5.217-9.62-8.905-16.749-9.085c0.081-4.106,0.161-8.214,0.241-12.322
			c4.389-0.342,8.007-5.011,7.911-10.208c0.104-0.371,0.207-0.741,0.309-1.112c2.166,4.543,5.863,6.337,10.79,6.824
			c5.28,0.521,9.837,3.081,13.857,6.848c-2.346,5.351-3.744,10.945-3.783,16.83c-0.143,5.672,1.27,10.895,4.431,15.639
			C75.02,161.403,75.25,162.245,75.585,163.017z"/>
		<path fill-rule="evenodd" clip-rule="evenodd" fill="#0B71B9" d="M126.917,170.059c8.139-0.016,16.277-0.039,24.417-0.032
			c0.539,0.001,1.077,0.233,1.615,0.356c4.911,3.226,9.821,6.45,14.84,9.746c-2.229,3.199-5.213,5.208-8.496,6.785
			c-6.914,3.32-14.317,4.834-21.878,5.687c-0.537,0.061-1.118-0.263-1.679-0.407c-0.17-0.665-0.269-1.357-0.521-1.99
			c-1.62-4.072-3.247-8.142-4.926-12.191c-1.071-2.584-2.233-5.131-3.355-7.694C126.936,170.23,126.93,170.145,126.917,170.059z"/>
		<path fill-rule="evenodd" clip-rule="evenodd" fill="#B2D6F1" d="M104.141,179.396c-2.983-1.118-5.993-2.166-8.943-3.369
			c-6.08-2.477-11.778-5.592-16.435-10.342c-0.431-0.439-0.776-0.965-1.159-1.45c4.226,0.925,8.452,1.849,12.676,2.772
			c1.678,0.429,3.355,0.858,5.033,1.287c0.625,0.496,1.203,1.068,1.879,1.478c6.172,3.729,12.957,5.427,20.079,5.986
			c-1.623,0.699-3.192,1.613-4.884,2.048C109.681,178.502,106.894,178.881,104.141,179.396z"/>
		<path fill-rule="evenodd" clip-rule="evenodd" fill="#7BBCE7" d="M117.271,175.759c-7.122-0.561-13.907-2.258-20.079-5.987
			c-0.676-0.409-1.254-0.981-1.879-1.478c10.457,1.979,21.035,1.801,31.604,1.765c0.013,0.086,0.019,0.172,0.019,0.261
			c-0.642,0.496-1.283,0.995-1.925,1.49c-1.356,1.044-2.715,2.088-4.072,3.131C119.715,175.213,118.493,175.485,117.271,175.759z"/>
		<path fill-rule="evenodd" clip-rule="evenodd" fill="#0B61AE" d="M120.938,174.94c1.357-1.043,2.716-2.087,4.072-3.131
			c0.642-0.495,1.283-0.994,1.925-1.49c1.121,2.562,2.283,5.108,3.354,7.692c1.679,4.05,3.306,8.119,4.926,12.191
			c0.252,0.633,0.351,1.325,0.521,1.99C130.804,186.442,125.871,180.692,120.938,174.94z"/>
		<path fill-rule="evenodd" clip-rule="evenodd" fill="#F37422" d="M48.957,115.686c0.096,5.198-3.522,9.867-7.911,10.209
			c-0.011-2.138-0.021-4.276-0.032-6.415c0.889-0.249,1.847-0.362,2.65-0.775C45.469,117.778,47.197,116.702,48.957,115.686z"/>
		<path fill-rule="evenodd" clip-rule="evenodd" fill="#F3992A" d="M90.443,190.646c-1.243,0-2.484,0.001-3.726,0.001
			c0.042-3.571,0.084-7.144,0.126-10.715c1.184,0.102,2.368,0.203,3.552,0.304C90.411,183.705,90.428,187.176,90.443,190.646z"/>
		<path fill-rule="evenodd" clip-rule="evenodd" fill="#091921" d="M48.934,113.472c0.038,0.191,0.076,0.383,0.115,0.575
			c-2.686,0.658-5.373,1.316-8.059,1.974c-2.106-0.246-4.231-0.387-6.312-0.77c-1.64-0.301-3.225-0.898-4.834-1.363
			c0.342-0.153,0.685-0.308,1.027-0.461C36.892,113.442,42.914,113.457,48.934,113.472z"/>
		<path fill-rule="evenodd" clip-rule="evenodd" fill="#095373" d="M30.871,113.427c-0.343,0.153-0.686,0.308-1.027,0.461
			c-0.713,0.046-1.427,0.091-2.633,0.168c4.189-3.865,8.734-5.498,13.761-6.021c0.983,0.05,2.017-0.068,2.932,0.208
			c0.655,0.197,1.151,0.921,1.718,1.411c-4.44-0.646-8.592,0.443-12.605,2.192C32.222,112.192,31.582,112.891,30.871,113.427z"/>
		<path fill-rule="evenodd" clip-rule="evenodd" fill="#E45C25" d="M40.99,116.021c2.687-0.658,5.373-1.315,8.059-1.974
			c0.072,0.175,0.145,0.352,0.217,0.527c-0.103,0.371-0.206,0.742-0.309,1.112c-1.759,1.015-3.488,2.092-5.292,3.019
			c-0.804,0.413-1.762,0.526-2.65,0.775C41.006,118.328,40.998,117.174,40.99,116.021z"/>
		<path fill-rule="evenodd" clip-rule="evenodd" fill="#003851" d="M30.871,113.427c0.711-0.536,1.351-1.235,2.145-1.581
			c4.014-1.749,8.165-2.838,12.605-2.192c0.747,0.721,1.533,1.406,2.226,2.175c0.435,0.483,0.729,1.091,1.086,1.644
			C42.914,113.457,36.892,113.442,30.871,113.427z"/>
		<path fill-rule="evenodd" clip-rule="evenodd" fill="#E8762A" d="M90.28,167.007c-4.224-0.924-8.45-1.848-12.676-2.772
			c-0.499-0.281-0.996-0.562-1.494-0.843c-0.163-0.128-0.324-0.255-0.486-0.382l-0.04,0.005c-0.335-0.77-0.565-1.611-1.024-2.3
			c-3.161-4.744-4.574-9.967-4.431-15.639c0.303,1.719,0.48,3.472,0.933,5.15c1.733,6.425,6.046,10.716,11.788,13.664
			C85.233,165.113,87.798,165.979,90.28,167.007z"/>
		<path fill-rule="evenodd" clip-rule="evenodd" fill="#042D39" d="M51.539,112.317c-1.799,0.042-3.247-1.344-3.282-3.143
			c-0.036-1.805,1.341-3.241,3.144-3.279c1.84-0.039,3.216,1.29,3.248,3.138C54.682,110.889,53.37,112.274,51.539,112.317z"/>
		<path fill-rule="evenodd" clip-rule="evenodd" fill="#1488CA" d="M93.805,142.659"/>
		<path fill-rule="evenodd" clip-rule="evenodd" fill="#1488CA" d="M102.739,159.229"/>
		<path fill-rule="evenodd" clip-rule="evenodd" fill="#1488CA" d="M91.037,154.255"/>
		<path fill-rule="evenodd" clip-rule="evenodd" fill="#F59421" d="M75.625,163.01c0.162,0.127,0.323,0.254,0.486,0.382
			C75.948,163.264,75.786,163.137,75.625,163.01z"/>
		<path fill-rule="evenodd" clip-rule="evenodd" fill="#F59421" d="M44.983,129.417c2.508,0,4.82,0,7.378,0"/>
		<path fill-rule="evenodd" clip-rule="evenodd" fill="#F59421" d="M65.757,131.682"/>
	</g>
</g>
<path fill-rule="evenodd" clip-rule="evenodd" fill="#F3992A" d="M79.121,200.789l2.207-0.209c0,0,3.67-6.02,6.83-6.195
	c2.836-0.157,2.218-3.738,2.218-3.738l0.057-2.485h-3.685l-0.098,2.486c0,0-5.988,0.74-7.178,1.547
	c-0.708,0.48-2.093,0.922-2.72,1.576c-1.301,1.355-0.812,3.138-0.71,2.226l6.195-2.727l1.007-0.66c0,0-5.458,3.54-6.316,4.407
	c-1.129,1.14-0.351,2.28-0.351,2.28l7.417-4.854l1.092-1.022C85.086,193.42,78.945,198.947,79.121,200.789z"/>
</svg>
