<?xml version="1.0" encoding="utf-8"?>
<!-- Generator: Adobe Illustrator 16.0.0, SVG Export Plug-In . SVG Version: 6.00 Build 0)  -->
<!DOCTYPE svg PUBLIC "-//W3C//DTD SVG 1.1//EN" "http://www.w3.org/Graphics/SVG/1.1/DTD/svg11.dtd">
<svg version="1.1" id="Layer_1" xmlns="http://www.w3.org/2000/svg" xmlns:xlink="http://www.w3.org/1999/xlink" x="0px" y="0px"
	  viewBox="0 0 195 293" enable-background="new 0 0 195 293" xml:space="preserve">
<rect fill="#F79868" width="195" height="293"/>
<path fill="#C7EAFB" d="M0,0"/>
<path fill="#C7EAFB" d="M0,0"/>
<g>
	<path fill-rule="evenodd" clip-rule="evenodd" fill="#D4D4D4" d="M68.194,195.462l-4.829,0.833c0,0,35.76,6.378,57.17,1.169
		C120.535,197.464,90.94,191.239,68.194,195.462z"/>
	<path fill="#FCBD7E" d="M69.13,188.523l0.018,8.667c0,0,29.71,3.877,47.958,1.547l-0.382-6.566c0,0,10.898-17.146,12.591-17.567
		c0,0,7.046-17.001,9.479-29.823c2.432-12.822,5.768-25.98,4.06-27.812c0,0,1.868-6.037,3.324-9.865c0,0,2.783-9.665-6.402-7.283
		c0,0-7.193-0.001-8.341,12.961c0,0-5.514,17.256-6.355,19.417c-0.841,2.161-3.84,9.031-6.443-1.307
		c-2.604-10.336-0.813-6.068-0.444-29.427c0,0,2.81-25.089,2.837-26.125c0.026-1.037,1.167-12.353-2.729-13.989
		c0,0-5.076-5.925-7.044,2.615c-1.968,8.54-4.967,22.6-4.967,22.6s-1.813,9.51-2.118,13.117c-0.305,3.607-1.586,16.208-1.586,16.208
		s-1.917,6.465-2.771-0.821c-0.855-7.286,1.986-27.864,1.986-27.864l2.851-16.678c0,0,1.651-8.833-3.651-14.263
		c0,0-5.845-5.229-7.044,2.615s-0.837,7.71-2.912,14.851c-2.076,7.141-5.815,19.832-6.029,26.693
		c-0.214,6.862,1.073,12.548,0.502,15.433c0,0-0.414,9.401-2.978,0.283c0,0,0.191-10.552-1.727-16.827c0,0,1.257-6.632,3.276-13.342
		c2.021-6.709,2.76-11.916,4.195-16.353c1.436-4.438-1.713-7.38-4.571-8.99c-2.858-1.61-5.463,0.179-6.798,6.018
		c-1.336,5.839-6.275,20.209-6.275,20.209s-3.005,8.514-2.166,20.738s-0.559,12.333-0.559,12.333s-1.175,9.068-4.318,0.576
		c-3.143-8.493-3.271-10.499-3.271-17.692l-0.221-8.345c0,0-0.66-5.098-4.06-6.507c-3.4-1.409-6.349-2.164-6.597,4.093
		c-0.248,6.257,0.433,11.964-0.734,17.125c-1.167,5.16,1.48,9.52,2.568,14.665c1.088,5.145,6.39,17.767,6.39,17.767l1.965,13.04
		l2.166,13.582C61.801,168.229,64.408,182.414,69.13,188.523z"/>
	<path fill="#FDCC98" d="M136.604,110.658c0,0,4.11,4.468,7.626,2.015c3.516-2.452,0,0,0,0s2.331-6.448,2.319-7.879
		c-0.011-1.431,0.53-5.12-2.66-5.149c-3.189-0.029-5.797,4.501-5.797,4.501s-2.023,5.067-1.756,5.789"/>
	<path fill="#FDCC98" d="M117.364,71.562c0,0-2.952,1.177-7.833,0.071c-4.882-1.106,0,0,0,0l2.33-9.648c0,0,1.402-4.353,5.821-1.248
		c4.42,3.105,0.616,0.612,0.616,0.612s0.14,5.908-0.475,7.575L117.364,71.562z"/>
	<path fill="#FDCC98" d="M98.145,67.395l-5.335-0.73l1.291-8.571c0,0,1.009-5.833,6.26-2.324c5.251,3.509,0,0,0,0
		s0.963,4.69,0.281,6.176L98.145,67.395z"/>
	<path fill="#FDCC98" d="M82.43,73.229l-7.205-0.485l3.21-10.276c0,0,2.792-4.306,5.906-1.463c3.113,2.843,0,0,0,0
		s0.399,1.838-0.275,5.003L82.43,73.229z"/>
	<path fill="#FDCC98" d="M54.676,96.479l-5.286-0.361l-0.264-7.649c0,0,1.924-3.091,5.367-1.097c3.443,1.994,0,0,0,0
		s2.658,2.434,1.42,5.77C54.676,96.479,54.676,96.479,54.676,96.479z"/>
	<path fill-rule="evenodd" clip-rule="evenodd" fill="#504F4D" d="M55.01,238.442l1.553-25.376l5.815-1.239l-0.09,2.226
		c0,0,38.878,5.162,59.53,1.146l0.051-2.113c0,0,3.479-0.04,4.534,1.03c1.056,1.071,1.527,19.931,1.527,19.931L55.01,238.442z"/>
	<path fill-rule="evenodd" clip-rule="evenodd" fill="#FFFFFF" d="M63.489,196.248c0,0,37.009,6.351,57.455,0.961l0.873,17.989
		c0,0-29.666,3.45-59.53-1.146L63.489,196.248z"/>
	<circle fill-rule="evenodd" clip-rule="evenodd" fill="#737271" cx="61.129" cy="230.253" r="3.72"/>
	<circle fill-rule="evenodd" clip-rule="evenodd" fill="#D4D4D4" cx="67.656" cy="207.333" r="2.864"/>
</g>
</svg>
