<?xml version="1.0" encoding="utf-8"?>
<!-- Generator: Adobe Illustrator 18.1.1, SVG Export Plug-In . SVG Version: 6.00 Build 0)  -->
<svg version="1.1" xmlns="http://www.w3.org/2000/svg" xmlns:xlink="http://www.w3.org/1999/xlink" x="0px" y="0px"
	 viewBox="0 0 195 293" enable-background="new 0 0 195 293" xml:space="preserve">
<g id="Layer_1" display="none">
	<rect display="inline" fill="#68BAF2" width="195" height="293"/>
	<g id="_x34_cVjle_1_" display="inline">
		<g>
			<path fill="#FDFEFE" d="M82,181.8c-0.2-3.5-0.5-7.1-0.7-10.6c-0.1-1.5,0-3.1,0-5.4c-9.6,4.8-18.5,9.3-28.3,14.2
				c-4.2-9.4-9-18.3-12.1-27.7c-2.4-7.2,3-16,10.7-19.9c18.3-9.1,36.6-18.2,55-27c5.6-2.7,11.6-1.5,17.2,0.9
				c1.5-8.1-5.2-15.7-13.6-16c-5.8-0.2-11.7,0.2-17.4-0.9c-10.6-2-16.3-11.4-16.9-20c-0.6-8.6,6.3-18.2,15-20.8
				c2.9-0.9,6.3-0.3,9.5-0.6c1.7-0.2,3.8-0.2,4.8-1.2c3.5-3.5,7.7-3.8,12.2-3.6c2.1,0.1,4.3,0,6.4,0c7.7,0,10.4,2,12.6,9.3
				c-1.6,0.5-3.2,1-4.9,1.6c0.5,3.3-0.2,6.9,4.8,6.9c0.8,0,1.7,2,2.5,3c-0.2,0.1-0.4,0.2-0.7,0.3c-1.3,0-2.7,0-4,0
				c-6.9-0.1-13.8,0.2-20.7-0.3c-2.5-0.2-5.3-1.5-7.4-3.1c-3.1-2.4-9.6-3.3-13.5-1.1c-3.5,2-6.3,7.5-5.4,10.8
				c1.3,4.9,5.7,8.5,10.6,8.6c5.5,0.2,11.2-0.2,16.6,0.7c14.5,2.3,19.7,12.8,20.5,24.5c0.5,8,0.1,16.1,0,24.2
				c0,7.3-3.6,12.6-10,15.9c-7.3,3.8-14.7,7.4-22.1,10.9c-2.2,1-3.2,2.3-3,4.8c0.2,3,0.4,6.2-0.1,9.1c-0.3,2-1.7,3.8-2.7,5.7
				c0,0-0.3,0.2-0.3,0.2c-0.5-0.1-1.1-0.1-1.6-0.2c0-5,0-9.9,0-15.6c-3.5,1.6-6.1,2.8-8.9,4.1c0,4.2-0.2,8.3,0.1,12.4
				c0.1,2.8-0.6,4.9-3.2,6.1C82.6,181.9,82.3,181.9,82,181.8z M130.1,51.2c-2.2,0.1-4.3,0.2-6.5,0.3c0.4,0.8,0.6,2.1,1.2,2.4
				C126.9,54.9,129.1,55.1,130.1,51.2z"/>
			<path fill="#EDBB30" d="M138.7,64.1c-0.8-1.1-1.7-3-2.5-3c-5,0-4.3-3.5-4.8-6.9c1.7-0.5,3.3-1.1,4.9-1.6
				c10.9,2.7,21.8,5.5,32.7,8.2c3.6,0.9,7.3,1.7,11,2.5c0,0.3,0.1,0.5,0.2,0.8C166.4,64.1,152.5,64.1,138.7,64.1z"/>
			<path fill="#EEBB2E" d="M96.6,175.2c0,0,0.3-0.2,0.3-0.2c0,32.4,0,64.7,0.1,97.1c-0.6,0-1.3,0-1.9,0.1c0-32.1,0.1-64.2,0.1-96.4
				C95.6,175.6,96.1,175.4,96.6,175.2z"/>
			<path fill="#EEBB2E" d="M82,181.8c0.3,0.1,0.6,0.2,0.9,0.2c0.2,1.5,0.6,3,0.6,4.6c0,28.5,0,57.1,0,85.6c-0.6,0-1.3,0-1.9-0.1
				c0-28.4,0-56.8,0-85.2C81.7,185.2,81.9,183.5,82,181.8z"/>
			<path fill="#8DBCC1" d="M180.2,64.1c-0.1-0.2-0.1-0.5-0.2-0.8c0.6,0.2,1.2,0.4,1.8,0.7c-0.1,0.2-0.2,0.4-0.2,0.6
				C181.2,64.5,180.7,64.3,180.2,64.1z"/>
			<path fill="#8DBCC1" d="M134,64.4c1.3,0,2.7,0,4,0C136.7,64.4,135.3,64.4,134,64.4z"/>
			<path fill="#C4C4C4" d="M130.1,51.2c-1,4-3.2,3.7-5.3,2.8c-0.6-0.3-0.8-1.6-1.2-2.4C125.8,51.4,127.9,51.3,130.1,51.2z"/>
			<path fill="#CEBB5E" d="M95.1,175.8c-0.1-0.2-0.2-0.5-0.1-0.8c0.5,0.1,1.1,0.1,1.6,0.2C96.1,175.4,95.6,175.6,95.1,175.8z"/>
		</g>
	</g>
</g>
<g id="Layer_2">
	<rect fill="#E55557" width="195" height="293"/>
	<path fill="#0C0C0C" d="M107,244.4v-14c0,0-20.4,23.4-82.1,14.1l-0.7-5.6l15.7-7.2l44.7-11l29.7-11.3l29.7,5l6.3,8.5l-10.5,22.2
		L107,244.4z"/>
	<path fill="#333333" stroke="#000000" stroke-width="3" stroke-miterlimit="10" d="M88.6,57.2c0,0,37.1-26.6,83.1,3.4l-19.4,121.2
		l-1.9,41.7h-40.5c0,0-17.3,21.4-86.3,15.4v-8.5c0,0,65.4-17,70.9-47.5S88.6,57.2,88.6,57.2z"/>
</g>
</svg>
