<?xml version="1.0" encoding="utf-8"?>
<!-- Generator: Adobe Illustrator 16.0.0, SVG Export Plug-In . SVG Version: 6.00 Build 0)  -->
<!DOCTYPE svg PUBLIC "-//W3C//DTD SVG 1.1//EN" "http://www.w3.org/Graphics/SVG/1.1/DTD/svg11.dtd">
<svg version="1.1" id="Layer_1" xmlns="http://www.w3.org/2000/svg" xmlns:xlink="http://www.w3.org/1999/xlink" x="0px" y="0px"
	 viewBox="0 0 195 293" enable-background="new 0 0 195 293" xml:space="preserve">
<rect y="-1" fill="#F79868" width="195" height="293"/>
<rect y="-0.001" fill="#43467A" width="195" height="293.001"/>
<g>
	<path fill="#FFFFFF" d="M149.666,212.512c0,0,4.295,0.195,4.33,4.688c0,0,0-4.59,4.276-4.688c0,0-4.312,0.195-4.472-4.492
		C153.801,208.02,153.996,212.512,149.666,212.512z"/>
</g>
<g>
	<path fill="#FFFFFF" d="M36.288,191.551c0,0,4.295,0.195,4.33,4.688c0,0,0-4.59,4.276-4.688c0,0-4.312,0.195-4.472-4.492
		C40.423,187.059,40.618,191.551,36.288,191.551z"/>
</g>
<g>
	<path fill="#FFFFFF" d="M145.363,79.352c0,0,4.295,0.196,4.33,4.688c0,0,0-4.59,4.276-4.688c0,0-4.312,0.196-4.472-4.492
		C149.498,74.859,149.693,79.352,145.363,79.352z"/>
</g>
<g>
	<path fill="#FFFFFF" d="M77.104,19.69c0,0,4.295,0.197,4.33,4.688c0,0,0-4.59,4.275-4.688c0,0-4.311,0.197-4.471-4.492
		C81.239,15.198,81.435,19.69,77.104,19.69z"/>
</g>
<g>
	<path fill="#FFFFFF" d="M81.407,248.252c0,0,4.295,0.197,4.33,4.688c0,0,0-4.59,4.276-4.688c0,0-4.312,0.197-4.472-4.492
		C85.542,243.76,85.737,248.252,81.407,248.252z"/>
</g>
<circle fill="#FFFFFF" cx="173.569" cy="47" r="1"/>
<circle fill="#FFFFFF" cx="102.5" cy="110" r="1"/>
<circle fill="#FFFFFF" cx="102.5" cy="194" r="1"/>
<circle fill="#FFFFFF" cx="24.5" cy="144" r="1"/>
<circle fill="#FFFFFF" cx="168.5" cy="160" r="1"/>
<circle fill="#FFFFFF" cx="131.771" cy="33" r="1"/>
<circle fill="#FFFFFF" cx="29.5" cy="46" r="1"/>
<circle fill="#FFFFFF" cx="153.969" cy="260.99" r="1"/>
<circle fill="#FFFFFF" cx="28.5" cy="252.99" r="1"/>
<path fill="#FCF4DC" d="M115.721,139.363c-21.005,0-38.031-17.028-38.031-38.032S94.716,63.3,115.721,63.3
	c1.644,0,3.254,0.139,4.845,0.342c-8.143-4.508-17.504-7.082-27.471-7.082c-31.375,0-56.807,25.434-56.807,56.807
	c0,31.372,25.432,56.807,56.807,56.807c29.671,0,54.016-22.754,56.571-51.76C143.406,130.829,130.573,139.363,115.721,139.363z"/>
</svg>
