<?xml version="1.0" encoding="utf-8"?>
<!-- Generator: Adobe Illustrator 16.0.0, SVG Export Plug-In . SVG Version: 6.00 Build 0)  -->
<!DOCTYPE svg PUBLIC "-//W3C//DTD SVG 1.1//EN" "http://www.w3.org/Graphics/SVG/1.1/DTD/svg11.dtd">
<svg version="1.1" id="Layer_1" xmlns="http://www.w3.org/2000/svg" xmlns:xlink="http://www.w3.org/1999/xlink" x="0px" y="0px"
	  viewBox="0 0 195 293" enable-background="new 0 0 195 293" xml:space="preserve">
<rect y="0.253" fill="#CFE295" width="195" height="293"/>
<g>
	<path fill-rule="evenodd" clip-rule="evenodd" fill="#99CA3C" d="M31.329,125.625c-0.087,2.22-0.207,3.827-0.23,6.047
		c-0.225,21.858,10.125,37.089,29.791,45.769c6.486,2.863,13.796,3.864,20.729,5.717c1.317,0.077,2.634,0.157,3.95,0.234
		c5.003-0.359,10.006-0.722,15.009-1.081c-6.573-3.283-13.139-6.508-18.035-12.321c-5.778-6.86-9.183-14.693-10.695-23.393
		c3.742,5.28,7.461,10.525,11.179,15.772c0.292,0.315,0.584,0.632,0.877,0.945l-0.038-0.036c0.29,0.289,0.58,0.576,0.869,0.866
		l-0.01-0.044c12.882,7.975,27.175,8.939,41.77,8.399c9.433-0.029,18.864-0.058,28.295-0.089c3.907,0,7.814,0,11.723,0
		c-1.066-1.762-2.232-2.463-3.421-3.129c-28.268-15.814-56.364-31.948-84.907-47.244c-8.953-4.797-15.202-11.405-15.264-20.897
		c-0.072-11.139-21.624-16.51-28.556-8.174c-2.082,2.502-2.042,6.434-2.999,9.692c-0.031,0.839-0.062,1.678-0.094,2.518
		c5.461-0.364,9.651,4.653,8.282,9.915c-0.191,1.963-1.608,3.315-1.472,4.771C38.656,125.977,31.329,125.625,31.329,125.625z"/>
	<path fill-rule="evenodd" clip-rule="evenodd" fill="#CCDB2A" d="M31.346,120.072c2.769,0,5.536,0.001,8.304,0.001
		c-0.509,5.234-3.084,7.76-8.226,8.068C31.398,125.452,31.373,122.763,31.346,120.072z"/>
	<path fill-rule="evenodd" clip-rule="evenodd" fill="#6FBE44" d="M31.346,115.204c2.769,0.001,5.536,0.001,8.304,0.001
		c-0.509,5.234-3.084,7.76-8.226,8.068C31.398,120.583,31.373,117.894,31.346,115.204z"/>
	<g>
		<path fill-rule="evenodd" clip-rule="evenodd" fill="#F5AD58" d="M31.249,120.188l-5.804-5.098l1.506-3.196h5.234l4.896,1.156
			l1.767,0.612l0.705,1.43c0,0-0.422,3.61-1.545,4.878C36.885,121.239,31.249,120.188,31.249,120.188z"/>
	</g>
	<g>
		<path fill-rule="evenodd" clip-rule="evenodd" fill="#6FBE44" d="M126.494,172.501c9.433-0.029,18.864-0.058,28.295-0.089
			c5.119,3.485,10.239,6.969,16.27,11.076c-3.678,2.599-6.484,5.609-9.92,6.801c-7.539,2.612-15.373,4.402-23.15,6.265
			c-1.081,0.258-2.52-0.982-3.795-1.527c-0.293-1.556-0.381-3.187-0.915-4.653C131.092,184.389,128.768,178.454,126.494,172.501z"/>
		<path fill-rule="evenodd" clip-rule="evenodd" fill="#659A41" d="M126.494,172.501c2.273,5.953,4.598,11.888,6.784,17.872
			c0.534,1.467,0.622,3.098,0.915,4.653c-5.057-5.835-10.114-11.67-15.323-17.679c-1.284,0.368-2.566,0.737-3.85,1.106
			c-6.146-1.551-12.56-2.458-18.355-4.855c-4.623-1.915-9.757-4.101-11.94-9.497C97.606,172.076,111.899,173.041,126.494,172.501z"
			/>
		<path fill-rule="evenodd" clip-rule="evenodd" fill="#6FC067" d="M84.725,164.102c2.184,5.396,7.317,7.582,11.94,9.497
			c5.796,2.397,12.209,3.305,18.355,4.855c-4.814,1.286-9.629,2.571-14.442,3.857c-6.573-3.283-13.139-6.508-18.035-12.321
			c-5.778-6.86-9.183-14.693-10.695-23.393c3.742,5.28,7.461,10.525,11.181,15.774c0.29,0.313,0.582,0.63,0.875,0.943l-0.038-0.036
			c0.29,0.289,0.58,0.576,0.869,0.866L84.725,164.102z"/>
		<path fill-rule="evenodd" clip-rule="evenodd" fill="#F8B15E" d="M85.521,194.216c-1.357-0.015-2.716-0.029-4.072-0.043
			c0.058-3.672,0.113-7.343,0.171-11.015c1.317,0.077,2.634,0.157,3.95,0.234C85.554,187.001,85.538,190.609,85.521,194.216z"/>
		<path fill-rule="evenodd" clip-rule="evenodd" fill="#AE3D25" d="M84.734,164.146c-0.289-0.29-0.579-0.577-0.869-0.866
			C84.155,163.568,84.445,163.855,84.734,164.146z"/>
		<path fill-rule="evenodd" clip-rule="evenodd" fill="#AE3D25" d="M83.903,163.315c-0.293-0.313-0.585-0.63-0.875-0.943
			C83.318,162.686,83.61,163.002,83.903,163.315z"/>
		<path fill-rule="evenodd" clip-rule="evenodd" fill="#F5AD58" d="M31.426,105.177c5.46-0.364,9.651,4.653,8.28,9.915
			c-2.768,0-5.535-0.001-8.304-0.001c-1.512-0.085-3.21,0-4.502-0.545c-0.87-0.367-1.9,1.414-2.959,1.972
			C24.29,111.268,27.773,107.233,31.426,105.177z"/>
		<path fill-rule="evenodd" clip-rule="evenodd" fill="#FFCC67" d="M26.026,113.987c0,0-1.026,1.972-2.085,2.53
			c0.349-5.249,3.832-9.284,7.484-11.34c0.989-0.065,3.003,0.209,3.003,0.209s-0.364,0.418-0.475,0.448
			C27.515,107.603,26.026,113.987,26.026,113.987z"/>
		<path fill-rule="evenodd" clip-rule="evenodd" fill="#F7ED38" d="M83.026,162.37c0.292,0.315,0.584,0.632,0.877,0.945
			l-0.038-0.036c0.29,0.289,0.58,0.576,0.869,0.866l-0.01-0.044 M53.486,134.723c1.235-8.198,24.697-12.684,24.697-12.684
			c-8.953-4.797-15.202-11.405-15.264-20.897c-0.072-11.139-21.624-16.51-28.556-8.174c-2.082,2.502-2.042,6.434-2.999,9.692
			c-0.031,0.839-0.062,1.678-0.094,2.518c5.461-0.364,9.651,4.653,8.282,9.915c-0.191,1.963-1.608,3.315-1.472,4.771
			c0.574,6.113-6.753,5.762-6.753,5.762c-0.087,2.22-0.207,3.827-0.23,6.047c-0.076,7.396,1.059,14.034,3.355,19.916
			C34.454,151.589,52.409,141.876,53.486,134.723z"/>
		<path fill-rule="evenodd" clip-rule="evenodd" fill="none" stroke="#CB9966" stroke-width="0.25" stroke-miterlimit="10" d="
			M39.553,115.092c-2.769,0-5.382-0.001-8.15-0.001c-1.512-0.085-3.21,0-4.502-0.545c-0.87-0.367-1.9,1.414-2.959,1.972"/>
	</g>
	<circle fill-rule="evenodd" clip-rule="evenodd" fill="#333333" cx="43.161" cy="103.616" r="2.434"/>
	<path fill-rule="evenodd" clip-rule="evenodd" fill="#F8B15E" d="M71.599,206.094l2.727-0.258c0,0,4.533-7.435,8.435-7.652
		c3.502-0.192,2.739-4.616,2.739-4.616l-4.602,0.002c0,0-7.396,0.914-8.865,1.91c-0.874,0.594-2.585,1.139-3.358,1.947
		c-1.606,1.674-1.003,3.874-0.878,2.747l7.651-3.367l1.244-0.815c0,0-6.741,4.373-7.802,5.444c-1.394,1.406-0.433,2.815-0.433,2.815
		l9.161-5.994l1.349-1.265C78.967,196.992,71.383,203.819,71.599,206.094z"/>
</g>
</svg>
