<?xml version="1.0" encoding="utf-8"?>
<!-- Generator: Adobe Illustrator 16.0.0, SVG Export Plug-In . SVG Version: 6.00 Build 0)  -->
<!DOCTYPE svg PUBLIC "-//W3C//DTD SVG 1.1//EN" "http://www.w3.org/Graphics/SVG/1.1/DTD/svg11.dtd">
<svg version="1.1" id="Layer_1" xmlns="http://www.w3.org/2000/svg" xmlns:xlink="http://www.w3.org/1999/xlink" x="0px" y="0px"
	 viewBox="0 0 195 293" enable-background="new 0 0 195 293" xml:space="preserve">
<rect fill="#69C9CA" width="195" height="293"/>
<g>
	<g id="_x30_TIvYg.tif">
		<g>
			<path fill-rule="evenodd" clip-rule="evenodd" fill="#22222F" d="M104.55,237.781c1.244-5.476,2.436-10.964,3.746-16.423
				c2.646-11.045,5.402-22.062,7.984-33.12c0.299-1.284,0.123-2.915-0.416-4.126c-4.93-11.071-10.021-22.069-14.968-33.132
				c-0.662-1.48-1.41-1.96-2.893-1.463c-0.481,0.162-1.041,0.382-1.499,0.281c-4.033-0.887-5.085,1.752-6.29,4.796
				c-3.831,9.685-7.966,19.247-11.807,28.929c-0.6,1.514-0.727,3.514-0.307,5.084c4.186,15.667,8.534,31.289,12.825,46.929
				c0.109,0.396,0.087,0.83,0.126,1.246c-4.283-0.261-8.565-0.522-12.848-0.784c-3.247-11.657-6.488-23.315-9.74-34.971
				c-1.237-4.434-2.648-8.83-3.673-13.312c-0.371-1.627-0.28-3.634,0.34-5.169c4.99-12.338,10.191-24.59,15.201-36.92
				c0.383-0.943-0.017-2.346-0.382-3.423c-0.702-2.076-1.64-4.071-2.48-6.1c0.892,0.179,1.799,0.565,2.671,0.5
				c4.23-0.319,8.453-0.744,12.675-1.161c6.413-0.635,12.826-1.295,19.236-1.944c-0.232,1.416-0.127,3.012-0.768,4.21
				c-1.387,2.609-0.625,4.767,0.498,7.18c5.826,12.532,11.59,25.097,17.217,37.72c0.68,1.521,0.891,3.579,0.504,5.193
				c-3.951,16.519-8.068,32.999-12.143,49.488c-1.01,0.016-2.021,0.01-3.031,0.052C111.069,237.479,107.81,237.633,104.55,237.781z"
				/>
			<path fill-rule="evenodd" clip-rule="evenodd" fill="#CCCCCC" d="M106.538,108.908c-0.23-1.754-0.459-3.508-0.688-5.262
				c-0.502-5.542-0.656-11.157-3.422-16.222c0,0-0.123-0.076-0.123-0.076c-0.29-0.183-0.579-0.366-0.868-0.549
				c-1.619-1.067-3.238-2.134-4.857-3.201c-0.254,0.302-0.694,0.583-0.732,0.911c-0.451,3.786-2.75,5.938-6.264,6.728
				c-3.365,0.756-5.879-0.902-7.885-3.479c-0.255-0.329-0.513-0.655-0.77-0.982c-3.206,1.951-5.347,8.182-4.633,11.696
				c0.557,2.744,0.24,5.665,0.311,8.507c0.396,2.125,0.794,4.25,1.19,6.373c0.61,5.398,2.051,10.792-0.338,16.169
				c-0.444,0.999-0.144,2.328-0.187,3.506c3.535-0.449,7.063-0.976,10.608-1.332c7.946-0.799,15.901-1.513,23.854-2.262
				c-0.682-1.897-1.367-3.792-2.041-5.69c-0.725-2.035-1.438-4.074-2.156-6.112L106.538,108.908z"/>
			<path fill-rule="evenodd" clip-rule="evenodd" fill="#F7B67E" d="M114.255,95c2.939,1.7,5.959,3.281,8.789,5.147
				c1.639,1.081,2.951,1.174,4.701,0.283c8.975-4.576,18.008-9.038,27.02-13.542c3.25-1.625,3.236-1.608,4.176,1.831
				c0.162,0.592,0.752,1.097,1.217,1.571c1.43,1.455,2.043,3.06,1.336,5.104c-0.719,2.07-2.156,3.7-4.223,3.524
				c-4.199-0.359-7.277,2.109-10.656,3.679c-6.176,2.868-12.205,6.059-18.207,9.28c-2.672,1.434-4.914,1.24-7.363-0.469
				c-4.045-2.818-8.229-5.436-12.354-8.138C110.544,100.513,112.399,97.756,114.255,95z"/>
			<path fill-rule="evenodd" clip-rule="evenodd" fill="#F7B67E" d="M42.318,90.324c-2.343,0.913-3.591,2.544-3.556,5.056
				c0.036,2.579,1.562,3.981,3.865,4.826c0.835,0.307,1.72,0.819,2.28,1.489c6.012,7.195,11.968,14.437,17.932,21.672
				c2.76,3.348,7.197,3.001,9.319-0.798c1.166-2.086,2.105-4.299,3.299-6.368c0.606-1.05,1.549-1.906,2.339-2.848
				c-0.396-2.123-0.794-4.248-1.19-6.373c-2.125-0.937-4.25-1.875-6.375-2.813c-1.334,2.087-2.668,4.175-4.118,6.444
				c-1.204-1.381-2.22-2.511-3.198-3.674c-5.157-6.138-11.778-13.812-14.907-16.293C45.532,88.68,42.318,90.324,42.318,90.324z"/>
			<path fill-rule="evenodd" clip-rule="evenodd" fill="#F4B377" d="M93.317,75.955"/>
			<path fill-rule="evenodd" clip-rule="evenodd" fill="#E99F61" d="M79.805,81.679c0.693-0.371,1.414-1.103,2.075-1.052
				c3.533,0.27,6.314-0.485,9.204-2.681c0.846-0.643,0.913-3.417,1.858-1.991c0.074,0.1,1.43,2.336,1.383,2.453
				c0.119,0.243,0.236,0.484,0.354,0.726l0.019,0.044c0.333,1.172,0.667,2.345,1.001,3.518c0.297,0.301,0.592,0.604,0.886,0.904
				c-0.257,0.301-0.697,0.582-0.735,0.91c-0.451,3.786-2.75,5.938-6.264,6.728c-3.365,0.756-5.879-0.902-7.885-3.479
				c-0.255-0.329-0.513-0.655-0.77-0.982c-0.021-0.318-0.041-0.637-0.061-0.955c-0.152-0.688-0.304-1.377-0.456-2.065
				c0,0-0.041-0.094-0.041-0.094c-0.178-0.644-0.355-1.29-0.533-1.934L79.805,81.679z"/>
			<path fill-rule="evenodd" clip-rule="evenodd" fill="#74361D" d="M77.538,63.323c-0.844-1.935-1.679-3.874-2.537-5.802
				c-0.95-2.133-0.099-3.324,1.774-4.544c2.497-1.625,4.991-0.575,7.49-0.639c0.542-0.541,1.084-1.083,1.627-1.625
				c-4.616-1.974-8.864-1.213-12.674,1.906c-3.643,2.983-5.07,6.989-3.864,11.464c0.845,3.132,2.564,6.027,3.892,9.028
				c1.212-0.445,1.297-1.15,0.985-2.393c-0.207-0.828,0.469-1.876,0.75-2.825c0.715,0.51,1.47,0.975,2.129,1.548
				c0.352,0.305,0.54,0.799,0.935,1.414c1.825-1.323,1.466-2.836,0.913-4.393L77.538,63.323z"/>
			<path fill-rule="evenodd" clip-rule="evenodd" fill="#6F351A" d="M77.272,133.028c3.535-0.449,7.063-0.976,10.608-1.332
				c7.946-0.799,15.901-1.513,23.854-2.262c0.105,1.354,0.211,2.71,0.316,4.065c-6.41,0.647-12.823,1.308-19.236,1.942
				c-4.222,0.417-8.445,0.842-12.675,1.161c-0.873,0.065-1.78-0.321-2.671-0.5C77.404,135.078,77.338,134.052,77.272,133.028z"/>
			<path fill-rule="evenodd" clip-rule="evenodd" fill="#74361D" d="M78.204,235.998c4.282,0.262,8.565,0.523,12.848,0.784
				c0,1.858,0,3.719,0,5.617c-7.006,0-13.876,0-20.642,0c-1.099-1.865-0.207-2.911,1.088-3.544
				C73.68,237.795,75.963,236.94,78.204,235.998z"/>
			<path fill-rule="evenodd" clip-rule="evenodd" fill="#74361D" d="M104.55,237.781c3.26-0.148,6.52-0.302,9.779-0.44
				c1.01-0.042,2.021-0.036,3.031-0.052c2.33,0.981,4.738,1.818,6.949,3.02c0.777,0.423,1.072,1.735,1.824,3.063
				c-7.631,0-14.51,0-21.584,0C104.55,241.462,104.55,239.622,104.55,237.781z"/>
			<path fill-rule="evenodd" clip-rule="evenodd" fill="#999999" d="M114.255,95c-1.855,2.756-3.711,5.512-5.564,8.268
				c-0.816-0.344-1.633-0.689-2.568-1.084c-0.094,0.504-0.182,0.984-0.271,1.463c-0.502-5.543-0.656-11.158-3.422-16.223
				C106.37,89.95,110.312,92.475,114.255,95z"/>
			<path fill-rule="evenodd" clip-rule="evenodd" fill="#999999" d="M80.868,85.822c0.021,0.318,0.041,0.637,0.061,0.955
				c-3.206,1.95-5.347,8.182-4.633,11.695c0.557,2.744,0.24,5.665,0.311,8.507c-2.125-0.937-4.25-1.874-6.375-2.812
				c0.171-0.633,0.236-1.319,0.53-1.888c2.409-4.657,4.834-9.306,7.322-13.921c0.512-0.95,1.307-1.747,1.971-2.613
				C80.324,85.771,80.596,85.796,80.868,85.822z"/>
			<path fill-rule="evenodd" clip-rule="evenodd" fill="#F4B377" d="M95.697,82.695c-0.334-1.172-0.668-2.345-1.001-3.518
				C95.029,80.35,95.363,81.522,95.697,82.695z"/>
			<path fill-rule="evenodd" clip-rule="evenodd" fill="#F4B377" d="M80.868,85.822c-0.272-0.025-0.544-0.051-0.814-0.077
				c0.12-0.664,0.238-1.327,0.357-1.988C80.564,84.445,80.716,85.133,80.868,85.822z"/>
			<path fill-rule="evenodd" clip-rule="evenodd" fill="#F4B377" d="M79.838,81.729c0.177,0.645,0.355,1.29,0.533,1.934
				C80.193,83.017,80.016,82.373,79.838,81.729z"/>
			<path fill-rule="evenodd" clip-rule="evenodd" fill="#54612D" d="M102.306,87.348c-0.29-0.183-0.579-0.366-0.868-0.549
				C101.728,86.982,102.016,87.165,102.306,87.348z"/>
			<path fill-rule="evenodd" clip-rule="evenodd" fill="#F4B377" d="M94.678,79.133c-0.117-0.242-0.234-0.483-0.354-0.726
				C94.443,78.648,94.561,78.891,94.678,79.133z"/>
			<path fill-rule="evenodd" clip-rule="evenodd" fill="#F4B377" d="M93.356,75.496c-0.252,0.035,0.803-1.556,0.551-1.521
				c-1.195-2.72-2.377-5.448-3.595-8.16c-2.024-4.511-4.072-9.012-6.11-13.517c-2.499,0.063-4.993-0.987-7.49,0.639
				c-1.873,1.22-2.725,2.411-1.774,4.544c0.858,1.928,1.693,3.867,2.538,5.802l1.419,3.141c0.553,1.557,0.912,3.07-0.913,4.393
				c-0.395-0.615-0.583-1.109-0.935-1.414c-0.66-0.574-1.415-1.039-2.129-1.548c-0.281,0.949-0.957,1.997-0.75,2.825
				c0.312,1.243,0.227,1.948-0.985,2.393c1.16,1.715,2.261,3.474,3.498,5.13c0.929,1.244,2.035,2.356,3.062,3.527
				c0.693-0.371,1.414-1.103,2.075-1.052c3.533,0.27,6.791-0.272,9.681-2.468L93.356,75.496z"/>
			<path fill-rule="evenodd" clip-rule="evenodd" fill="#E8A465" d="M84.265,52.248c0.542-0.541,1.084-1.083,1.627-1.625
				c3.248,1.134,5.176,3.64,6.75,6.5c0.145,0.457,0.296,0.92,0.449,1.383c-0.277,1.053-0.554,2.104-0.831,3.156l3.13,3.261
				c0,0,0.628,2.591,0.926,3.884c-0.531,1.671-1.061,3.341-1.593,5.012c-0.251,0.035-1.531,2.1-1.783,2.135L84.265,52.248z"/>
		</g>
	</g>
	<g id="ZnEb0O_1_">
		<g>
			<path fill-rule="evenodd" clip-rule="evenodd" fill="#E6E1D1" d="M45.96,101.922c-0.06,0.413-0.097,0.832-0.184,1.238
				c-0.223,1.034,0.01,1.99,0.804,2.777c1.818,1.803,2.148,3.867,1.749,6.135c-1.484,8.436-2.941,16.876-4.385,25.319
				c-0.128,0.749-0.435,1.003-1.298,0.846c-3.472-0.635-6.95-1.235-10.432-1.81c-0.852-0.141-1.101-0.482-0.968-1.234
				c1.484-8.467,2.94-16.938,4.42-25.404c0.38-2.177,1.352-4.006,3.627-5.047c1.089-0.499,1.645-1.375,1.819-2.474
				c0.061-0.382,0.154-0.759,0.234-1.139C42.885,101.395,44.422,101.658,45.96,101.922z M42.532,137.086
				c0.164,0.068,0.327,0.138,0.54,0.227c0.039-0.225,0.064-0.371,0.089-0.518c1.427-8.231,2.859-16.463,4.273-24.697
				c0.116-0.673,0.14-1.366,0.159-2.051c0.044-1.55-0.783-2.828-1.955-3.842c-0.527-0.456-1.476-0.532-2.25-0.716
				c-0.736-0.176-1.49-0.307-2.241-0.382c-0.358-0.036-0.768,0.039-1.09,0.179c-2.179,0.949-3.161,2.628-3.522,4.769
				c-1.387,8.209-2.831,16.408-4.253,24.61c-0.035,0.205-0.079,0.414-0.063,0.619c0.003,0.048,0.237,0.087,0.364,0.131
				c0.21,0.082,0.415,0.2,0.632,0.24c2.851,0.502,5.703,0.999,8.557,1.48C42.015,137.177,42.279,137.106,42.532,137.086z"/>
			<path fill-rule="evenodd" clip-rule="evenodd" fill="#EB4445" d="M41.762,98.609c0.249-1.437,0.498-2.873,0.76-4.384
				c1.542,0.267,3.016,0.523,4.672,0.81c-0.25,1.446-0.503,2.902-0.755,4.357c-0.458-0.058-0.915-0.118-1.372-0.176
				c-0.746-0.843-1.014-0.891-1.978-0.344C42.646,98.784,42.203,98.697,41.762,98.609z"/>
			<path fill-rule="evenodd" clip-rule="evenodd" fill="#E54344" d="M42.231,93.502c0.296-0.701,0.492-1.342,0.841-1.901
				c0.116-0.185,0.632-0.242,0.952-0.21c0.752,0.076,1.497,0.24,2.244,0.371c1.25,0.22,1.468,0.46,1.427,1.635
				c-0.012,0.324-0.105,0.641-0.171,1.024C45.812,94.123,44.169,93.838,42.231,93.502z"/>
			<path fill-rule="evenodd" clip-rule="evenodd" fill="#EA4647" d="M45.96,101.922c-1.538-0.264-3.075-0.527-4.613-0.791
				c0.044-0.313,0.087-0.627,0.131-0.942c0.452,0.062,0.904,0.124,1.356,0.185c0.537,0.801,1.203,0.868,1.971,0.343
				c0.45,0.104,0.901,0.207,1.352,0.311C46.091,101.326,46.026,101.623,45.96,101.922z"/>
			<path fill-rule="evenodd" clip-rule="evenodd" fill="#423333" d="M42.834,100.374c-0.452-0.061-0.904-0.122-1.356-0.185
				c0.095-0.527,0.189-1.053,0.284-1.58c0.441,0.088,0.884,0.175,1.327,0.264C43.004,99.373,42.919,99.873,42.834,100.374z"/>
			<path fill-rule="evenodd" clip-rule="evenodd" fill="#423333" d="M46.156,101.027c-0.45-0.104-0.901-0.207-1.351-0.311
				c0.087-0.5,0.174-1,0.261-1.5c0.457,0.058,0.914,0.118,1.372,0.176C46.345,99.937,46.251,100.482,46.156,101.027z"/>
			<path fill-rule="evenodd" clip-rule="evenodd" fill="#EB4546" d="M32.583,135.416c-0.127-0.044-0.361-0.083-0.364-0.131
				c-0.016-0.205,0.028-0.415,0.063-0.619c1.422-8.203,2.866-16.401,4.253-24.61c0.361-2.14,1.343-3.819,3.522-4.769
				c0.322-0.14,0.731-0.214,1.09-0.179c0.751,0.075,1.505,0.206,2.241,0.382c0.774,0.184,1.724,0.261,2.25,0.716
				c1.172,1.015,2,2.292,1.955,3.842c-0.019,0.685-0.043,1.378-0.159,2.051c-1.414,8.233-2.846,16.465-4.273,24.697
				c-0.025,0.146-0.051,0.292-0.089,0.518c-0.212-0.089-0.375-0.158-0.54-0.227C40.04,134.849,35.739,134.126,32.583,135.416z
				 M37.212,114.542c-0.076,0.433-0.15,0.866-0.225,1.3c-0.615,3.542-1.229,7.083-1.85,10.666c2.739,0.475,5.38,0.934,8.123,1.408
				c0.624-3.597,1.238-7.14,1.853-10.683c0.073-0.423,0.146-0.848,0.22-1.272c0.039-0.173,0.059-0.354,0.12-0.521
				c0.306-0.834-0.068-1.135-0.997-1.263c-1.853-0.256-3.692-0.621-5.538-0.941c-0.467-0.081-0.935-0.162-1.437-0.249
				C37.373,113.611,37.292,114.077,37.212,114.542z"/>
			<path fill-rule="evenodd" clip-rule="evenodd" fill="#EAE8D6" d="M32.583,135.416c3.156-1.29,7.457-0.566,9.949,1.671
				c-0.253,0.02-0.517,0.091-0.76,0.049c-2.854-0.481-5.707-0.978-8.557-1.48C32.997,135.616,32.793,135.498,32.583,135.416z"/>
			<path fill-rule="evenodd" clip-rule="evenodd" fill="#E6E1D1" d="M45.066,99.216c-0.087,0.5-0.174,1-0.261,1.5
				c-0.768,0.525-1.434,0.458-1.971-0.343c0.085-0.5,0.17-1.001,0.254-1.501C44.052,98.326,44.321,98.373,45.066,99.216z"/>
			<path fill-rule="evenodd" clip-rule="evenodd" fill="#313131" d="M45.112,117.232c-0.614,3.544-1.228,7.087-1.852,10.684
				c-2.742-0.475-5.384-0.934-8.123-1.408c0.621-3.582,1.235-7.123,1.85-10.666C39.695,116.306,42.403,116.769,45.112,117.232z"/>
			<path fill-rule="evenodd" clip-rule="evenodd" fill="#363333" d="M37.212,114.542c0.08-0.466,0.161-0.932,0.269-1.555
				c0.502,0.087,0.97,0.168,1.437,0.249c1.845,0.32,3.685,0.685,5.538,0.941c0.928,0.128,1.303,0.428,0.997,1.263
				c-0.062,0.167-0.082,0.348-0.12,0.521C42.625,115.488,39.918,115.015,37.212,114.542z"/>
			<path fill-rule="evenodd" clip-rule="evenodd" fill="#FBF6E1" d="M37.212,114.542c2.707,0.473,5.413,0.946,8.121,1.418
				c-0.074,0.424-0.147,0.849-0.22,1.272c-2.709-0.464-5.417-0.927-8.125-1.391C37.062,115.409,37.136,114.976,37.212,114.542z"/>
		</g>
	</g>
	<ellipse fill-rule="evenodd" clip-rule="evenodd" fill="#F7B67E" cx="47.334" cy="97.565" rx="2.01" ry="1.372"/>
</g>
</svg>
