<?xml version="1.0" encoding="utf-8"?>
<!-- Generator: Adobe Illustrator 16.0.0, SVG Export Plug-In . SVG Version: 6.00 Build 0)  -->
<!DOCTYPE svg PUBLIC "-//W3C//DTD SVG 1.1//EN" "http://www.w3.org/Graphics/SVG/1.1/DTD/svg11.dtd">
<svg version="1.1" id="Layer_1" xmlns="http://www.w3.org/2000/svg" xmlns:xlink="http://www.w3.org/1999/xlink" x="0px" y="0px"
	  viewBox="0 0 195 293" enable-background="new 0 0 195 293" xml:space="preserve">
<rect fill="#FDE373" width="195" height="293"/>
<g>
	<g id="iKVYNG_1_">
		<g>
			<path fill-rule="evenodd" clip-rule="evenodd" fill="#F68B60" d="M97.964,112.183c-0.091,28.757-0.186,57.514-0.279,86.27
				c-21.224-19.215-43.429-37.668-52.787-66.288c-3.781-11.56-0.939-21.993,7.83-29.912c7.972-7.206,18.077-10.106,28.334-5.447
				c5.999,2.726,10.991,7.655,16.437,11.595C97.653,109.661,97.811,110.922,97.964,112.183z"/>
		</g>
	</g>
	<path fill-rule="evenodd" clip-rule="evenodd" fill="#D9885E" d="M97.035,112.183c0.091,28.757,0.186,57.514,0.279,86.27
		c21.224-19.215,43.43-37.668,52.788-66.288c3.78-11.56,0.939-21.993-7.83-29.912c-7.973-7.206-18.077-10.106-28.335-5.447
		c-5.999,2.726-10.991,7.655-16.437,11.595C97.346,109.661,97.188,110.922,97.035,112.183z"/>
</g>
</svg>
