<?xml version="1.0" encoding="utf-8"?>
<!-- Generator: Adobe Illustrator 16.0.0, SVG Export Plug-In . SVG Version: 6.00 Build 0)  -->
<!DOCTYPE svg PUBLIC "-//W3C//DTD SVG 1.1//EN" "http://www.w3.org/Graphics/SVG/1.1/DTD/svg11.dtd">
<svg version="1.1" id="Layer_1" xmlns="http://www.w3.org/2000/svg" xmlns:xlink="http://www.w3.org/1999/xlink" x="0px" y="0px"
	  viewBox="0 0 195 293" enable-background="new 0 0 195 293" xml:space="preserve">
<rect fill="#2B3087" width="195" height="293"/>
<g id="EXiDh1_1_">
	<g>
		<path fill="#DE1F53" d="M122.271,110.522c0.832-0.008,1.666-0.017,2.498-0.024c0.301-0.002,0.602-0.004,0.902-0.007
			c5.439,0,10.881,0,16.32-0.001c0.292,0.002,0.585,0.005,0.878,0.007c2.003,0,4.004,0.001,6.005,0.001
			c0.57,1.353,1.66,2.725,1.607,4.054c-0.114,2.97-0.578,5.974-1.284,8.869c-6.161,25.294-29.907,43.167-56.964,40.292
			c-22.083-2.345-36.934-14.287-45.051-34.527c-2.318-5.78-4.48-12.114-2.346-18.703c1.71,0.002,3.422,0.003,5.132,0.006
			c0.292-0.003,0.583-0.005,0.874-0.007c12.86,0.036,25.72,0.072,38.579,0.108c0.022,0.798,0.045,1.596,0.067,2.394
			c1.963,10.494,9.647,13.501,18.22,7.203c0.958-0.703,2.35-1.326,3.466-1.219c5.929,0.571,8.298-3.258,10.183-7.818
			C121.664,110.94,121.968,110.731,122.271,110.522z M111.956,131.159c-0.495,0.469-0.989,0.938-1.483,1.407
			c1.321,2.032,2.436,4.26,4.071,5.997c0.624,0.662,2.442,0.2,3.72,0.249c-0.078-1.179,0.31-2.857-0.32-3.443
			C116.17,133.724,113.98,132.531,111.956,131.159z M84.101,132.68c-0.496-0.497-0.991-0.994-1.487-1.491
			c-2.073,1.407-4.302,2.644-6.125,4.322c-0.584,0.537-0.09,2.244-0.09,3.417c1.171-0.009,2.876,0.47,3.413-0.118
			C81.48,136.984,82.704,134.753,84.101,132.68z M73.807,120.992c-0.015-0.548-0.029-1.095-0.044-1.643
			c-2.349-0.587-4.68-1.47-7.055-1.615c-0.95-0.058-1.999,1.509-3.002,2.337c0.924,0.875,1.895,2.527,2.765,2.477
			C68.937,122.402,71.364,121.559,73.807,120.992z M120.9,119.368c-0.004,0.538-0.008,1.075-0.012,1.613
			c2.336,0.588,4.652,1.472,7.016,1.613c0.929,0.056,1.955-1.551,2.938-2.399c-0.968-0.861-1.98-2.487-2.895-2.434
			C125.575,117.903,123.247,118.783,120.9,119.368z M98.27,139.519c-0.671-0.001-1.343-0.003-2.014-0.005
			c-0.499,2.411-1.248,4.811-1.366,7.239c-0.044,0.894,1.404,1.858,2.173,2.791c0.918-0.93,2.626-1.881,2.601-2.784
			C99.596,144.335,98.784,141.931,98.27,139.519z"/>
		<path fill="#32A94A" d="M69.283,177.148c-2.341-1.15-3.79-1.791-4.947-2.434c-23.816-13.222-36.865-33.342-38.911-60.542
			c-0.074-0.98-0.009-1.972-0.009-3.466c2.267-0.134,4.33-0.256,6.394-0.378c0.078,0.852,0.171,1.702,0.229,2.555
			c0.823,12.006,3.727,23.338,10.776,33.33c3.792,4.378,7.584,8.759,11.376,13.138c8.229,7.748,17.907,12.656,28.996,14.805
			c24.226,6.457,52.579-4.512,67.483-25.95c7.938-11.418,11.446-24.17,12.075-37.879c1.966,0.088,3.932,0.176,6.866,0.306
			c-0.807,5.747-1.235,11.235-2.387,16.566c-3.067,14.204-10.5,26.009-20.725,36.166c-0.387,0.351-0.773,0.701-1.159,1.052
			c-0.563,0.531-1.128,1.062-1.692,1.592c-6.271,3.81-12.543,7.616-18.814,11.425c-0.688,0.164-1.404,0.254-2.061,0.504
			c-11.732,4.492-23.834,5.899-36.199,3.748C80.143,180.566,75.809,179.156,69.283,177.148z"/>
		<path fill="#E5577A" d="M44.838,110.483c-2.134,6.589,0.028,12.923,2.346,18.703c8.117,20.24,22.969,32.182,45.051,34.527
			c27.057,2.874,50.803-14.998,56.964-40.292c0.705-2.896,1.17-5.899,1.285-8.869c0.052-1.329-1.037-2.701-1.608-4.054
			c2.267-0.047,4.528-0.095,6.794-0.143c0.253,14.795-4.543,27.832-14.316,38.825c-15.289,17.189-34.655,22.629-56.977,18.864
			c-9.556-2.463-18.104-6.923-25.834-13.013c-3.68-4.316-7.358-8.632-11.038-12.95c-5.414-9.885-9.212-20.208-8.59-31.728
			C40.889,110.397,42.863,110.44,44.838,110.483z"/>
		<path fill="#F4E8B8" d="M84.377,168.044c22.32,3.765,41.688-1.675,56.977-18.864c9.773-10.993,14.569-24.03,14.316-38.825
			c2.357-0.009,4.717-0.019,7.074-0.028c-0.629,13.709-4.137,26.461-12.075,37.879c-14.903,21.438-43.257,32.408-67.483,25.95
			C83.583,172.118,83.98,170.081,84.377,168.044z"/>
		<path fill="#F5E9B9" d="M38.915,110.354c-0.622,11.52,3.176,21.843,8.59,31.728c-2.378,0.453-4.622,1.06-4.69,4.133
			c-7.049-9.992-9.953-21.324-10.776-33.33c-0.059-0.853-0.152-1.703-0.229-2.555C34.178,110.338,36.546,110.346,38.915,110.354z
			 M41.792,139.825c0-0.127,0-0.254,0-0.382c-0.196,0.091-0.392,0.182-0.589,0.272c0.078,0.096,0.148,0.261,0.233,0.269
			C41.552,139.994,41.678,139.884,41.792,139.825z"/>
		<path fill="#B92456" d="M121.357,111.15c-1.883,4.561-4.252,8.39-10.182,7.818c-1.115-0.107-2.508,0.516-3.466,1.219
			c-8.571,6.298-16.257,3.291-18.22-7.204c0.001-0.001,0.285,0.006,0.285,0.006l0.283-0.031c0.973,3.211,3.237,4.889,6.449,5.475
			c3.365,0.613,13.896-4.372,16.591-6.359c2.02-1.489,5.401-1.129,8.176-1.593C121.291,110.705,121.318,110.928,121.357,111.15z"/>
		<path fill="#DACEA2" d="M145.341,164.416c0.386-0.352,0.772-0.701,1.159-1.052"/>
		<path fill="#E5577A" d="M90.059,112.958l-0.283,0.031c0,0-0.284-0.007-0.285-0.006c-0.022-0.797-0.045-1.595-0.067-2.393
			C89.636,111.379,89.847,112.168,90.059,112.958z"/>
		<path fill="#E5577A" d="M50.844,110.482c-0.292,0.002-0.583,0.004-0.874,0.007C50.262,110.486,50.553,110.484,50.844,110.482z"/>
		<path fill="#E5577A" d="M142.871,110.497c-0.293-0.002-0.586-0.005-0.878-0.007C142.286,110.492,142.579,110.495,142.871,110.497z
			"/>
		<path fill="#E5577A" d="M125.673,110.491c-0.302,0.003-0.603,0.005-0.901,0.007C125.07,110.496,125.372,110.494,125.673,110.491z"
			/>
		<path fill="#E5577A" d="M121.357,111.15c-0.039-0.222-0.066-0.445-0.082-0.67c0.332,0.015,0.664,0.028,0.996,0.042
			C121.968,110.731,121.664,110.94,121.357,111.15z"/>
		<path fill="#F4E8B8" d="M111.956,131.159c2.024,1.372,4.214,2.565,5.985,4.21c0.631,0.586,0.244,2.265,0.32,3.443
			c-1.275-0.049-3.095,0.413-3.719-0.249c-1.637-1.737-2.75-3.965-4.07-5.997C110.967,132.097,111.461,131.627,111.956,131.159z"/>
		<path fill="#2E1E21" d="M84.101,132.68c-1.397,2.073-2.621,4.304-4.289,6.13c-0.537,0.588-2.242,0.109-3.413,0.118
			c0-1.173-0.495-2.88,0.09-3.417c1.823-1.679,4.052-2.915,6.125-4.322C83.109,131.686,83.605,132.183,84.101,132.68z"/>
		<path fill="#2E1E21" d="M73.807,120.992c-2.443,0.567-4.87,1.41-7.337,1.556c-0.87,0.051-1.84-1.602-2.765-2.477
			c1.003-0.828,2.052-2.395,3.002-2.337c2.375,0.146,4.706,1.028,7.055,1.615C73.778,119.897,73.792,120.444,73.807,120.992z"/>
		<path fill="#2E1E21" d="M120.9,119.368c2.347-0.585,4.675-1.465,7.047-1.606c0.914-0.054,1.927,1.572,2.895,2.434
			c-0.982,0.849-2.009,2.455-2.938,2.399c-2.362-0.142-4.68-1.025-7.016-1.613C120.893,120.443,120.896,119.906,120.9,119.368z"/>
		<path fill="#2E1E21" d="M98.27,139.519c0.516,2.412,1.326,4.816,1.395,7.241c0.025,0.903-1.683,1.854-2.601,2.784
			c-0.769-0.933-2.217-1.897-2.173-2.791c0.118-2.429,0.867-4.828,1.366-7.239C96.926,139.516,97.597,139.518,98.27,139.519z"/>
		<path fill="#F5E9B9" d="M84.377,168.044c-0.396,2.037-0.794,4.074-1.191,6.112c-11.088-2.147-20.767-7.057-28.996-14.805
			c1.45-1.439,2.901-2.881,4.352-4.32C66.272,161.121,74.821,165.581,84.377,168.044z"/>
		<path fill="#F4E8B8" d="M58.542,155.031c-1.451,1.439-2.902,2.881-4.352,4.32c-3.792-4.379-7.584-8.76-11.376-13.138
			c0.069-3.073,2.312-3.68,4.69-4.133C51.185,146.399,54.863,150.715,58.542,155.031z"/>
		<path fill="#F4E8B8" d="M41.797,139.825c-0.119,0.06-0.245,0.169-0.36,0.159c-0.085-0.008-0.156-0.173-0.233-0.269
			c0.197-0.091,0.393-0.182,0.589-0.272C41.792,139.571,41.792,139.698,41.797,139.825z"/>
	</g>
</g>
</svg>
