<?xml version="1.0" encoding="utf-8"?>
<!-- Generator: Adobe Illustrator 16.0.0, SVG Export Plug-In . SVG Version: 6.00 Build 0)  -->
<!DOCTYPE svg PUBLIC "-//W3C//DTD SVG 1.1//EN" "http://www.w3.org/Graphics/SVG/1.1/DTD/svg11.dtd">
<svg version="1.1" id="Layer_1" xmlns="http://www.w3.org/2000/svg" xmlns:xlink="http://www.w3.org/1999/xlink" x="0px" y="0px"
	  viewBox="0 0 195 293" enable-background="new 0 0 195 293" xml:space="preserve">
<rect fill="#2B3087" width="195" height="293"/>
<g id="EXiDh1_1_">
	<g>
		<path fill-rule="evenodd" clip-rule="evenodd" fill="#DE1F53" d="M122.272,110.522c0.832-0.008,1.665-0.017,2.498-0.024
			c0.301-0.002,0.601-0.004,0.902-0.007c5.44,0,10.881,0,16.32-0.001c0.292,0.002,0.585,0.005,0.878,0.007
			c2.003,0,4.004,0.001,6.005,0.001c0.571,1.353,1.66,2.725,1.608,4.054c-0.115,2.97-0.579,5.974-1.285,8.869
			c-6.161,25.294-29.907,43.167-56.964,40.292c-22.083-2.345-36.934-14.287-45.051-34.527c-2.318-5.78-4.48-12.114-2.346-18.703
			c1.71,0.002,3.422,0.003,5.132,0.006c0.292-0.003,0.583-0.005,0.874-0.007c12.86,0.036,25.72,0.072,38.579,0.108
			c0.022,0.798,0.045,1.596,0.067,2.394c1.963,10.494,9.648,13.501,18.22,7.203c0.958-0.703,2.35-1.326,3.466-1.219
			c5.929,0.571,8.298-3.258,10.182-7.818C121.664,110.94,121.968,110.731,122.272,110.522z M111.956,131.159
			c-0.495,0.469-0.989,0.938-1.483,1.407c1.321,2.032,2.435,4.26,4.071,5.997c0.624,0.662,2.443,0.2,3.719,0.249
			c-0.077-1.179,0.31-2.857-0.32-3.443C116.17,133.724,113.98,132.531,111.956,131.159z M84.101,132.68
			c-0.496-0.497-0.991-0.994-1.487-1.491c-2.073,1.407-4.302,2.644-6.125,4.322c-0.584,0.537-0.09,2.244-0.09,3.417
			c1.171-0.009,2.876,0.47,3.413-0.118C81.48,136.984,82.704,134.753,84.101,132.68z M73.807,120.992
			c-0.015-0.548-0.029-1.095-0.044-1.643c-2.349-0.587-4.68-1.47-7.055-1.615c-0.95-0.058-1.999,1.509-3.002,2.337
			c0.924,0.875,1.895,2.527,2.765,2.477C68.937,122.402,71.364,121.559,73.807,120.992z M120.901,119.368
			c-0.005,0.538-0.009,1.075-0.012,1.613c2.335,0.588,4.652,1.472,7.015,1.613c0.929,0.056,1.955-1.551,2.938-2.399
			c-0.968-0.861-1.98-2.487-2.895-2.434C125.575,117.903,123.247,118.783,120.901,119.368z M98.269,139.519
			c-0.671-0.001-1.342-0.003-2.013-0.005c-0.499,2.411-1.248,4.811-1.366,7.239c-0.044,0.893,1.404,1.859,2.173,2.791
			c0.918-0.93,2.627-1.881,2.601-2.784C99.595,144.335,98.784,141.931,98.269,139.519z"/>
		<path fill-rule="evenodd" clip-rule="evenodd" fill="#32A94A" d="M67.47,177.247c-1.04-0.854-1.977-1.89-3.134-2.532
			c-23.816-13.222-36.865-33.342-38.911-60.542c-0.074-0.98-0.009-1.972-0.009-3.466c2.267-0.134,4.33-0.256,6.394-0.378
			c0.078,0.852,0.171,1.702,0.229,2.555c0.823,12.006,3.727,23.338,10.776,33.33c3.792,4.378,7.584,8.758,11.376,13.138
			c8.229,7.748,17.907,12.656,28.996,14.804c24.226,6.458,52.579-4.512,67.483-25.95c7.938-11.418,11.446-24.17,12.075-37.879
			c1.966,0.088,3.932,0.176,6.866,0.306c-0.806,5.747-1.235,11.235-2.387,16.566c-3.067,14.204-10.5,26.009-20.724,36.166
			c-0.386,0.351-0.773,0.701-1.159,1.052c-0.564,0.531-1.128,1.061-1.692,1.592c-6.272,3.809-12.543,7.616-18.815,11.425
			c-0.688,0.164-1.405,0.253-2.061,0.503c-11.732,4.492-23.833,5.9-36.199,3.749C80.143,180.566,73.834,178.749,67.47,177.247z"/>
		<path fill-rule="evenodd" clip-rule="evenodd" fill="#E5577A" d="M44.838,110.483c-2.134,6.589,0.028,12.923,2.346,18.703
			c8.117,20.24,22.969,32.182,45.051,34.527c27.057,2.874,50.803-14.998,56.964-40.292c0.706-2.896,1.17-5.899,1.285-8.869
			c0.052-1.329-1.037-2.701-1.608-4.054c2.266-0.047,4.529-0.095,6.794-0.143c0.253,14.795-4.543,27.832-14.317,38.824
			c-15.288,17.19-34.655,22.629-56.976,18.865c-9.556-2.463-18.104-6.923-25.834-13.013c-3.68-4.316-7.358-8.632-11.038-12.95
			c-5.414-9.885-9.212-20.208-8.59-31.728C40.889,110.397,42.863,110.44,44.838,110.483z"/>
		<path fill-rule="evenodd" clip-rule="evenodd" fill="#F4E8B8" d="M84.377,168.044c22.32,3.764,41.688-1.675,56.976-18.865
			c9.774-10.992,14.57-24.029,14.317-38.824c2.358-0.009,4.716-0.019,7.074-0.028c-0.629,13.709-4.137,26.461-12.075,37.879
			c-14.904,21.438-43.257,32.408-67.483,25.95C83.583,172.118,83.98,170.081,84.377,168.044z"/>
		<path fill-rule="evenodd" clip-rule="evenodd" fill="#F5E9B9" d="M38.915,110.354c-0.622,11.52,3.176,21.843,8.59,31.728
			c-2.378,0.453-4.622,1.06-4.69,4.133c-7.049-9.992-9.953-21.324-10.776-33.33c-0.059-0.853-0.152-1.703-0.229-2.555
			C34.178,110.338,36.546,110.346,38.915,110.354z M41.792,139.825c0-0.127,0-0.254,0-0.382c-0.196,0.091-0.392,0.182-0.589,0.272
			c0.078,0.096,0.148,0.261,0.233,0.269C41.552,139.994,41.678,139.884,41.792,139.825z"/>
		<path fill-rule="evenodd" clip-rule="evenodd" fill="#B92456" d="M121.358,111.15c-1.884,4.561-4.253,8.39-10.182,7.818
			c-1.116-0.107-2.508,0.516-3.466,1.219c-8.572,6.298-16.257,3.291-18.22-7.204c0.001-0.001,0.285,0.006,0.285,0.006l0.283-0.031
			c0.973,3.211,3.237,4.889,6.449,5.475c3.365,0.613,13.896-4.372,16.59-6.359c2.02-1.489,5.402-1.129,8.177-1.593
			C121.291,110.705,121.318,110.928,121.358,111.15z"/>
		<path fill-rule="evenodd" clip-rule="evenodd" fill="#DACEA2" d="M145.341,164.416c0.386-0.351,0.773-0.701,1.159-1.052"/>
		<path fill-rule="evenodd" clip-rule="evenodd" fill="#E5577A" d="M90.059,112.958l-0.283,0.031c0,0-0.284-0.007-0.285-0.006
			c-0.022-0.797-0.045-1.595-0.067-2.393C89.636,111.379,89.847,112.168,90.059,112.958z"/>
		<path fill-rule="evenodd" clip-rule="evenodd" fill="#E5577A" d="M50.844,110.482c-0.292,0.002-0.583,0.004-0.874,0.007
			C50.262,110.486,50.553,110.484,50.844,110.482z"/>
		<path fill-rule="evenodd" clip-rule="evenodd" fill="#E5577A" d="M142.871,110.497c-0.293-0.002-0.586-0.005-0.878-0.007
			C142.286,110.492,142.579,110.495,142.871,110.497z"/>
		<path fill-rule="evenodd" clip-rule="evenodd" fill="#E5577A" d="M125.673,110.491c-0.302,0.003-0.602,0.005-0.902,0.007
			C125.071,110.496,125.372,110.494,125.673,110.491z"/>
		<path fill-rule="evenodd" clip-rule="evenodd" fill="#E5577A" d="M121.358,111.15c-0.04-0.222-0.067-0.445-0.083-0.67
			c0.333,0.015,0.665,0.028,0.997,0.042C121.968,110.731,121.664,110.94,121.358,111.15z"/>
		<path fill-rule="evenodd" clip-rule="evenodd" fill="#F4E8B8" d="M111.956,131.159c2.024,1.372,4.214,2.565,5.986,4.21
			c0.63,0.586,0.243,2.265,0.32,3.443c-1.275-0.049-3.095,0.413-3.719-0.249c-1.637-1.737-2.75-3.965-4.071-5.997
			C110.967,132.097,111.461,131.627,111.956,131.159z"/>
		<path fill-rule="evenodd" clip-rule="evenodd" fill="#2E1E21" d="M84.101,132.68c-1.397,2.073-2.621,4.304-4.289,6.13
			c-0.537,0.588-2.242,0.109-3.413,0.118c0-1.173-0.495-2.88,0.09-3.417c1.823-1.679,4.052-2.915,6.125-4.322
			C83.109,131.686,83.605,132.183,84.101,132.68z"/>
		<path fill-rule="evenodd" clip-rule="evenodd" fill="#2E1E21" d="M73.807,120.992c-2.443,0.567-4.87,1.41-7.337,1.556
			c-0.87,0.051-1.84-1.602-2.765-2.477c1.003-0.828,2.052-2.395,3.002-2.337c2.375,0.146,4.706,1.028,7.055,1.615
			C73.778,119.897,73.792,120.444,73.807,120.992z"/>
		<path fill-rule="evenodd" clip-rule="evenodd" fill="#2E1E21" d="M120.901,119.368c2.346-0.585,4.674-1.465,7.046-1.606
			c0.914-0.054,1.927,1.572,2.895,2.434c-0.982,0.849-2.009,2.455-2.938,2.399c-2.362-0.142-4.68-1.025-7.015-1.613
			C120.893,120.443,120.896,119.906,120.901,119.368z"/>
		<path fill-rule="evenodd" clip-rule="evenodd" fill="#2E1E21" d="M98.269,139.519c0.516,2.412,1.326,4.816,1.395,7.241
			c0.026,0.903-1.683,1.854-2.601,2.784c-0.769-0.932-2.217-1.897-2.173-2.791c0.118-2.429,0.867-4.828,1.366-7.239
			C96.926,139.516,97.597,139.518,98.269,139.519z"/>
		<path fill-rule="evenodd" clip-rule="evenodd" fill="#F5E9B9" d="M84.377,168.044c-0.396,2.037-0.794,4.074-1.191,6.112
			c-11.088-2.147-20.767-7.056-28.996-14.804c1.45-1.44,2.901-2.881,4.352-4.321C66.272,161.121,74.821,165.581,84.377,168.044z"/>
		<path fill-rule="evenodd" clip-rule="evenodd" fill="#F4E8B8" d="M58.542,155.031c-1.451,1.44-2.902,2.881-4.352,4.321
			c-3.792-4.38-7.584-8.76-11.376-13.138c0.069-3.073,2.312-3.68,4.69-4.133C51.185,146.399,54.863,150.715,58.542,155.031z"/>
		<path fill-rule="evenodd" clip-rule="evenodd" fill="#F4E8B8" d="M41.797,139.825c-0.119,0.06-0.245,0.169-0.36,0.159
			c-0.085-0.008-0.156-0.173-0.233-0.269c0.197-0.091,0.393-0.182,0.589-0.272C41.792,139.571,41.792,139.698,41.797,139.825z"/>
	</g>
</g>
</svg>
