<?xml version="1.0" encoding="utf-8"?>
<!-- Generator: Adobe Illustrator 16.0.0, SVG Export Plug-In . SVG Version: 6.00 Build 0)  -->
<!DOCTYPE svg PUBLIC "-//W3C//DTD SVG 1.1//EN" "http://www.w3.org/Graphics/SVG/1.1/DTD/svg11.dtd">
<svg version="1.1" id="Layer_1" xmlns="http://www.w3.org/2000/svg" xmlns:xlink="http://www.w3.org/1999/xlink" x="0px" y="0px"
	  viewBox="0 0 195 293" enable-background="new 0 0 195 293" xml:space="preserve">
<rect fill="#99CCCC" width="195" height="293"/>
<g>
	<path fill-rule="evenodd" clip-rule="evenodd" fill="#A64A3C" d="M40.755,165.044l0.162-43.961l1.493,2.506l15.372,3.78l3.31,0.456
		l31.248,3.2h16.417l25.619-2.443l1.311-1.036l16.939-5.188l1.477,46.505c0,0-24,16.577-55.648,14.424
		C98.454,183.286,51.141,187.42,40.755,165.044z"/>
	<path fill-rule="evenodd" clip-rule="evenodd" fill="#C25442" d="M131.298,135.406l0.184,43.625c0,0-23.15,5.539-28.873,3.79
		c0,0-50.528,3.417-60.915-18.242l-0.185-37.676c0,0,20.428,8.077,24.907,8.338C70.896,135.501,120.638,137.909,131.298,135.406z"/>
	<polyline fill-rule="evenodd" clip-rule="evenodd" fill="none" stroke="#A64A3C" stroke-width="2" stroke-miterlimit="10" points="
		44.165,123.447 46.963,169.829 60.325,129.53 76.026,182.575 94.981,133.367 119.128,184.913 136.565,129.551 149.866,171.416 
		150.419,124.394 	"/>
	<polyline fill-rule="evenodd" clip-rule="evenodd" fill="none" stroke="#D69C93" stroke-width="2" stroke-miterlimit="10" points="
		42.286,121.418 44.916,169.349 58.278,129.049 73.979,182.095 92.937,132.886 117.081,184.433 134.521,129.071 147.821,170.935 
		150.319,123.643 	"/>
	<g id="Awb5VT_1_">
		<g>
			<g>
				<path fill-rule="evenodd" clip-rule="evenodd" fill="#C45745" d="M155.407,112.545c-0.217-0.886-0.43-1.771-0.645-2.655
					c1.178-4.931-1.279-7.839-5.533-9.535c-2.645-1.055-5.373-2.023-8.154-2.596c-26.281-5.416-52.752-5.465-79.133-1.431
					c-7.603,1.162-14.774,5.143-22.144,7.832"/>
				<path fill-rule="evenodd" clip-rule="evenodd" fill="#CDBF9A" d="M39.867,111.259c-0.022-2.366-0.046-4.733-0.069-7.099
					c7.37-2.688,14.542-6.669,22.145-7.832c26.381-4.034,52.852-3.985,79.133,1.431c2.781,0.573,5.51,1.541,8.154,2.596
					c4.254,1.696,6.711,4.604,5.535,9.535c-5.918,2.552-11.836,5.103-17.756,7.654C104.153,122.809,71.533,124.399,39.867,111.259z
					 M147.921,107.63l0.025,0.035c-3.395-2.017-6.572-5.089-10.227-5.847c-9.939-2.062-20.049-3.484-30.154-4.542
					c-18.876-1.975-37.467,0.025-55.539,5.775c-2.438,0.776-4.135,3.895-6.174,5.929c4.18,1.933,8.177,4.714,12.569,5.657
					c26.071,5.601,52.239,5.434,78.269-0.322c3.955-0.875,7.508-3.571,11.246-5.424c0.107-0.133,0.324-0.285,0.303-0.396
					C148.187,108.196,148.034,107.917,147.921,107.63z"/>
				<path fill-rule="evenodd" clip-rule="evenodd" fill="#A89A77" d="M137.009,117.543c5.92-2.551,11.838-5.102,17.756-7.654
					c0.213,0.885,0.426,1.77,0.643,2.655c-0.846,3.685-1.693,7.369-2.537,11.053c-0.82,0.265-1.635,0.53-2.451,0.796
					c-4.83,1.464-9.658,2.928-14.488,4.393C136.29,125.039,136.651,121.292,137.009,117.543z"/>
				<path fill-rule="evenodd" clip-rule="evenodd" fill="#BFB28D" d="M137.009,117.543c-0.357,3.748-0.719,7.496-1.08,11.243
					c-0.438,0.345-0.873,0.691-1.311,1.036c-0.541,0.018-1.082,0.034-1.621,0.052c-12.592,1.254-24.104,1.449-36.695,2.704
					c-0.879-0.456-2.84,0.145-3.72-0.313c-10.419-1.069-20.839-2.138-31.248-3.201c-1.096-0.146-2.202-0.301-3.309-0.455
					c-5.269-1.63-10.539-3.261-15.807-4.892c-0.354-0.464-0.707-0.93-1.06-1.394c-0.43-3.688-0.861-7.376-1.292-11.065
					C71.533,124.399,104.153,122.809,137.009,117.543z"/>
				<path fill-rule="evenodd" clip-rule="evenodd" fill="#DDD7C6" d="M147.937,108.89c-3.738,1.854-7.291,4.549-11.246,5.424
					c-26.029,5.755-52.197,5.922-78.269,0.322c-4.393-0.943-8.39-3.724-12.569-5.658c10.854-6.8,23.212-8.001,35.439-8.579
					c22.537-1.067,45.074-0.973,66.654,7.266l-0.025-0.035C147.925,108.05,147.931,108.47,147.937,108.89z"/>
				<path fill-rule="evenodd" clip-rule="evenodd" fill="#BBAD8D" d="M147.946,107.665c-21.58-8.239-44.117-8.333-66.654-7.266
					c-12.228,0.578-24.586,1.779-35.439,8.579c2.039-2.032,3.735-5.151,6.174-5.927c18.072-5.75,36.663-7.75,55.539-5.775
					c10.105,1.058,20.215,2.48,30.154,4.542C141.374,102.576,144.552,105.648,147.946,107.665z"/>
				<path fill-rule="evenodd" clip-rule="evenodd" fill="#BBAD8D" d="M147.937,108.89c-0.006-0.42-0.012-0.84-0.016-1.26
					c0.113,0.287,0.266,0.566,0.318,0.864C148.261,108.605,148.044,108.757,147.937,108.89z"/>
			</g>
			<g>
				<path fill-rule="evenodd" clip-rule="evenodd" fill="#A64A3C" d="M119.435,182.498c0.502-0.408,1.002-0.819,1.502-1.229
					C120.437,181.679,119.937,182.09,119.435,182.498z"/>
				<path fill-rule="evenodd" clip-rule="evenodd" fill="#BCAD86" d="M123.354,179.915c2.477-0.479,4.951-0.958,7.43-1.437
					c4.885-2.055,9.771-4.111,14.656-6.169c-1.373,2.013-2.318,4.739-4.217,5.875c-3.102,1.854-6.867,2.565-10.258,3.982
					c-1.369,0.573-3.537,1.727-3.551,2.64c-0.082,6.396-4.637,6.927-9.203,7.55c-4.24,0.579-8.482,1.231-12.746,1.572
					c-19.609,1.574-38.781,0.425-56.529-9.379c-1.73-0.956-3.733-1.417-5.609-2.107l0.035,0.013
					c-0.381-0.439-0.761-0.877-1.142-1.314l-0.017-0.036c-0.463-0.785-0.929-1.573-1.393-2.359
					c-0.406-3.291-0.812-6.581-1.219-9.872c0.435-1.641,0.867-3.282,1.404-5.318c1.431,2.096,2.502,3.663,3.573,5.232
					c0.462,0.443,0.924,0.885,1.384,1.327c1.146,0.869,2.293,1.735,3.439,2.604c7.429,5.134,15.356,8.61,24.342,8.552
					c2.075,0.666,4.491,0.177,6.565,0.844c11.049,0.048,22.097,0.096,33.144,0.144c1.25-0.373,2.5-0.748,3.752-1.12l-0.016,0.004
					c0.75-0.002,1.504-0.004,2.254-0.007c0.502-0.409,2.076-0.775,2.576-1.186"/>
				<path fill-rule="evenodd" clip-rule="evenodd" fill="#A89A77" d="M43.327,182.442c1.876,0.69,3.879,1.151,5.609,2.107
					c17.748,9.804,36.92,10.953,56.529,9.379c4.264-0.341,8.506-0.993,12.746-1.572c4.566-0.623,9.121-1.154,9.203-7.55
					c0.014-0.913,2.182-2.066,3.551-2.64c3.391-1.417,7.156-2.128,10.258-3.982c1.898-1.136,2.844-3.862,4.217-5.874
					c-0.018-0.341-0.014,0.341,0-0.001c1.254-0.777,5.924-2.872,6.26-4.125c1.717-0.528,0.93-0.286,2.645-0.814
					c0.096,0.957,0.191,1.913,0.285,2.868c0.043,0.823,0.088,1.647,0.133,2.471c0.002,7.356-3.855,12.405-10.09,15.499
					c-5.809,2.885-11.736,5.96-17.971,7.476c-25.877,6.291-51.339,5.218-75.922-5.97l0.043,0.052c-0.84-0.43-1.681-0.858-2.52-1.288
					c0,0,0.062,0.072,0.062,0.071c-0.437-0.528-0.873-1.059-1.31-1.59C45.812,185.454,44.569,183.949,43.327,182.442z"/>
			</g>
		</g>
	</g>
</g>
</svg>
