<?xml version="1.0" encoding="utf-8"?>
<!-- Generator: Adobe Illustrator 16.0.0, SVG Export Plug-In . SVG Version: 6.00 Build 0)  -->
<!DOCTYPE svg PUBLIC "-//W3C//DTD SVG 1.1//EN" "http://www.w3.org/Graphics/SVG/1.1/DTD/svg11.dtd">
<svg version="1.1" id="Layer_1" xmlns="http://www.w3.org/2000/svg" xmlns:xlink="http://www.w3.org/1999/xlink" x="0px" y="0px"
	  viewBox="0 0 195 293" enable-background="new 0 0 195 293" xml:space="preserve">
<rect fill="#ABDFE9" width="195" height="293"/>
<g>
	<path fill-rule="evenodd" clip-rule="evenodd" fill="#F47D52" d="M130.709,195.598c-1.749,1.209-3.368,2.712-5.278,3.554
		c-2.646,1.166-5.511,1.834-8.281,2.716c-8.261-0.6-15.55-3.712-21.982-8.796c-2.355-1.861-4.451-4.08-6.506-6.283
		c-1.334-1.431-2.381-3.129-3.363-5.058c0.474,0.129,0.952,0.244,1.421,0.39c6.815,2.104,13.628,4.217,20.446,6.311
		c0.455,0.14,0.953,0.141,1.432,0.205l-0.016-0.02c0.226,0.116,0.451,0.232,0.677,0.349c2.855,0.879,5.712,1.758,8.568,2.636
		c0.902,0.322,1.793,0.683,2.708,0.96C123.922,193.588,127.316,194.588,130.709,195.598z"/>
	<path fill-rule="evenodd" clip-rule="evenodd" fill="#F6895A" d="M138.038,119.361c-2.678-1.037-5.549-1.571-8.333-2.334
		c0.456,2.29,0.993,4.567,1.344,6.873c0.317,2.091,0.433,4.214,0.637,6.321c0.111,1.431,0.222,2.859,0.332,4.29
		c-0.11,1.431-0.222,2.86-0.333,4.291c-0.221,1.431-0.441,2.86-0.661,4.291c-0.442,1.98-0.885,3.962-1.327,5.942
		c1.064,0.812,2.125,1.628,3.194,2.434c0.946,0.713,1.684,1.523,1.41,2.839c0.083,0.012,0.166,0.016,0.25,0.011
		c0.068-0.199,0.137-0.398,0.347-1.008c1.442,2.182,2.717,4.107,3.99,6.033c1.781-2.227,3.562-4.453,5.343-6.68
		c0.219-0.44,0.438-0.882,0.656-1.322c0.77-1.101,1.538-2.202,2.307-3.303c1.195-2.743,2.671-5.403,3.511-8.252
		c0.902-3.062,1.204-6.301,1.776-9.46c0.066-0.363,0.187-0.716,0.282-1.072C148.651,124.771,143.662,121.54,138.038,119.361z"/>
	<path fill-rule="evenodd" clip-rule="evenodd" fill="#F7986C" d="M74.277,131.224c1.278,0.815,0.522,2.061,0.52,3.083
		c-0.001,0.287-1.063,0.721-1.685,0.832c-2.837,0.506-5.683,0.975-8.54,1.355c-2.911,0.388-5.839,0.648-8.757,0.989
		c-0.353,0.041-0.689,0.227-1.033,0.346c-2.643-0.409-5.332-0.628-7.919-1.262c-9.207-2.255-17.577-11.267-16.858-23.771
		c0.556-9.669,8.362-18.965,18.5-20.384c5.311-0.743,10.874-0.413,16.243,0.169c7.41,0.804,14.72,2.492,22.118,3.458
		c9.226,1.206,18.53,1.396,27.801,0.646c5.675-0.46,11.318-1.396,16.943-2.317c2.516-0.411,4.97-1.272,6.636-3.532
		c0.146,0.138,0.294,0.275,0.441,0.413c-0.504,0.628-0.882,1.507-1.535,1.832c-1.707,0.85-3.482,1.658-5.32,2.125
		c-9.724,2.473-19.659,2.691-29.622,2.69c-11.046,0-21.869-1.739-32.665-3.826c-5.958-1.151-12-1.519-18.051-1.265
		c-11.012,0.463-20.044,9.502-20.609,20.453c-0.59,11.441,7.271,21.265,18.391,22.972c0.758,0.116,1.524,0.183,2.286,0.272
		c1.627-0.111,3.255-0.223,4.883-0.334C62.627,135.379,68.556,133.675,74.277,131.224z"/>
	<path fill-rule="evenodd" clip-rule="evenodd" fill="#F68859" d="M161.002,165.067c-0.584,0.45-1.279,0.756-1.925,1.127
		c-2.252,1.428-4.476,2.904-6.769,4.263c-0.97,0.575-2.085,0.902-3.135,1.342c-0.328,0.004-0.656,0.008-0.985,0.012
		c0.001,0.109,0.001,0.219,0,0.327c-0.33,0.109-0.66,0.219-0.99,0.327c-1.76,0.55-3.52,1.099-5.278,1.647
		c-0.512,7.79-3.44,14.501-8.957,20.056c-0.209,0.048-0.418,0.096-0.626,0.144c-0.543,0.429-1.086,0.857-1.629,1.286
		c-1.748,1.209-3.367,2.712-5.277,3.554c-2.646,1.166-5.511,1.834-8.281,2.716c0.313,0.082,0.624,0.225,0.94,0.238
		c18.17,0.785,32.217-6.313,41.544-22.066c3.277-5.535,5.04-11.647,5.243-18.142C163.588,162.959,162.322,164.049,161.002,165.067z"
		/>
	<path fill-rule="evenodd" clip-rule="evenodd" fill="#E77852" d="M134.936,161.237c-0.129-2.306-0.257-4.611-0.385-6.918
		c-0.084,0.005-0.167,0.001-0.25-0.011c0.273-1.315-0.464-2.126-1.41-2.839c-1.069-0.806-2.13-1.622-3.194-2.434
		c-0.988-0.44-1.976-0.88-2.963-1.32c-1.645-0.448-3.288-0.896-4.932-1.345l-0.119,0.02c0,0-0.12-0.019-0.119-0.019
		c-0.166,0.523-0.332,1.048-0.498,1.572c-0.505,1.68-1.009,3.359-1.513,5.039c-0.627,3.301-0.27,6.993,0.915,9.012
		c0.513-1.2,1.034-2.335,1.483-3.497c0.621-1.605,1.187-3.233,1.776-4.852c0.663-0.272,0.663-0.272,0.732,1.001
		c-0.629,4.257,0.413,8.128,2.864,11.744c0.541-3.15,1.082-6.3,1.623-9.45c0.101-0.415,0.2-0.831,0.301-1.246
		c0.09,0.002,0.18,0.004,0.27,0.006c0.168,0.638,0.336,1.275,0.504,1.912c0.393,3.439,3.162,8.463,5.372,9.58
		C135.237,165.16,135.087,163.199,134.936,161.237z"/>
	<path fill-rule="evenodd" clip-rule="evenodd" fill="#E97A53" d="M87.14,143.772c-1.711-0.105-3.422-0.22-5.134-0.312
		c-0.707-0.037-1.417-0.023-2.126-0.033c-0.541-0.094-1.082-0.188-1.623-0.28c0,0.001-0.006-0.014-0.006-0.014
		c-0.415,0.323-0.783,0.782-1.253,0.944c-2.317,0.8-4.662,1.521-7.145,2.318c3.386,0,6.539,0,9.691,0
		c2.324-0.004,4.647-0.007,6.97-0.011c1.634-0.658,3.268-1.316,4.902-1.975C89.991,144.198,88.565,143.985,87.14,143.772z"/>
	<polygon fill-rule="evenodd" clip-rule="evenodd" fill="#E16943" points="108.597,188.636 108.589,188.62 108.581,188.616 	"/>
	<path fill-rule="evenodd" clip-rule="evenodd" fill="#E16943" d="M125.187,190.572c-0.476-0.279-0.951-0.56-1.428-0.839
		c-0.161-0.073-0.321-0.147-0.482-0.221c-1.813-0.962-3.626-1.923-5.439-2.885c-4.78-2.625-9.561-5.251-14.341-7.877
		c0.755,3.203,2.242,5.883,4.271,8.27c0.273,0.534,0.548,1.066,0.821,1.6c0.223,0.115,0.446,0.229,0.669,0.345
		c2.855,0.879,5.712,1.758,8.568,2.636c0.902,0.322,1.793,0.683,2.708,0.96c3.388,1.027,6.782,2.027,10.174,3.037
		c0.543-0.429,1.086-0.857,1.629-1.286C129.953,193.064,127.57,191.818,125.187,190.572z"/>
	<path fill-rule="evenodd" clip-rule="evenodd" fill="#F68B5C" d="M74.83,142.813c0.142,0.067,0.284,0.135,0.426,0.202
		C75.114,142.948,74.972,142.881,74.83,142.813z"/>
	<path fill-rule="evenodd" clip-rule="evenodd" fill="#080606" d="M70.964,119.627c2.365-1.325,3.408-1.243,5.585,0.44
		c1.358,2.873,0.563,5.188-2.072,6.031c-1.467,0.47-2.642-0.145-3.748-1.011C69.398,122.944,69.449,121.758,70.964,119.627z
		 M74.774,122.981c0.504-0.676,1.031-1.076,1.015-1.453c-0.015-0.327-0.608-0.79-1.014-0.878c-0.229-0.05-0.839,0.537-0.84,0.838
		C73.934,121.89,74.359,122.292,74.774,122.981z"/>
	<path fill-rule="evenodd" clip-rule="evenodd" fill="#F36D42" d="M149.174,171.799c1.05-0.439,2.165-0.767,3.135-1.342
		c2.293-1.358,4.517-2.835,6.769-4.263c0.646-0.371,1.341-0.677,1.925-1.127c1.32-1.019,2.586-2.108,3.875-3.17
		c0.504-5.364-0.197-10.596-1.845-15.699c-2.083-6.45-5.356-12.198-10.27-16.942c-0.096,0.356-0.216,0.709-0.282,1.072
		c-0.572,3.159-0.874,6.397-1.776,9.46c-0.84,2.849-2.315,5.509-3.511,8.252c-0.769,1.101-1.537,2.202-2.307,3.303
		c-0.219,0.44-0.438,0.882-0.656,1.322c-1.781,2.227-3.562,4.453-5.343,6.68c2.126,4.693,2.911,9.662,3.032,14.768
		c1.759-0.549,3.519-1.098,5.278-1.647L149.174,171.799z"/>
	<path fill-rule="evenodd" clip-rule="evenodd" fill="#FFFFFF" d="M108.581,188.616c0.226,0.116,0.451,0.232,0.677,0.349
		C109.032,188.849,108.807,188.732,108.581,188.616z"/>
	<path fill-rule="evenodd" clip-rule="evenodd" fill="#F47A4F" d="M150.213,152.274c-0.093-0.072-0.186-0.146-0.279-0.218"/>
	<path fill-rule="evenodd" clip-rule="evenodd" fill="#F47A4F" d="M85.486,115.052c-1.978-0.182-3.957-0.363-5.935-0.545
		c-3.309-0.289-6.618-0.578-9.927-0.867c0.706,0.686,1.455,1.006,2.208,1.316c0.711,0.294,1.427,0.578,2.14,0.865
		c-0.035,0.115-0.071,0.229-0.107,0.343c-0.747,0.07-1.493,0.142-2.24,0.212c-12.028-0.019-24.056-0.037-36.084-0.049
		c-0.206,0-0.412,0.082-0.761,0.156c0.611,7.216,4.963,11.859,10.413,15.788c2.123,1.41,4.246,2.82,6.368,4.231
		c1.627-0.111,3.255-0.223,4.883-0.334c6.182-0.79,12.11-2.494,17.832-4.945c1.278,0.815,0.522,2.061,0.52,3.083
		c-0.001,0.287-1.063,0.721-1.685,0.832c-2.837,0.506-5.683,0.975-8.54,1.355c-2.911,0.388-5.839,0.648-8.757,0.989
		c-0.353,0.041-0.689,0.227-1.033,0.346c3.963,1.318,7.926,2.637,11.889,3.955c2.72,0.343,5.439,0.687,8.159,1.029
		c0.142,0.067,0.284,0.135,0.426,0.202c0.999,0.039,1.997,0.079,2.995,0.118l0.007,0.015c0.286-0.241,0.545-0.648,0.861-0.697
		c3.682-0.578,7.248-1.742,10.124-4.002c2.931-2.304,5.346-5.267,7.961-7.966c0.449-0.464,0.766-1.057,1.143-1.591
		c0.815-2.383,1.673-4.753,2.42-7.157c0.234-0.754,0.171-1.6,0.244-2.403c0.109-0.998,0.219-1.996,0.328-2.994
		C96.054,115.909,90.77,115.48,85.486,115.052z M70.964,119.627c2.365-1.325,3.408-1.243,5.585,0.44
		c1.358,2.873,0.563,5.188-2.072,6.031c-1.467,0.47-2.642-0.145-3.748-1.011C69.398,122.944,69.449,121.758,70.964,119.627z"/>
	<path fill-rule="evenodd" clip-rule="evenodd" fill="#F47C51" d="M83.79,119.994"/>
	<path fill-rule="evenodd" clip-rule="evenodd" fill="#F36D42" d="M76.311,134.377"/>
	<path fill-rule="evenodd" clip-rule="evenodd" fill="#F36D42" d="M76.169,134.012"/>
	<path fill-rule="evenodd" clip-rule="evenodd" fill="#F37145" d="M131.686,130.222c-0.204-2.107-0.319-4.23-0.637-6.321
		c-0.351-2.306-0.888-4.583-1.344-6.873c-2.75-0.217-5.5-0.433-8.25-0.649c-3.19-0.007-6.381-0.014-9.571-0.021
		c0.659,1.762,1.318,3.521,1.977,5.282l12.873,26.077c0.987,0.44,1.975,0.88,2.963,1.32c0.442-1.98,0.885-3.962,1.327-5.942
		c0.22-1.431,0.44-2.86,0.661-4.291c0.111-1.431,0.223-2.86,0.333-4.291C131.907,133.081,131.797,131.652,131.686,130.222z"/>
	<path fill-rule="evenodd" clip-rule="evenodd" fill="#F37145" d="M115.521,130.225c0.104,0.549,0.21,1.097,0.314,1.646
		c0.223,2.531,0.446,5.062,0.669,7.592c0.005,0.552,0.011,1.103,0.017,1.654c0.104,1.248,0.196,2.498,0.317,3.745
		c0.093,0.955-0.353,1.28-1.256,1.203c-3.746-0.318-7.495-0.615-11.242-0.932c-1.304-0.11-2.603-0.308-3.908-0.371
		c-3.004-0.147-6.011-0.237-9.016-0.351c-1.634,0.658-3.268,1.316-4.902,1.975c-0.314,0.264-0.593,0.602-0.951,0.776
		c-2.466,1.201-4.953,2.358-7.424,3.549c-1.833,0.884-3.651,1.798-5.476,2.697c0.399,0.356,0.686,0.393,0.961,0.351
		c10.032-1.532,20.064-3.053,30.091-4.616c5.696-0.888,11.381-1.847,17.07-2.773c0.259,0.001,0.519,0.002,0.777,0.003
		c-0.001,0,0.119,0.019,0.119,0.019l0.119-0.02c1.644,0.448,3.287,0.896,4.931,1.345L113.86,121.64
		C114.414,124.501,114.968,127.362,115.521,130.225z"/>
	<path fill-rule="evenodd" clip-rule="evenodd" fill="#F68E5F" d="M145.438,182.03"/>
	<path fill-rule="evenodd" clip-rule="evenodd" fill="#F47A4F" d="M144.217,170.214"/>
	<path fill-rule="evenodd" clip-rule="evenodd" fill="#EAEAEA" d="M74.774,122.981c-0.415-0.689-0.84-1.092-0.839-1.493
		c0.001-0.301,0.611-0.888,0.84-0.838c0.406,0.088,0.999,0.551,1.014,0.878C75.805,121.905,75.278,122.306,74.774,122.981z"/>
	<path fill-rule="evenodd" clip-rule="evenodd" fill="#F68F5F" d="M87.14,143.772c1.425,0.213,2.851,0.426,4.276,0.639
		c3.005,0.113,6.012,0.203,9.016,0.351c1.306,0.063,2.604,0.261,3.908,0.371c3.747,0.316,7.496,0.613,11.242,0.932
		c0.903,0.077,1.349-0.248,1.256-1.203c-0.121-1.247-0.213-2.497-0.317-3.745c-0.006-0.552-0.012-1.103-0.017-1.654
		c-0.223-2.53-0.446-5.061-0.669-7.592c-0.104-0.549-0.21-1.097-0.314-1.646c-0.554-2.862-1.107-5.724-1.661-8.585
		c-0.658-1.762-1.317-3.521-1.977-5.283c-3.515-0.006-7.03-0.012-10.545-0.019c-0.109,0.998-0.219,1.996-0.328,2.994
		c-0.073,0.804-0.01,1.649-0.244,2.403c-0.747,2.404-1.604,4.774-2.42,7.157c-0.377,0.534-0.694,1.127-1.143,1.591
		c-2.615,2.699-5.03,5.662-7.961,7.966c-2.876,2.26-6.442,3.424-10.124,4.002c-0.315,0.049-0.575,0.456-0.861,0.696
		c0.541,0.093,1.082,0.187,1.623,0.28c0.709,0.01,1.419-0.004,2.126,0.033C83.718,143.553,85.429,143.667,87.14,143.772"/>
</g>
</svg>
