<?xml version="1.0" encoding="utf-8"?>
<!-- Generator: Adobe Illustrator 16.0.0, SVG Export Plug-In . SVG Version: 6.00 Build 0)  -->
<!DOCTYPE svg PUBLIC "-//W3C//DTD SVG 1.1//EN" "http://www.w3.org/Graphics/SVG/1.1/DTD/svg11.dtd">
<svg version="1.1" id="Layer_1" xmlns="http://www.w3.org/2000/svg" xmlns:xlink="http://www.w3.org/1999/xlink" x="0px" y="0px"
	 viewBox="0 0 195 293" enable-background="new 0 0 195 293" xml:space="preserve">
<rect fill="#FCF9CE" width="195" height="293"/>
<g>
	<g id="wh4Xmm_1_">
		<g>
			<path fill-rule="evenodd" clip-rule="evenodd" fill="#A0B95B" d="M59.33,84.042c24.237,33.092,48.424,66.224,72.82,99.2
				c1.815,2.455,5.096,5.363,7.73,5.396c10.412,0.139,13.243,8.107,18.618,15.346c-5.87,0.047-10.418,0.082-14.965,0.119
				c-3.816-4.447-7.628-8.891-11.44-13.334c-19.482-26.232-38.963-52.464-58.447-78.699c-6.277-8.45-12.56-16.896-18.838-25.339
				C56.317,85.839,57.823,84.941,59.33,84.042z"/>
			<path fill-rule="evenodd" clip-rule="evenodd" fill="#4B6276" d="M66.032,79.35c-6.771-1.886-12.633-3.519-18.49-5.152
				C47.84,80,48.132,85.802,48.46,91.602c0.011,0.187,0.406,0.352,1.198,0.989L66.032,79.35z"/>
			<path fill-rule="evenodd" clip-rule="evenodd" fill="#4E6575" d="M132.094,190.77c3.812,4.443,7.624,8.887,11.44,13.334
				c-0.687,3.373-1.373,6.748-2.216,10.891C130.317,208.838,130.348,200.113,132.094,190.77z"/>
		</g>
	</g>
	<g id="wh4Xmm_2_">
		<g>
			<path fill-rule="evenodd" clip-rule="evenodd" fill="#A0B95B" d="M137.057,88.384c-24.361,33.001-48.776,65.966-72.979,99.083
				c-1.802,2.465-3.6,6.463-2.848,8.988c2.972,9.98-3.79,15.059-9.098,22.348c-1.793-5.59-3.184-9.922-4.573-14.25
				c3.105-4.969,6.211-9.932,9.316-14.895c19.231-26.418,38.463-52.833,57.695-79.253c6.194-8.511,12.383-17.025,18.57-25.535
				C134.443,86.044,135.75,87.214,137.057,88.384z"/>
			<path fill-rule="evenodd" clip-rule="evenodd" fill="#4B6276" d="M143.534,93.383c-0.219-7.025-0.408-13.108-0.595-19.185
				c-5.449,2.013-10.901,4.021-16.339,6.064c-0.176,0.066-0.215,0.492-0.587,1.439L143.534,93.383z"/>
			<path fill-rule="evenodd" clip-rule="evenodd" fill="#4E6575" d="M56.875,189.658c-3.105,4.963-6.211,9.926-9.316,14.895
				c-3.426,0.35-6.852,0.701-11.058,1.133C39.098,193.35,47.436,190.777,56.875,189.658z"/>
		</g>
	</g>
</g>
</svg>
