<?xml version="1.0" encoding="utf-8"?>
<!-- Generator: Adobe Illustrator 16.0.0, SVG Export Plug-In . SVG Version: 6.00 Build 0)  -->
<!DOCTYPE svg PUBLIC "-//W3C//DTD SVG 1.1//EN" "http://www.w3.org/Graphics/SVG/1.1/DTD/svg11.dtd">
<svg version="1.1" id="Layer_1" xmlns="http://www.w3.org/2000/svg" xmlns:xlink="http://www.w3.org/1999/xlink" x="0px" y="0px"
	  viewBox="0 0 195 293" enable-background="new 0 0 195 293" xml:space="preserve">
<rect fill="#F16667" width="195" height="293"/>
<g id="njAjGr.tif">
	<g>
		<path fill-rule="evenodd" clip-rule="evenodd" fill="#CC2036" d="M124.879,131.619c9.442,2.678,12.932,12.125,11.36,21.105
			c-1.241,7.097-6.309,13.625-16.148,13.566c-3.639-0.521-7.14-1.387-10.012-3.898c-0.326-0.286-0.808-0.396-1.217-0.586
			c-1.312-1.467-2.959-1.424-4.682-1.039c-1.134,0.59-2.31,1.111-3.391,1.783c-1.385,0.862-2.731,1.307-4.308,0.492
			c-2.176-1.125-2.882-2.979-2.103-5.754c1.974-2.694,1.984-3.102,0.143-5.315c2.294-0.009,4.589-0.018,6.884-0.026
			c0.552,2.685,1.118,3.094,3.264,2.359c0.368-0.57,1.03-1.129,1.056-1.715c0.113-2.69,0.116-5.391-0.008-8.08
			c-0.024-0.517-0.799-1-1.228-1.498c-2.141-0.464-2.534-0.135-3.092,2.578c-3.68-0.06-7.359-0.12-11.04-0.18
			c-0.426-3.006,0.379-5.569,2.726-7.577c1.445-0.367,2.883-0.769,4.339-1.083c0.687-0.149,1.409-0.129,2.115-0.186
			c0.812,1.242,1.628,1.691,2.616,1.439c0.052,0.064,0.116,0.111,0.193,0.141c0.658,0.292,1.438,0.964,1.949,0.8
			c1.188-0.38,2.421-0.977,3.322-1.821c2.163-2.027,4.35-3.928,7.723-4.891c-0.958,2.875-1.792,5.377-2.625,7.879
			c-0.347,0.932-0.693,1.865-1.041,2.797c-0.196,0.193-0.57,0.394-0.563,0.578c0.056,1.359-0.854,1.916-1.815,2.601
			c-1.74,1.24-2.337,3.682-1.587,5.686c1.104,2.955,3.645,4.15,7.113,3.348c0.282,0.006,0.564,0.02,0.847,0.02
			c2.266-0.002,2.556-0.285,2.544-2.512c-0.006-1.016-0.035-2.029-0.053-3.045c0.056-1.289,0.111-2.578,0.166-3.868
			c2.074-0.172,2.628-0.901,2.322-3.056c0.688-2.038,1.321-4.097,2.084-6.106C123.369,134.882,124.157,133.263,124.879,131.619z
			 M123.76,148.324c-0.002,0-0.004,0-0.007,0c0-1.66,0.055-3.322-0.035-4.977c-0.024-0.453-0.481-0.882-0.74-1.322
			c-0.285,0.417-0.811,0.831-0.819,1.254c-0.068,3.378-0.069,6.76-0.001,10.138c0.008,0.412,0.554,0.814,0.851,1.221
			c0.25-0.446,0.693-0.881,0.718-1.339C123.812,151.645,123.76,149.982,123.76,148.324z"/>
		<path fill-rule="evenodd" clip-rule="evenodd" fill="#333333" d="M124.879,131.619c-0.722,1.644-1.51,3.263-2.146,4.939
			c-0.763,2.01-1.396,4.069-2.084,6.106c-2.645-0.85-5.289-1.699-7.933-2.549c0.833-2.502,1.667-5.004,2.625-7.879
			c-3.373,0.963-5.56,2.864-7.723,4.891c-0.901,0.844-2.135,1.441-3.322,1.821c-0.512,0.164-1.291-0.508-1.949-0.8
			c0.352-2.137,0.702-4.274,1.054-6.411c1.405-5.434,2.863-10.855,4.2-16.306c0.91-3.713,1.104-2.796-2.021-4.155
			c-1.102-0.479-2.242-0.868-3.364-1.298c-0.113-0.335-0.227-0.67-0.34-1.005c0.589-0.444,1.143-0.947,1.774-1.32
			c1.246-0.736,1.332-1.504,0.576-2.77c-1.81-3.032-3.441-6.171-5.145-9.268c4.294-0.164,8.613-0.296,12.523,1.861
			c1.104,0.609,2.052,1.662,2.814,2.7c4.34,5.906,8.585,11.881,12.899,17.806c1.217,1.672,1.14,3.399,0.51,5.211
			C126.851,126.003,125.862,128.811,124.879,131.619z M116.439,117.705c0,3.773,0,7.153,0,10.533
			c0.146,0.022,0.292,0.045,0.438,0.068c0.701-1.902,1.445-3.791,2.072-5.717c0.153-0.473,0.094-1.169-0.157-1.591
			C118.156,119.932,117.356,118.964,116.439,117.705z"/>
		<path fill-rule="evenodd" clip-rule="evenodd" fill="#999999" d="M94.379,157.289c-0.778,2.775-0.072,4.629,2.104,5.754
			c1.576,0.814,2.923,0.37,4.308-0.492c1.081-0.672,2.257-1.193,3.391-1.783c-2.652,3.654-5.283,7.326-7.965,10.959
			c-3.363,4.559-6.815,9.052-10.114,13.656c-0.608,0.848-1.005,2.115-0.925,3.145c0.531,6.784,1.229,13.555,1.852,20.332
			c0.198,2.163,0.335,4.333,0.501,6.499c-3.173,0.327-6.346,0.656-9.52,0.984c-0.119-0.442-0.302-0.878-0.346-1.327
			c-0.943-9.689-1.944-19.374-2.723-29.076c-0.116-1.444,0.547-3.141,1.333-4.426c1.397-2.29,3.157-4.36,4.776-6.514
			C85.49,169.094,89.936,163.192,94.379,157.289z"/>
		<path fill-rule="evenodd" clip-rule="evenodd" fill="#999999" d="M108.862,161.807c0.409,0.19,0.891,0.3,1.217,0.586
			c2.872,2.512,6.373,3.377,10.012,3.898c0.99,5.238,1.896,10.496,3.021,15.707c0.418,1.933,1.229,3.811,2.068,5.618
			c3.816,8.217,7.707,16.399,11.571,24.594c-2.825,1.383-5.652,2.765-8.479,4.146c-0.394-0.458-0.909-0.856-1.163-1.383
			c-4.388-9.075-8.88-18.104-13.019-27.293c-1.219-2.704-1.489-5.854-2.066-8.823C110.923,173.184,109.911,167.491,108.862,161.807z
			"/>
		<path fill-rule="evenodd" clip-rule="evenodd" fill="#333333" d="M78.01,216.343c3.173-0.328,6.347-0.657,9.52-0.984
			c0.135,0.64,0.27,1.28,0.406,1.92c-1.292,0.15-2.585,0.306-3.878,0.452c-1.079,0.122-2.197,0.326-1.947,1.757
			c0.231,1.323,1.335,1.307,2.417,1.207c1.234-0.114,2.475-0.165,3.713-0.242c0.421,3.86,0.851,7.721,1.26,11.584
			c0.125,1.193-0.543,1.653-1.649,1.659c-3.837,0.019-7.673,0.06-11.51,0.059c-6.689-0.002-13.378-0.028-20.067-0.047
			c-0.628-0.001-1.322,0.15-1.866-0.066c-0.584-0.234-1.38-0.783-1.43-1.263c-0.047-0.452,0.664-1.264,1.201-1.447
			c2.056-0.698,4.156-1.304,6.279-1.757c1.658-0.354,2.877-1.014,3.222-2.787c0.163,0.067,0.327,0.134,0.492,0.2
			c0.931-0.014,1.862-0.027,2.792-0.04c0.238,0.153,0.645,0.269,0.688,0.465c0.489,2.175,2.433,2.191,4.003,2.615
			c0.533,0.145,1.342-0.276,1.869-0.655c1.412-1.016,2.785-2.097,4.075-3.261c0.45-0.405,0.874-1.136,0.86-1.706
			C78.398,221.448,78.174,218.896,78.01,216.343z"/>
		<path fill-rule="evenodd" clip-rule="evenodd" fill="#F19A8E" d="M73.018,93.709c-0.854-2.309-1.565-4.64-1.062-7.15
			c0.625,0.041,1.25,0.105,1.875,0.119c3.031,0.07,5.951-0.352,8.367-2.366c0.828-0.691,1.446-1.636,2.423-2.769
			c-0.144,2.021-0.259,3.647-0.378,5.321c0.312,0,0.533,0.03,0.743-0.005c1.108-0.189,2.268-0.05,2.562,1.101
			c0.203,0.799-0.101,1.885-0.529,2.645c-0.494,0.877-1.375,1.538-2.31,2.527c0.897-0.094,1.494-0.046,2.008-0.231
			c1.241-0.445,2.412-0.938,3.52,0.321c0.133,0.15,0.763-0.137,1.162-0.221c0.787,0.625,1.573,1.251,2.359,1.877
			c0.245,0.28,0.49,0.56,0.735,0.84l0.026,0.11c0.335,0.65,0.67,1.299,1.005,1.949c0.071,0.167,0.143,0.335,0.214,0.502l0.008,0.115
			l0.104,0.043c0.078,0.178,0.155,0.355,0.233,0.534l0.008,0.116l0.105,0.047l0.044,0.139c0.221,0.422,0.441,0.845,0.663,1.268
			l0.026,0.109c0.335,0.653,0.672,1.306,1.008,1.958c0,0,0.024,0.108,0.024,0.107c0.197,0.49,0.395,0.982,0.592,1.473
			c-0.317,0.6-0.576,1.24-0.963,1.791c-1.756,2.502-4.333,2.591-6.225,0.243c-0.15-2.336-0.736-4.419-3.149-5.444
			c-1.005-1.005-1.964-2.065-3.043-2.984c-0.327-0.279-1.104-0.392-1.476-0.199c-2.568,1.332-5.051,1.157-7.528-0.19
			C75.12,96.172,74.068,94.94,73.018,93.709z"/>
		<path fill-rule="evenodd" clip-rule="evenodd" fill="#333333" d="M128.273,216.356c2.826-1.382,5.653-2.764,8.479-4.146
			c0.367,0.568,0.733,1.137,1.102,1.704c-1.199,0.634-2.386,1.292-3.601,1.893c-0.965,0.478-1.71,1.1-1.18,2.246
			c0.538,1.164,1.554,0.948,2.493,0.539c1.246-0.544,2.468-1.143,3.7-1.718c1.565,3.238,3.151,6.468,4.688,9.72
			c0.753,1.593,1.561,3.182,2.08,4.854c0.563,1.811,0.091,2.317-1.729,2.323c-4.119,0.013-8.24,0.043-12.359-0.006
			c-2.274-0.026-2.603-0.479-1.849-2.566c0.4-1.111,0.91-2.265,1.667-3.145c0.777-0.904,0.812-1.567,0.296-2.573
			c-1.123-2.186-2.157-4.42-3.148-6.67C128.577,218.048,128.479,217.178,128.273,216.356z"/>
		<path fill-rule="evenodd" clip-rule="evenodd" fill="#CCCCCC" d="M66.964,226.547c-0.931,0.013-1.862,0.026-2.792,0.04
			c0.003-19.78,0.006-39.561,0.004-59.341c0-0.512-0.063-1.025-0.097-1.538c0.005-0.212,0.01-0.425,0.014-0.638
			c0.954-0.001,1.908-0.002,2.861-0.002C66.958,185.561,66.961,206.054,66.964,226.547z"/>
		<path fill-rule="evenodd" clip-rule="evenodd" fill="#333333" d="M60.364,103.675c0.458-2.653,0.616-2.782,3.142-2.566
			c0.439,1.127,0.877,2.256,1.315,3.386c0.674,1.639,1.049,3.509,2.094,4.861c1.496,1.935,1.719,2.353,0.034,4.324
			c-0.931,0.068-1.862,0.136-2.901,0.212c0,0.67,0,1.351,0,2.032c0.01,11.899,0.021,23.799,0.031,35.699
			c-0.115,0.174-0.23,0.347-0.345,0.52c-1.672-0.126-3.064,0.213-4.611,1.178c-1.396,0.87-3.48,0.602-5.244,0.932
			c-0.822,0.155-1.601,0.541-2.397,0.822c-0.151,0-0.306-0.001-0.461-0.002c-0.174-0.279-0.335-0.791-0.524-0.801
			c-1.082-0.061-2.171-0.015-3.257,0.019c-2.402,0.074-3.261-0.716-3.277-3.063c-0.012-1.716-0.012-3.433,0-5.149
			c0.015-2.021,0.693-2.768,2.742-2.917c1.082-0.079,2.178,0.024,3.257-0.072c0.257-0.022,0.473-0.51,0.705-0.785
			c0.309,0.002,0.622,0.005,0.934,0.009c0.201,0.264,0.391,0.746,0.605,0.757c1.335,0.07,2.676,0.035,4.077-0.296
			c-0.261-0.147-0.522-0.294-0.786-0.441c0.626-0.341,1.255-0.683,1.884-1.023c-0.115,0.486-0.229,0.973-0.334,1.413
			c1.107,0.742,2.112,1.639,3.286,2.13c0.929,0.389,2.123,0.512,3.084,0.279c0.387-0.094,0.654-1.453,0.657-2.238
			c0.045-9.045,0.049-18.092,0.001-27.137c-0.005-0.988-0.432-1.968-0.596-2.963c-0.118-0.716-0.209-1.456-0.164-2.175
			c0.128-2.02-0.878-3.473-2.593-3.617c0.149-0.387,0.48-0.812,0.412-1.156C60.988,105.101,60.634,104.396,60.364,103.675z
			 M51.734,144.029c-1.605,0-3.213,0.061-4.814-0.018c-1.511-0.073-2.072,0.625-2.045,2.047c0.032,1.662-0.011,3.325,0.01,4.987
			c0.025,1.956,0.642,2.597,2.562,2.615c2.637,0.025,5.287,0.165,7.905-0.058c1.406-0.119,2.761-0.879,4.128-1.379
			c0.679-0.249,1.331-0.795,2-0.805c2.276-0.032,2.323-0.007,2.337-2.211c0.003-0.4-0.036-0.807,0.007-1.203
			c0.147-1.363-0.326-2.003-1.814-1.956c-0.729,0.023-1.595-0.263-2.186-0.698c-1.31-0.966-2.667-1.467-4.309-1.342
			C54.262,144.105,52.995,144.029,51.734,144.029z"/>
		<path fill-rule="evenodd" clip-rule="evenodd" fill="#999999" d="M95.737,98.279c-0.071-0.167-0.143-0.335-0.214-0.502
			c-0.335-0.649-0.67-1.299-1.005-1.95c0,0-0.026-0.11-0.026-0.109c-0.028-0.288-0.057-0.577-0.085-0.866
			c1.387,0.179,2.774,0.358,4.162,0.538c0.171,0.074,0.342,0.148,0.513,0.224c1.703,3.098,3.335,6.237,5.145,9.269
			c0.756,1.266,0.67,2.034-0.576,2.77c-0.632,0.373-1.186,0.875-1.773,1.318c-0.408-0.606-0.839-1.198-1.223-1.818
			c-0.909-1.472-1.796-2.958-2.692-4.438c0,0-0.024-0.108-0.024-0.107c-0.336-0.652-0.673-1.305-1.008-1.959
			c0,0-0.026-0.109-0.026-0.108c-0.222-0.422-0.442-0.846-0.663-1.269c0,0-0.044-0.139-0.044-0.137
			c-0.022-0.064-0.061-0.12-0.113-0.164c-0.078-0.178-0.155-0.356-0.233-0.533C95.827,98.375,95.79,98.322,95.737,98.279z"/>
		<path fill-rule="evenodd" clip-rule="evenodd" fill="#333333" d="M73.018,93.709c1.051,1.231,2.102,2.463,3.153,3.696
			c-1.156,3.955-2.345,4.751-5.901,3.954c-0.731-1.18-1.462-2.359-2.193-3.539C68.512,94.993,70.446,93.969,73.018,93.709z"/>
		<path fill-rule="evenodd" clip-rule="evenodd" fill="#333333" d="M63.735,152.143c0.115-0.173,0.23-0.346,0.345-0.52
			c0,2.042,0,4.084,0,6.332c1.191-0.08,2.03-0.137,2.869-0.193c1.465,1.141,1.47,6.16,0.006,7.307c-0.953,0-1.907,0.001-2.861,0.002
			c-0.307-0.301-0.887-0.613-0.877-0.902c0.078-2.136,0.316-4.264,0.419-6.398C63.727,155.896,63.707,154.019,63.735,152.143z"/>
		<path fill-rule="evenodd" clip-rule="evenodd" fill="#CCCCCC" d="M68.077,97.82c0.731,1.18,1.462,2.359,2.193,3.539
			c-1.816,1.045-3.633,2.091-5.449,3.136c-0.438-1.129-0.876-2.258-1.315-3.386C65.029,100.014,66.553,98.917,68.077,97.82z"/>
		<path fill-rule="evenodd" clip-rule="evenodd" fill="#CCCCCC" d="M60.364,103.675c0.27,0.721,0.624,1.425,0.772,2.17
			c0.069,0.345-0.263,0.769-0.412,1.156c-0.174,0.088-0.348,0.177-0.521,0.266c0.002,0-0.088,0.051-0.088,0.051
			c-1.145,0.64-2.255,1.356-3.45,1.879c-0.447,0.195-1.484,0.083-1.569-0.143c-0.194-0.519-0.203-1.493,0.13-1.757
			C56.864,105.996,58.638,104.866,60.364,103.675z"/>
		<path fill-rule="evenodd" clip-rule="evenodd" fill="#999999" d="M88.24,220.452c-1.238,0.077-2.479,0.128-3.713,0.242
			c-1.081,0.1-2.185,0.116-2.417-1.207c-0.25-1.431,0.868-1.635,1.947-1.757c1.293-0.146,2.586-0.302,3.878-0.452
			C89.329,218.159,89.441,219.319,88.24,220.452z"/>
		<path fill-rule="evenodd" clip-rule="evenodd" fill="#999999" d="M139.267,216.874c-1.232,0.575-2.454,1.174-3.7,1.718
			c-0.939,0.409-1.955,0.625-2.493-0.539c-0.53-1.146,0.215-1.769,1.18-2.246c1.215-0.601,2.401-1.259,3.601-1.893
			C139.159,214.502,139.855,215.381,139.267,216.874z"/>
		<path fill-rule="evenodd" clip-rule="evenodd" fill="#C9DBC5" d="M46.76,142.964c-0.773-1.077-1.579-1.72-1.493-2.203
			c0.108-0.607,0.885-1.384,1.494-1.51c0.393-0.082,1.389,0.855,1.412,1.366C48.199,141.222,47.469,141.861,46.76,142.964z"/>
		<path fill-rule="evenodd" clip-rule="evenodd" fill="#C9DBC5" d="M55.688,158.912c-0.644-0.996-1.385-1.637-1.318-2.178
			c0.068-0.554,0.928-1.01,1.441-1.509c0.527,0.548,1.388,1.048,1.474,1.657C57.352,157.363,56.465,157.979,55.688,158.912z"/>
		<path fill-rule="evenodd" clip-rule="evenodd" fill="#C9DBC5" d="M51.603,142.312c-0.312-0.003-0.625-0.006-0.934-0.009
			c-0.302-0.396-0.793-0.764-0.861-1.198c-0.076-0.486,0.072-1.235,0.412-1.499c0.41-0.319,1.193-0.453,1.683-0.284
			c0.404,0.14,0.737,0.804,0.874,1.298c0.104,0.378-0.149,0.854-0.247,1.287c-0.135,0.058-0.266,0.117-0.396,0.175
			C51.955,142.159,51.779,142.236,51.603,142.312z"/>
		<path fill-rule="evenodd" clip-rule="evenodd" fill="#C9DBC5" d="M51.022,155.072c0.155,0.001,0.31,0.002,0.461,0.002
			c0.357,0.268,0.976,0.499,1.023,0.814c0.096,0.646,0.117,1.607-0.264,1.936c-0.4,0.344-1.531,0.363-1.93,0.031
			c-0.389-0.325-0.384-1.291-0.301-1.942C50.052,155.595,50.667,155.351,51.022,155.072z"/>
		<path fill-rule="evenodd" clip-rule="evenodd" fill="#C9DBC5" d="M48.958,156.731c-1.027,0.724-1.557,1.352-2.19,1.483
			c-1.039,0.217-1.732-0.565-1.536-1.506c0.121-0.576,0.943-1.337,1.512-1.393C47.286,155.264,47.907,156.018,48.958,156.731z"/>
		<path fill-rule="evenodd" clip-rule="evenodd" fill="#C9DBC5" d="M57.383,141.309c-0.629,0.341-1.258,0.682-1.884,1.023
			c-1.087-0.668-1.844-1.606-0.786-2.707c1.034-1.076,2.036-0.378,2.8,0.619c-0.011,0.252-0.021,0.508-0.032,0.764
			C57.371,141.083,57.338,141.184,57.383,141.309z"/>
		<path fill-rule="evenodd" clip-rule="evenodd" fill="#455F6A" d="M76.349,75.945"/>
		<path fill-rule="evenodd" clip-rule="evenodd" fill="#5E2F3A" d="M57.481,141.008c0.01-0.255,0.021-0.511,0.032-0.764
			C57.502,140.501,57.492,140.755,57.481,141.008z"/>
		<path fill-rule="evenodd" clip-rule="evenodd" fill="#455F6A" d="M74.22,78.204"/>
		<path fill-rule="evenodd" clip-rule="evenodd" fill="#5E2F3A" d="M52.132,142.082c0.13-0.058,0.261-0.117,0.396-0.175
			C52.398,141.966,52.265,142.024,52.132,142.082z"/>
		<path fill-rule="evenodd" clip-rule="evenodd" fill="#5E2F3A" d="M60.116,107.319c0,0,0.09-0.051,0.088-0.051
			C60.203,107.268,60.116,107.319,60.116,107.319z"/>
		<path fill-rule="evenodd" clip-rule="evenodd" fill="#333333" d="M94.522,151.974c-4.914,0.055-9.827,0.11-14.74,0.163
			c0.829-4.385-0.798-6.884-4.801-7.374c1.804-3.629,3.586-7.27,5.421-10.884c1.006-1.983,2.139-3.83,1.964-6.266
			c-0.333-4.622-0.167-9.287-0.643-13.89c-0.44-4.256,0.617-7.618,4.109-10.16c0.79-0.575,1.487-1.278,2.228-1.923
			c-0.277,1.974-0.58,3.944-0.824,5.922c-0.402,3.256-0.386,3.256,2.425,4.818c0.194,0.107,0.351,0.28,0.67,0.541
			c-1.164,1.007-2.229,2.03-3.4,2.91c-1.037,0.779-0.936,1.46-0.233,2.403c1.326,1.78,2.558,3.631,3.829,5.453
			c-0.025,0.742-0.183,1.508-0.055,2.223c0.669,3.744,0.204,7.137-1.983,10.44c-1.84,2.778-3.092,5.946-4.86,9.449
			c2.585-0.148,4.658-0.267,6.731-0.386c3.681,0.06,7.36,0.12,11.04,0.18c0-0.001-0.033-0.033-0.033-0.033
			c-0.001,2.138-0.001,4.275-0.002,6.413l0.043-0.025C99.111,151.956,96.816,151.965,94.522,151.974z"/>
		<path fill-rule="evenodd" clip-rule="evenodd" fill="#FFFFFF" d="M91.366,106.221c1.892,2.348,4.469,2.259,6.225-0.243
			c0.387-0.551,0.646-1.191,0.963-1.791c0.837,1.974,2.027,3.881,2.422,5.94c0.477,2.494,0.276,5.118,0.377,7.685
			c0.265,6.731,0.534,13.463,0.802,20.195c-0.988,0.251-1.804-0.197-2.616-1.44c-0.115-0.389-0.23-0.777-0.346-1.166
			c-0.156-0.596-0.274-1.206-0.476-1.787c-2.29-6.617-4.759-13.178-6.803-19.87C91.197,111.399,91.519,108.738,91.366,106.221z"/>
		<path fill-rule="evenodd" clip-rule="evenodd" fill="#F39A8F" d="M114.823,155.125c-3.469,0.803-6.009-0.393-7.113-3.348
			c-0.75-2.004-0.153-4.445,1.587-5.686c0.962-0.685,1.871-1.242,1.815-2.601c-0.007-0.185,0.367-0.385,0.563-0.578
			c0.322,0.197,0.623,0.444,0.968,0.582c1.889,0.756,3.788,1.486,5.684,2.225c-0.055,1.29-0.11,2.579-0.166,3.868
			C117.368,151.626,116.647,153.708,114.823,155.125z"/>
		<path fill-rule="evenodd" clip-rule="evenodd" fill="#ECEBCA" d="M101.365,145.56c0,0,0.033,0.032,0.033,0.033
			c0.558-2.713,0.951-3.042,3.092-2.578c0.246,0.788,0.67,1.568,0.705,2.365c0.098,2.214,0.08,4.437,0.008,6.651
			c-0.025,0.764-0.348,1.518-0.533,2.275c-2.146,0.734-2.712,0.325-3.264-2.359l-0.043,0.025
			C101.364,149.835,101.364,147.697,101.365,145.56z"/>
		<path fill-rule="evenodd" clip-rule="evenodd" fill="#612B36" d="M93.084,137.836c0-3.533-0.001-7.066-0.002-10.6
			c0.416,0.54,0.839,1.074,1.246,1.621c1.624,2.179,3.243,4.362,4.864,6.544c0.115,0.389,0.23,0.777,0.346,1.166
			c-0.706,0.057-1.429,0.037-2.115,0.186C95.967,137.067,94.529,137.47,93.084,137.836z"/>
		<path fill-rule="evenodd" clip-rule="evenodd" fill="#999999" d="M118.327,145.72c-1.896-0.739-3.795-1.469-5.684-2.225
			c-0.345-0.138-0.646-0.385-0.968-0.582c0.348-0.933,0.694-1.866,1.041-2.798c2.644,0.85,5.288,1.7,7.933,2.549
			C120.955,144.819,120.401,145.548,118.327,145.72z"/>
		<path fill-rule="evenodd" clip-rule="evenodd" fill="#6A9386" d="M102.154,138.007c-0.268-6.732-0.537-13.463-0.802-20.195
			c-0.101-2.567,0.1-5.191-0.377-7.685c-0.395-2.06-1.585-3.967-2.422-5.94c-0.197-0.49-0.395-0.982-0.592-1.472
			c0.896,1.48,1.783,2.966,2.692,4.438c0.384,0.621,0.814,1.212,1.223,1.818c0.112,0.336,0.226,0.671,0.339,1.006
			c-0.149,0.637-0.446,1.278-0.425,1.909c0.129,3.75,0.387,7.495,0.491,11.245c0.085,3.098,0.017,6.199,0.017,9.299
			c0.155,0.016,0.31,0.031,0.465,0.047c0.213-0.247,0.425-0.494,0.638-0.74c-0.352,2.137-0.702,4.273-1.054,6.411
			C102.271,138.118,102.206,138.071,102.154,138.007z"/>
		<path fill-rule="evenodd" clip-rule="evenodd" fill="#F1D3BE" d="M123.76,148.324c0,1.658,0.053,3.32-0.034,4.976
			c-0.024,0.458-0.468,0.893-0.718,1.339c-0.297-0.406-0.843-0.809-0.851-1.221c-0.068-3.378-0.067-6.76,0.001-10.138
			c0.009-0.424,0.534-0.837,0.819-1.254c0.259,0.44,0.716,0.869,0.74,1.322c0.09,1.655,0.035,3.317,0.035,4.977
			C123.756,148.324,123.758,148.324,123.76,148.324z"/>
		<path fill-rule="evenodd" clip-rule="evenodd" fill="#F3DEC3" d="M114.823,155.125c1.824-1.417,2.545-3.499,3.338-5.537
			c0.018,1.016,0.047,2.029,0.053,3.045c0.012,2.227-0.278,2.51-2.544,2.512C115.388,155.145,115.105,155.131,114.823,155.125z"/>
		<path fill-rule="evenodd" clip-rule="evenodd" fill="#CE7071" d="M104.67,154.307c0.186-0.758,0.508-1.512,0.533-2.275
			c0.072-2.215,0.09-4.438-0.008-6.651c-0.035-0.797-0.459-1.578-0.705-2.365c0.429,0.498,1.203,0.98,1.228,1.498
			c0.124,2.689,0.121,5.389,0.008,8.08C105.7,153.178,105.038,153.736,104.67,154.307z"/>
		<path fill-rule="evenodd" clip-rule="evenodd" fill="#999999" d="M103.401,131.737c-0.213,0.247-0.425,0.493-0.638,0.74
			c-0.155-0.016-0.31-0.032-0.465-0.047c0-3.1,0.068-6.201-0.017-9.299c-0.104-3.75-0.362-7.495-0.491-11.245
			c-0.021-0.631,0.275-1.272,0.425-1.909c1.122,0.431,2.263,0.82,3.364,1.298c3.126,1.359,2.932,0.442,2.021,4.155
			C106.265,120.882,104.807,126.303,103.401,131.737z"/>
		<path fill-rule="evenodd" clip-rule="evenodd" fill="#999999" d="M88.06,101.641c0.052-0.288,0.104-0.576,0.156-0.865
			c2.414,1.026,3,3.109,3.15,5.445c0.152,2.517-0.169,5.179,0.548,7.524c2.044,6.692,4.513,13.253,6.803,19.87
			c0.201,0.581,0.319,1.19,0.476,1.787c-1.621-2.182-3.24-4.365-4.864-6.544c-0.407-0.546-0.83-1.081-1.246-1.621
			c-0.853-1.183-1.705-2.367-2.557-3.55c-1.271-1.821-2.503-3.672-3.829-5.452c-0.702-0.943-0.804-1.624,0.233-2.403
			c1.172-0.88,2.236-1.903,3.4-2.91c-0.319-0.261-0.476-0.434-0.67-0.541c-2.811-1.562-2.827-1.562-2.425-4.818
			C87.479,105.585,87.782,103.614,88.06,101.641z"/>
		<path fill-rule="evenodd" clip-rule="evenodd" fill="#6A9386" d="M96.93,100.648c0.335,0.654,0.672,1.307,1.008,1.959
			C97.602,101.954,97.265,101.301,96.93,100.648z"/>
		<path fill-rule="evenodd" clip-rule="evenodd" fill="#6A9386" d="M94.519,95.827c0.335,0.65,0.67,1.3,1.005,1.95
			C95.188,97.126,94.854,96.477,94.519,95.827z"/>
		<path fill-rule="evenodd" clip-rule="evenodd" fill="#6A9386" d="M96.24,99.271c0.221,0.423,0.441,0.846,0.663,1.269
			C96.682,100.117,96.461,99.694,96.24,99.271z"/>
		<path fill-rule="evenodd" clip-rule="evenodd" fill="#6A9386" d="M93.757,94.877c0.218-0.009,0.435-0.017,0.65-0.025
			c0.028,0.289,0.057,0.578,0.085,0.866C94.247,95.438,94.002,95.157,93.757,94.877z"/>
		<path fill-rule="evenodd" clip-rule="evenodd" fill="#6A9386" d="M96.083,98.97c0.053,0.044,0.091,0.1,0.113,0.164
			c0-0.001-0.105-0.048-0.105-0.048L96.083,98.97z"/>
		<path fill-rule="evenodd" clip-rule="evenodd" fill="#6A9386" d="M95.737,98.279c0.053,0.043,0.09,0.096,0.112,0.159
			c0-0.001-0.104-0.044-0.104-0.044L95.737,98.279z"/>
		<path fill-rule="evenodd" clip-rule="evenodd" fill="#333333" d="M51.734,144.029c1.261,0,2.528,0.076,3.782-0.02
			c1.641-0.125,2.999,0.376,4.309,1.342c0.591,0.436,1.457,0.721,2.186,0.698c1.489-0.047,1.961,0.593,1.814,1.956
			c-0.042,0.396-0.004,0.803-0.007,1.203c-0.014,2.204-0.061,2.179-2.337,2.211c-0.67,0.01-1.322,0.556-2,0.805
			c-1.368,0.5-2.723,1.26-4.128,1.379c-2.618,0.223-5.268,0.083-7.905,0.058c-1.921-0.019-2.538-0.659-2.562-2.615
			c-0.021-1.662,0.022-3.325-0.01-4.987c-0.027-1.423,0.534-2.121,2.045-2.047C48.521,144.09,50.129,144.029,51.734,144.029z"/>
		<path fill-rule="evenodd" clip-rule="evenodd" fill="#CCCCCC" d="M66.949,113.68c0.022,10.488,0.044,20.975,0.066,31.462
			c-0.005,2.295-0.011,4.593-0.016,6.891c-0.017,1.909-0.034,3.82-0.051,5.729c-0.838,0.057-1.677,0.113-2.869,0.193
			c0-2.248,0-4.29,0-6.332c-0.01-11.899-0.021-23.799-0.031-35.699c-0.001-0.682,0-1.362,0-2.032
			C65.087,113.816,66.018,113.748,66.949,113.68z"/>
		<path fill-rule="evenodd" clip-rule="evenodd" fill="#F0988D" d="M72.024,145.582c0.985-0.273,1.97-0.546,2.956-0.82
			c4.004,0.49,5.631,2.99,4.802,7.375c-2.03,4.066-7.672,4.229-9.819-0.267C69.208,149.302,69.972,147.23,72.024,145.582z"/>
		<path fill-rule="evenodd" clip-rule="evenodd" fill="#5E2F3A" d="M72.024,145.582c-2.052,1.648-2.816,3.72-2.061,6.288
			c-0.988,0.054-1.976,0.107-2.963,0.162c0.005-2.297,0.011-4.595,0.016-6.89C68.685,145.289,70.354,145.436,72.024,145.582z"/>
		<path fill-rule="evenodd" clip-rule="evenodd" fill="#E84765" d="M101.365,145.56c-0.001,2.138-0.001,4.275-0.002,6.413
			C101.364,149.835,101.364,147.697,101.365,145.56z"/>
	</g>
</g>
<g>
	<path fill-rule="evenodd" clip-rule="evenodd" fill="#333333" d="M89.257,75.883c0,0,0.001,0.001,0.002,0.002
		c0.006,0.003,0.012,0.006,0.018,0.01L89.257,75.883z"/>
	<path fill-rule="evenodd" clip-rule="evenodd" fill="#333333" d="M92.642,86.734c0.293-0.265,0.476-0.631,0.476-1.036
		c0-0.179-0.041-0.348-0.105-0.506c0.46-3.066-0.614-6.224-3.062-8.569c-0.244-0.233-0.462-0.491-0.691-0.738
		c-1.994-1.183-4.111-1.921-6.333-1.929c-0.292-0.266-0.696-0.431-1.143-0.431c-0.568,0-1.066,0.268-1.353,0.671
		c-0.256-0.155-0.563-0.246-0.894-0.246c-0.548,0-1.031,0.25-1.323,0.628c-0.138-0.035-0.28-0.059-0.43-0.059
		c-0.891,0-1.612,0.654-1.612,1.461v0l0,0c-0.891,0-1.612,0.654-1.612,1.461c0,0.012,0.003,0.023,0.004,0.035
		c-0.11-0.022-0.225-0.035-0.342-0.035c-0.891,0-1.612,0.654-1.612,1.461c0,0.27,0.086,0.52,0.228,0.737
		c-0.611,0.208-1.047,0.738-1.047,1.364c0,0.239,0.069,0.46,0.181,0.659c-0.572,0.225-0.973,0.74-0.973,1.341
		c0,0.453,0.232,0.853,0.589,1.121c-0.288,0.536-0.596,1.042-0.589,1.63c0.174,0.146,0.381,0.319,0.595,0.499
		c0.287,0.405,0.785,0.675,1.355,0.675c0.295,0,0.568-0.077,0.806-0.203c0.238,0.125,0.511,0.203,0.806,0.203
		c0.351,0,0.674-0.104,0.938-0.277c0.159-0.008,0.318-0.012,0.476-0.024c0.2,0.081,0.419,0.127,0.652,0.127
		c0.405,0,0.771-0.14,1.054-0.364c0.134-0.026,0.269-0.05,0.402-0.081c0.246,0.137,0.532,0.22,0.842,0.22
		c0.549,0,1.032-0.25,1.323-0.629c0.094,0.016,0.19,0.026,0.289,0.026c0.891,0,1.612-0.654,1.612-1.461
		c0-0.037-0.009-0.072-0.012-0.108c0.02-0.016,0.042-0.028,0.062-0.045c0.032-0.027,0.06-0.06,0.092-0.087
		c0.74-0.059,1.333-0.565,1.446-1.222c0.009,0,0.017,0.002,0.025,0.002c0.28,0,0.54-0.071,0.769-0.185
		c-0.103,1.457-0.194,2.739-0.287,4.044c0.312,0,0.533,0.03,0.743-0.005c1.108-0.189,2.268-0.05,2.562,1.101
		c0.203,0.799-0.101,1.885-0.529,2.645c-0.494,0.877-1.375,1.538-2.31,2.527c0.897-0.094,1.494-0.046,2.008-0.231
		c1.241-0.445,2.412-0.938,3.52,0.321c0.133,0.15,0.763-0.137,1.162-0.221c-0.638-0.842-0.83-1.633-0.604-2.478
		c0.622-0.203,1.069-0.737,1.069-1.37c0-0.025-0.007-0.049-0.008-0.075c0.65-0.188,1.125-0.734,1.125-1.386
		c0-0.342-0.136-0.653-0.354-0.902C92.631,86.771,92.635,86.752,92.642,86.734z"/>
</g>
</svg>
