<?xml version="1.0" encoding="utf-8"?>
<!-- Generator: Adobe Illustrator 16.0.0, SVG Export Plug-In . SVG Version: 6.00 Build 0)  -->
<!DOCTYPE svg PUBLIC "-//W3C//DTD SVG 1.1//EN" "http://www.w3.org/Graphics/SVG/1.1/DTD/svg11.dtd">
<svg version="1.1" id="Layer_1" xmlns="http://www.w3.org/2000/svg" xmlns:xlink="http://www.w3.org/1999/xlink" x="0px" y="0px"
	  viewBox="0 0 195 293" enable-background="new 0 0 195 293" xml:space="preserve">
<rect x="0.441" y="0.127" fill="#AC4D9D" width="195" height="293"/>
<g>
	<polyline fill="none" stroke="#FFFFFF" stroke-miterlimit="10" points="36.99,128.271 97.95,144.059 50.149,105.19 	"/>
	<polyline fill="none" stroke="#FFFFFF" stroke-miterlimit="10" points="43.246,178.992 99.986,145.343 34.618,155.02 	"/>
	<polyline fill="none" stroke="#FFFFFF" stroke-miterlimit="10" points="85.418,209.166 99.986,145.343 61.151,198.164 	"/>
	<polyline fill="none" stroke="#FFFFFF" stroke-miterlimit="10" points="134.287,197.949 99.986,145.343 110.438,209.166 	"/>
	<polyline fill="none" stroke="#FFFFFF" stroke-miterlimit="10" points="160.383,155.02 99.986,145.343 151.322,178.992 	"/>
	<polyline fill="none" stroke="#FFFFFF" stroke-miterlimit="10" points="144.42,105.19 99.986,145.343 158.01,128.271 	"/>
	<polyline fill="none" stroke="#FFFFFF" stroke-miterlimit="10" points="97.663,83.834 99.986,145.343 124.037,89.011 	"/>
	<line fill="none" stroke="#FFFFFF" stroke-miterlimit="10" x1="71.597" y1="89.658" x2="99.986" y2="145.343"/>
	<path fill="none" stroke="#FFFFFF" stroke-miterlimit="10" d="M133.002,195.98c0,0-1.311-18.47,17.242-16.988
		c0,0-8.414-18.58,6.254-23.973c0,0-13.295-14.055-1.361-25.902c0,0-16.922-1.819-13.281-21.61c0,0-16.559,5.757-19.727-14.027
		c0,0-14.48,8.69-24.247-3.821c0,0-8.071,12.331-23.912,4.655c0,0-4.981,17.828-20.874,13.273c0,0,6.282,16.764-11.6,21.853
		c0,0,6.756,15.538-2.112,24.875c0,0,12.273,10.011,5.802,22.941c0,0,16.684,1.652,17.403,18.725c0,0,18.837-8.386,22.829,9.734
		c0,0,9.971-11.216,24.455,0C109.873,205.715,112.955,189.479,133.002,195.98z"/>
	<path fill="none" stroke="#FFFFFF" stroke-miterlimit="10" d="M124.037,182.23c0,0-1.584-13.021,13.713-12.135
		c0,0-5.674-14.839,4.494-17.982c0,0-8.797-8.289-2.232-18.546c0,0-12.482-3.541-9.215-16.066c0,0-13.695,1.501-14.656-9.994
		c0,0-11.199,7.176-17.887-4.042c0,0-6.726,9.198-17.685,4.122c0,0-4.367,11.704-15.411,9.808c0,0,0.213,13.733-8.907,15.865
		c0,0,3.657,13.734-3.272,19.042c0,0,8.318,7.779,5.873,17.438c0,0,10.926,4.065,12.746,14.218c0,0,15.182-2.812,17.685,8.287
		c0,0,10.109-8.725,18.386,0C107.668,192.244,112.453,179.326,124.037,182.23z"/>
	<path fill="none" stroke="#FFFFFF" stroke-miterlimit="10" d="M117.137,171.646c0,0-1.656-11.871,9.469-8.855
		c0,0-6.34-9.438,3.58-12.702c0,0-8.242-6.95-1.773-13.108c0,0-8.369-3.272-7.291-10.735c0,0-8.842-1.113-9.814-7.416
		c0,0-7.693,2.526-12.422-2.644c0,0-4.847,5.576-12.23,3.007c0,0-4.793,7.332-9.972,7.991c0,0-1.71,7.071-6.895,9.365
		c0,0,0.861,9.496-0.76,13.338c0,0,4.505,8.977,0.76,12.282c0,0,9.465,3.855,8.179,11.406c0,0,13.2,0.678,13.724,6.702
		c0,0,6.151-6.024,14.016,0C105.707,180.276,108.111,169.107,117.137,171.646z"/>
	<path fill="none" stroke="#FFFFFF" stroke-miterlimit="10" d="M110.957,162.168c0,0-0.393-5.53,6.18-5.584
		c0,0-5.445-5.609,2.16-8.147c0,0-2.939-3.377-0.449-8.643c0,0-4.541-2.583-3.723-8.131c0,0-6.18-1.834-6.984-5.419
		c0,0-3.766,1.639-8.875,0c0,0-6.075,1.926-9.772,0c0,0-2.822,6.061-7.088,5.174c0,0-0.947,6.438-5.099,7.294
		c0,0,2.872,7.073,0,9.989l0.661,9.701c0,0,4.59,3.864,7.451,6.757c2.464,2.49,10.508-2.027,9.478,2.49c0,0,5.467-2.837,8.512,1.65
		C103.408,169.3,104.641,156.665,110.957,162.168z"/>
	<circle fill="#062831" cx="76.683" cy="107.506" r="1.285"/>
	<circle fill="#062831" cx="63.874" cy="124.959" r="1.285"/>
	<circle fill="#062831" cx="56.399" cy="160.695" r="1.284"/>
	<circle fill="#062831" cx="70.312" cy="175.888" r="1.284"/>
	<circle fill="#062831" cx="105.967" cy="184.847" r="1.284"/>
	<circle fill="#062831" cx="125.322" cy="180.276" r="1.284"/>
	<circle fill="#062831" cx="136.467" cy="145.343" r="1.284"/>
	<circle fill="#062831" cx="134.287" cy="123.059" r="1.284"/>
	<path fill="none" stroke="#062831" stroke-width="2" stroke-miterlimit="10" d="M136.467,145.343c0,0-4.955,7.661-12.291,6.959
		c-7.336-0.701-22.049-0.366-22.049-0.366"/>
	<path fill="none" stroke="#062831" stroke-width="2" stroke-miterlimit="10" d="M134.275,123.21c0,0,0.57,8.098-6.479,14.195
		c-7.051,6.098-24.389,12.48-24.389,12.48"/>
	<path fill="none" stroke="#062831" stroke-width="2" stroke-miterlimit="10" d="M125.32,180.276c0,0,2.189-14.384-12.1-19.721
		c-14.291-5.335-11.814-5.536-11.814-5.536"/>
	<path fill="none" stroke="#062831" stroke-width="2" stroke-miterlimit="10" d="M105.979,184.847c0,0,10.377-6.117-0.527-22.779
		c-10.904-16.661-2.711-3.132-2.711-3.132"/>
	<path fill="none" stroke="#062831" stroke-width="2" stroke-miterlimit="10" d="M70.351,175.989c0,0-3.144-9.336,5.43-15.34
		c8.575-6.001,14.291-8.86,14.291-8.86"/>
	<path fill="none" stroke="#062831" stroke-width="2" stroke-miterlimit="10" d="M56.251,160.935c0,0,7.907-12.86,18.673-10.574
		l16.767,0.477"/>
	<path fill="none" stroke="#062831" stroke-width="2" stroke-miterlimit="10" d="M63.874,125.115c0,0,1.048,11.432,13.241,16.957
		l13.625,6.772"/>
	<path fill="none" stroke="#062831" stroke-width="2" stroke-miterlimit="10" d="M76.64,107.587c0,0-5.05,12.48,0.666,20.579
		l10.576,13.242"/>
	<path fill="#062831" d="M114.08,136.453c0-8.311-4.826-15.506-13.137-15.506c-8.311,0-15.048,6.737-15.048,15.048
		c0,5.753,1.219,11.699,4.723,14.818c-3.399,1.812-4.63,5.839-4.161,9.479c0.652,5.038,3.016,9.188,8.718,9.376
		c5.992,0.194,11.375-4.823,10.501-11.578c-0.348-2.687-1.6-4.755-3.549-6.155C108.527,149.436,114.08,142.968,114.08,136.453z"/>
	<path fill="#12404F" d="M100.467,120.947c-8.311,0-15.048,6.737-15.048,15.048c0,5.497,1.33,11.157,4.626,14.373
		c-3.346,2.114-4.021,6.578-3.588,9.925c0.652,5.038,3.06,10.104,8.718,9.376l2.192-20.26L100.467,120.947z"/>
</g>
</svg>
