<?xml version="1.0" encoding="utf-8"?>
<!-- Generator: Adobe Illustrator 16.0.0, SVG Export Plug-In . SVG Version: 6.00 Build 0)  -->
<!DOCTYPE svg PUBLIC "-//W3C//DTD SVG 1.1//EN" "http://www.w3.org/Graphics/SVG/1.1/DTD/svg11.dtd">
<svg version="1.1" id="Layer_1" xmlns="http://www.w3.org/2000/svg" xmlns:xlink="http://www.w3.org/1999/xlink" x="0px" y="0px"
	  viewBox="0 0 195 293" enable-background="new 0 0 195 293" xml:space="preserve">
<rect fill="#CC9966" width="195" height="293"/>
<g>
	<path fill-rule="evenodd" clip-rule="evenodd" fill="#586D34" d="M135.014,111.028c-6.393-8.615-15.294-15.368-23.093-22.939
		c-3-1.867-5.996-3.739-8.998-5.606c1.477-4.44,2.953-8.882,4.43-13.322c5.783-7.495,1.406-14.358-3.35-18.981
		c-2.826-2.751-10.731-3.461-14.219-1.43c-0.407,0.238-0.771,0.551-1.099,0.926c-2.294,2.626-2.821,8.283-4.299,12.311
		c1.365,6.822,2.727,13.641,4.088,20.463c-2.994,1.922-5.99,3.847-8.984,5.772c-5.396,3.25-10.795,6.496-16.191,9.743
		c-2.273,1.459-5.24,2.479-6.565,4.547c-0.783,1.218,1.031,4.104,1.681,6.237c-0.156,2.58-0.419,5.158-0.445,7.736
		c-0.062,6.419-0.016,12.838-0.012,19.257c5.468-1.868,10.932-3.733,16.396-5.601c1.168,3.694,2.34,7.39,3.509,11.086
		c-1.726,7.741-3.453,15.479-5.179,23.219c0.957,6.927,1.914,13.857,2.875,20.787c1.094,11.701,2.191,23.406,3.29,35.107
		c3.669,11.338,0.976,19.502-13.005,22.777c9.314,1.592,17.138,2.065,24.715,0.925c0.84-0.125,0.309-9.471,0.375-14.539
		c0.045-3.094,0.023-6.192,0.027-9.286c0.553-8.938,0.604-17.943,1.835-26.789c0.812-5.833,3.324-11.433,5.078-17.135
		c0.078,9.099-0.11,18.217,0.33,27.299c0.264,5.545,1.495,11.041,2.297,16.558c-0.557,6.434-1.439,12.864-1.473,19.3
		c-0.012,1.957,2.192,5.505,3.605,5.619c7.181,0.575,14.437,0.267,21.667,0.267c0.444-1.075,0.89-2.148,1.332-3.224
		c-12.921-2.807-17.188-10.076-12.998-21.704c0.737-11.16,1.477-22.32,2.214-33.479c1.373-7.512,2.748-15.023,4.121-22.539
		c-1.565-7.88-3.134-15.759-4.7-23.64l0.042-0.778c0.004-0.076,0.007-0.129,0.007-0.129c4.373-2.326,8.64-4.895,13.146-6.931
		C138.156,128.081,141.816,120.192,135.014,111.028z"/>
	<g id="NiPz5J_1_">
		<g>
			<path fill="#FFFFFF" d="M63.299,97.964c-2.274,1.459-5.241,2.479-6.565,4.547c-0.783,1.218,1.031,4.104,1.68,6.237
				c-0.156,2.58-0.418,5.158-0.445,7.736c-0.063,6.419-0.016,12.838-0.011,19.257c5.467-1.868,10.932-3.734,16.396-5.601
				c1.168,3.694,2.34,7.391,3.509,11.087c-1.726,7.739-3.453,15.478-5.179,23.218c0.958,6.927,1.915,13.857,2.875,20.787
				c1.094,11.701,2.191,23.406,3.29,35.107c3.668,11.338,0.976,19.502-13.004,22.777c9.313,1.592,17.137,2.065,24.715,0.925
				c0.839-0.125,0.308-9.471,0.375-14.539c0.045-3.094,0.022-6.192,0.026-9.286c0.553-8.938,0.604-17.943,1.835-26.789
				c0.812-5.833,3.324-11.433,5.078-17.135c0.078,9.099-0.11,18.217,0.33,27.299c0.264,5.545,1.495,11.041,2.297,16.558
				c-0.557,6.434-1.439,12.864-1.473,19.3c-0.012,1.957,2.192,5.505,3.605,5.619c7.181,0.575,14.437,0.267,21.667,0.267
				c0.444-1.075,0.89-2.148,1.332-3.224c-12.921-2.807-17.188-10.076-12.998-21.704c0.737-11.16,1.477-22.32,2.214-33.479
				c1.373-7.512,2.748-15.023,4.121-22.539c-1.565-7.88-3.134-15.76-4.7-23.634l0.049-0.913c4.373-2.326,8.64-4.895,13.146-6.931
				c10.691-4.832,14.352-12.72,7.549-21.884c-6.393-8.615-15.294-15.368-23.093-22.939c-3-1.867-5.996-3.739-8.998-5.606
				c1.477-4.44,2.953-8.882,4.43-13.322c5.783-7.495,1.406-14.358-3.35-18.981c-2.826-2.751-10.732-3.461-14.219-1.43
				c-3.26,1.903-3.709,8.634-5.393,13.239c1.361,6.82,2.722,13.639,4.084,20.461c-2.994,1.922-5.991,3.847-8.984,5.772
				C74.093,91.47,68.696,94.716,63.299,97.964z"/>
			<path fill-rule="evenodd" clip-rule="evenodd" fill="#586D34" d="M100.501,220.15c-0.802-5.517-2.033-11.013-2.297-16.558
				c-0.44-9.082-0.252-18.2-0.33-27.299c-0.749-8.635-1.502-17.27-2.25-25.903c6.217-3.214,12.434-6.428,18.646-9.643
				c1.566,7.882,3.135,15.762,4.7,23.642c-13.228,5.348-6.083,14.417-4.121,22.539c-0.737,11.159-1.477,22.319-2.214,33.479
				C108.588,220.323,104.544,220.237,100.501,220.15z"/>
			<path fill-rule="evenodd" clip-rule="evenodd" fill="#6D7E4C" d="M95.624,150.391c0.749,8.634,1.502,17.269,2.25,25.903
				c-1.754,5.702-4.266,11.302-5.078,17.135c-1.231,8.846-1.283,17.852-1.835,26.789c-4.036,0.042-8.071,0.083-12.112,0.123
				c-1.098-11.701-2.196-23.406-3.29-35.107c2.021-2.299,6.213-5.514,5.698-6.727c-2.13-4.988,1.706-14.128-8.573-14.061
				c1.726-7.74,3.453-15.479,5.179-23.22c4.322,1.43,6.165,9.96,12.898,4.516C92.381,147.293,94.002,148.84,95.624,150.391z"/>
			<path fill-rule="evenodd" clip-rule="evenodd" fill="#586D34" d="M111.921,88.089c7.799,7.571,16.7,14.324,23.093,22.939
				c6.803,9.164,3.143,17.052-7.549,21.884c-4.507,2.036-8.773,4.605-13.146,6.931c-4.647-2.053-9.292-4.102-13.939-6.152
				c-0.015-1.367-0.03-2.736-0.045-4.104c5.574-3.37,11.15-6.74,17.838-10.782c-1.275-0.854-2.781-1.864-4.284-2.871
				C113.231,106.651,112.579,97.372,111.921,88.089z"/>
			<path fill-rule="evenodd" clip-rule="evenodd" fill="#6D7E4C" d="M74.354,130.141c-5.464,1.867-10.929,3.733-16.396,5.601
				c-0.004-6.419-0.052-12.838,0.011-19.257c0.026-2.578,0.289-5.156,0.445-7.736c7.698,0.82,15.395,1.64,23.095,2.459
				c0.905,0.746,1.81,1.491,2.715,2.239c-0.986,1.508-1.974,3.018-2.964,4.527c-0.608-0.017-1.217-0.052-1.825-0.097
				c-0.344-0.312-0.689-0.62-1.035-0.931c0.319,0.335,0.638,0.669,0.96,1.005C77.692,122.015,76.022,126.078,74.354,130.141z"/>
			<path fill-rule="evenodd" clip-rule="evenodd" fill="#4E662E" d="M111.921,88.089c0.658,9.283,1.311,18.562,1.971,27.843
				c-6.075-3.181-12.158-6.356-18.243-9.533c-0.757-6.979-1.518-13.959-2.277-20.936c3.182-0.994,6.368-1.987,9.551-2.98
				C105.925,84.35,108.921,86.222,111.921,88.089z"/>
			<path fill-rule="evenodd" clip-rule="evenodd" fill="#40403F" d="M100.501,220.15c4.043,0.087,8.087,0.173,12.134,0.258
				c-4.189,11.628,0.077,18.897,12.998,21.704c-0.442,1.075-0.888,2.148-1.332,3.224c-7.23,0-14.486,0.309-21.667-0.267
				c-1.413-0.114-3.617-3.662-3.605-5.619C99.062,233.015,99.944,226.584,100.501,220.15z"/>
			<path fill-rule="evenodd" clip-rule="evenodd" fill="#E3B98D" d="M102.923,82.482c-3.184,0.994-6.369,1.986-9.551,2.98
				c-1.632-1.005-3.264-2.013-4.896-3.014c-1.362-6.822-2.723-13.641-4.088-20.463c7.89,1.636,18.25-4.627,22.965,7.174
				C105.876,73.6,104.399,78.042,102.923,82.482z"/>
			<path fill-rule="evenodd" clip-rule="evenodd" fill="#586D34" d="M107.353,69.16c-4.715-11.802-15.076-5.538-22.965-7.174
				c1.688-4.603,2.137-11.334,5.397-13.237c3.487-2.031,11.393-1.321,14.219,1.43C108.759,54.802,113.136,61.666,107.353,69.16z"/>
			<path fill-rule="evenodd" clip-rule="evenodd" fill="#556B32" d="M88.475,82.449c1.632,1.001,3.265,2.009,4.896,3.014
				c0.76,6.977,1.521,13.957,2.277,20.934c-4.629-0.072-9.259-0.143-13.888-0.215c-0.03-0.791-0.059-1.579-0.088-2.369
				c-0.728-5.195-1.455-10.394-2.182-15.593C82.484,86.296,85.481,84.371,88.475,82.449z"/>
			<path fill-rule="evenodd" clip-rule="evenodd" fill="#586D34" d="M79.435,117.874c0.608,0.048,1.217,0.083,1.829,0.1
				c0.905,0.923,1.81,1.849,2.715,2.772c-1.276,9.27,0.909,16.344,11.488,18.089c-1.569,2.303-3.138,4.605-4.707,6.907
				c-6.733,5.444-8.576-3.086-12.898-4.516c-1.169-3.694-2.341-7.391-3.509-11.085c1.668-4.063,3.338-8.126,5.007-12.189
				L79.435,117.874z"/>
			<path fill-rule="evenodd" clip-rule="evenodd" fill="#E3B98D" d="M90.76,145.743c1.568-2.302,3.138-4.604,4.707-6.907
				c0.323-2.966-1.699-8.174,4.912-5.145c4.647,2.05,9.292,4.099,13.939,6.152c0,0-0.049,0.913-0.049,0.907
				c-6.212,3.212-12.429,6.427-18.646,9.641C94.002,148.84,92.381,147.293,90.76,145.743z"/>
			<path fill-rule="evenodd" clip-rule="evenodd" fill="#4E662E" d="M81.672,103.813c0.029,0.79,0.059,1.578,0.088,2.37
				c-0.085,1.675-0.167,3.348-0.252,5.024c-7.701-0.82-15.397-1.64-23.095-2.459c-0.649-2.133-2.463-5.019-1.68-6.237
				c1.325-2.068,4.292-3.088,6.565-4.547C69.419,99.911,75.543,101.864,81.672,103.813z"/>
			<path fill-rule="evenodd" clip-rule="evenodd" fill="#4E662E" d="M114.849,186.929c-1.962-8.122-9.106-17.191,4.121-22.539
				C117.597,171.905,116.222,179.417,114.849,186.929z"/>
			<path fill-rule="evenodd" clip-rule="evenodd" fill="#586D34" d="M72.684,164.446c10.279-0.067,6.443,9.072,8.573,14.061
				c0.515,1.213-3.677,4.428-5.698,6.727C74.598,178.304,73.641,171.373,72.684,164.446z"/>
			<path fill-rule="evenodd" clip-rule="evenodd" fill="#6D7E4C" d="M81.672,103.813c-6.129-1.95-12.253-3.902-18.374-5.85
				c5.397-3.248,10.794-6.494,16.192-9.743C80.218,93.419,80.945,98.618,81.672,103.813z"/>
			<path fill-rule="evenodd" clip-rule="evenodd" fill="#393737" d="M81.509,111.208c0.085-1.677,0.167-3.35,0.252-5.024
				c4.629,0.07,9.259,0.141,13.888,0.213c6.084,3.179,12.167,6.354,18.243,9.535c1.499,1.009,3.005,2.018,4.28,2.873
				c-6.688,4.042-12.264,7.412-17.838,10.782c-0.79-2.266-1.585-4.531-2.378-6.798c-0.408-11.931-2.303-13.218-13.732-9.342
				C83.319,112.699,82.414,111.954,81.509,111.208z"/>
			<path fill-rule="evenodd" clip-rule="evenodd" fill="#6D7E4C" d="M97.956,122.789c0.793,2.267,1.588,4.532,2.378,6.798
				c0.015,1.369,0.03,2.737,0.045,4.104c-6.611-3.029-4.589,2.179-4.912,5.145c-10.579-1.746-12.764-8.819-11.488-18.091
				C88.638,121.426,93.297,122.108,97.956,122.789z"/>
			<path fill-rule="evenodd" clip-rule="evenodd" fill="#E3B98D" d="M97.956,122.789c-4.659-0.68-9.318-1.363-13.977-2.043
				c-0.905-0.922-1.81-1.848-2.715-2.771c0.986-1.51,1.974-3.02,2.96-4.527C95.653,109.57,97.548,110.857,97.956,122.789z"/>
			<path fill-rule="evenodd" clip-rule="evenodd" fill="#586D34" d="M79.36,117.952c-0.323-0.336-0.642-0.669-0.96-1.005
				c0.345,0.311,0.69,0.619,1.035,0.931C79.435,117.874,79.36,117.952,79.36,117.952z"/>
		</g>
	</g>
	<path fill-rule="evenodd" clip-rule="evenodd" fill="#40403F" d="M90.68,220.15c-4.043,0.087-8.087,0.173-12.134,0.258
		c4.189,11.628-0.077,18.897-12.998,21.704c0.442,1.075,0.888,2.148,1.332,3.224c7.23,0,14.486,0.309,21.667-0.267
		c1.413-0.114,3.617-3.662,3.605-5.619C92.12,233.015,91.237,226.584,90.68,220.15z"/>
</g>
<polygon fill="#F8ED39" points="95.87,51.523 97.057,53.927 99.71,54.312 97.79,56.184 98.244,58.826 95.87,57.579 93.497,58.826 
	93.95,56.184 92.03,54.312 94.683,53.927 "/>
</svg>
