<?xml version="1.0" encoding="utf-8"?>
<!-- Generator: Adobe Illustrator 16.0.0, SVG Export Plug-In . SVG Version: 6.00 Build 0)  -->
<!DOCTYPE svg PUBLIC "-//W3C//DTD SVG 1.1//EN" "http://www.w3.org/Graphics/SVG/1.1/DTD/svg11.dtd">
<svg version="1.1" id="Layer_1" xmlns="http://www.w3.org/2000/svg" xmlns:xlink="http://www.w3.org/1999/xlink" x="0px" y="0px"
	  viewBox="0 0 195 293" enable-background="new 0 0 195 293" xml:space="preserve">
<rect fill="#FDCC9A" width="195" height="293"/>
<g id="oCIdXr_1_">
	<g>
		<path fill-rule="evenodd" clip-rule="evenodd" fill="#FDFEFE" d="M62.646,52.753c-0.08,10.878,2.942,13.959,13.696,13.96
			c11.993,0.001,23.987-0.058,35.98,0.023c9.412,0.064,16.94,7.344,17.303,16.536c0.44,11.149-5.688,18.724-16.074,19.444
			c-7.721,0.536-15.471,0.659-23.206,0.997c-1.354,0.059-2.702,0.274-3.406,0.349c3.744,2.182,8.132,3.892,11.212,6.928
			c1.335,1.316-0.024,5.367-0.902,8.46c-2.669-4.544-5.68-5.804-10.804-5.348c-8.541,0.761-13.026-3.721-12.846-10.872
			c0.146-5.806,4.6-10.37,10.499-10.475c6.827-0.122,13.659,0.013,20.487-0.063c1.62-0.018,3.235-0.431,4.854-0.662
			c-0.005-0.548-0.009-1.096-0.013-1.644c-1.635-0.219-3.269-0.62-4.904-0.628c-10.993-0.058-21.988,0.051-32.981-0.062
			c-8.495-0.087-17.15-6.734-18.578-14.742c-1.604-8.986,0.137-17.724,9.626-22.26L62.646,52.753z"/>
		<path fill-rule="evenodd" clip-rule="evenodd" fill="#FDFEFE" d="M62.589,52.697c0.079-0.12,0.159-0.24,0.239-0.36
			c-0.061,0.139-0.122,0.277-0.183,0.416C62.646,52.753,62.589,52.697,62.589,52.697z"/>
	</g>
</g>
<path fill-rule="evenodd" clip-rule="evenodd" fill="#A03535" d="M32.451,192.776"/>
<path fill-rule="evenodd" clip-rule="evenodd" fill="#B73B3B" d="M40.905,150.923c0,0,11.476,17.398,13.501,26.636
	c2.025,9.236,3.692,37.49,3.692,37.49s40.862,17.776,83.05,0v-41.27c0,0,7.429-20.634,15.866-22.856H40.905z"/>
<path fill-rule="evenodd" clip-rule="evenodd" fill="#A03535" d="M56.552,194.432c0.934,10.234,1.546,20.617,1.546,20.617
	s40.862,17.776,83.05,0v-19.683c0,0-33.107,2.25-43.648,2.134C86.892,197.383,56.552,194.432,56.552,194.432z"/>
<path fill-rule="evenodd" clip-rule="evenodd" fill="#A03535" d="M108.756,150.923"/>
<path fill-rule="evenodd" clip-rule="evenodd" fill="#A03535" d="M142.564,154.491c0,0,7.968-5.377,14.45-4.824
	c0,0,2.828-8.221,3.995-9.998c0.587-0.892,5.212-1.354,4.554-0.42c-2.063,2.926-6.828,12.653-6.828,12.653
	s-10.321,0.741-15.247,4.846"/>
<path fill-rule="evenodd" clip-rule="evenodd" fill="#A03535" d="M52.437,154.491c0,0-7.968-5.377-14.451-4.824
	c0,0-2.829-8.221-3.996-9.998c-0.586-0.892-5.212-1.354-4.553-0.42c2.063,2.926,6.828,12.653,6.828,12.653
	s10.322,0.741,15.248,4.846"/>
</svg>
