<?xml version="1.0" encoding="utf-8"?>
<!-- Generator: Adobe Illustrator 16.0.0, SVG Export Plug-In . SVG Version: 6.00 Build 0)  -->
<!DOCTYPE svg PUBLIC "-//W3C//DTD SVG 1.1//EN" "http://www.w3.org/Graphics/SVG/1.1/DTD/svg11.dtd">
<svg version="1.1" id="Layer_1" xmlns="http://www.w3.org/2000/svg" xmlns:xlink="http://www.w3.org/1999/xlink" x="0px" y="0px"
	  viewBox="0 0 195 293" enable-background="new 0 0 195 293" xml:space="preserve">
<rect fill="#CCCCCC" width="195" height="293"/>
<g id="K61T6X_1_">
	<g>
		<path fill-rule="evenodd" clip-rule="evenodd" fill="#7ECBEB" d="M84.733,208.157c-29.317-5.177-52.022-33.275-50.654-62.734
			c0.052-1.119,0.494-2.221,0.751-3.329c0.155,0.185,0.355,0.294,0.595,0.329c1.312,5.774,1.291,12.1,6.678,16.193
			c5.099,4.802,11.353,6.279,18.535,6.478c0,1.269,0.189,2.751-0.031,4.17c-1.298,8.352,1.73,14.815,7.91,20.396
			c2.481,2.241,3.94,5.625,5.824,8.516c1.328,2.036,2.587,4.118,3.877,6.179c0.449-0.193,0.897-0.388,1.347-0.581
			c0.206-1.772,0.829-3.614,0.548-5.305c-1.192-7.157-0.293-13.178,5.697-18.45c4.233-3.727,1.906-10.94-3.33-13.191
			c-3.053-1.312-5.955-3.049-9.097-4.059c-3.316-1.065-6.978-2.471-10.24-2c-7.209,1.04-13.889,0.121-20.452-2.707
			c-0.812-3.27-4.645-5.807-1.806-10.004c1.558-2.303,3.253-5.482,2.861-7.945c-1.034-6.491,2.16-10.919,5.996-15.04
			c3.688-3.962,7.795-7.576,11.989-11.011c3.607-2.955,4.795-6.928,3.398-12.395c-1.251-4.896-5.053-3.108-8.083-3.447
			c5.521-3.312,11.041-6.624,16.561-9.935c1.722,4.934,3.482,5.568,8.067,4.327c3.343-0.905,6.962-0.855,10.467-1.078
			c3.409-0.217,6.83-0.241,10.245-0.35c7.99,3.387,14.604,8.421,19.119,15.968c-2.972,0-5.943,0-8.916,0
			c-0.13,0.569-0.261,1.138-0.392,1.707c1.742,2.067,3.485,4.135,5.435,6.447c-2.557,1.85-5.036,3.45-7.299,5.313
			c-8.293,6.833-6.927,20.756,2.627,25.438c2.093,1.025,4.845,0.612,7.187,1.252c2.109,0.576,4.703,1.158,5.974,2.67
			c2.854,3.395,5.019,7.367,7.465,11.105c-2.637,13.224-8.933,24.344-19.327,32.979c-4.154,3.452-8.624,6.524-12.949,9.77
			C95.13,202.774,89.792,204.935,84.733,208.157z"/>
		<path fill-rule="evenodd" clip-rule="evenodd" fill="#20AC6E" d="M135.515,97.139c10.475,6.274,15.178,14.544,19.872,24.194
			c-0.196,1.253-0.363,2.511-0.592,3.757c-0.867,4.739-1.706,9.483-2.714,14.191c-0.09,0.419-1.329,0.592-2.115,0.912
			c-2.554-5.098-4.979-9.939-7.405-14.782c-0.481,0.19-0.963,0.381-1.444,0.571c0.543,1.947,1,3.923,1.644,5.837
			c2.751,8.176,5.938,16.228,8.233,24.527c2.268,8.195-4.479,22.209-12.297,27.096l-0.295-0.294
			c-0.144-7.472,0.347-15.057-3.942-21.778c0.041-1.321-0.061-2.664,0.144-3.96c2.539-16.118-0.142-31.177-8.948-45.046
			c-0.597-0.94-0.76-2.156-1.124-3.244c1.885-0.383,3.77-0.767,5.69-1.157C127.636,99.172,128.158,98.175,135.515,97.139z"/>
		<path fill-rule="evenodd" clip-rule="evenodd" fill="#76C0DD" d="M134.459,161.37c4.289,6.722,3.799,14.307,3.943,21.779
			c-0.096,0.186-0.193,0.37-0.29,0.556c0.194-0.088,0.389-0.175,0.584-0.263c7.817-4.887,14.564-18.9,12.297-27.096
			c-2.296-8.3-5.482-16.352-8.233-24.527c-0.644-1.914-1.101-3.89-1.644-5.837c0.481-0.19,0.963-0.38,1.444-0.571
			c2.426,4.842,4.852,9.684,7.405,14.782c0.786-0.32,2.025-0.493,2.115-0.912c1.008-4.708,1.847-9.452,2.714-14.191
			c0.229-1.247,0.396-2.504,0.592-3.757c16.205,33.688-4.423,76.824-41.028,85.798c-4.35-1.1-8.7-2.199-13.05-3.299
			c4.325-3.245,8.795-6.317,12.949-9.77c10.395-8.636,16.69-19.756,19.326-32.979C133.876,161.179,134.167,161.274,134.459,161.37z"
			/>
		<path fill-rule="evenodd" clip-rule="evenodd" fill="#22B575" d="M57.046,98.219c3.03,0.338,6.832-1.449,8.083,3.447
			c1.397,5.467,0.209,9.44-3.398,12.395c-4.194,3.436-8.301,7.049-11.989,11.011c-3.836,4.121-7.03,8.549-5.996,15.04
			c0.393,2.463-1.303,5.643-2.861,7.945c-2.839,4.197,0.993,6.734,1.806,10.004c-0.196,0.187-0.393,0.372-0.591,0.557
			c-5.384-4.096-5.363-10.421-6.675-16.195c-0.198-0.346-0.396-0.69-0.595-1.035c-0.061-1.398-0.122-2.796-0.184-4.193
			c0.292-1.305,0.583-2.609,0.875-3.914c0.044-0.361,0.088-0.723,0.132-1.083c0.297-0.948,0.594-1.897,0.891-2.847
			C39.746,116.581,46.38,106.072,57.046,98.219z"/>
		<path fill-rule="evenodd" clip-rule="evenodd" fill="#78C1DD" d="M135.515,97.139c-7.356,1.037-7.879,2.034-5.294,10.825
			c-1.921,0.391-3.806,0.774-5.69,1.158c-1.009-0.657-2.017-1.313-3.025-1.971c-4.516-7.546-11.129-12.581-19.118-15.967
			c0.086-0.303,0.188-0.602,0.306-0.895c2.982,0.607,6.07,0.907,8.925,1.886c5.312,1.823,6.718,0.916,6.622-4.907
			C123.998,90.558,129.756,93.849,135.515,97.139z"/>
		<path fill-rule="evenodd" clip-rule="evenodd" fill="#E6E7BA" d="M118.239,87.268c0.096,5.822-1.31,6.73-6.622,4.907
			c-2.854-0.979-5.942-1.279-8.926-1.886c-4.396-2.016-8.792-4.032-13.186-6.048C99.545,83.294,106.314,83.706,118.239,87.268z"/>
		<path fill-rule="evenodd" clip-rule="evenodd" fill="#F7F6C8" d="M89.505,84.241c4.395,2.016,8.791,4.032,13.186,6.048
			c-0.117,0.293-0.219,0.591-0.305,0.895c-3.416,0.108-6.836,0.132-10.246,0.35c-3.505,0.223-7.124,0.173-10.467,1.078
			c-4.585,1.241-6.346,0.607-8.067-4.327c3.271-1.027,6.54-2.055,9.81-3.083c1.029-0.246,2.059-0.493,3.088-0.739
			C87.504,84.389,88.504,84.315,89.505,84.241z"/>
		<path fill-rule="evenodd" clip-rule="evenodd" fill="#E8E9BC" d="M101.309,203.832c4.35,1.1,8.7,2.199,13.05,3.299
			c-9.778,3.182-19.657,3.454-29.627,1.026C89.792,204.935,95.13,202.774,101.309,203.832z"/>
		<path fill-rule="evenodd" clip-rule="evenodd" fill="#25B375" d="M35.522,133.28c-0.292,1.305-0.583,2.609-0.875,3.914
			C34.939,135.89,35.23,134.585,35.522,133.28z"/>
		<path fill-rule="evenodd" clip-rule="evenodd" fill="#E6E7BA" d="M86.504,84.463c-1.029,0.246-2.059,0.493-3.088,0.739
			C84.446,84.956,85.475,84.709,86.504,84.463z"/>
		<path fill-rule="evenodd" clip-rule="evenodd" fill="#25B375" d="M36.545,129.35c-0.297,0.95-0.594,1.899-0.891,2.847
			C35.951,131.248,36.248,130.3,36.545,129.35z"/>
		<path fill-rule="evenodd" clip-rule="evenodd" fill="#25B375" d="M34.831,141.388c0.198,0.345,0.396,0.689,0.595,1.035
			c-0.241-0.035-0.44-0.145-0.596-0.329C34.737,141.858,34.736,141.623,34.831,141.388z"/>
		<path fill-rule="evenodd" clip-rule="evenodd" fill="#21B574" d="M121.505,107.15c1.009,0.657,2.017,1.314,3.025,1.971
			c0.364,1.087,0.527,2.303,1.124,3.243c8.807,13.869,11.487,28.928,8.948,45.046c-0.204,1.296-0.103,2.639-0.144,3.96
			c-0.292-0.096-0.583-0.191-0.875-0.287c-2.445-3.738-4.61-7.711-7.464-11.105c-1.271-1.512-3.864-2.094-5.974-2.67
			c-2.342-0.64-5.094-0.227-7.187-1.252c-9.554-4.682-10.92-18.605-2.627-25.438c2.263-1.864,4.742-3.464,7.299-5.313
			c-1.949-2.312-3.692-4.38-5.435-6.447c0.131-0.569,0.262-1.138,0.392-1.707C115.562,107.15,118.533,107.15,121.505,107.15z"/>
		<path fill-rule="evenodd" clip-rule="evenodd" fill="#22B575" d="M42.692,158.062c6.563,2.828,13.242,3.747,20.452,2.707
			c3.262-0.471,6.923,0.935,10.24,2c3.142,1.01,6.044,2.746,9.097,4.059c5.236,2.251,7.563,9.465,3.33,13.191
			c-5.99,5.272-6.89,11.293-5.697,18.45c0.281,1.69-0.342,3.532-0.548,5.305c-0.449,0.193-0.897,0.388-1.347,0.581
			c-1.29-2.061-2.549-4.143-3.877-6.179c-1.884-2.891-3.343-6.274-5.824-8.516c-6.18-5.581-9.208-12.045-7.91-20.396
			c0.22-1.419,0.031-2.901,0.031-4.17c-7.182-0.198-13.436-1.676-18.535-6.478C42.299,158.434,42.496,158.248,42.692,158.062z"/>
		<path fill-rule="evenodd" clip-rule="evenodd" fill="#20AC6E" d="M138.696,183.442c-0.195,0.088-0.39,0.175-0.584,0.263
			c0.097-0.186,0.194-0.37,0.29-0.556C138.401,183.148,138.696,183.442,138.696,183.442z"/>
	</g>
</g>
</svg>
