<?xml version="1.0" encoding="utf-8"?>
<!-- Generator: Adobe Illustrator 16.0.0, SVG Export Plug-In . SVG Version: 6.00 Build 0)  -->
<!DOCTYPE svg PUBLIC "-//W3C//DTD SVG 1.1//EN" "http://www.w3.org/Graphics/SVG/1.1/DTD/svg11.dtd">
<svg version="1.1" id="Layer_1" xmlns="http://www.w3.org/2000/svg" xmlns:xlink="http://www.w3.org/1999/xlink" x="0px" y="0px"
	  viewBox="0 0 195 293" enable-background="new 0 0 195 293" xml:space="preserve">
<rect fill="#401D1A" width="195" height="293"/>
<g id="wIJ5dH_1_">
	<g>
		<path fill-rule="evenodd" clip-rule="evenodd" fill="#EBD9AF" d="M59.663,97.113c16.974-11.228,35.295-18.835,55.739-20.73
			c2.433,2.121,4.865,4.24,8.448,7.362c-3.596,2.571-6.583,4.704-10.304,7.361c5.296,2.319,9.1,3.985,13.836,6.058
			c-3.159,2.892-5.564,5.09-8.022,7.336c5.081,2.13,9.633,4.038,15.099,6.329c-3.296,1.907-5.312,3.074-7.401,4.283
			c3.246,2.31,6.155,4.38,9.19,6.539c-1.87,1.732-3.141,2.91-4.412,4.09c2.178,2.945,4.072,5.502,6.037,8.152
			c-2.137,1.537-3.702,2.664-5.273,3.795c1.259,3.396,2.368,6.389,3.563,9.606c-2.731,0.501-4.987,0.396-6.656,1.337
			c-3.116,1.757-5.89,4.123-8.805,6.237c-0.39-0.428-0.778-0.855-1.17-1.284c-0.288,2.157-0.575,4.314-0.915,6.856
			c-2.596-0.823-4.828-1.531-7.161-2.271c-1.174,2.944-2.209,5.534-3.209,8.039c-2.058-0.36-3.656-0.64-5.252-0.924
			c-5.659-7.361-11.318-14.726-16.977-22.088c2.446-2.263,4.892-4.525,8.557-7.914c-1.957-1.318-3.594-2.422-5.231-3.525
			c-0.758-0.84-1.517-1.683-2.274-2.523c-0.602-0.78-1.204-1.561-1.806-2.339c-1.114-1.267-2.228-2.531-3.341-3.798
			c-0.802-0.851-1.604-1.701-2.407-2.553c-0.748-0.913-1.496-1.827-2.243-2.741c-0.641-0.69-1.282-1.381-1.924-2.071
			c-0.706-0.796-1.41-1.593-2.115-2.389c-1.209-1.338-2.419-2.677-3.628-4.016c-0.303-0.404-0.604-0.809-0.906-1.212
			c-0.619-0.754-1.237-1.509-1.856-2.263c-1.175-1.275-2.349-2.55-3.523-3.825C62.102,100.39,60.883,98.751,59.663,97.113z"/>
		<path fill-rule="evenodd" clip-rule="evenodd" fill="#BC392B" d="M80.539,174.224c-6.248,3.072-12.499,6.146-19.345,9.513
			c-1.936-3.858-3.928-7.829-5.898-11.755c7.929-3.298,14.757-5.912,21.333-9.055c1.39-0.667,1.852-3.271,2.807-5.105
			c-11.705,9.024-25.168,11.614-38.711,12.208c-6.63,0.292-3.729-5.523-3.516-9.128c-0.468-2.863-1.298-5.724-1.312-8.59
			c-0.018-3.424,3.495-7.595-2.646-9.367c-0.37-0.107-0.614-2.4-0.168-3.307c4.738-9.634,9.628-19.195,14.474-28.776
			c3.501,3.807,7.004,7.615,10.507,11.423c-4.991,0.633-9.981,1.267-14.453,1.834c1.79,3.629,3.389,6.875,4.987,10.12
			c6.158-2.889,6.21-3.142,1.224-7.385c4.525-4.752,6.319,1.157,9.393,2.738c0-2.326,0-4.257,0-6.187
			c3.386,2.504,6.771,5.01,10.158,7.514c0.435,0.342,0.869,0.685,1.303,1.028c-0.521,4.669-3.18,7.307-7.66,8.526
			c-2.348,0.638-4.567,1.771-6.798,2.787c-0.375,0.17-0.505,0.878-0.849,1.526c1.443,0,2.601,0,4.112,0
			c-0.302,2.79-0.582,5.363-0.861,7.936c-0.131-0.437-0.261-0.876-0.392-1.314c5.297-5.006,10.596-10.013,15.895-15.02
			c2.496,1.8,4.991,3.6,7.488,5.398c-3.171,5.333-1.02,8.831,5.39,9.146c1.67,0.082,3.935,0.596,4.831,1.757
			c3.67,4.767,6.919,9.859,11.01,15.836c-5.14,0.869-8.697,1.47-12.255,2.07c-1.727-0.098-3.455-0.194-5.181-0.294
			c-0.333,0.161-0.639,0.362-0.918,0.603C83.17,172.011,81.855,173.116,80.539,174.224z"/>
		<path fill-rule="evenodd" clip-rule="evenodd" fill="#EF9C21" d="M102.995,165.286c1.596,0.284,3.194,0.563,5.252,0.924
			c1-2.505,2.035-5.095,3.209-8.039c2.333,0.739,4.565,1.447,7.161,2.271c0.34-2.542,0.627-4.699,0.915-6.856
			c0.392,0.429,0.78,0.856,1.17,1.284c2.915-2.114,5.688-4.48,8.805-6.237c1.669-0.941,3.925-0.836,6.656-1.337
			c-1.195-3.217-2.305-6.21-3.563-9.606c1.571-1.132,3.137-2.258,5.273-3.795c-1.965-2.65-3.859-5.208-6.037-8.152
			c1.271-1.181,2.542-2.358,4.412-4.09c-3.035-2.159-5.944-4.229-9.19-6.539c2.089-1.209,4.105-2.375,7.401-4.283
			c-5.466-2.292-10.018-4.199-15.099-6.329c2.458-2.247,4.863-4.444,8.022-7.336c-4.736-2.073-8.54-3.739-13.836-6.058
			c3.721-2.657,6.708-4.79,10.304-7.361c-3.583-3.122-6.016-5.241-8.448-7.362c3.294-0.14,6.62-0.035,9.875-0.47
			c7.668-1.021,13.076,2.156,17.276,9.239c-2.12,1.719-4.412,3.579-6.878,5.577c6.613,2.732,13.998,4.329,17.022,12.11
			c-2.582,0.706-4.93,1.346-6.843,1.869c5.05,3.923,10.104,7.849,16.304,12.669c-4.89,0.995-7.823,1.591-10.637,2.163
			c3.529,4.088,6.984,8.087,10.44,12.086c-0.381,0.54-0.76,1.08-1.139,1.619c-2.408-0.487-4.813-0.973-7.909-1.599
			c2.216,4.994,4.205,9.478,6.9,15.556c-5.993-1.617-10.387-2.803-15.051-4.062c1.542,4.352,2.985,8.421,4.427,12.491
			c0.052,0.716,0.105,1.435,0.157,2.153c-0.12,1.252-0.24,2.507-0.36,3.76c-0.439,0.377-0.878,0.758-1.314,1.139
			c-3.83-3.025-7.66-6.05-11.49-9.074c-0.396,0.394-0.787,0.786-1.18,1.181c0.49,3.152,0.982,6.306,1.476,9.458
			c-0.064,1.595-0.124,3.19-0.188,4.787l-0.031,0.037c-0.453-0.089-0.91-0.176-1.366-0.268c-2.557-2.979-5.111-5.952-8.517-9.918
			c-0.909,5.577-1.532,9.4-2.286,14.034c-2.729-2.913-4.732-5.05-7.594-8.104c0,5.004,0,8.76,0,14.401
			c-4.063-2.673-6.951-4.573-9.838-6.472c-0.821-0.885-1.646-1.769-2.469-2.654c0.04-0.356-0.044-0.682-0.249-0.976
			C103.624,167.841,103.31,166.565,102.995,165.286z"/>
		<path fill-rule="evenodd" clip-rule="evenodd" fill="#EBD9AF" d="M80.539,174.224c1.316-1.107,2.631-2.213,3.947-3.32
			c0.001,11.672,0.001,23.342,0.001,35.015c0.306,0,0.612,0,0.917,0c0-11.873,0-23.744,0-35.617c1.727,0.1,3.455,0.196,5.181,0.294
			c1.576,1.627,3.154,3.259,4.731,4.89c1.553,7.427,3.511,14.801,4.512,22.297c0.639,4.791-0.137,9.77-0.277,14.664
			c-0.765,0.135-1.528,0.269-2.295,0.401c-1.954-2.172-3.91-4.341-5.833-6.478c-1.701,3.564-3.312,6.943-5.201,10.904
			c-5.409-5.074-6.51-10.774-6.419-16.809C79.936,191.718,80.284,182.971,80.539,174.224z"/>
		<path fill-rule="evenodd" clip-rule="evenodd" fill="#923022" d="M70.675,131.947c-0.434-0.343-0.868-0.686-1.301-1.029
			c-0.495-1.083-0.775-2.346-1.517-3.217c-6.034-7.077-12.155-14.081-18.248-21.107c-1.106-6.18,3.929-10.929,10.053-9.48
			c1.221,1.637,2.44,3.276,3.659,4.915c-2.141,2.786-4.281,5.573-6.42,8.36c0.396,0.358,0.792,0.716,1.189,1.075
			c2.918-1.871,5.836-3.74,8.754-5.61c0.619,0.754,1.238,1.509,1.856,2.264c-2.616,2.409-5.232,4.818-7.848,7.226
			c0.763,0.725,1.524,1.451,2.287,2.176c2.155-2.73,4.311-5.46,6.467-8.19c1.209,1.338,2.418,2.677,3.626,4.014
			c-2.494,2.295-4.987,4.589-7.479,6.884c0.588,0.672,1.178,1.346,1.766,2.018c2.61-2.171,5.22-4.341,7.83-6.512
			c0.642,0.69,1.283,1.381,1.924,2.07c-2.243,2.811-4.486,5.623-6.727,8.434c0.557,0.504,1.115,1.009,1.671,1.513
			c2.432-2.402,4.865-4.803,7.298-7.205c0.802,0.852,1.604,1.703,2.407,2.553c-2.496,3.32-4.992,6.64-7.488,9.961
			c-0.225,0.208-0.448,0.415-0.672,0.622C72.734,133.104,71.706,132.525,70.675,131.947z"/>
		<path fill-rule="evenodd" clip-rule="evenodd" fill="#46201A" d="M95.316,175.484c-1.578-1.631-3.155-3.263-4.731-4.89
			c3.558-0.601,7.115-1.201,12.255-2.07c-4.091-5.977-7.339-11.069-11.01-15.836c-0.896-1.161-3.16-1.675-4.831-1.757
			c-6.409-0.315-8.561-3.813-5.39-9.145c1.47,0.47,2.939,0.94,4.409,1.411c5.658,7.363,11.317,14.727,16.977,22.088
			c0.314,1.279,0.629,2.555,0.946,3.832c-0.22,0.667-0.438,1.336-0.655,2.002c0.301-0.341,0.604-0.683,0.904-1.026
			c0.823,0.886,1.647,1.77,2.469,2.654C102.879,173.661,99.098,174.571,95.316,175.484z"/>
		<path fill-rule="evenodd" clip-rule="evenodd" fill="#EF9C21" d="M49.609,106.594c6.093,7.026,12.214,14.03,18.248,21.107
			c0.742,0.871,1.022,2.133,1.517,3.217c-3.389-2.503-6.773-5.009-10.16-7.512c-0.384-0.374-0.768-0.747-1.152-1.121
			c-3.503-3.809-7.006-7.616-10.507-11.423C48.241,109.44,48.925,108.018,49.609,106.594z"/>
		<path fill-rule="evenodd" clip-rule="evenodd" fill="#5C403D" d="M149.349,157.786c-0.052-0.719-0.105-1.438-0.157-2.153
			C149.245,156.352,149.297,157.067,149.349,157.786z"/>
		<path fill-rule="evenodd" clip-rule="evenodd" fill="#923022" d="M86.019,143.198c-1.47-0.471-2.939-0.941-4.409-1.411
			c-2.497-1.8-4.992-3.6-7.487-5.397c-0.119-0.902-0.239-1.804-0.36-2.707c0.225-0.207,0.448-0.414,0.67-0.621
			c3.609-2.054,7.22-4.109,10.831-6.164c0.602,0.779,1.204,1.559,1.806,2.34c-2.512,2.418-5.026,4.838-7.541,7.256
			c0.596,0.655,1.191,1.31,1.788,1.965c2.675-2.234,5.351-4.467,8.027-6.7c1.638,1.103,3.275,2.207,5.231,3.525
			C90.911,138.672,88.464,140.935,86.019,143.198z"/>
		<path fill-rule="evenodd" clip-rule="evenodd" fill="#BC392B" d="M85.264,126.897c-3.61,2.055-7.221,4.11-10.831,6.164
			c2.498-3.322,4.994-6.642,7.49-9.962C83.037,124.366,84.15,125.63,85.264,126.897z"/>
		<path fill-rule="evenodd" clip-rule="evenodd" fill="#BC392B" d="M89.344,131.759c-2.676,2.233-5.352,4.466-8.027,6.7
			c-0.597-0.656-1.191-1.311-1.788-1.965c2.514-2.418,5.028-4.838,7.541-7.256C87.827,130.077,88.585,130.919,89.344,131.759z"/>
		<path fill-rule="evenodd" clip-rule="evenodd" fill="#C03A2B" d="M75.35,115.733c-2.61,2.17-5.219,4.34-7.83,6.512
			c-0.588-0.672-1.178-1.346-1.766-2.018c2.493-2.294,4.986-4.589,7.479-6.884C73.94,114.141,74.645,114.937,75.35,115.733z"/>
		<path fill-rule="evenodd" clip-rule="evenodd" fill="#BC392B" d="M79.517,120.546c-2.433,2.401-4.866,4.802-7.298,7.205
			c-0.557-0.504-1.115-1.009-1.671-1.513c2.241-2.811,4.484-5.623,6.727-8.434C78.021,118.719,78.769,119.633,79.517,120.546z"/>
		<path fill-rule="evenodd" clip-rule="evenodd" fill="#BC392B" d="M66.845,105.854c-2.918,1.87-5.836,3.739-8.754,5.61
			c-0.397-0.358-0.793-0.716-1.189-1.075c2.139-2.788,4.279-5.574,6.42-8.36C64.496,103.304,65.67,104.579,66.845,105.854z"/>
		<path fill-rule="evenodd" clip-rule="evenodd" fill="#C03A2B" d="M69.607,109.329c-2.156,2.73-4.312,5.46-6.467,8.19
			c-0.762-0.725-1.524-1.451-2.287-2.176c2.616-2.408,5.232-4.817,7.848-7.226C69.003,108.52,69.305,108.925,69.607,109.329z"/>
		<path fill-rule="evenodd" clip-rule="evenodd" fill="#401D1A" d="M58.062,122.285c0.384,0.375,0.768,0.747,1.152,1.121
			c0,1.929,0,3.86,0,6.186c-3.074-1.581-4.868-7.49-9.393-2.738c4.986,4.243,4.934,4.496-1.224,7.385
			c-1.599-3.244-3.198-6.49-4.987-10.12C48.081,123.551,53.071,122.917,58.062,122.285z"/>
		<path fill-rule="evenodd" clip-rule="evenodd" fill="#46201A" d="M73.763,133.682c0.121,0.903,0.241,1.805,0.36,2.707
			c-5.299,5.005-10.598,10.012-15.896,15.018c0.131,0.438,0.261,0.878,0.392,1.314c0.28-2.573,0.559-5.146,0.861-7.936
			c-1.511,0-2.668,0-4.112,0c0.344-0.648,0.474-1.356,0.849-1.526c2.231-1.015,4.45-2.148,6.798-2.787
			c4.479-1.219,7.139-3.857,7.66-8.526C71.706,132.525,72.734,133.104,73.763,133.682z"/>
		<path fill-rule="evenodd" clip-rule="evenodd" fill="#5C403D" d="M85.404,170.301c0,11.873,0,23.744,0,35.617
			c-0.306,0-0.612,0-0.917,0c0-11.673,0-23.343-0.001-35.015C84.765,170.663,85.071,170.462,85.404,170.301z"/>
		<path fill-rule="evenodd" clip-rule="evenodd" fill="#3A1C16" d="M104.19,170.094c-0.301,0.344-0.604,0.686-0.904,1.026
			c0.218-0.666,0.436-1.335,0.655-2.002C104.146,169.412,104.23,169.737,104.19,170.094z"/>
	</g>
</g>
</svg>
