<?xml version="1.0" encoding="utf-8"?>
<!-- Generator: Adobe Illustrator 16.0.0, SVG Export Plug-In . SVG Version: 6.00 Build 0)  -->
<!DOCTYPE svg PUBLIC "-//W3C//DTD SVG 1.1//EN" "http://www.w3.org/Graphics/SVG/1.1/DTD/svg11.dtd">
<svg version="1.1" id="Layer_1" xmlns="http://www.w3.org/2000/svg" xmlns:xlink="http://www.w3.org/1999/xlink" x="0px" y="0px"
	  viewBox="0 0 195 293" enable-background="new 0 0 195 293" xml:space="preserve">
<rect fill="#F3E7BF" width="195" height="293"/>
<g>
	<path fill="#A6D05E" d="M126.28,183.901c-0.001,14.749-3.98,29.182-11.607,35.813c-3.589,3.122-11.521,1.658-16.579,1.658
		c-4.169,0-12.429,0.401-16.249-1.989c-10.611-6.645-18.902-20.266-18.902-36.146c0-23.082,8.953-37.802,28.85-36.146
		C108.409,148.478,126.28,162.728,126.28,183.901z"/>
	<g>
		<path fill="#A6D05E" d="M73.241,137.987c2.849,15.451,2.652,22.713-14.592,21.055c-10.026-0.965-19.329-9.712-21.885-21.055
			c-2.654-11.772,1.534-21.058,11.606-21.058S71.131,126.549,73.241,137.987z"/>
		<path fill="#7DB342" d="M61.843,154.267c7.271,5.503,13.68-1.104,10.546,2.203c-2.268,2.393-6.503,3.269-13.74,2.572
			c-10.026-0.965-19.329-9.712-21.885-21.055c-1.155-5.12-1.015-9.769,0.338-13.388c1.762-4.704-0.681,4.493,2.969,8.862
			C45.954,140.502,48.851,144.435,61.843,154.267z"/>
	</g>
	<g>
		<path fill="#A6D05E" d="M168.425,146.664c-1.358,12.01-11.653,21.885-26.03,21.885s-36.134-7.867-28.021-21.885
			c7.056-12.191,10.994-18.57,26.243-21.555C156.894,121.923,170.416,129.089,168.425,146.664z"/>
		<path fill="#7CB242" d="M165.605,155.52c-4.743,9.104-6.806,11.838-22.695,13.355c-15.153,1.447-30.007-6.082-29.938-16.442
			c0.01-1.587,0.859-4.602,0.439-2.857c-2.834,11.811,45.968,16.242,52.538,4.263C166.504,152.83,166.227,154.327,165.605,155.52z"
			/>
	</g>
	<path fill="#7CB342" d="M91.294,221.36c-4.168,0-5.993,0.414-9.812-1.977c-10.611-6.645-19.986-21.204-18.902-36.146
		c0.946-13.029,2.208-18.662,3.524-20.594c0.991-1.454,1.402-1.02,1.493-0.701c0.212,0.741-2.372,11.854-0.529,17.473
		C72.919,197.255,95.087,221.36,91.294,221.36z"/>
	<g>
		<path fill="#A6D05E" d="M56.833,99.215c-0.995,10.279-7.232,18.569-12.268,18.569c-5.038,0-8.955-9.229-8.955-18.569
			c0-9.34,6.901-16.913,11.938-16.913S57.787,89.368,56.833,99.215z"/>
		<path fill="#7DB342" d="M44.078,110.211c4.593,1.081,10.753-2.019,8.724,1.246c-2.411,3.881-5.501,6.326-8.236,6.327
			c-4.09,0-7.44-6.083-8.558-13.369c-0.258-1.689,2.79,1.919,4.032,3.162C41.795,109.334,41.092,109.509,44.078,110.211z"/>
		<g>
			<path fill="#F4A1B1" d="M37.055,91.601c0,3.031-2.457,5.004-5.487,5.004c-3.03,0-6.102,0.308-6.102-2.722
				c0-0.169-0.219-0.578-0.001-0.581c2.196-0.032-0.133-1.749-0.097-2.447c0.042-0.77,1.491-0.341,1.641-1.125
				c0.148-0.784-1.165-1.599-0.862-2.208c0.636-1.275,2.332-0.311,2.479-0.486c0.396-0.468-0.789-1.495-0.158-1.695
				c1.346-0.427,2.96-0.277,3.71,0.29C36.456,88.869,37.055,88.571,37.055,91.601z"/>
			<path fill="#F27C9A" d="M37.055,91.601c-0.527,3.951-2.483,4.604-5.487,5.004c-3.293,0.438-7.805-1.245-4.171-1.405
				c5.97-0.263,8.992-3.16,5.18-6.759c-1.399-1.322-1.499-3.643-0.398-2.81C36.456,88.869,37.456,88.598,37.055,91.601z"/>
		</g>
		<g>
			<path fill="#F4A1B1" d="M49.23,82.973c-3.005,0.382-5.273-1.806-5.655-4.813c-0.383-3.005-1.077-6.013,1.93-6.396
				c0.168-0.021,0.545-0.288,0.577-0.074c0.31,2.175,1.718-0.353,2.416-0.405c0.768-0.056,0.526,1.437,1.324,1.487
				c0.795,0.048,1.438-1.358,2.081-1.134c1.345,0.468,0.602,2.274,0.794,2.398c0.515,0.334,1.384-0.97,1.662-0.37
				c0.594,1.281,0.648,2.901,0.181,3.716C51.866,82.034,52.237,82.589,49.23,82.973z"/>
			<path fill="#F27C9A" d="M49.23,82.973c-3.984-0.025-4.879-1.883-5.655-4.813c-0.851-3.211,0.25-7.899,0.866-4.313
				c1.015,5.889,4.27,8.521,7.359,4.286c1.134-1.555,3.425-1.947,2.737-0.75C51.866,82.034,52.261,82.991,49.23,82.973z"/>
		</g>
	</g>
	<g>
		<path fill="#A6D05E" d="M79.718,115.697c-1.506,6.795-6.682,11.352-11.523,11.352c-4.841,0-6.165-3.896-5.268-10.798
			c0.878-6.76,6.365-12.286,11.207-12.286C78.975,103.965,81.188,109.065,79.718,115.697z"/>
		<path fill="#7DB342" d="M66.486,117.831c0.239,6.956,6.708,9.218,1.868,9.218c-4.841,0-6.576-3.961-5.268-10.798
			c1.043-5.456,2.014-6.225,2.819-7.09C66.887,108.107,66.311,112.74,66.486,117.831z"/>
		<g>
			<path fill="#F4A1B1" d="M76.45,105.856c-2.464-1.763-2.64-4.909-0.875-7.374c1.763-2.463,3.3-5.142,5.764-3.378
				c0.138,0.099,0.597,0.159,0.472,0.337c-1.25,1.805,1.502,0.91,2.047,1.346c0.602,0.482-0.591,1.411-0.04,1.99
				c0.551,0.577,1.978-0.018,2.297,0.583c0.667,1.26-1.105,2.078-1.048,2.299c0.149,0.596,1.675,0.23,1.47,0.858
				c-0.436,1.343-1.498,2.568-2.396,2.849C79.021,106.959,78.915,107.62,76.45,105.856z"/>
			<path fill="#F27C9A" d="M76.45,105.856c-2.905-2.728-2.298-4.698-0.875-7.374c1.559-2.934,5.554-5.623,3.57-2.574
				c-3.261,5.009-2.664,9.152,2.482,8.146c1.889-0.368,3.834,0.902,2.516,1.312C79.021,106.959,78.66,107.93,76.45,105.856z"/>
		</g>
	</g>
	<line fill="#7CB342" x1="71.449" y1="204.845" x2="66.726" y2="205.802"/>
	<linearGradient id="SVGID_1_" gradientUnits="userSpaceOnUse" x1="60.8066" y1="170.5732" x2="60.8066" y2="170.5732">
		<stop  offset="0.0161" style="stop-color:#8DC63F;stop-opacity:0.5"/>
		<stop  offset="1" style="stop-color:#009444"/>
	</linearGradient>
	<path fill="none" stroke="url(#SVGID_1_)" stroke-width="0.5" stroke-miterlimit="10" d="M60.807,170.573"/>
	<linearGradient id="SVGID_2_" gradientUnits="userSpaceOnUse" x1="118.457" y1="202.4492" x2="118.457" y2="202.4492">
		<stop  offset="0.0161" style="stop-color:#8DC63F;stop-opacity:0.5"/>
		<stop  offset="1" style="stop-color:#009444"/>
	</linearGradient>
	<path fill="none" stroke="url(#SVGID_2_)" stroke-width="0.5" stroke-miterlimit="10" d="M118.457,202.449"/>
	<linearGradient id="SVGID_3_" gradientUnits="userSpaceOnUse" x1="118.457" y1="184.3418" x2="118.457" y2="184.3418">
		<stop  offset="0.0161" style="stop-color:#8DC63F;stop-opacity:0.5"/>
		<stop  offset="1" style="stop-color:#009444"/>
	</linearGradient>
	<path fill="none" stroke="url(#SVGID_3_)" stroke-width="0.5" stroke-miterlimit="10" d="M118.457,184.342"/>
	<g>
		<line fill="#7CB342" x1="124.534" y1="172.803" x2="122.53" y2="173.01"/>
	</g>
	<line fill="#7CB342" x1="148.646" y1="125.778" x2="148.646" y2="119.069"/>
	<linearGradient id="SVGID_4_" gradientUnits="userSpaceOnUse" x1="91.7271" y1="157.8828" x2="91.7271" y2="157.8828">
		<stop  offset="0.0161" style="stop-color:#8DC63F;stop-opacity:0.5"/>
		<stop  offset="1" style="stop-color:#009444"/>
	</linearGradient>
	<path fill="none" stroke="url(#SVGID_4_)" stroke-miterlimit="10" d="M91.727,157.883"/>
	<linearGradient id="SVGID_5_" gradientUnits="userSpaceOnUse" x1="66.4062" y1="138.1016" x2="66.4062" y2="138.1016">
		<stop  offset="0.0161" style="stop-color:#8DC63F;stop-opacity:0.5"/>
		<stop  offset="1" style="stop-color:#009444"/>
	</linearGradient>
	<path fill="none" stroke="url(#SVGID_5_)" stroke-miterlimit="10" d="M66.406,138.102"/>
	<linearGradient id="SVGID_6_" gradientUnits="userSpaceOnUse" x1="64.6162" y1="141.2847" x2="64.6162" y2="141.2847">
		<stop  offset="0.0161" style="stop-color:#8DC63F;stop-opacity:0.5"/>
		<stop  offset="1" style="stop-color:#009444"/>
	</linearGradient>
	<path fill="none" stroke="url(#SVGID_6_)" stroke-miterlimit="10" d="M64.616,141.285"/>
	<linearGradient id="SVGID_7_" gradientUnits="userSpaceOnUse" x1="78.5962" y1="119.0693" x2="78.5962" y2="119.0693">
		<stop  offset="0.0161" style="stop-color:#8DC63F;stop-opacity:0.5"/>
		<stop  offset="1" style="stop-color:#009444"/>
	</linearGradient>
	<path fill="none" stroke="url(#SVGID_7_)" stroke-miterlimit="10" d="M78.596,119.069"/>
	<polyline fill="#7CB342" points="116.78,146.967 108.395,146.461 115.103,146.967 	"/>
	<polyline fill="#7CB342" points="128.279,129.485 125.047,125.725 129.238,129.485 	"/>
	<line fill="#7CB342" x1="36.285" y1="135.392" x2="31.593" y2="135.392"/>
	
		<linearGradient id="SVGID_8_" gradientUnits="userSpaceOnUse" x1="158.7383" y1="105.8408" x2="159.4902" y2="105.8408" gradientTransform="matrix(0.8151 0.5794 -0.5794 0.8151 68.7769 -34.3848)">
		<stop  offset="0.0161" style="stop-color:#8DC63F;stop-opacity:0.5"/>
		<stop  offset="1" style="stop-color:#009444"/>
	</linearGradient>
	
		<line fill="none" stroke="url(#SVGID_8_)" stroke-width="0.75" stroke-miterlimit="10" x1="138.826" y1="141.705" x2="135.466" y2="146.43"/>
	
		<linearGradient id="SVGID_9_" gradientUnits="userSpaceOnUse" x1="4.2422" y1="102.9658" x2="4.9932" y2="102.9658" gradientTransform="matrix(0.59 -0.8074 0.8074 0.59 -48.7246 62.0503)">
		<stop  offset="0.0161" style="stop-color:#8DC63F;stop-opacity:0.5"/>
		<stop  offset="1" style="stop-color:#009444"/>
	</linearGradient>
	
		<line fill="none" stroke="url(#SVGID_9_)" stroke-width="0.75" stroke-miterlimit="10" x1="34.795" y1="117.36" x2="39.477" y2="120.78"/>
	<linearGradient id="SVGID_10_" gradientUnits="userSpaceOnUse" x1="56.5732" y1="116.9292" x2="57.3232" y2="116.9292">
		<stop  offset="0.0161" style="stop-color:#8DC63F;stop-opacity:0.5"/>
		<stop  offset="1" style="stop-color:#009444"/>
	</linearGradient>
	
		<line fill="none" stroke="url(#SVGID_10_)" stroke-width="0.75" stroke-miterlimit="10" x1="56.948" y1="114.03" x2="56.948" y2="119.829"/>
	
		<linearGradient id="SVGID_11_" gradientUnits="userSpaceOnUse" x1="20.4321" y1="135.8022" x2="21.1826" y2="135.8022" gradientTransform="matrix(0.8064 -0.5914 0.5914 0.8064 -43.8955 43.4834)">
		<stop  offset="0.0161" style="stop-color:#8DC63F;stop-opacity:0.5"/>
		<stop  offset="1" style="stop-color:#009444"/>
	</linearGradient>
	
		<line fill="none" stroke="url(#SVGID_11_)" stroke-width="0.75" stroke-miterlimit="10" x1="51.485" y1="138.344" x2="54.914" y2="143.018"/>
	
		<linearGradient id="SVGID_12_" gradientUnits="userSpaceOnUse" x1="90.7485" y1="146.9561" x2="91.4995" y2="146.9561" gradientTransform="matrix(0.8081 -0.5891 0.5891 0.8081 -33.0605 64.8735)">
		<stop  offset="0.0161" style="stop-color:#8DC63F;stop-opacity:0.5"/>
		<stop  offset="1" style="stop-color:#009444"/>
	</linearGradient>
	
		<line fill="none" stroke="url(#SVGID_12_)" stroke-width="0.75" stroke-miterlimit="10" x1="125.434" y1="127.605" x2="128.851" y2="132.291"/>
	
		<linearGradient id="SVGID_13_" gradientUnits="userSpaceOnUse" x1="157.0518" y1="108.4961" x2="157.8027" y2="108.4961" gradientTransform="matrix(0.9723 0.2336 -0.2336 0.9723 20.9214 -19.8486)">
		<stop  offset="0.0161" style="stop-color:#8DC63F;stop-opacity:0.5"/>
		<stop  offset="1" style="stop-color:#009444"/>
	</linearGradient>
	
		<line fill="none" stroke="url(#SVGID_13_)" stroke-width="0.75" stroke-miterlimit="10" x1="149.324" y1="119.604" x2="147.969" y2="125.242"/>
	
		<linearGradient id="SVGID_14_" gradientUnits="userSpaceOnUse" x1="-3.1382" y1="153.7012" x2="-2.3882" y2="153.7012" gradientTransform="matrix(0.5148 -0.8573 0.8573 0.5148 -67.8486 94.2021)">
		<stop  offset="0.0161" style="stop-color:#8DC63F;stop-opacity:0.5"/>
		<stop  offset="1" style="stop-color:#009444"/>
	</linearGradient>
	
		<line fill="none" stroke="url(#SVGID_14_)" stroke-width="0.75" stroke-miterlimit="10" x1="60.01" y1="174.21" x2="64.979" y2="177.194"/>
	
		<linearGradient id="SVGID_15_" gradientUnits="userSpaceOnUse" x1="10.9023" y1="144.7725" x2="11.6523" y2="144.7725" gradientTransform="matrix(-0.1027 -0.9947 0.9947 -0.1027 -16.5703 199.0898)">
		<stop  offset="0.0161" style="stop-color:#8DC63F;stop-opacity:0.5"/>
		<stop  offset="1" style="stop-color:#009444"/>
	</linearGradient>
	
		<line fill="none" stroke="url(#SVGID_15_)" stroke-width="0.75" stroke-miterlimit="10" x1="123.396" y1="173.309" x2="129.165" y2="172.713"/>
	<linearGradient id="SVGID_16_" gradientUnits="userSpaceOnUse" x1="86.1821" y1="146.9668" x2="86.9321" y2="146.9668">
		<stop  offset="0.0161" style="stop-color:#8DC63F;stop-opacity:0.5"/>
		<stop  offset="1" style="stop-color:#009444"/>
	</linearGradient>
	
		<line fill="none" stroke="url(#SVGID_16_)" stroke-width="0.75" stroke-miterlimit="10" x1="86.557" y1="144.069" x2="86.557" y2="149.865"/>
	<linearGradient id="SVGID_17_" gradientUnits="userSpaceOnUse" x1="68.9639" y1="105.2471" x2="69.7139" y2="105.2471">
		<stop  offset="0.0161" style="stop-color:#8DC63F;stop-opacity:0.5"/>
		<stop  offset="1" style="stop-color:#009444"/>
	</linearGradient>
	
		<line fill="none" stroke="url(#SVGID_17_)" stroke-width="0.75" stroke-miterlimit="10" x1="69.339" y1="102.348" x2="69.339" y2="108.146"/>
	
		<linearGradient id="SVGID_18_" gradientUnits="userSpaceOnUse" x1="50.8901" y1="126.7793" x2="51.6411" y2="126.7793" gradientTransform="matrix(0.8335 -0.5525 0.5525 0.8335 -34.1777 45.0752)">
		<stop  offset="0.0161" style="stop-color:#8DC63F;stop-opacity:0.5"/>
		<stop  offset="1" style="stop-color:#009444"/>
	</linearGradient>
	
		<line fill="none" stroke="url(#SVGID_18_)" stroke-width="0.75" stroke-miterlimit="10" x1="76.994" y1="120.007" x2="80.198" y2="124.839"/>
	
		<linearGradient id="SVGID_19_" gradientUnits="userSpaceOnUse" x1="19.707" y1="83.2207" x2="20.459" y2="83.2207" gradientTransform="matrix(-0.2978 -0.9546 0.9546 -0.2978 7.375 153.7832)">
		<stop  offset="0.0161" style="stop-color:#8DC63F;stop-opacity:0.5"/>
		<stop  offset="1" style="stop-color:#009444"/>
	</linearGradient>
	
		<line fill="none" stroke="url(#SVGID_19_)" stroke-width="0.75" stroke-miterlimit="10" x1="78.074" y1="110.696" x2="83.609" y2="108.968"/>
	
		<linearGradient id="SVGID_20_" gradientUnits="userSpaceOnUse" x1="132.7695" y1="137.4448" x2="133.5195" y2="137.4448" gradientTransform="matrix(0.3811 0.9245 -0.9245 0.3811 144.3794 30.3262)">
		<stop  offset="0.0161" style="stop-color:#8DC63F;stop-opacity:0.5"/>
		<stop  offset="1" style="stop-color:#009444"/>
	</linearGradient>
	
		<line fill="none" stroke="url(#SVGID_20_)" stroke-width="0.75" stroke-miterlimit="10" x1="70.725" y1="204.698" x2="65.364" y2="206.906"/>
	
		<linearGradient id="SVGID_21_" gradientUnits="userSpaceOnUse" x1="22.376" y1="197.04" x2="23.127" y2="197.04" gradientTransform="matrix(0.4006 -0.9162 0.9162 0.4006 -66.1182 150.4502)">
		<stop  offset="0.0161" style="stop-color:#8DC63F;stop-opacity:0.5"/>
		<stop  offset="1" style="stop-color:#009444"/>
	</linearGradient>
	
		<line fill="none" stroke="url(#SVGID_21_)" stroke-width="0.75" stroke-miterlimit="10" x1="120.877" y1="207.387" x2="126.188" y2="209.709"/>
	
		<linearGradient id="SVGID_22_" gradientUnits="userSpaceOnUse" x1="28.2134" y1="94.208" x2="28.9639" y2="94.208" gradientTransform="matrix(0.6131 -0.79 0.79 0.6131 -34.3633 62.2842)">
		<stop  offset="0.0161" style="stop-color:#8DC63F;stop-opacity:0.5"/>
		<stop  offset="1" style="stop-color:#009444"/>
	</linearGradient>
	
		<line fill="none" stroke="url(#SVGID_22_)" stroke-width="0.75" stroke-miterlimit="10" x1="55.298" y1="95.684" x2="59.879" y2="99.24"/>
	
		<linearGradient id="SVGID_23_" gradientUnits="userSpaceOnUse" x1="97.416" y1="185.0986" x2="98.168" y2="185.0986" gradientTransform="matrix(0.6751 -0.7378 0.7378 0.6751 -39.8252 105.0786)">
		<stop  offset="0.0161" style="stop-color:#8DC63F;stop-opacity:0.5"/>
		<stop  offset="1" style="stop-color:#009444"/>
	</linearGradient>
	
		<line fill="none" stroke="url(#SVGID_23_)" stroke-width="0.75" stroke-miterlimit="10" x1="160.61" y1="155.926" x2="164.89" y2="159.839"/>
	
		<linearGradient id="SVGID_24_" gradientUnits="userSpaceOnUse" x1="183.8047" y1="87.8467" x2="184.5547" y2="87.8467" gradientTransform="matrix(0.8119 0.5838 -0.5838 0.8119 69.6826 -44.1973)">
		<stop  offset="0.0161" style="stop-color:#8DC63F;stop-opacity:0.5"/>
		<stop  offset="1" style="stop-color:#009444"/>
	</linearGradient>
	
		<line fill="none" stroke="url(#SVGID_24_)" stroke-width="0.75" stroke-miterlimit="10" x1="169.632" y1="132.291" x2="166.248" y2="136.999"/>
	
		<linearGradient id="SVGID_25_" gradientUnits="userSpaceOnUse" x1="31.7441" y1="82.3936" x2="32.4946" y2="82.3936" gradientTransform="matrix(0.9221 -0.3869 0.3869 0.9221 -19.708 19.4648)">
		<stop  offset="0.0161" style="stop-color:#8DC63F;stop-opacity:0.5"/>
		<stop  offset="1" style="stop-color:#009444"/>
	</linearGradient>
	
		<line fill="none" stroke="url(#SVGID_25_)" stroke-width="0.75" stroke-miterlimit="10" x1="40.664" y1="80.343" x2="42.907" y2="85.689"/>
	
		<linearGradient id="SVGID_26_" gradientUnits="userSpaceOnUse" x1="67.3237" y1="77.2139" x2="68.0747" y2="77.2139" gradientTransform="matrix(0.8472 0.5312 -0.5312 0.8472 38.2568 -15.6914)">
		<stop  offset="0.0161" style="stop-color:#8DC63F;stop-opacity:0.5"/>
		<stop  offset="1" style="stop-color:#009444"/>
	</linearGradient>
	
		<line fill="none" stroke="url(#SVGID_26_)" stroke-width="0.75" stroke-miterlimit="10" x1="56.134" y1="83.233" x2="53.055" y2="88.146"/>
	
		<linearGradient id="SVGID_27_" gradientUnits="userSpaceOnUse" x1="-8.1006" y1="109.6519" x2="-7.3496" y2="109.6519" gradientTransform="matrix(0.467 -0.8843 0.8843 0.467 -57.0684 77.3538)">
		<stop  offset="0.0161" style="stop-color:#8DC63F;stop-opacity:0.5"/>
		<stop  offset="1" style="stop-color:#009444"/>
	</linearGradient>
	
		<line fill="none" stroke="url(#SVGID_27_)" stroke-width="0.75" stroke-miterlimit="10" x1="33.721" y1="134.038" x2="38.848" y2="136.745"/>
	
		<linearGradient id="SVGID_28_" gradientUnits="userSpaceOnUse" x1="50.4644" y1="150.8584" x2="51.2153" y2="150.8584" gradientTransform="matrix(0.9903 0.1391 -0.1391 0.9903 13.5498 -4.5176)">
		<stop  offset="0.0161" style="stop-color:#8DC63F;stop-opacity:0.5"/>
		<stop  offset="1" style="stop-color:#009444"/>
	</linearGradient>
	
		<line fill="none" stroke="url(#SVGID_28_)" stroke-width="0.75" stroke-miterlimit="10" x1="43.309" y1="149.076" x2="42.503" y2="154.818"/>
	
		<linearGradient id="SVGID_29_" gradientUnits="userSpaceOnUse" x1="142.4404" y1="135.7012" x2="143.1934" y2="135.7012" gradientTransform="matrix(0.8001 0.5999 -0.5999 0.8001 77.4604 -23.6758)">
		<stop  offset="0.0161" style="stop-color:#8DC63F;stop-opacity:0.5"/>
		<stop  offset="1" style="stop-color:#009444"/>
	</linearGradient>
	
		<line fill="none" stroke="url(#SVGID_29_)" stroke-width="0.75" stroke-miterlimit="10" x1="112.049" y1="168.252" x2="108.572" y2="172.892"/>
	
		<linearGradient id="SVGID_30_" gradientUnits="userSpaceOnUse" x1="34.2329" y1="169.8857" x2="34.9849" y2="169.8857" gradientTransform="matrix(0.8123 -0.5832 0.5832 0.8123 -50.1953 52.7529)">
		<stop  offset="0.0161" style="stop-color:#8DC63F;stop-opacity:0.5"/>
		<stop  offset="1" style="stop-color:#009444"/>
	</linearGradient>
	
		<line fill="none" stroke="url(#SVGID_30_)" stroke-width="0.75" stroke-miterlimit="10" x1="75.305" y1="168.217" x2="78.685" y2="172.927"/>
	
		<linearGradient id="SVGID_31_" gradientUnits="userSpaceOnUse" x1="156.8652" y1="131.3623" x2="157.6152" y2="131.3623" gradientTransform="matrix(0.5876 0.8092 -0.8092 0.5876 124.2075 -8.1768)">
		<stop  offset="0.0161" style="stop-color:#8DC63F;stop-opacity:0.5"/>
		<stop  offset="1" style="stop-color:#009444"/>
	</linearGradient>
	
		<line fill="none" stroke="url(#SVGID_31_)" stroke-width="0.75" stroke-miterlimit="10" x1="112.656" y1="194.539" x2="107.965" y2="197.946"/>
	
		<linearGradient id="SVGID_32_" gradientUnits="userSpaceOnUse" x1="28.6616" y1="135.4019" x2="29.4141" y2="135.4019" gradientTransform="matrix(0.156 -0.9878 0.9878 0.156 -25.2998 154.2739)">
		<stop  offset="0.0161" style="stop-color:#8DC63F;stop-opacity:0.5"/>
		<stop  offset="1" style="stop-color:#009444"/>
	</linearGradient>
	
		<line fill="none" stroke="url(#SVGID_32_)" stroke-width="0.75" stroke-miterlimit="10" x1="110.11" y1="146.262" x2="115.838" y2="147.164"/>
	
		<linearGradient id="SVGID_33_" gradientUnits="userSpaceOnUse" x1="36.0815" y1="196.0186" x2="36.832" y2="196.0186" gradientTransform="matrix(0.8146 -0.58 0.58 0.8146 -56.8359 57.7124)">
		<stop  offset="0.0161" style="stop-color:#8DC63F;stop-opacity:0.5"/>
		<stop  offset="1" style="stop-color:#009444"/>
	</linearGradient>
	
		<line fill="none" stroke="url(#SVGID_33_)" stroke-width="0.75" stroke-miterlimit="10" x1="84.875" y1="193.881" x2="88.239" y2="198.604"/>
	
		<linearGradient id="SVGID_34_" gradientUnits="userSpaceOnUse" x1="22.5562" y1="98.9443" x2="23.3066" y2="98.9443" gradientTransform="matrix(0.8563 -0.5164 0.5164 0.8563 -30.0713 29.4634)">
		<stop  offset="0.0161" style="stop-color:#8DC63F;stop-opacity:0.5"/>
		<stop  offset="1" style="stop-color:#009444"/>
	</linearGradient>
	
		<line fill="none" stroke="url(#SVGID_34_)" stroke-width="0.75" stroke-miterlimit="10" x1="39.166" y1="99.865" x2="42.161" y2="104.83"/>
	
		<linearGradient id="SVGID_35_" gradientUnits="userSpaceOnUse" x1="57.9517" y1="90.7432" x2="58.7017" y2="90.7432" gradientTransform="matrix(0.9454 0.3259 -0.3259 0.9454 23.3999 -10.2354)">
		<stop  offset="0.0161" style="stop-color:#8DC63F;stop-opacity:0.5"/>
		<stop  offset="1" style="stop-color:#009444"/>
	</linearGradient>
	
		<line fill="none" stroke="url(#SVGID_35_)" stroke-width="0.75" stroke-miterlimit="10" x1="49.91" y1="91.823" x2="48.02" y2="97.304"/>
	
		<linearGradient id="SVGID_36_" gradientUnits="userSpaceOnUse" x1="85.6772" y1="123.0225" x2="86.4272" y2="123.0225" gradientTransform="matrix(0.884 0.4675 -0.4675 0.884 46.061 -13.5889)">
		<stop  offset="0.0161" style="stop-color:#8DC63F;stop-opacity:0.5"/>
		<stop  offset="1" style="stop-color:#009444"/>
	</linearGradient>
	
		<line fill="none" stroke="url(#SVGID_36_)" stroke-width="0.75" stroke-miterlimit="10" x1="65.972" y1="132.829" x2="63.261" y2="137.954"/>
	
		<linearGradient id="SVGID_37_" gradientUnits="userSpaceOnUse" x1="37.9565" y1="126.1196" x2="38.7075" y2="126.1196" gradientTransform="matrix(0.9581 -0.2865 0.2865 0.9581 -21.3711 15.8726)">
		<stop  offset="0.0161" style="stop-color:#8DC63F;stop-opacity:0.5"/>
		<stop  offset="1" style="stop-color:#009444"/>
	</linearGradient>
	
		<line fill="none" stroke="url(#SVGID_37_)" stroke-width="0.75" stroke-miterlimit="10" x1="50.655" y1="122.948" x2="52.315" y2="128.502"/>
	
		<linearGradient id="SVGID_38_" gradientUnits="userSpaceOnUse" x1="168.6982" y1="104.8857" x2="169.4482" y2="104.8857" gradientTransform="matrix(0.8851 0.4653 -0.4653 0.8851 51.3975 -34.7695)">
		<stop  offset="0.0161" style="stop-color:#8DC63F;stop-opacity:0.5"/>
		<stop  offset="1" style="stop-color:#009444"/>
	</linearGradient>
	
		<line fill="none" stroke="url(#SVGID_38_)" stroke-width="0.75" stroke-miterlimit="10" x1="153.59" y1="134.179" x2="150.892" y2="139.311"/>
	
		<linearGradient id="SVGID_39_" gradientUnits="userSpaceOnUse" x1="106.0371" y1="152.0918" x2="106.7871" y2="152.0918" gradientTransform="matrix(0.839 -0.5442 0.5442 0.839 -31.4258 62.6035)">
		<stop  offset="0.0161" style="stop-color:#8DC63F;stop-opacity:0.5"/>
		<stop  offset="1" style="stop-color:#009444"/>
	</linearGradient>
	
		<line fill="none" stroke="url(#SVGID_39_)" stroke-width="0.75" stroke-miterlimit="10" x1="139.039" y1="129.86" x2="142.195" y2="134.724"/>
	
		<linearGradient id="SVGID_40_" gradientUnits="userSpaceOnUse" x1="114.8623" y1="172.4844" x2="115.6123" y2="172.4844" gradientTransform="matrix(0.9083 -0.4182 0.4182 0.9083 -31.999 47.4465)">
		<stop  offset="0.0161" style="stop-color:#8DC63F;stop-opacity:0.5"/>
		<stop  offset="1" style="stop-color:#009444"/>
	</linearGradient>
	
		<line fill="none" stroke="url(#SVGID_40_)" stroke-width="0.75" stroke-miterlimit="10" x1="143.601" y1="153.294" x2="146.025" y2="158.561"/>
	
		<linearGradient id="SVGID_41_" gradientUnits="userSpaceOnUse" x1="92.0107" y1="164.8809" x2="92.7607" y2="164.8809" gradientTransform="matrix(0.8618 -0.5072 0.5072 0.8618 -36.1035 55.0713)">
		<stop  offset="0.0161" style="stop-color:#8DC63F;stop-opacity:0.5"/>
		<stop  offset="1" style="stop-color:#009444"/>
	</linearGradient>
	
		<line fill="none" stroke="url(#SVGID_41_)" stroke-width="0.75" stroke-miterlimit="10" x1="125.672" y1="147.818" x2="128.612" y2="152.815"/>
	
		<linearGradient id="SVGID_42_" gradientUnits="userSpaceOnUse" x1="86.8359" y1="134.9238" x2="87.5869" y2="134.9238" gradientTransform="matrix(0.918 0.3966 -0.3966 0.918 40.4297 -12.9971)">
		<stop  offset="0.0161" style="stop-color:#8DC63F;stop-opacity:0.5"/>
		<stop  offset="1" style="stop-color:#009444"/>
	</linearGradient>
	
		<line fill="none" stroke="url(#SVGID_42_)" stroke-width="0.75" stroke-miterlimit="10" x1="68.127" y1="142.788" x2="65.828" y2="148.11"/>
	
		<linearGradient id="SVGID_43_" gradientUnits="userSpaceOnUse" x1="119.5791" y1="146.9868" x2="120.3301" y2="146.9868" gradientTransform="matrix(0.8974 0.4411 -0.4411 0.8974 51.801 -18.6738)">
		<stop  offset="0.0161" style="stop-color:#8DC63F;stop-opacity:0.5"/>
		<stop  offset="1" style="stop-color:#009444"/>
	</linearGradient>
	
		<line fill="none" stroke="url(#SVGID_43_)" stroke-width="0.75" stroke-miterlimit="10" x1="95.889" y1="163.554" x2="93.332" y2="168.755"/>
	
		<linearGradient id="SVGID_44_" gradientUnits="userSpaceOnUse" x1="56.7383" y1="192.5361" x2="57.4893" y2="192.5361" gradientTransform="matrix(0.8613 -0.508 0.508 0.8613 -47.959 50.4126)">
		<stop  offset="0.0161" style="stop-color:#8DC63F;stop-opacity:0.5"/>
		<stop  offset="1" style="stop-color:#009444"/>
	</linearGradient>
	
		<line fill="none" stroke="url(#SVGID_44_)" stroke-width="0.75" stroke-miterlimit="10" x1="97.575" y1="184.742" x2="100.522" y2="189.737"/>
	
		<linearGradient id="SVGID_45_" gradientUnits="userSpaceOnUse" x1="139.251" y1="178.8516" x2="140.002" y2="178.8516" gradientTransform="matrix(0.8323 0.5544 -0.5544 0.8323 80.5161 -16.5488)">
		<stop  offset="0.0161" style="stop-color:#8DC63F;stop-opacity:0.5"/>
		<stop  offset="1" style="stop-color:#009444"/>
	</linearGradient>
	
		<line fill="none" stroke="url(#SVGID_45_)" stroke-width="0.75" stroke-miterlimit="10" x1="99.184" y1="207.297" x2="95.969" y2="212.121"/>
	
		<linearGradient id="SVGID_46_" gradientUnits="userSpaceOnUse" x1="116.2998" y1="138.1475" x2="117.0498" y2="138.1475" gradientTransform="matrix(0.9568 0.2908 -0.2908 0.9568 30.2207 -16.2383)">
		<stop  offset="0.0161" style="stop-color:#8DC63F;stop-opacity:0.5"/>
		<stop  offset="1" style="stop-color:#009444"/>
	</linearGradient>
	
		<line fill="none" stroke="url(#SVGID_46_)" stroke-width="0.75" stroke-miterlimit="10" x1="102.528" y1="147.092" x2="100.843" y2="152.64"/>
	
		<linearGradient id="SVGID_47_" gradientUnits="userSpaceOnUse" x1="108.9219" y1="171.7207" x2="109.6719" y2="171.7207" gradientTransform="matrix(0.8621 0.5067 -0.5067 0.8621 65.9834 -11.918)">
		<stop  offset="0.0161" style="stop-color:#8DC63F;stop-opacity:0.5"/>
		<stop  offset="1" style="stop-color:#009444"/>
	</linearGradient>
	
		<line fill="none" stroke="url(#SVGID_47_)" stroke-width="0.75" stroke-miterlimit="10" x1="74.673" y1="189.007" x2="71.736" y2="194.006"/>
	
		<linearGradient id="SVGID_48_" gradientUnits="userSpaceOnUse" x1="52.958" y1="120.5117" x2="53.709" y2="120.5117" gradientTransform="matrix(0.9331 -0.3597 0.3597 0.9331 -24.0264 24.1016)">
		<stop  offset="0.0161" style="stop-color:#8DC63F;stop-opacity:0.5"/>
		<stop  offset="1" style="stop-color:#009444"/>
	</linearGradient>
	
		<line fill="none" stroke="url(#SVGID_48_)" stroke-width="0.75" stroke-miterlimit="10" x1="68.044" y1="114.655" x2="70.13" y2="120.065"/>
</g>
</svg>
