<?xml version="1.0" encoding="utf-8"?>
<!-- Generator: Adobe Illustrator 16.0.0, SVG Export Plug-In . SVG Version: 6.00 Build 0)  -->
<!DOCTYPE svg PUBLIC "-//W3C//DTD SVG 1.1//EN" "http://www.w3.org/Graphics/SVG/1.1/DTD/svg11.dtd">
<svg version="1.1" xmlns="http://www.w3.org/2000/svg" xmlns:xlink="http://www.w3.org/1999/xlink" x="0px" y="0px"
	  viewBox="0 0 195 293" enable-background="new 0 0 195 293" xml:space="preserve">
<g id="bg">
	<rect fill-rule="evenodd" clip-rule="evenodd" fill="#FFE600" width="195" height="293"/>
</g>
<g id="escorpion">
	<g id="pwSMsq_1_">
		<g>
			<path fill-rule="evenodd" clip-rule="evenodd" fill="#1E1E1E" d="M69.937,264.787c-9.688-2.153-19.57-3.695-28.978-6.719
				c-4.667-1.5-8.458-5.726-12.645-8.717c4.135-0.196,8.271-0.393,12.407-0.589c2.437,0.349,5.029,0.278,7.282,1.119
				c8.85,3.308,17.575,3.923,26.257,0.259c-5.965-1.235-11.888-2.461-17.812-3.688c0.052-0.518,0.104-1.036,0.156-1.556
				c5.221-2.145,10.442-4.287,15.664-6.433c2.764-0.785,5.543-1.518,8.288-2.366c4.178-1.289,8.646-2.556,12.433,0.08
				c6.678,4.643,12.633,0.831,19.5-0.045c-1.305-2.221-2.104-3.699-3.022-5.103c-0.739-1.134-1.412-2.511-2.488-3.17
				c-1.363-0.836-3.44-1.892-4.634-1.413c-14.384,5.75-27.928,0.413-41.632-2.84c-0.185-0.043-0.285-0.449-0.531-0.868
				c3.166-2.705,3.596-5.594,0.602-8.946c-3.708-4.149-2.362-7.883,1.474-11.166c1.636-1.124,3.274-2.249,5.143-3.531
				c-1.174-1.602-2.101-2.867-3.528-4.812c2.897,0,5.197,0.176,7.46-0.033c5.761-0.533,11.511-1.198,17.25-1.928
				c0.677-0.085,1.681-0.797,1.827-1.391c1.316-5.397,2.476-10.833,3.846-16.998c-3.943,1.017-6.505,1.377-8.81,2.349
				c-2.659,1.122-5.214,2.604-7.591,4.25c-3.496,2.424-6.483,5.83-10.267,7.526c-3.901,1.751-8.494,1.956-12.784,2.837
				c-5.253,0.46-10.505,0.92-15.759,1.38c-0.175-0.35-0.35-0.7-0.525-1.05c4.572-3.683,9.145-7.364,14.186-11.426
				c-10.349,0.739-17.857,5.318-23.485,13.274c-5.447,2.604-10.896,5.205-16.802,8.026c2.096-8.089,7.308-13.548,12.165-19.229
				c4.112-3.345,8.225-6.688,12.337-10.032c3.596-2.062,7.191-4.123,10.788-6.185c5.51-1.522,10.952-3.436,16.555-4.446
				c4.63-0.836,8.94,0.479,12.388,4.273c1.181,1.3,3.491,2.274,5.254,2.228c8.3-0.227,16.368,0.32,23.688,4.061
				c-5.439,4.115-0.229,8.915-2.661,14.031c7.127-5.558,10.302-10.768,12.52-18.518c0.646-2.255,2.153-4.263,3.307-6.462
				c-3.791-2.126-5.119-11.562-1.609-17.216c-6.28,0.14-11.325-6.167-11.588-14.813c-1.423,1.049-2.691,1.983-3.507,2.584
				c-4.772-4.147-9.11-8.185-13.732-11.865c-6.305-5.023-11.574-10.793-14.9-18.114c1.448-0.999,2.769-1.908,4.387-3.025
				c-2.835-0.843-5.126-1.523-7.062-2.098c-0.736-3.26-1.367-6.053-1.998-8.846c0.81-3.248-3.419-8.152,3.545-9.311
				c-5.074-4.953-3.047-10.069-1.236-15.173c1.005-1.921,2.01-3.842,3.146-6.013c1.288,0.652,2.375,1.204,3.705,1.878
				c-1.698-8.774,2.213-14.284,14.239-20.621c0.947,1.408,1.892,2.816,3.031,4.512c2.583-9.283,12.316-13.589,24.2-11.178
				c-0.003,1.692-0.003,3.39-0.003,5.911c4.609-5.983,9.82-6.018,15.342-3.238c4.516,2.274,8.649,5.768,13.399,7.004
				c6.751,1.759,10.724,5.815,13.688,11.555c0.527,7.555,0.05,14.852-5.331,20.9c-6.646,4.626-13.166,9.95-21.688,3.787
				c1.841-0.968,3.734-1.964,5.629-2.961c3.887-3.74,3.796-6.596-0.356-9.629c-1.869-1.365-3.791-2.653-5.689-3.977
				c-0.776-3.361-1.555-6.722-2.448-10.592c-11.352-5.227-22.724-4.965-33.588,2.747c-6.215,4.09-10.312,9.742-12.433,16.853
				c-0.341,5.495-0.682,10.99-1.022,16.485c1.702,9.549,6.904,16.768,14.983,21.889c1.562,0.992,3.752,0.972,5.634,1.491
				c3.797,1.048,8.112,1.323,11.277,3.366c13.231,8.543,22.272,20.462,26.679,35.945c-0.935,0.233-1.838,0.458-2.791,0.695
				c7.767,6.086,4.276,14.438,5.187,22.418c-1.898-0.46-3.157-0.766-4.414-1.069c-0.585,0.037-1.171,0.072-1.755,0.109
				c0.522,0.386,1.044,0.77,1.566,1.155c3.559,3.172,4.167,6.881,2.348,11.253c-1.017,2.446-1.596,5.076-2.372,7.624
				c-3.386,5.413-4.839-1.871-7.507-1.114c2.485,11.992,2.328,12.58-4.738,18.799c-1.941-3.208-3.933-6.501-6.36-10.514
				c-0.758,1.551-0.92,1.721-0.893,1.851c0.104,0.496,0.292,0.971,0.409,1.464c1.603,6.724,1.897,13.025-4.884,17.503
				c-0.549,0.363-0.006,2.38,0.031,3.631c1.704,3.841,3.406,7.683,5.556,12.533c-3.531,2.734-7.838,6.067-12.144,9.4
				c-1.858,0.806-3.801,1.462-5.543,2.466c-1.28,0.738-2.649,1.731-3.36,2.967c-1.475,2.562-2.538,5.361-3.771,8.062
				C89.494,264.082,79.754,264.605,69.937,264.787z M153.607,54.78l0.042,0.044c-0.519-0.695-1.038-1.391-1.556-2.087
				c-0.202-0.141-0.302-0.334-0.298-0.581c-2.144-0.914-4.23-2.17-6.466-2.555c-0.77-0.133-2.923,2.265-2.701,2.887
				c0.714,2.007,2.096,3.843,3.484,5.528c2.268,2.75,4.743,5.328,7.119,7.965c1.224-2.471,3.903-5.693,1.1-9.901l0.104-0.013
				C154.16,55.638,153.884,55.209,153.607,54.78z M115.85,134.37l-0.026-0.03c1.756,3.171,3.511,6.343,5.268,9.514
				c0.47-0.358,0.938-0.717,1.406-1.076c0.724-0.783,2.186-1.732,2.054-2.323c-1.105-4.931-11.908-14.218-18.383-15.323
				c2.731,2.528,4.778,4.423,6.827,6.319C113.945,132.424,114.897,133.396,115.85,134.37z M127.323,158.861
				c3.737,0.455,3.583-2.355,2.733-4.193c-1.285-2.777,0.757-8.298-5.458-7.534c-1.488,1.946-0.499,10.978,1.428,12.362
				C126.211,159.63,126.88,159.09,127.323,158.861z M83.581,252.748l0.092,0.073c-5.038,1.709-10.075,3.417-15.111,5.126
				c0.14,0.561,0.28,1.123,0.42,1.685c6.699-1.382,13.633-2.095,20.031-4.336c6.269-2.197,7.047-6.676,3.145-11.279
				c-0.399-0.456-0.799-0.913-0.816-0.933c-1.931,2.476-3.872,4.968-5.813,7.459C84.879,251.277,84.23,252.013,83.581,252.748z
				 M59.892,168.882l0.041-0.034c-5.177-0.009-9.699,1.604-14.466,5.058c5.424,0,9.792-0.484,13.995,0.139
				c4.22,0.624,8.277,2.355,12.558,3.647c-0.007,0.056,0.089-0.746,0.185-1.547c0.751-6.946-1.658-8.773-10.634-8.067
				C61.011,168.346,60.451,168.613,59.892,168.882z M124.506,179.82c-6.128-1.843-4.794,5.144-8.858,6.763
				c1.894,0.787,3.063,1.275,4.234,1.765c1.003,1.247,2.007,2.495,3.064,3.811C128.382,184.849,128.552,183.32,124.506,179.82z
				 M102.567,202.919c0.6,2.678,1.199,5.355,1.966,8.775c3.116-2.422,5.948-4.477,8.611-6.731c3.398-2.879,3.354-5.947,0.09-8.971
				c-1.758-0.511-3.825-1.871-5.207-1.363c-3.172,1.163-6.012,3.237-9.215,5.072C100.275,200.954,101.42,201.936,102.567,202.919z
				 M91.854,207.342c-3.169-5.342-13.946-6.089-18.921-1.312c-4.793,3.317-4.84,5.053-0.854,8.922
				c3.815,3.703,8.397,3.028,12.887,2.688C91.611,217.137,93.557,214.073,91.854,207.342z M123.829,172.871
				c1.759,0.746,3.649,1.547,5.607,2.378c2.621-8.858,2.368-9.821-3.165-11.264C125.488,166.834,124.712,169.661,123.829,172.871z"
				/>
			<path fill-rule="evenodd" clip-rule="evenodd" fill="#911F2F" d="M91.854,207.342c1.704,6.731-0.243,9.795-6.889,10.297
				c-4.489,0.341-9.072,1.016-12.887-2.688c-3.986-3.869-3.938-5.604,0.851-8.915c-0.316,1.168-0.629,2.328-1.25,4.637
				C79.045,209.456,85.45,208.4,91.854,207.342z"/>
			<path fill-rule="evenodd" clip-rule="evenodd" fill="#911F2F" d="M113.234,195.992c3.264,3.023,3.309,6.092-0.09,8.971
				c-2.663,2.255-5.495,4.31-8.611,6.731c-0.767-3.42-1.366-6.098-1.965-8.775C106.124,200.61,109.678,198.301,113.234,195.992z"/>
			<path fill-rule="evenodd" clip-rule="evenodd" fill="#FFFFFF" d="M91.854,207.342c-6.404,1.059-12.809,2.114-20.176,3.331
				c0.622-2.309,0.934-3.469,1.25-4.637C77.908,201.253,88.685,202,91.854,207.342z"/>
			<path fill-rule="evenodd" clip-rule="evenodd" fill="#911F2F" d="M72.204,176.145c-0.096,0.801-0.192,1.603-0.185,1.547
				c-4.281-1.292-8.338-3.023-12.558-3.647c-4.203-0.623-8.571-0.139-13.995-0.139c4.767-3.454,9.289-5.066,14.466-5.058
				c0.183,0.661,0.47,1.912,0.531,1.9C65.65,169.821,69.231,172.307,72.204,176.145z"/>
			<path fill-rule="evenodd" clip-rule="evenodd" fill="#911F2F" d="M154.332,56.081c2.804,4.208,0.124,7.431-1.1,9.901
				c-2.376-2.637-4.852-5.215-7.119-7.965c-1.389-1.685-2.771-3.521-3.484-5.528c-0.222-0.622,1.932-3.02,2.701-2.887
				c2.235,0.385,4.322,1.641,6.464,2.55c-1.467,0.218-2.93,0.441-4.395,0.665c0.396,1.124,0.552,3.009,1.232,3.224
				C150.413,56.601,152.485,59.851,154.332,56.081z"/>
			<path fill-rule="evenodd" clip-rule="evenodd" fill="#911F2F" d="M92.158,244.017c3.902,4.604,3.124,9.082-3.145,11.279
				c-6.397,2.241-13.332,2.954-20.031,4.336c-0.14-0.562-0.28-1.124-0.42-1.685c5.036-1.709,10.073-3.417,15.11-5.125
				c0.581,0.52,1.299,1.579,1.726,1.473C90.167,253.102,92.531,249.401,92.158,244.017z"/>
			<path fill-rule="evenodd" clip-rule="evenodd" fill="#911F2F" d="M112.995,131.451c-2.049-1.896-4.096-3.792-6.827-6.319
				c6.475,1.105,17.277,10.393,18.383,15.323c0.132,0.591-1.33,1.54-2.054,2.32c-2.225-2.813-4.449-5.624-6.674-8.435l0.026,0.03
				C114.897,133.396,113.945,132.424,112.995,131.451z"/>
			<path fill-rule="evenodd" clip-rule="evenodd" fill="#FFFFFF" d="M113.234,195.992c-3.557,2.309-7.11,4.618-10.666,6.927
				c-1.148-0.983-2.293-1.965-3.756-3.218c3.203-1.835,6.043-3.909,9.215-5.072C109.409,194.121,111.477,195.481,113.234,195.992z"
				/>
			<path fill-rule="evenodd" clip-rule="evenodd" fill="#911F2F" d="M123.829,172.871c0.883-3.21,1.659-6.037,2.442-8.886
				c5.533,1.442,5.786,2.405,3.165,11.264C127.479,174.418,125.588,173.617,123.829,172.871z"/>
			<path fill-rule="evenodd" clip-rule="evenodd" fill="#911F2F" d="M124.506,179.82c4.046,3.5,3.876,5.028-1.56,12.338
				c-1.058-1.315-2.062-2.563-3.063-3.811C121.425,185.505,122.966,182.663,124.506,179.82z"/>
			<path fill-rule="evenodd" clip-rule="evenodd" fill="#FFFFFF" d="M72.204,176.145c-2.973-3.838-6.554-6.323-11.741-5.396
				c-0.061,0.012-0.349-1.239-0.531-1.9l-0.041,0.034c0.559-0.269,1.119-0.536,1.678-0.805
				C70.546,167.371,72.955,169.198,72.204,176.145z"/>
			<path fill-rule="evenodd" clip-rule="evenodd" fill="#D2D2D2" d="M92.158,244.017c0.373,5.385-1.991,9.085-6.76,10.278
				c-0.427,0.106-1.145-0.953-1.726-1.473c0-0.001-0.092-0.074-0.09-0.074c0.65-0.735,1.297-1.471,1.946-2.205
				c1.942-2.491,3.882-4.983,5.813-7.459C91.359,243.104,91.759,243.561,92.158,244.017z"/>
			<path fill-rule="evenodd" clip-rule="evenodd" fill="#911F2F" d="M124.599,147.134c6.215-0.764,4.173,4.757,5.458,7.534
				c0.85,1.838,1.004,4.648-2.731,4.192C126.416,154.951,125.507,151.042,124.599,147.134z"/>
			<path fill-rule="evenodd" clip-rule="evenodd" fill="#FFFFFF" d="M124.506,179.82c-1.54,2.843-3.081,5.685-4.623,8.527
				c-1.172-0.489-2.342-0.978-4.235-1.765C119.712,184.964,118.378,177.978,124.506,179.82z"/>
			<path fill-rule="evenodd" clip-rule="evenodd" fill="#FFFFFF" d="M154.332,56.081c-1.847,3.77-3.919,0.52-5.7-0.042
				c-0.681-0.215-0.837-2.1-1.232-3.224c1.465-0.223,2.928-0.446,4.395-0.665c-0.002,0.251,0.098,0.445,0.3,0.586
				c0.518,0.696,1.037,1.392,1.556,2.087l-0.042-0.044c0.276,0.43,0.555,0.858,0.829,1.288L154.332,56.081z"/>
			<path fill-rule="evenodd" clip-rule="evenodd" fill="#FFFFFF" d="M124.599,147.134c0.908,3.908,1.817,7.817,2.727,11.727
				c-0.445,0.229-1.114,0.77-1.299,0.636C124.1,158.111,123.11,149.08,124.599,147.134z"/>
			<path fill-rule="evenodd" clip-rule="evenodd" fill="#FFFFFF" d="M115.823,134.34c2.225,2.811,4.449,5.622,6.674,8.435
				c-0.469,0.362-0.937,0.721-1.406,1.079C119.334,140.683,117.579,137.511,115.823,134.34z"/>
			<path fill-rule="evenodd" clip-rule="evenodd" fill="#D8D8D8" d="M112.995,131.451c0.95,0.973,1.902,1.945,2.854,2.919
				C114.897,133.396,113.945,132.424,112.995,131.451z"/>
			<path fill-rule="evenodd" clip-rule="evenodd" fill="#911F2F" d="M85.529,250.543c-0.649,0.734-1.296,1.47-1.946,2.205
				C84.23,252.013,84.879,251.277,85.529,250.543z"/>
			<path fill-rule="evenodd" clip-rule="evenodd" fill="#911F2F" d="M153.649,54.824c-0.519-0.695-1.038-1.391-1.556-2.087
				C152.611,53.433,153.131,54.128,153.649,54.824z"/>
			<path fill-rule="evenodd" clip-rule="evenodd" fill="#911F2F" d="M154.437,56.067c-0.274-0.43-0.553-0.858-0.829-1.288
				C153.884,55.209,154.16,55.638,154.437,56.067z"/>
			<path fill-rule="evenodd" clip-rule="evenodd" fill="#911F2F" d="M61.57,168.077c-0.559,0.269-1.119,0.536-1.678,0.805
				C60.451,168.613,61.011,168.346,61.57,168.077z"/>
			<path fill-rule="evenodd" clip-rule="evenodd" fill="#1E1E1E" d="M59.646,74.867c-0.158,1.487-0.316,2.973-0.473,4.46
				c0.141,1.585,0.283,3.17,0.423,4.754c0.439,2.799,0.879,5.599,1.318,8.398c0.415,1.672,0.83,3.344,1.245,5.018
				c0.269,0.707,0.537,1.414,0.805,2.12c0.723,2.202,1.445,4.403,2.423,7.386c-1.507-0.999-2.469-1.637-3.432-2.274
				c-3.329-5.788-6.658-11.574-9.986-17.361c-0.486-7.048-0.972-14.097-1.458-21.145c1.86-5.232,3.787-10.441,5.525-15.713
				c0.355-1.076,0.007-2.383-0.018-3.583c1.566-0.993,3.503-1.675,4.638-3.03c7.295-8.707,16.036-14.69,27.696-15.561
				c-1.225,1.064-2.378,2.228-3.687,3.179c-11.003,7.998-19.212,17.996-22.677,31.427c-1.252,3.389-2.506,6.778-3.759,10.166
				C58.702,73.695,59.173,74.281,59.646,74.867z"/>
			<path fill-rule="evenodd" clip-rule="evenodd" fill="#1E1E1E" d="M137.338,215.877c-1.084-0.262-2.169-0.522-2.354-0.566
				c3.684-7.021,7.297-13.906,10.91-20.791c0.242-0.653,0.485-1.308,0.729-1.961c1.027-2.1,2.056-4.2,3.084-6.302
				c4.466-12.835,3.541-25.722-0.19-39.991c6.678,5.594,7.84,12.664,10.586,18.824c0.349,1.771,0.698,3.54,1.145,5.803
				c2.914-1.734,5.482-3.263,8.499-5.059c0.86,3.625,1.659,6.991,2.458,10.355c-0.373,0.256-0.748,0.51-1.122,0.766
				c-0.59-1.159-1.18-2.32-1.917-3.77c-3.074,2.123-5.52,3.811-7.964,5.499c0.283,0.511,0.568,1.019,0.854,1.528
				c2.233-0.779,4.47-1.559,7.562-2.638c0,7.02,0,13.472,0,19.923c-0.419,0.035-0.839,0.068-1.257,0.103
				c-0.835-3.415-1.668-6.831-2.747-11.248c-2.252,1.707-3.936,2.984-5.618,4.263c0.253,0.404,0.507,0.812,0.762,1.218
				c1.183-0.158,2.366-0.316,4.051-0.543c0,4.569,0,8.911,0,13.254c-1.404,4.149-2.807,8.297-4.21,12.445
				c-0.429-0.12-0.858-0.241-1.288-0.361c0.396-3.136,0.789-6.272,1.185-9.41c0.17-1.871,0.341-3.74,0.513-5.613
				c-0.422-0.225-0.843-0.451-1.266-0.68c-1.998,1.602-3.998,3.202-6.3,5.045c2.12,1.252,3.293,1.944,4.465,2.637
				c-1.851,5.407-3.702,10.815-5.552,16.224c-3.33,5.159-6.661,10.318-10.676,16.539c-0.127-2.346-0.178-3.287-0.229-4.228
				c1.507-6.564,3.014-13.131,4.672-20.362C142.909,216.448,140.124,216.163,137.338,215.877z"/>
			<path fill-rule="evenodd" clip-rule="evenodd" fill="#1E1E1E" d="M97.6,137.321c9.824,4.55,14.706,15.092,12.95,28.511
				c-2.225-0.827-4.365-1.622-6.891-2.56c2.172-9.641-1.861-17.88-5.982-26.098L97.6,137.321z"/>
			<path fill-rule="evenodd" clip-rule="evenodd" fill="#E0E0E0" d="M62.964,99.618c-0.269-0.707-0.537-1.414-0.805-2.12
				C62.428,98.204,62.696,98.911,62.964,99.618z"/>
			<path fill-rule="evenodd" clip-rule="evenodd" fill="#D8D8D8" d="M59.596,84.082c-0.141-1.584-0.282-3.169-0.423-4.754
				C59.313,80.912,59.455,82.497,59.596,84.082z"/>
			<path fill-rule="evenodd" clip-rule="evenodd" fill="#D8D8D8" d="M59.646,74.867c-0.473-0.586-0.944-1.172-1.416-1.758
				C58.702,73.695,59.173,74.281,59.646,74.867z"/>
		</g>
	</g>
</g>
</svg>
