<?xml version="1.0" encoding="utf-8"?>
<!-- Generator: Adobe Illustrator 16.0.0, SVG Export Plug-In . SVG Version: 6.00 Build 0)  -->
<!DOCTYPE svg PUBLIC "-//W3C//DTD SVG 1.1//EN" "http://www.w3.org/Graphics/SVG/1.1/DTD/svg11.dtd">
<svg version="1.1" id="Layer_1" xmlns="http://www.w3.org/2000/svg" xmlns:xlink="http://www.w3.org/1999/xlink" x="0px" y="0px"
	 viewBox="0 0 195 293" enable-background="new 0 0 195 293" xml:space="preserve">
<rect fill="#FBCCC5" width="195" height="293"/>
<g>
	<path fill-rule="evenodd" clip-rule="evenodd" fill="#8CBE40" d="M54.844,195.979c-1.981-16.246,11.242-29.21,27.741-27.03
		c2.95,0.39,5.408,0.367,8.808,2.442c0.933,0.928,2.304,1.45,3.445,3.378C81.09,182.06,67.968,189.019,54.844,195.979z"/>
	<path fill-rule="evenodd" clip-rule="evenodd" fill="#9BCA3D" d="M94.837,174.769c-13.747,7.291-26.869,14.25-39.993,21.21
		c8.657,6.433,18.172,6.691,27.586,2.67c9.442-4.033,12.291-12.976,13.485-22.237L94.837,174.769z"/>
	<g id="dVMqay.tif">
		<g>
			<path fill-rule="evenodd" clip-rule="evenodd" fill="#548A3E" d="M96.955,191.122c10.214-12.787,28.729-12.418,38.722,0.889
				c1.787,2.379,3.524,4.119,4.421,7.999c-0.008,1.316,0.578,2.66,0,4.826C125.268,200.121,111.111,195.622,96.955,191.122z"/>
			<path fill-rule="evenodd" clip-rule="evenodd" fill="#639F43" d="M139.68,206.754c-7.449,5.632-15.83,9.855-25.32,5.938
				c-9.461-3.908-15.938-10.884-17.404-21.569c14.156,4.5,28.312,8.999,43.143,13.714"/>
			<path fill-rule="evenodd" clip-rule="evenodd" fill="#E04340" d="M64.43,106.01c0.843-8.959,1.688-17.919,2.546-27.042
				c2.807,0,5.505,0,8.205,0.001c1.989,0.562,3.978,1.124,5.965,1.685c1.449,0.897,2.898,1.795,4.347,2.692
				c-1.654,1.585-3.541,2.989-4.916,4.787c-4.134,5.404-8.068,10.96-12.079,16.458l0.012-0.036
				C67.151,105.039,65.79,105.525,64.43,106.01z"/>
			<path fill-rule="evenodd" clip-rule="evenodd" fill="#CF2F2B" d="M85.493,83.346c-1.449-0.897-2.898-1.794-4.347-2.692
				c5.721-4.454,11.44-8.908,17.16-13.361c3.641-1.254,7.281-2.508,12.354-4.253c0,4.297,0,7.413,0,10.53
				C102.271,76.828,93.882,80.087,85.493,83.346z"/>
			<path fill-rule="evenodd" clip-rule="evenodd" fill="#EE625E" d="M98.306,67.292c-5.72,4.453-11.438,8.908-17.16,13.361
				c-1.987-0.562-3.976-1.123-5.965-1.685c0.186-3.718,0.373-7.436,0.658-13.083C83.441,66.361,90.873,66.827,98.306,67.292z"/>
			<path fill-rule="evenodd" clip-rule="evenodd" fill="#77923E" d="M91.143,173.472c-3.802-2.616-7.605-5.23-11.408-7.845
				c4.759,0.612,9.504,1.398,14.281,1.778c3.798,0.302,7.635,0.106,11.441,0.131c-1.983,1.111-3.954,2.222-5.927,3.332
				c-0.906,0.917-1.815,1.833-2.722,2.75C94.921,173.569,93.032,173.519,91.143,173.472z"/>
			<path fill-rule="evenodd" clip-rule="evenodd" fill="#F17874" d="M112.211,78.237c2.479-0.551,5.339,0.614,8.025,0.986
				c-0.562-8.624-5.185-6.478-9.577-5.654c-8.845,1.658-16.777,6.519-25.166,9.777c-1.654,1.585-2.246,0.965-5.578,4.644
				c-4.407,4.866-9.469,10.525-12.287,14.438c-1.265,1.757-2.012,3.159-3.198,3.583c-0.897,2.388-1.793,4.775-2.69,7.164
				c0.955,0.232,2.594,0.772,2.755,0.643c2.509-2.018,3.919-2.974,6.812-6.738L112.211,78.237z"/>
			<path fill-rule="evenodd" clip-rule="evenodd" fill="#EB5350" d="M120.747,94.844c0.002-0.537,0.006-1.074,0.01-1.612"/>
			<path fill-rule="evenodd" clip-rule="evenodd" fill="#46883F" d="M93.073,221.383c-0.08-11.198-0.658-22.392-0.736-33.589
				c0.086-4.725,0.171-9.452,0.258-14.176c0.907-0.917,1.816-1.833,2.722-2.75c0.952,2.932,2.576,5.832,2.722,8.803
				c0.386,7.88,0.131,15.791,0.131,24.305c1.816-0.476,3.044,0.684,3.401,0.59c-1.181,5.771-2.14,10.475-3.42,16.738
				c-0.364,0.005-0.355,8.657-0.355,8.657h-4.669C93.127,229.961,93.127,226.274,93.073,221.383z"/>
			<path fill-rule="evenodd" clip-rule="evenodd" fill="#EB5350" d="M70.805,161.169c7.161-0.053,14.385-1.083,21.533-1.396
				c8.022-0.353,13.956-2.521,19.583-8.427c4.442-4.66,6.797-9.493,6.621-16.098c-0.297-11.266,0.689-22.657,0.834-33.929
				c0.028-2.194,0.916-4.375,1.408-6.564c3.236,8.424,5.658,17.288,9.906,25.166c5.948,11.026,7.336,21.616,0.719,32.464
				c-6.83,11.2-17.093,16.124-30.164,15.151c-3.808-0.024-7.644,0.171-11.441-0.131c-4.777-0.38-5.31-1.166-10.069-1.778
				L70.805,161.169"/>
			<path fill-rule="evenodd" clip-rule="evenodd" fill="#EF615F" d="M64.495,113.816c-0.09,0.186-1.8-0.411-2.755-0.643
				c-1.417,7.089-3.703,14.137-4.046,21.279c-0.527,10.961,2.606,20.83,13.111,26.717c7.161-0.053,14.33,0.103,21.478-0.211
				c8.021-0.353,14.794-3.568,20.422-9.474c4.442-4.66,6.861-9.743,6.686-16.347c-0.297-11.266-0.158-22.547-0.014-33.819
				c0.028-2.194,0.916-4.375,1.408-6.564l-0.037,0.09c0.002-0.537,0.006-1.074,0.01-1.612c-0.175-4.67-0.349-9.34-0.522-14.009
				c-2.685-0.372-5.545-1.537-8.023-0.986c-15.01,3.333-30.005,9.197-38.498,21.839C69.098,106.947,64.495,113.816,64.495,113.816z"
				/>
		</g>
	</g>
</g>
</svg>
