<?xml version="1.0" encoding="utf-8"?>
<!-- Generator: Adobe Illustrator 16.0.0, SVG Export Plug-In . SVG Version: 6.00 Build 0)  -->
<!DOCTYPE svg PUBLIC "-//W3C//DTD SVG 1.1//EN" "http://www.w3.org/Graphics/SVG/1.1/DTD/svg11.dtd">
<svg version="1.1" id="Layer_1" xmlns="http://www.w3.org/2000/svg" xmlns:xlink="http://www.w3.org/1999/xlink" x="0px" y="0px"
	  viewBox="0 0 195 293" enable-background="new 0 0 195 293" xml:space="preserve">
<rect fill="#333333" width="195" height="293"/>
<g id="L0UlIb_1_">
	<g>
		<path fill-rule="evenodd" clip-rule="evenodd" fill="#DFE9F7" d="M97.223,58.067c7.117-0.299,13.941,1.154,20.358,4.067
			c16.305,7.401,26.392,19.95,29.68,37.58c2.056,11.019,0.512,21.751-5.14,31.505c-1.961,3.384-5.12,6.137-8.008,8.888
			c-1.175,1.119-1.553,2.098-1.751,3.62c-0.663,5.093-0.998,10.341-2.545,15.184c-2.897,9.073-9.586,14.613-18.731,17.025
			c-8.595,2.267-17.283,2.3-25.94,0.289c-12.232-2.842-19.261-10.752-21.555-22.883c-0.711-3.767-0.611-7.686-0.882-11.535
			c3.269,1.143,6.502,2.409,9.823,3.376c1.663,0.484,2.25,1.239,2.421,2.953c0.431,4.325,2.477,7.722,6.472,9.754
			c-0.071,2.439,0.584,3.119,3.254,3.127c8.586,0.023,17.173,0.009,25.76,0.008c0.304,0,0.7,0.103,0.895-0.048
			c0.817-0.635,1.574-1.348,2.354-2.032c-0.697-0.772-1.3-1.678-2.128-2.268c-0.475-0.337-1.312-0.206-1.988-0.213
			c-4.102-0.039-8.203-0.057-12.304-0.082c-0.048-5.594-0.097-11.188-0.145-16.781c0.665-1.763,0.85,0.052,0.978,0.206
			c1.382,1.664,3.311,2.192,5.029,1.244c1.779-0.983,2.634-2.771,1.773-4.41c-2.331-4.444-5.044-8.688-7.604-13.011
			c-0.007-2.352-0.018-4.704-0.021-7.057C97.258,97.072,97.241,77.57,97.223,58.067z M132.521,116.465
			c0.031-6.853-5.401-12.348-12.238-12.381c-6.747-0.033-12.396,5.595-12.366,12.319c0.03,6.696,5.491,12.167,12.193,12.215
			C127.015,128.668,132.49,123.306,132.521,116.465z"/>
		<path fill-rule="evenodd" clip-rule="evenodd" fill="#FFFFFF" d="M97.223,58.067c0.018,19.502,0.035,39.004,0.053,58.506
			c0.002,2.353,0.013,4.705,0.021,7.057c-2.158,3.811-4.315,7.62-6.473,11.431c-1.364,2.41-1.181,4.38,0.526,5.685
			c1.719,1.314,3.815,0.899,5.771-1.144c0.048,5.594,0.097,11.188,0.145,16.781c-4.075,0.025-8.156-0.057-12.223,0.141
			c-1.225,0.059-2.414,0.89-3.619,1.367c-3.995-2.032-6.041-5.429-6.472-9.754c-0.171-1.714-0.758-2.468-2.421-2.953
			c-3.321-0.967-6.555-2.233-9.823-3.376c-2.383-2.205-4.959-4.238-7.11-6.65c-4.821-5.408-6.932-12.133-7.955-19.084
			c-2.459-16.717,2.294-31.313,14.158-43.331c9.429-9.552,21.138-14.249,34.524-14.797C96.623,57.934,96.924,58.024,97.223,58.067z
			 M86.772,116.377c-0.006-6.659-5.397-12.006-12.076-11.979c-6.647,0.027-12.098,5.511-12.014,12.087
			c0.083,6.537,5.448,11.837,12.01,11.867C81.381,128.382,86.779,123.031,86.772,116.377z"/>
		<path fill-rule="evenodd" clip-rule="evenodd" fill="#FEFFFF" d="M98.187,207.132c-10.16,3.628-20.322,7.252-30.48,10.887
			c-4.648,1.663-9.29,3.347-14.063,5.067c0.11,0.659,0.184,1.23,0.303,1.793c0.737,3.487-0.558,6.7-3.524,8.719
			c-2.656,1.807-6.397,1.796-9.042-0.027c-2.914-2.007-4.342-5.366-3.387-8.75c0.43-1.525,0.147-2.233-1.137-3.126
			c-2.818-1.958-3.939-5.333-3.122-8.43c0.907-3.439,3.381-5.678,6.829-6.179c3.385-0.492,6.517,1.008,8.302,3.992
			c0.384,0.642,0.72,1.312,1.185,2.162c10.549-3.805,21.022-7.583,31.953-11.525c-0.813-0.45-1.201-0.737-1.637-0.896
			c-9.504-3.441-19.018-6.86-28.521-10.309c-1.246-0.452-2.095-0.684-2.878,0.921c-1.637,3.352-5.137,5.125-8.408,4.637
			c-3.474-0.517-6.119-2.926-6.987-6.36c-0.848-3.356,0.527-6.611,3.739-8.848c0.307-0.214,0.619-0.419,1.047-0.708
			c-1.62-4.269-0.898-8.008,2.961-10.651c2.817-1.929,5.919-1.903,8.824-0.103c3.989,2.475,4.387,6.247,3.303,10.543
			c5.718,2.08,11.346,4.136,16.979,6.175c8.505,3.08,17.003,6.179,25.535,9.181c0.997,0.351,2.311,0.487,3.272,0.146
			c13.753-4.879,27.472-9.856,41.196-14.817c0.349-0.126,0.666-0.34,1.14-0.587c-1.134-4.499-0.683-8.547,3.929-10.902
			c3.032-1.548,6.137-1.313,8.789,0.838c3.284,2.665,3.991,6.136,2.293,10.174c3.866,2.379,6.095,5.582,4.659,10.252
			c-1.071,3.486-3.651,5.47-7.229,5.699c-4.215,0.271-7.03-1.961-8.712-6.072c-10.425,3.753-20.769,7.477-31.113,11.201
			C108.85,203.196,103.518,205.164,98.187,207.132z"/>
		<path fill-rule="evenodd" clip-rule="evenodd" fill="#FEFEFF" d="M124.316,205.982c6.241,2.129,12.483,4.258,18.725,6.387
			c0.635,0.217,1.269,0.437,2.029,0.699c1.603-3.543,3.966-5.987,8.104-5.975c3.651,0.012,6.752,2.14,7.871,5.459
			c1.141,3.383,0.139,7.006-2.836,9.116c-1.337,0.948-1.607,1.706-1.217,3.316c0.861,3.549-0.579,6.857-3.536,8.696
			c-2.995,1.863-6.098,1.846-9.005-0.143c-3.058-2.091-4.297-5.066-3.363-8.711c0.405-1.582-0.238-2.125-1.577-2.603
			c-9.797-3.492-19.574-7.039-29.358-10.569c0.69-0.4,1.342-0.906,2.079-1.186C116.248,208.943,120.286,207.473,124.316,205.982z"/>
		<path fill-rule="evenodd" clip-rule="evenodd" fill="#B4CDEB" d="M124.316,205.982c-4.03,1.49-8.068,2.961-12.085,4.488
			c-0.737,0.279-1.389,0.785-2.079,1.186c-3.988-1.508-7.978-3.017-11.966-4.524c5.331-1.968,10.663-3.936,15.995-5.903
			c1.039,0.619,2.03,1.344,3.126,1.836C119.614,204.102,121.977,205.017,124.316,205.982z"/>
		<path fill-rule="evenodd" clip-rule="evenodd" fill="#333333" d="M132.521,116.465c-0.03,6.841-5.506,12.203-12.411,12.153
			c-6.702-0.048-12.163-5.519-12.193-12.215c-0.03-6.725,5.619-12.353,12.366-12.319
			C127.119,104.117,132.552,109.613,132.521,116.465z"/>
		<path fill-rule="evenodd" clip-rule="evenodd" fill="#333333" d="M97.121,139.602c-1.956,2.043-4.051,2.458-5.771,1.144
			c-1.707-1.304-1.89-3.274-0.526-5.685c2.157-3.811,4.315-7.62,6.473-11.431c2.561,4.323,5.273,8.567,7.604,13.011
			c0.86,1.64,0.006,3.427-1.773,4.41c-1.719,0.948-3.647,0.42-5.029-1.244C97.971,139.654,97.786,137.838,97.121,139.602z"/>
		<path fill-rule="evenodd" clip-rule="evenodd" fill="#333333" d="M81.424,157.891c1.205-0.478,2.394-1.309,3.619-1.367
			c4.067-0.197,8.148-0.115,12.223-0.141c4.101,0.025,8.203,0.043,12.304,0.082c0.676,0.007,1.514-0.124,1.988,0.213
			c0.828,0.59,1.431,1.495,2.128,2.268c-0.779,0.685-1.536,1.397-2.354,2.032c-0.194,0.15-0.591,0.048-0.895,0.048
			c-8.587,0.001-17.173,0.016-25.76-0.008C82.009,161.01,81.353,160.33,81.424,157.891z"/>
		<path fill-rule="evenodd" clip-rule="evenodd" fill="#333333" d="M86.772,116.377c0.006,6.654-5.392,12.005-12.079,11.975
			c-6.562-0.03-11.927-5.33-12.01-11.867c-0.084-6.576,5.366-12.06,12.014-12.087C81.375,104.371,86.766,109.718,86.772,116.377z"/>
	</g>
</g>
</svg>
