<?xml version="1.0" encoding="utf-8"?>
<!-- Generator: Adobe Illustrator 16.0.0, SVG Export Plug-In . SVG Version: 6.00 Build 0)  -->
<!DOCTYPE svg PUBLIC "-//W3C//DTD SVG 1.1//EN" "http://www.w3.org/Graphics/SVG/1.1/DTD/svg11.dtd">
<svg version="1.1" id="Layer_1" xmlns="http://www.w3.org/2000/svg" xmlns:xlink="http://www.w3.org/1999/xlink" x="0px" y="0px"
	 viewBox="0 0 195 293" enable-background="new 0 0 195 293" xml:space="preserve">
<rect fill="#EF3B39" width="195" height="293"/>
<g>
	
		<circle fill-rule="evenodd" clip-rule="evenodd" fill="none" stroke="#333333" stroke-width="3" stroke-miterlimit="10" cx="99.396" cy="95.695" r="11.605"/>
	<g id="qayP4G.tif">
		<g>
			<path fill-rule="evenodd" clip-rule="evenodd" fill="#F4B51C" d="M109.869,98.361c4.766,7.778,9.471,15.462,8.279,25.328
				c-0.611,5.048-0.527,10.271-0.035,15.345c2.143,22.074,5.742,43.709,21.098,61.258c-8.254,0.48-16.502,1.043-24.76,1.403
				c-4.582,0.197-3.699-3.377-5.857,1.547c-2.699,7.422-11.093,7.827-14.574-0.405c-0.137-2.938-7.958-1.263-10.795-1.585
				c-7.155-0.812-14.622-0.088-21.838-0.37c3.318-5.142,8.253-9.892,9.634-15.512c3.562-14.5,6.097-29.312,8.012-44.134
				c2.008-15.538,4.547-30.375,20.983-39.926c-9.355,0.3-15.938,3.399-20.598,9.567c-7.977,10.561-9.091,23.19-10.021,35.894
				c-1.54,21.025-7.134,40.249-25.668,53.139c-3.079-0.218-6.158-0.434-9.236-0.65c-0.713-1.067-1.426-2.137-2.14-3.204
				c2.335-1.257,4.755-2.379,6.993-3.791c15.083-9.524,19.619-24.789,22.03-41.09c0.86-5.812,1.303-11.696,1.673-17.566
				c1.341-21.264,8.823-34,35.861-37.343C100.793,96.11,105.604,97.147,109.869,98.361z"/>
			<path fill-rule="evenodd" clip-rule="evenodd" fill="#F39D1F" d="M139.211,200.292c-15.355-17.549-18.955-39.185-21.098-61.258
				c-0.492-5.074-0.576-10.297,0.035-15.345c1.191-9.866-3.514-17.549-8.279-25.328c11.68,2.036,18.416,8.81,21.07,19.202
				c2.559,10.008,3.244,20.516,4.506,30.833c2.256,18.44,7.631,35.123,24.434,45.794c1.248,0.793,2.049,2.292,2.768,6.103
				C154.836,200.292,147.021,200.292,139.211,200.292z"/>
			<path fill-rule="evenodd" clip-rule="evenodd" fill="#FDCF56" d="M43.729,199.91c18.535-12.89,24.129-32.113,25.668-53.139
				c0.929-12.703,2.044-25.333,10.021-35.894c4.659-6.168,11.243-9.268,20.598-9.567c-16.436,9.551-18.975,24.388-20.983,39.926
				c-1.915,14.822-4.45,29.634-8.012,44.134c-1.381,5.62-6.316,10.37-9.634,15.512C55.502,200.555,49.616,200.233,43.729,199.91z"/>
		</g>
	</g>
	<path fill-rule="evenodd" clip-rule="evenodd" fill="none" stroke="#CB9832" stroke-width="2" stroke-miterlimit="10" d="
		M32.353,196.056c0,0,0.83,2.869,2.95,3.247c13.783,2.455,79.887,2.358,127.344,0.989"/>
</g>
</svg>
