<?xml version="1.0" encoding="utf-8"?>
<!-- Generator: Adobe Illustrator 16.0.0, SVG Export Plug-In . SVG Version: 6.00 Build 0)  -->
<!DOCTYPE svg PUBLIC "-//W3C//DTD SVG 1.1//EN" "http://www.w3.org/Graphics/SVG/1.1/DTD/svg11.dtd">
<svg version="1.1" id="Layer_1" xmlns="http://www.w3.org/2000/svg" xmlns:xlink="http://www.w3.org/1999/xlink" x="0px" y="0px"
	 viewBox="0 0 195 293" enable-background="new 0 0 195 293" xml:space="preserve">
<rect fill="#99CCCC" width="195" height="293"/>
<g>
	<g id="_x32_alJcC_2_">
		<g>
			<path fill-rule="evenodd" clip-rule="evenodd" fill="#1C3665" d="M54.155,204.162c-10.542-13.017-16.299-30.587-15.894-49.146
				c0.091-4.182,0.399-8.355,0.608-12.535c5.121-16.518,14.877-29.249,27.326-39.811c0.592-0.503,1.163-1.627,1.086-2.383
				c-0.508-5.042-1.01-10.101-1.886-15.076c-0.713-4.056-5.47-8.261-11.041-12.68c22.832,0.659,53.779,1.324,77.176,2
				c-0.403,1.266-0.576,2.133-0.939,2.892c-1.094,2.278-0.269,3.592,1.842,3.654c8.285,0.243,14.123,5.164,19.395,11.464
				c4.751,5.675,5.119,12.586,4.874,19.605c-0.274,7.847-2.916,14.708-8.075,20.352c-0.474,0.516-0.786,1.794-0.536,2.419
				c7.09,17.811,6.329,35.426-0.939,52.919c-0.075,0.18-0.103,0.383-0.151,0.575c-4.199,6.913-8.899,13.337-15.156,18.317
				c-1.297,0.73-1.134,0.609-1.606,0.999c-9.073,7.499-19.462,10.745-30.657,12.229c-14.018,1.86-26.575-1.96-38.164-10.409
				C61.417,209.549,55.578,205.918,54.155,204.162z M140.929,118.995c0.744-2.277,1.634-4.062,1.889-5.949
				c1.382-10.257-5.379-18.8-14.923-18.861c-1.038-0.006-2.873,0.833-2.976,1.521c-0.358,2.377-1.042,5.73,0.072,7.146
				c3.611,4.585,7.953,8.492,12.042,12.624C138.152,116.604,139.381,117.604,140.929,118.995z"/>
		</g>
	</g>
	<g id="_x32_alJcC_1_">
		<g>
			<path fill-rule="evenodd" clip-rule="evenodd" fill="#046799" d="M97.5,220.192c-2.812,0.373-3.485,0.284-6.184,0.209
				c-10.753-0.301-20.635-4.098-29.899-10.853c0,0-5.839-3.631-7.261-5.387c-10.543-13.017-16.3-30.587-15.895-49.146
				c0.091-4.182,0.399-8.355,0.608-12.535c5.121-16.518,14.878-29.249,27.325-39.811c0.593-0.503,1.163-1.627,1.086-2.383
				c-0.508-5.042-1.008-10.101-1.885-15.076c-0.714-4.056-5.471-8.261-11.042-12.68c12.025,0.347,28.907,0.76,43.145,1.111"/>
		</g>
	</g>
</g>
</svg>
