<?xml version="1.0" encoding="utf-8"?>
<!-- Generator: Adobe Illustrator 16.0.0, SVG Export Plug-In . SVG Version: 6.00 Build 0)  -->
<!DOCTYPE svg PUBLIC "-//W3C//DTD SVG 1.1//EN" "http://www.w3.org/Graphics/SVG/1.1/DTD/svg11.dtd">
<svg version="1.1" id="Layer_1" xmlns="http://www.w3.org/2000/svg" xmlns:xlink="http://www.w3.org/1999/xlink" x="0px" y="0px"
	  viewBox="0 0 195 293" enable-background="new 0 0 195 293" xml:space="preserve">
<rect fill="#FDBE5E" width="195" height="293"/>
<g id="mSLmsP_1_">
	<g>
		<path fill-rule="evenodd" clip-rule="evenodd" fill="#6F0D2B" d="M134.608,120.448c-5.051-5.185-10.103-10.37-15.154-15.555
			c-0.307-0.374-0.555-0.825-0.929-1.109c-3.685-2.789-5.362-6.354-4.622-11.035c0.11-0.699-0.498-1.674-1.039-2.287
			c-3.197-3.621-6.472-7.174-10.289-10.744c0.759,0.088,1.688-0.072,2.25,0.309c2.487,1.685,4.867,3.53,7.294,5.306
			c0.534,0.391,1.103,0.735,2.154,1.432c-0.155-3.391,1.177-6.324-1.44-8.863c-1.648-1.599-3.07-3.432-4.678-5.255
			c0.388-0.428,0.741-0.818,1.185-1.308c1.625,1.43,3.169,2.788,5.295,4.659c0.522-5.059,0.979-9.496,1.451-14.062
			c1.598,0.586,2.146,1.536,2.114,3.162c-0.196,9.725-0.335,19.452-0.369,29.178c-0.003,1.027,0.571,2.245,1.259,3.05
			c1.72,2.016,3.658,3.846,5.597,5.841c5.941-5.19,6.2-12.928,10.003-19.283c0.124,0.836,0.492,1.724,0.331,2.5
			c-0.668,3.209-1.495,6.386-2.264,9.573c0,0,0.013,0.016,0.013,0.017c-0.09,0.312-0.18,0.625-0.271,0.937
			c-1.307,3.091-2.612,6.181-4.112,9.729c1.332,1.248,3.198,2.996,5.33,4.992c2.385-3.708,4.686-7.286,6.914-10.753
			c1.165,2.058,1.134,2.047,0.287,4.391c-1.107,3.062-2.161,6.144-3.237,9.217c-0.353,0.552-0.759,1.078-1.048,1.662
			C135.928,117.568,135.28,119.014,134.608,120.448z"/>
		<path fill-rule="evenodd" clip-rule="evenodd" fill="#C8514E" d="M134.608,120.448c0.672-1.435,1.319-2.88,2.023-4.299
			c0.289-0.584,0.695-1.109,1.048-1.662c0.192,0.075,0.434,0.101,0.574,0.234c4.02,3.791,9.108,5.208,14.254,6.609
			c6.185,1.683,12.311,3.584,18.794,5.49c-0.654,3.118-1.282,6.11-1.909,9.102c-0.319-0.116-0.631-0.297-0.959-0.337
			c-6.75-0.842-13.498-1.702-20.256-2.472c-1.439-0.164-2.916,0.01-4.374,0.028c0.126,2.229,0.191,4.464,0.393,6.687
			c0.683,7.567,1.184,15.161,2.225,22.681c0.495,3.58,2.051,7.014,3.125,10.514c-2.029,7.32-6.468,12.729-13.039,16.445
			c-1.217,0.549-2.435,1.1-3.653,1.65c1.359-3.135,2.74-6.26,4.059-9.412c0.252-0.602,0.501-1.383,0.332-1.959
			c-1.291-4.404-2.684-8.781-4.112-13.385c-0.264,0.447-0.451,0.664-0.529,0.912c-3.007,9.584-5.977,19.18-9.029,28.75
			c-0.4,1.254,0.234,1.59,1.084,2.043c4.559,2.43,9.083,4.928,13.67,7.303c1.338,0.695,1.693,1.357,1.267,2.91
			c-1.105,4.023-1.932,8.123-2.868,12.189c-0.348,0.119-0.853,0.443-1.018,0.32c-0.774-0.584-1.368-1.436-2.186-1.926
			c-1.558-0.936-1.496-1.934-0.758-3.439c1.299-2.652,2.341-5.432,3.555-8.311c-3.434-1.078-6.606-2.074-9.778-3.07
			c-3.652-1.266-7.305-2.531-10.957-3.795c-2.122-0.855-3.506-2.09-2.446-4.637c0.096-0.23,0-0.541-0.007-0.814
			c1.566-6.58,3.133-13.156,4.7-19.734c-0.21-0.137-0.42-0.273-0.63-0.41c-0.094,0.268-0.149,0.555-0.286,0.795
			c-3.628,6.426-7.263,12.846-10.896,19.266c-2.125,0.029-4.249,0.055-6.373,0.084c-4.178,0.025-8.354,0.051-12.531,0.076
			c-3.472-2.717-6.943-5.436-10.437-8.17c-1.195,2.059-2.156,3.818-3.217,5.518c-6.446,10.326-15.616,16.568-27.676,18.598
			c-1.209,0.203-2.553,1.117-3.325,2.1c-1.803,2.291-3.324,4.807-4.907,7.268c-1.573,2.443-3.081,4.93-4.618,7.398l0.007-0.027
			c-0.141,0.326-0.283,0.654-0.426,0.982c-0.496,0.668-0.992,1.334-1.489,2c-2.442-0.006-4.886-0.016-7.328-0.023
			c5.475-7.215,10.883-14.484,16.499-21.588c0.834-1.053,2.611-1.465,4.033-1.928c3.943-1.285,7.704-2.871,10.88-5.627
			c3.54-3.072,5.322-6.904,5.088-11.623c0.559-2.656,1.117-5.312,1.678-7.971c1.773-2.166,3.512-4.363,5.341-6.48
			c0.62-0.719,1.47-1.236,2.215-1.846c8.326-4.146,17.35-6.174,26.279-8.379c11.781-2.912,20.875-9.609,26.999-19.772
			c4.553-7.554,7.867-15.855,11.717-23.831C134.571,121.171,134.551,120.791,134.608,120.448z M153.806,126.247
			c-1.478-1.358-2.306-2.533-3.434-3.051c-1.376-0.631-2.999-0.871-4.528-0.931c-0.463-0.018-1.488,1.309-1.352,1.702
			c0.304,0.867,1.115,2.085,1.843,2.176C148.586,126.425,150.894,126.247,153.806,126.247z"/>
		<path fill-rule="evenodd" clip-rule="evenodd" fill="#E49998" d="M149.546,173.021c-1.074-3.5-2.63-6.934-3.125-10.514
			c-1.041-7.52-1.542-15.113-2.225-22.681c-0.201-2.222-0.267-4.458-0.393-6.688c1.402,1.517,2.805,3.035,4.207,4.552
			c1.042,9.037,3.34,17.951,2.877,27.129C150.749,167.568,150.01,170.287,149.546,173.021z"/>
		<path fill-rule="evenodd" clip-rule="evenodd" fill="#A93A45" d="M148.011,137.691c-1.402-1.517-2.805-3.035-4.207-4.552
			c1.458-0.017,2.935-0.191,4.374-0.027c6.758,0.77,13.506,1.629,20.256,2.472c0.328,0.041,0.64,0.222,0.959,0.337
			C162.265,136.512,155.138,137.102,148.011,137.691z"/>
		<path fill-rule="evenodd" clip-rule="evenodd" fill="#BDE5EB" d="M132.498,96.91c0.092-0.312,0.182-0.625,0.271-0.937
			C132.68,96.285,132.59,96.598,132.498,96.91z"/>
		<path fill-rule="evenodd" clip-rule="evenodd" fill="#8E1834" d="M69.432,173.453c-0.745,0.609-1.595,1.127-2.215,1.846
			c-1.829,2.117-3.567,4.314-5.341,6.48c-4.972-2.219-6.509-5.969-4.404-10.877c0.436,0.102,0.885,0.209,1.515,0.357
			c0.71-3.615,2.056-6.799,6.094-8.621C63.546,167.666,64.562,171.426,69.432,173.453z"/>
		<path fill-rule="evenodd" clip-rule="evenodd" fill="#7C2834" d="M82.665,230.912c-0.305-0.588-0.539-1.229-0.924-1.758
			c-4.36-6.008-8.744-11.996-13.122-17.992c5.054-4.023,10.162-7.982,15.127-12.115c1.347-1.121,2.257-2.768,3.368-4.174
			c4.177-0.025,8.354-0.051,12.531-0.076c-1.365,4.631-3.185,9-7.044,12.189c-3.985,2.041-7.971,4.08-12.086,6.189
			c1.554,2.602,3.338,5.586,5.122,8.572c1.762,3.045,3.522,6.09,5.283,9.135c-2.646,0.033-5.291,0.066-7.938,0.1l-0.186,0.082
			L82.665,230.912z"/>
		<path fill-rule="evenodd" clip-rule="evenodd" fill="#A93A45" d="M87.114,194.873c-1.111,1.406-2.021,3.053-3.368,4.174
			c-4.965,4.133-10.073,8.092-15.127,12.115c-7.113,2.904-14.696,3.535-22.184,4.654c-1.007,0.15-2.145,0.637-2.856,1.338
			c-3.075,3.035-6.002,6.217-9.016,9.311c-0.45,0.465-1.082,0.75-1.629,1.119c1.537-2.469,3.045-4.955,4.618-7.398
			c1.583-2.461,3.104-4.977,4.907-7.268c0.772-0.982,2.116-1.896,3.325-2.1c12.06-2.029,21.229-8.271,27.676-18.598
			c1.061-1.699,2.021-3.459,3.217-5.518C80.171,189.438,83.643,192.156,87.114,194.873z"/>
		<path fill-rule="evenodd" clip-rule="evenodd" fill="#E49998" d="M132.854,191.117c-0.531,1.055-1.062,2.109-1.675,3.328
			c4.929,3.66,9.786,7.268,14.807,10.994c-2.321,3.883-4.551,7.65-6.822,11.391c-0.757,1.246-1.622,2.428-2.438,3.639
			c0.937-4.066,1.763-8.166,2.868-12.189c0.427-1.553,0.071-2.215-1.267-2.91c-4.587-2.375-9.111-4.873-13.67-7.303
			c-0.85-0.453-1.484-0.789-1.084-2.043c3.053-9.57,6.022-19.166,9.029-28.75c0.078-0.248,0.266-0.465,0.529-0.912
			c1.429,4.604,2.821,8.98,4.112,13.385c0.169,0.576-0.08,1.357-0.332,1.959C135.594,184.857,134.213,187.982,132.854,191.117z"/>
		<path fill-rule="evenodd" clip-rule="evenodd" fill="#7D2934" d="M112.921,230.953c-2.228-0.051-4.455-0.102-6.682-0.154
			c0.884-3.043,1.768-6.086,2.652-9.131c0.315-1.057,0.631-2.113,0.947-3.172c0.284-0.889,0.567-1.775,0.851-2.664
			c0.504-1.553,1.008-3.105,1.511-4.658c0.088-0.338,0.176-0.676,0.265-1.014l0.04-0.004c1.026-3.303,2.053-6.607,3.079-9.908
			c3.652,1.264,7.305,2.529,10.957,3.795c-4.219,8.201-8.44,16.4-12.646,24.607C113.516,229.391,113.243,230.186,112.921,230.953z"
			/>
		<path fill-rule="evenodd" clip-rule="evenodd" fill="#A93A45" d="M113.131,194.797c-2.371-0.029-4.742-0.055-7.113-0.084
			c3.635-6.42,7.27-12.84,10.897-19.266c0.137-0.24,0.192-0.527,0.286-0.795c0.21,0.137,0.42,0.273,0.63,0.41
			C116.264,181.641,114.697,188.217,113.131,194.797z"/>
		<path fill-rule="evenodd" clip-rule="evenodd" fill="#E49998" d="M153.806,126.247c-2.912,0-5.22,0.179-7.471-0.103
			c-0.728-0.091-1.539-1.309-1.843-2.176c-0.137-0.394,0.889-1.72,1.352-1.702c1.529,0.06,3.152,0.299,4.528,0.931
			C151.5,123.714,152.328,124.888,153.806,126.247z M150.343,126.13c-0.371-2.42-1.834-3.592-3.565-3.138
			c-0.467,0.123-1.095,0.551-1.184,0.944c-0.088,0.388,0.319,1.208,0.675,1.319C147.539,125.656,148.881,125.837,150.343,126.13z"/>
		<path fill-rule="evenodd" clip-rule="evenodd" fill="#A93A45" d="M32.941,227.557c-0.141,0.326-0.283,0.654-0.426,0.982
			C32.658,228.211,32.801,227.883,32.941,227.557z"/>
		<path fill-rule="evenodd" clip-rule="evenodd" fill="#F9BA54" d="M112.463,210.158c-0.087,0.34-0.175,0.678-0.263,1.016"/>
		<path fill-rule="evenodd" clip-rule="evenodd" fill="#6F0D2B" d="M150.343,126.13c-1.462-0.292-2.804-0.474-4.074-0.874
			c-0.355-0.111-0.763-0.931-0.675-1.319c0.089-0.393,0.717-0.822,1.184-0.944C148.509,122.538,149.972,123.71,150.343,126.13z"/>
	</g>
</g>
</svg>
