<?xml version="1.0" encoding="utf-8"?>
<!-- Generator: Adobe Illustrator 16.0.0, SVG Export Plug-In . SVG Version: 6.00 Build 0)  -->
<!DOCTYPE svg PUBLIC "-//W3C//DTD SVG 1.1//EN" "http://www.w3.org/Graphics/SVG/1.1/DTD/svg11.dtd">
<svg version="1.1" id="Layer_1" xmlns="http://www.w3.org/2000/svg" xmlns:xlink="http://www.w3.org/1999/xlink" x="0px" y="0px"
	  viewBox="0 0 195 293" enable-background="new 0 0 195 293" xml:space="preserve">
<rect fill="#77D0E8" width="195" height="293"/>
<g>
	<polygon fill="#FEE900" points="50.366,194.758 73.933,183.908 89.271,190.361 97.027,212.338 106.363,189.769 119.813,184.287 
		143.888,194.383 133.979,169.96 140.205,154.729 163.713,147.617 140.205,138.271 133.094,123.887 144.635,100.114 
		120.879,111.629 107.039,105.619 97.027,80.662 88.523,104.439 74.087,111.042 50.366,99.74 62.257,122.021 54.81,138.551 
		31.287,146.501 54.545,155.295 60.965,171.351 	"/>
	<circle fill="#FEDA00" cx="97.028" cy="147.617" r="43.177"/>
	<path fill="#FFCC06" d="M97.027,190.791c23.846,0,43.178-19.332,43.178-43.176c0-23.845-19.332-43.177-43.178-43.177V190.791z"/>
</g>
</svg>
