<?xml version="1.0" encoding="utf-8"?>
<!-- Generator: Adobe Illustrator 16.0.0, SVG Export Plug-In . SVG Version: 6.00 Build 0)  -->
<!DOCTYPE svg PUBLIC "-//W3C//DTD SVG 1.1//EN" "http://www.w3.org/Graphics/SVG/1.1/DTD/svg11.dtd">
<svg version="1.1" id="Layer_1" xmlns="http://www.w3.org/2000/svg" xmlns:xlink="http://www.w3.org/1999/xlink" x="0px" y="0px"
	  viewBox="0 0 195 293" enable-background="new 0 0 195 293" xml:space="preserve">
<rect fill="#F79868" width="195" height="293"/>
<rect fill="#9595C9" width="195" height="293"/>
<g id="_x34_qozCn.tif">
	<g>
		<path fill-rule="evenodd" clip-rule="evenodd" fill="#FDBA14" d="M87.773,151.915c-2.042,3.069-4.085,6.14-6.127,9.209
			c0.005,0.158-0.049,0.359,0.026,0.468c2.599,3.752,5.21,7.495,7.82,11.239c2.605,3.877,5.211,7.754,7.817,11.631
			c0.102,0.743,0.288,1.485,0.292,2.229c0.029,4.551,0.017,9.104,0.018,13.655c-10.365,0.02-20.731,0.044-31.096,0.057
			c-6.715,0.009-13.43-0.021-20.144,0.024c-1.12,0.008-1.584-0.274-1.893-1.448c-6.956-26.44-13.971-52.867-20.968-79.296
			c-0.041-0.156-0.005-0.331-0.005-0.719c0.57,0.327,1.004,0.577,1.438,0.826c-1.452,0.215-0.513,0.803-0.163,1.218
			c2.117,2.514,4.278,4.99,6.382,7.515c7.475,8.967,14.928,17.953,22.4,26.922c0.945,1.135,1.959,2.21,3.072,3.46
			c2.263-4,4.362-7.669,6.421-11.361c1.511-2.71,2.97-5.45,4.451-8.177c6.082-9.556,12.158-19.118,18.249-28.669
			c3.662-5.742,7.343-11.472,11.029-17.198c0.224-0.348,0.565-0.619,0.852-0.926c-0.01,1.884-0.025,3.768-0.028,5.652
			c-0.016,13.189-0.03,26.379-0.043,39.568c-1.882,2.643-3.764,5.287-5.646,7.929"/>
		<path fill-rule="evenodd" clip-rule="evenodd" fill="#F39120" d="M97.572,137.794c0.014-13.189,0.028-26.379,0.044-39.568
			c0.003-1.884,0.019-3.769,0.028-5.652c0.453,0.593,0.952,1.158,1.354,1.785c9.288,14.505,18.564,29.019,27.853,43.524
			c0.342,0.534,0.78,1.008,1.173,1.509c0.186,0.542,0.268,1.149,0.57,1.615c2.057,3.145,4.145,6.271,6.254,9.381
			c1.627,2.399,3.301,4.767,5.041,7.273c3.284-3.949,6.442-7.72,9.57-11.515c5.854-7.101,11.707-14.205,17.526-21.334
			c1.437-1.759,2.744-3.623,4.111-5.438c0,0-0.032,0.062-0.031,0.062c0.131-0.092,0.263-0.184,0.394-0.275
			c-0.001,0.492,0.104,1.011-0.017,1.471c-5.562,21.074-11.142,42.143-16.724,63.211c-1.35,5.098-2.75,10.182-4.039,15.293
			c-0.256,1.019-0.663,1.316-1.66,1.288c-2.764-0.076-5.528-0.059-8.294-0.078c-4.981-7.235-9.954-14.478-14.949-21.702
			c-3.963-5.732-7.954-11.442-11.933-17.162c-0.007-0.102-0.028-0.199-0.063-0.294c-2.781-4.02-5.562-8.039-8.343-12.06
			c-1.635-2.47-3.236-4.963-4.919-7.402c-0.909-1.319-1.952-2.547-2.936-3.817L97.572,137.794z"/>
		<path fill-rule="evenodd" clip-rule="evenodd" fill="#E28726" d="M113.844,161.481c3.979,5.72,7.97,11.43,11.933,17.162
			c4.995,7.225,9.968,14.467,14.949,21.702c-14.368,0-28.736,0-43.105,0c-0.001-4.552,0.011-9.104-0.018-13.655
			c-0.005-0.743-0.19-1.485-0.292-2.229l0.153,0.011c0,0,0.153-0.002,0.153-0.001c0.19-0.125,0.444-0.207,0.562-0.381
			c2.539-3.74,5.062-7.491,7.588-11.239c0.459-0.595,0.942-1.171,1.374-1.784C109.381,167.876,111.61,164.677,113.844,161.481z"/>
		<path fill-rule="evenodd" clip-rule="evenodd" fill="#F58021" d="M67.516,139.366c-1.481,2.727-2.94,5.466-4.451,8.177
			c-2.059,3.692-4.158,7.361-6.421,11.361c-1.113-1.25-2.127-2.325-3.072-3.46c-7.473-8.969-14.926-17.955-22.4-26.922
			c-2.104-2.524-4.266-5-6.382-7.515c-0.35-0.415-1.29-1.003,0.163-1.218c8.02,3.718,16.042,7.43,24.058,11.156
			c5.623,2.614,11.234,5.253,16.857,7.865C66.389,139.053,66.964,139.184,67.516,139.366z"/>
		<path fill-rule="evenodd" clip-rule="evenodd" fill="#E55026" d="M171.097,119.374c-1.367,1.815-2.675,3.679-4.111,5.438
			c-5.819,7.129-11.672,14.233-17.526,21.334c-3.128,3.795-6.286,7.566-9.57,11.515c-1.74-2.507-3.414-4.874-5.041-7.273
			c-2.109-3.11-4.197-6.236-6.254-9.381c-0.303-0.465-0.385-1.073-0.57-1.615c13.814-6.472,27.629-12.945,41.446-19.41
			C169.993,119.738,170.555,119.575,171.097,119.374z"/>
		<path fill-rule="evenodd" clip-rule="evenodd" fill="#E55026" d="M171.459,119.161c-0.131,0.092-0.263,0.184-0.394,0.275
			C171.196,119.345,171.328,119.252,171.459,119.161z"/>
		<path fill-rule="evenodd" clip-rule="evenodd" fill="#EE5756" d="M89.493,172.831c-2.609-3.744-5.221-7.487-7.82-11.239
			c-0.076-0.108-0.021-0.31-0.026-0.468c5.32,0.013,10.641,0.024,15.96,0.037c-0.017,0.124-0.033,0.249-0.05,0.373
			c-0.455,0.592-0.932,1.17-1.363,1.78C93.954,166.482,91.726,169.658,89.493,172.831z"/>
		<path fill-rule="evenodd" clip-rule="evenodd" fill="#E0504F" d="M89.493,172.831c2.233-3.173,4.461-6.349,6.701-9.517
			c0.432-0.61,0.908-1.188,1.363-1.78l0.119-0.009c-0.02,7.647-0.04,15.297-0.06,22.945l-0.153,0.002l-0.153-0.011
			C94.704,180.585,92.098,176.708,89.493,172.831z"/>
		<path fill-rule="evenodd" clip-rule="evenodd" fill="#F59090" d="M97.573,137.794c0,0,0.01,0.115,0.01,0.114
			c0.022,3.753,0.043,7.507,0.065,11.258c-0.149-0.013,0.109,12.008-0.041,11.995c-0.318-0.24-8.14-11.407-8.115-11.803"/>
		<path fill-rule="evenodd" clip-rule="evenodd" fill="#B52125" d="M97.557,161.534c0.017-0.124,0.033-0.249,0.05-0.373l0.036,0.03
			c5.379-0.001,10.758-0.002,16.137-0.004c0.035,0.095,0.057,0.192,0.063,0.294c-2.233,3.195-4.463,6.395-6.704,9.586
			c-0.432,0.613-0.915,1.189-1.374,1.784c-0.302-0.344-0.639-0.66-0.898-1.031c-2.404-3.427-4.796-6.862-7.191-10.295
			L97.557,161.534z"/>
		<path fill-rule="evenodd" clip-rule="evenodd" fill="#E63836" d="M113.78,161.188c-5.379,0.002-10.758,0.003-16.137,0.004
			c0.02-0.13,0.041-0.259,0.061-0.389c1.845-2.634,3.72-5.247,5.521-7.91c0.814-1.204,1.48-2.507,2.213-3.765
			C108.218,153.148,110.999,157.168,113.78,161.188z"/>
		<path fill-rule="evenodd" clip-rule="evenodd" fill="#E95554" d="M105.438,149.128c-0.732,1.258-1.398,2.561-2.213,3.765
			c-1.801,2.663-3.676,5.276-5.521,7.91c0,0-0.153,0.005-0.152,0.005c0.032-3.88,0.064-7.76,0.096-11.642
			c-0.021-3.751-0.043-7.505-0.065-11.258c0.983,1.271,2.026,2.499,2.936,3.818C102.201,144.165,103.803,146.658,105.438,149.128z"
			/>
		<path fill-rule="evenodd" clip-rule="evenodd" fill="#A72022" d="M97.676,161.525c2.396,3.433,4.787,6.868,7.191,10.295
			c0.26,0.371,0.597,0.688,0.898,1.031c-2.525,3.748-5.049,7.499-7.588,11.239c-0.118,0.174-0.372,0.256-0.562,0.381
			C97.636,176.822,97.656,169.173,97.676,161.525z"/>
		<path fill-rule="evenodd" clip-rule="evenodd" fill="#F37E7E" d="M97.552,160.808c-1.583-2.272-3.143-4.562-4.769-6.805
			l-3.291-4.645c-2.043,3.068-5.804,8.696-7.846,11.766c5.32,0.013,10.641,0.024,15.96,0.037l0.036,0.03
			c0.02-0.13,0.041-0.259,0.061-0.389L97.552,160.808c-1.583-2.272-3.143-4.562-4.769-6.805"/>
	</g>
</g>
</svg>
