<?xml version="1.0" encoding="utf-8"?>
<!-- Generator: Adobe Illustrator 16.0.0, SVG Export Plug-In . SVG Version: 6.00 Build 0)  -->
<!DOCTYPE svg PUBLIC "-//W3C//DTD SVG 1.1//EN" "http://www.w3.org/Graphics/SVG/1.1/DTD/svg11.dtd">
<svg version="1.1" id="Layer_1" xmlns="http://www.w3.org/2000/svg" xmlns:xlink="http://www.w3.org/1999/xlink" x="0px" y="0px"
	  viewBox="0 0 195 293" enable-background="new 0 0 195 293" xml:space="preserve">
<rect x="0.059" fill="#81AA9C" width="195" height="293"/>
<g id="Ro56iF_1_">
	<g>
		<path fill-rule="evenodd" clip-rule="evenodd" fill="#411312" d="M27.363,138.321c-0.407,0.373-0.815,0.746-1.222,1.119
			c-0.294-0.378-0.588-0.756-0.882-1.134C25.96,138.311,26.661,138.316,27.363,138.321z"/>
		<path fill-rule="evenodd" clip-rule="evenodd" fill="#82AC9D" d="M25.064,128.346c-0.162,0.369-0.322,0.737-0.485,1.105
			C24.742,129.083,24.902,128.714,25.064,128.346z"/>
		<path fill-rule="evenodd" clip-rule="evenodd" fill="#87AFA1" d="M148.104,102.122c-0.212-0.309-0.423-0.618-0.633-0.928
			C147.683,101.503,147.892,101.812,148.104,102.122z"/>
		<path fill-rule="evenodd" clip-rule="evenodd" fill="#87AFA1" d="M147.573,101.315c-0.27-0.202-0.539-0.405-0.811-0.607
			C147.031,100.91,147.304,101.114,147.573,101.315z"/>
		<path fill-rule="evenodd" clip-rule="evenodd" fill="#8EB2A7" d="M139.573,133.375c-0.474-0.371-0.946-0.74-1.42-1.109
			C138.627,132.635,139.1,133.004,139.573,133.375z"/>
		<g>
			<g>
				<path fill-rule="evenodd" clip-rule="evenodd" fill="#3F1312" d="M171.193,127.337c-1.251-0.313-2.503-0.626-3.757-0.938
					c-3.854-0.858-7.704-1.716-11.557-2.573c-1.293-0.116-2.588-0.234-3.88-0.35c-3.308,0.181-6.614,0.363-9.919,0.545
					c-4.224,1.319-8.42,1.393-12.612-0.169c-0.754-0.281-1.598-0.318-2.399-0.469c-6.324-1.681-12.65-3.362-18.973-5.046
					c-0.685-0.181-1.362-0.386-2.042-0.58c0.174-0.356,0.348-0.713,0.521-1.07c0.182-0.024,0.364-0.048,0.548-0.072
					c6.108-1.574,12.218-3.148,18.326-4.722c0.293,0.087,0.589,0.174,0.882,0.261c1.17-0.473,2.342-0.946,3.515-1.42
					c0.519-0.146,1.037-0.293,1.559-0.439c0.403-0.073,0.808-0.146,1.211-0.22c4.119-1.149,8.214-2.417,12.379-3.359
					c0.933-0.211,2.121,0.715,3.598,1.27c0.116-1.018,0.225-1.948,0.33-2.879c-0.273-0.995-0.549-1.99-0.819-2.986
					c-0.191-0.277-0.383-0.558-0.571-0.837c-0.258-0.192-0.513-0.384-0.77-0.576c-1.432,1.167-2.399,3.124-4.725,2.75
					c-0.416,0.175-0.817,0.402-1.249,0.518c-11.082,2.981-22.245,5.695-33.225,9.021c-6.297,1.907-12.279,2.597-18.476,0.031
					c-1.723-0.713-3.64-0.953-5.458-1.446c-7.534-2.044-15.064-4.102-22.595-6.155c-0.718-0.194-1.437-0.388-2.155-0.583
					c-0.724-0.195-1.448-0.39-2.172-0.586c-1.668-0.715-3.338-1.432-5.416-2.323c-1.802,1.349-2.458,3.921-1.103,6.482
					c0.887-0.411,1.775-0.823,2.664-1.235c12.08,3.177,24.163,6.347,36.233,9.565c0.35,0.094,0.564,0.693,0.842,1.057
					c0.865-0.189,1.731-0.378,2.657-0.58c-0.926,0.202-1.791,0.391-2.657,0.58c-5.426,1.443-10.854,2.886-16.281,4.329
					c-0.456,0.056-0.953,0.015-1.364,0.184c-6.978,2.852-14.035,2.095-21.13,0.563c-1.07-0.231-2.203-0.167-3.306-0.239l0.033,0.218
					c-1.007,0.043-2.035-0.026-3.018,0.149c-3.791,0.68-7.569,1.438-11.352,2.165c-2.119,0.503-4.267,0.909-6.339,1.56
					c-0.793,0.249-1.41,1.058-2.107,1.611c-0.162,0.369-0.322,0.737-0.485,1.105c0.022,0.741,0.044,1.482,0.066,2.223
					c0.205,2.21,0.409,4.42,0.614,6.631c0.701,0.005,1.402,0.011,2.104,0.016c-0.407,0.373-0.815,0.746-1.222,1.119
					c0.265,0.539,0.528,1.077,0.792,1.616c0.941,1.091,1.884,2.183,2.826,3.272c2.409-0.411,4.817-0.823,7.226-1.234
					c3.986-1.411,7.973-2.824,11.959-4.235c2.953-1.879,5.907-3.758,8.859-5.638c1.489-1.066,2.978-2.134,4.467-3.202
					c1.32-0.736,2.56-1.753,3.976-2.162c8.25-2.38,16.541-4.617,24.819-6.904c3.479-0.693,6.856-2.416,10.534-1.004
					c0.185,0.028,0.369,0.057,0.556,0.086c1.846,0.52,3.692,1.04,5.54,1.56c7.582,2.101,15.143,4.288,22.76,6.259
					c3.031,0.784,5.6,2.125,7.699,4.413c0.474,0.37,0.946,0.739,1.42,1.109l0.189,0.131c0.212,0.07,0.421,0.14,0.63,0.209
					c2.672,1.76,5.342,3.521,8.011,5.281c3.075,1.139,6.147,2.279,9.22,3.419c2.178,0.667,4.379,1.26,6.522,2.023
					c2.453,0.87,4.641,0.72,6.551-1.189c0.63-1.635,1.26-3.271,1.891-4.907c0.346-2.224,0.694-4.447,1.04-6.67
					C172.814,130.227,172.006,128.782,171.193,127.337z"/>
			</g>
			<path fill-rule="evenodd" clip-rule="evenodd" fill="#3F1312" d="M147.471,101.194c0.021,0.031,0.041,0.06,0.062,0.091
				c0.014,0.01,0.029,0.021,0.041,0.031C147.573,101.315,147.471,101.192,147.471,101.194z"/>
		</g>
		<g>
			<path fill-rule="evenodd" clip-rule="evenodd" fill="#F4AB53" d="M156.761,169.831c2.853-0.479,5.707-0.957,8.562-1.436
				c2.925-0.643,5.852-1.287,8.775-1.932c0.749-0.158,1.506-0.285,2.247-0.479c1.471-0.387,2.035,0.188,1.814,1.648
				c-3.816,0.707-7.632,1.414-11.448,2.121c-5.85,0.785-11.699,1.572-17.549,2.359c-5.146,0.537-10.293,1.076-15.44,1.613
				c-2.292,0.146-4.589,0.291-6.881,0.436c-8.784,0.223-17.565,0.445-26.349,0.666c-9.565-0.156-19.13-0.312-28.696-0.467
				c-2.317-0.156-4.634-0.312-6.952-0.469c-2.15-0.154-4.3-0.309-6.45-0.463c-0.914-0.07-1.826-0.139-2.739-0.209
				c-0.632-0.068-1.265-0.137-1.897-0.207c-3.499-0.42-7.012-0.748-10.494-1.277c-8.786-1.336-17.558-2.762-26.335-4.154
				c-0.197-2.256,1.432-1.457,2.546-1.52c5.377,1.166,10.754,2.332,16.131,3.498c1.847,0.277,3.693,0.555,5.54,0.834
				c5.435,0.549,10.869,1.098,16.304,1.648c6.163,0.344,12.325,0.691,18.486,1.037c0.455,0.07,0.91,0.203,1.363,0.201
				c15.911-0.129,31.821-0.268,47.731-0.406c4.783-0.311,9.566-0.623,14.351-0.936C145.174,171.237,150.967,170.534,156.761,169.831
				z"/>
			<path fill-rule="evenodd" clip-rule="evenodd" fill="#CB4927" d="M18.108,184.495c-0.596-0.926-1.192-1.854-1.789-2.779
				c6.15,0.154,12.3,0.311,18.451,0.465c3.7,0.158,7.401,0.314,11.102,0.473c2.155-0.006,4.31-0.01,6.465-0.016
				c1.708,0.154,3.416,0.309,5.124,0.463c2.629,0.02,5.257,0.037,7.886,0.057c0.302,0.906,0.604,1.814,0.908,2.725
				c-5.066-1.129-10.161-1.322-15.286-0.451c-0.306,0-0.612,0.002-0.918,0.002c-1.238,0.004-2.476,0.008-3.714,0.012
				c-0.923,0.143-1.847,0.285-2.771,0.426c-0.312,0.002-0.624,0.006-0.935,0.008c-0.749-0.148-1.492-0.385-2.246-0.43
				c-5.892-0.346-11.784-0.701-17.68-0.941c-1.382-0.055-2.782,0.312-4.173,0.486l0.013,0.012
				C18.399,184.835,18.253,184.665,18.108,184.495z"/>
			<path fill-rule="evenodd" clip-rule="evenodd" fill="#C64627" d="M15.305,179.425c-1.247-2.57-1.407-5.209-0.485-7.912
				c3.717,0.318,7.435,0.639,11.153,0.959c-0.386,5.287,0.16,6.012,4.422,5.898c0.112-0.002,0.228,0.168,0.343,0.26
				c-0.197,0.879-0.396,1.754-0.595,2.629c-2.203-0.215-4.62,0.066-6.558-0.766C20.823,179.304,18.138,179.194,15.305,179.425z"/>
			<path fill-rule="evenodd" clip-rule="evenodd" fill="#D25327" d="M25.973,172.472c-3.718-0.32-7.436-0.641-11.153-0.959
				c0.702-1.309,1.404-2.617,2.107-3.928c8.779,1.391,17.551,2.816,26.337,4.152c3.482,0.529,6.996,0.857,10.494,1.277
				c-0.506,0.299-0.987,0.654-1.523,0.883c-2.635,1.131-4.914-0.748-7.354-0.898C38.592,172.612,32.277,172.622,25.973,172.472z"/>
			<path fill-rule="evenodd" clip-rule="evenodd" fill="#BA4226" d="M18.532,184.993c1.392-0.174,2.791-0.541,4.173-0.486
				c5.896,0.24,11.788,0.596,17.68,0.941c0.754,0.045,1.498,0.281,2.247,0.43c-0.239,2.547-2.482,3.883-4.754,2.893
				c-0.681-0.297-1.458-0.375-2.191-0.553c-2.662-0.305-5.318-0.752-7.989-0.871c-1.964-0.086-3.947,0.256-5.921,0.408
				C20.695,186.833,19.613,185.913,18.532,184.993z"/>
			<path fill-rule="evenodd" clip-rule="evenodd" fill="#AA3A23" d="M21.776,187.755c1.974-0.152,3.957-0.494,5.921-0.408
				c2.671,0.119,5.327,0.566,7.989,0.871c0.309,0.939,0.617,1.879,0.926,2.818c-0.768,0.061-1.535,0.125-2.303,0.186
				C29.887,190.952,25.515,190.497,21.776,187.755z"/>
			<path fill-rule="evenodd" clip-rule="evenodd" fill="#BA4226" d="M15.305,179.425c2.833-0.23,5.518-0.121,8.28,1.068
				c1.938,0.832,4.354,0.551,6.558,0.766c1.542,0.154,3.085,0.307,4.628,0.461c0,0.154-0.001,0.309-0.001,0.461
				c-6.151-0.154-12.3-0.311-18.451-0.465C15.981,180.952,15.643,180.188,15.305,179.425z"/>
			<path fill-rule="evenodd" clip-rule="evenodd" fill="#BA4226" d="M18.108,184.495c0.146,0.17,0.291,0.34,0.437,0.51
				C18.399,184.835,18.253,184.665,18.108,184.495z"/>
			<path fill-rule="evenodd" clip-rule="evenodd" fill="#BA4226" d="M171.597,189.03c-0.114-0.021-0.209,0.016-0.278,0.109
				c-1.08,0.484-2.16,0.971-3.238,1.453c-4.796,0.227-9.587,0.455-14.383,0.682c-0.303,0.008-0.604,0.016-0.905,0.021l0.02,0.186
				c-0.481-0.055-0.961-0.111-1.442-0.168c-0.601-0.107-1.199-0.297-1.801-0.311c-14.652-0.316-29.306-0.615-43.959-0.916
				c-0.319-0.002-0.641-0.004-0.962-0.006c-0.297,0-0.595,0-0.893-0.002c-5.253-0.17-10.506-0.338-15.761-0.506
				c-0.615-0.922-1.229-1.84-1.844-2.762c3.983,0.1,7.966,0.225,11.95,0.297c12.062,0.219,24.124,0.42,36.187,0.627
				c1.546-0.301,3.093-0.604,4.641-0.906c2.156,0.301,4.312,0.6,6.468,0.898c3.866-0.014,7.734-0.025,11.603-0.037
				c0.918,0.012,1.833,0.023,2.75,0.035c0.616,0.002,1.232,0.002,1.849,0.004c3.613,0.184,7.225,0.365,10.836,0.549
				C172.155,188.53,171.876,188.78,171.597,189.03z"/>
			<path fill-rule="evenodd" clip-rule="evenodd" fill="#E56025" d="M133.722,173.728c5.147-0.537,10.294-1.076,15.44-1.613
				c2.851,0.41,5.697,1.141,8.55,1.164c5.115,0.041,10.237-0.566,15.349-0.453c2.547,0.057,5.386-1.033,7.708,1.027
				c-0.014,0.619-0.028,1.24-0.042,1.859c-1.133,0.156-2.265,0.312-3.398,0.467c-2.108,0.154-4.218,0.295-6.325,0.467
				c-1.596,0.131-3.186,0.299-4.777,0.453c-0.151-0.01-0.302-0.02-0.452-0.029c-0.194-2.969-2.931-2.086-4.538-2.801
				c-0.354-0.158-1.426,1.174-2.09,1.891c-0.35,0.379-0.534,0.91-0.793,1.371c-0.458-0.006-0.914-0.01-1.371-0.014
				c-0.771-2.367-2.767-0.945-4.174-1.352c-3.115-0.16-6.257-0.131-9.342-0.531C140.189,175.21,136.968,174.38,133.722,173.728z"/>
			<path fill-rule="evenodd" clip-rule="evenodd" fill="#D25327" d="M166.226,177.099c1.592-0.154,3.182-0.322,4.777-0.453
				c2.107-0.172,4.217-0.312,6.325-0.467c0.504,2.262,2.164,0.473,3.188,0.912c-0.738,1.84-1.478,3.68-2.216,5.52
				c-6.179-0.6-12.355-1.199-18.534-1.799c-2.837,0.277-5.81,1.008-7.799-2.562c3.292,0,6.38,0,9.467,0
				c0.006-0.18,0.014-0.361,0.021-0.541c-0.725-0.051-1.45-0.104-2.177-0.156c1.253-1.789,2.885-1.631,4.629-0.908
				c0.03,0.521,0.061,1.047,0.091,1.568C164.739,177.841,165.482,177.47,166.226,177.099z"/>
			<path fill-rule="evenodd" clip-rule="evenodd" fill="#C24327" d="M159.766,180.812c6.179,0.6,12.355,1.199,18.534,1.799
				c-0.688,0.934-1.377,1.869-2.065,2.803c-6.878-0.143-13.751-0.283-20.626-0.424c-3.25-0.008-6.5-0.016-9.748-0.023
				c-1.278-0.008-2.581,0.127-3.824-0.086c-0.634-0.107-1.164-0.842-1.74-1.293c0.932-0.16,1.861-0.32,2.79-0.48
				c1.466-0.369,2.936-1.057,4.398-1.051c3.487,0.018,6.972,0.453,10.46,0.488C158.547,182.55,159.159,181.417,159.766,180.812z"/>
			<path fill-rule="evenodd" clip-rule="evenodd" fill="#DC5D26" d="M180.769,173.853c-2.322-2.061-5.161-0.971-7.708-1.027
				c-5.111-0.113-10.233,0.494-15.349,0.453c-2.853-0.023-5.699-0.754-8.55-1.164c5.85-0.787,11.699-1.574,17.549-2.359
				c1.325,0.285,2.64,0.768,3.973,0.82c3.105,0.121,6.219,0.037,9.328,0.037C180.265,171.692,180.516,172.772,180.769,173.853z"/>
			<path fill-rule="evenodd" clip-rule="evenodd" fill="#DC5D26" d="M155.608,184.989c6.875,0.141,13.748,0.281,20.626,0.424
				c-1.268,0.955-2.534,1.91-3.803,2.865c-3.611-0.184-7.223-0.365-10.836-0.549c-0.616-0.002-1.232-0.002-1.849-0.004
				c-0.917-0.012-1.832-0.023-2.75-0.035C156.533,186.79,156.07,185.89,155.608,184.989z"/>
			<path fill-rule="evenodd" clip-rule="evenodd" fill="#E56025" d="M180.012,170.612c-3.109,0-6.223,0.084-9.328-0.037
				c-1.333-0.053-2.647-0.535-3.973-0.82c3.816-0.707,7.632-1.414,11.448-2.121C178.775,168.624,179.396,169.618,180.012,170.612z"
				/>
			<path fill-rule="evenodd" clip-rule="evenodd" fill="#DC5D26" d="M180.516,177.091c-1.023-0.439-2.684,1.35-3.188-0.912
				c1.134-0.154,2.266-0.311,3.398-0.467C180.656,176.173,180.588,176.632,180.516,177.091z"/>
			<path fill-rule="evenodd" clip-rule="evenodd" fill="#B33E25" d="M62.072,191.751c-2.928-0.023-5.856-0.043-8.785-0.064
				c-1.393-0.039-2.786-0.078-4.18-0.115c-0.143-0.074-0.292-0.086-0.445-0.035c-2.161-0.016-4.322-0.033-6.483-0.049
				c-1.855-0.15-3.711-0.301-5.566-0.451c-0.309-0.939-0.617-1.879-0.926-2.818c0.733,0.178,1.51,0.256,2.191,0.553
				c2.271,0.99,4.515-0.346,4.754-2.893c0.311-0.002,0.623-0.006,0.935-0.008c0.796,0.611,1.551,1.289,2.405,1.805
				c0.565,0.344,1.266,0.473,1.916,0.662c1.396,0.402,2.913,1.326,4.178,1.064c3.711-0.77,7.312-0.734,10.946,0.195
				C62.698,190.315,62.385,191.032,62.072,191.751z"/>
			<path fill-rule="evenodd" clip-rule="evenodd" fill="#9B3620" d="M140.766,191.991c-10.129,0.094-20.26,0.203-30.391,0.275
				c-5.758,0.041-11.517,0.018-17.276,0.021c2.485-2.107,5.364-0.943,8.106-1.053c0.864-0.033,1.701-0.752,2.55-1.156
				c0.298,0.002,0.596,0.002,0.893,0.002c0.321,0.002,0.643,0.004,0.962,0.006c14.653,0.301,29.307,0.6,43.959,0.916
				c0.602,0.014,1.2,0.203,1.801,0.311C147.836,191.538,144.301,191.765,140.766,191.991z"/>
			<path fill-rule="evenodd" clip-rule="evenodd" fill="#81A898" d="M48.662,191.536c0.153-0.051,0.302-0.039,0.445,0.035
				C48.959,191.56,48.811,191.548,48.662,191.536z"/>
			<path fill-rule="evenodd" clip-rule="evenodd" fill="#9B3620" d="M152.792,191.296c0.301-0.006,0.603-0.014,0.905-0.021
				C153.396,191.282,153.093,191.29,152.792,191.296z"/>
			<path fill-rule="evenodd" clip-rule="evenodd" fill="#CB4927" d="M34.771,181.72c-1.543-0.154-3.085-0.307-4.628-0.461
				c0.199-0.875,0.398-1.75,0.595-2.629c-0.115-0.092-0.231-0.262-0.343-0.26c-4.262,0.113-4.808-0.611-4.422-5.898
				c6.305,0.15,12.619,0.141,18.909,0.527c2.439,0.15,4.719,2.029,7.354,0.898c0.536-0.229,1.017-0.584,1.523-0.883
				c0.633,0.07,1.265,0.139,1.897,0.207c0.053,0.818,0.165,1.637,0.144,2.451c-0.034,1.395,0.561,1.572,1.652,0.961
				c2.157-0.004,4.313-0.008,6.471-0.012c0.457,0.248,0.898,0.666,1.375,0.715c2.32,0.234,4.649,0.414,6.979,0.51
				c0.63,0.027,1.275-0.297,1.78-0.426c-0.878-1.189-1.57-2.125-2.26-3.059c9.566,0.154,19.131,0.311,28.697,0.467
				c-1.188,2.088,0.41,2.029,1.699,2.205c0.998,0.137,1.997,0.266,3.391,0.451c-0.935,0.979-1.391,1.455-1.845,1.934
				c-1.546,0.303-3.091,0.609-4.636,0.912c-0.303,0-0.605,0-0.908,0c-1.697-0.15-3.395-0.301-5.091-0.455
				c-0.922-0.322-1.845-0.646-2.768-0.971c-0.075,0.162-0.149,0.324-0.225,0.486c-0.656-0.428-1.312-0.854-1.968-1.277
				c0.898,2.664,0.989,2.705,4.973,2.668c0.303,0.002,0.605,0.002,0.909,0.004c-0.16,0.768-0.318,1.533-0.477,2.301
				c-0.458-0.002-0.915-0.002-1.373-0.004c-1.109-1.232-2.292-1.836-3.709-0.434c-4.781-0.002-9.562-0.006-14.342-0.008
				c0.525-3.07,3.23-2.141,5.084-2.771c1.081-0.146,2.162-0.293,3.244-0.439c-0.049-0.318-0.097-0.637-0.146-0.957
				c-1.032,0.158-2.065,0.314-3.097,0.473c-3.286,0.24-6.568,0.541-9.856,0.695c-1.415,0.066-2.847-0.129-4.264-0.279
				c-0.922-0.098-1.868-0.596-2.736-0.467c-5.904,0.889-11.821,0.824-17.758,0.568c-1.829-0.08-4.488-0.578-5.322,0.377
				C37.872,181.442,36.375,181.392,34.771,181.72z M85.832,179.099c-0.257-0.232-0.375-0.398-0.535-0.463
				c-0.104-0.041-0.266,0.066-0.403,0.105c0.054,0.168,0.074,0.451,0.168,0.479C85.236,179.271,85.453,179.171,85.832,179.099z"/>
			<path fill-rule="evenodd" clip-rule="evenodd" fill="#CF4D27" d="M103.738,179.419c0.454-0.479,0.91-0.955,1.845-1.934
				c-1.394-0.186-2.393-0.314-3.391-0.451c-1.289-0.176-2.887-0.117-1.699-2.205c8.782-0.221,17.563-0.443,26.348-0.664
				c1.858,0.904,2.906,3.102,5.355,3.115c6.873,0.037,13.744,0.17,20.618,0.266c1.389-0.01,2.777-0.02,4.167-0.029
				c0.457,0.004,0.913,0.008,1.371,0.014c0.309,0.008,0.618,0.014,0.925,0.021c0.727,0.053,1.452,0.105,2.177,0.156
				c-0.007,0.18-0.015,0.361-0.021,0.541c-3.087,0-6.175,0-9.467,0c1.989,3.57,4.962,2.84,7.799,2.562
				c-0.606,0.605-1.219,1.738-1.821,1.732c-3.488-0.035-6.973-0.471-10.46-0.488c-1.463-0.006-2.933,0.682-4.398,1.051
				c-2.045-1.195-3.924-2.504-6.582-2.4c-3.817,0.152-7.656-0.338-11.484-0.332c-4.191,0.008-8.378,0.293-12.569,0.391
				c-0.901,0.021-1.813-0.238-2.716-0.385c-1.86-0.303-3.718-0.619-5.577-0.928C104.017,179.44,103.877,179.429,103.738,179.419z"/>
			<path fill-rule="evenodd" clip-rule="evenodd" fill="#D25327" d="M152.814,177.546c-6.874-0.096-13.745-0.229-20.618-0.266
				c-2.449-0.014-3.497-2.211-5.355-3.115c2.292-0.146,4.589-0.291,6.881-0.438c3.246,0.652,6.468,1.482,9.744,1.906
				c3.085,0.4,6.227,0.371,9.342,0.531C152.81,176.626,152.814,177.087,152.814,177.546z"/>
			<path fill-rule="evenodd" clip-rule="evenodd" fill="#C24327" d="M71.796,174.362c0.69,0.934,1.382,1.869,2.26,3.059
				c-0.505,0.129-1.15,0.453-1.78,0.426c-2.33-0.096-4.658-0.275-6.979-0.51c-0.477-0.049-0.918-0.467-1.375-0.715
				c0.308-0.91,0.615-1.818,0.922-2.729C67.162,174.05,69.479,174.206,71.796,174.362z"/>
			<path fill-rule="evenodd" clip-rule="evenodd" fill="#B33E25" d="M64.844,173.894c-0.307,0.91-0.614,1.818-0.922,2.729
				c-2.157,0.004-4.314,0.008-6.471,0.012c0.314-1.068,0.629-2.135,0.943-3.203C60.544,173.585,62.694,173.739,64.844,173.894z"/>
			<path fill-rule="evenodd" clip-rule="evenodd" fill="#C24327" d="M58.395,173.431c-0.314,1.068-0.628,2.135-0.943,3.203
				c-1.092,0.611-1.687,0.434-1.652-0.961c0.021-0.814-0.091-1.633-0.144-2.451C56.568,173.292,57.481,173.36,58.395,173.431z"/>
			<path fill-rule="evenodd" clip-rule="evenodd" fill="#D25327" d="M140.296,183.587c0.576,0.451,1.106,1.186,1.74,1.293
				c1.243,0.213,2.546,0.078,3.824,0.086c-0.156,0.92-0.312,1.84-0.466,2.762c-2.155-0.299-4.312-0.598-6.468-0.898
				c-1.178-0.152-2.358-0.432-3.528-0.393c-0.386,0.012-0.743,0.842-1.112,1.299c-12.062-0.207-24.125-0.408-36.187-0.627
				c-3.984-0.072-7.967-0.197-11.95-0.297c-2.928-0.146-5.855-0.297-8.783-0.443c-3.246-0.158-6.491-0.316-9.737-0.473
				c-0.458-0.006-0.918-0.01-1.376-0.014c-0.303-0.91-0.606-1.818-0.908-2.725c6.524,0.207,13.047,0.451,19.573,0.613
				c10.901,0.271,21.804,0.49,32.707,0.73c5.707,0.145,11.416,0.287,17.125,0.43C136.671,184.772,138.845,185.671,140.296,183.587z"
				/>
			<path fill-rule="evenodd" clip-rule="evenodd" fill="#C24327" d="M34.771,181.72c1.604-0.328,3.101-0.277,4.499-1.879
				c0.833-0.955,3.493-0.457,5.322-0.377c5.937,0.256,11.854,0.32,17.758-0.568c0.868-0.129,1.814,0.369,2.736,0.467
				c1.417,0.15,2.849,0.346,4.264,0.279c3.289-0.154,6.571-0.455,9.856-0.695c0,0.309,0,0.617,0,0.924
				c-1.854,0.631-4.56-0.299-5.084,2.771c-4.672-0.152-9.343-0.355-14.016-0.41c-0.878-0.012-1.763,0.564-2.645,0.869
				c-1.708-0.154-3.416-0.309-5.123-0.463c-2.157-1.021-4.312-0.994-6.466,0.016c-3.701-0.158-7.401-0.314-11.102-0.473
				C34.77,182.028,34.771,181.874,34.771,181.72z"/>
			<path fill-rule="evenodd" clip-rule="evenodd" fill="#BA4226" d="M57.46,183.101c0.882-0.305,1.767-0.881,2.645-0.869
				c4.673,0.055,9.344,0.258,14.016,0.41c4.781,0.002,9.561,0.006,14.342,0.008c1.236,0.145,2.473,0.289,3.709,0.434
				c0.458,0.002,0.915,0.002,1.373,0.004c2.479-0.254,4.958-0.541,7.444-0.746c1.133-0.096,2.286-0.123,3.416-0.02
				c2.252,0.205,4.494,0.518,6.739,0.785c1.357,0.154,2.729,0.234,4.066,0.492c0.833,0.162,1.612,0.594,2.415,0.902
				c-10.903-0.24-21.806-0.459-32.707-0.73c-6.526-0.162-13.049-0.406-19.573-0.613C62.718,183.138,60.089,183.12,57.46,183.101z"/>
			<path fill-rule="evenodd" clip-rule="evenodd" fill="#C24327" d="M66.254,185.882c0.458,0.004,0.917,0.008,1.376,0.012
				c0.929,1.229,1.858,2.455,2.787,3.682c-1.852,0.002-3.704,0.002-5.555,0.004c-0.445-0.531-0.852-1.479-1.342-1.523
				c-3.321-0.309-6.663-0.59-9.993-0.541c-1.71,0.025-2.412-0.518-2.559-2.084C56.094,184.56,61.188,184.753,66.254,185.882z"/>
			<path fill-rule="evenodd" clip-rule="evenodd" fill="#BA4226" d="M50.968,185.431c0.146,1.566,0.849,2.109,2.559,2.084
				c3.33-0.049,6.671,0.232,9.993,0.541c0.491,0.045,0.897,0.992,1.342,1.523c-0.617,0.006-1.234,0.012-1.852,0.018
				c-3.634-0.93-7.235-0.965-10.946-0.195c-1.265,0.262-2.782-0.662-4.178-1.064c-0.65-0.189-1.351-0.318-1.916-0.662
				c-0.854-0.516-1.608-1.193-2.405-1.805c0.923-0.141,1.847-0.283,2.771-0.426c0.778,0.572,1.506,1.27,2.375,1.621
				c0.195,0.078,0.88-1.057,1.339-1.633C50.356,185.433,50.662,185.431,50.968,185.431z"/>
			<path fill-rule="evenodd" clip-rule="evenodd" fill="#C24327" d="M50.05,185.433c-0.459,0.576-1.145,1.711-1.339,1.633
				c-0.868-0.352-1.596-1.049-2.375-1.621C47.574,185.44,48.812,185.437,50.05,185.433z"/>
			<path fill-rule="evenodd" clip-rule="evenodd" fill="#B33E25" d="M45.872,182.653c2.153-1.01,4.309-1.037,6.466-0.016
				C50.182,182.644,48.026,182.647,45.872,182.653z"/>
			<path fill-rule="evenodd" clip-rule="evenodd" fill="#AA3A23" d="M63.01,189.597c0.618-0.006,1.234-0.012,1.852-0.018
				c1.852-0.002,3.704-0.002,5.555-0.004c0.92-0.004,1.841-0.01,2.761-0.014c1.238,0.008,2.476,0.016,3.713,0.025
				c3.241-0.008,6.482-0.014,9.725-0.02c0.459,0.002,0.919,0.004,1.378,0.006c5.254,0.168,10.508,0.336,15.761,0.506
				c-0.849,0.404-1.686,1.123-2.55,1.156c-2.742,0.109-5.621-1.055-8.106,1.053c-10.342-0.18-20.684-0.359-31.027-0.537
				C62.385,191.032,62.698,190.315,63.01,189.597z"/>
			<path fill-rule="evenodd" clip-rule="evenodd" fill="#CF4D27" d="M145.395,187.728c0.154-0.922,0.31-1.842,0.466-2.762
				c3.248,0.008,6.498,0.016,9.748,0.023c0.462,0.9,0.925,1.801,1.389,2.701C153.129,187.702,149.261,187.714,145.395,187.728z"/>
			<path fill-rule="evenodd" clip-rule="evenodd" fill="#C24327" d="M87.994,189.573c-0.459-0.002-0.919-0.004-1.378-0.006
				c-0.883-0.301-1.748-0.764-2.653-0.867c-2.19-0.254-4.401-0.34-6.603-0.492c0.003-0.613,0.005-1.229,0.008-1.84
				c2.927,0.146,5.855,0.297,8.783,0.443C86.765,187.733,87.379,188.651,87.994,189.573z"/>
			<path fill-rule="evenodd" clip-rule="evenodd" fill="#CB4927" d="M134.286,187.735c0.369-0.457,0.727-1.287,1.112-1.299
				c1.17-0.039,2.351,0.24,3.528,0.393C137.379,187.132,135.832,187.435,134.286,187.735z"/>
			<path fill-rule="evenodd" clip-rule="evenodd" fill="#CF4D27" d="M159.747,187.726c0.616,0.002,1.232,0.002,1.849,0.004
				C160.979,187.728,160.363,187.728,159.747,187.726z"/>
			<path fill-rule="evenodd" clip-rule="evenodd" fill="#AA3A23" d="M105.609,190.087c-0.319-0.002-0.641-0.004-0.962-0.006
				C104.969,190.083,105.29,190.085,105.609,190.087z"/>
			<path fill-rule="evenodd" clip-rule="evenodd" fill="#DC5D26" d="M159.277,177.552c-0.307-0.008-0.616-0.014-0.925-0.021
				c0.259-0.461,0.443-0.992,0.793-1.371c0.664-0.717,1.736-2.049,2.09-1.891c1.607,0.715,4.344-0.168,4.538,2.801
				c-0.622-0.143-1.244-0.285-1.867-0.426C162.162,175.921,160.53,175.763,159.277,177.552z"/>
			<path fill-rule="evenodd" clip-rule="evenodd" fill="#DC5D26" d="M152.814,177.546c0-0.459-0.005-0.92-0.007-1.381
				c1.407,0.406,3.402-1.016,4.174,1.352C155.592,177.526,154.203,177.536,152.814,177.546z"/>
			<path fill-rule="evenodd" clip-rule="evenodd" fill="#CF4D27" d="M163.906,176.644c0.623,0.141,1.245,0.283,1.867,0.426
				c0.15,0.01,0.301,0.02,0.452,0.029c-0.743,0.371-1.486,0.742-2.229,1.113C163.967,177.69,163.937,177.165,163.906,176.644z"/>
			<path fill-rule="evenodd" clip-rule="evenodd" fill="#C64627" d="M111.146,183.106c-2.245-0.268-4.487-0.58-6.739-0.785
				c-1.13-0.104-2.283-0.076-3.416,0.02c-2.485,0.205-4.965,0.492-7.444,0.746c0.159-0.768,0.317-1.533,0.477-2.301
				c0.461,0.002,0.92,0.006,1.38,0.008c0.312-0.004,0.62-0.008,0.93-0.012c0.62-0.15,1.241-0.301,1.862-0.451
				c0.302,0,0.604,0,0.907,0c1.222,0.035,2.451,0.164,3.66,0.057c0.489-0.045,0.931-0.607,1.395-0.936
				c1.859,0.309,3.717,0.625,5.577,0.928c0.902,0.146,1.814,0.406,2.716,0.385c4.191-0.098,8.378-0.383,12.569-0.391
				c3.828-0.006,7.667,0.484,11.484,0.332c2.658-0.104,4.537,1.205,6.582,2.4c-0.929,0.16-1.858,0.32-2.79,0.48
				c-1.451,2.084-3.625,1.186-5.544,1.344c0.312-0.473,0.626-0.945,0.771-1.166c-4.918-0.355-9.834-0.842-14.762-1.018
				C117.564,182.632,114.351,182.972,111.146,183.106z"/>
			<path fill-rule="evenodd" clip-rule="evenodd" fill="#C64627" d="M93.115,180.782c-3.983,0.037-4.074-0.004-4.973-2.668
				c0.656,0.424,1.312,0.85,1.968,1.277c0.076-0.162,0.15-0.324,0.225-0.486c0.923,0.324,1.846,0.648,2.768,0.971
				C93.107,180.179,93.111,180.479,93.115,180.782z"/>
			<path fill-rule="evenodd" clip-rule="evenodd" fill="#B33E25" d="M104.157,179.452c-0.464,0.328-0.905,0.891-1.395,0.936
				c-1.209,0.107-2.438-0.021-3.66-0.057c1.545-0.303,3.09-0.609,4.636-0.912C103.877,179.429,104.017,179.44,104.157,179.452z"/>
			<path fill-rule="evenodd" clip-rule="evenodd" fill="#C64627" d="M79.206,179.87c0-0.307,0-0.615,0-0.924
				c1.032-0.158,2.065-0.314,3.097-0.473c0.049,0.32,0.097,0.639,0.146,0.957C81.368,179.577,80.287,179.724,79.206,179.87z"/>
			<path fill-rule="evenodd" clip-rule="evenodd" fill="#B33E25" d="M93.115,180.782c-0.004-0.303-0.008-0.604-0.012-0.906
				c1.697,0.154,3.394,0.305,5.091,0.455c-0.62,0.15-1.241,0.301-1.861,0.451c-0.31,0.004-0.618,0.008-0.93,0.012
				c-0.46-0.002-0.919-0.006-1.38-0.008C93.72,180.784,93.418,180.784,93.115,180.782z"/>
			<path fill-rule="evenodd" clip-rule="evenodd" fill="#C64627" d="M92.173,183.083c-1.236-0.145-2.473-0.289-3.709-0.434
				C89.881,181.247,91.064,181.851,92.173,183.083z"/>
			<path fill-rule="evenodd" clip-rule="evenodd" fill="#C64627" d="M85.832,179.099c-0.379,0.072-0.596,0.172-0.769,0.121
				c-0.094-0.027-0.115-0.311-0.168-0.479c0.137-0.039,0.299-0.146,0.403-0.105C85.457,178.7,85.575,178.866,85.832,179.099z"/>
			<path fill-rule="evenodd" clip-rule="evenodd" fill="#C24327" d="M111.146,183.106c3.205-0.135,6.419-0.475,9.615-0.359
				c4.928,0.176,9.844,0.662,14.762,1.018c-0.145,0.221-0.458,0.693-0.771,1.166c-5.709-0.143-11.418-0.285-17.125-0.43
				c-0.803-0.309-1.582-0.74-2.415-0.902C113.875,183.341,112.503,183.261,111.146,183.106z"/>
			<path fill-rule="evenodd" clip-rule="evenodd" fill="#CB4927" d="M77.367,186.368c-0.003,0.611-0.005,1.227-0.008,1.84
				c-0.154,0-0.308,0.002-0.462,0.002c-1.299,0.289-3.111-0.84-3.72,1.352c-0.92,0.004-1.84,0.01-2.761,0.014
				c-0.929-1.227-1.858-2.453-2.787-3.682C70.876,186.052,74.121,186.21,77.367,186.368z"/>
			<path fill-rule="evenodd" clip-rule="evenodd" fill="#BA4226" d="M76.897,188.21c0.154,0,0.308-0.002,0.462-0.002
				c2.202,0.152,4.413,0.238,6.603,0.492c0.906,0.104,1.77,0.566,2.653,0.867c-3.242,0.006-6.483,0.012-9.725,0.02
				C76.894,189.128,76.895,188.669,76.897,188.21z"/>
			<path fill-rule="evenodd" clip-rule="evenodd" fill="#C24327" d="M76.897,188.21c-0.002,0.459-0.004,0.918-0.006,1.377
				c-1.238-0.01-2.475-0.018-3.713-0.025C73.786,187.37,75.599,188.499,76.897,188.21z"/>
			<path fill-rule="evenodd" clip-rule="evenodd" fill="#CB4927" d="M95.403,180.794c0.312-0.004,0.62-0.008,0.93-0.012
				C96.023,180.786,95.715,180.79,95.403,180.794z"/>
		</g>
		<path fill-rule="evenodd" clip-rule="evenodd" fill="#3F1312" d="M107.124,116.617c-0.184,0.024-0.366,0.048-0.548,0.072
			C106.758,116.665,106.94,116.641,107.124,116.617z"/>
	</g>
</g>
</svg>
