<?xml version="1.0" encoding="utf-8"?>
<!-- Generator: Adobe Illustrator 16.0.0, SVG Export Plug-In . SVG Version: 6.00 Build 0)  -->
<!DOCTYPE svg PUBLIC "-//W3C//DTD SVG 1.1//EN" "http://www.w3.org/Graphics/SVG/1.1/DTD/svg11.dtd">
<svg version="1.1" id="Layer_1" xmlns="http://www.w3.org/2000/svg" xmlns:xlink="http://www.w3.org/1999/xlink" x="0px" y="0px"
	  viewBox="0 0 195 293" enable-background="new 0 0 195 293" xml:space="preserve">
<rect fill="#D2EDF3" width="195" height="293"/>
<g>
	
		<line fill-rule="evenodd" clip-rule="evenodd" stroke="#999999" stroke-width="2" stroke-miterlimit="10" x1="53.107" y1="93.999" x2="44.45" y2="77.701"/>
	<g id="_x36_iD409_1_">
		<g>
			<path fill-rule="evenodd" clip-rule="evenodd" fill="#145486" d="M117.552,200.16c1.247,2.838,2.494,5.678,3.743,8.518
				c-2.61,3.068-5.209,6.146-7.839,9.197c-2.408,2.797-4.853,5.564-7.281,8.344c-2.305-4.838-4.523-9.719-6.97-14.482
				c-0.654-1.275-1.849-2.439-3.071-3.223c-2.105-1.348-4.43-2.354-6.66-3.504c-0.894-0.84-1.711-1.783-2.693-2.498
				c-10.646-7.758-18.574-17.764-24.22-29.574c-3.174-6.639-6.02-13.432-8.961-20.178c-2.133-4.895-4.274-9.791-6.221-14.76
				c-0.81-2.069-1.123-4.332-1.663-6.506c0.2-0.176,0.399-0.352,0.599-0.528c11.007,4.025,22.014,8.05,33.729,12.334
				c0.283-1.345,0.394-2.614,0.822-3.764c1.18-3.164,2.493-6.278,3.755-9.414c0.508,0.943,1.062,1.864,1.513,2.833
				c9.922,21.292,19.831,42.588,29.751,63.881C116.406,197.959,116.994,199.051,117.552,200.16z M96.969,158.247
				c-5.432-4.315-10.622-8.44-16.228-12.896c-0.632,7.335-1.214,14.087-1.837,21.306C85.158,163.746,90.867,161.088,96.969,158.247z
				"/>
			<path fill-rule="evenodd" clip-rule="evenodd" fill="#0F294B" d="M106.175,226.219c2.429-2.779,4.873-5.547,7.281-8.344
				c2.63-3.051,5.229-6.129,7.839-9.197c5.34,11.473,28.776,1.105,42.229,8.244c-2.23,2.645-11.803,12.879-26.011,13.445
				c-8.85,0.352-13-1-13-1s1.636,7.449-3.218,14.475c-7.952,11.51-21.915,17.504-24.326,18.627
				C93.818,255.699,112.001,238.732,106.175,226.219z"/>
			<path fill-rule="evenodd" clip-rule="evenodd" fill="#175586" d="M87.909,120.311c1.297-3.332,2.596-6.665,3.895-9.998
				c2.493,3.689,5.471,7.144,7.387,11.113c5.715,11.849,11.085,23.868,16.433,35.889c1.506,3.381,2.473,7,3.688,10.51
				c-0.191,0.564-0.591,1.148-0.538,1.688c0.233,2.377,0.811,4.736,0.863,7.111c0.07,3.152-0.232,6.314-0.374,9.471
				c-0.533-1.025-1.106-2.033-1.595-3.08c-9.338-20.039-18.66-40.086-28.016-60.119C89.217,121.965,88.496,121.169,87.909,120.311z"
				/>
			<path fill-rule="evenodd" clip-rule="evenodd" fill="#3193BA" d="M87.909,120.311c0.587,0.858,1.308,1.654,1.742,2.584
				c9.355,20.032,18.678,40.08,28.016,60.119c0.488,1.047,1.062,2.055,1.594,3.08c-0.061,2.684-0.119,5.367-0.179,8.051
				c-0.511,2.004-1.021,4.008-1.53,6.014c-0.558-1.107-1.146-2.199-1.667-3.322c-9.92-21.293-19.829-42.589-29.751-63.881
				c-0.451-0.969-1.005-1.891-1.513-2.833C85.717,126.852,86.812,123.581,87.909,120.311z"/>
			<path fill-rule="evenodd" clip-rule="evenodd" fill="#0F2B4C" d="M119.082,194.145c0.06-2.684,0.118-5.367,0.179-8.051
				c0.143-3.156,0.445-6.318,0.375-9.471c-0.053-2.375-0.63-4.734-0.863-7.111c-0.053-0.539,0.347-1.123,0.538-1.688
				c6.944,14.91,13.891,29.82,20.836,44.73c-0.247,0.111-0.492,0.225-0.738,0.336C132.634,206.643,125.857,200.395,119.082,194.145z
				"/>
			<path fill-rule="evenodd" clip-rule="evenodd" fill="#175586" d="M139.408,212.891c0.246-0.111,0.491-0.225,0.738-0.336
				c0.205,0.336,0.409,0.674,0.613,1.01c-0.087,0.088-0.176,0.174-0.264,0.26C140.134,213.514,139.771,213.203,139.408,212.891z"/>
			<path fill-rule="evenodd" clip-rule="evenodd" fill="#0F294B" d="M96.969,158.247c-6.102,2.841-11.811,5.499-18.064,8.409
				c0.623-7.219,1.205-13.971,1.837-21.306C86.347,149.807,91.537,153.932,96.969,158.247z"/>
			<path fill-rule="evenodd" clip-rule="evenodd" fill="#E7E8E6" d="M61.412,104.815c2.956-1.428,6.602-0.167,8.055,2.788
				c1.467,2.982,0.272,6.596-2.673,8.087c-3.045,1.543-6.762,0.256-8.215-2.84C57.171,109.846,58.439,106.25,61.412,104.815z
				 M62.197,106.385c-2.112,1.001-3.008,3.562-1.974,5.645c0.982,1.979,3.467,2.892,5.479,2.015
				c2.062-0.899,3.075-3.569,2.136-5.635C66.885,106.311,64.306,105.386,62.197,106.385z"/>
			<path fill-rule="evenodd" clip-rule="evenodd" fill="#FEFCF0" d="M65.837,94.881c0.209,0.257,0.417,0.517,0.626,0.776
				c-0.268-0.021-0.534-0.041-0.801-0.061C65.721,95.356,65.779,95.119,65.837,94.881z"/>
			<path fill-rule="evenodd" clip-rule="evenodd" fill="#0F2D4E" d="M62.197,106.385c2.108-0.999,4.688-0.074,5.641,2.025
				c0.939,2.065-0.073,4.735-2.136,5.635c-2.012,0.877-4.496-0.036-5.479-2.015C59.189,109.947,60.085,107.386,62.197,106.385z"/>
			<path fill-rule="evenodd" clip-rule="evenodd" fill="#0F2B4C" d="M84.62,130.122c-1.261,3.135-2.574,6.25-3.754,9.414
				c-0.429,1.15-0.539,2.419-0.822,3.764c-11.716-4.284-22.723-8.309-33.729-12.334c-0.199,0.176-0.398,0.352-0.599,0.528
				c0.54,2.174,0.854,4.437,1.663,6.506c1.946,4.969,4.088,9.865,6.221,14.76c2.941,6.746,5.787,13.539,8.961,20.178
				c5.646,11.811,13.573,21.816,24.22,29.574c0.982,0.715,1.8,1.658,2.693,2.498c-2.457,5.949-4.914,11.898-7.369,17.85
				c0.193,0.137,0.389,0.273,0.582,0.41c-0.525-0.979-1.082-1.941-1.571-2.936c-9.529-19.422-18.89-38.926-28.63-58.24
				c-7.024-13.934-9.885-28.503-8.615-44.015c0.635-7.771,1.135-15.538,3.447-23.045c0.314-1.017,0.649-2.026,1-3.117
				c5.895,1.25,11.62,2.465,17.345,3.679c0.267,0.021,0.533,0.04,0.801,0.061c-0.209-0.259-0.417-0.519-0.626-0.776
				c-5.064-2.795-10.13-5.59-15.342-8.467c0.312-0.736,0.658-1.549,1.062-2.5c10.174,2.678,19.469,7,27.459,13.651
				c4.606,3.835,8.548,8.471,12.788,12.747c-1.299,3.333-2.598,6.666-3.895,9.998C86.812,123.581,85.717,126.852,84.62,130.122z
				 M61.412,104.815c-2.973,1.434-4.241,5.03-2.833,8.035c1.453,3.096,5.17,4.383,8.215,2.84c2.945-1.491,4.14-5.104,2.673-8.087
				C68.014,104.648,64.368,103.388,61.412,104.815z"/>
		</g>
	</g>
	<path fill-rule="evenodd" clip-rule="evenodd" fill="#0F2B4C" d="M43.583,78.318l0.873-0.287h1.265c0,0,9.083-19.977,14.078-25.179
		c2.093-2.179,9.664-7.078,9.664-7.078l17.143-10.065l9.998-5.178H91.81L70.094,42.315c0,0-9.646,6.037-12.084,8.717
		C52.858,56.692,43.583,78.318,43.583,78.318z"/>
	<circle fill-rule="evenodd" clip-rule="evenodd" fill="#3193BA" cx="44.892" cy="78.431" r="3.415"/>
</g>
</svg>
