<?xml version="1.0" encoding="utf-8"?>
<!-- Generator: Adobe Illustrator 16.0.0, SVG Export Plug-In . SVG Version: 6.00 Build 0)  -->
<!DOCTYPE svg PUBLIC "-//W3C//DTD SVG 1.1//EN" "http://www.w3.org/Graphics/SVG/1.1/DTD/svg11.dtd">
<svg version="1.1" id="Layer_1" xmlns="http://www.w3.org/2000/svg" xmlns:xlink="http://www.w3.org/1999/xlink" x="0px" y="0px"
	  viewBox="0 0 195 293" enable-background="new 0 0 195 293" xml:space="preserve">
<rect fill="#A9CABA" width="195" height="293"/>
<g id="AAV0Ev_1_">
	<g>
		<path fill-rule="evenodd" clip-rule="evenodd" fill="#F4D8B1" d="M155.188,211.352c-7.101-8.229-15.864-19.361-25.343-24.482
			c-3.33-1.235-6.66-2.473-9.989-3.707c-5.713-1.007-11.425-2.017-17.137-3.023c-1.609-0.091-3.217-0.182-4.826-0.273
			c-1.264,0.081-2.528,0.161-3.793,0.241c-1.013,0.065-2.024,0.13-3.035,0.194c-0.26,0.065-6.569,0.029-15.615,3.18
			c-18.902,6.583-34.198,27.871-34.198,27.871H155.188z"/>
		<path fill-rule="evenodd" clip-rule="evenodd" fill="#286058" d="M37.735,104.218c-0.604,0.018-1.206,0.035-1.809,0.053
			c-2.563,0-5.128,0-7.923,0c13.396-34.214,47.055-6.83,42.595-10.192c-1.535,1.267-2.964,1.336-4.848,0.354
			c-2.067-1.08-4.281-2.643-6.914-0.845c-0.584,0.399-1.778-0.133-2.696-0.172c-0.689-0.031-1.532-0.206-2.049,0.108
			c-2.998,1.821-5.92,3.769-8.868,5.674c0,0-0.257,0.054-0.26,0.054c-0.491,0.41-0.98,0.821-1.47,1.233L37.735,104.218z"/>
		<path fill-rule="evenodd" clip-rule="evenodd" fill="#492216" d="M85.315,159.698c-1.043-2.761-2.085-5.521-3.128-8.279
			c-1.575-5.696-3.152-11.393-4.73-17.085c-0.004,0.002-0.087-0.095-0.087-0.095c-0.642-2.655-1.281-5.31-1.921-7.966
			c0.572-2.048,1.27-4.072,1.686-6.15c0.503-2.522,0.771-5.089,1.14-7.637c0.225,0.836,0.449,1.671,0.675,2.506
			c-0.362,0.501-0.725,1.003-1.087,1.504c0.409,0.109,0.819,0.221,1.23,0.33c0.972,2.779,2.014,5.535,2.896,8.342
			c1.051,3.344,1.965,6.732,2.937,10.1c0.132,0.373,0.262,0.747,0.393,1.122c0.628,2.724,1.257,5.447,1.887,8.171
			c-0.505,2.344-1.819,4.88-1.318,6.984C86.588,154.507,86.397,157.041,85.315,159.698z"/>
		<path fill-rule="evenodd" clip-rule="evenodd" fill="#286058" d="M90.352,91.681c-0.224-0.014-1.172,0.544-1.395,0.53
			c-3.399-1.665-6.184-0.414-7.456,2.733c-0.327,0.005-0.653-0.078-0.981-0.072c-0.919,0.625-1.836,0.63-2.75,1.256v-0.001
			c-0.633-0.639-1.268-1.276-1.9-1.915c4.419-11.351,18.502-15.413,27.276-10.532C98.844,86.37,94.6,89.026,90.352,91.681z"/>
		<path fill-rule="evenodd" clip-rule="evenodd" fill="#462115" d="M71.542,112.208c1.242-2.605,2.362-5.279,3.797-7.771
			c0.403-0.697,1.697-1.117,2.635-1.225c2.987-0.345,5.996-0.485,8.999-0.703c-0.789,3.349-3.218,4.357-5.903,4.323
			c-1.069,1.842-1.983,3.418-2.899,4.994c-1.497,0.203-2.997,0.407-4.191,0.569c-0.665,0.981-1.206,1.779-1.746,2.575
			C72.004,114.049,71.772,113.129,71.542,112.208z"/>
		<path fill-rule="evenodd" clip-rule="evenodd" fill="#21534C" d="M53.1,92.998c-3.597,1.215-6.18,4.845-9.128,6.75
			c0.817-0.114,1.96-1.143,2.702-1.442c8.294-3.35,16.95-3.207,25.559-0.842c0.88,0.241,2.193-0.216,2.682-0.783
			c-1.77-1.042-3.54-2.085-5.309-3.127c-1.534,1.268-2.242-0.139-4.172-1C61.362,90.735,53.1,92.998,53.1,92.998z"/>
		<path fill-rule="evenodd" clip-rule="evenodd" fill="#552B1A" d="M72.232,114.971c0.54-0.796,1.455-2.164,2.121-3.145
			c1.194-0.163,2.319,0.203,3.816,0c0.036,0.221,0.274,0.884,0.309,1.104c-0.369,2.548,0.43,4.749-0.709,7.337
			c-0.416,2.079-1.561,4.735-2.133,6.783C74.563,123.283,73.306,118.738,72.232,114.971z"/>
		<path fill-rule="evenodd" clip-rule="evenodd" fill="#21534C" d="M75.869,94.213c0.633,0.639,1.771,1.604,2.405,2.243
			c-0.865,0.833-2.059,3.238-3.372,0.575C75.226,96.27,75.548,94.974,75.869,94.213z"/>
		<path fill-rule="evenodd" clip-rule="evenodd" fill="#552B1A" d="M79.093,116.826c-0.411-0.109-0.821-0.221-1.23-0.33
			c0.362-0.501,0.725-1.003,1.087-1.504C78.997,115.604,79.046,116.216,79.093,116.826z"/>
		<path fill-rule="evenodd" clip-rule="evenodd" fill="#492216" d="M98.14,175.214c4.938-11.243,10.495-24.438,15.447-35.676
			c0.923-2.095,2.216-4.462,3.176-6.54c3.936,0.197,7.896,0.11,11.83,0.306c-1.118,2.372-2.063,5.948-5.835,5.048
			c-0.758,0.425-1.926,0.665-2.214,1.303c-5.361,11.896-10.62,23.836-15.896,35.769c-0.167,0.374-0.331,0.746-0.5,1.12
			c-0.577,1.198-1.156,2.396-1.732,3.596c-1.609-0.091-3.218-0.182-4.826-0.273"/>
		<path fill-rule="evenodd" clip-rule="evenodd" fill="#4D2618" d="M98.454,174.718c-0.188,1.716-0.375,3.432-0.562,5.147
			c-2.276,0.146-4.552,0.291-6.828,0.436c-1.143-4.211-2.283-8.424-3.424-12.636c0.274-2.763,0.599-5.521,0.811-8.287
			c0.23-3.032,0.357-6.072,0.528-9.108c2.58,8.891,5.161,17.78,7.845,27.022C97.491,176.236,97.974,175.477,98.454,174.718z"/>
		<path fill-rule="evenodd" clip-rule="evenodd" fill="#3C7978" d="M116.733,128.821c0.033-10.648,5.5-17.957,14.298-23.195
			c1.066-0.635,2.234-1.102,3.359-1.646c6.676-1.958,13.279-2.297,20.518,0.958c-4.485,3.144-8.533,5.98-12.582,8.816
			c-2.509,0.452-5.017,0.92-7.532,1.336c-0.456,0.075-1.054-0.27-1.405-0.081c-2.703,1.444-5.46,2.824-8.009,4.513
			c-2.938,1.947-5.912,3.953-6.537,7.943C118.756,128.013,117.465,128.373,116.733,128.821z"/>
		<path fill-rule="evenodd" clip-rule="evenodd" fill="#2A6160" d="M116.733,128.821c0,0,0.789-1.625,0.877-2.173
			c1.789-3.937,4.831-5.179,7.77-7.126c2.549-1.689,5.306-3.069,8.009-4.513c0.352-0.188,1.979-0.378,2.433-0.453
			c2.919-0.482,4.396-0.421,6.505-0.802c-0.566,0.624-1.133,1.247-1.699,1.87c-9.487,2.79-17.423,7.768-22.927,16.198
			c-0.217,0.33-0.625,0.535-0.939,0.798C116.75,131.354,116.742,130.086,116.733,128.821z"/>
		<path fill-rule="evenodd" clip-rule="evenodd" fill="#21534C" d="M77.24,96.764c-0.652-3.114,9.042-6.79,12.441-5.125
			C86.955,92.504,79.968,95.898,77.24,96.764z"/>
		<path fill-rule="evenodd" clip-rule="evenodd" fill="#21534C" d="M77.77,96.129c0.914-0.625,1.831-1.25,2.75-1.876
			C79.604,94.877,78.687,95.502,77.77,96.129z"/>
		<path fill-rule="evenodd" clip-rule="evenodd" fill="#5F311C" d="M88.979,150.27c-0.171,3.036,0.229,6.396,0,9.429
			c-0.212,2.767-0.743,5.243-1.339,7.967c-0.775-2.654-1.55-5.312-2.325-7.967c1.082-2.657,0.702-5.249,0-8.209
			c-0.501-2.105,1.384-4.584,1.889-6.928c0.164,0.103,0.259,0.984,0.437,1.061C88.062,147.435,88.558,148.456,88.979,150.27z"/>
		<path fill-rule="evenodd" clip-rule="evenodd" fill="#4D2618" d="M99.068,173.269c-0.212,0.505-0.427,1.009-0.639,1.512
			C98.642,174.277,98.856,173.773,99.068,173.269z"/>
		<polygon fill-rule="evenodd" clip-rule="evenodd" fill="#3C7978" points="57.619,108.669 57.762,108.858 57.579,108.713 		"/>
		<path fill-rule="evenodd" clip-rule="evenodd" fill="#3C7978" d="M53.804,116.171c-10.3,6.088-20.598,12.177-31.463,18.6
			c0.674-11.763,4.276-21.447,12.569-29.124c0,0,8.816-5.956,11.722-7.298c7.885-3.645,16.716-3.717,25.324-1.353
			c0.881,0.242,1.94-0.166,2.916-0.271c0,0-0.01-0.186-0.012-0.185c1.313,2.663,2.002,0.465,2.867-0.368v0.001
			c0.917-0.626,1.834-1.251,2.751-1.877c0.327-0.005,0.886-0.642,1.212-0.646c2.729-0.866,5.282-1.805,7.949-1.967
			c0.223,0.014,0.446,0.028,0.67,0.042c2.538,0.41,5.104,0.687,7.605,1.256c4.704,1.071,8.665,3.436,12.321,7.944
			c-8.154,0.57-15.731,1.1-23.307,1.628c-3.002,0.218-6.011,0.357-8.998,0.702c-0.938,0.109-2.231,0.529-2.635,1.226
			c-1.435,2.492-2.555,5.165-3.797,7.77c-2.513,4.384-5.081,8.737-7.52,13.161c-1.247,2.261-2.263,4.652-3.383,6.984
			c-0.57,0.927-1.141,1.854-1.712,2.78c-0.708,1.244-1.417,2.487-2.457,4.318c-1.251-2.414-2.252-4.349-3.252-6.283
			c-0.013-0.187-0.029-0.371-0.05-0.555c-1.453-5.764-0.153-11.204,1.94-16.549"/>
		<path fill-rule="evenodd" clip-rule="evenodd" fill="#2A6160" d="M55.583,110.624c-0.776,1.776-1.305,3.661-1.933,5.502
			c0.422-0.021,1.522,0.142,1.747-0.217c2.652-4.238,13.087-13.957,15.95-15.951c2.045-1.425-12.654,4.689-14.608,8.71
			L55.583,110.624z"/>
		<path fill-rule="evenodd" clip-rule="evenodd" fill="#3C7978" d="M140.75,115.527c-9.743,1.966-17.513,7.807-23.046,16.282
			c-0.217,0.332-0.627,0.538-0.943,0.803c0,0.229,0.004,0.459,0.006,0.688c3.955,0.194,7.907,0.389,11.864,0.583l44.028,0.619
			c0-2.555-8.055-13.148-16.409-17.013C152.293,115.659,144.981,114.673,140.75,115.527z"/>
	</g>
</g>
</svg>
