<?xml version="1.0" encoding="utf-8"?>
<!-- Generator: Adobe Illustrator 16.0.0, SVG Export Plug-In . SVG Version: 6.00 Build 0)  -->
<!DOCTYPE svg PUBLIC "-//W3C//DTD SVG 1.1//EN" "http://www.w3.org/Graphics/SVG/1.1/DTD/svg11.dtd">
<svg version="1.1" id="Layer_1" xmlns="http://www.w3.org/2000/svg" xmlns:xlink="http://www.w3.org/1999/xlink" x="0px" y="0px"
	  viewBox="0 0 195 293" enable-background="new 0 0 195 293" xml:space="preserve">
<rect fill="#D1E8C5" width="195" height="293"/>
<g>
	<path fill-rule="evenodd" clip-rule="evenodd" fill="#AC4D9D" d="M91.603,95.273c0.116-1.457,2.314-3.307,1.78-4.463
		c-4.229-9.15-7.183-17.558-6.53-27.677c-7.425-4.922-15.692-10.794-23.961-16.273c1.404,18.08,6.811,35.144,19.489,44.743
		c3.522,2.667,8.956,3.67,8.956,3.67"/>
	<g id="sUNq8U_1_">
		<g>
			<path fill-rule="evenodd" clip-rule="evenodd" fill="#EAC259" d="M55.208,187.498c-1.98-1.253-3.961-2.509-5.94-3.761
				c-0.653-2.494-1.782-4.971-1.863-7.483c-0.208-6.453,3.083-9.55,9.53-9.59c8.75-0.052,17.501-0.114,26.252-0.17
				c3.989-0.033,7.979-0.065,11.967-0.099c1.56,0.014,3.12,0.029,4.68,0.043c12.382,0.082,24.766,0.179,37.149,0.239
				c7.183,0.034,9.802,2.135,10.526,8.564c0.699,6.204-2.501,10.387-8.858,11.576c-0.626,0.312-1.253,0.62-1.878,0.931l0.024-0.024
				c-2.409-0.313-4.817-0.893-7.228-0.9c-23.151-0.065-46.302-0.052-69.453-0.006C58.48,186.822,56.843,187.26,55.208,187.498z"/>
			<path fill-rule="evenodd" clip-rule="evenodd" fill="#95C63D" d="M76.784,139.764c-3.066-3.082-6.134-6.162-9.201-9.243
				c-0.611-0.312-1.223-0.623-1.833-0.935c-4.263-4.912-8.526-9.823-12.789-14.734c0.343-0.25,0.745-0.77,1.023-0.711
				c14.54,3.096,28.075,7.957,36.793,21.192c0.666,1.014,1.649,1.82,2.487,2.722c0.386-0.153,0.773-0.307,1.161-0.461
				c0-11.258,0-22.517,0-33.776c0.089-2.449,0.18-4.897,0.271-7.346c1.759,0.015,3.516,0.029,5.273,0.044
				c-0.006,6.652-0.012,13.302-0.02,19.954c-2.008,5.043-4.623,9.983-3.207,15.89c1.015-0.221,1.6-0.167,1.862-0.433
				c6.07-6.151,12.172-12.271,18.115-18.543c2.854-3.01,5.395-6.318,8.076-9.491c0.477,0.664,1.451,1.413,1.355,1.979
				c-2.161,12.673-8.472,26.556-24.313,28.334c-0.653,0.073-1.181,1.251-1.767,1.914c-0.128,0.279-0.13,0.561-0.002,0.841
				c0.002,0.608,0.006,1.216,0.007,1.823c-0.067,0.611-0.137,27.001-0.204,27.613l-5.522,0.006v-12.718v-7.138L76.784,139.764z"/>
			<path fill-rule="evenodd" clip-rule="evenodd" fill="#DB9FC8" d="M101.808,95.706c7.515-11.01,10.226-22.293,8.761-35.777
				c6.562-3.925,14.415-8.547,20.979-12.473c-0.369,12.982-3.422,25.166-11.224,35.771C115.683,89.536,109.99,94.533,101.808,95.706
				z"/>
			<path fill-rule="evenodd" clip-rule="evenodd" fill="#ACB537" d="M52.962,114.852c0.579,7.347,2.629,11.063,9.292,19.52
				c0.035,0.044,6.279,7.816,23.648,11.661h6.977L52.962,114.852z"/>
			<path fill-rule="evenodd" clip-rule="evenodd" fill="#DEA527" d="M137.144,186.779C137.03,186.7,137.26,186.859,137.144,186.779
				c-2.41-0.312-5.163,0.053-7.573,0.045c-23.151-0.065-46.302-0.052-69.453-0.006c-1.638,0.004-3.274,0.441-4.91,0.68
				c0.512,1.303,1.025,2.607,1.538,3.91c26.988,0.008,53.976,0.016,80.963,0.023l0.345,0.158c0.195-0.703,0.39-1.408,0.585-2.113
				c0.003-0.885,0.01-1.771,0.013-2.658L137.144,186.779z"/>
			<path fill-rule="evenodd" clip-rule="evenodd" fill="#ACB537" d="M124.797,103.892c-2.682,3.173-5.222,6.481-8.076,9.491
				c-5.943,6.271-12.045,12.392-18.115,18.543c-0.262,0.266-0.847,0.211-1.862,0.433c-1.416-5.907,1.198-10.847,3.207-15.89
				C106.844,109.532,114.839,104.774,124.797,103.892z"/>
			<path fill-rule="evenodd" clip-rule="evenodd" fill="#EDC55C" d="M56.746,191.408c26.988,0.008,53.976,0.016,80.963,0.023
				c-1.992,13.467-3.979,26.934-5.984,40.398c-0.449,3.028-0.874,6.062-1.455,9.064c-0.608,3.129-2.042,5.28-5.792,5.245
				c-17.942-0.17-35.889-0.193-53.832-0.344c-1.314-0.01-2.623-0.618-3.935-0.948c-1.507-6.5-3.285-12.952-4.466-19.512
				C60.216,214.063,58.559,202.723,56.746,191.408z"/>
			<path fill-rule="evenodd" clip-rule="evenodd" fill="#C84D44" d="M94.351,96.241c-0.643-0.247-1.288-0.495-1.933-0.743
				C93.062,95.746,93.706,95.994,94.351,96.241z"/>
			<path fill-rule="evenodd" clip-rule="evenodd" fill="#B86CAC" d="M101.808,95.706c-0.614,0.27-1.227,0.541-1.838,0.81
				c-1.758-0.015-3.514-0.03-5.275-0.044c-0.002,0-0.344-0.23-0.344-0.23c-0.645-0.247-1.288-0.495-1.933-0.743
				c-0.292-0.001-0.563-0.077-0.815-0.225c0.116-1.457,0.796-3.171,0.263-4.327c-4.229-9.149-6.505-18.645-5.853-28.764
				c3.771-4.967,7.541-9.935,11.457-15.093c5.062,4.274,9.726,8.21,14.389,12.145C113.322,72.716,109.322,84.695,101.808,95.706z"/>
		</g>
	</g>
</g>
</svg>
