<?xml version="1.0" encoding="utf-8"?>
<!-- Generator: Adobe Illustrator 16.0.0, SVG Export Plug-In . SVG Version: 6.00 Build 0)  -->
<!DOCTYPE svg PUBLIC "-//W3C//DTD SVG 1.1//EN" "http://www.w3.org/Graphics/SVG/1.1/DTD/svg11.dtd">
<svg version="1.1" xmlns="http://www.w3.org/2000/svg" xmlns:xlink="http://www.w3.org/1999/xlink" x="0px" y="0px"
 viewBox="0 0 195 293" enable-background="new 0 0 195 293" xml:space="preserve">
<g id="bg">
	<rect fill-rule="evenodd" clip-rule="evenodd" fill="#990033" width="195" height="293"/>
</g>
<g id="harp">
	<g>
		<path fill-rule="evenodd" clip-rule="evenodd" fill="#FFFF00" d="M42.794,111.824c-0.802-0.002-1.604-0.005-2.406-0.007
			c0.931,1.743,1.861,3.487,2.842,5.327c-1.492,1.371-2.91,2.673-4.443,4.081c21.194,36.614,42.231,72.958,63.211,109.307
			c1.158,2.007,1.849,4.038,2.757,6.468c0.81,0,1.621,0,2.43,0c1.535-2.43,2.65-6.226,4.703-8.729
			c3.407-4.153,2.747-7.312-0.125-11.632C88.612,181.812,65.747,146.782,42.794,111.824z"/>
		<path fill-rule="evenodd" clip-rule="evenodd" fill="#FFFF00" d="M171.58,212.663c-4.502-3.479-10.188-1.832-12.291,4.049
			c3.762-1.986,7.617-3.017,9.076,1.756c1.393,4.547-1.896,7.084-6.062,8.102c-1.736,0.423-3.697,0.647-5.434,0.353
			c-5.457-0.924-10.881-2.139-16.487-3.276c26.589-36.964,26.068-76.235,14.124-117.368c-2.558,1.069-4.251,1.726-5.897,2.476
			c-1.741,0.795-3.445,1.676-5.434,2.653c17.905,44.143,15.969,85.162-17.441,121.277c12.442-0.978,25.052-1.482,37.009-3.11
			c4.115-0.56,7.258-3.917,12.258-5.998c0-2.836,0-5.669,0-8.504C173,214.267,172.577,213.434,171.58,212.663z"/>
		<path fill-rule="evenodd" clip-rule="evenodd" fill="#FFFF00" d="M49.913,76.14c11.625,2.958,23.004,7,34.295,11.122
			c13.394,4.888,26.333,11.183,39.954,15.245c13.57,4.047,27.042,1.85,39.763-6.045c-1.917-5.193-3.709-10.051-5.501-14.909
			c-7.426,5.973-15.847,9.274-25.399,9.935c-11.726,0.812-22.735-2.177-33.647-5.843c-11.993-4.026-23.817-8.651-35.992-12.011
			c-12.037-3.322-24.271-4.056-35.329,3.801c-5.683,1.5-2.305,4.762-1.686,7.958c1.381-0.667,2.423-1.17,3.466-1.672
			c6.862-1.879,13.646-3.082,20.612-0.045c3.688,1.607,4.755,3.752,3.845,6.068c-7.428-1.22-14.329-2.483-21.285-3.333
			C31.394,86.213,28.048,86,30.205,90c0.568,0,1.137,0,1.706,0c7.18-2,12.889,1.238,17.2,6.29
			c16.898,19.796,33.853,39.549,50.06,59.908c12.677,15.923,24.282,32.688,36.386,49.115c4.226-4.318,5.768-8.343,0.625-13.196
			c-1.574-1.485-2.142-4.666-2.159-7.076c-0.158-22.037-0.079-44.076-0.115-66.114c-0.005-1.974-0.14-3.946-0.317-5.92
			c-0.596,0.047-0.59,0.096-1.59,0.144c0,23.984,0,47.968,0,72.875c-7-7.497-13.242-14.47-12.066-25.266
			c1.068-9.791,0.213-19.792,0.102-29.696c-0.076-6.823-0.466-13.642-0.688-20.463c-0.327-0.281-0.162-0.562-0.489-0.843
			c-0.118,0.271,0.143,0.541,0.143,0.812c0,19.047,0,38.094,0,58.218c-9-6.656-11.949-13.221-11.279-22.487
			c0.855-11.861-0.006-23.833-0.102-35.757c-0.014-1.815-0.647-3.628-1.008-5.441c-0.545,0.079-1.611,0.156-1.611,0.233
			c0,15.643,0,31.287,0,47.889c-6-5.51-9.05-10.236-8.587-17.825c0.724-11.865-0.042-23.816-0.133-35.732
			c-0.233-0.382,0.116-0.764-0.117-1.147C95.915,98.883,96,99.247,96,99.609c0,13.26,0,26.52,0,40.868
			c-8-5.455-9.418-10.842-8.982-17.898c0.568-9.218-0.298-18.502-0.372-27.76c-0.296-0.329-0.28-0.656-0.577-0.983
			C85.941,94.143,86,94.447,86,94.753c0,10.904,0,21.807,0,33.955c-6-5.32-9.177-10.122-8.625-16.839
			c0.588-7.156,0.332-14.4,0.332-21.606C77.071,90.275,76,90.285,76,90.296c0,7.976,0,15.952,0,23.928c0,0.7-0.306,1.4-0.155,3.025
			c-1.229-1.463-2.091-2.229-2.733-2.995c-4.15-3.206-5.733-7.361-5.356-12.607c0.382-5.327,0.13-10.7,0.13-16.053
			C67.241,85.601,66,85.605,66,85.611c0,6.377,0,12.755,0,20.101c-6-7.111-6.78-7.146-6.082-17.226
			c0.422-6.062-2.123-8.662-7.292-9.374c-5.476-0.753-11.055-0.92-16.579-1.327c-0.071,0.011-0.155,0.023-0.226,0.033l-0.087-0.052
			c0.099,0.007,0.193,0.012,0.292,0.019C40.692,77.099,45.696,75.066,49.913,76.14z"/>
		<path fill-rule="evenodd" clip-rule="evenodd" fill="#FFFF00" d="M62.908,69.924c14.348,3.917,28.432,8.797,42.659,13.164
			c17.442,5.353,34.74,7.187,51.438-2.584c3.22-2.662,6.438-5.324,9.525-7.877c-2.55-5.907-4.854-11.242-7.156-16.576
			c-1.51,1.165-3.22,2.145-4.5,3.523c-8.843,9.515-19.675,15.042-32.68,14.628c-9.628-0.309-19.257-1.765-28.805-3.228
			c-13.926-2.134-27.708-5.445-41.691-6.889c-9.792-1.012-19.201,1.872-26.186,9.794c-0.301,0.508-0.605,1.017-0.906,1.526
			c0.579-0.104,1.16-0.209,1.74-0.312C37.719,67.608,50.19,66.451,62.908,69.924z"/>
		<path fill-rule="evenodd" clip-rule="evenodd" fill="#FFFF00" d="M104.911,179.924c-20.684-27.171-41.384-54.331-62.076-81.494
			c-2.802-5.436-7.386-7.249-13.227-6.501c-1.733,0.812-3.465,1.623-5.197,2.435c-0.342-0.268-0.684-0.535-1.024-0.802
			c-0.831,2.037-1.662,4.074-2.493,6.112c1.09-0.304,2.432-0.301,3.229-0.958c7.566-6.234,11.223-6.024,17.326,1.182
			c27.217,40.837,54.434,81.676,81.682,122.494c0.279,0.421,0.95,0.581,1.561,0.933c2.402-2.802,4.724-5.511,6.974-8.138
			C122.502,203.105,113.725,191.502,104.911,179.924z"/>
		<path fill-rule="evenodd" clip-rule="evenodd" fill="#FFFF00" d="M27.334,103.616c0.122,1.69,3.414,4.611,4.909,4.384
			c2.034-0.31,4.907-2.943,5.148-4.867c0.215-1.71-2.663-3.811-5.362-7.249C29.659,99.535,27.192,101.669,27.334,103.616z"/>
		<path fill-rule="evenodd" clip-rule="evenodd" fill="#FFFF00" d="M27.765,90.066c0.077-0.159,0.238-0.334,0.212-0.477
			c-0.054-0.312-0.204-0.606-0.315-0.908c-0.608,0.082-1.217,0.165-1.827,0.247c-1.428,1.169-5.691,0.834-2.42,4.501
			c0.375-0.386,0.75-0.772,1.125-1.158C25.614,91.537,26.688,90.802,27.765,90.066z"/>
		<path fill-rule="evenodd" clip-rule="evenodd" fill="#FFFF00" d="M23.414,93.43c-0.028,0.03-0.057,0.058-0.084,0.086
			c0.019,0.014,0.038,0.03,0.057,0.045c0.016-0.038,0.03-0.074,0.044-0.11C23.425,93.443,23.421,93.438,23.414,93.43z"/>
	</g>
</g>
</svg>
