<?xml version="1.0" encoding="utf-8"?>
<!-- Generator: Adobe Illustrator 16.0.0, SVG Export Plug-In . SVG Version: 6.00 Build 0)  -->
<!DOCTYPE svg PUBLIC "-//W3C//DTD SVG 1.1//EN" "http://www.w3.org/Graphics/SVG/1.1/DTD/svg11.dtd">
<svg version="1.1" xmlns="http://www.w3.org/2000/svg" xmlns:xlink="http://www.w3.org/1999/xlink" x="0px" y="0px" width="828px"
	 height="1280px" viewBox="0 0 828 1280" enable-background="new 0 0 828 1280" xml:space="preserve">
<g id="Layer_2">
	<rect fill-rule="evenodd" clip-rule="evenodd" fill="#99CC33" width="828" height="1280"/>
</g>
<g id="Layer_1">
	<g id="dLDsWn_1_">
		<circle fill-rule="evenodd" clip-rule="evenodd" fill="#4E853F" cx="258.991" cy="387.027" r="50.675"/>
		<circle fill-rule="evenodd" clip-rule="evenodd" fill="#4E853F" cx="561.991" cy="387.027" r="50.675"/>
		<g>
			<path fill-rule="evenodd" clip-rule="evenodd" fill="#4E853F" d="M529.337,354.146c6.066-3.102,12.136-6.202,18.203-9.303
				c23.612-2.611,45.187,1.432,58.057,23.5c4.938,8.468,7.156,19.53,7.463,29.507c1.021,33.15,0.61,66.345,0.747,99.522
				c0.02,1.635,0.041,3.271,0.062,4.905c0.092,2.446,0.184,4.892,0.273,7.337c0.055,6.839,0.11,13.678,0.173,20.519
				c-0.313,0.696-0.339,1.403-0.064,2.119c0,23.027,0,46.056,0,70.06c40.641-7.033,80.093-4.262,116.771,12.664
				c37.289,17.208,64.959,44.428,72.831,87.177c-0.059,1.326-0.118,2.651-0.178,3.978c0,0-0.097,0.081-0.098,0.081
				c-0.2,59.214-48.06,98.284-100.921,111.65c-34.579,8.743-69.771,15.058-104.678,22.507c-18.695,3.99-37.367,8.082-58.899,12.746
				c49.014,21.08,95.296,40.985,142.966,61.489c-42.896,1.605-83.629,3.13-124.36,4.655c-3.29-0.312-6.577-0.622-9.865-0.934
				c-1.868,0.07-3.733,0.14-5.601,0.209c-4.167,0.202-8.335,0.404-12.501,0.606c-3.526-1.162-7.053-2.325-10.577-3.487
				c-0.535,0.871-1.071,1.742-1.605,2.611c3.937,3.255,7.873,6.509,11.811,9.764c-1.175,1.15-2.567,3.449-3.492,3.274
				c-11.367-2.15-18.262,3.54-22.389,11.075c-7.263-4.091-14.367-11.153-21.596-11.282c-6.897-0.123-13.921,6.979-18.64,9.637
				c-8.59-4.386-17.312-8.842-26.314-13.438c-0.172,0.68-0.234-0.458,0.25-0.787c24.234-16.389,21.688-41.182,21.092-65.641
				c-0.521-21.388-0.109-42.797-0.109-64.541c-14.166,1.584-27.645,4.025-41.172,4.344c-13.696,0.322-27.441-1.451-42.416-2.386
				c0,33.287-0.89,66.813,0.719,100.219c0.338,7.031,9.602,13.829,15.215,20.337c3.507,4.065,7.878,7.383,9.941,9.276
				c-9.316,4.319-18.773,8.702-28.496,13.21c-8.889-14.779-25.023-14.83-38.637,4.036c-5.245-13.247-15.054-16.691-27.534-13.567
				c1.939-3.059,3.88-6.118,5.819-9.178c4.521-4.505,9.041-9.011,13.561-13.515c8.362-4.978,13.822-10.578,12.027-22.094
				c-1.725-11.053-0.273-22.598-0.266-33.926c0.018-26.496,0.005-52.992,0.005-79.49c-1.516-0.138-3.032-0.275-4.548-0.413
				c-1.139,13.057-2.279,26.114-3.568,40.903c-9.431-5.483-17.31-10.064-25.188-14.646c-0.787-0.938-1.396-2.166-2.386-2.772
				c-27.717-17.006-55.347-34.159-83.269-50.822c-16.425-9.802-33.324-18.808-50.01-28.173
				c-9.508-11.778-23.033-16.35-35.667-22.519c-0.826,1.349-1.651,2.698-2.478,4.048c10.864,6.547,21.729,13.095,32.593,19.643
				c23.674,15.067,47.193,30.387,71.067,45.129c23.06,14.239,46.486,27.885,69.752,41.79c3.771,2.623,7.331,5.642,11.354,7.79
				c10.624,5.668,17.564,12.097,15.368,26.336c-1.932,12.527-0.548,25.682,0.339,38.491c0.792,11.435-1.477,21.439-9.294,29.97
				l0.089,0.016c-1.001,0.897-2.002,1.794-3.005,2.691c-2.309,1.732-4.617,3.464-6.926,5.196c-2.567,0.337-5.134,0.675-7.701,1.014
				c-0.781-0.101-1.56-0.2-2.34-0.301c-3.403,0.044-6.807,0.087-10.21,0.131c-1.703-0.198-3.405-0.397-5.108-0.597
				c-1.692-0.008-3.386-0.016-5.078-0.022c-1.705,0.213-3.409,0.427-5.112,0.64c-4.219-0.092-8.438-0.184-12.657-0.275
				c-3.401,0.114-6.803,0.229-10.204,0.344c-22.228-0.449-44.455-0.987-66.686-1.312c-12.923-0.188-25.854-0.033-39.712-2.642
				c49.912-18.749,99.822-37.497,149.732-56.245c-0.229-0.773-0.457-1.547-0.687-2.319c-33.834-7.316-67.69-14.538-101.497-21.979
				c-26.997-5.945-54.501-10.377-80.759-18.703c-33.133-10.507-61.442-29.213-78.955-60.842c-3.026-5.466-5.249-11.375-7.842-17.079
				c-0.527-2.147-1.056-4.294-1.584-6.441c-1.17-20.242-0.929-39.911,9.447-58.671c15.075-27.255,37.287-45.484,65.584-57.265
				c33.675-14.019,68.533-18.174,107.061-12.368c0-22.003,0-43.236,0-64.471c0.003-48.286-0.441-96.58,0.4-144.853
				c0.161-9.195,5.401-18.301,8.29-27.455c4.537-4.44,9.081-8.875,13.625-13.31c12.951-2.139,25.902-4.279,38.853-6.418
				c21.041,2.672,42.02,25.471,42.351,48.95c0.104,7.435,0.016,14.871,0.016,22.125c24.97-7.305,48.482-14.184,71.993-21.061
				c3.375-0.188,6.75-0.376,10.125-0.563c1.706,0.02,3.412,0.041,5.118,0.061c39.277-3.604,75.597,7.119,112.768,24.673
				c-1.099-24.77,0.234-47.561,18.546-64.855C528.938,354.146,529.337,354.146,529.337,354.146z M669.421,715.44
				c23.148-11.497,25.678-13.962,22.033-21.991c-8.231,5.742-16.409,11.447-24.587,17.151c-6.274,4.097-12.548,8.193-18.822,12.292
				c-45.373,28.975-90.747,57.951-136.12,86.928c-1.486,0.709-2.973,1.418-4.459,2.128c-0.432-4.996-0.863-9.993-1.295-14.988
				c0.374-0.86,0.223-1.616-0.454-2.267c0-12.887,0-25.772,0-38.659c-1.315-0.095-2.632-0.188-3.948-0.283
				c-0.715,2.448-2.002,4.885-2.05,7.347c-0.257,13.038-0.2,26.082-0.256,39.123c-0.123,28.965-0.619,57.936-0.028,86.885
				c0.105,5.145,4.726,10.195,7.262,15.29c3.774,4.096,7.549,8.191,11.323,12.288c1.311-1.304,2.619-2.606,3.93-3.91
				c-4.894-4.443-9.787-8.887-14.682-13.331c-0.168-26.74-0.335-53.481-0.503-80.222c1.073-0.551,2.146-1.102,3.221-1.651
				c8.746-4.818,17.826-9.121,26.179-14.546c32.245-20.937,64.288-42.186,96.329-63.433c6.565-4.353,12.799-9.204,19.185-13.826
				C657.593,722.323,663.508,718.881,669.421,715.44z M563.622,420.84c17.199-3.655,24.083-9.924,25.529-26.123
				c0.901-10.089-3.07-18.763-13.854-22.423c-4.424-1.788-8.846-5.086-13.271-5.09c-14.86-0.011-27.282,12.32-26.742,25.307
				C535.998,409.674,546.945,420.617,563.622,420.84z M257.226,420.814c3.637-0.924,7.661-1.149,10.841-2.903
				c9.887-5.451,16.154-13.812,14.641-25.499c-1.155-8.915-2.634-18.696-14.743-20.056c-10.708-8.086-20.796-5.87-30.654,1.731
				c-9.409,7.254-10.591,17.923-7.827,27.486C233.16,414.29,243.649,420.611,257.226,420.814z"/>
			<path fill-rule="evenodd" clip-rule="evenodd" fill="#F5F5F6" d="M252.744,276.12c-1.077-0.312-2.155-0.626-3.232-0.938
				c1.079,0.31,2.16,0.619,3.241,0.929L252.744,276.12z"/>
			<path fill-rule="evenodd" clip-rule="evenodd" fill="#F7F8F8" d="M803.676,706.131c0.06-1.326,0.119-2.651,0.178-3.978
				C803.794,703.479,803.734,704.805,803.676,706.131z"/>
			<path fill-rule="evenodd" clip-rule="evenodd" fill="#F7F8F8" d="M542.22,918.535c1.867-0.069,3.732-0.139,5.601-0.209
				C545.952,918.396,544.087,918.466,542.22,918.535z"/>
			<path fill-rule="evenodd" clip-rule="evenodd" fill="#ECEEEC" d="M257.226,420.814c-13.576-0.203-24.065-6.524-27.742-19.24
				c-2.765-9.563-1.582-20.232,7.827-27.486c9.858-7.602,19.946-9.817,30.653-1.729C254.349,386.29,253.46,403.036,257.226,420.814z
				"/>
			<path fill-rule="evenodd" clip-rule="evenodd" fill="#ECEEEC" d="M563.622,420.84c-16.677-0.223-27.624-11.166-28.338-28.329
				c-0.54-12.986,11.882-25.317,26.742-25.307c4.426,0.004,8.848,3.302,13.27,5.093C561.045,385.987,559.976,402.847,563.622,420.84
				z"/>
			<path fill-rule="evenodd" clip-rule="evenodd" fill="#080A07" d="M257.226,420.814c-3.766-17.778-2.877-34.524,10.738-48.456
				c12.109,1.357,13.588,11.139,14.744,20.054c1.514,11.687-4.753,20.048-14.641,25.499
				C264.886,419.665,260.862,419.891,257.226,420.814z"/>
			<path fill-rule="evenodd" clip-rule="evenodd" fill="#090B09" d="M563.622,420.84c-3.646-17.993-2.577-34.853,11.674-48.543
				c10.785,3.657,14.757,12.331,13.855,22.42C587.705,410.916,580.821,417.185,563.622,420.84z"/>
			<path fill-rule="evenodd" clip-rule="evenodd" fill="#DBE3D5" d="M511.925,809.82c-1.487,0.707-2.977,1.415-4.461,2.126
				C508.952,811.238,510.438,810.529,511.925,809.82z"/>
			<path fill-rule="evenodd" clip-rule="evenodd" fill="#F3F3F3" d="M303.439,917.265c-0.781-0.101-1.561-0.201-2.34-0.301
				C301.879,917.064,302.658,917.164,303.439,917.265z"/>
			<path fill-rule="evenodd" clip-rule="evenodd" fill="#E0E6DD" d="M321.071,908.363c-1.001,0.897-2.002,1.794-3.003,2.691
				C319.068,910.157,320.07,909.261,321.071,908.363z"/>
			<path fill-rule="evenodd" clip-rule="evenodd" fill="#DBE3D5" d="M506.765,819.221c1.072-0.551,2.146-1.102,3.22-1.651
				C508.911,818.119,507.838,818.67,506.765,819.221z"/>
			<path fill-rule="evenodd" clip-rule="evenodd" fill="#DBE3D5" d="M506.171,796.96c-0.32-0.49-0.705-0.954-0.925-1.485
				c-0.068-0.167,0.302-0.516,0.472-0.781C506.394,795.344,506.545,796.1,506.171,796.96z"/>
		</g>
	</g>
	<rect x="246" y="498" fill-rule="evenodd" clip-rule="evenodd" fill="#0E160D" width="330" height="7"/>
</g>
</svg>
