<?xml version="1.0" encoding="utf-8"?>
<!-- Generator: Adobe Illustrator 16.0.0, SVG Export Plug-In . SVG Version: 6.00 Build 0)  -->
<!DOCTYPE svg PUBLIC "-//W3C//DTD SVG 1.1//EN" "http://www.w3.org/Graphics/SVG/1.1/DTD/svg11.dtd">
<svg version="1.1" xmlns="http://www.w3.org/2000/svg" xmlns:xlink="http://www.w3.org/1999/xlink" x="0px" y="0px" 
	viewBox="0 0 195 293" enable-background="new 0 0 195 293" xml:space="preserve">
<g id="bg">
	<rect fill-rule="evenodd" clip-rule="evenodd" fill="#99CC33" width="195" height="293"/>
</g>
<g id="Layer_1">
	<g>
		<g id="dLDsWn_1_">
			<circle fill-rule="evenodd" clip-rule="evenodd" fill="#4E853F" cx="67.739" cy="103.654" r="9.726"/>
			<circle fill-rule="evenodd" clip-rule="evenodd" fill="#4E853F" cx="125.892" cy="103.654" r="9.726"/>
			<g>
				<path fill-rule="evenodd" clip-rule="evenodd" fill="#4E853F" d="M119.625,97.343c1.164-0.595,2.329-1.19,3.493-1.785
					c4.532-0.501,8.673,0.275,11.143,4.51c0.948,1.625,1.374,3.748,1.433,5.663c0.196,6.362,0.117,12.733,0.144,19.101
					c0.004,0.314,0.008,0.628,0.012,0.941c0.018,0.47,0.035,0.939,0.053,1.408c0.011,1.312,0.021,2.625,0.033,3.938
					c-0.061,0.134-0.065,0.27-0.013,0.407c0,4.419,0,8.839,0,13.446c7.8-1.35,15.372-0.818,22.411,2.43
					c7.157,3.303,12.468,8.527,13.979,16.731c-0.012,0.255-0.022,0.509-0.034,0.764l-0.019,0.016
					c-0.038,11.364-9.224,18.863-19.369,21.429c-6.637,1.678-13.391,2.89-20.091,4.319c-3.588,0.766-7.171,1.551-11.304,2.446
					c9.407,4.046,18.289,7.866,27.438,11.801c-8.232,0.309-16.051,0.602-23.868,0.895c-0.631-0.061-1.262-0.12-1.893-0.18
					c-0.359,0.014-0.717,0.026-1.075,0.04c-0.8,0.039-1.6,0.078-2.399,0.116c-0.677-0.223-1.354-0.446-2.03-0.669
					c-0.103,0.167-0.205,0.334-0.308,0.501c0.755,0.625,1.511,1.249,2.267,1.874c-0.226,0.221-0.493,0.662-0.67,0.628
					c-2.182-0.412-3.505,0.68-4.297,2.126c-1.395-0.785-2.758-2.141-4.146-2.165c-1.323-0.023-2.672,1.339-3.577,1.85
					c-1.648-0.842-3.322-1.697-5.051-2.579c-0.032,0.13-0.045-0.088,0.049-0.151c4.65-3.146,4.162-7.903,4.048-12.598
					c-0.101-4.105-0.021-8.214-0.021-12.388c-2.719,0.305-5.306,0.772-7.901,0.834c-2.629,0.062-5.267-0.278-8.141-0.458
					c0,6.389-0.17,12.823,0.138,19.234c0.064,1.35,1.843,2.654,2.92,3.903c0.673,0.78,1.512,1.417,1.908,1.78
					c-1.788,0.829-3.604,1.67-5.469,2.535c-1.706-2.836-4.803-2.846-7.415,0.774c-1.007-2.542-2.889-3.203-5.285-2.604
					c0.372-0.587,0.745-1.174,1.117-1.762c0.867-0.864,1.735-1.729,2.603-2.594c1.604-0.955,2.653-2.03,2.308-4.24
					c-0.331-2.121-0.052-4.337-0.051-6.511c0.003-5.086,0-10.171,0-15.257c-0.291-0.026-0.582-0.053-0.873-0.079
					c-0.219,2.506-0.438,5.012-0.685,7.851c-1.81-1.053-3.322-1.932-4.834-2.811c-0.151-0.18-0.268-0.416-0.458-0.532
					c-5.319-3.264-10.622-6.556-15.981-9.754c-3.152-1.882-6.396-3.61-9.598-5.407c-1.825-2.261-4.421-3.138-6.845-4.322
					c-0.159,0.259-0.317,0.519-0.476,0.777c2.085,1.257,4.17,2.513,6.255,3.77c4.544,2.892,9.058,5.832,13.64,8.661
					c4.426,2.733,8.922,5.353,13.387,8.021c0.724,0.504,1.407,1.083,2.179,1.495c2.039,1.088,3.371,2.322,2.949,5.055
					c-0.371,2.404-0.105,4.93,0.065,7.388c0.152,2.194-0.284,4.114-1.784,5.752l0.017,0.003c-0.192,0.172-0.384,0.344-0.577,0.517
					c-0.443,0.333-0.886,0.665-1.329,0.997c-0.493,0.064-0.985,0.13-1.478,0.194c-0.15-0.019-0.299-0.038-0.449-0.058
					c-0.653,0.009-1.306,0.017-1.959,0.025c-0.327-0.038-0.653-0.076-0.98-0.114c-0.325-0.002-0.65-0.003-0.975-0.005
					c-0.327,0.041-0.654,0.082-0.981,0.123c-0.81-0.018-1.619-0.035-2.429-0.053c-0.653,0.021-1.306,0.044-1.958,0.066
					c-4.266-0.087-8.532-0.19-12.799-0.252c-2.48-0.037-4.962-0.007-7.622-0.508c9.579-3.598,19.158-7.196,28.737-10.794
					c-0.044-0.148-0.087-0.297-0.132-0.445c-6.494-1.404-12.991-2.79-19.479-4.219c-5.182-1.141-10.46-1.991-15.5-3.59
					c-6.359-2.017-11.792-5.606-15.153-11.677c-0.581-1.049-1.007-2.184-1.505-3.278c-0.101-0.412-0.203-0.823-0.304-1.236
					c-0.225-3.885-0.178-7.659,1.813-11.26c2.894-5.231,7.156-8.729,12.587-10.991c6.463-2.69,13.153-3.487,20.547-2.373
					c0-4.223,0-8.298,0-12.374c0.001-9.268-0.084-18.536,0.077-27.801c0.031-1.765,1.036-3.512,1.591-5.269
					c0.871-0.852,1.743-1.703,2.615-2.555c2.486-0.41,4.972-0.821,7.457-1.231c4.038,0.513,8.064,4.888,8.128,9.395
					c0.02,1.427,0.003,2.854,0.003,4.247c4.792-1.402,9.305-2.722,13.817-4.042c0.648-0.036,1.296-0.072,1.943-0.108
					c0.327,0.004,0.655,0.008,0.982,0.012c7.538-0.692,14.509,1.366,21.643,4.735c-0.211-4.754,0.045-9.128,3.56-12.447
					C119.549,97.343,119.625,97.343,119.625,97.343z M146.511,166.685c4.442-2.207,4.928-2.68,4.229-4.221
					c-1.58,1.102-3.149,2.197-4.719,3.291c-1.204,0.787-2.408,1.573-3.612,2.359c-8.708,5.562-17.417,11.123-26.125,16.684
					c-0.285,0.137-0.57,0.272-0.855,0.408c-0.083-0.959-0.166-1.917-0.249-2.876c0.072-0.165,0.043-0.311-0.087-0.436
					c0-2.473,0-4.946,0-7.42c-0.253-0.018-0.505-0.035-0.758-0.054c-0.138,0.47-0.385,0.938-0.394,1.41
					c-0.049,2.502-0.038,5.006-0.049,7.509c-0.023,5.559-0.119,11.119-0.006,16.675c0.021,0.987,0.907,1.957,1.394,2.935
					c0.725,0.786,1.449,1.572,2.174,2.358c0.251-0.25,0.502-0.5,0.754-0.75c-0.939-0.853-1.878-1.706-2.817-2.559
					c-0.032-5.133-0.064-10.265-0.097-15.396c0.206-0.105,0.412-0.212,0.618-0.317c1.679-0.925,3.421-1.751,5.024-2.791
					c6.188-4.019,12.338-8.097,18.487-12.175c1.261-0.835,2.457-1.767,3.683-2.653C144.24,168.005,145.376,167.345,146.511,166.685z
					 M126.205,110.143c3.301-0.702,4.622-1.905,4.899-5.014c0.174-1.936-0.589-3.601-2.658-4.304
					c-0.85-0.343-1.698-0.976-2.548-0.977c-2.852-0.002-5.235,2.365-5.132,4.857C120.903,108,123.005,110.101,126.205,110.143z
					 M67.4,110.138c0.698-0.177,1.47-0.221,2.081-0.557c1.897-1.046,3.101-2.651,2.81-4.894c-0.222-1.711-0.506-3.588-2.83-3.849
					c-2.055-1.552-3.991-1.126-5.883,0.333c-1.806,1.392-2.033,3.439-1.502,5.275C62.781,108.886,64.794,110.099,67.4,110.138z"/>
				<path fill-rule="evenodd" clip-rule="evenodd" fill="#F7F8F8" d="M172.277,164.897c0.012-0.255,0.022-0.509,0.034-0.764
					C172.3,164.389,172.289,164.643,172.277,164.897z"/>
				<path fill-rule="evenodd" clip-rule="evenodd" fill="#F7F8F8" d="M122.098,205.663c0.358-0.014,0.716-0.026,1.075-0.04
					C122.813,205.637,122.456,205.649,122.098,205.663z"/>
				<path fill-rule="evenodd" clip-rule="evenodd" fill="#ECEEEC" d="M67.4,110.138c-2.605-0.039-4.619-1.252-5.324-3.693
					c-0.531-1.835-0.304-3.883,1.502-5.275c1.892-1.459,3.828-1.884,5.883-0.332C66.848,103.512,66.677,106.726,67.4,110.138z"/>
				<path fill-rule="evenodd" clip-rule="evenodd" fill="#ECEEEC" d="M126.205,110.143c-3.2-0.042-5.302-2.143-5.438-5.437
					c-0.104-2.492,2.28-4.859,5.132-4.857c0.85,0,1.698,0.634,2.547,0.978C125.711,103.454,125.505,106.69,126.205,110.143z"/>
				<path fill-rule="evenodd" clip-rule="evenodd" fill="#080A07" d="M67.4,110.138c-0.723-3.412-0.552-6.626,2.061-9.3
					c2.324,0.26,2.608,2.138,2.83,3.849c0.291,2.243-0.913,3.848-2.81,4.894C68.87,109.917,68.098,109.961,67.4,110.138z"/>
				<path fill-rule="evenodd" clip-rule="evenodd" fill="#090B09" d="M126.205,110.143c-0.7-3.453-0.494-6.689,2.24-9.316
					c2.07,0.702,2.833,2.367,2.659,4.303C130.827,108.238,129.506,109.441,126.205,110.143z"/>
				<path fill-rule="evenodd" clip-rule="evenodd" fill="#DBE3D5" d="M116.283,184.798c-0.285,0.136-0.571,0.271-0.856,0.408
					C115.713,185.07,115.998,184.935,116.283,184.798z"/>
				<path fill-rule="evenodd" clip-rule="evenodd" fill="#F3F3F3" d="M76.27,205.419c-0.15-0.019-0.3-0.038-0.449-0.058
					C75.97,205.381,76.12,205.4,76.27,205.419z"/>
				<path fill-rule="evenodd" clip-rule="evenodd" fill="#E0E6DD" d="M79.653,203.711c-0.192,0.172-0.384,0.344-0.576,0.517
					C79.269,204.055,79.461,203.883,79.653,203.711z"/>
				<path fill-rule="evenodd" clip-rule="evenodd" fill="#DBE3D5" d="M115.293,186.603c0.206-0.105,0.411-0.212,0.618-0.317
					C115.705,186.391,115.499,186.497,115.293,186.603z"/>
				<path fill-rule="evenodd" clip-rule="evenodd" fill="#DBE3D5" d="M115.179,182.33c-0.062-0.095-0.135-0.184-0.178-0.285
					c-0.013-0.032,0.059-0.099,0.091-0.15C115.222,182.02,115.251,182.165,115.179,182.33z"/>
			</g>
		</g>
		<rect x="65" y="125" fill-rule="evenodd" clip-rule="evenodd" fill="#0E160D" width="63" height="1"/>
	</g>
</g>
</svg>
