<?xml version="1.0" encoding="utf-8"?>
<!-- Generator: Adobe Illustrator 18.1.1, SVG Export Plug-In . SVG Version: 6.00 Build 0)  -->
<svg version="1.1" id="Layer_1" xmlns="http://www.w3.org/2000/svg" xmlns:xlink="http://www.w3.org/1999/xlink" x="0px" y="0px"
	 viewBox="0 0 195 293" enable-background="new 0 0 195 293" xml:space="preserve">
<rect fill="#6699CC" width="195" height="293"/>
<path fill="#FFCF55" d="M103,219.7c-1.2-0.6-2.7,0-3.3,1.2L89.5,243h-3.6c-1.4,0-2.5,1.1-2.5,2.5s1.1,2.5,2.5,2.5h15.2
	c1.4,0,2.5-1.1,2.5-2.5s-1.1-2.5-2.5-2.5h-6.2l9.3-20C104.8,221.7,104.3,220.3,103,219.7z"/>
<path fill="#FFCF55" d="M161.9,243h-7.1c0,0,0-0.1-0.1-0.1l-24.8-20.2c-1-0.9-2.6-0.7-3.4,0.4c-0.9,1-0.7,2.6,0.4,3.4L147,243h-0.3
	c-1.4,0-2.5,1.1-2.5,2.5s1.1,2.5,2.5,2.5h15.2c1.4,0,2.5-1.1,2.5-2.5S163.2,243,161.9,243z"/>
<path fill="#AAAA96" d="M117.3,171l15.8-87.9c0,0,4.1-19.3,29.7-12.4c0,0,2.1,0.4,2,10.2s0,90.1,0,90.1H117.3z"/>
<path fill="#BABA9E" d="M133.9,171l12.1-69.2c0,0,2-14.8,18.7-13.8l0.1,83H133.9z"/>
<path fill="#C52541" d="M171.9,114.5l-1.3-17.2c-0.2-2.6-2.4-4.5-5-4.3c-0.3,0-0.6,0.1-0.8,0.1l0-12.6c-6.1,0-10.9,5-10.9,11.1
	c0,5,3.2,9.3,7.7,10.6l1,12.9c0.2,2.6,2.4,4.5,5,4.3h0C170.1,119.3,172.1,117,171.9,114.5z"/>
<polygon fill="#FFCF55" points="164.8,83.7 178.2,93 164.8,93.1 "/>
<polygon fill="#FFAE20" points="164.8,93.1 173.5,92.9 164.8,99.3 "/>
<path fill="#C52541" d="M130,101h3.5l32.1-32c-0.2-0.9-0.6-1.5-1.3-2.2l-18.8-18.7c-1.9-1.9-5-1.9-6.9,0c-1.9,1.9-1.9,5,0,6.9
	l2.2,2.2c-1.9-1.6-4.8-1.5-6.6,0.3c-1.9,1.9-1.9,5,0,6.9l2.2,2.2c-1.9-1.6-4.8-1.5-6.6,0.3c-1.9,1.9-1.9,5,0,6.9l2.2,2.2
	c-1.9-1.6-4.8-1.5-6.6,0.3c-1.9,1.9-1.9,5,0,6.9l2.2,2.2c-1.9-1.6-4.8-1.5-6.6,0.3c-1.9,1.9-1.9,5,0,6.9l9.1,8.9"/>
<path fill="#383851" d="M167.5,171.1c0-3.5-0.4-7-1-10.3l-1,0.2l-4.6-4l-4.4,5.3l-5.5-4.5l-4,5.8l-5.5-4.7l-4.3,5.8l-5.3-5l-4.3,6.1
	l-5.4-4.8l-4,5.7l-0.7,3.9l-23.4,4.7c3.3-8.1,3.4-17.5-0.5-26.1c-7.6-16.4-27.1-23.6-43.4-16.1l21.5,46.7l-4.8,1
	c3.2,16.7,14.7,30.5,30,37c0.3,5.7,5,10.2,10.8,10.2c4.3,0,8-2.5,9.7-6.1c0.1,0,0.1,0,0.2,0c1.7,3.6,5.4,6.1,9.7,6.1
	c5.9,0,10.8-4.8,10.8-10.7C155.4,209.3,167.5,191.6,167.5,171.1z"/>
<path fill="#555569" d="M17.8,163c7.8-16.2,27.4-23.2,43.7-15.4c16.3,7.8,23.2,27.4,15.4,43.7L17.8,163z"/>
<path fill="#383851" d="M34.4,201.8c-4.8-11.8,0.9-25.4,12.7-30.2s25.4,0.9,30.2,12.7L34.4,201.8z"/>
</svg>
