<?xml version="1.0" encoding="utf-8"?>
<!-- Generator: Adobe Illustrator 18.1.1, SVG Export Plug-In . SVG Version: 6.00 Build 0)  -->
<svg version="1.1" xmlns="http://www.w3.org/2000/svg" xmlns:xlink="http://www.w3.org/1999/xlink" x="0px" y="0px"
	 viewBox="0 0 195 293" enable-background="new 0 0 195 293" xml:space="preserve">
<g>
	<rect fill="#FFCC33" width="195" height="293"/>
</g>
<path fill="#E5452B" d="M178.1,155.1c0,0-5.5-15.5-15.3-11.8c-4.8,1.8-5.9,6.8-5.8,11.4l-1.1-1.4c0,0-0.8-1.5-2.2-1.4
	c0,0-6.1-5.1-7.2-5.2c0,0-1-3.9,1.9-7c0,0-0.8-0.7-1.9-0.5c0.1-4.5,0.1-28.9-5.9-33.7c0,0-1.8-1.4-3.6-0.7
	c-2.8-3.5-11.7-13.3-25-14.8c-0.4-0.9-0.7-1.4-1.1-1.5c-2.6-0.7-10.1,1.9-13.3,3.1c-1.6-4.4-4.3-16.5,10.9-26.4
	c0,0-19.8-17.9-28.1,1.6c-13.7,1.3-29.4-2.5-29.4-2.5c7.8,3.3,22.3,5.6,27.7,6.4c-0.6,0.9-1.4,1.8-2.4,2c0,0,8.8,9.3,17.8-3.9
	c0,0-1.3,14.6-16.8,17.4c0,0,3.5,3.7,5.5,4.1l1.8,4.8c-0.9,0.1-1.6,0.1-2.2,0.1c-3-0.6-14.5,4.5-14.5,4.5c0.1,0,0.1,0.1,0.2,0.1
	c-1,0.7-1.9,1.7-2.7,3.3c0,0-2.5,14.5-1.1,24.1c-6.3,0.9-16.3,4.9-22.7,9.9c-0.2-0.3-0.4-0.4-0.4-0.4c-2.5,3.4-6.5,3.2-6.5,3.2
	c-0.3-1.1-6.4-6.1-6.4-6.1c-0.1-1.4-1.8-1.9-1.8-1.9l-6.1-3.1l4.6,3.9l2,2.5l-4.3-2.2l-7.7,1.4l2.1,0.6l5.7-0.4l2.9,2.3
	c0,0-5-0.2-5.7-0.7c-0.7-0.5-1.5,0.8-1.5,0.8l-5.5,6.1l6.4-5.1l5.7,1.6l-4.8,0.4l-0.6,0.5c-0.1,1.1,3.2,5.9,3.2,5.9
	c-0.2-1.3-1.5-5.3-1.5-5.3c1.8,0.6,4.9,0.5,4.9,0.5c0.8,2.5,4.2,2.3,4.2,2.3l2.8,2.9c-0.5,0.9,1,3,1,3c-2,0.2-3,1.3-3,1.3
	c-1.6,0.1-3.2,3.2-3.2,3.2c1.8,0.5,2.1-0.3,2.9-0.2s1.8-1.9,5.1-2.1c3.3-0.2,2.4-7.8,2.4-7.8s1.4-1.5,2.4-2.9
	c8-0.6,26.5-2.5,30.3-7.9c0,0,1.8-2.6-0.2-4.6c2.4-3.7,5.1-9.1,6-15.4c1.8,3.5,3.6,7.3,5.2,10.5c2.8,5.5,6.9,7.5,9.7,8.3
	c11.1,8.2,5.2,20.3,3.4,23.5c-4.1,0.2-8,1.8-8,1.8l-22.2,22.2c0,0,0,0,0,0c-4.4,3.6-3.1,6.8-2.6,10.5c0.5,3.5,2.8,30,3.3,35.1
	c0,0-0.2,4-0.1,8.6l-2.1,3c-1,1.4-11.9,5.6-15.3,4.5s-7.6,3.7-7.6,3.7s3.3-1.3,4.9-0.9c1.6,0.4,6.8,0,6.8,0s-4.7,3.2-8.1,2.4
	s-6.2,2.7-6.2,2.7c0.9-0.9,6.5,0.3,6.5,0.3l11.7-0.7c0,0-2,1.2-4.5,1.3c-2.4,0.1-6.8,5.6-5.3,4s5-0.6,10.6-1.4s15.8-10.6,17-12.4
	c1.2-1.7,4.9,0.6,6.8,0.6c1.9,0,5.2,2.2,5.2,2.2c0.4-3.2-2.3-4.7-3.5-6c-1.2-1.3-7.3-2-8.6-2c-1.3,0-1.4-1.3-1.4-1.3l-1-0.9
	c0,0-2-4-2.6-7.2l0,0c-1.9-8.4,1.8-10,5.1-26.7c1.4-6.9,0.1-11.5-1.8-14.4c1.5-0.6,2.6-1.4,2.6-1.4s32.2-9.4,29.9-20.8
	c-0.2-1.1-0.5-2-0.9-2.7l2.6,0.9c-0.3,0.4-0.4,0.7-0.4,0.7l-4.7,31c0.3,0.4,0.7,0.7,1,0.9c-1,2.7,0.2,5,0.9,7.7
	c0.8,2.7,4.9,20.3,7,29.5c0,1.4-0.1,4.4,0,7.7l-2.1,3c-1,1.4-11.9,5.6-15.3,4.5c-3.3-1.2-7.6,3.7-7.6,3.7s3.3-1.3,4.9-0.9
	c1.6,0.4,6.8,0,6.8,0s-4.7,3.2-8.1,2.4s-6.2,2.7-6.2,2.7c0.9-0.9,6.5,0.3,6.5,0.3L101,253c0,0-2,1.2-4.5,1.3c-2.4,0.1-6.8,5.6-5.3,4
	c1.4-1.6,5-0.6,10.6-1.4c5.6-0.9,15.8-10.6,17-12.4s4.9,0.6,6.8,0.6c1.9,0,5.2,2.2,5.2,2.2c0.4-3.2-2.3-4.7-3.5-6
	c-1.2-1.3-7.3-2-8.6-2c-1.3,0-1.4-1.3-1.4-1.3l-1-0.9c0,0-2.1-4.4-2.6-7.6c-0.2-4.7,1.9-9.1,2.6-21.6c0.5-9.1-2.8-13.7-5.9-16
	c0.9-1.4,1.3-2.8,1.3-2.8s5.7-7.5,9.8-15.7c3.2,5.4,19.2,31.2,34.2,26c16.7-5.7,11.2-21,11.2-21s-12.1-29.4-4-31.1
	c8.1-1.7,11.8,8.3,11.8,8.3l-4.6-0.9l11.5,15.5l1.2-18.7L178.1,155.1z M153,194.2c-13,0-23.6-15.2-28.9-27.3c1.7-5,2-9.7-0.8-12.3
	c-1.8-1.6-3.5-2.3-5.2-2.3c2.6-11.3,0.7-23.9-0.2-28.7c-0.5-4.6-1.5-12.6-2.7-19.8c6.1,1.9,14.4,3.9,19.8,3.2
	c-0.1,0.2-0.2,0.3-0.2,0.5c-2.1,4.9,3.6,24.5,11.3,31.9c-0.1,0-0.1,0-0.2,0.1c-1.5,0.8-4,4.1-4,4.1s-7.7,0.5-7.2,3.8
	c0.5,3.3-1.4,4.7-1.1,5.4c0.2,0.7-0.5,1.2,0.3,2.9c0,0,2.8-2.1,2.6-3.7c0,0,0.9-1.2,0.7-3.2c0,0,2.3,1.1,3.1,0.4l3.4,2.2
	c0,0,0.4,3.4,3,3.8c0,0,0.4,3.1,1.4,4.7c0,0-4.2-0.5-5.5-0.5c0,0,5.3,2.4,6.4,2l0.4-0.7l-0.5-4.8l2.6,5.3l-3.9,7.2l5-6.5
	c0,0,1.1-1,0.5-1.6c-0.6-0.6-1.7-5.5-1.7-5.5l2.8,2.5l0.6,5.7l1,2l-0.1-7.9l-3-3.9l2.8,1.6l1.6,1.4c0.3,4.1,1.4,7.5,1.4,7.5
	S170.6,194.2,153,194.2z"/>
<path fill="#951418" d="M98.7,145.4c0,0,2.3,5.4,6.3,4.7c4-0.7,10.5-2,14.4-6.9c0,0,12,14.2,3.3,28.8c0,0-4.7-6.4-14.2-1.2
	c-0.7,0.4-5.6,1.6-5.5,0.7c0.1-4.3-2.5,0-3.2,0.8c0,0-10.9-8.9-17.9-9.6c0,0,2.2-4.2,5.1-5.7c1.3-0.7,4.8-2.2,4.8-3.3
	C91.8,151.2,98.7,145.4,98.7,145.4z"/>
<circle fill="#C84136" cx="102.6" cy="120.1" r="1.6"/>
<circle fill="#543B27" cx="102.7" cy="120.2" r="1"/>
<circle fill="#FFFFFF" cx="102.7" cy="120.2" r="0.5"/>
<g>
	<circle fill="#C84136" cx="85.8" cy="125.6" r="1.6"/>
	<circle fill="#543B27" cx="85.8" cy="125.6" r="1"/>
	<circle fill="#FFFFFF" cx="85.8" cy="125.6" r="0.5"/>
</g>
<path fill="#C2AF91" d="M82.9,47.2c0,0-1.7,4.9,5.3,12c0,0-0.1,2.4-2.6,1.1C85.7,60.3,80.1,53.1,82.9,47.2z"/>
<polygon fill="#C2AF91" points="78.1,74.1 76.7,73.1 76.7,74.7 "/>
<polygon fill="#C2AF91" points="77.6,86.3 79.3,86 78.3,84.8 "/>
<polygon fill="#C2AF91" points="79.4,86.1 81,85.6 79.8,84.6 "/>
<polygon fill="#C2AF91" points="81.1,85.5 82.7,84.8 81.4,83.9 "/>
<polygon fill="#C2AF91" points="82.8,84.8 84.4,84.1 83,83.2 "/>
<polygon fill="#C2AF91" points="84.5,84.1 85.9,83.1 84.4,82.6 "/>
<polygon fill="#C2AF91" points="79.5,75 78,74.1 78.1,75.7 "/>
<polygon fill="#C2AF91" points="81.1,75.5 79.5,74.9 79.8,76.4 "/>
<polygon fill="#C2AF91" points="82.8,75.8 81.1,75.6 81.7,77 "/>
<polygon fill="#C2AF91" points="84.5,75.8 82.8,75.9 83.8,77.2 "/>
<path fill="#C2AF91" d="M89.3,40.6c0,0-3.7,6.2,3.9,17.8c0,0-0.8,3.2-3.8,0.8C89.4,59.2,83.8,47.8,89.3,40.6z"/>
<g>
	<path fill="#543B27" d="M86.2,64.3l-0.9-0.3c0.4-1.3,1.9-3.7,4.4-3.2c2.5,0.5,3.1,2.3,3.1,3.3h-1c0,0-0.1-1.9-2.3-2.3
		C87.2,61.3,86.2,64.2,86.2,64.3z"/>
</g>
<circle fill="#C84136" cx="88.5" cy="67.8" r="1.6"/>
<circle fill="#543B27" cx="88.5" cy="67.8" r="1"/>
<path fill="#543B27" d="M95.2,58c0,0,4,1.8,0.6,7.6c0,0,4-0.8,5,0.5c1,1.3,1.9,3.9,1.9,3.9l6-4.8C108.6,65.2,103.2,59.7,95.2,58z"/>
<path fill="#543B27" d="M79.4,87.4l-9.9,10.5c0,0,13.7-4,19.6-13.8C89.1,84,82.9,91.1,79.4,87.4z"/>
<path fill="#E5432C" d="M97.8,62.4c0,0-2.4,3,2.3,5.2c0,0,7.1,0.8,8.4-10.9C108.6,56.7,105.2,62.8,97.8,62.4z"/>
<g>
	<path fill="#543B27" d="M86.3,76.9c-0.8,0-1.6-0.2-2.3-0.5c-3.1-1.3-4.5-4.9-4.5-5l0.9-0.4c0,0,1.3,3.3,4,4.5
		c1.4,0.6,2.9,0.5,4.5-0.2l0.4,0.9C88.3,76.6,87.3,76.9,86.3,76.9z"/>
</g>
<circle fill="#FFFFFF" cx="88.5" cy="67.8" r="0.5"/>
</svg>
