<?xml version="1.0" encoding="utf-8"?>
<!-- Generator: Adobe Illustrator 18.1.1, SVG Export Plug-In . SVG Version: 6.00 Build 0)  -->
<svg version="1.1" id="Layer_1" xmlns="http://www.w3.org/2000/svg" xmlns:xlink="http://www.w3.org/1999/xlink" x="0px" y="0px"
	 viewBox="0 0 144 87" enable-background="new 0 0 144 87" xml:space="preserve">
<g>
	<path fill="#333333" d="M142.8,44c0-19-15.3-32.6-34.2-34.3c-5.6-0.5-12.7,2.7-12.7,2.7c-2.1,0.9-3.7,2-5.6,3.3
		c-3,1.1-6.9,2.1-11.8,1.9c-5.6-0.2-13.1-4-19.2-7.7c-3.1-3.2-6.8-5.1-11-6.9c0,0-8.5-2.7-13.3-2.7c-5.4,0-10.6,1.2-15.1,3.5
		C8.4,9.2,0.3,20.8,0.3,34.3C0.3,42.7,3,50.2,8,56.2v-0.1c0,0,18.3,30.8,64.3,30.8s54.7-15,54.7-15v0C136,65.6,142.8,55.5,142.8,44z
		"/>
	<path d="M19.8,3.7c0,0,7-0.1,10.8,2.5S47,22.2,59.3,22.4s38.7-7.6,44.9-5.5s23.5,2.7,23.3,26.6c-0.2,23.9-11.9,36.4-11.9,36.4
		s30.6-13.5,27.9-35.9c-2.3-18.8-15.7-32.6-34.6-34.3c-5.6-0.5-12.9,2.7-12.9,2.7c-2.1,0.9-3.8,2-5.7,3.3c-3,1.1-6.9,2.1-11.9,1.9
		c-5.6-0.2-13.1-4-19.2-7.7c-3.1-3.2-6.8-5.1-11-6.9c0,0-8.5-2.7-13.3-2.7C29.5,0.2,24.4,1.5,19.8,3.7"/>
	<path fill="#999999" d="M59.3,9.8c0,0-1.2,18.2,19.5,18.5c20.7,0.3,19.6-17,19.6-17l-1.9,0.6c-2.2,0.7-5.4,2.7-6.3,3.6
		c-3,1.1-6.7,2.2-11.6,2C73,17.3,65.4,13.5,59.3,9.8"/>
	<g>
		<path fill="#666666" d="M80.2,78.3c-19.6,0-34.6-4.6-44.9-13.9C21.6,52.1,21.9,36.3,22,35.6c0.1-2.8,2.4-4.9,5.2-4.8
			c2.8,0.1,4.9,2.4,4.8,5.1c0,0.5-0.1,12.1,10.2,21.2c11.3,10,31.4,13.4,58.1,9.7c2.7-0.4,5.3,1.5,5.6,4.3c0.4,2.7-1.5,5.3-4.3,5.6
			C94,77.8,86.8,78.3,80.2,78.3z"/>
	</g>
</g>
</svg>
