<svg viewBox="0 0 195 293" xmlns="http://www.w3.org/2000/svg"><symbol viewBox="0 0 195 293" id="card-01"><title>01</title> <rect fill="#6699CC" width="195" height="293"/> <path fill="#FFCF55" d="M103,219.7c-1.2-0.6-2.7,0-3.3,1.2L89.5,243h-3.6c-1.4,0-2.5,1.1-2.5,2.5s1.1,2.5,2.5,2.5h15.2
	c1.4,0,2.5-1.1,2.5-2.5s-1.1-2.5-2.5-2.5h-6.2l9.3-20C104.8,221.7,104.3,220.3,103,219.7z"/> <path fill="#FFCF55" d="M161.9,243h-7.1c0,0,0-0.1-0.1-0.1l-24.8-20.2c-1-0.9-2.6-0.7-3.4,0.4c-0.9,1-0.7,2.6,0.4,3.4L147,243h-0.3
	c-1.4,0-2.5,1.1-2.5,2.5s1.1,2.5,2.5,2.5h15.2c1.4,0,2.5-1.1,2.5-2.5S163.2,243,161.9,243z"/> <path fill="#AAAA96" d="M117.3,171l15.8-87.9c0,0,4.1-19.3,29.7-12.4c0,0,2.1,0.4,2,10.2s0,90.1,0,90.1H117.3z"/> <path fill="#BABA9E" d="M133.9,171l12.1-69.2c0,0,2-14.8,18.7-13.8l0.1,83H133.9z"/> <path fill="#C52541" d="M171.9,114.5l-1.3-17.2c-0.2-2.6-2.4-4.5-5-4.3c-0.3,0-0.6,0.1-0.8,0.1l0-12.6c-6.1,0-10.9,5-10.9,11.1
	c0,5,3.2,9.3,7.7,10.6l1,12.9c0.2,2.6,2.4,4.5,5,4.3h0C170.1,119.3,172.1,117,171.9,114.5z"/> <polygon fill="#FFCF55" points="164.8,83.7 178.2,93 164.8,93.1 "/> <polygon fill="#FFAE20" points="164.8,93.1 173.5,92.9 164.8,99.3 "/> <path fill="#C52541" d="M130,101h3.5l32.1-32c-0.2-0.9-0.6-1.5-1.3-2.2l-18.8-18.7c-1.9-1.9-5-1.9-6.9,0c-1.9,1.9-1.9,5,0,6.9
	l2.2,2.2c-1.9-1.6-4.8-1.5-6.6,0.3c-1.9,1.9-1.9,5,0,6.9l2.2,2.2c-1.9-1.6-4.8-1.5-6.6,0.3c-1.9,1.9-1.9,5,0,6.9l2.2,2.2
	c-1.9-1.6-4.8-1.5-6.6,0.3c-1.9,1.9-1.9,5,0,6.9l2.2,2.2c-1.9-1.6-4.8-1.5-6.6,0.3c-1.9,1.9-1.9,5,0,6.9l9.1,8.9"/> <path fill="#383851" d="M167.5,171.1c0-3.5-0.4-7-1-10.3l-1,0.2l-4.6-4l-4.4,5.3l-5.5-4.5l-4,5.8l-5.5-4.7l-4.3,5.8l-5.3-5l-4.3,6.1
	l-5.4-4.8l-4,5.7l-0.7,3.9l-23.4,4.7c3.3-8.1,3.4-17.5-0.5-26.1c-7.6-16.4-27.1-23.6-43.4-16.1l21.5,46.7l-4.8,1
	c3.2,16.7,14.7,30.5,30,37c0.3,5.7,5,10.2,10.8,10.2c4.3,0,8-2.5,9.7-6.1c0.1,0,0.1,0,0.2,0c1.7,3.6,5.4,6.1,9.7,6.1
	c5.9,0,10.8-4.8,10.8-10.7C155.4,209.3,167.5,191.6,167.5,171.1z"/> <path fill="#555569" d="M17.8,163c7.8-16.2,27.4-23.2,43.7-15.4c16.3,7.8,23.2,27.4,15.4,43.7L17.8,163z"/> <path fill="#383851" d="M34.4,201.8c-4.8-11.8,0.9-25.4,12.7-30.2s25.4,0.9,30.2,12.7L34.4,201.8z"/> </symbol><symbol viewBox="0 0 195 293" id="card-02"><title>02</title> <g> <rect fill="#FFCC33" width="195" height="293"/> </g> <path fill="#E5452B" d="M178.1,155.1c0,0-5.5-15.5-15.3-11.8c-4.8,1.8-5.9,6.8-5.8,11.4l-1.1-1.4c0,0-0.8-1.5-2.2-1.4
	c0,0-6.1-5.1-7.2-5.2c0,0-1-3.9,1.9-7c0,0-0.8-0.7-1.9-0.5c0.1-4.5,0.1-28.9-5.9-33.7c0,0-1.8-1.4-3.6-0.7
	c-2.8-3.5-11.7-13.3-25-14.8c-0.4-0.9-0.7-1.4-1.1-1.5c-2.6-0.7-10.1,1.9-13.3,3.1c-1.6-4.4-4.3-16.5,10.9-26.4
	c0,0-19.8-17.9-28.1,1.6c-13.7,1.3-29.4-2.5-29.4-2.5c7.8,3.3,22.3,5.6,27.7,6.4c-0.6,0.9-1.4,1.8-2.4,2c0,0,8.8,9.3,17.8-3.9
	c0,0-1.3,14.6-16.8,17.4c0,0,3.5,3.7,5.5,4.1l1.8,4.8c-0.9,0.1-1.6,0.1-2.2,0.1c-3-0.6-14.5,4.5-14.5,4.5c0.1,0,0.1,0.1,0.2,0.1
	c-1,0.7-1.9,1.7-2.7,3.3c0,0-2.5,14.5-1.1,24.1c-6.3,0.9-16.3,4.9-22.7,9.9c-0.2-0.3-0.4-0.4-0.4-0.4c-2.5,3.4-6.5,3.2-6.5,3.2
	c-0.3-1.1-6.4-6.1-6.4-6.1c-0.1-1.4-1.8-1.9-1.8-1.9l-6.1-3.1l4.6,3.9l2,2.5l-4.3-2.2l-7.7,1.4l2.1,0.6l5.7-0.4l2.9,2.3
	c0,0-5-0.2-5.7-0.7c-0.7-0.5-1.5,0.8-1.5,0.8l-5.5,6.1l6.4-5.1l5.7,1.6l-4.8,0.4l-0.6,0.5c-0.1,1.1,3.2,5.9,3.2,5.9
	c-0.2-1.3-1.5-5.3-1.5-5.3c1.8,0.6,4.9,0.5,4.9,0.5c0.8,2.5,4.2,2.3,4.2,2.3l2.8,2.9c-0.5,0.9,1,3,1,3c-2,0.2-3,1.3-3,1.3
	c-1.6,0.1-3.2,3.2-3.2,3.2c1.8,0.5,2.1-0.3,2.9-0.2s1.8-1.9,5.1-2.1c3.3-0.2,2.4-7.8,2.4-7.8s1.4-1.5,2.4-2.9
	c8-0.6,26.5-2.5,30.3-7.9c0,0,1.8-2.6-0.2-4.6c2.4-3.7,5.1-9.1,6-15.4c1.8,3.5,3.6,7.3,5.2,10.5c2.8,5.5,6.9,7.5,9.7,8.3
	c11.1,8.2,5.2,20.3,3.4,23.5c-4.1,0.2-8,1.8-8,1.8l-22.2,22.2c0,0,0,0,0,0c-4.4,3.6-3.1,6.8-2.6,10.5c0.5,3.5,2.8,30,3.3,35.1
	c0,0-0.2,4-0.1,8.6l-2.1,3c-1,1.4-11.9,5.6-15.3,4.5s-7.6,3.7-7.6,3.7s3.3-1.3,4.9-0.9c1.6,0.4,6.8,0,6.8,0s-4.7,3.2-8.1,2.4
	s-6.2,2.7-6.2,2.7c0.9-0.9,6.5,0.3,6.5,0.3l11.7-0.7c0,0-2,1.2-4.5,1.3c-2.4,0.1-6.8,5.6-5.3,4s5-0.6,10.6-1.4s15.8-10.6,17-12.4
	c1.2-1.7,4.9,0.6,6.8,0.6c1.9,0,5.2,2.2,5.2,2.2c0.4-3.2-2.3-4.7-3.5-6c-1.2-1.3-7.3-2-8.6-2c-1.3,0-1.4-1.3-1.4-1.3l-1-0.9
	c0,0-2-4-2.6-7.2l0,0c-1.9-8.4,1.8-10,5.1-26.7c1.4-6.9,0.1-11.5-1.8-14.4c1.5-0.6,2.6-1.4,2.6-1.4s32.2-9.4,29.9-20.8
	c-0.2-1.1-0.5-2-0.9-2.7l2.6,0.9c-0.3,0.4-0.4,0.7-0.4,0.7l-4.7,31c0.3,0.4,0.7,0.7,1,0.9c-1,2.7,0.2,5,0.9,7.7
	c0.8,2.7,4.9,20.3,7,29.5c0,1.4-0.1,4.4,0,7.7l-2.1,3c-1,1.4-11.9,5.6-15.3,4.5c-3.3-1.2-7.6,3.7-7.6,3.7s3.3-1.3,4.9-0.9
	c1.6,0.4,6.8,0,6.8,0s-4.7,3.2-8.1,2.4s-6.2,2.7-6.2,2.7c0.9-0.9,6.5,0.3,6.5,0.3L101,253c0,0-2,1.2-4.5,1.3c-2.4,0.1-6.8,5.6-5.3,4
	c1.4-1.6,5-0.6,10.6-1.4c5.6-0.9,15.8-10.6,17-12.4s4.9,0.6,6.8,0.6c1.9,0,5.2,2.2,5.2,2.2c0.4-3.2-2.3-4.7-3.5-6
	c-1.2-1.3-7.3-2-8.6-2c-1.3,0-1.4-1.3-1.4-1.3l-1-0.9c0,0-2.1-4.4-2.6-7.6c-0.2-4.7,1.9-9.1,2.6-21.6c0.5-9.1-2.8-13.7-5.9-16
	c0.9-1.4,1.3-2.8,1.3-2.8s5.7-7.5,9.8-15.7c3.2,5.4,19.2,31.2,34.2,26c16.7-5.7,11.2-21,11.2-21s-12.1-29.4-4-31.1
	c8.1-1.7,11.8,8.3,11.8,8.3l-4.6-0.9l11.5,15.5l1.2-18.7L178.1,155.1z M153,194.2c-13,0-23.6-15.2-28.9-27.3c1.7-5,2-9.7-0.8-12.3
	c-1.8-1.6-3.5-2.3-5.2-2.3c2.6-11.3,0.7-23.9-0.2-28.7c-0.5-4.6-1.5-12.6-2.7-19.8c6.1,1.9,14.4,3.9,19.8,3.2
	c-0.1,0.2-0.2,0.3-0.2,0.5c-2.1,4.9,3.6,24.5,11.3,31.9c-0.1,0-0.1,0-0.2,0.1c-1.5,0.8-4,4.1-4,4.1s-7.7,0.5-7.2,3.8
	c0.5,3.3-1.4,4.7-1.1,5.4c0.2,0.7-0.5,1.2,0.3,2.9c0,0,2.8-2.1,2.6-3.7c0,0,0.9-1.2,0.7-3.2c0,0,2.3,1.1,3.1,0.4l3.4,2.2
	c0,0,0.4,3.4,3,3.8c0,0,0.4,3.1,1.4,4.7c0,0-4.2-0.5-5.5-0.5c0,0,5.3,2.4,6.4,2l0.4-0.7l-0.5-4.8l2.6,5.3l-3.9,7.2l5-6.5
	c0,0,1.1-1,0.5-1.6c-0.6-0.6-1.7-5.5-1.7-5.5l2.8,2.5l0.6,5.7l1,2l-0.1-7.9l-3-3.9l2.8,1.6l1.6,1.4c0.3,4.1,1.4,7.5,1.4,7.5
	S170.6,194.2,153,194.2z"/> <path fill="#951418" d="M98.7,145.4c0,0,2.3,5.4,6.3,4.7c4-0.7,10.5-2,14.4-6.9c0,0,12,14.2,3.3,28.8c0,0-4.7-6.4-14.2-1.2
	c-0.7,0.4-5.6,1.6-5.5,0.7c0.1-4.3-2.5,0-3.2,0.8c0,0-10.9-8.9-17.9-9.6c0,0,2.2-4.2,5.1-5.7c1.3-0.7,4.8-2.2,4.8-3.3
	C91.8,151.2,98.7,145.4,98.7,145.4z"/> <circle fill="#C84136" cx="102.6" cy="120.1" r="1.6"/> <circle fill="#543B27" cx="102.7" cy="120.2" r="1"/> <circle fill="#FFFFFF" cx="102.7" cy="120.2" r="0.5"/> <g> <circle fill="#C84136" cx="85.8" cy="125.6" r="1.6"/> <circle fill="#543B27" cx="85.8" cy="125.6" r="1"/> <circle fill="#FFFFFF" cx="85.8" cy="125.6" r="0.5"/> </g> <path fill="#C2AF91" d="M82.9,47.2c0,0-1.7,4.9,5.3,12c0,0-0.1,2.4-2.6,1.1C85.7,60.3,80.1,53.1,82.9,47.2z"/> <polygon fill="#C2AF91" points="78.1,74.1 76.7,73.1 76.7,74.7 "/> <polygon fill="#C2AF91" points="77.6,86.3 79.3,86 78.3,84.8 "/> <polygon fill="#C2AF91" points="79.4,86.1 81,85.6 79.8,84.6 "/> <polygon fill="#C2AF91" points="81.1,85.5 82.7,84.8 81.4,83.9 "/> <polygon fill="#C2AF91" points="82.8,84.8 84.4,84.1 83,83.2 "/> <polygon fill="#C2AF91" points="84.5,84.1 85.9,83.1 84.4,82.6 "/> <polygon fill="#C2AF91" points="79.5,75 78,74.1 78.1,75.7 "/> <polygon fill="#C2AF91" points="81.1,75.5 79.5,74.9 79.8,76.4 "/> <polygon fill="#C2AF91" points="82.8,75.8 81.1,75.6 81.7,77 "/> <polygon fill="#C2AF91" points="84.5,75.8 82.8,75.9 83.8,77.2 "/> <path fill="#C2AF91" d="M89.3,40.6c0,0-3.7,6.2,3.9,17.8c0,0-0.8,3.2-3.8,0.8C89.4,59.2,83.8,47.8,89.3,40.6z"/> <g> <path fill="#543B27" d="M86.2,64.3l-0.9-0.3c0.4-1.3,1.9-3.7,4.4-3.2c2.5,0.5,3.1,2.3,3.1,3.3h-1c0,0-0.1-1.9-2.3-2.3
		C87.2,61.3,86.2,64.2,86.2,64.3z"/> </g> <circle fill="#C84136" cx="88.5" cy="67.8" r="1.6"/> <circle fill="#543B27" cx="88.5" cy="67.8" r="1"/> <path fill="#543B27" d="M95.2,58c0,0,4,1.8,0.6,7.6c0,0,4-0.8,5,0.5c1,1.3,1.9,3.9,1.9,3.9l6-4.8C108.6,65.2,103.2,59.7,95.2,58z"/> <path fill="#543B27" d="M79.4,87.4l-9.9,10.5c0,0,13.7-4,19.6-13.8C89.1,84,82.9,91.1,79.4,87.4z"/> <path fill="#E5432C" d="M97.8,62.4c0,0-2.4,3,2.3,5.2c0,0,7.1,0.8,8.4-10.9C108.6,56.7,105.2,62.8,97.8,62.4z"/> <g> <path fill="#543B27" d="M86.3,76.9c-0.8,0-1.6-0.2-2.3-0.5c-3.1-1.3-4.5-4.9-4.5-5l0.9-0.4c0,0,1.3,3.3,4,4.5
		c1.4,0.6,2.9,0.5,4.5-0.2l0.4,0.9C88.3,76.6,87.3,76.9,86.3,76.9z"/> </g> <circle fill="#FFFFFF" cx="88.5" cy="67.8" r="0.5"/> </symbol><symbol viewBox="0 0 195 293" id="card-03"><title>03</title> <g> <rect fill="#3F5275" width="195" height="293"/> <g> <path d="M90.4,46c-1,0,1.7-5.5,1.6-8.1c-0.1-2.5-0.3-17.3,14.6-16.7c14.9,0.6,14.2,10.2,14.2,10.2s0.1,15.8,0.9,16.3
			c0.8,0.5-0.4,0.1-0.4,0.1l-11.7,0.5C109.7,48.3,91.9,46,90.4,46z"/> <path fill="#FFCC99" d="M108.3,61.1l0.1-11.9c1.5,0.7,2.7,1.3,3.3,1.7c2,1.4,2.8-0.4,2.8-1.2c0-0.8,5-6.5,5-6.5l-0.2-12.3
			c-0.6-2.4-17.3-2.4-17.3-2.4s-2.2,11.9-2.2,14.7c0,1.4,2.4,2.9,5.1,4.3l-0.9,13.8l-3.2,0.8l0.9,6.4l12.9,1.5l1.9-3.8l-3.1-5
			L108.3,61.1z"/> <polygon fill="#FFCC99" points="66.8,93 87.2,74.7 84.9,72.8 64.1,93 63.3,93.9 97.2,109 98.8,108 		"/> <polygon fill="#FFCC99" points="122.8,81.1 129,94.3 117.7,105.2 118.9,106.4 130.7,95.2 125.1,77.8 		"/> <polygon fill="#F85F81" points="94.7,62.8 87.3,64.6 81.5,72.1 84.2,72.8 88.5,76.6 92.1,72.5 95.3,71.1 		"/> <path fill="#F85F81" d="M113.4,61.2c0,0,5.7-1.4,7,0.5c1.2,1.8,3.8,8.9,3.8,8.9l-1.5,1.5L113.4,61.2z"/> <path fill="#F74650" d="M117.5,103.6l1.4-17.5l8.3-8.6l-4.5-5.4l-9.2-10.9c0,0,3,5.9-2.1,7c-5.1,1.1-10.4-6-10.4-6l-6.2,0.8
			l-0.3,9.5l8.3,32.3c-9.5,0.2-9.5,15.2-9.5,15.2L92.6,183h32.1c0,0-3-62.3-3.4-69.4C120.8,107.2,118,104.1,117.5,103.6z"/> <polygon fill="#FFCC99" points="92.7,183.1 93.2,269 95.6,269 98,183.1 		"/> <polygon fill="#F85F81" points="93.2,269 95.6,269 95.9,270.5 86.7,272.4 		"/> <polygon fill="#FFCC99" points="124.7,183.1 124.2,269 121.7,269 119.3,183.1 		"/> <polygon fill="#F85F81" points="124.2,269 121.7,269 121.4,270.5 130.7,272.4 		"/> <path d="M119.9,29.2c-1.7-0.9-11.1-5.9-15.8-0.6c-7.3-2.1-3.7,6.1-3.7,6.1c3-0.2,3.8-4.6,4-5.8c1.9,0.7,9.1,3.5,11.4,3.3
			c2.7-0.2,3.9,3.5,3.9,3.5S121.6,30.1,119.9,29.2z"/> </g> </g> </symbol><symbol viewBox="0 0 195 293" id="card-04"><title>04</title> <g> <rect fill="#6D0D70" width="195" height="293"/> <g> <path fill="#FFCC99" d="M148.9,158c0,0,2.5,1.4,3.6,1.4s6.3,1.8,6.4,4c0.2,2.2,1.3,6.2,0.5,6.4c-0.8,0.2-2.3,0.2-2.3,0.2l-3.1,3.4
			c0,0-6.9,0.4-7-0.7c-0.2-1.1-0.4-1.9,0.6-1.9c1,0,2,0.1,2,0.1l-2.6-4.2c0,0-4-3-4.1-5.2L148.9,158z"/> <g> <path fill="#FFCC99" d="M54.3,102.5c0,0-4.2-4.6-4.2-7.4s-9.2-9.4-9.2-9.4s-2.7-1.4-2.8-0.5c-0.1,0.9,4,4.4,4,4.4s-5.3-3-6.1-3
				c-0.8-0.1-1.5,0.7-0.4,1.5c0.6,0.4,3,3,2.6,3.7c-0.4,0.7-0.4,0.7-0.4,0.7s-1.5,0.6-1.5,1.5L35.9,96c0,0-1.5-0.6-1.5,0.9
				s0.8,4.6,0.8,4.6s0.7,1.2,1.1,0.9c0.4-0.2,0.8-2.1,0.7-3.6c0,0,0.7,2,1.5,1.9c0.8-0.1,1.3-2.2,1.3-2.2s1.6,1.3,2.1,1.2
				c0,0,0.2,5.6,1.5,6.2c1.3,0.6,7.4,3.3,7.4,3.3L54.3,102.5z"/> <polygon points="36.3,91.4 43.7,81.7 42.3,80.3 34.8,90.2 			"/> <path fill="#FFCC99" d="M42,89.8c0,0-4.1-3.5-4-4.4c0.1-0.9,2.8,0.5,2.8,0.5s1.4,1,3.2,2.4L42,89.8z"/> </g> <rect x="98.4" y="61" fill="#FFCC99" width="13.2" height="11.4"/> <polygon points="126.7,125.5 140.2,164.6 152.1,158.2 138.7,129.2 134.1,82 138,73.3 135.5,74.6 120.3,74 114.9,70 103.5,70 
			92.9,70 87.5,74 72.3,74.6 69.8,73.3 68.6,125 54.2,95.2 44.6,110 71.4,143.3 74.7,132.6 78.1,92 85.9,127.1 74.8,161.7 
			104.4,135 132.6,161.7 121.7,127.1 125,112.3 		"/> <polygon fill="#FFFFFF" points="111.1,61.5 104.7,76.1 104.8,77 104.2,77 104.2,76.1 97.9,61.6 90.7,67.1 94.7,72.2 103,123.5 
			103,123.1 103,125 106,125 106,123.1 106,123.6 114.2,72.2 118.2,67 		"/> <path fill="#FFCC33" d="M117.9,83.5l-3.4-14.4l-8.9,6.7c-0.3-0.5-0.8-0.9-1.5-0.9s-1.2,0.4-1.5,0.9l-8.9-6.7l-3.4,14.4l12.4-6.2
			c0.3,0.5,0.8,0.8,1.4,0.8s1.1-0.3,1.4-0.8L117.9,83.5z"/> <circle fill="#FFCC33" cx="104.2" cy="76.4" r="2.8"/> <polygon fill="#FFCC33" points="104.5,132 81.4,153.4 89.5,270 93.5,270 101.2,177 104.5,177 107.6,177 115.4,270 119.4,270 
			127.6,153.4 		"/> <path d="M93,270h-3.5L70,276.5c0,0,10,11.2,20.5-1.3l-0.6,3.2l3.1,0.2V270z"/> <path d="M115,270h5l19.5,6.5c0,0-10,11.2-20.5-1.3l-0.2,3.2l-3.8,0.2V270z"/> <path fill="#FFCC99" d="M93,50.5"/> <g> <path fill="#FFCC99" d="M105.3,63.4c-0.3,0-0.6,0-0.8-0.1c-0.3,0-0.6,0.1-0.8,0.1H105.3z"/> <path fill="#FFCC99" d="M124.5,40.2c0.2-2.6-1.9-2.4-3.2-2.1l0.4-5.1c0-8.2-6.8-15-15-15h-4.3c-8.2,0-15,6.8-15,15l0.4,5.4
				c-0.8-0.3-4.2-1.5-4,1.8c0.2,3.8,0.8,10.5,5.1,10.9c0.1,0,0.3,0,0.4,0c2.3,6.3,8.9,11.8,15.3,12.2c6.4-0.4,13-6,15.3-12.3
				C123.7,50.3,124.3,43.9,124.5,40.2z"/> </g> <path d="M95.7,36.4c-2.5,0-4.5,1.9-4.8,4.3c-0.9,0.7-3.4,3.3-2.6,10.6l1-0.1c-0.6-5.4,0.7-8,1.6-9.1c0.4,2.3,2.4,4,4.8,4
			c2.7,0,4.8-2.2,4.8-4.8C100.5,38.5,98.4,36.4,95.7,36.4z"/> <circle fill="#FFFFFF" cx="95.7" cy="41.2" r="3.6"/> <path d="M111.1,52.3c-1.8-2-3.4-2-3.4-2c-1.9,0-3,1.5-3.2,1.8c-0.2-0.3-1.3-1.8-3.2-1.8c0,0-1.6,0-3.4,2s-2.7,0.7-3.7-0.5
			c0,0,0.2,5,5.4,5c0,0,4.9,0,4.9-2.6c0,2.6,4.9,2.6,4.9,2.6c5.1,0,5.4-5,5.4-5C113.8,53,112.8,54.2,111.1,52.3z"/> </g> <path d="M103.9,13.8c-15,0-18.6,10.5-18.6,10.5l1.8,14.3l0,0.5l3.6-10.8c0,5.6,13.1,6.8,13.1,6.8s13.3-1.1,13.3-6.8L121,39l0-0.5
		l1.7-14.3C122.7,24.2,118.9,13.8,103.9,13.8z"/> </g> </symbol><symbol viewBox="0 0 195 293" id="card-05"><title>05</title> <g> <rect fill="#82DABC" width="195" height="293"/> <path fill="#BF381F" d="M97.5,173.4c-12,0-14,4-14,4c-8.3-10.7-29.3-6.7-29.3-6.7c-6.7-17.3-25.3-14.7-25.3-14.7
		c-0.7-12-13.3-15.7-13.3-15.7s79-42,163,0c0,0-12.7,3.7-13.3,15.7c0,0-18.7-2.7-25.3,14.7c0,0-21-4-29.3,6.7c0,0-2-4-14-4"/> <path fill="#EA4F27" d="M109,189v3.1c0,3.4-1.6,6.1-5,6.1c-3.4,0-6-2.7-6-6.1V94h-2v98.1c0,4.5,3,8.1,7.5,8.1s7.5-3.6,7.5-8.1V189
		H109z"/> <rect x="96" y="94" fill="#57445A" width="2" height="98"/> <rect x="96" y="187" fill="#FFFFFF" width="2" height="5"/> <path fill="#EA4F27" d="M15.8,140.1c0,0,21.5-7.5,30.7,1.7c0,0,20.7-19.7,50.3-2.7c0,0,27-17.7,52,2c0,0,18-8.3,29.7-0.7
		c0,0-25-43-80.3-43S15.8,140.1,15.8,140.1z"/> </g> </symbol><symbol viewBox="0 0 195 293" id="card-06"><title>06</title> <g> <rect fill="#5A4031" width="195" height="293"/> <g> <path fill="#D96929" d="M71.8,51.2c0,0-25.2-6.6-25.8,18.1c-0.5,20.8-3.1,26-6.9,26.5c-3.8,0.5-17.8,5.3-15.5-10.9l2-2l-2.3-12.2
			L17,82.9l2.5,2.3c0,0-4.6,12.7,2.5,15.9c7.1,3.3,15.7,1.8,15.7,1.8s-1.8,11.9-19.2,9.4L17,109l-7.8,3.6l6.8,6l2-2.8
			c0,0,9.1,6.8,21.3-3.3c0,0-5.6,18.7-14.2,19.7l-3.5-2.4L12,139h14.2l-0.5-2.8c0,0,13.7-5.7,17.7-13.1c0,0-8.6,28.5-13.2,28.5
			l-4.8-1.6l-1,6.6l9.1,1.3l-2.3-4.1c0,0,12.9-6.6,14.9-17c0,0-3,15.7,4.8,21c0,0-10.4,11.9-12.9,11.9c0,0,17.5,1.5,23.2-7.8
			l28-55.7c0,0,6.6,0,8.6-3.5c2-3.5,0-15.2,0-15.2s4.8,8.7,13.2,6.7c0.4-0.1,0.8-0.2,1.2-0.3c9.1-3.1,7.5-13.7,7.5-13.7l3.2-0.3
			l-7-11.6L111,79.6l3.2,0.5c0,0,4,8.3-6.1,8.9s-9.6-16.7-9.6-16.7S102.4,32.9,71.8,51.2z"/> <path fill="#F3AB5F" d="M105.4,108L99,120.2c0,0-7.6-15.6-11.9-22.4c-4.3-6.8-14.7-2.6-14.7-2.6L71,95.5v-7.4
			c1.5,0.5,3.2,0.8,4.9,0.8c8.6,0,15.6-7.5,15.6-16.7s-7-16.7-15.6-16.7c-7.6,0-14,5.9-15.3,13.7c-0.2,0-0.3-0.1-0.5-0.1
			c-1.7,0-3,1.4-3,3s1.4,3,3,3c0.2,0,0.3,0,0.5-0.1c0.4,2.2,1.1,4.2,2.2,6L62,81v16.7l0.6,0l-0.5,0.1c0,0-3.5,3.3-9.1,6.6
			s-2,14.7-2,14.7l32.6-6l5.6,5.3c10.1,11.9,12.9,9.2,15.2,9.2s3.8-19.7,3.8-19.7H105.4z"/> <path fill="#7BBFAA" d="M135,211c-24.3-5.1-30.6,4.6-30.6,4.6l3.8,6.2c0.5,0.1,0.9,0.1,1.4,0.1l-6.2-0.2c5.3,18.2,25.1,23,25.1,23
			c-0.5-12.7-15.2-22.7-15.2-22.7l-0.2,0C129.2,221.9,135,211,135,211z"/> <path fill="#D96929" d="M57,69.3c0,0,21.2,0,31.5-10.2c0.2-0.2,0.4-0.4,0.6-0.6C99.3,47.5,60.6,47.5,57,69.3z"/> <path fill="#F3AB5F" d="M105.4,107.2c0,0-1.8-3.6,0-5.3c1.8-1.7,5.6-4.7,7-4c1.3,0.6,6.1,2.2,3,6.5
			C112.3,108.7,107.7,108.4,105.4,107.2z"/> <path fill="#09A99F" d="M75.9,114.4c0,0-1.1-5.9,8.2-8.2c2.7-0.6,5.1,1.8,5.1,6.8s-5.3,10.4-5.3,12.9c0,2.5,1.8,4.6,1.8,4.6
			s22-4,25.1,11.1c3,15.2-17.4,47.6-17.4,47.6s-6.4,13.9,11.1,26.3l3.8,6.2l-4.8-0.1c0,0-33.2,3.8-41.3-36.2c0,0-4-16.7,5.2-41.8
			l-6.8-26.1c0,0,1.4-3.7,6.7-5.9C70.2,110.5,74.7,111.1,75.9,114.4z"/> <path fill="#F3AB5F" d="M68.2,123.2c0,0-0.3-5.2,4.3-5.2c4.6,0,6.8,0,6.8,0s3.8,8-3.4,8h-4.2c0,0,1.8,15.9-4.8,16.5
			S52,126.8,50.9,118.9l9.4-1.8l4.1,12.5L68.2,123.2z"/> <path fill="#F4B13E" d="M127.2,92.9c0,0-8.7-20.3,1.7-25.4s29-9.4,29-9.4v-5.6l11.5,1.3l-3.6,8.4l-5.3-1.9c0,0-27.7,6.2-24.7,25
			L165,74.1V71h13l-6.6,7.6l-4.3-1.8l-27.8,14.6c0,0,8.9,14.1,34.9-5.1l-0.8-4.1l11.4-1.2L181,91.8l-5.8-2.4c0,0-26.3,31.4-46.8,6.9
			L17.8,146.2l-1.3-2.3L127.2,92.9z"/> </g> </g> </symbol><symbol viewBox="0 0 195 293" id="card-07"><title>07</title> <g> <rect fill="#CC3333" width="195" height="293"/> <polygon fill="#F1B240" points="122.6,243 119.6,61 126.4,61 130.6,243 	"/> <polygon fill="#F1B240" points="66.9,243 68.4,61 74,61 74,243 	"/> <polygon fill="#F1B240" points="70,210 123.8,210 124.7,201.9 70,203.9 	"/> <rect x="70" y="175" fill="#F1B240" width="56" height="8"/> <polygon fill="#F1B240" points="124,157 74,158 74,154.3 124,151.7 	"/> <polygon fill="#F1B240" points="70,131 123.8,131 125.1,127 70,127 	"/> <polygon fill="#F1B240" points="124,104 70,104 70,99.6 124,99 	"/> </g> </symbol><symbol viewBox="0 0 195 293" id="card-08"><title>08</title> <rect fill="#FFC73F" width="195" height="293"/> <g> <path fill="#CC6600" d="M120,92.8H75c-4.8,0-8.7-3.9-8.7-8.7v0c0-4.8,3.9-8.7,8.7-8.7h45c4.8,0,8.7,3.9,8.7,8.7v0
		C128.7,88.8,124.8,92.8,120,92.8z"/> <path fill="#333333" d="M115,107.8V92H97.5H79v15.8c0,0-28,14.5-29,22v89c0,0,0.5,13.2,15.5,13.2s32,0,32,0s17,0,32,0
		s14.5-13.2,14.5-13.2v-89C143,122.2,115,107.8,115,107.8z"/> <path fill="#333333" d="M97,60.8c-16.2,0-15,4-15,4V80h9.3L90,67.6c0-2,7.5-1.8,7.5-1.8s7.5-0.1,7.5,1.9L103.7,80h8.3V64.8
		C112,64.8,113,60.8,97,60.8z"/> <path fill="#FFFFFF" d="M132,207.1H63c-2.8,0-5-2.2-5-5v-53c0-2.8,2.2-5,5-5h69c2.8,0,5,2.2,5,5v53
		C137,204.8,134.7,207.1,132,207.1z"/> <g> <path fill="#FFFFFF" d="M60,138h-3v-7.8l0.4-0.4c0.4-0.6,10.6-14.4,25.6-14.4v3c-12,0-21.2,10.7-23,12.9V138z"/> </g> <polygon fill="#333333" points="120.2,156.3 113.1,149.2 97,165.3 80.9,149.2 73.8,156.3 89.9,172.4 73.8,188.5 80.9,195.6 
		97,179.5 113.1,195.6 120.2,188.5 104.1,172.4 	"/> </g> </symbol><symbol viewBox="0 0 195 293" id="card-09"><title>09</title> <rect fill="#384C55" width="195" height="293"/> <path fill="#FF8A66" d="M151.6,67H96.9H42.4c-12.7,30-17.3,52.3-17.3,79.7c0,27.4,17.3,74,17.3,74c23.3,6.7,54.5,5.9,54.5,5.9
	s31.2,0.6,54.6-6.1c0,0,17.4-46.3,17.4-73.7C168.9,119.3,164.3,97,151.6,67z"/> <path fill="#384C55" d="M149.4,70.9l-0.4-0.9H45l-0.4,0.9c-11.9,29.1-16.3,49.6-16.3,75.4c0,25.6,15.6,68,16.3,69.8l0.3,0.7l0.7,0.2
	c17.8,5.1,40.1,5.6,48.8,5.6c1.6,0,2.5,0,2.5,0c0.1,0,0.8,0,2.1,0c0,0,0,0,0,0c6.9,0,30.8-0.4,49.3-5.7l0.7-0.2l0.3-0.7
	c0.7-1.8,16.3-44.1,16.3-69.8C165.7,120.4,161.3,100,149.4,70.9z M126.4,183c0.5-5.5,1-11.7,1.4-18.9c1.7-25.2,0.3-47.2-1.7-63.6
	c5.8,0.3,11.9,0.8,17.8,1.4c2.3,12.4,4.2,27.7,4.1,44.2c-0.1,13.2-1.4,25.3-3,35.6C138.8,182.2,132.5,182.7,126.4,183z M141.9,197.1
	c-2.4,10.3-4.8,17.3-5.6,19.6c-5,0.9-10,1.5-14.8,2c0.8-2.4,2-7.7,3.4-20C131.2,198.2,137.1,197.6,141.9,197.1z M46.9,181.4
	c-1.6-10.3-2.9-22.2-3-35.4c-0.1-16.4,1.7-31.6,4-44c6-0.6,12.3-1.1,18.4-1.5c-2,16.3-3.4,38.4-1.7,63.5c0.5,7.2,1,13.4,1.4,18.9
	C59.7,182.6,53.1,182,46.9,181.4z M67.6,198.5c1.4,12.2,2.6,17.6,3.3,20c-5-0.5-10.3-1.2-15.4-2.2c-0.9-2.6-3.2-9.5-5.5-19.5
	C54.7,197.4,60.8,198,67.6,198.5z M122.7,84.7c-8.2-0.6-17.2-1-25.8-1c-0.3,0-0.6,0-0.9,0V73h24.3C120.9,75.2,121.8,79.2,122.7,84.7
	z M121.4,73h15.3c0.8,2.4,2.2,7,3.8,13.3c-4.8-0.5-10.5-1-16.7-1.5C122.8,79.3,121.9,75.3,121.4,73z M95,83.7
	c-8.5,0.1-17.3,0.5-25.3,1.1c1-5.6,1.9-9.6,2.4-11.8H95V83.7z M68.6,84.9c-6.5,0.5-12.5,1.1-17.3,1.6c1.6-6.4,3.1-11.1,3.9-13.5
	h15.8C70.5,75.3,69.6,79.4,68.6,84.9z M65.6,164c-1.7-25.2-0.3-47.2,1.7-63.5c12.3-0.7,23.3-1,27.7-1.1v84.7
	c-4.4-0.1-15.5-0.4-28-1.1C66.6,177.5,66.1,171.2,65.6,164z M96,99.4c0.6,0,0.9,0,0.9,0s12.9,0.2,28.2,1c2,16.3,3.5,38.4,1.7,63.6
	c-0.5,7.3-1,13.6-1.5,19.1c-15.4,0.9-28.4,1.1-28.4,1.1s-0.3,0-0.9,0V99.4z M148.9,146c0.1-16.4-1.7-31.7-4-44.1
	c4.4,0.5,8.7,1,12.5,1.6c3.7,14.3,5.3,27.6,5.3,42.8c0,9.7-2.4,22.1-5.3,33.6c-3.5,0.6-7.4,1.1-11.5,1.5
	C147.6,171.2,148.8,159.2,148.9,146z M152.6,87.7c-2.1-0.3-6-0.8-11.1-1.3c-1.6-6.2-3-10.8-3.8-13.4h9.4
	C149.1,78.1,151,83,152.6,87.7z M47,73h7.2c-0.8,2.6-2.3,7.3-3.9,13.6c-3.9,0.4-7,0.8-8.9,1C43.1,83,44.9,78.1,47,73z M36.6,103.5
	c3.2-0.5,6.7-1,10.3-1.4c-2.3,12.4-4.1,27.5-4,43.9c0.1,13,1.3,25,3,35.2c-3.3-0.4-6.4-0.8-9.3-1.2c-2.9-11.6-5.3-24-5.3-33.7
	C31.3,131.2,32.8,117.9,36.6,103.5z M41,195.8c1.6,0.2,4.3,0.5,7.9,0.9c2.2,9.6,4.4,16.3,5.4,19.4c-2.5-0.5-4.9-1.1-7.2-1.7
	C46.3,212.2,43.8,205.1,41,195.8z M72,218.7c-0.6-1.8-1.9-6.8-3.4-20.1c8.3,0.6,17.5,1.1,26.4,1.2v19.9c-0.2,0-0.4,0-0.6,0
	C90.7,219.8,82,219.6,72,218.7z M99.1,219.7c-1.3,0-2.1,0-2.2,0c0,0-0.3,0-0.9,0v-19.9c0.3,0,0.6,0,0.9,0c9,0,18.4-0.5,26.9-1.1
	c-1.5,13.5-2.8,18.3-3.4,20C110.8,219.6,102.6,219.7,99.1,219.7z M146.8,214.4c-3,0.8-6.2,1.5-9.4,2.1c1-2.8,3.2-9.7,5.5-19.5
	c4.7-0.5,8.2-0.9,10.1-1.2C150.2,205,147.6,212.2,146.8,214.4z"/> <path fill="#384C55" d="M133.2,166.1H58.9c-2.8,0-5-2.2-5-5v-33.5c0-2.8,2.2-5,5-5h74.2c2.8,0,5,2.2,5,5v33.5
	C138.2,163.9,135.9,166.1,133.2,166.1z"/> <g> <path fill="#FF8A66" d="M79.4,151.6l-3.9-5.9l-3.9,5.9h-4.3l6-8.8l-5.8-8.5H72l3.6,5.6l3.7-5.6h4.3l-5.8,8.4l6,8.8H79.4z"/> <path fill="#FF8A66" d="M99.9,151.6l-3.9-5.9l-3.9,5.9h-4.3l6-8.8l-5.8-8.5h4.4l3.6,5.6l3.7-5.6h4.3l-5.8,8.4l6,8.8H99.9z"/> <path fill="#FF8A66" d="M120.4,151.6l-3.9-5.9l-3.9,5.9h-4.3l6-8.8l-5.8-8.5h4.4l3.6,5.6l3.7-5.6h4.3l-5.8,8.4l6,8.8H120.4z"/> </g> </symbol><symbol viewBox="0 0 195 293" id="card-10"><title>10</title> <g> <rect fill="#96C8C9" width="195" height="293"/> <g> <ellipse fill="#7B7110" cx="50.7" cy="117.6" rx="10.6" ry="8.3"/> <path fill="#7B7110" d="M135.1,97.1c0.4-0.9,0.7-1.9,0.7-2.9c0-4.6-4.7-8.3-10.6-8.3c-2.8,0-5.4,0.9-7.3,2.3
			c0.2-0.6,0.3-1.3,0.3-1.9c0-4.9-4.9-8.9-11-8.9c-6.1,0-11,4-11,8.9c0,4.9,4.9,8.9,11,8.9c3,0,5.7-1,7.7-2.5
			c-0.1,0.5-0.2,1-0.2,1.5c0,4.3,4.2,7.8,9.6,8.2c-0.4,0.9-0.7,1.9-0.7,2.9c0,4.6,4.7,8.3,10.6,8.3s10.6-3.7,10.6-8.3
			C144.7,101.1,140.5,97.5,135.1,97.1z"/> <path fill="#7B7110" d="M88.5,77.1c-3.1,0-5.7,2.1-6.8,5c-1.2-0.3-2.4-0.5-3.8-0.5c-5.8,0-10.6,3.7-10.6,8.3c0,0.2,0,0.5,0,0.7
			c-0.4,0-0.8-0.1-1.2-0.1c-5.8,0-10.6,3.7-10.6,8.3c0,4.6,4.7,8.3,10.6,8.3s10.6-3.7,10.6-8.3c0-0.2,0-0.5,0-0.7
			c0.4,0,0.8,0.1,1.2,0.1c4.1,0,7.7-1.9,9.4-4.6c0.4,0.1,0.7,0.1,1.1,0.1c4.1,0,7.4-3.7,7.4-8.3C95.9,80.8,92.6,77.1,88.5,77.1z"/> </g> <g> <path fill="#968B20" d="M63.8,90.7c-6.8,0-12.5,4.4-13,10.1c-3.1,2-5.1,5.2-5.1,8.7c0,6.1,5.8,11,13.1,11c6.8,0,12.5-4.4,13-10.1
			c3.1-2,5.1-5.2,5.1-8.7C76.9,95.6,71,90.7,63.8,90.7z"/> <ellipse fill="#968B20" cx="39" cy="127.4" rx="11.8" ry="7.9"/> <ellipse fill="#968B20" cx="124" cy="93" rx="11.8" ry="7.9"/> </g> <path fill="#703F1F" d="M60.9,183.7l1.3-0.7c0,0,10,18.8,24.1,15.6c0,0,2.1-5.6,1.9-7.6c-0.3-1.9-1.8-4.8-2.6-5.1
		s-10.7-2.5-13.3-8.3l-0.7-1.8l2.2-0.5l0.5,1.7c0,0,5.8,5.7,15.7,7.4c0,0,0.1-2.5,0.3-3.4s2.4-6.7,2.3-8.5l9.2,2.7
		c0,0-1.8,4.6-1.1,8.8c0,0,2.1-1.9,6-2c3.9-0.1,5.5-1.3,5.5-1.3l4.2,1.8c0,0-5.6,1.9-6.9,1.9s-5.8,1.7-7.2,4.2
		c-1.4,2.6-3.1,3.8-2.6,10.8c0,0,2.8,0.6,6.8-0.7c0,0,9.5-2.7,13.5-10.1c0,0,2.4-3,4-3.3s8.4-3.1,9.2-6.9l0.8,0.1c0,0-1.2,6-9.2,7.9
		c0,0-2.7,1.9-3.8,3.6c-1.1,1.7-9,13.6-21.1,13.4c0,0,0.9,5.9,0.6,7.3s-0.8,5.6-0.8,5.6s2.5,5.8,2.2,7.5c-0.3,1.7,0.1,5.1,0.1,5.1
		h-23c0,0,1-6.1,1.8-6.8c0.8-0.7,1.5-5.7,1.5-6.6s1.3-10.3,2.4-12C84.9,203.6,67,198.7,60.9,183.7z"/> <g> <path fill="#5A6215" d="M51.9,172.4c-1.1,0-2.1,0.2-3,0.5c0.7-1.6,1.1-3.3,1.1-5.2c0-7-5.6-12.7-12.5-12.7
			c-6.9,0-12.5,5.7-12.5,12.7s5.6,12.7,12.5,12.7c1.7,0,3.4-0.4,4.9-1c-0.3,1-0.5,2.1-0.5,3.3c0,5.7,4.5,10.3,10.1,10.3
			c5.6,0,10.1-4.6,10.1-10.3C62,177,57.5,172.4,51.9,172.4z"/> <path fill="#5A6215" d="M170.4,160.1c0-5.2-4.4-9.4-9.9-9.4c-5.5,0-9.9,4.2-9.9,9.4c0,0.1,0,0.3,0,0.4c-0.1,0-0.2,0-0.3,0
			c-5.2,0-9.6,3.5-11,8.4c-2.8-2.6-6.8-4.2-11.3-4.2c-7.1,0-13.1,4.2-14.9,9.9c-3.3-2.6-8-4.3-13.2-4.3c-8.6,0-15.7,4.5-17.5,10.5
			c-2-2.5-5.4-4.2-9.2-4.2c-6.2,0-11.2,4.3-11.2,9.7c0,5.4,5,9.7,11.2,9.7c4.9,0,9-2.7,10.5-6.4c2.9,4.5,9.1,7.7,16.2,7.7
			c8.1,0,14.9-4,17.2-9.5c2.8,2.4,6.6,3.9,10.9,3.9c7.4,0,13.7-4.6,15.1-10.7c2,1.6,4.4,2.5,7.1,2.5c6.3,0,11.4-5.1,11.4-11.4
			c0-0.9-0.1-1.7-0.3-2.5C166.5,168.9,170.4,164.9,170.4,160.1z"/> </g> <path fill="#968B20" d="M167,133.1c2.1-2.1,3.4-5.1,3.4-8.4c0-6.3-4.7-11.4-10.5-11.4c-3.3,0-6.2,1.7-8.2,4.3
		c0.3-0.7,0.4-1.5,0.4-2.4c0-4.4-4.1-8-9.1-8c-0.7,0-1.4,0.1-2,0.2c-0.7-5.5-3.6-9.6-7.1-9.6c-0.9,0-1.7,0.3-2.5,0.8
		c-0.9-3.6-4.5-6.3-8.9-6.3c-0.7,0-1.4,0.1-2,0.2c-0.9-5.8-5.9-10.2-11.8-10.2c-3.3,0-6.2,1.3-8.4,3.5c-3.3-2.2-7.3-3.5-11.6-3.5
		c-10.2,0-18.8,7.3-20.9,17.1c-4.8,1.3-8.4,5.6-8.8,10.8c-1.4,0.7-2.7,1.7-3.7,2.9c-0.7-0.1-1.4-0.2-2.2-0.2c-2.3,0-4.5,0.7-6.3,1.8
		c-0.7-0.1-1.3-0.2-2-0.2c-6.6,0-12,5.5-12,12.2c0,3.1,1.1,5.9,2.9,8c-0.7-0.1-1.4-0.2-2.1-0.2c-6.9,0-12.5,5.7-12.5,12.7
		c0,5,2.8,9.3,6.9,11.4c-0.6,1.3-1,2.8-1,4.5c0,5.1,3.4,9.1,7.6,9.1c1.5,0,2.9-0.5,4-1.4c0,0.2,0,0.3,0,0.5c0,5.3,3.5,9.6,7.9,9.6
		c2.3,0,4.4-1.2,5.9-3.2c1.2,4.1,5.5,7.1,10.5,7.1c4.5,0,8.4-2.4,10.1-5.9c1.8,1.2,4.1,2,6.6,2c5.6,0,10.3-3.8,10.8-8.6
		c1.8,3.1,5.5,5.2,9.7,5.2c2,0,3.9-0.5,5.5-1.3c1.1,4.3,5.4,7.4,10.6,7.4c2.6,0,4.9-0.8,6.8-2.1c1,0.3,2.1,0.4,3.2,0.4
		c5.3,0,9.7-3.3,10.7-7.7c2,2,4.9,3.3,8.2,3.3c6,0,10.8-4.2,10.9-9.5c4.2-1.3,7.2-4.8,7.2-9c0-1.2-0.3-2.4-0.8-3.5
		c0.6,0.1,1.2,0.2,1.8,0.2c5.8,0,10.5-5.1,10.5-11.4C174.8,138.8,171.5,134.3,167,133.1z"/> <path fill="#AB9C35" d="M159.7,143.6c0-5.2-4.5-9.4-10.3-10c2.6-1.9,4.2-4.6,4.2-7.7c0-5.6-5.3-10.1-11.9-10.1
		c-3.7,0-7.1,1.5-9.3,3.8c0.4-1,0.6-2,0.6-3.1c0-5.6-5.3-10.1-11.9-10.1c-1.3,0-2.5,0.2-3.7,0.5l-1.1-0.8c2.7-1.9,4.4-4.7,4.4-7.9
		c0-5.6-5.3-10.1-11.9-10.1c-4.2,0-7.8,1.8-9.9,4.6c-1.9-1.1-4.2-1.8-6.7-1.8c-5.6,0-10.3,3.3-11.5,7.8c0,0-0.1,0-0.1,0
		c-6.6,0-11.9,4.5-11.9,10.1c0,0.2,0,0.3,0,0.5c-5.9,0.5-10.6,4.8-10.6,10c-2.1-1.5-4.7-2.3-7.6-2.3c-6.6,0-11.9,4.5-11.9,10.1
		c0,3.2,1.8,6.1,4.5,8c-5.2,1.1-9,5.1-9,9.8c0,3.3,1.8,6.2,4.7,8.1c-0.9,1.4-1.4,3-1.4,4.7c0,5.6,5.3,10.1,11.9,10.1
		c0.4,0,0.9,0,1.3-0.1c1.8,3.6,6,6.2,10.9,6.2c4,0,7.6-1.7,9.7-4.4c2.1,1.7,4.9,2.7,8,2.7c4.8,0,9-2.5,10.8-6c2.2,2,5.2,3.2,8.6,3.2
		c3.2,0,6-1.1,8.2-2.8c0,0.1,0,0.3,0,0.4c0,5.6,5.3,10.1,11.9,10.1c3.7,0,7-1.4,9.2-3.7c1,0.2,2,0.4,3.1,0.4
		c5.9,0,10.8-3.7,11.7-8.4c0.5,0.1,1.1,0.1,1.6,0.1c6.6,0,11.9-4.5,11.9-10.1c0-1.4-0.3-2.7-0.9-3.9
		C158,149.5,159.7,146.7,159.7,143.6z"/> </g> </symbol><symbol viewBox="0 0 195 293" id="card-11"><title>11</title> <g> <rect fill="#92C7AB" width="195" height="293"/> <g> <circle fill="#F99557" cx="86.5" cy="144.2" r="74.1"/> <g> <path fill="#F16248" d="M86.5,220.4c-42,0-76.2-34.2-76.2-76.2c0-42,34.2-76.2,76.2-76.2s76.2,34.2,76.2,76.2
				C162.6,186.2,128.5,220.4,86.5,220.4z M86.5,72.2c-39.7,0-72,32.3-72,72c0,39.7,32.3,72,72,72s72-32.3,72-72
				C158.5,104.5,126.2,72.2,86.5,72.2z"/> </g> <ellipse transform="matrix(0.9804 0.1972 -0.1972 0.9804 18.8542 -18.2104)" fill="#F16248" cx="100.9" cy="85.6" rx="12.7" ry="7.5"/> <path fill="#F16248" d="M183.7,162.9c0-4.7-0.5-9.4-1.6-14l-0.5-2.1l-36.3,9.9l0.4,1.9c0,0,0,0,0,0l-0.4,0.1l0.4,1.9
			c0.3,1.2,0.4,2.5,0.5,3.8c-0.6,11.9-10.4,21.4-22.5,21.4c-9.7,0-18.3-6.2-21.4-15.4l-0.6-1.9l-38,10.4l0.6,1.9l-0.6,0.2l0.6,2.1
			c3.8,12.2,11.5,23.1,21.8,30.8c10.6,7.9,23.2,12.1,36.5,12.1c33.6,0,61-27.4,61-61c0-0.3,0-0.7,0-1
			C183.7,163.6,183.7,163.2,183.7,162.9z M122.7,219.7c-12.4,0-24.1-3.9-34-11.3c-8.4-6.3-15-15-18.9-24.7l29.3-8
			c4.1,9.9,13.8,16.4,24.6,16.4c14.7,0,26.7-12,26.7-26.7c0-0.4,0-0.7,0-1.1c0-0.3,0-0.7,0-1c0-0.6,0-1.1-0.1-1.7l28.1-7.7
			c0.6,3.2,1,6.5,1,9.8C179,194.8,153.7,219.7,122.7,219.7z"/> <path fill="#FFCC66" d="M180.1,149.3l-32.3,8.8c0.4,1.7,0.6,3.4,0.6,5.2c0,13.6-11,24.6-24.6,24.6c-10.9,0-20.1-7.1-23.3-16.9
			l-34,9.3c7.5,24,29.8,41.4,56.3,41.4c32.5,0,58.9-26.4,58.9-58.9C181.6,158.2,181.1,153.7,180.1,149.3z"/> </g> </g> </symbol><symbol viewBox="0 0 195 293" id="card-12"><title>12</title> <g> <rect fill="#FF6666" width="195" height="293"/> <g> <path fill="#FEAA7B" d="M103.7,77.5c-0.2,0-0.4,0-0.6,0l-0.5-4.3c0,0,1.5,0.1,3,0.1s0-2.3,0-2.3l-3.6-5.5v-8.3l-22,4.2v24
			c0,5.4-5,7.5-5,7.5h22.5c0,0-2.5-0.6-2.5-4.4c0-3.2,5.9-3.5,7.7-3.5c0.3,0.1,0.6,0.1,1,0.1c2.1,0,3.8-1.7,3.8-3.8
			C107.5,79.3,105.8,77.5,103.7,77.5z"/> <path fill="#0066CC" d="M101.2,155l0.4,7.4l12.5,35.4c0,0,1.5,2.7,0.3,5.6c-1.2,2.9-14.7,38.3-14.7,38.3s8.3-1.5,10.3,3.3v2.1
			H91.5l7.2-19.5c0,0,1.2-17.1,2.3-19.4s5.8-5.6,5.8-5.6s-17-13.3-17.8-36.3l-5.6,35.9c0,0,4.5,4.9,4,11.3c-0.4,6.4-4.6,11-3.6,31.6
			l-19.4,0.9c0,0,3.5-4.8,5.1-4.8c1.6,0,8.5,0.9,8.5,0.9l-1.4-37.8c0,0-6.8-13.6-5.1-26.1s5.2-16.5,5.2-16.5l-0.3-6.7L101.2,155z"/> <path d="M107.4,53.5c0-3.6-2.9-6.4-6.4-6.4c-2.2,0-4.2,1.1-5.3,2.8c-1.9-0.6-4.1-1-7-1c0,0-11.2,1.5-11.2,11.2S77.3,74,77.3,74
			l0.4,0.2c-2.8,0.7-4.9,3.2-4.9,6.3c0,3.6,2.9,6.4,6.4,6.4c3.6,0,6.4-2.9,6.4-6.4c0-1.2-0.3-2.3-0.9-3.3l0.4,0.2l-0.4-4.8l2.1-5V73
			h3v-5.9c0,0,8.4,0.9,12.4-7.4C105.2,59,107.4,56.5,107.4,53.5z"/> <circle fill="#FEAA7B" cx="85.4" cy="70.1" r="2.5"/> <path fill="#FEAA7B" d="M99.4,92.3c-12.1,0-22.8-0.2-22.8-0.2S63.4,93.3,63,96.2c0,0-4.9-2.5-8.7-0.5c-3.8,2-7.3,5.8-7.3,13.7
			c0,7.9,0,56.6,0,56.6h0.7c0,0,0-1,0,0c0,3,2.6,5.5,5.8,5.5c3.2,0,5.5-2.8,5.5-6c0-2.9-2.1-5.4-5.1-5.9v-19.2c0,0,8.7-6.8,7.4-24.4
			c0,0,11.2,12.1,11.9,14.1c0.7,2,3.1,6,3.1,26h25l0.1-17c0,0,3.1-14,5.7-14c2.6,0,6.7-4.2,6.7-7.2c0-3,0-17.8,0-17.8
			S111.6,92.3,99.4,92.3z"/> <path fill="#FEAA7B" d="M123.5,73h-0.4c1.3-1,2.2-2.8,2.2-4.7c0-3.2-2.6-5.9-5.8-5.9c-3.2,0-5.8,2.6-5.8,5.8
			c0,0.5,0.1,0.9,0.2,1.3c-0.6,0.5-1,1.2-1,2c0,1.4,1.1,2.5,2.5,2.5c0.1,0,0.2,0,0.4,0L134.6,96c0,0-5.3-1.2-9.8-1.1
			c-4.5,0.1-11,4.8-11,4.8l0.3,19c0,0,10.7-5.5,21.5-5.7c10.8-0.3,12.6-14.3,12.6-14.3L123.5,73z"/> <path fill="#FFFFFF" d="M46.4,124h16l-0.2-6.1l10.4,12.5l3.2,26.6h26.9l-0.2-17.9l3.7-12c0,0,9.7-4.1,9.7-6.3s7.1-3.9,7.1-3.9
			l-3.5-22.7c0,0-3.5,1.9-4.8,3.2c-1.3,1.3-3.5-8.4-17.5-6.7l-7.6,29.9L75.2,90.3c0,0-9.4,1.1-11.7,2.9c-0.2,0.2-0.4,0.4-0.4,0.6
			c-0.6,2.2-6.3-0.6-7.8-0.4C53.8,93.6,43.2,94,46.4,124z"/> </g> </g> </symbol><symbol viewBox="0 0 195 293" id="card-13"><title>13</title> <g> <rect fill="#FFCC99" width="195" height="293"/> <g> <path fill="#C92C4F" d="M157.8,212.8H37.2c-2.8,0-5-2.2-5-5v-38c0-2.8,4.2-7,7-7h116.7c2.8,0,7,4.2,7,7v38
			C162.8,210.6,160.6,212.8,157.8,212.8z"/> </g> <path fill="#0F3A52" d="M155.3,158h-7.2c-4-24-19.3-37.2-32-43.8c2.7-2,4.5-5.1,4.5-8.7c0-3.6-1.8-6.8-4.5-8.8c0-0.1,0-0.3,0-0.4
		c0-5.6-4.4-10.2-9.9-10.6c-1.9-3-5.2-5-9-5c-0.1,0-0.1,0-0.2,0c-0.1,0-0.1,0-0.2,0c-3.8,0-7.2,2-9,5c-5.5,0.4-9.9,5-9.9,10.6
		c0,0.1,0,0.3,0,0.4c-2.7,2-4.5,5.2-4.5,8.8c0,3.7,1.8,6.8,4.6,8.7C65.2,120.9,49.9,134,45.9,158h-7.2c-5.5,0-11.7,6.8-11.7,12.3v38
		c0,5.5,4.2,9.7,9.7,9.7h120.7c5.5,0,9.7-4.2,9.7-9.7v-38C167,164.8,160.8,158,155.3,158z M47,208v-40h12v40H47z M62,208v-40h11v40
		H62z M76,208v-40h12v40H76z M91,208v-40h12v40H91z M106,208v-40h12v40H106z M121,208v-40h11v40H121z M135,208v-40h12v40H135z
		 M37,170.6c0-0.7,1.2-1.6,2-2.6h5v40h-7V170.6z M157.3,208H150v-40h5c0.7,1,2,1.6,2.3,2.3L157.3,208z"/> <path fill="#C92C4F" d="M110,99.7c0.7-0.9,1.1-2.1,1.1-3.3c0-3.1-2.5-5.7-5.7-5.7c-0.9,0-1.8,0.2-2.6,0.6c0-3.1-2.5-5.6-5.7-5.6
		c-0.1,0-0.1,0-0.2,0c-0.1,0-0.1,0-0.2,0c-3.1,0-5.7,2.5-5.7,5.6c-0.8-0.4-1.6-0.6-2.6-0.6c-3.1,0-5.7,2.5-5.7,5.7
		c0,1.3,0.4,2.4,1.1,3.3c-3.1,0.2-5.6,2.7-5.6,5.9c0,3.3,2.6,5.9,5.9,5.9c1.6,0,3.1-0.7,4.2-1.8c-0.1,0.4-0.1,0.9-0.1,1.4
		c0,4.6,3.8,8.4,8.4,8.4c0.1,0,0.1,0,0.2,0c0.1,0,0.1,0,0.2,0c4.6,0,8.4-3.8,8.4-8.4c0-0.5,0-0.9-0.1-1.4c1.1,1.1,2.6,1.8,4.2,1.8
		c3.3,0,5.9-2.6,5.9-5.9C115.6,102.4,113.1,99.8,110,99.7z"/> </g> </symbol><symbol viewBox="0 0 195 293" id="card-14"><title>14</title> <g> <rect fill="#886BAE" width="195" height="293"/> <polygon fill="#533C82" points="97,32.5 58,61 58,92 97,92 136,92 136,61 	"/> <g> <circle fill="#43316D" cx="97" cy="91.4" r="40"/> <path fill="#F5EDD9" d="M122,88.4C122,74.9,110.5,64,97,64S72,74.9,72,88.4V104h7v8h4.7c0,0,0-0.3,0-0.3c0-1.9,1.6-3.6,3.5-3.6
			c1.9,0,3.5,1.7,3.5,3.6c0,0.1,0,0.3,0,0.3h2.5c0,0,0-0.3,0-0.3c0-1.9,1.6-3.6,3.5-3.6s3.5,1.7,3.5,3.6c0,0.1,0,0.3,0,0.3h3
			c0,0,0-0.3,0-0.3c0-1.9,1.6-3.6,3.5-3.6c1.9,0,3.5,1.7,3.5,3.6c0,0.1,0,0.3,0,0.3h4.7v-8h7V88.4z"/> <circle fill="#F6911D" cx="87.7" cy="91.4" r="5.3"/> <circle fill="#F6911D" cx="106.3" cy="91.4" r="5.3"/> <polygon fill="#43316D" points="100.1,99 96.7,104.8 93.4,99 		"/> </g> <polygon fill="#533C82" points="57,91.4 96.7,64 137,91.4 136.7,61 97,32.5 57.3,61 	"/> <g> <path fill="#F5EDD9" d="M66.1,151.9l13.2,13.2c0,0-27.2,19.8-41.6,48.2C37.7,213.3,31.3,186.7,66.1,151.9z"/> <rect x="109.1" y="131.4" transform="matrix(0.7071 -0.7071 0.7071 0.7071 -103.4864 135.5754)" fill="#F6911D" width="5.7" height="122.5"/> </g> <g> <path fill="#F5EDD9" d="M127.9,151.9l-13.2,13.2c0,0,27.2,19.8,41.6,48.2C156.3,213.3,162.7,186.7,127.9,151.9z"/> <rect x="80.3" y="131.4" transform="matrix(-0.7071 -0.7071 0.7071 -0.7071 5.5778 387.724)" fill="#F6911D" width="5.7" height="122.5"/> </g> </g> </symbol><symbol viewBox="0 0 195 293" id="card-15"><title>15</title> <g> <rect fill="#663399" width="195" height="293"/> <g id="15-vcKlen_1_"> <g> <path fill="#CCD70E" d="M51.7,145.5c1.9-2.7,3.8-5.3,5.7-8c0.5,0.1,0.9,0.1,1.4,0.2c0,1,0,2,0,3c-0.5,0.4-1,0.8-1.5,1.2
				c0.1,0.1,0.2,0.2,0.3,0.3c0.4-0.5,0.8-1,1.2-1.5c1.3-0.3,2.7-0.7,4-1c0,1.3,0,2.7,0,4c-0.4,0.2-0.9,0.3-1.3,0.5
				c0.4,0.2,0.9,0.3,1.3,0.5c0,0.3,0,0.7,0,1c-0.7,0.2-1.5,0.4-2.2,0.6c0.4,0.5,0.7,0.9,1.1,1.4c1.4,0,2.7,0,4.1,0
				c0.2,0.3,0.5,0.6,0.7,1c0.1-0.1,0.2-0.2,0.2-0.3c1.4-2.9,2.7-5.8,4-8.6c1.3,1,2.7,2,4,3c0.3,0.3,0.7,0.7,1,1l-0.4,0.2l0.2,0.2
				l0.2-0.4c1,0,2,0,3,0c0.5,0.1,1,0.2,1.5,0.3c-0.5-0.4-1-0.9-1.5-1.3c0-0.7,0-1.3,0-2c0-1.3,0-2.7,0-4c0-0.3,0-0.7,0-1
				c0-0.3,0-0.7,0-1c0.7,0,1.3,0,2,0c0.7-0.3,1.3-0.7,2-1c1-2,2-4,3-6c0.6-1.1,1.3-2,2-3c0.3-0.7,0.7-1.3,1-2c0.3-1,0.7-2,1-3
				c1.7-0.7,3.3-1.3,5-2c1.9,1.2,3.8,2.4,5.7,3.7c-0.4,0.1-0.8,0.3-1.3,0.4c0.2,2,0.4,3.9,0.6,5.9c-0.7,1.7-1.3,3.3-2,5
				c-0.3,0.7-0.7,1.3-1,2c-4.1,1.3,1.2,2.7,0,4c-1,1.7-2,3.3-3,5c-1.3,0.7-2.7,1.3-4,2c-0.7,0.7-1.3,1.3-2,2c-0.3,0-0.7,0-1,0
				c-1-0.7-2-1.3-3-2c0,0.3,0,0.7,0,1c0.3,0.3,0.6,0.7,1,1c-0.2,4.8,2.7,5.5,6.8,4.5c-0.3,1.4-0.5,2.4-0.7,3.5
				c-0.2,0.8-0.1,2-0.5,2.3c-2.5,1.4-5.2,2.5-8.2,3.8c1.6,1.5,2.6,2.4,3.5,3.3c1-1.4,1.8-2.4,2.5-3.5c0.3,0.1,0.6,0.2,0.9,0.3
				c0,1.5,0,2.9,0,4.9c1.7-0.3,2.8-0.6,4.2-0.8c-0.9-1.1-1.5-1.8-2.4-3c2.5-0.2,4.3-0.3,6.9-0.4c-1.9-2.6-3.4-4.7-4.9-6.8
				c3.6-0.8,7.1-1.6,11.2-2.5c-0.7-0.8-1.5-1.7-2.2-2.5c0-0.7,0-1.3,0-2c0.3-0.5,0.6-1,0.9-1.6c3,3.2,3.3-1.1,5.5-1.4
				c-1.3-1.9-2.2-3.3-3.2-4.7c-1.2,0.6-2.2,1.1-3.2,1.6l0,0c-0.3-0.3-0.7-0.7-1-1c0.3-0.7,0.7-1.3,1-2c1.2-0.6,2.5-1.2,3.9-1.8
				c-3.2-1.2-6.1-2.2-8.9-3.2c0.3-0.7,0.7-1.3,1-2c1-0.3,2-0.7,3-1c0.3,0,0.7,0,1,0c1.5-0.2,3.2,0,4.6-0.6c2.3-0.9,4.4-2.3,7.4-3.9
				c2-5.9,4.4-13,6.7-19.6c-2.3-2.4-4.7-5.1-7.1-7.6c-0.3,0.2-1.4,0.9-2.5,1.7c-0.1-0.1-0.3-0.1-0.4-0.2c0.1,0.1,0.3,0.2,0.4,0.2
				c0,0.3,0,0.7,0,1c-1-0.7-2-1.3-3-2c0.9-1.8,2-5.3,2.7-5.2c3.9,0.4,4.1-3.4,6.3-4.8l0,0c1-0.3,2-0.7,3-1c0-0.5-0.1-1.1-0.1-1.6
				c-2.4-0.4-4.8-0.9-7.6-1.4c-0.3-0.6-0.8-1.8-1.3-2.9c0.3-2,0.5-4,0.8-6.2c-4.3,1.3-5.6,3.1-1.8,6.2c-0.2,1.8-0.5,3.5-0.9,6.6
				c-1.3-0.1-3.7-0.4-6.1-0.6l0,0c-1.2-3.2-2.4-6.5-3.4-9.3c-2.5,0.3-4.5,0.4-6.4,0.8c-1.4,0.3-2.8,1-4.1,1.6
				c0.2,0.4,0.3,0.9,0.5,1.3c0.8-0.1,1.6-0.2,2.4-0.3c0,0.3,0,0.7,0,1c-2.7,3.6-6.4,2.8-10,2c0-0.7,0-1.3,0-2
				c3.8,0.1,5.7-1.9,6.3-5.7c-1.7-0.2-3.3-0.5-4.1-0.6c-1.2-2.9-2.2-5.3-3.2-7.7c5.3-1.5,10.5-2.9,15.8-4.3c0.9,0,1.8,0,2.7-0.1
				c24.5,3.7,36,18.4,34.9,44.8c-0.4,10.5-1,21.2,6,30.1c3.2,4.1,7.3,7.5,10.9,11.3c7.5,8,12.6,17.4,15.3,28.2
				c8.4,34.2-14.7,69-49.6,74.9c-1.9-5.5-5.8-4.1-9.8-2.4c1.4,1.2,3,1.5,4.7,1.9c0.7,0.2,1.5,0.5,2.2,0.7c-3.4,0.2-6.9,0.3-10.3,0.5
				c-1.9-5.9-4.8-7.1-10.3-4.2c-1.5-3.7-3-7.5-4.5-11.1c0,0-0.8,0.5-2.5,1.5c1.3-3.5,2.2-5.9,3.4-9.2c-3.2,1.4-5.6,2.4-8.2,3.5
				c-0.5-2-0.9-3.4-1.5-5.7c-0.9,1.9-1.4,2.9-2.1,4.6c-2.7-2-5.2-3.9-7.7-5.8c2.6-5.2,5.1-10.3,7.8-15.8c1.6,1.9,2.7,3.3,3.9,4.6
				c-0.8,1-1.9,1.9-2.5,3.1c-0.5,1-0.3,2.2-0.4,3.3c1.4-0.4,3.1-0.5,4.1-1.4c1.8-1.5,2.8-4.1,4.7-5.2c3-1.8,3.5-3.7,2.2-6.6
				c-0.4-1-0.8-2.1-1.1-3.1c0.7-0.7,1.3-1.3,2-2c0.7-2.3,1.3-4.7,2-7c0-0.3,0-0.7,0-1c0.9-1,1.9-2,2.8-3c0.8,1.6,0.5,3,0.3,4.4
				c-0.2,1-0.5,2-0.6,3.1c-0.2,1.7-0.2,3.5-0.3,5.3c0.2,2.8,4.1,4.9,1.1,9.1c-0.2,0.3,1.7,2,2.6,3.1c1.7,1.7,3.3,3.3,5,5
				c0,0.3,0,0.7,0,1c-1.1,0.3-2.3,0.5-3.4,0.8c0.1,0.4,0.2,0.9,0.4,1.3c1-0.4,2-0.7,3.1-1.1c1.8,0.6,3.6,1.2,5.4,1.8
				c1.2,0.4,2.4,0.8,3.6,1.2c0.7-0.7,1.3-1.3,2-2c0-0.3,0-0.7,0-1c0.2-2.4,0.4-4.7,0.7-7.9c-3.7,0.8-6.2,1.4-9.2,2.1
				c-1.4-0.8-3.4-2-5.5-3.2c-0.3-1.3-0.7-2.7-1-4l0,0c-0.2-1.5-0.3-2.9-0.7-4.3c-0.8-3.2-1-6.1,2.7-7.7c0,0,0.5,0,0.5,0s0.5,0,0.5,0
				c1,2,2,4,3,6c0,0.7,0,1.3,0,2c-0.7,0.1-1.5,0.1-2.2,0.2c0,0.2,0.1,0.5,0.1,0.7c0.7-0.3,1.4-0.6,2.1-0.9c1.7,0.4,3.4,0.9,5.6,1.5
				c0,0.1,0,1.1,0,3.8c2.2-2.8,3.4-4.4,4.9-6.3c7.5,6,9.8,2.1,9.9-5.5c1.5,0.5,2.8,0.9,4,1.3c0.2-0.6,0.4-1.2,0.6-1.8
				c-1.6-0.4-3.3-1.3-4.7-1c-3.6,0.7-5.6-0.5-7-3.8c-0.5-1-2.1-1.5-3.2-2.3c1.3-0.8,2.6-1.7,4.2-2.7c-1.5-2.3-2.9-4.3-4.2-6.3l0,0
				c2.9-1.3,5.9-2.6,8.7-4c0.1,0-0.5-1.3-0.7-2c0-0.7,0-1.3,0-2c0.1-0.5,0.2-1,0.3-1.5c-0.4,0.5-0.9,1-1.3,1.5c-0.3,0-0.7,0-1,0
				c-0.7-0.3-1.3-0.7-2-1l0,0c-0.5-4.4-0.9-8.8-1.4-12.9c-4.1-4-8-8-12-12c-0.5,0.5-1,1-1.6,1.6c1.4,1.4,2.8,2.7,4.8,4.7
				c-3.2,1.4-6.1,2.7-9,4c-0.2-0.5-0.5-0.9-0.7-1.4c-0.3,1.5-0.7,3-1.2,5.2c2.1-0.7,3.3-1.2,5.1-1.7c0.3,1.8,0.6,3.4,1.1,6
				c-4-0.5-7-1-10.1-1.4c-1.1-0.2-2.3-0.3-3.7-0.5c0.5,1.3,0.8,2.1,1,2.6c-1.7,0.3-3.2,0.6-4.7,0.9c0.6,1.5,1.5,3,1.8,4.5
				c0.2,1.1-0.3,2.3-0.5,3.5l0,0c-0.7-0.7-1.3-1.3-2-2c-1.3,0-2.7,0-4,0c0,0.3,0,0.7,0,1c0.3,0.7,0.7,1.3,1,2
				c-1.8,5.9-3.6,11.8-5.3,17.8c-0.2,0.6,0.8,1.5,1.3,2.3c-0.3,1.3-0.7,2.7-1,4c-2.8,0.3-6.4-3.1-8,2c0,0.7,0,1.3,0,2l0,0
				c-0.7,0-1.3,0-2,0c-1.7-1.7-3.3-3.3-5-5c-1-1.7-2-3.3-3-5c1.3-0.4,2.6-0.9,3.8-1.3c-0.1-0.3-0.2-0.5-0.3-0.8c-1.4,0-2.8,0-4.4,0
				c0.4,0.9,0.6,1.5,0.9,2.1c-1.2,0.4-2.4,0.8-3.6,1.2c-0.3-1.2-0.6-2.3-0.9-3c-2.4-0.2-4.3-0.3-7.3-0.5c7.9,5.8-0.4,7.2-1.8,11.4
				c-0.7-2.3-1.1-3.7-1.5-5.1c1.2-0.5,2.3-1,3.5-1.5c-0.5-0.5-1-1-1.6-1.6c-0.6,1-1.3,2-1.9,3c-1.1,0.4-2.1,0.7-3.4,1.1
				c0.9,0.8,1.5,1.3,3,2.7c-4.2,0.5-7.4,0.8-10.7,1.2c2.5-3.3,3.7-7.5,8.2-9.3c1.4-0.5,2-3.5,2.7-5.4c2-5.1,5.3-9.9,2.9-15.8
				c-0.1-0.3,0.7-1.1,1-1.6c0.9,0.3,2.1,1,2.8,0.7c1.8-0.8,4-1.7,4.9-3.2c0.6-0.9-0.5-3.5-1.5-4.6c-3.5-3.8-4.3,1-6.3,2.3
				c-1.3-2.1-3.2-4.1-3.7-6.5c-0.9-4-2.5-6.6-7-6.7c2.2-2.7,4.3-5.4,6.5-8.1c2.3,0.5,4.6,1,8,1.8C52.9,151,52.3,148.3,51.7,145.5z
				 M67.8,169.7c-0.1-0.1-0.3-0.2-0.4-0.2C67.5,169.5,67.6,169.6,67.8,169.7c0.1,0.1,0.3,0.2,0.4,0.2
				C68.1,169.8,67.9,169.8,67.8,169.7z M75.8,229.7c-0.1-0.1-0.3-0.2-0.4-0.2C75.5,229.5,75.6,229.6,75.8,229.7
				c0.1,0.1,0.3,0.2,0.4,0.2C76.1,229.8,75.9,229.8,75.8,229.7z M135.8,141.7c0.1-0.4,0.2-0.9,0.4-1.3
				C136,140.8,135.9,141.2,135.8,141.7c-0.1,0.1-0.2,0.3-0.2,0.4C135.6,142,135.7,141.8,135.8,141.7z M114.8,148.7
				c1.8-0.2,3.5-0.3,5.3-0.5c0-0.3,0.1-0.6,0.1-0.9c-1.8-0.6-3.7-1.1-5.8-1.8C114.6,147.1,114.7,147.9,114.8,148.7
				c-0.3,0.7-0.6,1.3-0.8,2c0.2,0.1,0.5,0.1,0.7,0.2C114.7,150.1,114.7,149.4,114.8,148.7z M68.8,163.7l-0.2-0.4l-0.2,0.2
				c0,0,0.4,0.2-0.7-1c1.4,3.1,2.2,4.7,3,6.4c0.5,0,1-0.1,1.4-0.1c0.3-1.4,1.4-3.1,0.9-4C72.3,163.8,70.4,163.6,68.8,163.7z
				 M60.8,180.7c0.6-0.4,1.6-0.8,1.8-1.4c0.7-2,1.2-4.2,1.8-6.5c-0.9-0.1-2.6-0.3-4.2-0.4C60.4,175.4,60.6,178.1,60.8,180.7
				c-0.1,0.1-0.2,0.3-0.2,0.4C60.6,181,60.7,180.8,60.8,180.7z M62.8,155.7c-0.4-0.1-0.9-0.2-1.3-0.4
				C61.9,155.4,62.3,155.6,62.8,155.7c1.3,1.3,2.7,2.6,4,3.9c0.6-0.4,1.3-0.9,1.9-1.3c-0.9-2.4-1.8-4.8-3-8
				C64.3,152.9,63.5,154.3,62.8,155.7z M70.8,150.7c-0.1-0.1-0.3-0.2-0.4-0.2C70.5,150.5,70.6,150.6,70.8,150.7c0,1.9,0,3.7,0,5.9
				c6.1-2.2,7.5-4,6.3-6.9C74.9,150,72.8,150.3,70.8,150.7z M129.8,143.7c-1.6,1-3.1,2-4.7,3c3.3,0.6,6.2,1.2,9.2,1.8
				c-2-10.9-2.5-12.9-7-10.4C128.2,140,129,141.9,129.8,143.7L129.8,143.7z M98.8,244.7C98.8,244.7,98.8,244.7,98.8,244.7
				c-0.2,1.1-0.4,2.2-0.6,3.5c2.1-0.6,4.5-0.7,5.5-1.9c0.8-1-0.4-3.4-0.3-5.2c0-1.3,0.7-2.6,1.1-3.9c-0.5-0.1-0.9-0.3-1.4-0.4
				c-1.9,1.7-3.9,3.3-5.5,5.3C96.7,242.8,95.1,245.3,98.8,244.7z M120.8,120.7c1.2,1.4,2.4,2.8,3.5,4c-1.9,1.6-3.6,3.1-5.4,4.5
				c0.3,0.4,0.7,0.8,1,1.2c1-0.8,2-1.6,3.3-2.6c0.1,1.5,0.2,2.5,0.3,5c3.6-3.3,6.3-5.8,9.8-9c-3.5-0.2-5.8-0.5-2.4-2.9
				c-3.2-0.7-6.2-1.5-9.6-2.2C121.2,119.2,121,119.9,120.8,120.7c-0.1,0.1-0.2,0.3-0.2,0.4C120.6,121,120.7,120.8,120.8,120.7z
				 M117.7,95.4c1.2,1.8,2.3,3.5,4.1,6.1c0.6-4.2,7.4-1,5.5-5.6C125.7,92.1,121.5,93.3,117.7,95.4z M132.4,165.7
				c1.3-1.1,3-2.3,2.9-2.5c-1.4-2.4-2.6-5.3-4.7-6.8c-1.5-1.1-4.4-0.2-6.7-0.2c0,0.6,0,1.1,0,1.7c2.2,0.3,4.4,0.6,7.1,1
				C131.3,160.6,131.7,162.6,132.4,165.7z M106.2,135.9c2.7,1.8,4.7,3.2,6.8,4.6c5-3,0.7-5.5,0.3-8.5
				C110.9,133.3,109.1,134.3,106.2,135.9z M145.4,216.8c0.4,0.2,0.8,0.3,1.2,0.5c0.8-1.9,1.6-3.8,2.5-6.2c-1.5-1.3-3.3-2.8-6-5
				C144,210.4,144.7,213.6,145.4,216.8z M149.2,228.5c-4.8,3.6-4.7,7.1-0.9,8.8C148.6,234.3,148.9,231.4,149.2,228.5z M80,176.2
				c-2.8,1.2-5.1,2.2-8.7,3.8c2.5,0.4,3.8,0.3,4.3,0.8c0.8,0.8,1.1,2.1,2.1,4.3C78.6,181.6,79.2,179.3,80,176.2z M74.5,195.4
				c0.6,0,1.3-0.1,1.9-0.1c0-2.3,0-4.6,0-6.9c-0.8,0-1.6,0.1-2.3,0.1C74.1,190.8,74.3,193.1,74.5,195.4z M125.5,111.1
				c-0.3,0.2-0.7,0.3-1,0.5c0.9,2,1.7,4,2.7,5.9c0,0.1,1.1-0.4,1.7-0.6c-0.8-1.7-1.5-3.4-2.3-5C126.4,111.5,125.9,111.3,125.5,111.1
				z M130.3,153.9c0.1-0.5,0.2-0.9,0.3-1.4c-1.2,0-2.4,0-3.6,0c0,0.5,0,0.9,0,1.4C128.1,153.9,129.2,153.9,130.3,153.9z M93.5,78.4
				c0.1-0.5,0.2-0.9,0.3-1.4c-1.3,0-2.6,0-3.8,0.1c0,0,0,1.1,0,1.3C91.3,78.4,92.4,78.4,93.5,78.4z M122.6,160.8c0,0.4,0,0.8,0,1.2
				c0.9,0,1.8,0,2.7,0c0-0.3,0-0.6,0-0.9C124.4,161,123.5,160.9,122.6,160.8z M89.1,136.7c-0.3,0.4-0.8,0.7-0.8,1
				c0,0.3,0.7,0.9,0.8,0.8c0.5-0.2,0.8-0.6,1.2-1C89.9,137.2,89.6,137,89.1,136.7z M57.4,181.4c-0.3-0.1-0.6-0.4-0.8-0.3
				c-0.2,0.1-0.4,0.6-0.3,0.8c0.1,0.2,0.6,0.4,0.8,0.3C57.2,182.1,57.3,181.7,57.4,181.4z M89.4,132.4c-0.3-0.1-0.6-0.4-0.8-0.3
				c-0.2,0.1-0.3,0.5-0.4,0.8c0.3,0.1,0.6,0.4,0.8,0.3C89.2,133.1,89.3,132.7,89.4,132.4z M95.3,126.4c-0.3-0.1-0.6-0.2-0.8-0.4
				c-0.1,0.3-0.4,0.6-0.3,0.8c0.1,0.2,0.5,0.3,0.8,0.4C95.1,127,95.2,126.7,95.3,126.4z M115.3,80.1c0.1-0.3,0.2-0.6,0.3-0.8
				c-0.6-0.2-1.3-0.4-1.9-0.5c-0.1,0.2-0.1,0.5-0.2,0.7C114.1,79.7,114.7,79.9,115.3,80.1z M120.3,142c0.3,0.1,0.6,0.3,0.9,0.4
				c0.1-0.6,0.2-1.2,0.3-1.8c-0.2,0-0.3-0.1-0.5-0.1C120.8,141,120.5,141.5,120.3,142z M84.2,138c0.3,0.1,0.6,0.4,0.8,0.3
				c0.2-0.1,0.3-0.5,0.4-0.8c-0.3-0.1-0.6-0.4-0.8-0.3C84.3,137.2,84.3,137.7,84.2,138z M124.3,152.4c-0.3-0.1-0.6-0.2-0.8-0.4
				c-0.1,0.3-0.4,0.6-0.3,0.8c0.1,0.2,0.5,0.3,0.8,0.4C124.1,153,124.2,152.7,124.3,152.4z M97.3,77.3c-0.5-0.3-0.8-0.6-1-0.5
				c-0.2,0.1-0.3,0.5-0.5,0.7C96.2,77.5,96.6,77.4,97.3,77.3z M105.5,152.3c0.1,0,0.3,0.1,0.4,0.1c0,0,0.1-0.2,0.1-0.4
				c-0.1,0-0.3-0.1-0.4-0.1C105.6,151.9,105.5,152.2,105.5,152.3z M109.4,76c0.1-0.1,0.1-0.3,0.1-0.4c0,0-0.2-0.1-0.4-0.1
				c0,0.1-0.1,0.3-0.1,0.4C109,75.9,109.3,75.9,109.4,76z M126.7,101.4c0.1-0.1,0.3-0.1,0.4-0.2c-0.1-0.1-0.2-0.3-0.4-0.3
				c-0.1,0-0.3,0.1-0.4,0.2C126.5,101.2,126.6,101.3,126.7,101.4z M120.2,155.3c-0.3-0.1-0.5-0.2-0.7-0.2c0,0.1,0.1,0.3,0.1,0.4
				C119.7,155.4,119.9,155.3,120.2,155.3z M117.5,161.7c-0.1-0.1-0.1-0.3-0.2-0.4c-0.1,0.1-0.3,0.2-0.3,0.4c0,0.1,0.1,0.3,0.2,0.4
				C117.3,161.9,117.4,161.8,117.5,161.7z M130.1,101.1c-0.1-0.1-0.3-0.1-0.4-0.2c0,0.1-0.1,0.2-0.1,0.4c0.1,0,0.3,0.1,0.4,0.1
				C130,101.4,130,101.2,130.1,101.1z M51.3,165.3c0,0.2,0,0.5-0.1,0.7c0.1-0.1,0.3-0.2,0.3-0.3C51.5,165.6,51.4,165.4,51.3,165.3z"/> <path fill="#C7D30A" d="M70.8,210.7c0-0.7,0-1.3,0-2c2,0.3,4,0.7,6,1l0,0c-0.4,0.2-0.9,0.3-1.3,0.5c0.4,0.2,0.9,0.3,1.3,0.5
				c0.7-0.3,1.3-0.7,2-1l0,0c0.7,0.3,1.3,0.7,2,1c0.7,1.3,1.3,2.7,2,4c-0.3,1.3-0.7,2.7-1,4c-1.1-1.3-2.2-2.7-3.9-4.6
				c-2.7,5.6-5.2,10.6-7.8,15.8c2.5,1.9,5,3.8,7.7,5.8c0.8-1.7,1.2-2.6,2.1-4.6c0.6,2.3,1,3.6,1.5,5.7c2.6-1.1,5-2.1,8.2-3.5
				c-1.2,3.3-2.1,5.7-3.4,9.2c1.7-1,2.4-1.5,2.5-1.5c1.5,3.7,3,7.4,4.5,11.1c-0.2,0-0.4,0.1-0.4,0.3c-5.5,1.4-5.2-3.4-6.3-5.7
				c-2.7-0.9-5-1.6-7.2-2.3c-1.5,1.8-4.7,4-5.4,3.3c-3-2.6-5.3-6-7.6-9.3c-0.3-0.5,0.4-1.7,0.9-3.3c3.2,5.9,4.3,6.2,10.2,2.8
				c-4.4-1.8-8.6-3.5-11.3-4.6c-3.3,1-5.9,2.6-6.9,1.9c-1.7-1.1-2.2-3.8-3.4-5.8c-0.5-0.8-1.4-1.2-2.1-1.9c-0.1-1.3-0.2-2.5-0.3-3.5
				c2.9,0.7,5.2,1.2,7.5,1.7c0.3-0.3,0.6-0.7,0.9-1c-1.5-1.2-2.7-2.8-4.4-3.6c-3.8-1.8-7.1,0-11.6,2c6.4,2.5,2.6,5.5,1.9,8.3
				c-3-0.3-6-0.7-9-1c-2.4-4.3-4.7-8.6-7.1-12.9c3.4-1.5,5-0.2,4.9,3.1c3.1-1.8,6.1-3.5,9.1-5.2c1.3-0.2,2.6-0.4,3.5-0.5
				c-0.2-2.5-0.4-4.2-0.7-7.1c2.8,1.6,4.4,2.4,5.4,2.9c-0.5,2.3-0.8,4-1.2,5.7c-0.1,0.1-0.2,0.3-0.2,0.4c0.1-0.1,0.2-0.3,0.2-0.4
				c1.1-0.8,2.1-1.5,3.6-2.6c1,1.7,1.9,3.2,2.8,4.9c1.6-3.3,3.1-6.3,4.6-9.4c1.7,0.3,3.3,0.7,5,1C69.4,210.7,70.1,210.7,70.8,210.7
				c0.1,0.1,0.3,0.2,0.4,0.2C71,210.8,70.9,210.8,70.8,210.7z"/> <path fill="#EEEC96" d="M49.6,177.6c-0.4,0.6-1.2,1.3-1,1.6c2.4,5.9-0.9,10.7-2.9,15.8c-0.7,1.9-1.3,4.8-2.7,5.4
				c-4.6,1.7-5.7,6-8.2,9.3c-1,0.7-2,1.3-3,2c-0.3,0.4-0.7,0.7-1,1.1c-1.1-3.8-2.9-7.4-3.3-11.3c-1.8-14.5,1.9-27.9,9.6-40.3
				c0.4-0.6,1.3-1,1.9-1.5c4.4,0.1,6.1,2.7,7,6.7c0.5,2.3,2.4,4.3,3.7,6.5C49.6,174.4,49.6,176,49.6,177.6z"/> <path fill="#CDD80E" d="M107.8,100.7c1,0.7,2,1.3,3,2c1.4,1.9,2.8,3.9,4.1,5.8c-0.2,0.1-0.5,0.3-0.7,0.4
				c-1.1-0.8-2.3-1.5-3.4-2.3l0,0c-2-0.7-4-1.3-6-2c-1,0-2,0-3,0c-3.3-1.3-2.8,1.2-3,3c-0.7,0.3-1.4,0.6-2,1c-0.7,0.3-1.3,0.7-2,1
				c-0.7,1-1.3,2-2,3c-1.7-1.2-3.4-2.4-5.5-3.8c0.1,1.6,0.1,2.9,0.2,4.4c-1.6,0-2.9,0-4.4,0c1.4,1.7,2.6,3,3.8,4.4
				c-0.3,0.6-0.7,1.2-1,1.7c-2.2-0.8-4.4-1.7-6.7-2.5c0.1,0.3,0.1,0.6,0.2,0.8c-2.7,0.2-5.3,0.4-8,0.7c1.2,4.8,2.3,9.6,3.5,14.4
				c-1.7-0.3-3.3-0.7-5-1c0.6-0.7,1.1-1.4,1.7-2.1c-0.4-0.4-0.8-0.8-1.2-1.2c-1.2,1.1-2.3,2.2-3.5,3.3c-0.3,1-0.7,2-1,3
				c-2.1,0.3-5.2-1.1-5,3l0,0c-0.7,0-1.3,0-2,0c-0.5-0.1-0.9-0.1-1.4-0.2c4.1-7.9,3.2-16.5,3.7-24.9c1.2-0.7,2.5-1.3,3.7-2
				c0.8,1.3,1.5,2.5,2.7,4.6c1.1-2,2-3.7,2.7-4.9c2.8,0.5,5.6,1.4,8.4,1.3c1.9-0.1,3.8-1.7,6.1-2.8c-1.4-1-3.4-2.5-4.8-3.5
				c0.7-2.5,1.3-4.5,1.9-6.6c0.3-1,0.7-2,1-3c1.3-0.3,2.7-0.7,4-1c0,1.3-0.1,2.7,0.1,4c0.2,1.2,0.6,2.8,1.4,3.4
				c1.2,0.8,2.9,0.9,4.4,1.3c0-0.9,0-1.8,0-2.7c0-0.3,0-0.7,0-1c1.3,0,2.7,0,4,0c3.2-1.7,6.4-3.3,9-4.7
				C106.3,96.6,107,98.7,107.8,100.7z M96.6,102.3c-0.4,0.2-0.8,0.4-1.2,0.6c-0.2,0.7-0.6,1.4-0.6,2c0,0.3,0.8,0.6,1.2,0.9
				c0.4-0.6,1-1.1,1.2-1.7C97.3,103.6,96.9,102.9,96.6,102.3z M68.4,125c-0.1,0.4-0.1,0.8-0.2,1.3c0.8,0.1,1.7,0.1,2.5,0.2
				c0-0.2,0.1-0.4,0.1-0.7C70.1,125.5,69.2,125.2,68.4,125z M69.4,121.4c-0.3-0.1-0.6-0.4-0.8-0.3c-0.2,0.1-0.3,0.5-0.4,0.8
				c0.3,0.1,0.6,0.4,0.8,0.3C69.2,122.1,69.3,121.7,69.4,121.4z"/> <path fill="#CCD70E" d="M53.8,227.7c0.7,0.6,1.6,1.1,2.1,1.9c1.2,1.9,1.7,4.6,3.4,5.8c1,0.7,3.6-0.9,6.9-1.9
				c2.7,1.1,6.9,2.8,11.3,4.6c-5.9,3.4-7,3.2-10.2-2.8c-0.5,1.6-1.2,2.8-0.9,3.3c2.4,3.3,4.7,6.7,7.6,9.3c0.7,0.6,3.9-1.6,5.4-3.3
				c2.2,0.7,4.4,1.4,7.2,2.3c1.1,2.3,0.8,7.1,6.3,5.7c-0.4,1.3-0.8,2.6-1.3,3.9c-22.1,0.7-39.7-7.9-52.8-25.8c3,0.3,6,0.7,9,1
				C50.8,231.8,52.9,230.7,53.8,227.7z"/> <path fill="#CDD80D" d="M64.8,110.7c-1.2,0.7-2.5,1.3-3.7,2c-1.2-13.6,0.5-26.3,11.5-36.1c1,1.1,2,2.3,3.1,3.5c1-0.5,2-0.9,3-1.4
				l0,0c1,2,2,4,3,6c0,0.7,0,1.3,0,2c-1.7,0.3-3.3,0.7-5,1c-1.7,0.7-3.3,1.3-5,2c-1.5,0.4-3.1,0.8-4.5,1.1c-0.2,2.3-0.5,4.7-0.7,7.5
				c1.5-1.3,3-2.2,3.8-3.4c0.8-1.2,0.9-2.8,1.4-4.2c1.7-1,3.3-2,5-3c2.3,1,4.7,2,7,3c-1.2,0.8-2.5,1.6-3.6,2.6
				c-1,0.8-2.1,1.8-2.6,2.9c-1,2.1-1.7,4.4-2.6,6.5c-0.4-0.5-0.9-1.1-1.3-1.6c-2.1,0-4.3,0-6.7,0c0.6,2.4,1,4.4,1.2,5.2
				C66.7,108.3,65.7,109.5,64.8,110.7z M78.1,82.1c-0.1,0-0.3-0.1-0.4-0.1c0,0-0.1,0.2-0.1,0.4c0.1,0,0.3,0.1,0.4,0.1
				C78,82.4,78,82.2,78.1,82.1z"/> <path fill="#D1DB18" d="M81.8,84.7c-1-2-2-4-3-6c0.1-0.1,0.2-0.3,0.2-0.4c-0.1,0.1-0.2,0.3-0.2,0.4c-1,0.5-2.1,1-3,1.4
				c-1.1-1.2-2.1-2.4-3.1-3.5c2.7-2,5.5-3.9,8.2-5.9c1,2.4,2,4.7,3.2,7.7c0.8,0.1,2.4,0.3,4.1,0.6C87.5,82.7,85.6,84.8,81.8,84.7z"/> <path fill="#CDD80E" d="M30.7,212.7c0.3-0.4,0.7-0.7,1-1.1c1.5,0.1,3.2,0.8,4.3,0.3c4.9-2.7,7.5,0.1,9.8,3.8
				c-3,1.7-6,3.5-9.1,5.2c0.1-3.3-1.5-4.6-4.9-3.1C31.4,216.1,31,214.4,30.7,212.7z"/> <path fill="#639922" d="M122,52.8c-4.2,4.9-9.9,6.5-16.1,6.7c0.3-0.8,0.6-1.5,0.9-2.3c0.9-0.9,1.7-1.7,2.6-2.6
				c0.5-0.3,1-0.7,1.5-1c0,0,0,0,0,0c3-2,6-4,9-6C121.2,49.1,118.5,52.3,122,52.8z"/> <path fill="#589217" d="M109.3,54.7c-0.9,0.9-1.7,1.7-2.6,2.6c-0.7,0.1-1.4,0.3-2.1,0.4c1.7-4.7,3.3-9.3,5-14c2,0,4,0,6.1,0
				c0,0,0,0,0,0c0.5,0.4,0.9,0.8,1.4,1.2c-2.1,3-4.2,5.9-6.4,8.9c0,0,0,0,0,0C110.3,54,109.8,54.3,109.3,54.7z"/> <path fill="#141713" d="M104.7,57.6c0.7-0.1,1.4-0.3,2.1-0.4c-0.3,0.8-0.6,1.5-0.9,2.3c-2.2,2.3-4.4,4.6-6.6,6.8
				c-0.9,0-1.8,0-2.7,0.1c0-5.7,0-11.3,0-17c0.6,0,1.2,0,1.7,0c0,4.5,0,9,0,14.3C101,61.1,102.8,59.4,104.7,57.6z"/> <path fill="#639922" d="M117.1,44.8c-0.5-0.4-0.9-0.8-1.4-1.2c0.1-0.1,0.1-0.3,0.2-0.4c-0.1,0.1-0.2,0.3-0.2,0.4c-2,0-4,0-6.1,0
				c5.4-6.9,9.1-8.5,14.5-6.1c-0.1,1-0.3,2.1-0.4,3.1l0,0C121.5,42.1,119.3,43.4,117.1,44.8z"/> <path fill="#589217" d="M122,52.8c-3.5-0.5-0.8-3.7-2.2-5.1c1.3-2.3,2.7-4.7,4-7c0,0,0,0,0,0c0.8-0.5,1.7-1,2.5-1.5
				C128.8,44.5,128,47.2,122,52.8z"/> <path fill="#110F0E" d="M91.5,256.5c0.4-1.3,0.8-2.6,1.3-3.9c0-0.2,0.2-0.3,0.4-0.3c5.6-3,8.4-1.8,10.3,4.2
				C99.5,256.4,95.5,256.4,91.5,256.5z"/> <path fill="#C3CF09" d="M51.7,145.5c0.6,2.7,1.1,5.5,1.6,7.8c-3.5-0.8-5.8-1.3-8-1.8C47.4,149.5,49.6,147.5,51.7,145.5z"/> <path fill="#BDCA09" d="M113.8,255.9c-0.7-0.2-1.4-0.5-2.2-0.7c-1.6-0.4-3.2-0.8-4.7-1.9c4-1.7,7.9-3.1,9.8,2.4
				C115.8,255.7,114.8,255.8,113.8,255.9z"/> <path fill="#141713" d="M126.2,39.1c-0.8,0.5-1.7,1-2.5,1.5c0.1-1,0.3-2.1,0.4-3.1C124.9,38.1,125.5,38.6,126.2,39.1z"/> <path fill="#CDD80D" d="M121.8,179.7c0.3,0,0.7,0,1,0c0.3,0,0.7,0,1,0c0,0.7,0,1.3,0,2c-2.6,2-7.3,1.4-8,6c0,0,0,0,0,0
				c-0.7,0.3-1.3,0.7-2,1c-1,0.7-2,1.3-3,2c-1,0.7-2,1.3-3,2c-5.3,1.1-7.7-2.3-9.8-6c1.8-2.7,3.3-5.1,4.9-7.4
				c-0.3-0.4-0.6-0.8-1-1.2c-1.3,0.7-2.6,1.3-3.8,2.1c-1.2,0.8-2.2,1.7-3.3,2.5c-3-3.7-0.4-6.8,1-10c0.6,0.8,1.3,1.5,1.8,2.3
				c0.4,0.5,0.6,1.6,1,1.6c0.9,0,2.5-0.2,2.6-0.6c0.9-4.7,3.6-2,5.8-1.5c1.5,0.4,2.9,0.7,4.9,1.1c-1-2.8-1.6-4.4-2.2-6.1
				c0.4-0.4,0.9-0.8,1.3-1.2c2.3,1.8,4.5,3.6,6.8,5.4c-0.3,0.3-0.7,0.7-1,1c-2.3,3.8,1.2,3.3,3,4c0,0,0,0,0,0
				C120.4,179,121.1,179.3,121.8,179.7z"/> <path fill="#C9D50B" d="M94.8,182.7c1.1-0.9,2.2-1.8,3.3-2.5c1.2-0.8,2.5-1.4,3.8-2.1c0.3,0.4,0.6,0.8,1,1.2
				c-1.6,2.4-3.1,4.8-4.9,7.4c2.1,3.7,4.5,7,9.8,6c0,1,0,2,0,3c-0.7,0-1.3,0-2,0c-1.8-0.4-3.6-0.8-5.4-1.2c-0.6,3.2-2.7,5.9,1.4,7.2
				c0,0.3,0,0.7,0,1c-3.6,1.6-3.5,4.5-2.7,7.7c0.4,1.4,0.4,2.9,0.7,4.3c-0.1-0.1-0.3-0.2-0.4-0.2c0.1,0.1,0.3,0.2,0.4,0.2
				c0.3,1.3,0.7,2.7,1,4c-0.7,0.7-1.3,1.3-2,2c-0.9-1.1-2.8-2.8-2.6-3.1c3-4.2-0.9-6.4-1.1-9.1c0.1-1.8,0.2-3.5,0.3-5.3
				c0.1-1,0.4-2.1,0.6-3.1c0.3-1.4,0.5-2.8-0.3-4.4c-0.9,1-1.9,2-2.8,3c0-2.9,1.7-6.9-4-6c-2-2.6-5.3-4.7-3.3-8.8
				c0-0.1-1.1-0.8-1.7-1.2c-0.3-0.7-0.7-1.3-1-2c0-0.3,0-0.7,0-1c1.3,0,2.7,0,4,0c0.7,0.7,1.3,1.3,2,2c0,0,0,0,0,0c1,1.3,2,2.7,3,4
				c1.1,0.8,2.3,1.5,3.4,2.3c-0.1-0.8-0.3-1.5-0.4-2.3C94.8,184.7,94.8,183.7,94.8,182.7z"/> <path fill="#D1DB18" d="M92.8,99.7c0,0.3,0,0.7,0,1c-1.1-1.5-2.2-3-3-4.1c1.4-1.8,2.5-3.2,3.4-4.4c2.3,0.2,4.2,0.3,6.4,0.5
				c-1.6-3.5-2.9-6.4-4.5-9.9c-0.7,0.2-2,0.6-3.4,1c-0.8,0.1-1.6,0.2-2.4,0.3c-0.2-0.4-0.3-0.9-0.5-1.3c1.4-0.5,2.7-1.3,4.1-1.6
				c1.9-0.4,3.9-0.5,6.4-0.8c1,2.8,2.2,6,3.4,9.3c-0.4,0.2-0.7,0.5-1.1,0.7c0.4-0.2,0.7-0.5,1.1-0.7c2.4,0.2,4.8,0.5,6.1,0.6
				c0.4-3,0.6-4.8,0.9-6.6c0.3,0,0.6,0,1,0c0.5,1.2,1.1,2.4,1.3,2.9c2.8,0.5,5.2,1,7.6,1.4c0,0.5,0.1,1.1,0.1,1.6c-1,0.3-2,0.7-3,1
				c-0.1-0.1-0.3-0.2-0.4-0.2c0.1,0.1,0.3,0.2,0.4,0.2c-2.1,1.5-2.3,5.2-6.3,4.8c-0.7-0.1-1.8,3.4-2.7,5.2c-0.7-2-1.4-4.1-2-5.7
				c-2.6,1.4-5.8,3-9,4.7c-0.9-0.9-1.9-1.8-2.8-2.7C93.6,97.9,93.2,98.8,92.8,99.7z"/> <path fill="#D1DB18" d="M74.8,132.7c-1.1-4.8-2.3-9.5-3.5-14.4c2.6-0.2,5.3-0.4,8-0.7c-0.1-0.3-0.1-0.6-0.2-0.8
				c2.2,0.8,4.4,1.7,6.7,2.5c0.3-0.6,0.7-1.2,1-1.7c-1.2-1.3-2.3-2.7-3.8-4.4c1.5,0,2.8,0,4.4,0c-0.1-1.5-0.1-2.8-0.2-4.4
				c2.1,1.5,3.8,2.6,5.5,3.8c0.3,0.1,0.6,0.1,0.9,0.2c0.1,0,0.1,0.2,0.2,0.4c-1.5,0.7-3.1,1.4-4.7,2.1c0.2,1.4,0.4,2.8,0.6,4.2
				c-0.3,1-0.7,2-1,3c-0.3,0.7-0.7,1.3-1,2c-0.7,1-1.4,2-2,3c-1.1,2-2,4-3,6c-0.7,0.3-1.3,0.7-2,1c-0.7,0-1.3,0-2,0
				c-1-0.7-2-1.3-3-2C75.4,132.7,75.1,132.7,74.8,132.7z"/> <path fill="#D1DB18" d="M105.8,195.7c0.7,0,1.3,0,2,0c0.4,5.1,5.4,3.9,8,6c0.5-0.4,1-0.8,1.6-1.2c-0.5-0.3-1-0.5-1.6-0.8
				c0-1,0-2,0-3c1.1,0.7,2.8,1.2,3.2,2.3c1.4,3.3,3.5,4.5,7,3.8c1.4-0.3,3.1,0.6,4.7,1c-0.2,0.6-0.4,1.2-0.6,1.8
				c-1.3-0.4-2.5-0.8-4-1.3c-0.1,7.6-2.4,11.5-9.9,5.5c-1.4,1.8-2.7,3.5-4.9,6.3c0-2.7,0-3.7,0-3.8c-2.2-0.6-3.9-1-5.6-1.5l0,0
				c0-0.7,0-1.3,0-2c1-0.3,2-0.7,3-1c0.1,0.1,0.3,0.2,0.4,0.2c-0.1-0.1-0.3-0.2-0.4-0.2c-0.9-2.3-1.7-4.6-2.6-7.1
				c-1.5,0.9-2.4,1.5-3.4,2.1l-0.5,0c0,0-0.5,0-0.5,0c0-0.3,0-0.7,0-1c0.7-1,1.3-2,2-3c0.1,0.1,0.3,0.2,0.4,0.2
				c-0.1-0.1-0.3-0.2-0.4-0.2c0.3-0.7,0.7-1.3,1-2c0-0.3,0-0.7,0-1C105.1,195.7,105.4,195.7,105.8,195.7z"/> <path fill="#D2DC19" d="M110.8,106.7c1.1,0.8,2.3,1.5,3.4,2.3c0.2-0.1,0.5-0.3,0.7-0.4c-1.4-1.9-2.8-3.9-4.1-5.8c0-0.3,0-0.7,0-1
				l0,0c1.1-0.7,2.2-1.5,2.5-1.7c2.3,2.5,4.8,5.2,7.1,7.6c-2.2,6.5-4.7,13.7-6.7,19.6c-2.9,1.6-5,3-7.4,3.9c-1.4,0.6-3,0.4-4.6,0.6
				c1-1.5,2-3.1,3-4.6c1-1.5,2-3,2.9-4.4c0.1,0.1,0.3,0.2,0.4,0.2c-0.1-0.1-0.3-0.2-0.4-0.2c-2.1-1.4-4.2-2.9-6.5-4.4
				c3.4-1,7.4-1,9.2-2.9C111.9,113.7,110.8,109.6,110.8,106.7z"/> <path fill="#D2DC1A" d="M119.8,178.7c-1.8-0.7-5.3-0.2-3-4c0.3-0.3,0.7-0.7,1-1c-2.3-1.8-4.5-3.6-6.8-5.4
				c-0.4,0.4-0.9,0.8-1.3,1.2c0.6,1.7,1.2,3.3,2.2,6.1c-2-0.5-3.4-0.8-4.9-1.1c-2.2-0.6-4.9-3.2-5.8,1.5c-0.1,0.4-1.7,0.7-2.6,0.6
				c-0.4,0-0.6-1.1-1-1.6c-0.6-0.8-1.2-1.5-1.8-2.3c-0.3-0.7-0.7-1.3-1-2c3,0.4,6.1,0.8,10.1,1.4c-0.5-2.5-0.8-4.2-1.1-6
				c-1.7,0.6-3,1-5.1,1.7c0.5-2.2,0.8-3.7,1.2-5.2c0.2,0.5,0.5,0.9,0.7,1.4c2.9-1.3,5.8-2.6,9-4c-2-1.9-3.4-3.3-4.8-4.7
				c0.5-0.5,1-1,1.6-1.6c4,4,8,7.9,12,12C118.8,169.9,119.3,174.3,119.8,178.7z M108.5,166.1c-0.1,0.3-0.4,0.6-0.3,0.8
				c0.1,0.2,0.5,0.3,0.8,0.4c0.1-0.3,0.4-0.6,0.3-0.8C109.2,166.2,108.8,166.2,108.5,166.1z"/> <path fill="#D2DC1B" d="M45.8,215.7c-2.3-3.6-4.8-6.5-9.8-3.8c-1.1,0.6-2.9-0.1-4.3-0.3c1-0.7,2-1.3,3-2
				c3.2-0.4,6.4-0.7,10.7-1.2c-1.5-1.4-2.1-1.9-3-2.7c1.3-0.4,2.3-0.8,3.4-1.1l0,0c0.4,1.4,0.8,2.8,1.5,5.1
				c1.3-4.2,9.7-5.6,1.8-11.4c3,0.2,4.9,0.3,7.3,0.5c0.2,0.8,0.5,1.9,0.9,3c1.2-0.4,2.4-0.8,3.6-1.2l0,0c1,1.7,2,3.3,3,5
				c-1.9,0.5-3.8,1.1-5.7,1.6c0,0.5,0.1,0.9,0.1,1.4c1.9,0.3,3.7,0.7,5.6,1c-1.5,3-3,6.1-4.6,9.4c-1-1.7-1.9-3.3-2.8-4.9
				c-1.5,1-2.5,1.8-3.6,2.6l0,0c0.3-1.7,0.7-3.4,1.2-5.7c-1-0.5-2.5-1.4-5.4-2.9c0.3,2.9,0.4,4.6,0.7,7.1
				C48.4,215.3,47.1,215.5,45.8,215.7z"/> <path fill="#C7D30A" d="M110.8,106.7c0,3,1.1,7-0.3,8.6c-1.8,2-5.8,2-9.2,2.9c2.3,1.6,4.4,3,6.5,4.4c0,0,0,0,0,0
				c-1,1.5-2,3-2.9,4.4c-1,1.5-2,3.1-3,4.6c-0.3,0-0.7,0-1,0c0-0.3,0-0.7,0-1c0-0.3,0-0.7,0-1c-0.3-0.7-0.7-1.3-1-2
				c-0.2-2-0.4-3.9-0.6-5.9c0.4-0.1,0.8-0.3,1.3-0.4c-1.9-1.2-3.8-2.4-5.7-3.7c1.3-1.2,2.7-2.3,4-3.5c-1.1-1.3-2.2-2.5-3.3-3.8
				c-0.2-0.2-0.4-0.5-0.7-0.7c0.7-0.3,1.3-0.7,2-1c0.7-0.3,1.4-0.7,2-1c1-1,2-2,3-3c1,0,2,0,3,0c-0.9,1.4-1.7,2.9-2.9,4.9
				C105.3,108.4,108,107.6,110.8,106.7L110.8,106.7z"/> <path fill="#C9D50B" d="M80.8,210.7c-0.7-0.3-1.3-0.7-2-1c0-1,0-2,0-3c0.3-1.3,0.7-2.7,1-4c1-0.3,2-0.7,3-1c1.3,0.7,2.7,1.3,4,2
				c0,0,0,0,0,0c-0.8,2.2-1,4.3,2,5c0.4,1,0.7,2.1,1.1,3.1c1.3,2.9,0.8,4.9-2.2,6.6c-1.9,1.1-3,3.7-4.7,5.2c-1,0.9-2.7,1-4.1,1.4
				c0.1-1.1,0-2.4,0.4-3.3c0.6-1.2,1.6-2.1,2.5-3.1c0.3-1.3,0.7-2.7,1-4C83.8,211.3,83.4,210.5,80.8,210.7z"/> <path fill="#C3CF09" d="M82.7,201.7c-1,0.3-2,0.7-3,1c-0.4-0.8-1.4-1.7-1.3-2.3c1.6-5.9,3.5-11.8,5.3-17.8
				c0.6,0.4,1.8,1.1,1.7,1.2c-2,4.1,1.3,6.2,3.3,8.8c-1.1,1.1-2.3,2.1-2.9,2.7c1.3,1.5,2.6,2.9,3.9,4.3c-0.7,0.7-1.3,1.3-2,2
				c0-0.7,0-1.3,0-2c0.1-0.1,0.2-0.3,0.2-0.4c-0.1,0.1-0.2,0.3-0.2,0.4C86.1,200.3,84.4,201,82.7,201.7z"/> <path fill="#CDD80D" d="M91.8,83.7c1.4-0.4,2.7-0.8,3.4-1c1.6,3.5,2.9,6.4,4.5,9.9c-2.3-0.2-4.2-0.3-6.4-0.5
				c-0.9,1.2-2.1,2.7-3.4,4.4c0.8,1.1,1.9,2.6,3,4.1c0,0.9,0,1.8,0,2.7c-1.5-0.4-3.2-0.5-4.4-1.3c-0.9-0.6-1.2-2.2-1.4-3.4
				c-0.2-1.3-0.1-2.6-0.1-4c-0.7-1.3-1.3-2.7-2-4c1.4-0.3,2.8-0.7,4.2-0.9c1.4-0.2,2.9-0.3,4.4-0.4c-0.5-1.6-1-3.1-1.5-4.7
				C91.8,84.3,91.8,84,91.8,83.7z"/> <path fill="#D2DC1B" d="M101.8,150.7c0.8,0.9,1.5,1.7,2.2,2.5c-4.1,0.9-7.7,1.7-11.2,2.5c-0.7,0-1.3,0-2,0
				c0.2-1.1,0.5-2.1,0.7-3.5c-4.1,1-6.9,0.3-6.8-4.5c0.7,0,1.3,0,2,0c0.3,0,0.7,0,1,0c0.7-0.7,1.3-1.3,2-2c1.3-0.7,2.7-1.3,4-2
				c0,1,0,2,0,3c-0.1,0.1-0.2,0.3-0.2,0.4c0.1-0.1,0.2-0.3,0.2-0.4C96.4,148,99.1,149.3,101.8,150.7z"/> <path fill="#D2DC1A" d="M74.8,132.7c0.3,0,0.7,0,1,0c1,1,2,2,3,3c0,0.3,0,0.7,0,1c-0.3,1-0.7,2-1,3c0,0.3,0,0.7,0,1
				c0,0,0.5,0,0.5,0l0.5,0c0,0.7,0,1.3,0,2c0,0.3,0,0.7,0,1c-1,0-2,0-3,0c-0.3-0.3-0.7-0.7-1-1c-0.8-2-1.6-3.9-2.4-5.9
				c-0.4,0.1-0.7,0.2-1.1,0.2c-0.2,0.9-0.4,1.8-0.6,2.6c-1.3,2.9-2.7,5.8-4,8.6c-0.1,0.1-0.2,0.2-0.2,0.3c-0.2-0.3-0.5-0.6-0.7-1
				c-1-0.7-2-1.3-3-2c0-0.3,0-0.7,0-1c0-0.3,0-0.7,0-1c0-1.3,0-2.7,0-4c1.6,0.8,2.5,4.7,5,1c-0.3-0.7-0.7-1.3-1-2
				c-0.3-1.3-0.7-2.7-1-4c0.3-1,0.7-2,1-3c1,0,2,0,3,0C71.4,132,73.1,132.3,74.8,132.7z"/> <path fill="#D2DC1A" d="M115.8,196.7c0,1,0,2,0,3c0,0.7,0,1.3,0,2c-2.6-2.1-7.6-0.9-8-6c0-1,0-2,0-3c1-0.7,2-1.3,3-2
				c2.8,2.1,2.9,0.1,3-2c0.7-0.3,1.3-0.7,2-1c1.3,2,2.6,4,4.2,6.3C118.4,195,117.1,195.8,115.8,196.7z M110.5,195.1
				c-0.1,0.3-0.2,0.6-0.4,0.8c0.3,0.1,0.6,0.4,0.8,0.3c0.2-0.1,0.3-0.5,0.4-0.8C111.1,195.3,110.8,195.2,110.5,195.1z"/> <path fill="#D2DC1B" d="M120.8,120.7c0.2-0.8,0.5-1.5,0.6-1.9c3.4,0.8,6.4,1.5,9.6,2.2c-3.4,2.4-1.1,2.7,2.4,2.9
				c-3.6,3.3-6.2,5.7-9.8,9c-0.2-2.5-0.2-3.5-0.3-5c-1.2,1-2.3,1.8-3.3,2.6c-0.3-0.4-0.7-0.8-1-1.2c1.8-1.5,3.5-3,5.4-4.5
				C123.2,123.4,122,122.1,120.8,120.7L120.8,120.7z M125.5,127.3c0.1,0,0.3,0.1,0.4,0.1c0,0,0.1-0.2,0.1-0.4
				c-0.1,0-0.3-0.1-0.4-0.1C125.6,126.9,125.5,127.2,125.5,127.3z"/> <path fill="#C3CF09" d="M94.8,170.7c0.3,0.7,0.7,1.3,1,2c-1.4,3.2-4,6.3-1,10c0,1,0,2,0,3c-1,0-2,0-3,0c-1-1.3-2-2.7-3-4
				c0.2-1.2,0.7-2.4,0.5-3.5c-0.3-1.6-1.2-3-1.8-4.5c1.5-0.3,3-0.6,4.7-0.9c-0.2-0.6-0.5-1.4-1-2.6
				C92.5,170.4,93.6,170.5,94.8,170.7z"/> <path fill="#D1DB18" d="M90.8,155.7c0.7,0,1.3,0,2,0c1.5,2.1,3,4.2,4.9,6.8c-2.6,0.2-4.4,0.3-6.9,0.4c1,1.2,1.5,1.9,2.4,3
				c-1.4,0.3-2.5,0.5-4.2,0.8c0-2,0-3.4,0-4.9c-0.3-0.1-0.6-0.2-0.9-0.3c-0.8,1.1-1.5,2.1-2.5,3.5c-1-0.9-2-1.8-3.5-3.3
				c3-1.4,5.6-2.5,8.2-3.8C90.7,157.7,90.6,156.5,90.8,155.7z"/> <path fill="#D1DB18" d="M98.8,220.7c0.7-0.7,1.3-1.3,2-2c2,1.2,4.1,2.4,5.5,3.2c3-0.7,5.5-1.3,9.2-2.1c-0.3,3.2-0.5,5.5-0.7,7.9
				c-2.2-0.9-4.3-2.1-6.5-2.7c-1.4-0.3-3,0.4-4.5,0.7C102.1,224,100.4,222.3,98.8,220.7z"/> <path fill="#CDD80D" d="M93.8,146.7c0-1,0-2,0-3c1-1.7,2-3.3,3-5c1.7,0.3,3.3,0.7,5,1c-0.3,0.7-0.7,1.3-1,2
				c-0.4,0.3-0.9,0.5-1.3,0.8c0.8,0.1,1.6,0.1,2.3,0.2c0,0,0,0,0,0c-0.4,1-1,2-1,3.1c0,1,0.6,2,1,3c0,0.7,0,1.3,0,2
				C99.1,149.3,96.4,148,93.8,146.7L93.8,146.7z"/> <path fill="#D1DB18" d="M91.8,84.7c0.5,1.6,1,3.1,1.5,4.7c-1.5,0.1-2.9,0.2-4.4,0.4c-1.4,0.2-2.8,0.6-4.2,0.9c-0.3,0-0.7,0-1,0
				c-2.3-1-4.7-2-7-3c0,0,0,0,0,0c1.7-0.3,3.3-0.7,5-1C85.4,87.5,89,88.3,91.8,84.7z"/> <path fill="#D2DC19" d="M49.6,177.6c0-1.6,0-3.2-0.1-4.8c1.9-1.3,2.7-6.1,6.3-2.3c1,1.1,2.1,3.7,1.5,4.6c-1,1.5-3.1,2.4-4.9,3.2
				C51.7,178.6,50.5,177.9,49.6,177.6z"/> <path fill="#CDD80D" d="M94.8,109.7c0.2,0.2,0.4,0.5,0.7,0.7c1.1,1.3,2.2,2.5,3.3,3.8c-1.3,1.2-2.7,2.3-4,3.5
				c-1.7,0.7-3.3,1.3-5,2c-0.2-1.4-0.4-2.9-0.6-4.2c1.6-0.7,3.1-1.4,4.7-2.1c-0.1-0.1-0.1-0.3-0.2-0.4c-0.3-0.1-0.6-0.2-0.9-0.2
				C93.4,111.7,94.1,110.7,94.8,109.7z"/> <path fill="#B6C509" d="M98.8,244.7c-3.6,0.7-2-1.9-1.3-2.7c1.6-2,3.7-3.5,5.5-5.3c0.5,0.1,0.9,0.3,1.4,0.4
				c-0.4,1.3-1,2.6-1.1,3.9c-0.1,1.8,1.1,4.2,0.3,5.2c-1,1.2-3.5,1.3-5.5,1.9C98.4,246.9,98.6,245.8,98.8,244.7
				c0.9-0.4,1.8-0.9,2.6-1.4c-0.4-0.4-0.8-0.8-1.2-1.2C99.7,242.9,99.2,243.8,98.8,244.7z"/> <path fill="#D2DC1B" d="M129.8,143.7c-0.8-1.8-1.6-3.7-2.5-5.6c4.5-2.5,5-0.6,7,10.4c-3.1-0.6-6-1.1-9.2-1.8
				C126.6,145.7,128.2,144.7,129.8,143.7c0.4,0.5,0.8,1,1.2,1.5c0.1-0.1,0.2-0.2,0.3-0.3C130.8,144.5,130.3,144.1,129.8,143.7z"/> <path fill="#D2DC19" d="M117.7,95.4c3.8-2.1,8-3.3,9.5,0.4c1.9,4.6-4.9,1.4-5.5,5.6C120,98.9,118.9,97.2,117.7,95.4z M123.5,95.7
				c-0.2-0.1-0.5-0.2-0.7-0.3c-0.1,0-0.3,0.3-0.3,0.3c0.1,0.2,0.3,0.4,0.4,0.6C123.1,96.1,123.3,95.9,123.5,95.7z"/> <path fill="#D2DC19" d="M132.4,165.7c-0.6-3.1-1-5.2-1.3-6.8c-2.7-0.4-4.9-0.7-7.1-1c0-0.6,0-1.1,0-1.7c2.3,0,5.1-0.9,6.7,0.2
				c2.1,1.5,3.3,4.4,4.7,6.8C135.4,163.4,133.7,164.6,132.4,165.7z"/> <path fill="#D2DC1B" d="M106.2,135.9c2.9-1.6,4.8-2.7,7.1-3.9c0.5,3,4.7,5.5-0.3,8.5C110.9,139.1,108.8,137.7,106.2,135.9z"/> <path fill="#D2DC19" d="M67.8,140.7c-2.5,3.8-3.4-0.2-5-1c-1.3,0.3-2.7,0.7-4,1l0,0c0-1,0-2,0-3c0.7,0,1.3,0,2,0
				c0.1,0.1,0.3,0.1,0.4,0.2c-0.1-0.1-0.3-0.2-0.4-0.2c-0.2-4.1,2.9-2.7,5-3c0.3,1.3,0.7,2.7,1,4c0,0.3,0,0.7,0,1c0,0.3,0,0.7,0,1
				C67.1,140.7,67.4,140.7,67.8,140.7z"/> <path fill="#C3CF09" d="M103.8,225.7c1.5-0.3,3.1-1,4.5-0.7c2.3,0.5,4.4,1.8,6.5,2.7c0,0.3,0,0.7,0,1c-0.7,0.7-1.3,1.3-2,2
				c-1.2-0.4-2.4-0.8-3.6-1.2c-1.8-0.6-3.6-1.2-5.4-1.8c0-0.3,0-0.7,0-1C103.8,226.4,103.8,226,103.8,225.7z"/> <path fill="#D2DC1B" d="M101.8,148.7c-0.4-1-1-2-1-3c0-1,0.6-2,1-3.1c1-0.5,2-1,3.2-1.6c0.9,1.4,1.9,2.8,3.2,4.7
				c-2.2,0.3-2.5,4.6-5.5,1.4C102.4,147.7,102.1,148.2,101.8,148.7z"/> <path fill="#D2DC19" d="M70.8,150.7c2.1-0.3,4.1-0.7,6.3-1c1.2,2.8-0.2,4.7-6.3,6.9C70.8,154.4,70.8,152.5,70.8,150.7L70.8,150.7
				z"/> <path fill="#B6C509" d="M89.8,199.7c-1.3-1.4-2.5-2.8-3.9-4.3c0.6-0.6,1.7-1.6,2.9-2.7c5.7-0.9,4,3.1,4,6c0,0.3,0,0.7,0,1
				C91.7,199.7,90.8,199.7,89.8,199.7z"/> <path fill="#D2DC1A" d="M145.4,216.8c-0.7-3.2-1.4-6.4-2.3-10.8c2.7,2.3,4.5,3.8,6,5c-1,2.3-1.7,4.3-2.5,6.2
				C146.2,217.2,145.8,217,145.4,216.8z"/> <path fill="#C9D50B" d="M108.8,207.7c-1,0.3-2,0.7-3,1c-1-2-2-4-3-6c0.9-0.6,1.9-1.2,3.4-2.1
				C107.1,203.1,107.9,205.4,108.8,207.7L108.8,207.7z"/> <path fill="#BDCA09" d="M63.8,209.7c-1.9-0.3-3.7-0.7-5.6-1c0-0.5-0.1-0.9-0.1-1.4c1.9-0.5,3.8-1.1,5.7-1.6c1.7,1.7,3.3,3.3,5,5
				C67.1,210.3,65.4,210,63.8,209.7z"/> <path fill="#D2DC1B" d="M62.8,155.7c0.8-1.4,1.5-2.8,3-5.4c1.2,3.3,2.1,5.7,3,8c-0.6,0.4-1.3,0.9-1.9,1.3
				C65.5,158.3,64.1,157,62.8,155.7L62.8,155.7z"/> <path fill="#D2DC19" d="M149.2,228.5c-0.3,2.9-0.6,5.7-0.9,8.8C144.5,235.6,144.4,232.1,149.2,228.5z"/> <path fill="#D2DC1A" d="M101.8,139.7c-1.7-0.3-3.3-0.7-5-1c1.2-1.3-4.1-2.7,0-4c0,0,0,0,0,0c2.8,1,5.6,2,8.9,3.2
				C104.2,138.5,103,139.1,101.8,139.7z"/> <path fill="#D2DC1A" d="M80,176.2c-0.8,3.1-1.4,5.4-2.4,8.9c-1-2.2-1.3-3.5-2.1-4.3c-0.5-0.5-1.7-0.4-4.3-0.8
				C74.9,178.5,77.2,177.4,80,176.2z"/> <path fill="#C9D50B" d="M89.8,199.7c1,0,2,0,3,0c-0.7,2.3-1.3,4.7-2,7c0.3-3.2-1.9-3.1-4-3c0,0,0,0,0,0c0.3-0.7,0.7-1.3,1-2
				C88.4,201,89.1,200.3,89.8,199.7z"/> <path fill="#D2DC1B" d="M115.8,187.7c0.7-4.6,5.4-4,8-6c0.3,0.7,0.8,1.9,0.7,2C121.6,185.1,118.7,186.4,115.8,187.7z"/> <path fill="#D2DC19" d="M60.8,180.7c-0.2-2.6-0.4-5.2-0.6-8.2c1.6,0.2,3.3,0.3,4.2,0.4c-0.6,2.3-1.1,4.4-1.8,6.5
				C62.3,179.9,61.4,180.2,60.8,180.7C60.8,180.7,60.8,180.7,60.8,180.7z"/> <path fill="#C3CF09" d="M74.5,195.4c-0.2-2.3-0.3-4.6-0.5-6.9c0.8,0,1.6-0.1,2.3-0.1c0,2.3,0,4.6,0,6.9
				C75.7,195.4,75.1,195.4,74.5,195.4z"/> <path fill="#D2DC1A" d="M67.7,162.4c2.7,1.1,4.7,1.3,5.3,2.4c0.5,0.8-0.5,2.6-0.9,4c-0.5,0-1,0.1-1.4,0.1
				C69.9,167.2,69.1,165.5,67.7,162.4z"/> <path fill="#C3CF09" d="M86.8,203.7c2.1-0.1,4.3-0.2,4,3c-0.7,0.7-1.3,1.3-2,2C85.7,208,86,205.9,86.8,203.7z"/> <path fill="#D2DC1B" d="M125.5,111.1c0.4,0.2,0.9,0.4,1,0.7c0.8,1.7,1.6,3.4,2.3,5c-0.6,0.2-1.7,0.7-1.7,0.6
				c-1-1.9-1.8-3.9-2.7-5.9C124.9,111.4,125.2,111.2,125.5,111.1z"/> <path fill="#BDCA09" d="M78.8,206.7c0,1,0,2,0,3c0,0,0,0,0,0c-0.7,0-1.3,0-2,0c-2-0.3-4-0.7-6-1C72.3,203.6,76,207,78.8,206.7z"/> <path fill="#D2DC1B" d="M110.7,83.7c-0.3,0-0.6,0-1,0c-3.8-3.1-2.5-4.9,1.8-6.2C111.3,79.6,111,81.7,110.7,83.7z"/> <path fill="#D2DC19" d="M70.8,139.7c0.2-0.9,0.4-1.8,0.6-2.6c0.4-0.1,0.7-0.2,1.1-0.2c0.8,2,1.6,3.9,2.4,5.9
				C73.4,141.7,72.1,140.7,70.8,139.7z"/> <path fill="#D2DC1A" d="M114.8,148.7c-0.1-0.8-0.2-1.6-0.4-3.2c2.2,0.7,4,1.2,5.8,1.8c0,0.3-0.1,0.6-0.1,0.9
				C118.3,148.4,116.5,148.5,114.8,148.7L114.8,148.7z"/> <path fill="#D2DC1A" d="M100.7,130.7c0,0.3,0,0.7,0,1c-1,0.3-2,0.7-3,1l0,0c0.7-1.7,1.3-3.3,2-5c0.3,0.7,0.7,1.3,1,2
				c-0.1,0.1-0.4,0.2-0.4,0.3C100.5,130.2,100.6,130.5,100.7,130.7z"/> <path fill="#D2DC19" d="M130.3,153.9c-1.1,0-2.2,0-3.3,0c0-0.5,0-0.9,0-1.4c1.2,0,2.4,0,3.6,0C130.5,153,130.4,153.4,130.3,153.9
				z"/> <path fill="#D1DB18" d="M93.5,78.4c-1.1,0-2.2,0-3.6,0c0-0.2,0-1.3,0-1.3c1.3-0.1,2.6-0.1,3.8-0.1C93.7,77.5,93.6,78,93.5,78.4z"/> <path fill="#D2DC1B" d="M60.8,200.7c-0.2-0.6-0.5-1.2-0.9-2.1c1.6,0,3,0,4.4,0c0.1,0.3,0.2,0.5,0.3,0.8
				C63.3,199.8,62,200.2,60.8,200.7C60.8,200.7,60.8,200.7,60.8,200.7z"/> <path fill="#D2DC1B" d="M45.8,204.7c0.6-1,1.3-2,1.9-3c0.5,0.5,1,1,1.6,1.6C48.1,203.7,46.9,204.2,45.8,204.7
				C45.8,204.7,45.8,204.7,45.8,204.7z"/> <path fill="#CDD80D" d="M78.8,135.7c-1-1-2-2-3-3c1,0.7,2,1.3,3,2C78.8,135,78.8,135.4,78.8,135.7z"/> <path fill="#D2DC19" d="M62.8,145.7c1,0.7,2,1.3,3,2c-1.4,0-2.7,0-4.1,0c-0.4-0.5-0.7-0.9-1.1-1.4
				C61.3,146.1,62,145.9,62.8,145.7z"/> <path fill="#CDD80D" d="M78.8,140.7l-0.5,0c0,0-0.5,0-0.5,0c0-0.3,0-0.7,0-1c0.3-1,0.7-2,1-3C78.8,138,78.8,139.4,78.8,140.7z"/> <path fill="#D1DB18" d="M103.8,226.7c0,0.3,0,0.7,0,1c-1,0.4-2,0.7-3.1,1.1c-0.1-0.4-0.2-0.9-0.4-1.3
				C101.5,227.2,102.6,226.9,103.8,226.7z"/> <path fill="#D2DC19" d="M122.6,160.8c0.9,0.1,1.8,0.2,2.6,0.3c0,0.3,0,0.6,0,0.9c-0.9,0-1.8,0-2.7,0
				C122.6,161.6,122.6,161.2,122.6,160.8z"/> <path fill="#CDD80D" d="M86.8,147.7c-0.7,0-1.3,0-2,0c-0.3-0.3-0.6-0.7-1-1c0-0.3,0-0.7,0-1C84.8,146.3,85.8,147,86.8,147.7z"/> <path fill="#CDD80D" d="M89.1,136.7c0.5,0.3,0.8,0.6,1.2,0.8c-0.4,0.3-0.7,0.8-1.2,1c-0.1,0.1-0.8-0.5-0.8-0.8
				C88.3,137.4,88.8,137,89.1,136.7z"/> <path fill="#D2DC19" d="M57.4,181.4c-0.1,0.3-0.2,0.7-0.4,0.8c-0.2,0.1-0.7-0.1-0.8-0.3c-0.1-0.2,0.1-0.7,0.3-0.8
				C56.8,181,57.1,181.3,57.4,181.4z"/> <path fill="#CDD80D" d="M87.8,124.7c0.3-0.7,0.7-1.3,1-2C88.4,123.3,88.1,124,87.8,124.7z"/> <path fill="#CDD80D" d="M89.4,132.4c-0.1,0.3-0.2,0.7-0.4,0.8c-0.2,0.1-0.5-0.2-0.8-0.3c0.1-0.3,0.2-0.7,0.4-0.8
				C88.8,132,89.1,132.3,89.4,132.4z"/> <path fill="#CDD80D" d="M95.3,126.4c-0.1,0.3-0.2,0.6-0.4,0.8c-0.3-0.1-0.7-0.2-0.8-0.4c-0.1-0.2,0.2-0.5,0.3-0.8
				C94.8,126.2,95.1,126.3,95.3,126.4z"/> <path fill="#CDD80D" d="M89.8,145.7c-0.7,0.7-1.3,1.3-2,2C88.4,147,89.1,146.3,89.8,145.7z"/> <path fill="#D2DC1A" d="M123.8,179.7c-0.3,0-0.7,0-1,0c0.4-0.5,0.9-1,1.3-1.5C124,178.7,123.9,179.2,123.8,179.7z"/> <path fill="#D2DC1A" d="M121.8,179.7c-0.7-0.3-1.3-0.7-2-1C120.4,179,121.1,179.3,121.8,179.7z"/> <path fill="#C3CF09" d="M88.8,181.7c-0.7-0.7-1.3-1.3-2-2C87.4,180.3,88.1,181,88.8,181.7z"/> <path fill="#D2DC1B" d="M115.3,80.1c-0.6-0.2-1.2-0.4-1.8-0.7c0.1-0.2,0.1-0.5,0.2-0.7c0.6,0.2,1.3,0.4,1.9,0.5
				C115.5,79.5,115.4,79.8,115.3,80.1z"/> <path fill="#CDD80D" d="M78.8,143.7c0-0.3,0-0.7,0-1c0.5,0.4,1,0.9,1.5,1.3C79.8,143.9,79.3,143.8,78.8,143.7z"/> <path fill="#D2DC1B" d="M101.8,142.7c-0.8-0.1-1.6-0.1-2.3-0.2c0.4-0.3,0.9-0.5,1.3-0.8C101.1,142,101.4,142.3,101.8,142.7z"/> <path fill="#D2DC19" d="M58.8,140.7c-0.4,0.5-0.8,1-1.2,1.5c-0.1-0.1-0.2-0.2-0.3-0.3C57.8,141.5,58.3,141.1,58.8,140.7
				C58.8,140.7,58.8,140.7,58.8,140.7z"/> <path fill="#D2DC1B" d="M120.3,142c0.2-0.5,0.5-1,0.7-1.5c0.2,0,0.3,0.1,0.5,0.1c-0.1,0.6-0.2,1.2-0.3,1.8
				C120.9,142.3,120.6,142.2,120.3,142z"/> <path fill="#D1DB18" d="M112.8,230.7c0.7-0.7,1.3-1.3,2-2C114.1,229.3,113.4,230,112.8,230.7z"/> <path fill="#CDD80D" d="M84.2,138c0.1-0.3,0.2-0.7,0.4-0.8c0.2-0.1,0.5,0.2,0.8,0.3c-0.1,0.3-0.2,0.7-0.4,0.8
				C84.8,138.3,84.4,138.1,84.2,138z"/> <path fill="#D2DC1A" d="M124.4,152.4c-0.1,0.3-0.2,0.6-0.4,0.8c-0.3-0.1-0.7-0.2-0.8-0.4c-0.1-0.2,0.2-0.5,0.3-0.8
				C123.8,152.2,124.1,152.3,124.4,152.4z"/> <path fill="#CDD80D" d="M80.8,134.7c0.7-0.3,1.3-0.7,2-1C82.1,134,81.4,134.3,80.8,134.7z"/> <path fill="#D1DB18" d="M97.3,77.3c-0.6,0.1-1.1,0.1-1.5,0.2c0.2-0.2,0.3-0.6,0.5-0.7C96.5,76.7,96.8,77.1,97.3,77.3z"/> <path fill="#D2DC1A" d="M114.8,148.7c-0.1,0.7-0.1,1.5-0.2,2.2c-0.2-0.1-0.5-0.1-0.7-0.2C114.2,150,114.5,149.4,114.8,148.7
				C114.8,148.7,114.8,148.7,114.8,148.7z"/> <path fill="#D2DC19" d="M62.8,143.7c0,0.3,0,0.7,0,1c-0.4-0.2-0.9-0.3-1.3-0.5C61.9,144,62.3,143.8,62.8,143.7z"/> <path fill="#D1DB18" d="M105.8,210.7c-0.7,0.3-1.4,0.6-2.1,0.9c0-0.2-0.1-0.5-0.1-0.7C104.3,210.8,105,210.7,105.8,210.7
				C105.8,210.7,105.8,210.7,105.8,210.7z"/> <path fill="#D2DC1B" d="M105.5,152.3c0-0.1,0.1-0.4,0.1-0.4c0.1,0,0.3,0.1,0.4,0.1c0,0.1-0.1,0.4-0.1,0.4
				C105.8,152.4,105.6,152.3,105.5,152.3z"/> <path fill="#D2DC1B" d="M109.4,76c-0.1,0-0.4-0.1-0.4-0.1c0-0.1,0.1-0.3,0.1-0.4c0.1,0,0.4,0.1,0.4,0.1
				C109.5,75.7,109.4,75.8,109.4,76z"/> <path fill="#D2DC19" d="M126.7,101.4c-0.1-0.1-0.2-0.2-0.3-0.3c0.1-0.1,0.3-0.2,0.4-0.2c0.1,0,0.2,0.2,0.4,0.3
				C127,101.3,126.9,101.4,126.7,101.4z"/> <path fill="#D2DC1B" d="M62.8,155.7c-0.4-0.1-0.9-0.2-1.3-0.4C61.9,155.4,62.3,155.6,62.8,155.7L62.8,155.7z"/> <path fill="#D2DC1A" d="M120.2,155.3c-0.3,0.1-0.4,0.1-0.6,0.2c0-0.1-0.1-0.3-0.1-0.4C119.7,155.1,119.9,155.2,120.2,155.3z"/> <path fill="#D2DC1A" d="M117.5,161.7c-0.1,0.1-0.2,0.2-0.3,0.3c-0.1-0.1-0.2-0.3-0.2-0.4c0-0.1,0.2-0.2,0.3-0.4
				C117.4,161.4,117.5,161.6,117.5,161.7z"/> <path fill="#D2DC1B" d="M135.8,141.7c0.1-0.4,0.2-0.9,0.4-1.3C136,140.8,135.9,141.2,135.8,141.7L135.8,141.7z"/> <path fill="#D2DC19" d="M130.1,101.1c0,0.1-0.1,0.4-0.1,0.4c-0.1,0-0.3-0.1-0.4-0.1c0-0.1,0.1-0.2,0.1-0.4
				C129.8,101,129.9,101,130.1,101.1z"/> <path fill="#D2DC1A" d="M97.8,132.7c-0.3,0.7-0.7,1.3-1,2c0,0,0,0,0,0C97.1,134,97.4,133.3,97.8,132.7
				C97.8,132.7,97.8,132.7,97.8,132.7z"/> <path fill="#D2DC19" d="M51.3,165.3c0.1,0.1,0.2,0.3,0.2,0.4c0,0.1-0.2,0.2-0.3,0.3C51.3,165.8,51.3,165.6,51.3,165.3z"/> <path fill="#C7D30A" d="M75.8,229.7c0.1,0.1,0.3,0.2,0.4,0.2C76,229.8,75.9,229.8,75.8,229.7L75.8,229.7z"/> <path fill="#C7D30A" d="M75.8,229.7c-0.1-0.1-0.3-0.2-0.4-0.2C75.5,229.5,75.6,229.6,75.8,229.7
				C75.8,229.7,75.8,229.7,75.8,229.7z"/> <path fill="#D2DC19" d="M110.8,101.7c-0.1-0.1-0.3-0.2-0.4-0.2C110.5,101.5,110.6,101.6,110.8,101.7
				C110.8,101.7,110.8,101.7,110.8,101.7z"/> <path fill="#D2DC19" d="M70.8,150.7c-0.1-0.1-0.3-0.2-0.4-0.2C70.5,150.5,70.6,150.6,70.8,150.7
				C70.8,150.7,70.8,150.7,70.8,150.7z"/> <path fill="#D2DC1B" d="M83.8,145.7c0,0.3,0,0.7,0,1C83.8,146.3,83.8,146,83.8,145.7z"/> <polygon fill="#D2DC1A" points="75.8,143.7 75.5,144.1 75.3,143.9 			"/> <path fill="#D2DC1B" d="M135.8,141.7c-0.1,0.1-0.2,0.3-0.2,0.4C135.6,142,135.7,141.8,135.8,141.7
				C135.8,141.7,135.8,141.7,135.8,141.7z"/> <path fill="#D2DC1B" d="M120.8,120.7c-0.1,0.1-0.2,0.3-0.2,0.4C120.6,121,120.7,120.8,120.8,120.7
				C120.8,120.7,120.8,120.7,120.8,120.7z"/> <path fill="#D2DC19" d="M60.8,180.7c-0.1,0.1-0.2,0.3-0.2,0.4C60.6,181,60.7,180.8,60.8,180.7C60.8,180.7,60.8,180.7,60.8,180.7z
				"/> <path fill="#C3CF09" d="M82.8,179.7c0,0.3,0,0.7,0,1C82.8,180.4,82.8,180,82.8,179.7z"/> <path fill="#D2DC1A" d="M67.8,169.7c0.1,0.1,0.3,0.2,0.4,0.2C68.1,169.8,67.9,169.8,67.8,169.7L67.8,169.7z"/> <path fill="#D2DC1A" d="M67.8,169.7c-0.1-0.1-0.3-0.2-0.4-0.2C67.5,169.5,67.6,169.6,67.8,169.7
				C67.8,169.7,67.8,169.7,67.8,169.7z"/> <polygon fill="#D2DC1A" points="68.8,163.7 68.4,163.5 68.5,163.3 			"/> <path fill="#D1DB18" d="M53.8,227.7c-0.9,3-3,4.1-6,4c0.7-2.8,4.5-5.8-1.9-8.3c4.5-2,7.7-3.8,11.6-2c1.7,0.8,3,2.4,4.4,3.6
				c-0.3,0.3-0.6,0.7-0.9,1c-2.3-0.5-4.6-1.1-7.5-1.7C53.5,225.2,53.6,226.4,53.8,227.7z"/> <path fill="#BDCA09" d="M80.8,210.7c2.7-0.2,3.1,0.6,2,4C82.1,213.3,81.4,212,80.8,210.7z"/> <path fill="#C9D50B" d="M76.8,209.7c0.7,0,1.3,0,2,0c-0.7,0.3-1.3,0.7-2,1C76.8,210.4,76.8,210,76.8,209.7
				C76.8,209.7,76.8,209.7,76.8,209.7z"/> <path fill="#BDCA09" d="M76.8,209.7c0,0.3,0,0.7,0,1c-0.4-0.2-0.9-0.3-1.3-0.5C75.9,210,76.3,209.8,76.8,209.7z"/> <path fill="#BDCA09" d="M70.8,210.7c0.1,0.1,0.3,0.2,0.4,0.2C71,210.8,70.9,210.8,70.8,210.7C70.8,210.7,70.8,210.7,70.8,210.7z"/> <path fill="#D2DC1B" d="M52.8,216.7c-0.1,0.1-0.2,0.3-0.2,0.4C52.6,217,52.7,216.8,52.8,216.7C52.8,216.7,52.8,216.7,52.8,216.7z
				"/> <path fill="#D2DC1B" d="M83.8,90.7c0.3,0,0.7,0,1,0c0.7,1.3,1.3,2.7,2,4c-1.3,0.3-2.7,0.7-4,1c-1.2,0.2-2.4,0.4-5,0.9
				c2,1.1,3,1.6,4,2.1c-0.6,2.1-1.2,4.1-1.9,6.6c1.4,1,3.4,2.5,4.8,3.5c-2.3,1.1-4.1,2.7-6.1,2.8c-2.8,0.1-5.7-0.8-8.4-1.3
				c-0.7,1.2-1.6,2.9-2.7,4.9c-1.2-2-2-3.3-2.7-4.6c0.9-1.2,1.9-2.4,3.5-4.4c-0.2-0.8-0.7-2.8-1.2-5.2c2.4,0,4.5,0,6.7,0
				c0.4,0.5,0.9,1.1,1.3,1.6c0.8-2.2,1.5-4.5,2.6-6.5c0.6-1.1,1.6-2,2.6-2.9C81.3,92.3,82.6,91.5,83.8,90.7z"/> <path fill="#D2DC19" d="M110.8,106.7c-2.7,0.9-5.5,1.8-8.9,2.9c1.2-2,2.1-3.4,2.9-4.9C106.8,105.4,108.8,106,110.8,106.7z"/> <path fill="#D2DC19" d="M69.8,131.7c-1,0-2,0-3,0c1.2-1.1,2.3-2.2,3.5-3.3c0.4,0.4,0.8,0.8,1.2,1.2
				C70.9,130.3,70.3,131,69.8,131.7z"/> <path fill="#CDD80D" d="M81.8,98.7c-1-0.5-1.9-1-4-2.1c2.6-0.5,3.8-0.7,5-0.9C82.4,96.7,82.1,97.7,81.8,98.7z"/> <path fill="#CDD80D" d="M92.8,99.7c0.4-0.9,0.8-1.8,1.2-2.7c0.9,0.9,1.9,1.8,2.8,2.7C95.4,99.7,94.1,99.7,92.8,99.7z"/> <path fill="#CDD80D" d="M96.6,102.3c0.2,0.6,0.7,1.3,0.6,1.8c-0.1,0.6-0.8,1.2-1.2,1.7c-0.4-0.3-1.2-0.6-1.2-0.9
				c0-0.7,0.4-1.3,0.6-2C95.9,102.7,96.3,102.5,96.6,102.3z"/> <path fill="#CDD80D" d="M101.8,104.7c-1,1-2,2-3,3C98.9,105.9,98.4,103.3,101.8,104.7z"/> <path fill="#D2DC19" d="M68.4,125c0.8,0.3,1.6,0.5,2.4,0.8c0,0.2-0.1,0.4-0.1,0.7c-0.8-0.1-1.7-0.1-2.5-0.2
				C68.3,125.8,68.4,125.4,68.4,125z"/> <path fill="#D2DC19" d="M69.4,121.4c-0.1,0.3-0.2,0.7-0.4,0.8c-0.2,0.1-0.5-0.2-0.8-0.3c0.1-0.3,0.2-0.7,0.4-0.8
				C68.8,121,69.1,121.3,69.4,121.4z"/> <path fill="#D2DC1B" d="M71.8,90.7c-0.4,1.4-0.6,3-1.4,4.2c-0.9,1.3-2.3,2.1-3.8,3.4c0.3-2.8,0.5-5.2,0.7-7.5
				c1.4-0.3,2.9-0.7,4.5-1.1C71.8,90,71.8,90.3,71.8,90.7z"/> <path fill="#D1DB18" d="M71.8,90.7c0-0.3,0-0.7,0-1c1.7-0.7,3.3-1.3,5-2c0,0,0,0,0,0C75.1,88.7,73.4,89.7,71.8,90.7z"/> <path fill="#D1DB18" d="M78.1,82.1c0,0.1-0.1,0.4-0.1,0.4c-0.1,0-0.3-0.1-0.4-0.1c0-0.1,0.1-0.4,0.1-0.4
				C77.8,81.9,77.9,82,78.1,82.1z"/> <path fill="#CDD80D" d="M78.8,78.7c0.1-0.1,0.2-0.3,0.2-0.4C78.9,78.4,78.8,78.5,78.8,78.7C78.8,78.7,78.8,78.7,78.8,78.7z"/> <path fill="#141713" d="M123.7,40.7c-1.3,2.3-2.7,4.7-4,7c-3,2-6,4-9,6c2.1-3,4.2-5.9,6.4-8.9C119.3,43.4,121.5,42.1,123.7,40.7z
				"/> <path fill="#141713" d="M109.3,54.7c0.5-0.3,1-0.7,1.5-1C110.3,54,109.8,54.3,109.3,54.7z"/> <path fill="#589217" d="M115.8,43.7c0.1-0.1,0.2-0.3,0.2-0.4C115.9,43.4,115.9,43.5,115.8,43.7C115.8,43.7,115.8,43.7,115.8,43.7
				z"/> <path fill="#D1DB18" d="M113.8,188.7c-0.1,2.1-0.2,4.1-3,2C111.8,190,112.8,189.3,113.8,188.7z"/> <path fill="#CCD70E" d="M117.8,173.7c-0.3,0.3-0.7,0.7-1,1C117.1,174.3,117.4,174,117.8,173.7z"/> <path fill="#CCD70E" d="M104.8,196.7c-0.3,0.7-0.7,1.3-1,2l0,0c-0.7,1-1.3,2-2,3c-4.1-1.3-2-4-1.4-7.2c1.9,0.4,3.7,0.8,5.4,1.2
				c-0.3,0-0.7,0-1,0C104.8,196,104.8,196.4,104.8,196.7z"/> <path fill="#CDD80D" d="M91.8,185.7c1,0,2,0,3,0c0.1,0.8,0.3,1.5,0.4,2.3C94,187.2,92.9,186.4,91.8,185.7z"/> <path fill="#CCD70E" d="M99.8,214.7c-0.1-0.1-0.3-0.2-0.4-0.2C99.5,214.5,99.6,214.6,99.8,214.7L99.8,214.7z"/> <path fill="#CDD80D" d="M102.8,89.7c-0.4,0.2-0.7,0.5-1.1,0.7C102.1,90.2,102.4,89.9,102.8,89.7
				C102.8,89.7,102.8,89.7,102.8,89.7z"/> <path fill="#CCD70E" d="M116.8,90.7c-0.1-0.1-0.3-0.2-0.4-0.2C116.5,90.5,116.6,90.6,116.8,90.7
				C116.8,90.7,116.8,90.7,116.8,90.7z"/> <path fill="#CCD70E" d="M115.8,201.7c0-0.7,0-1.3,0-2c0.5,0.3,1,0.5,1.6,0.8C116.8,200.9,116.3,201.3,115.8,201.7z"/> <path fill="#C9D50B" d="M108.8,207.7c0.1,0.1,0.3,0.2,0.4,0.2C109,207.8,108.9,207.8,108.8,207.7
				C108.8,207.7,108.8,207.7,108.8,207.7z"/> <path fill="#CCD70E" d="M103.8,198.7c0.1,0.1,0.3,0.2,0.4,0.2C104,198.8,103.9,198.8,103.8,198.7
				C103.8,198.7,103.8,198.7,103.8,198.7z"/> <path fill="#D2DC1A" d="M104.8,196.7c0-0.3,0-0.7,0-1C104.8,196,104.8,196.4,104.8,196.7z"/> <path fill="#C7D30A" d="M107.8,122.7c0.1,0.1,0.3,0.2,0.4,0.2C108,122.8,107.9,122.8,107.8,122.7
				C107.8,122.7,107.8,122.7,107.8,122.7z"/> <path fill="#CDD80D" d="M108.5,166.1c0.3,0.1,0.7,0.2,0.8,0.4c0.1,0.2-0.2,0.5-0.3,0.8c-0.3-0.1-0.7-0.2-0.8-0.4
				C108.1,166.7,108.4,166.3,108.5,166.1z"/> <path fill="#CCD70E" d="M100.7,130.7c-0.1-0.2-0.3-0.5-0.3-0.7c0-0.1,0.2-0.2,0.4-0.3C100.8,130,100.7,130.4,100.7,130.7z"/> <path fill="#B6C509" d="M87.8,201.7c-0.3,0.7-0.7,1.3-1,2c-1.3-0.7-2.7-1.3-4-2c1.7-0.7,3.3-1.3,5-2l0,0
				C87.8,200.3,87.8,201,87.8,201.7z"/> <path fill="#B6C509" d="M87.8,199.7c0.1-0.1,0.2-0.3,0.2-0.4C87.9,199.4,87.8,199.5,87.8,199.7C87.8,199.7,87.8,199.7,87.8,199.7
				z"/> <path fill="#CDD80D" d="M93.8,146.7c-0.1,0.1-0.2,0.3-0.2,0.4C93.6,147,93.7,146.8,93.8,146.7C93.8,146.7,93.8,146.7,93.8,146.7z
				"/> <path fill="#CCD70E" d="M66.8,139.7c0-0.3,0-0.7,0-1c0.3,0.7,0.7,1.3,1,2c-0.3,0-0.7,0-1,0C66.8,140.3,66.8,140,66.8,139.7z"/> <path fill="#CCD70E" d="M77.8,139.7c0,0.3,0,0.7,0,1C77.8,140.3,77.8,140,77.8,139.7z"/> <path fill="#D1DB18" d="M110.5,195.1c0.3,0.1,0.6,0.2,0.8,0.4c-0.1,0.3-0.2,0.7-0.4,0.8c-0.2,0.1-0.5-0.2-0.8-0.3
				C110.3,195.7,110.4,195.4,110.5,195.1z"/> <path fill="#CCD70E" d="M125.5,127.3c0-0.1,0.1-0.3,0.1-0.4c0.1,0,0.3,0.1,0.4,0.1c0,0.1-0.1,0.4-0.1,0.4
				C125.8,127.4,125.6,127.3,125.5,127.3z"/> <path fill="#CCD70E" d="M98.8,244.7c0.5-0.9,0.9-1.7,1.4-2.6c0.4,0.4,0.8,0.8,1.2,1.2C100.5,243.8,99.7,244.2,98.8,244.7
				C98.8,244.7,98.8,244.7,98.8,244.7z"/> <path fill="#CCD70E" d="M129.8,143.7c0.5,0.4,1,0.8,1.5,1.2c-0.1,0.1-0.2,0.2-0.3,0.3C130.6,144.7,130.2,144.2,129.8,143.7
				C129.8,143.7,129.8,143.7,129.8,143.7z"/> <path fill="#CCD70E" d="M123.5,95.7c-0.2,0.2-0.4,0.5-0.6,0.7c-0.2-0.2-0.3-0.4-0.4-0.6c0-0.1,0.2-0.4,0.3-0.3
				C123,95.5,123.3,95.6,123.5,95.7z"/> <path fill="#D2DC1A" d="M66.8,139.7c0,0.3,0,0.7,0,1C66.8,140.3,66.8,140,66.8,139.7z"/> <path fill="#CDD80E" d="M60.8,137.7c0.1,0.1,0.3,0.2,0.4,0.2C61,137.8,60.9,137.8,60.8,137.7C60.8,137.7,60.8,137.7,60.8,137.7z"/> </g> </g> </g> </symbol><symbol viewBox="0 0 195 293" id="card-16"><title>16</title> <g> <rect fill="#F6E28D" width="195" height="293"/> <g> <path fill="#4F2B28" d="M26.9,195.8c0,8.6,0,17.2-0.1,25.8c0,1.6,0,63.3-0.1,64.9c-1.1,0-2.3,0-3.4,0c0-51.5,0-162.9,0-214.4
			c0-0.9,0-1.7,0-2.6c2.4,0.2,3.4,1.3,3.4,3.9c0,11.8,0,23.5,0,35.3c0,28.4,0,56.7,0,85.1C26.8,194.5,26.9,195.2,26.9,195.8z"/> <path fill="#68524D" d="M23.4,69.6c0,0.9,0,1.7,0,2.6c0,51.5,0,162.9,0,214.4c-1.1,0-2.3,0-3.4,0c0-10.8,0-81.6-0.1-92.4
			c0-0.7,0.1-1.5,0.1-2.2c0-39.3,0-78.7,0-118C20,71,20.9,69.8,23.4,69.6z"/> <path fill="#FCCE0A" d="M23.7,65c-4.6,0.1-8.1-3.3-8.2-7.9c-0.1-4.3,4.1-8.4,8.2-7.8c2.3,2.4,3.3,5.4,3.1,8.7
			C26.7,60.7,25.4,62.9,23.7,65z"/> <path fill="#F8B317" d="M23.7,65c1.7-2.1,3-4.3,3.1-7c0.2-3.3-0.8-6.2-3.1-8.7c4.4,0.1,7.6,3.3,7.6,7.7
			C31.3,61.5,28.2,64.8,23.7,65z"/> <path fill="#F27250" d="M87.2,164c0.1,0,0.2-0.1,0.4-0.1C87.5,163.9,87.3,163.9,87.2,164z"/> <rect x="33.3" y="71.9" fill="#436756" width="48.7" height="80.9"/> <rect x="82.1" y="71.9" fill="#FFFFFF" width="48.7" height="80.9"/> <rect x="130.8" y="71.9" fill="#F27250" width="48.7" height="80.9"/> </g> </g> </symbol></svg>