<?xml version="1.0" encoding="utf-8"?>
<!-- Generator: Adobe Illustrator 16.0.0, SVG Export Plug-In . SVG Version: 6.00 Build 0)  -->
<!DOCTYPE svg PUBLIC "-//W3C//DTD SVG 1.1//EN" "http://www.w3.org/Graphics/SVG/1.1/DTD/svg11.dtd">
<svg version="1.1" id="Layer_1" xmlns="http://www.w3.org/2000/svg" xmlns:xlink="http://www.w3.org/1999/xlink" x="0px" y="0px"
	  viewBox="0 0 195 293" enable-background="new 0 0 195 293" xml:space="preserve">
<rect fill="#F16667" width="195" height="293"/>
<g id="v5AShT_1_">
	<g>
		<path fill-rule="evenodd" clip-rule="evenodd" fill="#FAC339" d="M79.918,60.147c0.898-0.188,1.794-0.376,2.692-0.564
			c1.988,1.678,6.026,1.642,7.898-0.071c12.943,0.398,25.886,0.81,38.83,1.188c2.394,0.069,4.788,0.01,7.37,0.01
			c0,2.971,0,5.472,0,8.258c-0.83,0.219-1.827,0.483-2.96,0.783c0,1.938,0,3.874,0,5.962c2.616,0.376,5.03,0.793,6.976-1.575
			c3.439-4.185,8.127-4.371,12.665-2.941c4.531,1.428,6.481,5.185,6.723,9.974c0.938,18.623-5.927,33.928-19.516,46.404
			c-1.036,0.953-2.299,1.923-3.614,2.261c-4.361,1.127-6.543,4.156-8.812,7.848c-5.368,8.734-13.684,13.399-23.752,15.003
			c-2.688-1.528-5.395-3.021-8.057-4.593c-9.484-5.598-15.241-13.972-15.618-24.867c-0.583-16.849-0.102-33.731-0.215-50.6
			c-0.019-2.639,0.768-3.359,3.365-3.339c14.332,0.115,28.665,0.055,42.996,0.055c1.074,0,2.149,0,3.223,0
			c-9.639-1.146-19.265-1.751-28.9-1.921c-6.58-0.116-13.174,0.426-19.762,0.576c-4.19,0.095-5.083-0.944-4.059-5.025
			C77.665,61.887,79.045,61.08,79.918,60.147z M133.398,81.242c0,14.809,0,29.16,0,44.544c2.845-2.306,5.605-4.043,7.735-6.36
			c7.093-7.716,10.919-17.114,12.934-27.253c0.632-3.184,0.731-6.526,0.636-9.782c-0.073-2.498-0.678-5.101-3.518-6.157
			c-2.293-0.854-4.708-0.613-5.893,1.529c-1.958,3.545-4.877,3.855-8.296,3.494C136.03,81.155,135.044,81.242,133.398,81.242z
			 M129.09,97.641c0-4.845-0.01-9.69,0.004-14.536c0.006-2.008-0.151-3.956-2.837-3.848c-2.347,0.094-2.691,1.808-2.686,3.749
			c0.021,9.691,0.021,19.383,0,29.073c-0.004,1.964,0.402,3.613,2.749,3.684c2.446,0.072,2.779-1.644,2.773-3.585
			C129.077,107.332,129.088,102.486,129.09,97.641z M126.168,126.198c1.302-1.68,2.712-2.732,2.578-3.525
			c-0.152-0.902-1.681-2.178-2.613-2.181c-1.036-0.003-2.075,1.25-3.111,1.955C123.864,123.453,124.709,124.459,126.168,126.198z"/>
		<path fill-rule="evenodd" clip-rule="evenodd" fill="#F8B41C" d="M79.918,60.147c-0.873,0.933-2.254,1.739-2.527,2.823
			c-1.024,4.081-0.131,5.12,4.059,5.025c6.588-0.15,13.182-0.692,19.762-0.576c9.636,0.17,19.262,0.774,28.9,1.921
			c-1.073,0-2.148,0-3.223,0c-14.331,0-28.664,0.061-42.996-0.055c-2.597-0.021-3.384,0.7-3.365,3.339
			c0.113,16.868-0.367,33.751,0.215,50.6c0.376,10.896,6.134,19.27,15.618,24.867c2.662,1.571,5.369,3.064,8.057,4.593
			c-0.263,0.469-0.524,0.938-0.785,1.407c-1.199,0.709-2.477,1.313-3.58,2.148c-1.869,1.415-3.629,2.977-5.437,4.476
			c0-2.5,0-5,0-7.028c-4.22-1.044-7.981-1.646-11.503-2.906c-8.344-2.989-14.312-8.747-18.437-16.572
			c-0.645-1.223-2.038-2.295-3.337-2.889c-5.314-2.429-9.643-5.949-13.216-10.574c-6.911-8.949-11.208-19.089-12.99-30.117
			c-0.689-4.265-0.289-9.12,1.083-13.216c2.869-8.58,13.082-10.117,18.927-3.112c1.629,1.95,3.467,2.109,5.106,1.337
			c0.826-0.39,1.065-2.631,1.02-4.018c-0.026-0.757-1.199-1.475-2.382-2.805c0-1.93,0-4.749,0-8.005
			C65.976,60.587,72.947,60.367,79.918,60.147z M61.249,124.603c0-14.829,0-28.984,0-43.341c-1.24,0-2.218,0.014-3.195-0.002
			c-2.93-0.049-5.72,0.558-7.596-3.176c-1.545-3.071-6.894-3.11-8.055-0.387c-1.245,2.926-2.389,6.392-2.001,9.419
			c1.202,9.376,4.404,18.203,9.574,26.198C52.823,117.714,56.105,121.74,61.249,124.603z"/>
		<path fill-rule="evenodd" clip-rule="evenodd" fill="#FAC339" d="M136.784,222.314c0,3.617,0,7.233,0,10.763
			c-0.323,0.202-0.502,0.411-0.682,0.411c-24.026,0.003-48.056-0.011-72.084-0.022c0.003-2.203,0.009-4.405,0.011-6.606
			c0.003-4.524,0.003-4.525,4.373-4.525C91.195,222.325,113.99,222.321,136.784,222.314z"/>
		<path fill-rule="evenodd" clip-rule="evenodd" fill="#F8B41C" d="M136.784,222.314c-22.794,0.007-45.589,0.011-68.383,0.02
			c-4.37,0-4.37,0.001-4.373,4.525c-0.002,2.201-0.008,4.403-0.011,6.606c-1.196,0-2.391,0-3.771,0c0-4.528,0-8.985,0-13.683
			c3.587,0,7.074,0,10.903,0c0-2.915,0-5.606,0-8.714c3.074,0,5.863-0.35,8.529,0.073c5.571,0.886,8.933-1.525,11.832-6.062
			c2.038-3.188,3.906-6.064,2.558-10.364c-6.453-2.419-10.449-7.554-9.985-14.79c0.378-5.901,3.456-10.796,9.769-12.649
			c-0.549,0.906-0.99,1.902-1.663,2.703c-5.419,6.453-3.349,17.515,4.242,21.104c2.869,1.358,6.171,1.797,9.275,2.653
			c-0.617,0.272-1.234,0.544-1.851,0.815c-1.691,0.328-3.385,0.656-4.364,0.846c-1.077,3.049-1.748,5.741-2.96,8.162
			c-1.234,2.46-3,4.65-4.896,7.505c6.029,0,11.391,0.034,16.748-0.034c0.909-0.012,1.812-0.468,2.717-0.717
			c4.263,0.076,8.523,0.214,12.785,0.198c1.872-0.006,2.719,0.565,2.148,2.508c-17.046,0-34.093,0-51.052,0
			c-0.832,6.511-0.71,6.659,5.042,6.655c15.446-0.007,30.891-0.018,46.337-0.027c3.373,0,6.746,0,10.423,0
			C136.784,220.684,136.784,221.498,136.784,222.314z"/>
		<path fill-rule="evenodd" clip-rule="evenodd" fill="#FAC33A" d="M105.706,193.736c-3.104-0.856-6.406-1.295-9.275-2.653
			c-7.591-3.589-9.662-14.65-4.242-21.104c0.673-0.801,1.114-1.797,1.663-2.703c0.256-2.186,0.513-4.374,0.766-6.561
			c1.808-1.499,3.567-3.061,5.437-4.476c1.104-0.835,2.381-1.439,3.58-2.148c0,4.271,0,8.542,0,12.777
			c5.947,2.678,9.884,6.763,9.999,13.277C113.737,186.106,111.295,190.926,105.706,193.736z"/>
		<path fill-rule="evenodd" clip-rule="evenodd" fill="#FAC136" d="M126.361,219.647c-15.446,0.01-30.891,0.021-46.337,0.027
			c-5.753,0.004-5.875-0.145-5.042-6.655c16.959,0,34.006,0,51.052,0C126.143,215.228,126.251,217.438,126.361,219.647z"/>
		<path fill-rule="evenodd" clip-rule="evenodd" fill="#FAC339" d="M111.101,210.313c-0.905,0.249-1.808,0.705-2.717,0.717
			c-5.357,0.068-10.719,0.034-16.748,0.034c1.896-2.854,3.661-5.045,4.896-7.505c1.212-2.421,1.883-5.113,2.96-8.162
			c0.979-0.189,2.673-0.518,4.364-0.846c-0.886,4.032,0.795,7.152,3.341,10.103C108.687,206.379,109.812,208.416,111.101,210.313z"
			/>
		<path fill-rule="evenodd" clip-rule="evenodd" fill="#F8B41C" d="M90.509,59.512c-1.872,1.713-5.911,1.749-7.898,0.071
			C85.244,59.559,87.876,59.536,90.509,59.512z"/>
		<path fill-rule="evenodd" clip-rule="evenodd" fill="#FFFFFF" d="M129.09,97.641c-0.002,4.846-0.013,9.691,0.004,14.537
			c0.006,1.941-0.327,3.657-2.773,3.585c-2.347-0.07-2.753-1.72-2.749-3.684c0.021-9.69,0.021-19.382,0-29.073
			c-0.006-1.941,0.339-3.655,2.686-3.749c2.686-0.108,2.843,1.84,2.837,3.848C129.08,87.95,129.09,92.796,129.09,97.641z"/>
		<path fill-rule="evenodd" clip-rule="evenodd" fill="#FFFDF9" d="M126.168,126.198c-1.459-1.739-2.304-2.745-3.146-3.751
			c1.036-0.705,2.075-1.958,3.111-1.955c0.933,0.003,2.461,1.278,2.613,2.181C128.88,123.466,127.47,124.519,126.168,126.198z"/>
	</g>
</g>
</svg>
